ISO-10303-21;
HEADER;
FILE_DESCRIPTION(('FreeCAD Model'),'2;1');
FILE_NAME('Open CASCADE Shape Model','2026-10-05T08:43:53',('FreeCAD'),(
    'FreeCAD'),'Open CASCADE STEP processor 7.8','FreeCAD','Unknown');
FILE_SCHEMA(('AUTOMOTIVE_DESIGN { 1 0 10303 214 1 1 1 1 }'));
ENDSEC;
DATA;
#1 = APPLICATION_PROTOCOL_DEFINITION('international standard',
  'automotive_design',2000,#2);
#2 = APPLICATION_CONTEXT(
  'core data for automotive mechanical design processes');
#3 = SHAPE_DEFINITION_REPRESENTATION(#4,#10);
#4 = PRODUCT_DEFINITION_SHAPE('','',#5);
#5 = PRODUCT_DEFINITION('design','',#6,#9);
#6 = PRODUCT_DEFINITION_FORMATION('','',#7);
#7 = PRODUCT('Open CASCADE STEP translator 7.8 1',
  'Open CASCADE STEP translator 7.8 1','',(#8));
#8 = PRODUCT_CONTEXT('',#2,'mechanical');
#9 = PRODUCT_DEFINITION_CONTEXT('part definition',#2,'design');
#10 = ADVANCED_BREP_SHAPE_REPRESENTATION('',(#11,#15),#1165);
#11 = AXIS2_PLACEMENT_3D('',#12,#13,#14);
#12 = CARTESIAN_POINT('',(0.,0.,0.));
#13 = DIRECTION('',(0.,0.,1.));
#14 = DIRECTION('',(1.,0.,-0.));
#15 = MANIFOLD_SOLID_BREP('',#16);
#16 = CLOSED_SHELL('',(#17,#50,#75,#95,#115,#140,#324,#349,#464,#495,
    #520,#545,#562,#593,#618,#643,#660,#691,#716,#741,#758,#783,#842,
    #867,#898,#922,#946,#963,#985,#1002,#1019,#1036,#1053,#1065,#1090,
    #1102,#1114,#1126,#1135,#1144,#1156));
#17 = ADVANCED_FACE('',(#18),#45,.T.);
#18 = FACE_BOUND('',#19,.T.);
#19 = EDGE_LOOP('',(#20,#29,#37,#44));
#20 = ORIENTED_EDGE('',*,*,#21,.F.);
#21 = EDGE_CURVE('',#22,#22,#24,.T.);
#22 = VERTEX_POINT('',#23);
#23 = CARTESIAN_POINT('',(32.,-8.E-15,2.));
#24 = CIRCLE('',#25,32.);
#25 = AXIS2_PLACEMENT_3D('',#26,#27,#28);
#26 = CARTESIAN_POINT('',(0.,0.,2.));
#27 = DIRECTION('',(0.,0.,1.));
#28 = DIRECTION('',(1.,0.,0.));
#29 = ORIENTED_EDGE('',*,*,#30,.F.);
#30 = EDGE_CURVE('',#31,#22,#33,.T.);
#31 = VERTEX_POINT('',#32);
#32 = CARTESIAN_POINT('',(30.,-7.E-15,0.));
#33 = LINE('',#34,#35);
#34 = CARTESIAN_POINT('',(30.,-7.35E-15,0.));
#35 = VECTOR('',#36,1.);
#36 = DIRECTION('',(0.707106781187,-1.7E-16,0.707106781187));
#37 = ORIENTED_EDGE('',*,*,#38,.T.);
#38 = EDGE_CURVE('',#31,#31,#39,.T.);
#39 = CIRCLE('',#40,30.);
#40 = AXIS2_PLACEMENT_3D('',#41,#42,#43);
#41 = CARTESIAN_POINT('',(0.,0.,0.));
#42 = DIRECTION('',(0.,0.,1.));
#43 = DIRECTION('',(1.,0.,0.));
#44 = ORIENTED_EDGE('',*,*,#30,.T.);
#45 = CONICAL_SURFACE('',#46,30.,0.785398163397);
#46 = AXIS2_PLACEMENT_3D('',#47,#48,#49);
#47 = CARTESIAN_POINT('',(0.,0.,0.));
#48 = DIRECTION('',(0.,0.,1.));
#49 = DIRECTION('',(1.,0.,0.));
#50 = ADVANCED_FACE('',(#51),#70,.T.);
#51 = FACE_BOUND('',#52,.T.);
#52 = EDGE_LOOP('',(#53,#62,#68,#69));
#53 = ORIENTED_EDGE('',*,*,#54,.F.);
#54 = EDGE_CURVE('',#55,#55,#57,.T.);
#55 = VERTEX_POINT('',#56);
#56 = CARTESIAN_POINT('',(32.,-8.E-15,8.));
#57 = CIRCLE('',#58,32.);
#58 = AXIS2_PLACEMENT_3D('',#59,#60,#61);
#59 = CARTESIAN_POINT('',(0.,0.,8.));
#60 = DIRECTION('',(0.,0.,1.));
#61 = DIRECTION('',(1.,0.,0.));
#62 = ORIENTED_EDGE('',*,*,#63,.F.);
#63 = EDGE_CURVE('',#22,#55,#64,.T.);
#64 = LINE('',#65,#66);
#65 = CARTESIAN_POINT('',(32.,-7.84E-15,2.));
#66 = VECTOR('',#67,1.);
#67 = DIRECTION('',(0.,0.,1.));
#68 = ORIENTED_EDGE('',*,*,#21,.T.);
#69 = ORIENTED_EDGE('',*,*,#63,.T.);
#70 = CYLINDRICAL_SURFACE('',#71,32.);
#71 = AXIS2_PLACEMENT_3D('',#72,#73,#74);
#72 = CARTESIAN_POINT('',(0.,0.,2.));
#73 = DIRECTION('',(0.,0.,1.));
#74 = DIRECTION('',(1.,0.,0.));
#75 = ADVANCED_FACE('',(#76,#79),#90,.F.);
#76 = FACE_BOUND('',#77,.F.);
#77 = EDGE_LOOP('',(#78));
#78 = ORIENTED_EDGE('',*,*,#38,.T.);
#79 = FACE_BOUND('',#80,.F.);
#80 = EDGE_LOOP('',(#81));
#81 = ORIENTED_EDGE('',*,*,#82,.F.);
#82 = EDGE_CURVE('',#83,#83,#85,.T.);
#83 = VERTEX_POINT('',#84);
#84 = CARTESIAN_POINT('',(8.9,-2.E-15,0.));
#85 = CIRCLE('',#86,8.9);
#86 = AXIS2_PLACEMENT_3D('',#87,#88,#89);
#87 = CARTESIAN_POINT('',(0.,0.,0.));
#88 = DIRECTION('',(0.,0.,1.));
#89 = DIRECTION('',(1.,0.,0.));
#90 = PLANE('',#91);
#91 = AXIS2_PLACEMENT_3D('',#92,#93,#94);
#92 = CARTESIAN_POINT('',(0.,0.,0.));
#93 = DIRECTION('',(0.,0.,1.));
#94 = DIRECTION('',(1.,0.,0.));
#95 = ADVANCED_FACE('',(#96,#99),#110,.T.);
#96 = FACE_BOUND('',#97,.T.);
#97 = EDGE_LOOP('',(#98));
#98 = ORIENTED_EDGE('',*,*,#54,.T.);
#99 = FACE_BOUND('',#100,.T.);
#100 = EDGE_LOOP('',(#101));
#101 = ORIENTED_EDGE('',*,*,#102,.F.);
#102 = EDGE_CURVE('',#103,#103,#105,.T.);
#103 = VERTEX_POINT('',#104);
#104 = CARTESIAN_POINT('',(25.65,-6.E-15,8.));
#105 = CIRCLE('',#106,25.65);
#106 = AXIS2_PLACEMENT_3D('',#107,#108,#109);
#107 = CARTESIAN_POINT('',(0.,0.,8.));
#108 = DIRECTION('',(0.,0.,1.));
#109 = DIRECTION('',(1.,0.,0.));
#110 = PLANE('',#111);
#111 = AXIS2_PLACEMENT_3D('',#112,#113,#114);
#112 = CARTESIAN_POINT('',(0.,0.,8.));
#113 = DIRECTION('',(0.,0.,1.));
#114 = DIRECTION('',(1.,0.,0.));
#115 = ADVANCED_FACE('',(#116),#135,.F.);
#116 = FACE_BOUND('',#117,.F.);
#117 = EDGE_LOOP('',(#118,#126,#133,#134));
#118 = ORIENTED_EDGE('',*,*,#119,.T.);
#119 = EDGE_CURVE('',#83,#120,#122,.T.);
#120 = VERTEX_POINT('',#121);
#121 = CARTESIAN_POINT('',(8.3,-2.E-15,0.6));
#122 = LINE('',#123,#124);
#123 = CARTESIAN_POINT('',(9.,-2.2E-15,-0.1));
#124 = VECTOR('',#125,1.);
#125 = DIRECTION('',(-0.707106781187,1.7E-16,0.707106781187));
#126 = ORIENTED_EDGE('',*,*,#127,.F.);
#127 = EDGE_CURVE('',#120,#120,#128,.T.);
#128 = CIRCLE('',#129,8.3);
#129 = AXIS2_PLACEMENT_3D('',#130,#131,#132);
#130 = CARTESIAN_POINT('',(0.,0.,0.6));
#131 = DIRECTION('',(0.,0.,1.));
#132 = DIRECTION('',(1.,0.,0.));
#133 = ORIENTED_EDGE('',*,*,#119,.F.);
#134 = ORIENTED_EDGE('',*,*,#82,.T.);
#135 = CONICAL_SURFACE('',#136,9.,0.785398163397);
#136 = AXIS2_PLACEMENT_3D('',#137,#138,#139);
#137 = CARTESIAN_POINT('',(0.,0.,-0.1));
#138 = DIRECTION('',(-0.,-0.,-1.));
#139 = DIRECTION('',(1.,0.,0.));
#140 = ADVANCED_FACE('',(#141,#160,#196,#232,#268),#319,.T.);
#141 = FACE_BOUND('',#142,.T.);
#142 = EDGE_LOOP('',(#143,#144,#152,#159));
#143 = ORIENTED_EDGE('',*,*,#102,.T.);
#144 = ORIENTED_EDGE('',*,*,#145,.T.);
#145 = EDGE_CURVE('',#103,#146,#148,.T.);
#146 = VERTEX_POINT('',#147);
#147 = CARTESIAN_POINT('',(25.65,-6.E-15,15.906));
#148 = LINE('',#149,#150);
#149 = CARTESIAN_POINT('',(25.65,-6.28E-15,8.));
#150 = VECTOR('',#151,1.);
#151 = DIRECTION('',(0.,0.,1.));
#152 = ORIENTED_EDGE('',*,*,#153,.F.);
#153 = EDGE_CURVE('',#146,#146,#154,.T.);
#154 = CIRCLE('',#155,25.65);
#155 = AXIS2_PLACEMENT_3D('',#156,#157,#158);
#156 = CARTESIAN_POINT('',(0.,0.,15.906));
#157 = DIRECTION('',(0.,0.,1.));
#158 = DIRECTION('',(1.,0.,0.));
#159 = ORIENTED_EDGE('',*,*,#145,.F.);
#160 = FACE_BOUND('',#161,.T.);
#161 = EDGE_LOOP('',(#162,#172,#181,#189));
#162 = ORIENTED_EDGE('',*,*,#163,.T.);
#163 = EDGE_CURVE('',#164,#166,#168,.T.);
#164 = VERTEX_POINT('',#165);
#165 = CARTESIAN_POINT('',(24.810417858701,6.5088912786,12.));
#166 = VERTEX_POINT('',#167);
#167 = CARTESIAN_POINT('',(24.810417858701,6.5088912786,14.5));
#168 = LINE('',#169,#170);
#169 = CARTESIAN_POINT('',(24.810417858701,6.5088912786,8.));
#170 = VECTOR('',#171,1.);
#171 = DIRECTION('',(0.,0.,1.));
#172 = ORIENTED_EDGE('',*,*,#173,.T.);
#173 = EDGE_CURVE('',#166,#174,#176,.T.);
#174 = VERTEX_POINT('',#175);
#175 = CARTESIAN_POINT('',(18.850559365596,17.394795532116,14.5));
#176 = CIRCLE('',#177,25.65);
#177 = AXIS2_PLACEMENT_3D('',#178,#179,#180);
#178 = CARTESIAN_POINT('',(0.,0.,14.5));
#179 = DIRECTION('',(0.,0.,1.));
#180 = DIRECTION('',(1.,0.,0.));
#181 = ORIENTED_EDGE('',*,*,#182,.F.);
#182 = EDGE_CURVE('',#183,#174,#185,.T.);
#183 = VERTEX_POINT('',#184);
#184 = CARTESIAN_POINT('',(18.850559365596,17.394795532116,12.));
#185 = LINE('',#186,#187);
#186 = CARTESIAN_POINT('',(18.850559365596,17.394795532116,8.));
#187 = VECTOR('',#188,1.);
#188 = DIRECTION('',(0.,0.,1.));
#189 = ORIENTED_EDGE('',*,*,#190,.F.);
#190 = EDGE_CURVE('',#164,#183,#191,.T.);
#191 = CIRCLE('',#192,25.65);
#192 = AXIS2_PLACEMENT_3D('',#193,#194,#195);
#193 = CARTESIAN_POINT('',(0.,0.,12.));
#194 = DIRECTION('',(0.,0.,1.));
#195 = DIRECTION('',(1.,0.,0.));
#196 = FACE_BOUND('',#197,.T.);
#197 = EDGE_LOOP('',(#198,#208,#217,#225));
#198 = ORIENTED_EDGE('',*,*,#199,.T.);
#199 = EDGE_CURVE('',#200,#202,#204,.T.);
#200 = VERTEX_POINT('',#201);
#201 = CARTESIAN_POINT('',(-18.9715375862,17.262770971526,12.));
#202 = VERTEX_POINT('',#203);
#203 = CARTESIAN_POINT('',(-18.9715375862,17.262770971526,14.5));
#204 = LINE('',#205,#206);
#205 = CARTESIAN_POINT('',(-18.9715375862,17.262770971526,8.));
#206 = VECTOR('',#207,1.);
#207 = DIRECTION('',(0.,0.,1.));
#208 = ORIENTED_EDGE('',*,*,#209,.T.);
#209 = EDGE_CURVE('',#202,#210,#212,.T.);
#210 = VERTEX_POINT('',#211);
#211 = CARTESIAN_POINT('',(-24.05685117279,8.898899462854,14.5));
#212 = CIRCLE('',#213,25.65);
#213 = AXIS2_PLACEMENT_3D('',#214,#215,#216);
#214 = CARTESIAN_POINT('',(0.,0.,14.5));
#215 = DIRECTION('',(0.,0.,1.));
#216 = DIRECTION('',(1.,0.,0.));
#217 = ORIENTED_EDGE('',*,*,#218,.F.);
#218 = EDGE_CURVE('',#219,#210,#221,.T.);
#219 = VERTEX_POINT('',#220);
#220 = CARTESIAN_POINT('',(-24.05685117279,8.898899462854,12.));
#221 = LINE('',#222,#223);
#222 = CARTESIAN_POINT('',(-24.05685117279,8.898899462854,8.));
#223 = VECTOR('',#224,1.);
#224 = DIRECTION('',(0.,0.,1.));
#225 = ORIENTED_EDGE('',*,*,#226,.F.);
#226 = EDGE_CURVE('',#200,#219,#227,.T.);
#227 = CIRCLE('',#228,25.65);
#228 = AXIS2_PLACEMENT_3D('',#229,#230,#231);
#229 = CARTESIAN_POINT('',(0.,0.,12.));
#230 = DIRECTION('',(0.,0.,1.));
#231 = DIRECTION('',(1.,0.,0.));
#232 = FACE_BOUND('',#233,.T.);
#233 = EDGE_LOOP('',(#234,#244,#253,#261));
#234 = ORIENTED_EDGE('',*,*,#235,.T.);
#235 = EDGE_CURVE('',#236,#238,#240,.T.);
#236 = VERTEX_POINT('',#237);
#237 = CARTESIAN_POINT('',(-5.464229407953,-25.06121898426,12.));
#238 = VERTEX_POINT('',#239);
#239 = CARTESIAN_POINT('',(-5.464229407953,-25.06121898426,14.5));
#240 = LINE('',#241,#242);
#241 = CARTESIAN_POINT('',(-5.464229407953,-25.06121898426,8.));
#242 = VECTOR('',#243,1.);
#243 = DIRECTION('',(0.,0.,1.));
#244 = ORIENTED_EDGE('',*,*,#245,.T.);
#245 = EDGE_CURVE('',#238,#246,#248,.T.);
#246 = VERTEX_POINT('',#247);
#247 = CARTESIAN_POINT('',(4.321752585842,-25.28329398212,14.5));
#248 = CIRCLE('',#249,25.65);
#249 = AXIS2_PLACEMENT_3D('',#250,#251,#252);
#250 = CARTESIAN_POINT('',(0.,0.,14.5));
#251 = DIRECTION('',(0.,0.,1.));
#252 = DIRECTION('',(1.,0.,0.));
#253 = ORIENTED_EDGE('',*,*,#254,.F.);
#254 = EDGE_CURVE('',#255,#246,#257,.T.);
#255 = VERTEX_POINT('',#256);
#256 = CARTESIAN_POINT('',(4.321752585842,-25.28329398212,12.));
#257 = LINE('',#258,#259);
#258 = CARTESIAN_POINT('',(4.321752585842,-25.28329398212,8.));
#259 = VECTOR('',#260,1.);
#260 = DIRECTION('',(0.,0.,1.));
#261 = ORIENTED_EDGE('',*,*,#262,.F.);
#262 = EDGE_CURVE('',#236,#255,#263,.T.);
#263 = CIRCLE('',#264,25.65);
#264 = AXIS2_PLACEMENT_3D('',#265,#266,#267);
#265 = CARTESIAN_POINT('',(0.,0.,12.));
#266 = DIRECTION('',(0.,0.,1.));
#267 = DIRECTION('',(1.,0.,0.));
#268 = FACE_BOUND('',#269,.T.);
#269 = EDGE_LOOP('',(#270));
#270 = ORIENTED_EDGE('',*,*,#271,.T.);
#271 = EDGE_CURVE('',#272,#272,#274,.T.);
#272 = VERTEX_POINT('',#273);
#273 = CARTESIAN_POINT('',(-25.24408588767,-4.545176310763,13.706));
#274 = B_SPLINE_CURVE_WITH_KNOTS('',7,(#275,#276,#277,#278,#279,#280,
    #281,#282,#283,#284,#285,#286,#287,#288,#289,#290,#291,#292,#293,
    #294,#295,#296,#297,#298,#299,#300,#301,#302,#303,#304,#305,#306,
    #307,#308,#309,#310,#311,#312,#313,#314,#315,#316,#317,#318),
  .UNSPECIFIED.,.T.,.F.,(8,6,6,6,6,6,6,8),(0.,0.15125265837,
    0.287072999638,0.424380133297,0.587302855017,0.713803994681,
    0.839622029864,1.),.UNSPECIFIED.);
#275 = CARTESIAN_POINT('',(-25.24408588767,-4.545176310763,13.706));
#276 = CARTESIAN_POINT('',(-25.24408588767,-4.545176310763,
    13.856196619194));
#277 = CARTESIAN_POINT('',(-25.2403505346,-4.565922364903,
    14.006471963638));
#278 = CARTESIAN_POINT('',(-25.23287246771,-4.60745709155,14.1546816049)
  );
#279 = CARTESIAN_POINT('',(-25.22146285654,-4.670207374701,
    14.298457580486));
#280 = CARTESIAN_POINT('',(-25.20579702371,-4.754751225293,
    14.434886846127));
#281 = CARTESIAN_POINT('',(-25.18540098958,-4.861628596747,
    14.560208742408));
#282 = CARTESIAN_POINT('',(-25.13674944257,-5.106889676198,
    14.766959943791));
#283 = CARTESIAN_POINT('',(-25.10891341123,-5.243943140046,
    14.854090318806));
#284 = CARTESIAN_POINT('',(-25.07641058636,-5.39911511694,
    14.921598108657));
#285 = CARTESIAN_POINT('',(-25.03990466987,-5.566766279129,
    14.963333794279));
#286 = CARTESIAN_POINT('',(-25.00059981408,-5.739750992958,
    14.976047577751));
#287 = CARTESIAN_POINT('',(-24.96028445386,-5.910539478539,
    14.959517894138));
#288 = CARTESIAN_POINT('',(-24.88093927945,-6.236164605024,
    14.873471608488));
#289 = CARTESIAN_POINT('',(-24.84306364267,-6.386148466021,
    14.804607687011));
#290 = CARTESIAN_POINT('',(-24.80829680757,-6.519528940359,
    14.715152447674));
#291 = CARTESIAN_POINT('',(-24.77751857411,-6.63469757599,
    14.609635537255));
#292 = CARTESIAN_POINT('',(-24.75135218997,-6.730842023015,
    14.492322887166));
#293 = CARTESIAN_POINT('',(-24.73012533672,-6.807870044471,
    14.367253899075));
#294 = CARTESIAN_POINT('',(-24.69455108117,-6.935909986482,
    14.085122938044));
#295 = CARTESIAN_POINT('',(-24.681656924,-6.981435461291,13.921932990895
    ));
#296 = CARTESIAN_POINT('',(-24.67576858274,-7.001955423077,
    13.753010323366));
#297 = CARTESIAN_POINT('',(-24.67716941656,-6.997066647034,
    13.582623348115));
#298 = CARTESIAN_POINT('',(-24.68581401301,-6.966832603066,
    13.414902645697));
#299 = CARTESIAN_POINT('',(-24.70138944121,-6.911633574901,
    13.253878316426));
#300 = CARTESIAN_POINT('',(-24.74046237579,-6.770238726988,12.9872859295
    ));
#301 = CARTESIAN_POINT('',(-24.76175700148,-6.692476935453,
    12.875003852268));
#302 = CARTESIAN_POINT('',(-24.78719781277,-6.598358739419,
    12.770216659339));
#303 = CARTESIAN_POINT('',(-24.8164636244,-6.488119648386,12.67630131134
    ));
#304 = CARTESIAN_POINT('',(-24.84900522475,-6.362591798071,
    12.596735510589));
#305 = CARTESIAN_POINT('',(-24.88408754875,-6.223244404196,
    12.535114234555));
#306 = CARTESIAN_POINT('',(-24.95736970968,-5.922501314289,
    12.455643015301));
#307 = CARTESIAN_POINT('',(-24.99476064928,-5.764474183897,
    12.438415974563));
#308 = CARTESIAN_POINT('',(-25.03145735425,-5.603867292768,
    12.446281933691));
#309 = CARTESIAN_POINT('',(-25.06595906943,-5.446899556387,
    12.479360174061));
#310 = CARTESIAN_POINT('',(-25.09718538861,-5.299581955,12.535314388584)
  );
#311 = CARTESIAN_POINT('',(-25.12448566384,-5.16686678836,
    12.609438220297));
#312 = CARTESIAN_POINT('',(-25.17709843487,-4.904959152822,
    12.803447059088));
#313 = CARTESIAN_POINT('',(-25.20049172313,-4.783330860371,
    12.932840317364));
#314 = CARTESIAN_POINT('',(-25.21838030052,-4.687149886011,
    13.076059105738));
#315 = CARTESIAN_POINT('',(-25.23136331321,-4.61583989041,
    13.228320090872));
#316 = CARTESIAN_POINT('',(-25.23984989139,-4.568702742007,
    13.385959637178));
#317 = CARTESIAN_POINT('',(-25.24408588767,-4.545176310763,
    13.546054442552));
#318 = CARTESIAN_POINT('',(-25.24408588767,-4.545176310763,13.706));
#319 = CYLINDRICAL_SURFACE('',#320,25.65);
#320 = AXIS2_PLACEMENT_3D('',#321,#322,#323);
#321 = CARTESIAN_POINT('',(0.,0.,8.));
#322 = DIRECTION('',(0.,0.,1.));
#323 = DIRECTION('',(1.,0.,0.));
#324 = ADVANCED_FACE('',(#325),#344,.F.);
#325 = FACE_BOUND('',#326,.F.);
#326 = EDGE_LOOP('',(#327,#335,#336,#337));
#327 = ORIENTED_EDGE('',*,*,#328,.F.);
#328 = EDGE_CURVE('',#120,#329,#331,.T.);
#329 = VERTEX_POINT('',#330);
#330 = CARTESIAN_POINT('',(8.3,-2.E-15,2.));
#331 = LINE('',#332,#333);
#332 = CARTESIAN_POINT('',(8.3,-2.03E-15,-0.1));
#333 = VECTOR('',#334,1.);
#334 = DIRECTION('',(0.,0.,1.));
#335 = ORIENTED_EDGE('',*,*,#127,.T.);
#336 = ORIENTED_EDGE('',*,*,#328,.T.);
#337 = ORIENTED_EDGE('',*,*,#338,.F.);
#338 = EDGE_CURVE('',#329,#329,#339,.T.);
#339 = CIRCLE('',#340,8.3);
#340 = AXIS2_PLACEMENT_3D('',#341,#342,#343);
#341 = CARTESIAN_POINT('',(0.,0.,2.));
#342 = DIRECTION('',(0.,0.,1.));
#343 = DIRECTION('',(1.,0.,0.));
#344 = CYLINDRICAL_SURFACE('',#345,8.3);
#345 = AXIS2_PLACEMENT_3D('',#346,#347,#348);
#346 = CARTESIAN_POINT('',(0.,0.,-0.1));
#347 = DIRECTION('',(0.,0.,1.));
#348 = DIRECTION('',(1.,0.,0.));
#349 = ADVANCED_FACE('',(#350,#353,#364,#398,#448),#459,.T.);
#350 = FACE_BOUND('',#351,.T.);
#351 = EDGE_LOOP('',(#352));
#352 = ORIENTED_EDGE('',*,*,#153,.T.);
#353 = FACE_BOUND('',#354,.T.);
#354 = EDGE_LOOP('',(#355));
#355 = ORIENTED_EDGE('',*,*,#356,.F.);
#356 = EDGE_CURVE('',#357,#357,#359,.T.);
#357 = VERTEX_POINT('',#358);
#358 = CARTESIAN_POINT('',(1.25,-15.,15.906));
#359 = CIRCLE('',#360,1.25);
#360 = AXIS2_PLACEMENT_3D('',#361,#362,#363);
#361 = CARTESIAN_POINT('',(-2.76E-15,-15.,15.906));
#362 = DIRECTION('',(0.,0.,1.));
#363 = DIRECTION('',(1.,0.,0.));
#364 = FACE_BOUND('',#365,.T.);
#365 = EDGE_LOOP('',(#366,#376,#384,#392));
#366 = ORIENTED_EDGE('',*,*,#367,.T.);
#367 = EDGE_CURVE('',#368,#370,#372,.T.);
#368 = VERTEX_POINT('',#369);
#369 = CARTESIAN_POINT('',(-13.5,2.5,15.906));
#370 = VERTEX_POINT('',#371);
#371 = CARTESIAN_POINT('',(-21.5,2.5,15.906));
#372 = LINE('',#373,#374);
#373 = CARTESIAN_POINT('',(-10.75,2.5,15.906));
#374 = VECTOR('',#375,1.);
#375 = DIRECTION('',(-1.,0.,0.));
#376 = ORIENTED_EDGE('',*,*,#377,.T.);
#377 = EDGE_CURVE('',#370,#378,#380,.T.);
#378 = VERTEX_POINT('',#379);
#379 = CARTESIAN_POINT('',(-21.5,8.5,15.906));
#380 = LINE('',#381,#382);
#381 = CARTESIAN_POINT('',(-21.5,1.25,15.906));
#382 = VECTOR('',#383,1.);
#383 = DIRECTION('',(0.,1.,0.));
#384 = ORIENTED_EDGE('',*,*,#385,.F.);
#385 = EDGE_CURVE('',#386,#378,#388,.T.);
#386 = VERTEX_POINT('',#387);
#387 = CARTESIAN_POINT('',(-13.5,8.5,15.906));
#388 = LINE('',#389,#390);
#389 = CARTESIAN_POINT('',(-10.75,8.5,15.906));
#390 = VECTOR('',#391,1.);
#391 = DIRECTION('',(-1.,0.,0.));
#392 = ORIENTED_EDGE('',*,*,#393,.F.);
#393 = EDGE_CURVE('',#368,#386,#394,.T.);
#394 = LINE('',#395,#396);
#395 = CARTESIAN_POINT('',(-13.5,1.25,15.906));
#396 = VECTOR('',#397,1.);
#397 = DIRECTION('',(0.,1.,0.));
#398 = FACE_BOUND('',#399,.T.);
#399 = EDGE_LOOP('',(#400,#410,#418,#426,#434,#442));
#400 = ORIENTED_EDGE('',*,*,#401,.T.);
#401 = EDGE_CURVE('',#402,#404,#406,.T.);
#402 = VERTEX_POINT('',#403);
#403 = CARTESIAN_POINT('',(-6.960679182917,12.05625,15.906));
#404 = VERTEX_POINT('',#405);
#405 = CARTESIAN_POINT('',(6.960679182917,12.05625,15.906));
#406 = LINE('',#407,#408);
#407 = CARTESIAN_POINT('',(3.480339591459,12.05625,15.906));
#408 = VECTOR('',#409,1.);
#409 = DIRECTION('',(1.,-1.3E-16,0.));
#410 = ORIENTED_EDGE('',*,*,#411,.T.);
#411 = EDGE_CURVE('',#404,#412,#414,.T.);
#412 = VERTEX_POINT('',#413);
#413 = CARTESIAN_POINT('',(13.921358365835,0.,15.906));
#414 = LINE('',#415,#416);
#415 = CARTESIAN_POINT('',(12.181188570105,3.0140625,15.906));
#416 = VECTOR('',#417,1.);
#417 = DIRECTION('',(0.5,-0.866025403784,0.));
#418 = ORIENTED_EDGE('',*,*,#419,.T.);
#419 = EDGE_CURVE('',#412,#420,#422,.T.);
#420 = VERTEX_POINT('',#421);
#421 = CARTESIAN_POINT('',(6.960679182917,-12.05625,15.906));
#422 = LINE('',#423,#424);
#423 = CARTESIAN_POINT('',(8.700848978647,-9.0421875,15.906));
#424 = VECTOR('',#425,1.);
#425 = DIRECTION('',(-0.5,-0.866025403784,0.));
#426 = ORIENTED_EDGE('',*,*,#427,.T.);
#427 = EDGE_CURVE('',#420,#428,#430,.T.);
#428 = VERTEX_POINT('',#429);
#429 = CARTESIAN_POINT('',(-6.960679182917,-12.05625,15.906));
#430 = LINE('',#431,#432);
#431 = CARTESIAN_POINT('',(-3.480339591459,-12.05625,15.906));
#432 = VECTOR('',#433,1.);
#433 = DIRECTION('',(-1.,2.6E-16,0.));
#434 = ORIENTED_EDGE('',*,*,#435,.T.);
#435 = EDGE_CURVE('',#428,#436,#438,.T.);
#436 = VERTEX_POINT('',#437);
#437 = CARTESIAN_POINT('',(-13.92135836583,2.E-15,15.906));
#438 = LINE('',#439,#440);
#439 = CARTESIAN_POINT('',(-12.1811885701,-3.0140625,15.906));
#440 = VECTOR('',#441,1.);
#441 = DIRECTION('',(-0.5,0.866025403784,0.));
#442 = ORIENTED_EDGE('',*,*,#443,.T.);
#443 = EDGE_CURVE('',#436,#402,#444,.T.);
#444 = LINE('',#445,#446);
#445 = CARTESIAN_POINT('',(-8.700848978647,9.0421875,15.906));
#446 = VECTOR('',#447,1.);
#447 = DIRECTION('',(0.5,0.866025403784,0.));
#448 = FACE_BOUND('',#449,.T.);
#449 = EDGE_LOOP('',(#450));
#450 = ORIENTED_EDGE('',*,*,#451,.F.);
#451 = EDGE_CURVE('',#452,#452,#454,.T.);
#452 = VERTEX_POINT('',#453);
#453 = CARTESIAN_POINT('',(1.25,15.,15.906));
#454 = CIRCLE('',#455,1.25);
#455 = AXIS2_PLACEMENT_3D('',#456,#457,#458);
#456 = CARTESIAN_POINT('',(9.2E-16,15.,15.906));
#457 = DIRECTION('',(0.,0.,1.));
#458 = DIRECTION('',(1.,0.,0.));
#459 = PLANE('',#460);
#460 = AXIS2_PLACEMENT_3D('',#461,#462,#463);
#461 = CARTESIAN_POINT('',(0.,0.,15.906));
#462 = DIRECTION('',(0.,0.,1.));
#463 = DIRECTION('',(1.,0.,0.));
#464 = ADVANCED_FACE('',(#465),#490,.T.);
#465 = FACE_BOUND('',#466,.T.);
#466 = EDGE_LOOP('',(#467,#468,#476,#484));
#467 = ORIENTED_EDGE('',*,*,#163,.F.);
#468 = ORIENTED_EDGE('',*,*,#469,.T.);
#469 = EDGE_CURVE('',#164,#470,#472,.T.);
#470 = VERTEX_POINT('',#471);
#471 = CARTESIAN_POINT('',(27.228587240641,7.143286140062,12.));
#472 = LINE('',#473,#474);
#473 = CARTESIAN_POINT('',(0.,0.,12.));
#474 = VECTOR('',#475,1.);
#475 = DIRECTION('',(0.967267752776,0.253757944585,0.));
#476 = ORIENTED_EDGE('',*,*,#477,.T.);
#477 = EDGE_CURVE('',#470,#478,#480,.T.);
#478 = VERTEX_POINT('',#479);
#479 = CARTESIAN_POINT('',(27.228587240641,7.143286140062,14.5));
#480 = LINE('',#481,#482);
#481 = CARTESIAN_POINT('',(27.228587240641,7.143286140062,12.));
#482 = VECTOR('',#483,1.);
#483 = DIRECTION('',(0.,0.,1.));
#484 = ORIENTED_EDGE('',*,*,#485,.F.);
#485 = EDGE_CURVE('',#166,#478,#486,.T.);
#486 = LINE('',#487,#488);
#487 = CARTESIAN_POINT('',(0.,0.,14.5));
#488 = VECTOR('',#489,1.);
#489 = DIRECTION('',(0.967267752776,0.253757944585,0.));
#490 = PLANE('',#491);
#491 = AXIS2_PLACEMENT_3D('',#492,#493,#494);
#492 = CARTESIAN_POINT('',(0.,0.,12.));
#493 = DIRECTION('',(0.253757944585,-0.967267752776,0.));
#494 = DIRECTION('',(0.967267752776,0.253757944585,0.));
#495 = ADVANCED_FACE('',(#496),#515,.F.);
#496 = FACE_BOUND('',#497,.F.);
#497 = EDGE_LOOP('',(#498,#507,#513,#514));
#498 = ORIENTED_EDGE('',*,*,#499,.T.);
#499 = EDGE_CURVE('',#470,#500,#502,.T.);
#500 = VERTEX_POINT('',#501);
#501 = CARTESIAN_POINT('',(20.687845853471,19.090194706786,12.));
#502 = CIRCLE('',#503,28.15);
#503 = AXIS2_PLACEMENT_3D('',#504,#505,#506);
#504 = CARTESIAN_POINT('',(0.,0.,12.));
#505 = DIRECTION('',(0.,-0.,1.));
#506 = DIRECTION('',(0.967267752776,0.253757944585,0.));
#507 = ORIENTED_EDGE('',*,*,#508,.F.);
#508 = EDGE_CURVE('',#183,#500,#509,.T.);
#509 = LINE('',#510,#511);
#510 = CARTESIAN_POINT('',(0.,0.,12.));
#511 = VECTOR('',#512,1.);
#512 = DIRECTION('',(0.73491459515,0.678159669868,0.));
#513 = ORIENTED_EDGE('',*,*,#190,.F.);
#514 = ORIENTED_EDGE('',*,*,#469,.T.);
#515 = PLANE('',#516);
#516 = AXIS2_PLACEMENT_3D('',#517,#518,#519);
#517 = CARTESIAN_POINT('',(0.,0.,12.));
#518 = DIRECTION('',(0.,0.,1.));
#519 = DIRECTION('',(0.967267752776,0.253757944585,0.));
#520 = ADVANCED_FACE('',(#521),#540,.T.);
#521 = FACE_BOUND('',#522,.T.);
#522 = EDGE_LOOP('',(#523,#532,#538,#539));
#523 = ORIENTED_EDGE('',*,*,#524,.T.);
#524 = EDGE_CURVE('',#478,#525,#527,.T.);
#525 = VERTEX_POINT('',#526);
#526 = CARTESIAN_POINT('',(20.687845853471,19.090194706786,14.5));
#527 = CIRCLE('',#528,28.15);
#528 = AXIS2_PLACEMENT_3D('',#529,#530,#531);
#529 = CARTESIAN_POINT('',(0.,0.,14.5));
#530 = DIRECTION('',(0.,-0.,1.));
#531 = DIRECTION('',(0.967267752776,0.253757944585,0.));
#532 = ORIENTED_EDGE('',*,*,#533,.F.);
#533 = EDGE_CURVE('',#174,#525,#534,.T.);
#534 = LINE('',#535,#536);
#535 = CARTESIAN_POINT('',(0.,0.,14.5));
#536 = VECTOR('',#537,1.);
#537 = DIRECTION('',(0.73491459515,0.678159669868,0.));
#538 = ORIENTED_EDGE('',*,*,#173,.F.);
#539 = ORIENTED_EDGE('',*,*,#485,.T.);
#540 = PLANE('',#541);
#541 = AXIS2_PLACEMENT_3D('',#542,#543,#544);
#542 = CARTESIAN_POINT('',(0.,0.,14.5));
#543 = DIRECTION('',(0.,0.,1.));
#544 = DIRECTION('',(0.967267752776,0.253757944585,0.));
#545 = ADVANCED_FACE('',(#546),#557,.F.);
#546 = FACE_BOUND('',#547,.F.);
#547 = EDGE_LOOP('',(#548,#549,#550,#551));
#548 = ORIENTED_EDGE('',*,*,#533,.F.);
#549 = ORIENTED_EDGE('',*,*,#182,.F.);
#550 = ORIENTED_EDGE('',*,*,#508,.T.);
#551 = ORIENTED_EDGE('',*,*,#552,.T.);
#552 = EDGE_CURVE('',#500,#525,#553,.T.);
#553 = LINE('',#554,#555);
#554 = CARTESIAN_POINT('',(20.687845853471,19.090194706786,12.));
#555 = VECTOR('',#556,1.);
#556 = DIRECTION('',(0.,0.,1.));
#557 = PLANE('',#558);
#558 = AXIS2_PLACEMENT_3D('',#559,#560,#561);
#559 = CARTESIAN_POINT('',(0.,0.,12.));
#560 = DIRECTION('',(0.678159669868,-0.73491459515,0.));
#561 = DIRECTION('',(0.73491459515,0.678159669868,0.));
#562 = ADVANCED_FACE('',(#563),#588,.T.);
#563 = FACE_BOUND('',#564,.T.);
#564 = EDGE_LOOP('',(#565,#566,#574,#582));
#565 = ORIENTED_EDGE('',*,*,#199,.F.);
#566 = ORIENTED_EDGE('',*,*,#567,.T.);
#567 = EDGE_CURVE('',#200,#568,#570,.T.);
#568 = VERTEX_POINT('',#569);
#569 = CARTESIAN_POINT('',(-20.82061532364,18.9453022553,12.));
#570 = LINE('',#571,#572);
#571 = CARTESIAN_POINT('',(0.,0.,12.));
#572 = VECTOR('',#573,1.);
#573 = DIRECTION('',(-0.739631094979,0.67301251351,0.));
#574 = ORIENTED_EDGE('',*,*,#575,.T.);
#575 = EDGE_CURVE('',#568,#576,#578,.T.);
#576 = VERTEX_POINT('',#577);
#577 = CARTESIAN_POINT('',(-20.82061532364,18.9453022553,14.5));
#578 = LINE('',#579,#580);
#579 = CARTESIAN_POINT('',(-20.82061532364,18.9453022553,12.));
#580 = VECTOR('',#581,1.);
#581 = DIRECTION('',(0.,0.,1.));
#582 = ORIENTED_EDGE('',*,*,#583,.F.);
#583 = EDGE_CURVE('',#202,#576,#584,.T.);
#584 = LINE('',#585,#586);
#585 = CARTESIAN_POINT('',(0.,0.,14.5));
#586 = VECTOR('',#587,1.);
#587 = DIRECTION('',(-0.739631094979,0.67301251351,0.));
#588 = PLANE('',#589);
#589 = AXIS2_PLACEMENT_3D('',#590,#591,#592);
#590 = CARTESIAN_POINT('',(0.,0.,12.));
#591 = DIRECTION('',(0.67301251351,0.739631094979,0.));
#592 = DIRECTION('',(-0.739631094979,0.67301251351,0.));
#593 = ADVANCED_FACE('',(#594),#613,.F.);
#594 = FACE_BOUND('',#595,.F.);
#595 = EDGE_LOOP('',(#596,#605,#611,#612));
#596 = ORIENTED_EDGE('',*,*,#597,.T.);
#597 = EDGE_CURVE('',#568,#598,#600,.T.);
#598 = VERTEX_POINT('',#599);
#599 = CARTESIAN_POINT('',(-26.40157350932,9.766238591787,12.));
#600 = CIRCLE('',#601,28.15);
#601 = AXIS2_PLACEMENT_3D('',#602,#603,#604);
#602 = CARTESIAN_POINT('',(0.,0.,12.));
#603 = DIRECTION('',(0.,0.,1.));
#604 = DIRECTION('',(-0.739631094979,0.67301251351,0.));
#605 = ORIENTED_EDGE('',*,*,#606,.F.);
#606 = EDGE_CURVE('',#219,#598,#607,.T.);
#607 = LINE('',#608,#609);
#608 = CARTESIAN_POINT('',(0.,0.,12.));
#609 = VECTOR('',#610,1.);
#610 = DIRECTION('',(-0.937888934612,0.346935651573,0.));
#611 = ORIENTED_EDGE('',*,*,#226,.F.);
#612 = ORIENTED_EDGE('',*,*,#567,.T.);
#613 = PLANE('',#614);
#614 = AXIS2_PLACEMENT_3D('',#615,#616,#617);
#615 = CARTESIAN_POINT('',(0.,0.,12.));
#616 = DIRECTION('',(0.,0.,1.));
#617 = DIRECTION('',(-0.739631094979,0.67301251351,0.));
#618 = ADVANCED_FACE('',(#619),#638,.T.);
#619 = FACE_BOUND('',#620,.T.);
#620 = EDGE_LOOP('',(#621,#630,#636,#637));
#621 = ORIENTED_EDGE('',*,*,#622,.T.);
#622 = EDGE_CURVE('',#576,#623,#625,.T.);
#623 = VERTEX_POINT('',#624);
#624 = CARTESIAN_POINT('',(-26.40157350932,9.766238591787,14.5));
#625 = CIRCLE('',#626,28.15);
#626 = AXIS2_PLACEMENT_3D('',#627,#628,#629);
#627 = CARTESIAN_POINT('',(0.,0.,14.5));
#628 = DIRECTION('',(0.,0.,1.));
#629 = DIRECTION('',(-0.739631094979,0.67301251351,0.));
#630 = ORIENTED_EDGE('',*,*,#631,.F.);
#631 = EDGE_CURVE('',#210,#623,#632,.T.);
#632 = LINE('',#633,#634);
#633 = CARTESIAN_POINT('',(0.,0.,14.5));
#634 = VECTOR('',#635,1.);
#635 = DIRECTION('',(-0.937888934612,0.346935651573,0.));
#636 = ORIENTED_EDGE('',*,*,#209,.F.);
#637 = ORIENTED_EDGE('',*,*,#583,.T.);
#638 = PLANE('',#639);
#639 = AXIS2_PLACEMENT_3D('',#640,#641,#642);
#640 = CARTESIAN_POINT('',(0.,0.,14.5));
#641 = DIRECTION('',(0.,0.,1.));
#642 = DIRECTION('',(-0.739631094979,0.67301251351,0.));
#643 = ADVANCED_FACE('',(#644),#655,.F.);
#644 = FACE_BOUND('',#645,.F.);
#645 = EDGE_LOOP('',(#646,#647,#648,#649));
#646 = ORIENTED_EDGE('',*,*,#631,.F.);
#647 = ORIENTED_EDGE('',*,*,#218,.F.);
#648 = ORIENTED_EDGE('',*,*,#606,.T.);
#649 = ORIENTED_EDGE('',*,*,#650,.T.);
#650 = EDGE_CURVE('',#598,#623,#651,.T.);
#651 = LINE('',#652,#653);
#652 = CARTESIAN_POINT('',(-26.40157350932,9.766238591787,12.));
#653 = VECTOR('',#654,1.);
#654 = DIRECTION('',(0.,0.,1.));
#655 = PLANE('',#656);
#656 = AXIS2_PLACEMENT_3D('',#657,#658,#659);
#657 = CARTESIAN_POINT('',(0.,0.,12.));
#658 = DIRECTION('',(0.346935651573,0.937888934612,0.));
#659 = DIRECTION('',(-0.937888934612,0.346935651573,0.));
#660 = ADVANCED_FACE('',(#661),#686,.T.);
#661 = FACE_BOUND('',#662,.T.);
#662 = EDGE_LOOP('',(#663,#664,#672,#680));
#663 = ORIENTED_EDGE('',*,*,#235,.F.);
#664 = ORIENTED_EDGE('',*,*,#665,.T.);
#665 = EDGE_CURVE('',#236,#666,#668,.T.);
#666 = VERTEX_POINT('',#667);
#667 = CARTESIAN_POINT('',(-5.996805373641,-27.50383292035,12.));
#668 = LINE('',#669,#670);
#669 = CARTESIAN_POINT('',(0.,0.,12.));
#670 = VECTOR('',#671,1.);
#671 = DIRECTION('',(-0.213030386275,-0.977045574435,0.));
#672 = ORIENTED_EDGE('',*,*,#673,.T.);
#673 = EDGE_CURVE('',#666,#674,#676,.T.);
#674 = VERTEX_POINT('',#675);
#675 = CARTESIAN_POINT('',(-5.996805373641,-27.50383292035,14.5));
#676 = LINE('',#677,#678);
#677 = CARTESIAN_POINT('',(-5.996805373641,-27.50383292035,12.));
#678 = VECTOR('',#679,1.);
#679 = DIRECTION('',(0.,0.,1.));
#680 = ORIENTED_EDGE('',*,*,#681,.F.);
#681 = EDGE_CURVE('',#238,#674,#682,.T.);
#682 = LINE('',#683,#684);
#683 = CARTESIAN_POINT('',(0.,0.,14.5));
#684 = VECTOR('',#685,1.);
#685 = DIRECTION('',(-0.213030386275,-0.977045574435,0.));
#686 = PLANE('',#687);
#687 = AXIS2_PLACEMENT_3D('',#688,#689,#690);
#688 = CARTESIAN_POINT('',(0.,0.,12.));
#689 = DIRECTION('',(-0.977045574435,0.213030386275,0.));
#690 = DIRECTION('',(-0.213030386275,-0.977045574435,0.));
#691 = ADVANCED_FACE('',(#692),#711,.F.);
#692 = FACE_BOUND('',#693,.F.);
#693 = EDGE_LOOP('',(#694,#703,#709,#710));
#694 = ORIENTED_EDGE('',*,*,#695,.T.);
#695 = EDGE_CURVE('',#666,#696,#698,.T.);
#696 = VERTEX_POINT('',#697);
#697 = CARTESIAN_POINT('',(4.742976034755,-27.74755265485,12.));
#698 = CIRCLE('',#699,28.15);
#699 = AXIS2_PLACEMENT_3D('',#700,#701,#702);
#700 = CARTESIAN_POINT('',(0.,0.,12.));
#701 = DIRECTION('',(0.,0.,1.));
#702 = DIRECTION('',(-0.213030386275,-0.977045574435,0.));
#703 = ORIENTED_EDGE('',*,*,#704,.F.);
#704 = EDGE_CURVE('',#255,#696,#705,.T.);
#705 = LINE('',#706,#707);
#706 = CARTESIAN_POINT('',(0.,0.,12.));
#707 = VECTOR('',#708,1.);
#708 = DIRECTION('',(0.168489379565,-0.985703469089,0.));
#709 = ORIENTED_EDGE('',*,*,#262,.F.);
#710 = ORIENTED_EDGE('',*,*,#665,.T.);
#711 = PLANE('',#712);
#712 = AXIS2_PLACEMENT_3D('',#713,#714,#715);
#713 = CARTESIAN_POINT('',(0.,0.,12.));
#714 = DIRECTION('',(0.,0.,1.));
#715 = DIRECTION('',(-0.213030386275,-0.977045574435,0.));
#716 = ADVANCED_FACE('',(#717),#736,.T.);
#717 = FACE_BOUND('',#718,.T.);
#718 = EDGE_LOOP('',(#719,#728,#734,#735));
#719 = ORIENTED_EDGE('',*,*,#720,.T.);
#720 = EDGE_CURVE('',#674,#721,#723,.T.);
#721 = VERTEX_POINT('',#722);
#722 = CARTESIAN_POINT('',(4.742976034755,-27.74755265485,14.5));
#723 = CIRCLE('',#724,28.15);
#724 = AXIS2_PLACEMENT_3D('',#725,#726,#727);
#725 = CARTESIAN_POINT('',(0.,0.,14.5));
#726 = DIRECTION('',(0.,0.,1.));
#727 = DIRECTION('',(-0.213030386275,-0.977045574435,0.));
#728 = ORIENTED_EDGE('',*,*,#729,.F.);
#729 = EDGE_CURVE('',#246,#721,#730,.T.);
#730 = LINE('',#731,#732);
#731 = CARTESIAN_POINT('',(0.,0.,14.5));
#732 = VECTOR('',#733,1.);
#733 = DIRECTION('',(0.168489379565,-0.985703469089,0.));
#734 = ORIENTED_EDGE('',*,*,#245,.F.);
#735 = ORIENTED_EDGE('',*,*,#681,.T.);
#736 = PLANE('',#737);
#737 = AXIS2_PLACEMENT_3D('',#738,#739,#740);
#738 = CARTESIAN_POINT('',(0.,0.,14.5));
#739 = DIRECTION('',(0.,0.,1.));
#740 = DIRECTION('',(-0.213030386275,-0.977045574435,0.));
#741 = ADVANCED_FACE('',(#742),#753,.F.);
#742 = FACE_BOUND('',#743,.F.);
#743 = EDGE_LOOP('',(#744,#745,#746,#747));
#744 = ORIENTED_EDGE('',*,*,#729,.F.);
#745 = ORIENTED_EDGE('',*,*,#254,.F.);
#746 = ORIENTED_EDGE('',*,*,#704,.T.);
#747 = ORIENTED_EDGE('',*,*,#748,.T.);
#748 = EDGE_CURVE('',#696,#721,#749,.T.);
#749 = LINE('',#750,#751);
#750 = CARTESIAN_POINT('',(4.742976034755,-27.74755265485,12.));
#751 = VECTOR('',#752,1.);
#752 = DIRECTION('',(0.,0.,1.));
#753 = PLANE('',#754);
#754 = AXIS2_PLACEMENT_3D('',#755,#756,#757);
#755 = CARTESIAN_POINT('',(0.,0.,12.));
#756 = DIRECTION('',(-0.985703469089,-0.168489379565,0.));
#757 = DIRECTION('',(0.168489379565,-0.985703469089,0.));
#758 = ADVANCED_FACE('',(#759),#778,.F.);
#759 = FACE_BOUND('',#760,.F.);
#760 = EDGE_LOOP('',(#761,#769,#776,#777));
#761 = ORIENTED_EDGE('',*,*,#762,.T.);
#762 = EDGE_CURVE('',#272,#763,#765,.T.);
#763 = VERTEX_POINT('',#764);
#764 = CARTESIAN_POINT('',(-19.47627909419,-3.213573189593,13.706));
#765 = LINE('',#766,#767);
#766 = CARTESIAN_POINT('',(-33.40977102062,-6.43037326671,13.706));
#767 = VECTOR('',#768,1.);
#768 = DIRECTION('',(0.974370064785,0.224951054344,0.));
#769 = ORIENTED_EDGE('',*,*,#770,.F.);
#770 = EDGE_CURVE('',#763,#763,#771,.T.);
#771 = CIRCLE('',#772,1.25);
#772 = AXIS2_PLACEMENT_3D('',#773,#774,#775);
#773 = CARTESIAN_POINT('',(-19.19509027626,-4.431535770574,13.706));
#774 = DIRECTION('',(0.974370064785,0.224951054344,-0.));
#775 = DIRECTION('',(-0.224951054344,0.974370064785,0.));
#776 = ORIENTED_EDGE('',*,*,#762,.F.);
#777 = ORIENTED_EDGE('',*,*,#271,.T.);
#778 = CYLINDRICAL_SURFACE('',#779,1.25);
#779 = AXIS2_PLACEMENT_3D('',#780,#781,#782);
#780 = CARTESIAN_POINT('',(-33.12858220269,-7.648335847691,13.706));
#781 = DIRECTION('',(0.974370064785,0.224951054344,0.));
#782 = DIRECTION('',(-0.224951054344,0.974370064785,0.));
#783 = ADVANCED_FACE('',(#784,#834),#837,.T.);
#784 = FACE_BOUND('',#785,.T.);
#785 = EDGE_LOOP('',(#786,#796,#804,#812,#820,#828));
#786 = ORIENTED_EDGE('',*,*,#787,.T.);
#787 = EDGE_CURVE('',#788,#790,#792,.T.);
#788 = VERTEX_POINT('',#789);
#789 = CARTESIAN_POINT('',(13.921358365835,0.,2.));
#790 = VERTEX_POINT('',#791);
#791 = CARTESIAN_POINT('',(6.960679182917,12.05625,2.));
#792 = LINE('',#793,#794);
#793 = CARTESIAN_POINT('',(13.921358365835,0.,2.));
#794 = VECTOR('',#795,1.);
#795 = DIRECTION('',(-0.5,0.866025403784,0.));
#796 = ORIENTED_EDGE('',*,*,#797,.T.);
#797 = EDGE_CURVE('',#790,#798,#800,.T.);
#798 = VERTEX_POINT('',#799);
#799 = CARTESIAN_POINT('',(-6.960679182917,12.05625,2.));
#800 = LINE('',#801,#802);
#801 = CARTESIAN_POINT('',(6.960679182917,12.05625,2.));
#802 = VECTOR('',#803,1.);
#803 = DIRECTION('',(-1.,1.3E-16,0.));
#804 = ORIENTED_EDGE('',*,*,#805,.T.);
#805 = EDGE_CURVE('',#798,#806,#808,.T.);
#806 = VERTEX_POINT('',#807);
#807 = CARTESIAN_POINT('',(-13.92135836583,2.E-15,2.));
#808 = LINE('',#809,#810);
#809 = CARTESIAN_POINT('',(-6.960679182917,12.05625,2.));
#810 = VECTOR('',#811,1.);
#811 = DIRECTION('',(-0.5,-0.866025403784,0.));
#812 = ORIENTED_EDGE('',*,*,#813,.T.);
#813 = EDGE_CURVE('',#806,#814,#816,.T.);
#814 = VERTEX_POINT('',#815);
#815 = CARTESIAN_POINT('',(-6.960679182917,-12.05625,2.));
#816 = LINE('',#817,#818);
#817 = CARTESIAN_POINT('',(-13.92135836583,1.7E-15,2.));
#818 = VECTOR('',#819,1.);
#819 = DIRECTION('',(0.5,-0.866025403784,0.));
#820 = ORIENTED_EDGE('',*,*,#821,.T.);
#821 = EDGE_CURVE('',#814,#822,#824,.T.);
#822 = VERTEX_POINT('',#823);
#823 = CARTESIAN_POINT('',(6.960679182917,-12.05625,2.));
#824 = LINE('',#825,#826);
#825 = CARTESIAN_POINT('',(-6.960679182917,-12.05625,2.));
#826 = VECTOR('',#827,1.);
#827 = DIRECTION('',(1.,-2.6E-16,0.));
#828 = ORIENTED_EDGE('',*,*,#829,.T.);
#829 = EDGE_CURVE('',#822,#788,#830,.T.);
#830 = LINE('',#831,#832);
#831 = CARTESIAN_POINT('',(6.960679182917,-12.05625,2.));
#832 = VECTOR('',#833,1.);
#833 = DIRECTION('',(0.5,0.866025403784,0.));
#834 = FACE_BOUND('',#835,.T.);
#835 = EDGE_LOOP('',(#836));
#836 = ORIENTED_EDGE('',*,*,#338,.F.);
#837 = PLANE('',#838);
#838 = AXIS2_PLACEMENT_3D('',#839,#840,#841);
#839 = CARTESIAN_POINT('',(1.7E-16,-1.9E-16,2.));
#840 = DIRECTION('',(0.,0.,1.));
#841 = DIRECTION('',(1.,0.,0.));
#842 = ADVANCED_FACE('',(#843),#862,.F.);
#843 = FACE_BOUND('',#844,.F.);
#844 = EDGE_LOOP('',(#845,#846,#854,#861));
#845 = ORIENTED_EDGE('',*,*,#356,.F.);
#846 = ORIENTED_EDGE('',*,*,#847,.F.);
#847 = EDGE_CURVE('',#848,#357,#850,.T.);
#848 = VERTEX_POINT('',#849);
#849 = CARTESIAN_POINT('',(1.25,-15.,7.406));
#850 = LINE('',#851,#852);
#851 = CARTESIAN_POINT('',(1.25,-15.,7.406));
#852 = VECTOR('',#853,1.);
#853 = DIRECTION('',(0.,0.,1.));
#854 = ORIENTED_EDGE('',*,*,#855,.T.);
#855 = EDGE_CURVE('',#848,#848,#856,.T.);
#856 = CIRCLE('',#857,1.25);
#857 = AXIS2_PLACEMENT_3D('',#858,#859,#860);
#858 = CARTESIAN_POINT('',(-2.76E-15,-15.,7.406));
#859 = DIRECTION('',(0.,0.,1.));
#860 = DIRECTION('',(1.,0.,0.));
#861 = ORIENTED_EDGE('',*,*,#847,.T.);
#862 = CYLINDRICAL_SURFACE('',#863,1.25);
#863 = AXIS2_PLACEMENT_3D('',#864,#865,#866);
#864 = CARTESIAN_POINT('',(-2.76E-15,-15.,7.406));
#865 = DIRECTION('',(0.,0.,1.));
#866 = DIRECTION('',(1.,0.,0.));
#867 = ADVANCED_FACE('',(#868),#893,.T.);
#868 = FACE_BOUND('',#869,.T.);
#869 = EDGE_LOOP('',(#870,#878,#886,#892));
#870 = ORIENTED_EDGE('',*,*,#871,.F.);
#871 = EDGE_CURVE('',#872,#368,#874,.T.);
#872 = VERTEX_POINT('',#873);
#873 = CARTESIAN_POINT('',(-13.5,2.5,12.906));
#874 = LINE('',#875,#876);
#875 = CARTESIAN_POINT('',(-13.5,2.5,12.906));
#876 = VECTOR('',#877,1.);
#877 = DIRECTION('',(0.,0.,1.));
#878 = ORIENTED_EDGE('',*,*,#879,.F.);
#879 = EDGE_CURVE('',#880,#872,#882,.T.);
#880 = VERTEX_POINT('',#881);
#881 = CARTESIAN_POINT('',(-21.5,2.5,12.906));
#882 = LINE('',#883,#884);
#883 = CARTESIAN_POINT('',(-21.5,2.5,12.906));
#884 = VECTOR('',#885,1.);
#885 = DIRECTION('',(1.,0.,0.));
#886 = ORIENTED_EDGE('',*,*,#887,.T.);
#887 = EDGE_CURVE('',#880,#370,#888,.T.);
#888 = LINE('',#889,#890);
#889 = CARTESIAN_POINT('',(-21.5,2.5,12.906));
#890 = VECTOR('',#891,1.);
#891 = DIRECTION('',(0.,0.,1.));
#892 = ORIENTED_EDGE('',*,*,#367,.F.);
#893 = PLANE('',#894);
#894 = AXIS2_PLACEMENT_3D('',#895,#896,#897);
#895 = CARTESIAN_POINT('',(-21.5,2.5,12.906));
#896 = DIRECTION('',(0.,1.,0.));
#897 = DIRECTION('',(0.,0.,1.));
#898 = ADVANCED_FACE('',(#899),#917,.F.);
#899 = FACE_BOUND('',#900,.F.);
#900 = EDGE_LOOP('',(#901,#902,#910,#916));
#901 = ORIENTED_EDGE('',*,*,#871,.F.);
#902 = ORIENTED_EDGE('',*,*,#903,.T.);
#903 = EDGE_CURVE('',#872,#904,#906,.T.);
#904 = VERTEX_POINT('',#905);
#905 = CARTESIAN_POINT('',(-13.5,8.5,12.906));
#906 = LINE('',#907,#908);
#907 = CARTESIAN_POINT('',(-13.5,2.5,12.906));
#908 = VECTOR('',#909,1.);
#909 = DIRECTION('',(0.,1.,0.));
#910 = ORIENTED_EDGE('',*,*,#911,.T.);
#911 = EDGE_CURVE('',#904,#386,#912,.T.);
#912 = LINE('',#913,#914);
#913 = CARTESIAN_POINT('',(-13.5,8.5,12.906));
#914 = VECTOR('',#915,1.);
#915 = DIRECTION('',(0.,0.,1.));
#916 = ORIENTED_EDGE('',*,*,#393,.F.);
#917 = PLANE('',#918);
#918 = AXIS2_PLACEMENT_3D('',#919,#920,#921);
#919 = CARTESIAN_POINT('',(-13.5,2.5,12.906));
#920 = DIRECTION('',(1.,0.,0.));
#921 = DIRECTION('',(0.,0.,1.));
#922 = ADVANCED_FACE('',(#923),#941,.F.);
#923 = FACE_BOUND('',#924,.F.);
#924 = EDGE_LOOP('',(#925,#926,#934,#940));
#925 = ORIENTED_EDGE('',*,*,#911,.F.);
#926 = ORIENTED_EDGE('',*,*,#927,.F.);
#927 = EDGE_CURVE('',#928,#904,#930,.T.);
#928 = VERTEX_POINT('',#929);
#929 = CARTESIAN_POINT('',(-21.5,8.5,12.906));
#930 = LINE('',#931,#932);
#931 = CARTESIAN_POINT('',(-21.5,8.5,12.906));
#932 = VECTOR('',#933,1.);
#933 = DIRECTION('',(1.,0.,0.));
#934 = ORIENTED_EDGE('',*,*,#935,.T.);
#935 = EDGE_CURVE('',#928,#378,#936,.T.);
#936 = LINE('',#937,#938);
#937 = CARTESIAN_POINT('',(-21.5,8.5,12.906));
#938 = VECTOR('',#939,1.);
#939 = DIRECTION('',(0.,0.,1.));
#940 = ORIENTED_EDGE('',*,*,#385,.F.);
#941 = PLANE('',#942);
#942 = AXIS2_PLACEMENT_3D('',#943,#944,#945);
#943 = CARTESIAN_POINT('',(-21.5,8.5,12.906));
#944 = DIRECTION('',(0.,1.,0.));
#945 = DIRECTION('',(0.,0.,1.));
#946 = ADVANCED_FACE('',(#947),#958,.T.);
#947 = FACE_BOUND('',#948,.T.);
#948 = EDGE_LOOP('',(#949,#950,#956,#957));
#949 = ORIENTED_EDGE('',*,*,#887,.F.);
#950 = ORIENTED_EDGE('',*,*,#951,.T.);
#951 = EDGE_CURVE('',#880,#928,#952,.T.);
#952 = LINE('',#953,#954);
#953 = CARTESIAN_POINT('',(-21.5,2.5,12.906));
#954 = VECTOR('',#955,1.);
#955 = DIRECTION('',(0.,1.,0.));
#956 = ORIENTED_EDGE('',*,*,#935,.T.);
#957 = ORIENTED_EDGE('',*,*,#377,.F.);
#958 = PLANE('',#959);
#959 = AXIS2_PLACEMENT_3D('',#960,#961,#962);
#960 = CARTESIAN_POINT('',(-21.5,2.5,12.906));
#961 = DIRECTION('',(1.,0.,0.));
#962 = DIRECTION('',(0.,0.,1.));
#963 = ADVANCED_FACE('',(#964),#980,.T.);
#964 = FACE_BOUND('',#965,.T.);
#965 = EDGE_LOOP('',(#966,#967,#973,#974));
#966 = ORIENTED_EDGE('',*,*,#797,.F.);
#967 = ORIENTED_EDGE('',*,*,#968,.T.);
#968 = EDGE_CURVE('',#790,#404,#969,.T.);
#969 = LINE('',#970,#971);
#970 = CARTESIAN_POINT('',(6.960679182917,12.05625,2.));
#971 = VECTOR('',#972,1.);
#972 = DIRECTION('',(0.,0.,1.));
#973 = ORIENTED_EDGE('',*,*,#401,.F.);
#974 = ORIENTED_EDGE('',*,*,#975,.F.);
#975 = EDGE_CURVE('',#798,#402,#976,.T.);
#976 = LINE('',#977,#978);
#977 = CARTESIAN_POINT('',(-6.960679182917,12.05625,2.));
#978 = VECTOR('',#979,1.);
#979 = DIRECTION('',(0.,0.,1.));
#980 = PLANE('',#981);
#981 = AXIS2_PLACEMENT_3D('',#982,#983,#984);
#982 = CARTESIAN_POINT('',(6.960679182917,12.05625,2.));
#983 = DIRECTION('',(-1.3E-16,-1.,0.));
#984 = DIRECTION('',(-1.,1.3E-16,0.));
#985 = ADVANCED_FACE('',(#986),#997,.T.);
#986 = FACE_BOUND('',#987,.T.);
#987 = EDGE_LOOP('',(#988,#989,#990,#991));
#988 = ORIENTED_EDGE('',*,*,#805,.F.);
#989 = ORIENTED_EDGE('',*,*,#975,.T.);
#990 = ORIENTED_EDGE('',*,*,#443,.F.);
#991 = ORIENTED_EDGE('',*,*,#992,.F.);
#992 = EDGE_CURVE('',#806,#436,#993,.T.);
#993 = LINE('',#994,#995);
#994 = CARTESIAN_POINT('',(-13.92135836583,1.7E-15,2.));
#995 = VECTOR('',#996,1.);
#996 = DIRECTION('',(0.,0.,1.));
#997 = PLANE('',#998);
#998 = AXIS2_PLACEMENT_3D('',#999,#1000,#1001);
#999 = CARTESIAN_POINT('',(-6.960679182917,12.05625,2.));
#1000 = DIRECTION('',(0.866025403784,-0.5,0.));
#1001 = DIRECTION('',(-0.5,-0.866025403784,0.));
#1002 = ADVANCED_FACE('',(#1003),#1014,.T.);
#1003 = FACE_BOUND('',#1004,.T.);
#1004 = EDGE_LOOP('',(#1005,#1006,#1012,#1013));
#1005 = ORIENTED_EDGE('',*,*,#787,.F.);
#1006 = ORIENTED_EDGE('',*,*,#1007,.T.);
#1007 = EDGE_CURVE('',#788,#412,#1008,.T.);
#1008 = LINE('',#1009,#1010);
#1009 = CARTESIAN_POINT('',(13.921358365835,0.,2.));
#1010 = VECTOR('',#1011,1.);
#1011 = DIRECTION('',(0.,0.,1.));
#1012 = ORIENTED_EDGE('',*,*,#411,.F.);
#1013 = ORIENTED_EDGE('',*,*,#968,.F.);
#1014 = PLANE('',#1015);
#1015 = AXIS2_PLACEMENT_3D('',#1016,#1017,#1018);
#1016 = CARTESIAN_POINT('',(13.921358365835,0.,2.));
#1017 = DIRECTION('',(-0.866025403784,-0.5,0.));
#1018 = DIRECTION('',(-0.5,0.866025403784,0.));
#1019 = ADVANCED_FACE('',(#1020),#1031,.T.);
#1020 = FACE_BOUND('',#1021,.T.);
#1021 = EDGE_LOOP('',(#1022,#1023,#1024,#1025));
#1022 = ORIENTED_EDGE('',*,*,#813,.F.);
#1023 = ORIENTED_EDGE('',*,*,#992,.T.);
#1024 = ORIENTED_EDGE('',*,*,#435,.F.);
#1025 = ORIENTED_EDGE('',*,*,#1026,.F.);
#1026 = EDGE_CURVE('',#814,#428,#1027,.T.);
#1027 = LINE('',#1028,#1029);
#1028 = CARTESIAN_POINT('',(-6.960679182917,-12.05625,2.));
#1029 = VECTOR('',#1030,1.);
#1030 = DIRECTION('',(0.,0.,1.));
#1031 = PLANE('',#1032);
#1032 = AXIS2_PLACEMENT_3D('',#1033,#1034,#1035);
#1033 = CARTESIAN_POINT('',(-13.92135836583,1.7E-15,2.));
#1034 = DIRECTION('',(0.866025403784,0.5,0.));
#1035 = DIRECTION('',(0.5,-0.866025403784,0.));
#1036 = ADVANCED_FACE('',(#1037),#1048,.T.);
#1037 = FACE_BOUND('',#1038,.T.);
#1038 = EDGE_LOOP('',(#1039,#1040,#1046,#1047));
#1039 = ORIENTED_EDGE('',*,*,#829,.F.);
#1040 = ORIENTED_EDGE('',*,*,#1041,.T.);
#1041 = EDGE_CURVE('',#822,#420,#1042,.T.);
#1042 = LINE('',#1043,#1044);
#1043 = CARTESIAN_POINT('',(6.960679182917,-12.05625,2.));
#1044 = VECTOR('',#1045,1.);
#1045 = DIRECTION('',(0.,0.,1.));
#1046 = ORIENTED_EDGE('',*,*,#419,.F.);
#1047 = ORIENTED_EDGE('',*,*,#1007,.F.);
#1048 = PLANE('',#1049);
#1049 = AXIS2_PLACEMENT_3D('',#1050,#1051,#1052);
#1050 = CARTESIAN_POINT('',(6.960679182917,-12.05625,2.));
#1051 = DIRECTION('',(-0.866025403784,0.5,0.));
#1052 = DIRECTION('',(0.5,0.866025403784,0.));
#1053 = ADVANCED_FACE('',(#1054),#1060,.T.);
#1054 = FACE_BOUND('',#1055,.T.);
#1055 = EDGE_LOOP('',(#1056,#1057,#1058,#1059));
#1056 = ORIENTED_EDGE('',*,*,#821,.F.);
#1057 = ORIENTED_EDGE('',*,*,#1026,.T.);
#1058 = ORIENTED_EDGE('',*,*,#427,.F.);
#1059 = ORIENTED_EDGE('',*,*,#1041,.F.);
#1060 = PLANE('',#1061);
#1061 = AXIS2_PLACEMENT_3D('',#1062,#1063,#1064);
#1062 = CARTESIAN_POINT('',(-6.960679182917,-12.05625,2.));
#1063 = DIRECTION('',(2.6E-16,1.,0.));
#1064 = DIRECTION('',(1.,-2.6E-16,0.));
#1065 = ADVANCED_FACE('',(#1066),#1085,.F.);
#1066 = FACE_BOUND('',#1067,.F.);
#1067 = EDGE_LOOP('',(#1068,#1069,#1077,#1084));
#1068 = ORIENTED_EDGE('',*,*,#451,.F.);
#1069 = ORIENTED_EDGE('',*,*,#1070,.F.);
#1070 = EDGE_CURVE('',#1071,#452,#1073,.T.);
#1071 = VERTEX_POINT('',#1072);
#1072 = CARTESIAN_POINT('',(1.25,15.,7.406));
#1073 = LINE('',#1074,#1075);
#1074 = CARTESIAN_POINT('',(1.25,15.,7.406));
#1075 = VECTOR('',#1076,1.);
#1076 = DIRECTION('',(0.,0.,1.));
#1077 = ORIENTED_EDGE('',*,*,#1078,.T.);
#1078 = EDGE_CURVE('',#1071,#1071,#1079,.T.);
#1079 = CIRCLE('',#1080,1.25);
#1080 = AXIS2_PLACEMENT_3D('',#1081,#1082,#1083);
#1081 = CARTESIAN_POINT('',(9.2E-16,15.,7.406));
#1082 = DIRECTION('',(0.,0.,1.));
#1083 = DIRECTION('',(1.,0.,0.));
#1084 = ORIENTED_EDGE('',*,*,#1070,.T.);
#1085 = CYLINDRICAL_SURFACE('',#1086,1.25);
#1086 = AXIS2_PLACEMENT_3D('',#1087,#1088,#1089);
#1087 = CARTESIAN_POINT('',(9.2E-16,15.,7.406));
#1088 = DIRECTION('',(0.,0.,1.));
#1089 = DIRECTION('',(1.,0.,0.));
#1090 = ADVANCED_FACE('',(#1091),#1097,.T.);
#1091 = FACE_BOUND('',#1092,.T.);
#1092 = EDGE_LOOP('',(#1093,#1094,#1095,#1096));
#1093 = ORIENTED_EDGE('',*,*,#524,.F.);
#1094 = ORIENTED_EDGE('',*,*,#477,.F.);
#1095 = ORIENTED_EDGE('',*,*,#499,.T.);
#1096 = ORIENTED_EDGE('',*,*,#552,.T.);
#1097 = CYLINDRICAL_SURFACE('',#1098,28.15);
#1098 = AXIS2_PLACEMENT_3D('',#1099,#1100,#1101);
#1099 = CARTESIAN_POINT('',(0.,0.,12.));
#1100 = DIRECTION('',(0.,0.,1.));
#1101 = DIRECTION('',(0.967267752776,0.253757944585,0.));
#1102 = ADVANCED_FACE('',(#1103),#1109,.T.);
#1103 = FACE_BOUND('',#1104,.T.);
#1104 = EDGE_LOOP('',(#1105,#1106,#1107,#1108));
#1105 = ORIENTED_EDGE('',*,*,#622,.F.);
#1106 = ORIENTED_EDGE('',*,*,#575,.F.);
#1107 = ORIENTED_EDGE('',*,*,#597,.T.);
#1108 = ORIENTED_EDGE('',*,*,#650,.T.);
#1109 = CYLINDRICAL_SURFACE('',#1110,28.15);
#1110 = AXIS2_PLACEMENT_3D('',#1111,#1112,#1113);
#1111 = CARTESIAN_POINT('',(0.,0.,12.));
#1112 = DIRECTION('',(0.,0.,1.));
#1113 = DIRECTION('',(-0.739631094979,0.67301251351,0.));
#1114 = ADVANCED_FACE('',(#1115),#1121,.T.);
#1115 = FACE_BOUND('',#1116,.T.);
#1116 = EDGE_LOOP('',(#1117,#1118,#1119,#1120));
#1117 = ORIENTED_EDGE('',*,*,#720,.F.);
#1118 = ORIENTED_EDGE('',*,*,#673,.F.);
#1119 = ORIENTED_EDGE('',*,*,#695,.T.);
#1120 = ORIENTED_EDGE('',*,*,#748,.T.);
#1121 = CYLINDRICAL_SURFACE('',#1122,28.15);
#1122 = AXIS2_PLACEMENT_3D('',#1123,#1124,#1125);
#1123 = CARTESIAN_POINT('',(0.,0.,12.));
#1124 = DIRECTION('',(0.,0.,1.));
#1125 = DIRECTION('',(-0.213030386275,-0.977045574435,0.));
#1126 = ADVANCED_FACE('',(#1127),#1130,.F.);
#1127 = FACE_BOUND('',#1128,.F.);
#1128 = EDGE_LOOP('',(#1129));
#1129 = ORIENTED_EDGE('',*,*,#770,.T.);
#1130 = PLANE('',#1131);
#1131 = AXIS2_PLACEMENT_3D('',#1132,#1133,#1134);
#1132 = CARTESIAN_POINT('',(-19.19509027626,-4.431535770574,13.706));
#1133 = DIRECTION('',(0.974370064785,0.224951054344,0.));
#1134 = DIRECTION('',(-0.224951054344,0.974370064785,0.));
#1135 = ADVANCED_FACE('',(#1136),#1139,.T.);
#1136 = FACE_BOUND('',#1137,.F.);
#1137 = EDGE_LOOP('',(#1138));
#1138 = ORIENTED_EDGE('',*,*,#855,.F.);
#1139 = PLANE('',#1140);
#1140 = AXIS2_PLACEMENT_3D('',#1141,#1142,#1143);
#1141 = CARTESIAN_POINT('',(-2.76E-15,-15.,7.406));
#1142 = DIRECTION('',(0.,0.,1.));
#1143 = DIRECTION('',(1.,0.,0.));
#1144 = ADVANCED_FACE('',(#1145),#1151,.T.);
#1145 = FACE_BOUND('',#1146,.T.);
#1146 = EDGE_LOOP('',(#1147,#1148,#1149,#1150));
#1147 = ORIENTED_EDGE('',*,*,#951,.F.);
#1148 = ORIENTED_EDGE('',*,*,#879,.T.);
#1149 = ORIENTED_EDGE('',*,*,#903,.T.);
#1150 = ORIENTED_EDGE('',*,*,#927,.F.);
#1151 = PLANE('',#1152);
#1152 = AXIS2_PLACEMENT_3D('',#1153,#1154,#1155);
#1153 = CARTESIAN_POINT('',(-21.5,2.5,12.906));
#1154 = DIRECTION('',(0.,0.,1.));
#1155 = DIRECTION('',(1.,0.,0.));
#1156 = ADVANCED_FACE('',(#1157),#1160,.T.);
#1157 = FACE_BOUND('',#1158,.F.);
#1158 = EDGE_LOOP('',(#1159));
#1159 = ORIENTED_EDGE('',*,*,#1078,.F.);
#1160 = PLANE('',#1161);
#1161 = AXIS2_PLACEMENT_3D('',#1162,#1163,#1164);
#1162 = CARTESIAN_POINT('',(9.2E-16,15.,7.406));
#1163 = DIRECTION('',(0.,0.,1.));
#1164 = DIRECTION('',(1.,0.,0.));
#1165 = ( GEOMETRIC_REPRESENTATION_CONTEXT(3) 
GLOBAL_UNCERTAINTY_ASSIGNED_CONTEXT((#1169)) 
GLOBAL_UNIT_ASSIGNED_CONTEXT((#1166,#1167,#1168)) REPRESENTATION_CONTEXT
('Context #1','3D Context with UNIT and UNCERTAINTY') );
#1166 = ( LENGTH_UNIT() NAMED_UNIT(*) SI_UNIT(.MILLI.,.METRE.) );
#1167 = ( NAMED_UNIT(*) PLANE_ANGLE_UNIT() SI_UNIT($,.RADIAN.) );
#1168 = ( NAMED_UNIT(*) SI_UNIT($,.STERADIAN.) SOLID_ANGLE_UNIT() );
#1169 = UNCERTAINTY_MEASURE_WITH_UNIT(LENGTH_MEASURE(1.E-07),#1166,
  'distance_accuracy_value','confusion accuracy');
#1170 = PRODUCT_RELATED_PRODUCT_CATEGORY('part',$,(#7));
ENDSEC;
END-ISO-10303-21;
