ISO-10303-21;
HEADER;
FILE_DESCRIPTION(('FreeCAD Model'),'2;1');
FILE_NAME('Open CASCADE Shape Model','2026-10-02T23:06:27',('FreeCAD'),(
    'FreeCAD'),'Open CASCADE STEP processor 7.8','FreeCAD','Unknown');
FILE_SCHEMA(('AUTOMOTIVE_DESIGN { 1 0 10303 214 1 1 1 1 }'));
ENDSEC;
DATA;
#1 = APPLICATION_PROTOCOL_DEFINITION('international standard',
  'automotive_design',2000,#2);
#2 = APPLICATION_CONTEXT(
  'core data for automotive mechanical design processes');
#3 = SHAPE_DEFINITION_REPRESENTATION(#4,#10);
#4 = PRODUCT_DEFINITION_SHAPE('','',#5);
#5 = PRODUCT_DEFINITION('design','',#6,#9);
#6 = PRODUCT_DEFINITION_FORMATION('','',#7);
#7 = PRODUCT('Open CASCADE STEP translator 7.8 1',
  'Open CASCADE STEP translator 7.8 1','',(#8));
#8 = PRODUCT_CONTEXT('',#2,'mechanical');
#9 = PRODUCT_DEFINITION_CONTEXT('part definition',#2,'design');
#10 = ADVANCED_BREP_SHAPE_REPRESENTATION('',(#11,#15),#907);
#11 = AXIS2_PLACEMENT_3D('',#12,#13,#14);
#12 = CARTESIAN_POINT('',(0.,0.,0.));
#13 = DIRECTION('',(0.,0.,1.));
#14 = DIRECTION('',(1.,0.,-0.));
#15 = MANIFOLD_SOLID_BREP('',#16);
#16 = CLOSED_SHELL('',(#17,#50,#75,#95,#115,#140,#324,#377,#397,#428,
    #453,#478,#495,#526,#551,#576,#593,#624,#649,#674,#691,#716,#741,
    #766,#791,#816,#841,#853,#865,#877,#886));
#17 = ADVANCED_FACE('',(#18),#45,.T.);
#18 = FACE_BOUND('',#19,.T.);
#19 = EDGE_LOOP('',(#20,#29,#37,#44));
#20 = ORIENTED_EDGE('',*,*,#21,.F.);
#21 = EDGE_CURVE('',#22,#22,#24,.T.);
#22 = VERTEX_POINT('',#23);
#23 = CARTESIAN_POINT('',(32.,-8.E-15,2.));
#24 = CIRCLE('',#25,32.);
#25 = AXIS2_PLACEMENT_3D('',#26,#27,#28);
#26 = CARTESIAN_POINT('',(0.,0.,2.));
#27 = DIRECTION('',(0.,0.,1.));
#28 = DIRECTION('',(1.,0.,0.));
#29 = ORIENTED_EDGE('',*,*,#30,.F.);
#30 = EDGE_CURVE('',#31,#22,#33,.T.);
#31 = VERTEX_POINT('',#32);
#32 = CARTESIAN_POINT('',(30.,-7.E-15,0.));
#33 = LINE('',#34,#35);
#34 = CARTESIAN_POINT('',(30.,-7.35E-15,0.));
#35 = VECTOR('',#36,1.);
#36 = DIRECTION('',(0.707106781187,-1.7E-16,0.707106781187));
#37 = ORIENTED_EDGE('',*,*,#38,.T.);
#38 = EDGE_CURVE('',#31,#31,#39,.T.);
#39 = CIRCLE('',#40,30.);
#40 = AXIS2_PLACEMENT_3D('',#41,#42,#43);
#41 = CARTESIAN_POINT('',(0.,0.,0.));
#42 = DIRECTION('',(0.,0.,1.));
#43 = DIRECTION('',(1.,0.,0.));
#44 = ORIENTED_EDGE('',*,*,#30,.T.);
#45 = CONICAL_SURFACE('',#46,30.,0.785398163397);
#46 = AXIS2_PLACEMENT_3D('',#47,#48,#49);
#47 = CARTESIAN_POINT('',(0.,0.,0.));
#48 = DIRECTION('',(0.,0.,1.));
#49 = DIRECTION('',(1.,0.,0.));
#50 = ADVANCED_FACE('',(#51),#70,.T.);
#51 = FACE_BOUND('',#52,.T.);
#52 = EDGE_LOOP('',(#53,#62,#68,#69));
#53 = ORIENTED_EDGE('',*,*,#54,.F.);
#54 = EDGE_CURVE('',#55,#55,#57,.T.);
#55 = VERTEX_POINT('',#56);
#56 = CARTESIAN_POINT('',(32.,-8.E-15,8.));
#57 = CIRCLE('',#58,32.);
#58 = AXIS2_PLACEMENT_3D('',#59,#60,#61);
#59 = CARTESIAN_POINT('',(0.,0.,8.));
#60 = DIRECTION('',(0.,0.,1.));
#61 = DIRECTION('',(1.,0.,0.));
#62 = ORIENTED_EDGE('',*,*,#63,.F.);
#63 = EDGE_CURVE('',#22,#55,#64,.T.);
#64 = LINE('',#65,#66);
#65 = CARTESIAN_POINT('',(32.,-7.84E-15,2.));
#66 = VECTOR('',#67,1.);
#67 = DIRECTION('',(0.,0.,1.));
#68 = ORIENTED_EDGE('',*,*,#21,.T.);
#69 = ORIENTED_EDGE('',*,*,#63,.T.);
#70 = CYLINDRICAL_SURFACE('',#71,32.);
#71 = AXIS2_PLACEMENT_3D('',#72,#73,#74);
#72 = CARTESIAN_POINT('',(0.,0.,2.));
#73 = DIRECTION('',(0.,0.,1.));
#74 = DIRECTION('',(1.,0.,0.));
#75 = ADVANCED_FACE('',(#76,#79),#90,.F.);
#76 = FACE_BOUND('',#77,.F.);
#77 = EDGE_LOOP('',(#78));
#78 = ORIENTED_EDGE('',*,*,#38,.T.);
#79 = FACE_BOUND('',#80,.F.);
#80 = EDGE_LOOP('',(#81));
#81 = ORIENTED_EDGE('',*,*,#82,.F.);
#82 = EDGE_CURVE('',#83,#83,#85,.T.);
#83 = VERTEX_POINT('',#84);
#84 = CARTESIAN_POINT('',(9.228125,-2.E-15,0.));
#85 = CIRCLE('',#86,9.228125);
#86 = AXIS2_PLACEMENT_3D('',#87,#88,#89);
#87 = CARTESIAN_POINT('',(0.,0.,0.));
#88 = DIRECTION('',(0.,0.,1.));
#89 = DIRECTION('',(1.,0.,0.));
#90 = PLANE('',#91);
#91 = AXIS2_PLACEMENT_3D('',#92,#93,#94);
#92 = CARTESIAN_POINT('',(0.,0.,0.));
#93 = DIRECTION('',(0.,0.,1.));
#94 = DIRECTION('',(1.,0.,0.));
#95 = ADVANCED_FACE('',(#96,#99),#110,.T.);
#96 = FACE_BOUND('',#97,.T.);
#97 = EDGE_LOOP('',(#98));
#98 = ORIENTED_EDGE('',*,*,#54,.T.);
#99 = FACE_BOUND('',#100,.T.);
#100 = EDGE_LOOP('',(#101));
#101 = ORIENTED_EDGE('',*,*,#102,.F.);
#102 = EDGE_CURVE('',#103,#103,#105,.T.);
#103 = VERTEX_POINT('',#104);
#104 = CARTESIAN_POINT('',(25.65,-6.E-15,8.));
#105 = CIRCLE('',#106,25.65);
#106 = AXIS2_PLACEMENT_3D('',#107,#108,#109);
#107 = CARTESIAN_POINT('',(0.,0.,8.));
#108 = DIRECTION('',(0.,0.,1.));
#109 = DIRECTION('',(1.,0.,0.));
#110 = PLANE('',#111);
#111 = AXIS2_PLACEMENT_3D('',#112,#113,#114);
#112 = CARTESIAN_POINT('',(0.,0.,8.));
#113 = DIRECTION('',(0.,0.,1.));
#114 = DIRECTION('',(1.,0.,0.));
#115 = ADVANCED_FACE('',(#116),#135,.F.);
#116 = FACE_BOUND('',#117,.F.);
#117 = EDGE_LOOP('',(#118,#119,#127,#134));
#118 = ORIENTED_EDGE('',*,*,#82,.T.);
#119 = ORIENTED_EDGE('',*,*,#120,.T.);
#120 = EDGE_CURVE('',#83,#121,#123,.T.);
#121 = VERTEX_POINT('',#122);
#122 = CARTESIAN_POINT('',(9.228125,-2.E-15,9.525));
#123 = LINE('',#124,#125);
#124 = CARTESIAN_POINT('',(9.228125,-2.26E-15,-0.1));
#125 = VECTOR('',#126,1.);
#126 = DIRECTION('',(0.,0.,1.));
#127 = ORIENTED_EDGE('',*,*,#128,.F.);
#128 = EDGE_CURVE('',#121,#121,#129,.T.);
#129 = CIRCLE('',#130,9.228125);
#130 = AXIS2_PLACEMENT_3D('',#131,#132,#133);
#131 = CARTESIAN_POINT('',(0.,0.,9.525));
#132 = DIRECTION('',(0.,0.,1.));
#133 = DIRECTION('',(1.,0.,0.));
#134 = ORIENTED_EDGE('',*,*,#120,.F.);
#135 = CYLINDRICAL_SURFACE('',#136,9.228125);
#136 = AXIS2_PLACEMENT_3D('',#137,#138,#139);
#137 = CARTESIAN_POINT('',(0.,0.,-0.1));
#138 = DIRECTION('',(0.,0.,1.));
#139 = DIRECTION('',(1.,0.,0.));
#140 = ADVANCED_FACE('',(#141,#160,#196,#232,#268),#319,.T.);
#141 = FACE_BOUND('',#142,.T.);
#142 = EDGE_LOOP('',(#143,#144,#152,#159));
#143 = ORIENTED_EDGE('',*,*,#102,.T.);
#144 = ORIENTED_EDGE('',*,*,#145,.T.);
#145 = EDGE_CURVE('',#103,#146,#148,.T.);
#146 = VERTEX_POINT('',#147);
#147 = CARTESIAN_POINT('',(25.65,-6.E-15,15.90625));
#148 = LINE('',#149,#150);
#149 = CARTESIAN_POINT('',(25.65,-6.28E-15,8.));
#150 = VECTOR('',#151,1.);
#151 = DIRECTION('',(0.,0.,1.));
#152 = ORIENTED_EDGE('',*,*,#153,.F.);
#153 = EDGE_CURVE('',#146,#146,#154,.T.);
#154 = CIRCLE('',#155,25.65);
#155 = AXIS2_PLACEMENT_3D('',#156,#157,#158);
#156 = CARTESIAN_POINT('',(0.,0.,15.90625));
#157 = DIRECTION('',(0.,0.,1.));
#158 = DIRECTION('',(1.,0.,0.));
#159 = ORIENTED_EDGE('',*,*,#145,.F.);
#160 = FACE_BOUND('',#161,.T.);
#161 = EDGE_LOOP('',(#162,#172,#181,#189));
#162 = ORIENTED_EDGE('',*,*,#163,.T.);
#163 = EDGE_CURVE('',#164,#166,#168,.T.);
#164 = VERTEX_POINT('',#165);
#165 = CARTESIAN_POINT('',(24.810417858701,6.5088912786,12.));
#166 = VERTEX_POINT('',#167);
#167 = CARTESIAN_POINT('',(24.810417858701,6.5088912786,14.5));
#168 = LINE('',#169,#170);
#169 = CARTESIAN_POINT('',(24.810417858701,6.5088912786,8.));
#170 = VECTOR('',#171,1.);
#171 = DIRECTION('',(0.,0.,1.));
#172 = ORIENTED_EDGE('',*,*,#173,.T.);
#173 = EDGE_CURVE('',#166,#174,#176,.T.);
#174 = VERTEX_POINT('',#175);
#175 = CARTESIAN_POINT('',(18.850559365596,17.394795532116,14.5));
#176 = CIRCLE('',#177,25.65);
#177 = AXIS2_PLACEMENT_3D('',#178,#179,#180);
#178 = CARTESIAN_POINT('',(0.,0.,14.5));
#179 = DIRECTION('',(0.,0.,1.));
#180 = DIRECTION('',(1.,0.,0.));
#181 = ORIENTED_EDGE('',*,*,#182,.F.);
#182 = EDGE_CURVE('',#183,#174,#185,.T.);
#183 = VERTEX_POINT('',#184);
#184 = CARTESIAN_POINT('',(18.850559365596,17.394795532116,12.));
#185 = LINE('',#186,#187);
#186 = CARTESIAN_POINT('',(18.850559365596,17.394795532116,8.));
#187 = VECTOR('',#188,1.);
#188 = DIRECTION('',(0.,0.,1.));
#189 = ORIENTED_EDGE('',*,*,#190,.F.);
#190 = EDGE_CURVE('',#164,#183,#191,.T.);
#191 = CIRCLE('',#192,25.65);
#192 = AXIS2_PLACEMENT_3D('',#193,#194,#195);
#193 = CARTESIAN_POINT('',(0.,0.,12.));
#194 = DIRECTION('',(0.,0.,1.));
#195 = DIRECTION('',(1.,0.,0.));
#196 = FACE_BOUND('',#197,.T.);
#197 = EDGE_LOOP('',(#198,#208,#217,#225));
#198 = ORIENTED_EDGE('',*,*,#199,.T.);
#199 = EDGE_CURVE('',#200,#202,#204,.T.);
#200 = VERTEX_POINT('',#201);
#201 = CARTESIAN_POINT('',(-18.9715375862,17.262770971526,12.));
#202 = VERTEX_POINT('',#203);
#203 = CARTESIAN_POINT('',(-18.9715375862,17.262770971526,14.5));
#204 = LINE('',#205,#206);
#205 = CARTESIAN_POINT('',(-18.9715375862,17.262770971526,8.));
#206 = VECTOR('',#207,1.);
#207 = DIRECTION('',(0.,0.,1.));
#208 = ORIENTED_EDGE('',*,*,#209,.T.);
#209 = EDGE_CURVE('',#202,#210,#212,.T.);
#210 = VERTEX_POINT('',#211);
#211 = CARTESIAN_POINT('',(-24.05685117279,8.898899462854,14.5));
#212 = CIRCLE('',#213,25.65);
#213 = AXIS2_PLACEMENT_3D('',#214,#215,#216);
#214 = CARTESIAN_POINT('',(0.,0.,14.5));
#215 = DIRECTION('',(0.,0.,1.));
#216 = DIRECTION('',(1.,0.,0.));
#217 = ORIENTED_EDGE('',*,*,#218,.F.);
#218 = EDGE_CURVE('',#219,#210,#221,.T.);
#219 = VERTEX_POINT('',#220);
#220 = CARTESIAN_POINT('',(-24.05685117279,8.898899462854,12.));
#221 = LINE('',#222,#223);
#222 = CARTESIAN_POINT('',(-24.05685117279,8.898899462854,8.));
#223 = VECTOR('',#224,1.);
#224 = DIRECTION('',(0.,0.,1.));
#225 = ORIENTED_EDGE('',*,*,#226,.F.);
#226 = EDGE_CURVE('',#200,#219,#227,.T.);
#227 = CIRCLE('',#228,25.65);
#228 = AXIS2_PLACEMENT_3D('',#229,#230,#231);
#229 = CARTESIAN_POINT('',(0.,0.,12.));
#230 = DIRECTION('',(0.,0.,1.));
#231 = DIRECTION('',(1.,0.,0.));
#232 = FACE_BOUND('',#233,.T.);
#233 = EDGE_LOOP('',(#234,#244,#253,#261));
#234 = ORIENTED_EDGE('',*,*,#235,.T.);
#235 = EDGE_CURVE('',#236,#238,#240,.T.);
#236 = VERTEX_POINT('',#237);
#237 = CARTESIAN_POINT('',(-5.464229407953,-25.06121898426,12.));
#238 = VERTEX_POINT('',#239);
#239 = CARTESIAN_POINT('',(-5.464229407953,-25.06121898426,14.5));
#240 = LINE('',#241,#242);
#241 = CARTESIAN_POINT('',(-5.464229407953,-25.06121898426,8.));
#242 = VECTOR('',#243,1.);
#243 = DIRECTION('',(0.,0.,1.));
#244 = ORIENTED_EDGE('',*,*,#245,.T.);
#245 = EDGE_CURVE('',#238,#246,#248,.T.);
#246 = VERTEX_POINT('',#247);
#247 = CARTESIAN_POINT('',(4.321752585842,-25.28329398212,14.5));
#248 = CIRCLE('',#249,25.65);
#249 = AXIS2_PLACEMENT_3D('',#250,#251,#252);
#250 = CARTESIAN_POINT('',(0.,0.,14.5));
#251 = DIRECTION('',(0.,0.,1.));
#252 = DIRECTION('',(1.,0.,0.));
#253 = ORIENTED_EDGE('',*,*,#254,.F.);
#254 = EDGE_CURVE('',#255,#246,#257,.T.);
#255 = VERTEX_POINT('',#256);
#256 = CARTESIAN_POINT('',(4.321752585842,-25.28329398212,12.));
#257 = LINE('',#258,#259);
#258 = CARTESIAN_POINT('',(4.321752585842,-25.28329398212,8.));
#259 = VECTOR('',#260,1.);
#260 = DIRECTION('',(0.,0.,1.));
#261 = ORIENTED_EDGE('',*,*,#262,.F.);
#262 = EDGE_CURVE('',#236,#255,#263,.T.);
#263 = CIRCLE('',#264,25.65);
#264 = AXIS2_PLACEMENT_3D('',#265,#266,#267);
#265 = CARTESIAN_POINT('',(0.,0.,12.));
#266 = DIRECTION('',(0.,0.,1.));
#267 = DIRECTION('',(1.,0.,0.));
#268 = FACE_BOUND('',#269,.T.);
#269 = EDGE_LOOP('',(#270));
#270 = ORIENTED_EDGE('',*,*,#271,.T.);
#271 = EDGE_CURVE('',#272,#272,#274,.T.);
#272 = VERTEX_POINT('',#273);
#273 = CARTESIAN_POINT('',(-25.24408588767,-4.545176310763,13.70625));
#274 = B_SPLINE_CURVE_WITH_KNOTS('',7,(#275,#276,#277,#278,#279,#280,
    #281,#282,#283,#284,#285,#286,#287,#288,#289,#290,#291,#292,#293,
    #294,#295,#296,#297,#298,#299,#300,#301,#302,#303,#304,#305,#306,
    #307,#308,#309,#310,#311,#312,#313,#314,#315,#316,#317,#318),
  .UNSPECIFIED.,.T.,.F.,(8,6,6,6,6,6,6,8),(0.,0.151252658361,
    0.28707299962,0.424380133271,0.58730285498,0.713803994649,
    0.839622029846,1.),.UNSPECIFIED.);
#275 = CARTESIAN_POINT('',(-25.24408588767,-4.545176310763,13.70625));
#276 = CARTESIAN_POINT('',(-25.24408588767,-4.545176310763,
    13.856446619194));
#277 = CARTESIAN_POINT('',(-25.2403505346,-4.565922364903,
    14.006721963638));
#278 = CARTESIAN_POINT('',(-25.23287246771,-4.60745709155,14.1549316049)
  );
#279 = CARTESIAN_POINT('',(-25.22146285654,-4.670207374701,
    14.298707580486));
#280 = CARTESIAN_POINT('',(-25.20579702371,-4.754751225293,
    14.435136846127));
#281 = CARTESIAN_POINT('',(-25.18540098958,-4.861628596747,
    14.560458742408));
#282 = CARTESIAN_POINT('',(-25.13674944257,-5.106889676198,
    14.767209943791));
#283 = CARTESIAN_POINT('',(-25.10891341123,-5.243943140046,
    14.854340318806));
#284 = CARTESIAN_POINT('',(-25.07641058636,-5.399115116939,
    14.921848108657));
#285 = CARTESIAN_POINT('',(-25.03990466987,-5.566766279129,
    14.963583794279));
#286 = CARTESIAN_POINT('',(-25.00059981408,-5.739750992958,
    14.976297577751));
#287 = CARTESIAN_POINT('',(-24.96028445386,-5.910539478539,
    14.959767894138));
#288 = CARTESIAN_POINT('',(-24.88093927945,-6.236164605024,
    14.873721608488));
#289 = CARTESIAN_POINT('',(-24.84306364267,-6.386148466021,
    14.804857687011));
#290 = CARTESIAN_POINT('',(-24.80829680757,-6.519528940358,
    14.715402447674));
#291 = CARTESIAN_POINT('',(-24.77751857411,-6.63469757599,
    14.609885537255));
#292 = CARTESIAN_POINT('',(-24.75135218997,-6.730842023015,
    14.492572887166));
#293 = CARTESIAN_POINT('',(-24.73012533672,-6.807870044471,
    14.367503899075));
#294 = CARTESIAN_POINT('',(-24.69455108117,-6.935909986482,
    14.085372938044));
#295 = CARTESIAN_POINT('',(-24.681656924,-6.981435461291,13.922182990896
    ));
#296 = CARTESIAN_POINT('',(-24.67576858274,-7.001955423077,
    13.753260323365));
#297 = CARTESIAN_POINT('',(-24.67716941656,-6.997066647034,
    13.582873348115));
#298 = CARTESIAN_POINT('',(-24.68581401301,-6.966832603066,
    13.415152645697));
#299 = CARTESIAN_POINT('',(-24.70138944121,-6.911633574901,
    13.254128316426));
#300 = CARTESIAN_POINT('',(-24.74046237579,-6.770238726982,
    12.987535929489));
#301 = CARTESIAN_POINT('',(-24.76175700148,-6.69247693545,12.87525385227
    ));
#302 = CARTESIAN_POINT('',(-24.78719781276,-6.598358739426,
    12.770466659349));
#303 = CARTESIAN_POINT('',(-24.81646362439,-6.488119648394,
    12.676551311343));
#304 = CARTESIAN_POINT('',(-24.84900522475,-6.362591798071,
    12.596985510585));
#305 = CARTESIAN_POINT('',(-24.88408754875,-6.223244404184,
    12.535364234552));
#306 = CARTESIAN_POINT('',(-24.95736970968,-5.922501314289,
    12.455893015301));
#307 = CARTESIAN_POINT('',(-24.99476064928,-5.764474183896,
    12.438665974563));
#308 = CARTESIAN_POINT('',(-25.03145735425,-5.603867292768,
    12.446531933691));
#309 = CARTESIAN_POINT('',(-25.06595906943,-5.446899556387,
    12.479610174061));
#310 = CARTESIAN_POINT('',(-25.09718538861,-5.299581955,12.535564388584)
  );
#311 = CARTESIAN_POINT('',(-25.12448566384,-5.16686678836,
    12.609688220297));
#312 = CARTESIAN_POINT('',(-25.17709843487,-4.904959152821,
    12.803697059088));
#313 = CARTESIAN_POINT('',(-25.20049172313,-4.783330860372,
    12.933090317363));
#314 = CARTESIAN_POINT('',(-25.21838030052,-4.68714988601,
    13.076309105739));
#315 = CARTESIAN_POINT('',(-25.23136331321,-4.615839890411,
    13.228570090871));
#316 = CARTESIAN_POINT('',(-25.23984989139,-4.568702742006,
    13.386209637179));
#317 = CARTESIAN_POINT('',(-25.24408588767,-4.545176310763,
    13.546304442551));
#318 = CARTESIAN_POINT('',(-25.24408588767,-4.545176310763,13.70625));
#319 = CYLINDRICAL_SURFACE('',#320,25.65);
#320 = AXIS2_PLACEMENT_3D('',#321,#322,#323);
#321 = CARTESIAN_POINT('',(0.,0.,8.));
#322 = DIRECTION('',(0.,0.,1.));
#323 = DIRECTION('',(1.,0.,0.));
#324 = ADVANCED_FACE('',(#325,#336,#347,#358,#361),#372,.T.);
#325 = FACE_BOUND('',#326,.T.);
#326 = EDGE_LOOP('',(#327));
#327 = ORIENTED_EDGE('',*,*,#328,.T.);
#328 = EDGE_CURVE('',#329,#329,#331,.T.);
#329 = VERTEX_POINT('',#330);
#330 = CARTESIAN_POINT('',(18.35625,-4.E-15,9.525));
#331 = CIRCLE('',#332,18.35625);
#332 = AXIS2_PLACEMENT_3D('',#333,#334,#335);
#333 = CARTESIAN_POINT('',(0.,0.,9.525));
#334 = DIRECTION('',(0.,0.,1.));
#335 = DIRECTION('',(1.,0.,0.));
#336 = FACE_BOUND('',#337,.T.);
#337 = EDGE_LOOP('',(#338));
#338 = ORIENTED_EDGE('',*,*,#339,.F.);
#339 = EDGE_CURVE('',#340,#340,#342,.T.);
#340 = VERTEX_POINT('',#341);
#341 = CARTESIAN_POINT('',(-9.99134295109,-6.75,9.525));
#342 = CIRCLE('',#343,1.7);
#343 = AXIS2_PLACEMENT_3D('',#344,#345,#346);
#344 = CARTESIAN_POINT('',(-11.69134295109,-6.75,9.525));
#345 = DIRECTION('',(0.,0.,1.));
#346 = DIRECTION('',(1.,0.,0.));
#347 = FACE_BOUND('',#348,.T.);
#348 = EDGE_LOOP('',(#349));
#349 = ORIENTED_EDGE('',*,*,#350,.F.);
#350 = EDGE_CURVE('',#351,#351,#353,.T.);
#351 = VERTEX_POINT('',#352);
#352 = CARTESIAN_POINT('',(13.39134295109,-6.75,9.525));
#353 = CIRCLE('',#354,1.7);
#354 = AXIS2_PLACEMENT_3D('',#355,#356,#357);
#355 = CARTESIAN_POINT('',(11.69134295109,-6.75,9.525));
#356 = DIRECTION('',(0.,0.,1.));
#357 = DIRECTION('',(1.,0.,0.));
#358 = FACE_BOUND('',#359,.T.);
#359 = EDGE_LOOP('',(#360));
#360 = ORIENTED_EDGE('',*,*,#128,.F.);
#361 = FACE_BOUND('',#362,.T.);
#362 = EDGE_LOOP('',(#363));
#363 = ORIENTED_EDGE('',*,*,#364,.F.);
#364 = EDGE_CURVE('',#365,#365,#367,.T.);
#365 = VERTEX_POINT('',#366);
#366 = CARTESIAN_POINT('',(1.7,13.5,9.525));
#367 = CIRCLE('',#368,1.7);
#368 = AXIS2_PLACEMENT_3D('',#369,#370,#371);
#369 = CARTESIAN_POINT('',(8.3E-16,13.5,9.525));
#370 = DIRECTION('',(0.,0.,1.));
#371 = DIRECTION('',(1.,0.,0.));
#372 = PLANE('',#373);
#373 = AXIS2_PLACEMENT_3D('',#374,#375,#376);
#374 = CARTESIAN_POINT('',(0.,0.,9.525));
#375 = DIRECTION('',(0.,0.,1.));
#376 = DIRECTION('',(1.,0.,0.));
#377 = ADVANCED_FACE('',(#378,#381),#392,.T.);
#378 = FACE_BOUND('',#379,.T.);
#379 = EDGE_LOOP('',(#380));
#380 = ORIENTED_EDGE('',*,*,#153,.T.);
#381 = FACE_BOUND('',#382,.T.);
#382 = EDGE_LOOP('',(#383));
#383 = ORIENTED_EDGE('',*,*,#384,.F.);
#384 = EDGE_CURVE('',#385,#385,#387,.T.);
#385 = VERTEX_POINT('',#386);
#386 = CARTESIAN_POINT('',(9.,-2.E-15,15.90625));
#387 = CIRCLE('',#388,9.);
#388 = AXIS2_PLACEMENT_3D('',#389,#390,#391);
#389 = CARTESIAN_POINT('',(0.,0.,15.90625));
#390 = DIRECTION('',(0.,0.,1.));
#391 = DIRECTION('',(1.,0.,0.));
#392 = PLANE('',#393);
#393 = AXIS2_PLACEMENT_3D('',#394,#395,#396);
#394 = CARTESIAN_POINT('',(0.,0.,15.90625));
#395 = DIRECTION('',(0.,0.,1.));
#396 = DIRECTION('',(1.,0.,0.));
#397 = ADVANCED_FACE('',(#398),#423,.T.);
#398 = FACE_BOUND('',#399,.T.);
#399 = EDGE_LOOP('',(#400,#401,#409,#417));
#400 = ORIENTED_EDGE('',*,*,#163,.F.);
#401 = ORIENTED_EDGE('',*,*,#402,.T.);
#402 = EDGE_CURVE('',#164,#403,#405,.T.);
#403 = VERTEX_POINT('',#404);
#404 = CARTESIAN_POINT('',(27.228587240641,7.143286140062,12.));
#405 = LINE('',#406,#407);
#406 = CARTESIAN_POINT('',(0.,0.,12.));
#407 = VECTOR('',#408,1.);
#408 = DIRECTION('',(0.967267752776,0.253757944585,0.));
#409 = ORIENTED_EDGE('',*,*,#410,.T.);
#410 = EDGE_CURVE('',#403,#411,#413,.T.);
#411 = VERTEX_POINT('',#412);
#412 = CARTESIAN_POINT('',(27.228587240641,7.143286140062,14.5));
#413 = LINE('',#414,#415);
#414 = CARTESIAN_POINT('',(27.228587240641,7.143286140062,12.));
#415 = VECTOR('',#416,1.);
#416 = DIRECTION('',(0.,0.,1.));
#417 = ORIENTED_EDGE('',*,*,#418,.F.);
#418 = EDGE_CURVE('',#166,#411,#419,.T.);
#419 = LINE('',#420,#421);
#420 = CARTESIAN_POINT('',(0.,0.,14.5));
#421 = VECTOR('',#422,1.);
#422 = DIRECTION('',(0.967267752776,0.253757944585,0.));
#423 = PLANE('',#424);
#424 = AXIS2_PLACEMENT_3D('',#425,#426,#427);
#425 = CARTESIAN_POINT('',(0.,0.,12.));
#426 = DIRECTION('',(0.253757944585,-0.967267752776,0.));
#427 = DIRECTION('',(0.967267752776,0.253757944585,0.));
#428 = ADVANCED_FACE('',(#429),#448,.F.);
#429 = FACE_BOUND('',#430,.F.);
#430 = EDGE_LOOP('',(#431,#440,#446,#447));
#431 = ORIENTED_EDGE('',*,*,#432,.T.);
#432 = EDGE_CURVE('',#403,#433,#435,.T.);
#433 = VERTEX_POINT('',#434);
#434 = CARTESIAN_POINT('',(20.687845853471,19.090194706786,12.));
#435 = CIRCLE('',#436,28.15);
#436 = AXIS2_PLACEMENT_3D('',#437,#438,#439);
#437 = CARTESIAN_POINT('',(0.,0.,12.));
#438 = DIRECTION('',(0.,-0.,1.));
#439 = DIRECTION('',(0.967267752776,0.253757944585,0.));
#440 = ORIENTED_EDGE('',*,*,#441,.F.);
#441 = EDGE_CURVE('',#183,#433,#442,.T.);
#442 = LINE('',#443,#444);
#443 = CARTESIAN_POINT('',(0.,0.,12.));
#444 = VECTOR('',#445,1.);
#445 = DIRECTION('',(0.73491459515,0.678159669868,0.));
#446 = ORIENTED_EDGE('',*,*,#190,.F.);
#447 = ORIENTED_EDGE('',*,*,#402,.T.);
#448 = PLANE('',#449);
#449 = AXIS2_PLACEMENT_3D('',#450,#451,#452);
#450 = CARTESIAN_POINT('',(0.,0.,12.));
#451 = DIRECTION('',(0.,0.,1.));
#452 = DIRECTION('',(0.967267752776,0.253757944585,0.));
#453 = ADVANCED_FACE('',(#454),#473,.T.);
#454 = FACE_BOUND('',#455,.T.);
#455 = EDGE_LOOP('',(#456,#465,#471,#472));
#456 = ORIENTED_EDGE('',*,*,#457,.T.);
#457 = EDGE_CURVE('',#411,#458,#460,.T.);
#458 = VERTEX_POINT('',#459);
#459 = CARTESIAN_POINT('',(20.687845853471,19.090194706786,14.5));
#460 = CIRCLE('',#461,28.15);
#461 = AXIS2_PLACEMENT_3D('',#462,#463,#464);
#462 = CARTESIAN_POINT('',(0.,0.,14.5));
#463 = DIRECTION('',(0.,-0.,1.));
#464 = DIRECTION('',(0.967267752776,0.253757944585,0.));
#465 = ORIENTED_EDGE('',*,*,#466,.F.);
#466 = EDGE_CURVE('',#174,#458,#467,.T.);
#467 = LINE('',#468,#469);
#468 = CARTESIAN_POINT('',(0.,0.,14.5));
#469 = VECTOR('',#470,1.);
#470 = DIRECTION('',(0.73491459515,0.678159669868,0.));
#471 = ORIENTED_EDGE('',*,*,#173,.F.);
#472 = ORIENTED_EDGE('',*,*,#418,.T.);
#473 = PLANE('',#474);
#474 = AXIS2_PLACEMENT_3D('',#475,#476,#477);
#475 = CARTESIAN_POINT('',(0.,0.,14.5));
#476 = DIRECTION('',(0.,0.,1.));
#477 = DIRECTION('',(0.967267752776,0.253757944585,0.));
#478 = ADVANCED_FACE('',(#479),#490,.F.);
#479 = FACE_BOUND('',#480,.F.);
#480 = EDGE_LOOP('',(#481,#482,#483,#484));
#481 = ORIENTED_EDGE('',*,*,#466,.F.);
#482 = ORIENTED_EDGE('',*,*,#182,.F.);
#483 = ORIENTED_EDGE('',*,*,#441,.T.);
#484 = ORIENTED_EDGE('',*,*,#485,.T.);
#485 = EDGE_CURVE('',#433,#458,#486,.T.);
#486 = LINE('',#487,#488);
#487 = CARTESIAN_POINT('',(20.687845853471,19.090194706786,12.));
#488 = VECTOR('',#489,1.);
#489 = DIRECTION('',(0.,0.,1.));
#490 = PLANE('',#491);
#491 = AXIS2_PLACEMENT_3D('',#492,#493,#494);
#492 = CARTESIAN_POINT('',(0.,0.,12.));
#493 = DIRECTION('',(0.678159669868,-0.73491459515,0.));
#494 = DIRECTION('',(0.73491459515,0.678159669868,0.));
#495 = ADVANCED_FACE('',(#496),#521,.T.);
#496 = FACE_BOUND('',#497,.T.);
#497 = EDGE_LOOP('',(#498,#499,#507,#515));
#498 = ORIENTED_EDGE('',*,*,#199,.F.);
#499 = ORIENTED_EDGE('',*,*,#500,.T.);
#500 = EDGE_CURVE('',#200,#501,#503,.T.);
#501 = VERTEX_POINT('',#502);
#502 = CARTESIAN_POINT('',(-20.82061532364,18.9453022553,12.));
#503 = LINE('',#504,#505);
#504 = CARTESIAN_POINT('',(0.,0.,12.));
#505 = VECTOR('',#506,1.);
#506 = DIRECTION('',(-0.739631094979,0.67301251351,0.));
#507 = ORIENTED_EDGE('',*,*,#508,.T.);
#508 = EDGE_CURVE('',#501,#509,#511,.T.);
#509 = VERTEX_POINT('',#510);
#510 = CARTESIAN_POINT('',(-20.82061532364,18.9453022553,14.5));
#511 = LINE('',#512,#513);
#512 = CARTESIAN_POINT('',(-20.82061532364,18.9453022553,12.));
#513 = VECTOR('',#514,1.);
#514 = DIRECTION('',(0.,0.,1.));
#515 = ORIENTED_EDGE('',*,*,#516,.F.);
#516 = EDGE_CURVE('',#202,#509,#517,.T.);
#517 = LINE('',#518,#519);
#518 = CARTESIAN_POINT('',(0.,0.,14.5));
#519 = VECTOR('',#520,1.);
#520 = DIRECTION('',(-0.739631094979,0.67301251351,0.));
#521 = PLANE('',#522);
#522 = AXIS2_PLACEMENT_3D('',#523,#524,#525);
#523 = CARTESIAN_POINT('',(0.,0.,12.));
#524 = DIRECTION('',(0.67301251351,0.739631094979,0.));
#525 = DIRECTION('',(-0.739631094979,0.67301251351,0.));
#526 = ADVANCED_FACE('',(#527),#546,.F.);
#527 = FACE_BOUND('',#528,.F.);
#528 = EDGE_LOOP('',(#529,#538,#544,#545));
#529 = ORIENTED_EDGE('',*,*,#530,.T.);
#530 = EDGE_CURVE('',#501,#531,#533,.T.);
#531 = VERTEX_POINT('',#532);
#532 = CARTESIAN_POINT('',(-26.40157350932,9.766238591787,12.));
#533 = CIRCLE('',#534,28.15);
#534 = AXIS2_PLACEMENT_3D('',#535,#536,#537);
#535 = CARTESIAN_POINT('',(0.,0.,12.));
#536 = DIRECTION('',(0.,0.,1.));
#537 = DIRECTION('',(-0.739631094979,0.67301251351,0.));
#538 = ORIENTED_EDGE('',*,*,#539,.F.);
#539 = EDGE_CURVE('',#219,#531,#540,.T.);
#540 = LINE('',#541,#542);
#541 = CARTESIAN_POINT('',(0.,0.,12.));
#542 = VECTOR('',#543,1.);
#543 = DIRECTION('',(-0.937888934612,0.346935651573,0.));
#544 = ORIENTED_EDGE('',*,*,#226,.F.);
#545 = ORIENTED_EDGE('',*,*,#500,.T.);
#546 = PLANE('',#547);
#547 = AXIS2_PLACEMENT_3D('',#548,#549,#550);
#548 = CARTESIAN_POINT('',(0.,0.,12.));
#549 = DIRECTION('',(0.,0.,1.));
#550 = DIRECTION('',(-0.739631094979,0.67301251351,0.));
#551 = ADVANCED_FACE('',(#552),#571,.T.);
#552 = FACE_BOUND('',#553,.T.);
#553 = EDGE_LOOP('',(#554,#563,#569,#570));
#554 = ORIENTED_EDGE('',*,*,#555,.T.);
#555 = EDGE_CURVE('',#509,#556,#558,.T.);
#556 = VERTEX_POINT('',#557);
#557 = CARTESIAN_POINT('',(-26.40157350932,9.766238591787,14.5));
#558 = CIRCLE('',#559,28.15);
#559 = AXIS2_PLACEMENT_3D('',#560,#561,#562);
#560 = CARTESIAN_POINT('',(0.,0.,14.5));
#561 = DIRECTION('',(0.,0.,1.));
#562 = DIRECTION('',(-0.739631094979,0.67301251351,0.));
#563 = ORIENTED_EDGE('',*,*,#564,.F.);
#564 = EDGE_CURVE('',#210,#556,#565,.T.);
#565 = LINE('',#566,#567);
#566 = CARTESIAN_POINT('',(0.,0.,14.5));
#567 = VECTOR('',#568,1.);
#568 = DIRECTION('',(-0.937888934612,0.346935651573,0.));
#569 = ORIENTED_EDGE('',*,*,#209,.F.);
#570 = ORIENTED_EDGE('',*,*,#516,.T.);
#571 = PLANE('',#572);
#572 = AXIS2_PLACEMENT_3D('',#573,#574,#575);
#573 = CARTESIAN_POINT('',(0.,0.,14.5));
#574 = DIRECTION('',(0.,0.,1.));
#575 = DIRECTION('',(-0.739631094979,0.67301251351,0.));
#576 = ADVANCED_FACE('',(#577),#588,.F.);
#577 = FACE_BOUND('',#578,.F.);
#578 = EDGE_LOOP('',(#579,#580,#581,#582));
#579 = ORIENTED_EDGE('',*,*,#564,.F.);
#580 = ORIENTED_EDGE('',*,*,#218,.F.);
#581 = ORIENTED_EDGE('',*,*,#539,.T.);
#582 = ORIENTED_EDGE('',*,*,#583,.T.);
#583 = EDGE_CURVE('',#531,#556,#584,.T.);
#584 = LINE('',#585,#586);
#585 = CARTESIAN_POINT('',(-26.40157350932,9.766238591787,12.));
#586 = VECTOR('',#587,1.);
#587 = DIRECTION('',(0.,0.,1.));
#588 = PLANE('',#589);
#589 = AXIS2_PLACEMENT_3D('',#590,#591,#592);
#590 = CARTESIAN_POINT('',(0.,0.,12.));
#591 = DIRECTION('',(0.346935651573,0.937888934612,0.));
#592 = DIRECTION('',(-0.937888934612,0.346935651573,0.));
#593 = ADVANCED_FACE('',(#594),#619,.T.);
#594 = FACE_BOUND('',#595,.T.);
#595 = EDGE_LOOP('',(#596,#597,#605,#613));
#596 = ORIENTED_EDGE('',*,*,#235,.F.);
#597 = ORIENTED_EDGE('',*,*,#598,.T.);
#598 = EDGE_CURVE('',#236,#599,#601,.T.);
#599 = VERTEX_POINT('',#600);
#600 = CARTESIAN_POINT('',(-5.996805373641,-27.50383292035,12.));
#601 = LINE('',#602,#603);
#602 = CARTESIAN_POINT('',(0.,0.,12.));
#603 = VECTOR('',#604,1.);
#604 = DIRECTION('',(-0.213030386275,-0.977045574435,0.));
#605 = ORIENTED_EDGE('',*,*,#606,.T.);
#606 = EDGE_CURVE('',#599,#607,#609,.T.);
#607 = VERTEX_POINT('',#608);
#608 = CARTESIAN_POINT('',(-5.996805373641,-27.50383292035,14.5));
#609 = LINE('',#610,#611);
#610 = CARTESIAN_POINT('',(-5.996805373641,-27.50383292035,12.));
#611 = VECTOR('',#612,1.);
#612 = DIRECTION('',(0.,0.,1.));
#613 = ORIENTED_EDGE('',*,*,#614,.F.);
#614 = EDGE_CURVE('',#238,#607,#615,.T.);
#615 = LINE('',#616,#617);
#616 = CARTESIAN_POINT('',(0.,0.,14.5));
#617 = VECTOR('',#618,1.);
#618 = DIRECTION('',(-0.213030386275,-0.977045574435,0.));
#619 = PLANE('',#620);
#620 = AXIS2_PLACEMENT_3D('',#621,#622,#623);
#621 = CARTESIAN_POINT('',(0.,0.,12.));
#622 = DIRECTION('',(-0.977045574435,0.213030386275,0.));
#623 = DIRECTION('',(-0.213030386275,-0.977045574435,0.));
#624 = ADVANCED_FACE('',(#625),#644,.F.);
#625 = FACE_BOUND('',#626,.F.);
#626 = EDGE_LOOP('',(#627,#636,#642,#643));
#627 = ORIENTED_EDGE('',*,*,#628,.T.);
#628 = EDGE_CURVE('',#599,#629,#631,.T.);
#629 = VERTEX_POINT('',#630);
#630 = CARTESIAN_POINT('',(4.742976034755,-27.74755265485,12.));
#631 = CIRCLE('',#632,28.15);
#632 = AXIS2_PLACEMENT_3D('',#633,#634,#635);
#633 = CARTESIAN_POINT('',(0.,0.,12.));
#634 = DIRECTION('',(0.,0.,1.));
#635 = DIRECTION('',(-0.213030386275,-0.977045574435,0.));
#636 = ORIENTED_EDGE('',*,*,#637,.F.);
#637 = EDGE_CURVE('',#255,#629,#638,.T.);
#638 = LINE('',#639,#640);
#639 = CARTESIAN_POINT('',(0.,0.,12.));
#640 = VECTOR('',#641,1.);
#641 = DIRECTION('',(0.168489379565,-0.985703469089,0.));
#642 = ORIENTED_EDGE('',*,*,#262,.F.);
#643 = ORIENTED_EDGE('',*,*,#598,.T.);
#644 = PLANE('',#645);
#645 = AXIS2_PLACEMENT_3D('',#646,#647,#648);
#646 = CARTESIAN_POINT('',(0.,0.,12.));
#647 = DIRECTION('',(0.,0.,1.));
#648 = DIRECTION('',(-0.213030386275,-0.977045574435,0.));
#649 = ADVANCED_FACE('',(#650),#669,.T.);
#650 = FACE_BOUND('',#651,.T.);
#651 = EDGE_LOOP('',(#652,#661,#667,#668));
#652 = ORIENTED_EDGE('',*,*,#653,.T.);
#653 = EDGE_CURVE('',#607,#654,#656,.T.);
#654 = VERTEX_POINT('',#655);
#655 = CARTESIAN_POINT('',(4.742976034755,-27.74755265485,14.5));
#656 = CIRCLE('',#657,28.15);
#657 = AXIS2_PLACEMENT_3D('',#658,#659,#660);
#658 = CARTESIAN_POINT('',(0.,0.,14.5));
#659 = DIRECTION('',(0.,0.,1.));
#660 = DIRECTION('',(-0.213030386275,-0.977045574435,0.));
#661 = ORIENTED_EDGE('',*,*,#662,.F.);
#662 = EDGE_CURVE('',#246,#654,#663,.T.);
#663 = LINE('',#664,#665);
#664 = CARTESIAN_POINT('',(0.,0.,14.5));
#665 = VECTOR('',#666,1.);
#666 = DIRECTION('',(0.168489379565,-0.985703469089,0.));
#667 = ORIENTED_EDGE('',*,*,#245,.F.);
#668 = ORIENTED_EDGE('',*,*,#614,.T.);
#669 = PLANE('',#670);
#670 = AXIS2_PLACEMENT_3D('',#671,#672,#673);
#671 = CARTESIAN_POINT('',(0.,0.,14.5));
#672 = DIRECTION('',(0.,0.,1.));
#673 = DIRECTION('',(-0.213030386275,-0.977045574435,0.));
#674 = ADVANCED_FACE('',(#675),#686,.F.);
#675 = FACE_BOUND('',#676,.F.);
#676 = EDGE_LOOP('',(#677,#678,#679,#680));
#677 = ORIENTED_EDGE('',*,*,#662,.F.);
#678 = ORIENTED_EDGE('',*,*,#254,.F.);
#679 = ORIENTED_EDGE('',*,*,#637,.T.);
#680 = ORIENTED_EDGE('',*,*,#681,.T.);
#681 = EDGE_CURVE('',#629,#654,#682,.T.);
#682 = LINE('',#683,#684);
#683 = CARTESIAN_POINT('',(4.742976034755,-27.74755265485,12.));
#684 = VECTOR('',#685,1.);
#685 = DIRECTION('',(0.,0.,1.));
#686 = PLANE('',#687);
#687 = AXIS2_PLACEMENT_3D('',#688,#689,#690);
#688 = CARTESIAN_POINT('',(0.,0.,12.));
#689 = DIRECTION('',(-0.985703469089,-0.168489379565,0.));
#690 = DIRECTION('',(0.168489379565,-0.985703469089,0.));
#691 = ADVANCED_FACE('',(#692),#711,.F.);
#692 = FACE_BOUND('',#693,.F.);
#693 = EDGE_LOOP('',(#694,#702,#709,#710));
#694 = ORIENTED_EDGE('',*,*,#695,.T.);
#695 = EDGE_CURVE('',#272,#696,#698,.T.);
#696 = VERTEX_POINT('',#697);
#697 = CARTESIAN_POINT('',(-19.47627909419,-3.213573189593,13.70625));
#698 = LINE('',#699,#700);
#699 = CARTESIAN_POINT('',(-33.40977102062,-6.43037326671,13.70625));
#700 = VECTOR('',#701,1.);
#701 = DIRECTION('',(0.974370064785,0.224951054344,0.));
#702 = ORIENTED_EDGE('',*,*,#703,.F.);
#703 = EDGE_CURVE('',#696,#696,#704,.T.);
#704 = CIRCLE('',#705,1.25);
#705 = AXIS2_PLACEMENT_3D('',#706,#707,#708);
#706 = CARTESIAN_POINT('',(-19.19509027626,-4.431535770574,13.70625));
#707 = DIRECTION('',(0.974370064785,0.224951054344,-0.));
#708 = DIRECTION('',(-0.224951054344,0.974370064785,0.));
#709 = ORIENTED_EDGE('',*,*,#695,.F.);
#710 = ORIENTED_EDGE('',*,*,#271,.T.);
#711 = CYLINDRICAL_SURFACE('',#712,1.25);
#712 = AXIS2_PLACEMENT_3D('',#713,#714,#715);
#713 = CARTESIAN_POINT('',(-33.12858220269,-7.648335847691,13.70625));
#714 = DIRECTION('',(0.974370064785,0.224951054344,0.));
#715 = DIRECTION('',(-0.224951054344,0.974370064785,0.));
#716 = ADVANCED_FACE('',(#717),#736,.F.);
#717 = FACE_BOUND('',#718,.F.);
#718 = EDGE_LOOP('',(#719,#728,#734,#735));
#719 = ORIENTED_EDGE('',*,*,#720,.F.);
#720 = EDGE_CURVE('',#721,#721,#723,.T.);
#721 = VERTEX_POINT('',#722);
#722 = CARTESIAN_POINT('',(18.35625,-4.E-15,12.00625));
#723 = CIRCLE('',#724,18.35625);
#724 = AXIS2_PLACEMENT_3D('',#725,#726,#727);
#725 = CARTESIAN_POINT('',(0.,0.,12.00625));
#726 = DIRECTION('',(0.,0.,1.));
#727 = DIRECTION('',(1.,0.,0.));
#728 = ORIENTED_EDGE('',*,*,#729,.F.);
#729 = EDGE_CURVE('',#329,#721,#730,.T.);
#730 = LINE('',#731,#732);
#731 = CARTESIAN_POINT('',(18.35625,-4.5E-15,9.525));
#732 = VECTOR('',#733,1.);
#733 = DIRECTION('',(0.,0.,1.));
#734 = ORIENTED_EDGE('',*,*,#328,.T.);
#735 = ORIENTED_EDGE('',*,*,#729,.T.);
#736 = CYLINDRICAL_SURFACE('',#737,18.35625);
#737 = AXIS2_PLACEMENT_3D('',#738,#739,#740);
#738 = CARTESIAN_POINT('',(0.,0.,9.525));
#739 = DIRECTION('',(0.,0.,1.));
#740 = DIRECTION('',(1.,0.,0.));
#741 = ADVANCED_FACE('',(#742),#761,.T.);
#742 = FACE_BOUND('',#743,.T.);
#743 = EDGE_LOOP('',(#744,#753,#759,#760));
#744 = ORIENTED_EDGE('',*,*,#745,.F.);
#745 = EDGE_CURVE('',#746,#746,#748,.T.);
#746 = VERTEX_POINT('',#747);
#747 = CARTESIAN_POINT('',(-9.99134295109,-6.75,12.00625));
#748 = CIRCLE('',#749,1.7);
#749 = AXIS2_PLACEMENT_3D('',#750,#751,#752);
#750 = CARTESIAN_POINT('',(-11.69134295109,-6.75,12.00625));
#751 = DIRECTION('',(0.,0.,1.));
#752 = DIRECTION('',(1.,0.,0.));
#753 = ORIENTED_EDGE('',*,*,#754,.F.);
#754 = EDGE_CURVE('',#340,#746,#755,.T.);
#755 = LINE('',#756,#757);
#756 = CARTESIAN_POINT('',(-9.99134295109,-6.75,9.525));
#757 = VECTOR('',#758,1.);
#758 = DIRECTION('',(0.,0.,1.));
#759 = ORIENTED_EDGE('',*,*,#339,.T.);
#760 = ORIENTED_EDGE('',*,*,#754,.T.);
#761 = CYLINDRICAL_SURFACE('',#762,1.7);
#762 = AXIS2_PLACEMENT_3D('',#763,#764,#765);
#763 = CARTESIAN_POINT('',(-11.69134295109,-6.75,9.525));
#764 = DIRECTION('',(0.,0.,1.));
#765 = DIRECTION('',(1.,0.,0.));
#766 = ADVANCED_FACE('',(#767),#786,.T.);
#767 = FACE_BOUND('',#768,.T.);
#768 = EDGE_LOOP('',(#769,#778,#784,#785));
#769 = ORIENTED_EDGE('',*,*,#770,.F.);
#770 = EDGE_CURVE('',#771,#771,#773,.T.);
#771 = VERTEX_POINT('',#772);
#772 = CARTESIAN_POINT('',(13.39134295109,-6.75,12.00625));
#773 = CIRCLE('',#774,1.7);
#774 = AXIS2_PLACEMENT_3D('',#775,#776,#777);
#775 = CARTESIAN_POINT('',(11.69134295109,-6.75,12.00625));
#776 = DIRECTION('',(0.,0.,1.));
#777 = DIRECTION('',(1.,0.,0.));
#778 = ORIENTED_EDGE('',*,*,#779,.F.);
#779 = EDGE_CURVE('',#351,#771,#780,.T.);
#780 = LINE('',#781,#782);
#781 = CARTESIAN_POINT('',(13.39134295109,-6.75,9.525));
#782 = VECTOR('',#783,1.);
#783 = DIRECTION('',(0.,0.,1.));
#784 = ORIENTED_EDGE('',*,*,#350,.T.);
#785 = ORIENTED_EDGE('',*,*,#779,.T.);
#786 = CYLINDRICAL_SURFACE('',#787,1.7);
#787 = AXIS2_PLACEMENT_3D('',#788,#789,#790);
#788 = CARTESIAN_POINT('',(11.69134295109,-6.75,9.525));
#789 = DIRECTION('',(0.,0.,1.));
#790 = DIRECTION('',(1.,0.,0.));
#791 = ADVANCED_FACE('',(#792),#811,.T.);
#792 = FACE_BOUND('',#793,.T.);
#793 = EDGE_LOOP('',(#794,#803,#809,#810));
#794 = ORIENTED_EDGE('',*,*,#795,.F.);
#795 = EDGE_CURVE('',#796,#796,#798,.T.);
#796 = VERTEX_POINT('',#797);
#797 = CARTESIAN_POINT('',(1.7,13.5,12.00625));
#798 = CIRCLE('',#799,1.7);
#799 = AXIS2_PLACEMENT_3D('',#800,#801,#802);
#800 = CARTESIAN_POINT('',(8.3E-16,13.5,12.00625));
#801 = DIRECTION('',(0.,0.,1.));
#802 = DIRECTION('',(1.,0.,0.));
#803 = ORIENTED_EDGE('',*,*,#804,.F.);
#804 = EDGE_CURVE('',#365,#796,#805,.T.);
#805 = LINE('',#806,#807);
#806 = CARTESIAN_POINT('',(1.7,13.5,9.525));
#807 = VECTOR('',#808,1.);
#808 = DIRECTION('',(0.,0.,1.));
#809 = ORIENTED_EDGE('',*,*,#364,.T.);
#810 = ORIENTED_EDGE('',*,*,#804,.T.);
#811 = CYLINDRICAL_SURFACE('',#812,1.7);
#812 = AXIS2_PLACEMENT_3D('',#813,#814,#815);
#813 = CARTESIAN_POINT('',(8.3E-16,13.5,9.525));
#814 = DIRECTION('',(0.,0.,1.));
#815 = DIRECTION('',(1.,0.,0.));
#816 = ADVANCED_FACE('',(#817),#836,.F.);
#817 = FACE_BOUND('',#818,.F.);
#818 = EDGE_LOOP('',(#819,#820,#828,#835));
#819 = ORIENTED_EDGE('',*,*,#384,.F.);
#820 = ORIENTED_EDGE('',*,*,#821,.F.);
#821 = EDGE_CURVE('',#822,#385,#824,.T.);
#822 = VERTEX_POINT('',#823);
#823 = CARTESIAN_POINT('',(9.,-2.E-15,12.00625));
#824 = LINE('',#825,#826);
#825 = CARTESIAN_POINT('',(9.,-2.2E-15,11.80625));
#826 = VECTOR('',#827,1.);
#827 = DIRECTION('',(0.,0.,1.));
#828 = ORIENTED_EDGE('',*,*,#829,.T.);
#829 = EDGE_CURVE('',#822,#822,#830,.T.);
#830 = CIRCLE('',#831,9.);
#831 = AXIS2_PLACEMENT_3D('',#832,#833,#834);
#832 = CARTESIAN_POINT('',(0.,0.,12.00625));
#833 = DIRECTION('',(0.,0.,1.));
#834 = DIRECTION('',(1.,0.,0.));
#835 = ORIENTED_EDGE('',*,*,#821,.T.);
#836 = CYLINDRICAL_SURFACE('',#837,9.);
#837 = AXIS2_PLACEMENT_3D('',#838,#839,#840);
#838 = CARTESIAN_POINT('',(0.,0.,11.80625));
#839 = DIRECTION('',(0.,0.,1.));
#840 = DIRECTION('',(1.,0.,0.));
#841 = ADVANCED_FACE('',(#842),#848,.T.);
#842 = FACE_BOUND('',#843,.T.);
#843 = EDGE_LOOP('',(#844,#845,#846,#847));
#844 = ORIENTED_EDGE('',*,*,#457,.F.);
#845 = ORIENTED_EDGE('',*,*,#410,.F.);
#846 = ORIENTED_EDGE('',*,*,#432,.T.);
#847 = ORIENTED_EDGE('',*,*,#485,.T.);
#848 = CYLINDRICAL_SURFACE('',#849,28.15);
#849 = AXIS2_PLACEMENT_3D('',#850,#851,#852);
#850 = CARTESIAN_POINT('',(0.,0.,12.));
#851 = DIRECTION('',(0.,0.,1.));
#852 = DIRECTION('',(0.967267752776,0.253757944585,0.));
#853 = ADVANCED_FACE('',(#854),#860,.T.);
#854 = FACE_BOUND('',#855,.T.);
#855 = EDGE_LOOP('',(#856,#857,#858,#859));
#856 = ORIENTED_EDGE('',*,*,#555,.F.);
#857 = ORIENTED_EDGE('',*,*,#508,.F.);
#858 = ORIENTED_EDGE('',*,*,#530,.T.);
#859 = ORIENTED_EDGE('',*,*,#583,.T.);
#860 = CYLINDRICAL_SURFACE('',#861,28.15);
#861 = AXIS2_PLACEMENT_3D('',#862,#863,#864);
#862 = CARTESIAN_POINT('',(0.,0.,12.));
#863 = DIRECTION('',(0.,0.,1.));
#864 = DIRECTION('',(-0.739631094979,0.67301251351,0.));
#865 = ADVANCED_FACE('',(#866),#872,.T.);
#866 = FACE_BOUND('',#867,.T.);
#867 = EDGE_LOOP('',(#868,#869,#870,#871));
#868 = ORIENTED_EDGE('',*,*,#653,.F.);
#869 = ORIENTED_EDGE('',*,*,#606,.F.);
#870 = ORIENTED_EDGE('',*,*,#628,.T.);
#871 = ORIENTED_EDGE('',*,*,#681,.T.);
#872 = CYLINDRICAL_SURFACE('',#873,28.15);
#873 = AXIS2_PLACEMENT_3D('',#874,#875,#876);
#874 = CARTESIAN_POINT('',(0.,0.,12.));
#875 = DIRECTION('',(0.,0.,1.));
#876 = DIRECTION('',(-0.213030386275,-0.977045574435,0.));
#877 = ADVANCED_FACE('',(#878),#881,.F.);
#878 = FACE_BOUND('',#879,.F.);
#879 = EDGE_LOOP('',(#880));
#880 = ORIENTED_EDGE('',*,*,#703,.T.);
#881 = PLANE('',#882);
#882 = AXIS2_PLACEMENT_3D('',#883,#884,#885);
#883 = CARTESIAN_POINT('',(-19.19509027626,-4.431535770574,13.70625));
#884 = DIRECTION('',(0.974370064785,0.224951054344,0.));
#885 = DIRECTION('',(-0.224951054344,0.974370064785,0.));
#886 = ADVANCED_FACE('',(#887,#890,#893,#896,#899),#902,.F.);
#887 = FACE_BOUND('',#888,.F.);
#888 = EDGE_LOOP('',(#889));
#889 = ORIENTED_EDGE('',*,*,#720,.T.);
#890 = FACE_BOUND('',#891,.F.);
#891 = EDGE_LOOP('',(#892));
#892 = ORIENTED_EDGE('',*,*,#745,.F.);
#893 = FACE_BOUND('',#894,.F.);
#894 = EDGE_LOOP('',(#895));
#895 = ORIENTED_EDGE('',*,*,#770,.F.);
#896 = FACE_BOUND('',#897,.F.);
#897 = EDGE_LOOP('',(#898));
#898 = ORIENTED_EDGE('',*,*,#829,.F.);
#899 = FACE_BOUND('',#900,.F.);
#900 = EDGE_LOOP('',(#901));
#901 = ORIENTED_EDGE('',*,*,#795,.F.);
#902 = PLANE('',#903);
#903 = AXIS2_PLACEMENT_3D('',#904,#905,#906);
#904 = CARTESIAN_POINT('',(0.,0.,12.00625));
#905 = DIRECTION('',(0.,0.,1.));
#906 = DIRECTION('',(1.,0.,0.));
#907 = ( GEOMETRIC_REPRESENTATION_CONTEXT(3) 
GLOBAL_UNCERTAINTY_ASSIGNED_CONTEXT((#911)) GLOBAL_UNIT_ASSIGNED_CONTEXT
((#908,#909,#910)) REPRESENTATION_CONTEXT('Context #1',
  '3D Context with UNIT and UNCERTAINTY') );
#908 = ( LENGTH_UNIT() NAMED_UNIT(*) SI_UNIT(.MILLI.,.METRE.) );
#909 = ( NAMED_UNIT(*) PLANE_ANGLE_UNIT() SI_UNIT($,.RADIAN.) );
#910 = ( NAMED_UNIT(*) SI_UNIT($,.STERADIAN.) SOLID_ANGLE_UNIT() );
#911 = UNCERTAINTY_MEASURE_WITH_UNIT(LENGTH_MEASURE(1.E-07),#908,
  'distance_accuracy_value','confusion accuracy');
#912 = PRODUCT_RELATED_PRODUCT_CATEGORY('part',$,(#7));
ENDSEC;
END-ISO-10303-21;
