ISO-10303-21;
HEADER;
FILE_DESCRIPTION(('FreeCAD Model'),'2;1');
FILE_NAME('Open CASCADE Shape Model','2026-10-02T21:53:51',('FreeCAD'),(
    'FreeCAD'),'Open CASCADE STEP processor 7.8','FreeCAD','Unknown');
FILE_SCHEMA(('AUTOMOTIVE_DESIGN { 1 0 10303 214 1 1 1 1 }'));
ENDSEC;
DATA;
#1 = APPLICATION_PROTOCOL_DEFINITION('international standard',
  'automotive_design',2000,#2);
#2 = APPLICATION_CONTEXT(
  'core data for automotive mechanical design processes');
#3 = SHAPE_DEFINITION_REPRESENTATION(#4,#10);
#4 = PRODUCT_DEFINITION_SHAPE('','',#5);
#5 = PRODUCT_DEFINITION('design','',#6,#9);
#6 = PRODUCT_DEFINITION_FORMATION('','',#7);
#7 = PRODUCT('Open CASCADE STEP translator 7.8 3',
  'Open CASCADE STEP translator 7.8 3','',(#8));
#8 = PRODUCT_CONTEXT('',#2,'mechanical');
#9 = PRODUCT_DEFINITION_CONTEXT('part definition',#2,'design');
#10 = ADVANCED_BREP_SHAPE_REPRESENTATION('',(#11,#15),#1433);
#11 = AXIS2_PLACEMENT_3D('',#12,#13,#14);
#12 = CARTESIAN_POINT('',(0.,0.,0.));
#13 = DIRECTION('',(0.,0.,1.));
#14 = DIRECTION('',(1.,0.,-0.));
#15 = MANIFOLD_SOLID_BREP('',#16);
#16 = CLOSED_SHELL('',(#17,#50,#70,#90,#115,#407,#460,#480,#511,#536,
    #561,#578,#609,#634,#659,#676,#707,#732,#756,#774,#805,#830,#855,
    #872,#903,#928,#953,#970,#1001,#1026,#1051,#1068,#1093,#1118,#1143,
    #1168,#1193,#1218,#1333,#1345,#1357,#1369,#1378,#1399,#1424));
#17 = ADVANCED_FACE('',(#18),#45,.T.);
#18 = FACE_BOUND('',#19,.T.);
#19 = EDGE_LOOP('',(#20,#29,#37,#44));
#20 = ORIENTED_EDGE('',*,*,#21,.F.);
#21 = EDGE_CURVE('',#22,#22,#24,.T.);
#22 = VERTEX_POINT('',#23);
#23 = CARTESIAN_POINT('',(39.5,-1.E-14,155.70625));
#24 = CIRCLE('',#25,39.5);
#25 = AXIS2_PLACEMENT_3D('',#26,#27,#28);
#26 = CARTESIAN_POINT('',(0.,0.,155.70625));
#27 = DIRECTION('',(0.,0.,1.));
#28 = DIRECTION('',(1.,0.,0.));
#29 = ORIENTED_EDGE('',*,*,#30,.F.);
#30 = EDGE_CURVE('',#31,#22,#33,.T.);
#31 = VERTEX_POINT('',#32);
#32 = CARTESIAN_POINT('',(39.5,-1.E-14,151.90625));
#33 = LINE('',#34,#35);
#34 = CARTESIAN_POINT('',(39.5,-9.67E-15,151.90625));
#35 = VECTOR('',#36,1.);
#36 = DIRECTION('',(0.,0.,1.));
#37 = ORIENTED_EDGE('',*,*,#38,.T.);
#38 = EDGE_CURVE('',#31,#31,#39,.T.);
#39 = CIRCLE('',#40,39.5);
#40 = AXIS2_PLACEMENT_3D('',#41,#42,#43);
#41 = CARTESIAN_POINT('',(0.,0.,151.90625));
#42 = DIRECTION('',(0.,0.,1.));
#43 = DIRECTION('',(1.,0.,0.));
#44 = ORIENTED_EDGE('',*,*,#30,.T.);
#45 = CYLINDRICAL_SURFACE('',#46,39.5);
#46 = AXIS2_PLACEMENT_3D('',#47,#48,#49);
#47 = CARTESIAN_POINT('',(0.,0.,151.90625));
#48 = DIRECTION('',(0.,0.,1.));
#49 = DIRECTION('',(1.,0.,0.));
#50 = ADVANCED_FACE('',(#51,#54),#65,.T.);
#51 = FACE_BOUND('',#52,.T.);
#52 = EDGE_LOOP('',(#53));
#53 = ORIENTED_EDGE('',*,*,#21,.T.);
#54 = FACE_BOUND('',#55,.T.);
#55 = EDGE_LOOP('',(#56));
#56 = ORIENTED_EDGE('',*,*,#57,.F.);
#57 = EDGE_CURVE('',#58,#58,#60,.T.);
#58 = VERTEX_POINT('',#59);
#59 = CARTESIAN_POINT('',(38.3,-9.E-15,155.70625));
#60 = CIRCLE('',#61,38.3);
#61 = AXIS2_PLACEMENT_3D('',#62,#63,#64);
#62 = CARTESIAN_POINT('',(0.,0.,155.70625));
#63 = DIRECTION('',(0.,0.,1.));
#64 = DIRECTION('',(1.,0.,0.));
#65 = PLANE('',#66);
#66 = AXIS2_PLACEMENT_3D('',#67,#68,#69);
#67 = CARTESIAN_POINT('',(0.,0.,155.70625));
#68 = DIRECTION('',(0.,0.,1.));
#69 = DIRECTION('',(1.,0.,0.));
#70 = ADVANCED_FACE('',(#71,#74),#85,.F.);
#71 = FACE_BOUND('',#72,.F.);
#72 = EDGE_LOOP('',(#73));
#73 = ORIENTED_EDGE('',*,*,#38,.T.);
#74 = FACE_BOUND('',#75,.F.);
#75 = EDGE_LOOP('',(#76));
#76 = ORIENTED_EDGE('',*,*,#77,.F.);
#77 = EDGE_CURVE('',#78,#78,#80,.T.);
#78 = VERTEX_POINT('',#79);
#79 = CARTESIAN_POINT('',(33.15,-8.E-15,151.90625));
#80 = CIRCLE('',#81,33.15);
#81 = AXIS2_PLACEMENT_3D('',#82,#83,#84);
#82 = CARTESIAN_POINT('',(0.,0.,151.90625));
#83 = DIRECTION('',(0.,0.,1.));
#84 = DIRECTION('',(1.,0.,0.));
#85 = PLANE('',#86);
#86 = AXIS2_PLACEMENT_3D('',#87,#88,#89);
#87 = CARTESIAN_POINT('',(0.,0.,151.90625));
#88 = DIRECTION('',(0.,0.,1.));
#89 = DIRECTION('',(1.,0.,0.));
#90 = ADVANCED_FACE('',(#91),#110,.T.);
#91 = FACE_BOUND('',#92,.T.);
#92 = EDGE_LOOP('',(#93,#102,#108,#109));
#93 = ORIENTED_EDGE('',*,*,#94,.F.);
#94 = EDGE_CURVE('',#95,#95,#97,.T.);
#95 = VERTEX_POINT('',#96);
#96 = CARTESIAN_POINT('',(38.3,-9.E-15,156.90625));
#97 = CIRCLE('',#98,38.3);
#98 = AXIS2_PLACEMENT_3D('',#99,#100,#101);
#99 = CARTESIAN_POINT('',(0.,0.,156.90625));
#100 = DIRECTION('',(0.,0.,1.));
#101 = DIRECTION('',(1.,0.,0.));
#102 = ORIENTED_EDGE('',*,*,#103,.F.);
#103 = EDGE_CURVE('',#58,#95,#104,.T.);
#104 = LINE('',#105,#106);
#105 = CARTESIAN_POINT('',(38.3,-9.38E-15,154.70625));
#106 = VECTOR('',#107,1.);
#107 = DIRECTION('',(0.,0.,1.));
#108 = ORIENTED_EDGE('',*,*,#57,.T.);
#109 = ORIENTED_EDGE('',*,*,#103,.T.);
#110 = CYLINDRICAL_SURFACE('',#111,38.3);
#111 = AXIS2_PLACEMENT_3D('',#112,#113,#114);
#112 = CARTESIAN_POINT('',(0.,0.,154.70625));
#113 = DIRECTION('',(0.,0.,1.));
#114 = DIRECTION('',(1.,0.,0.));
#115 = ADVANCED_FACE('',(#116,#135,#171,#207,#243,#279,#315,#351),#402,
  .T.);
#116 = FACE_BOUND('',#117,.T.);
#117 = EDGE_LOOP('',(#118,#126,#133,#134));
#118 = ORIENTED_EDGE('',*,*,#119,.F.);
#119 = EDGE_CURVE('',#120,#78,#122,.T.);
#120 = VERTEX_POINT('',#121);
#121 = CARTESIAN_POINT('',(33.15,-8.E-15,123.90625));
#122 = LINE('',#123,#124);
#123 = CARTESIAN_POINT('',(33.15,-8.12E-15,123.90625));
#124 = VECTOR('',#125,1.);
#125 = DIRECTION('',(0.,0.,1.));
#126 = ORIENTED_EDGE('',*,*,#127,.T.);
#127 = EDGE_CURVE('',#120,#120,#128,.T.);
#128 = CIRCLE('',#129,33.15);
#129 = AXIS2_PLACEMENT_3D('',#130,#131,#132);
#130 = CARTESIAN_POINT('',(0.,0.,123.90625));
#131 = DIRECTION('',(0.,0.,1.));
#132 = DIRECTION('',(1.,0.,0.));
#133 = ORIENTED_EDGE('',*,*,#119,.T.);
#134 = ORIENTED_EDGE('',*,*,#77,.F.);
#135 = FACE_BOUND('',#136,.T.);
#136 = EDGE_LOOP('',(#137,#147,#156,#164));
#137 = ORIENTED_EDGE('',*,*,#138,.T.);
#138 = EDGE_CURVE('',#139,#141,#143,.T.);
#139 = VERTEX_POINT('',#140);
#140 = CARTESIAN_POINT('',(28.962305187376,16.127844810553,
    137.86644237886));
#141 = VERTEX_POINT('',#142);
#142 = CARTESIAN_POINT('',(28.962305187376,16.127844810553,140.00625));
#143 = LINE('',#144,#145);
#144 = CARTESIAN_POINT('',(28.962305187376,16.127844810553,123.90625));
#145 = VECTOR('',#146,1.);
#146 = DIRECTION('',(0.,0.,1.));
#147 = ORIENTED_EDGE('',*,*,#148,.T.);
#148 = EDGE_CURVE('',#141,#149,#151,.T.);
#149 = VERTEX_POINT('',#150);
#150 = CARTESIAN_POINT('',(25.060908528885,21.699616671887,140.00625));
#151 = CIRCLE('',#152,33.15);
#152 = AXIS2_PLACEMENT_3D('',#153,#154,#155);
#153 = CARTESIAN_POINT('',(0.,0.,140.00625));
#154 = DIRECTION('',(0.,0.,1.));
#155 = DIRECTION('',(1.,0.,0.));
#156 = ORIENTED_EDGE('',*,*,#157,.F.);
#157 = EDGE_CURVE('',#158,#149,#160,.T.);
#158 = VERTEX_POINT('',#159);
#159 = CARTESIAN_POINT('',(25.060908528885,21.699616671887,
    137.86644237886));
#160 = LINE('',#161,#162);
#161 = CARTESIAN_POINT('',(25.060908528885,21.699616671887,123.90625));
#162 = VECTOR('',#163,1.);
#163 = DIRECTION('',(0.,0.,1.));
#164 = ORIENTED_EDGE('',*,*,#165,.F.);
#165 = EDGE_CURVE('',#139,#158,#166,.T.);
#166 = CIRCLE('',#167,33.15);
#167 = AXIS2_PLACEMENT_3D('',#168,#169,#170);
#168 = CARTESIAN_POINT('',(0.,0.,137.86644237886));
#169 = DIRECTION('',(0.,0.,1.));
#170 = DIRECTION('',(1.,0.,0.));
#171 = FACE_BOUND('',#172,.T.);
#172 = EDGE_LOOP('',(#173,#183,#192,#200));
#173 = ORIENTED_EDGE('',*,*,#174,.T.);
#174 = EDGE_CURVE('',#175,#177,#179,.T.);
#175 = VERTEX_POINT('',#176);
#176 = CARTESIAN_POINT('',(-25.06090852888,21.699616671887,
    137.86644237886));
#177 = VERTEX_POINT('',#178);
#178 = CARTESIAN_POINT('',(-25.06090852888,21.699616671887,140.00625));
#179 = LINE('',#180,#181);
#180 = CARTESIAN_POINT('',(-25.06090852888,21.699616671887,123.90625));
#181 = VECTOR('',#182,1.);
#182 = DIRECTION('',(0.,0.,1.));
#183 = ORIENTED_EDGE('',*,*,#184,.T.);
#184 = EDGE_CURVE('',#177,#185,#187,.T.);
#185 = VERTEX_POINT('',#186);
#186 = CARTESIAN_POINT('',(-28.96230518737,16.127844810553,140.00625));
#187 = CIRCLE('',#188,33.15);
#188 = AXIS2_PLACEMENT_3D('',#189,#190,#191);
#189 = CARTESIAN_POINT('',(0.,0.,140.00625));
#190 = DIRECTION('',(0.,0.,1.));
#191 = DIRECTION('',(1.,0.,0.));
#192 = ORIENTED_EDGE('',*,*,#193,.F.);
#193 = EDGE_CURVE('',#194,#185,#196,.T.);
#194 = VERTEX_POINT('',#195);
#195 = CARTESIAN_POINT('',(-28.96230518737,16.127844810553,
    137.86644237886));
#196 = LINE('',#197,#198);
#197 = CARTESIAN_POINT('',(-28.96230518737,16.127844810553,123.90625));
#198 = VECTOR('',#199,1.);
#199 = DIRECTION('',(0.,0.,1.));
#200 = ORIENTED_EDGE('',*,*,#201,.F.);
#201 = EDGE_CURVE('',#175,#194,#202,.T.);
#202 = CIRCLE('',#203,33.15);
#203 = AXIS2_PLACEMENT_3D('',#204,#205,#206);
#204 = CARTESIAN_POINT('',(0.,0.,137.86644237886));
#205 = DIRECTION('',(0.,0.,1.));
#206 = DIRECTION('',(1.,0.,0.));
#207 = FACE_BOUND('',#208,.T.);
#208 = EDGE_LOOP('',(#209,#219,#228,#236));
#209 = ORIENTED_EDGE('',*,*,#210,.T.);
#210 = EDGE_CURVE('',#211,#213,#215,.T.);
#211 = VERTEX_POINT('',#212);
#212 = CARTESIAN_POINT('',(23.07429799746,-23.80124517592,
    137.86644237886));
#213 = VERTEX_POINT('',#214);
#214 = CARTESIAN_POINT('',(23.07429799746,-23.80124517592,140.00625));
#215 = LINE('',#216,#217);
#216 = CARTESIAN_POINT('',(23.07429799746,-23.80124517592,123.90625));
#217 = VECTOR('',#218,1.);
#218 = DIRECTION('',(0.,0.,1.));
#219 = ORIENTED_EDGE('',*,*,#220,.T.);
#220 = EDGE_CURVE('',#213,#221,#223,.T.);
#221 = VERTEX_POINT('',#222);
#222 = CARTESIAN_POINT('',(27.446460578796,-18.59070471221,140.00625));
#223 = CIRCLE('',#224,33.15);
#224 = AXIS2_PLACEMENT_3D('',#225,#226,#227);
#225 = CARTESIAN_POINT('',(0.,0.,140.00625));
#226 = DIRECTION('',(0.,0.,1.));
#227 = DIRECTION('',(1.,0.,0.));
#228 = ORIENTED_EDGE('',*,*,#229,.F.);
#229 = EDGE_CURVE('',#230,#221,#232,.T.);
#230 = VERTEX_POINT('',#231);
#231 = CARTESIAN_POINT('',(27.446460578796,-18.59070471221,
    137.86644237886));
#232 = LINE('',#233,#234);
#233 = CARTESIAN_POINT('',(27.446460578796,-18.59070471221,123.90625));
#234 = VECTOR('',#235,1.);
#235 = DIRECTION('',(0.,0.,1.));
#236 = ORIENTED_EDGE('',*,*,#237,.F.);
#237 = EDGE_CURVE('',#211,#230,#238,.T.);
#238 = CIRCLE('',#239,33.15);
#239 = AXIS2_PLACEMENT_3D('',#240,#241,#242);
#240 = CARTESIAN_POINT('',(0.,0.,137.86644237886));
#241 = DIRECTION('',(0.,0.,1.));
#242 = DIRECTION('',(1.,0.,0.));
#243 = FACE_BOUND('',#244,.T.);
#244 = EDGE_LOOP('',(#245,#255,#264,#272));
#245 = ORIENTED_EDGE('',*,*,#246,.T.);
#246 = EDGE_CURVE('',#247,#249,#251,.T.);
#247 = VERTEX_POINT('',#248);
#248 = CARTESIAN_POINT('',(5.58542293258,32.676070000295,143.90625));
#249 = VERTEX_POINT('',#250);
#250 = CARTESIAN_POINT('',(5.58542293258,32.676070000295,146.40625));
#251 = LINE('',#252,#253);
#252 = CARTESIAN_POINT('',(5.58542293258,32.676070000295,123.90625));
#253 = VECTOR('',#254,1.);
#254 = DIRECTION('',(0.,0.,1.));
#255 = ORIENTED_EDGE('',*,*,#256,.T.);
#256 = EDGE_CURVE('',#249,#257,#259,.T.);
#257 = VERTEX_POINT('',#258);
#258 = CARTESIAN_POINT('',(-7.061957305015,32.389060792529,146.40625));
#259 = CIRCLE('',#260,33.15);
#260 = AXIS2_PLACEMENT_3D('',#261,#262,#263);
#261 = CARTESIAN_POINT('',(0.,0.,146.40625));
#262 = DIRECTION('',(0.,0.,1.));
#263 = DIRECTION('',(1.,0.,0.));
#264 = ORIENTED_EDGE('',*,*,#265,.F.);
#265 = EDGE_CURVE('',#266,#257,#268,.T.);
#266 = VERTEX_POINT('',#267);
#267 = CARTESIAN_POINT('',(-7.061957305015,32.389060792529,143.90625));
#268 = LINE('',#269,#270);
#269 = CARTESIAN_POINT('',(-7.061957305015,32.389060792529,123.90625));
#270 = VECTOR('',#271,1.);
#271 = DIRECTION('',(0.,0.,1.));
#272 = ORIENTED_EDGE('',*,*,#273,.F.);
#273 = EDGE_CURVE('',#247,#266,#274,.T.);
#274 = CIRCLE('',#275,33.15);
#275 = AXIS2_PLACEMENT_3D('',#276,#277,#278);
#276 = CARTESIAN_POINT('',(0.,0.,143.90625));
#277 = DIRECTION('',(0.,0.,1.));
#278 = DIRECTION('',(1.,0.,0.));
#279 = FACE_BOUND('',#280,.T.);
#280 = EDGE_LOOP('',(#281,#291,#300,#308));
#281 = ORIENTED_EDGE('',*,*,#282,.T.);
#282 = EDGE_CURVE('',#283,#285,#287,.T.);
#283 = VERTEX_POINT('',#284);
#284 = CARTESIAN_POINT('',(-31.09101818238,-11.50091684965,143.90625));
#285 = VERTEX_POINT('',#286);
#286 = CARTESIAN_POINT('',(-31.09101818238,-11.50091684965,146.40625));
#287 = LINE('',#288,#289);
#288 = CARTESIAN_POINT('',(-31.09101818238,-11.50091684965,123.90625));
#289 = VECTOR('',#290,1.);
#290 = DIRECTION('',(0.,0.,1.));
#291 = ORIENTED_EDGE('',*,*,#292,.T.);
#292 = EDGE_CURVE('',#285,#293,#295,.T.);
#293 = VERTEX_POINT('',#294);
#294 = CARTESIAN_POINT('',(-24.51877079854,-22.31036482284,146.40625));
#295 = CIRCLE('',#296,33.15);
#296 = AXIS2_PLACEMENT_3D('',#297,#298,#299);
#297 = CARTESIAN_POINT('',(0.,0.,146.40625));
#298 = DIRECTION('',(0.,0.,1.));
#299 = DIRECTION('',(1.,0.,0.));
#300 = ORIENTED_EDGE('',*,*,#301,.F.);
#301 = EDGE_CURVE('',#302,#293,#304,.T.);
#302 = VERTEX_POINT('',#303);
#303 = CARTESIAN_POINT('',(-24.51877079854,-22.31036482284,143.90625));
#304 = LINE('',#305,#306);
#305 = CARTESIAN_POINT('',(-24.51877079854,-22.31036482284,123.90625));
#306 = VECTOR('',#307,1.);
#307 = DIRECTION('',(0.,0.,1.));
#308 = ORIENTED_EDGE('',*,*,#309,.F.);
#309 = EDGE_CURVE('',#283,#302,#310,.T.);
#310 = CIRCLE('',#311,33.15);
#311 = AXIS2_PLACEMENT_3D('',#312,#313,#314);
#312 = CARTESIAN_POINT('',(0.,0.,143.90625));
#313 = DIRECTION('',(0.,0.,1.));
#314 = DIRECTION('',(1.,0.,0.));
#315 = FACE_BOUND('',#316,.T.);
#316 = EDGE_LOOP('',(#317,#327,#336,#344));
#317 = ORIENTED_EDGE('',*,*,#318,.T.);
#318 = EDGE_CURVE('',#319,#321,#323,.T.);
#319 = VERTEX_POINT('',#320);
#320 = CARTESIAN_POINT('',(25.505595249805,-21.17515315064,143.90625));
#321 = VERTEX_POINT('',#322);
#322 = CARTESIAN_POINT('',(25.505595249805,-21.17515315064,146.40625));
#323 = LINE('',#324,#325);
#324 = CARTESIAN_POINT('',(25.505595249805,-21.17515315064,123.90625));
#325 = VECTOR('',#326,1.);
#326 = DIRECTION('',(0.,0.,1.));
#327 = ORIENTED_EDGE('',*,*,#328,.T.);
#328 = EDGE_CURVE('',#321,#329,#331,.T.);
#329 = VERTEX_POINT('',#330);
#330 = CARTESIAN_POINT('',(31.580728103556,-10.07869596968,146.40625));
#331 = CIRCLE('',#332,33.15);
#332 = AXIS2_PLACEMENT_3D('',#333,#334,#335);
#333 = CARTESIAN_POINT('',(0.,0.,146.40625));
#334 = DIRECTION('',(0.,0.,1.));
#335 = DIRECTION('',(1.,0.,0.));
#336 = ORIENTED_EDGE('',*,*,#337,.F.);
#337 = EDGE_CURVE('',#338,#329,#340,.T.);
#338 = VERTEX_POINT('',#339);
#339 = CARTESIAN_POINT('',(31.580728103556,-10.07869596968,143.90625));
#340 = LINE('',#341,#342);
#341 = CARTESIAN_POINT('',(31.580728103556,-10.07869596968,123.90625));
#342 = VECTOR('',#343,1.);
#343 = DIRECTION('',(0.,0.,1.));
#344 = ORIENTED_EDGE('',*,*,#345,.F.);
#345 = EDGE_CURVE('',#319,#338,#346,.T.);
#346 = CIRCLE('',#347,33.15);
#347 = AXIS2_PLACEMENT_3D('',#348,#349,#350);
#348 = CARTESIAN_POINT('',(0.,0.,143.90625));
#349 = DIRECTION('',(0.,0.,1.));
#350 = DIRECTION('',(1.,0.,0.));
#351 = FACE_BOUND('',#352,.T.);
#352 = EDGE_LOOP('',(#353));
#353 = ORIENTED_EDGE('',*,*,#354,.T.);
#354 = EDGE_CURVE('',#355,#355,#357,.T.);
#355 = VERTEX_POINT('',#356);
#356 = CARTESIAN_POINT('',(-32.55858520183,-6.233861536412,146.90625));
#357 = B_SPLINE_CURVE_WITH_KNOTS('',7,(#358,#359,#360,#361,#362,#363,
    #364,#365,#366,#367,#368,#369,#370,#371,#372,#373,#374,#375,#376,
    #377,#378,#379,#380,#381,#382,#383,#384,#385,#386,#387,#388,#389,
    #390,#391,#392,#393,#394,#395,#396,#397,#398,#399,#400,#401),
  .UNSPECIFIED.,.T.,.F.,(8,6,6,6,6,6,6,8),(0.,0.151256724405,
    0.287067789888,0.424372785495,0.587312987704,0.713809535842,
    0.839618434551,1.),.UNSPECIFIED.);
#358 = CARTESIAN_POINT('',(-32.55858520183,-6.233861536412,146.90625));
#359 = CARTESIAN_POINT('',(-32.55858520183,-6.233861536412,
    147.05643312446));
#360 = CARTESIAN_POINT('',(-32.55462374267,-6.254551504302,
    147.20669598483));
#361 = CARTESIAN_POINT('',(-32.54669283378,-6.295974452009,
    147.35489791355));
#362 = CARTESIAN_POINT('',(-32.53462260962,-6.358564685795,
    147.49867352067));
#363 = CARTESIAN_POINT('',(-32.51812894995,-6.442913999024,
    147.63511012911));
#364 = CARTESIAN_POINT('',(-32.49681222783,-6.549583826667,
    147.7604449931));
#365 = CARTESIAN_POINT('',(-32.44644322751,-6.794469223797,
    147.96721297927));
#366 = CARTESIAN_POINT('',(-32.41778937911,-6.931334281691,
    148.0543419008));
#367 = CARTESIAN_POINT('',(-32.38457310671,-7.086341035981,
    148.12184918572));
#368 = CARTESIAN_POINT('',(-32.34759470229,-7.253884000531,
    148.16358495343));
#369 = CARTESIAN_POINT('',(-32.30815386648,-7.426838225366,
    148.17629754716));
#370 = CARTESIAN_POINT('',(-32.26802900965,-7.597669237551,
    148.15976689538));
#371 = CARTESIAN_POINT('',(-32.18957909403,-7.92350213936,148.0737203374
    ));
#372 = CARTESIAN_POINT('',(-32.15239999381,-8.073653097926,
    148.00485312837));
#373 = CARTESIAN_POINT('',(-32.11848576953,-8.207235088789,
    147.91539243062));
#374 = CARTESIAN_POINT('',(-32.08860770987,-8.322612537217,
    147.80986991069));
#375 = CARTESIAN_POINT('',(-32.06329561687,-8.418950888296,
    147.69255452682));
#376 = CARTESIAN_POINT('',(-32.04281096562,-8.496143561484,
    147.56748937642));
#377 = CARTESIAN_POINT('',(-32.00853177011,-8.624476239623,
    147.28537136112));
#378 = CARTESIAN_POINT('',(-31.99615065659,-8.670119365158,147.122181778
    ));
#379 = CARTESIAN_POINT('',(-31.99051022204,-8.690695739361,
    146.95326139163));
#380 = CARTESIAN_POINT('',(-31.99185243859,-8.68579362894,
    146.78287819284));
#381 = CARTESIAN_POINT('',(-32.00013826596,-8.655478935999,
    146.6151607821));
#382 = CARTESIAN_POINT('',(-32.01510390489,-8.600141662563,
    146.45413551052));
#383 = CARTESIAN_POINT('',(-32.05279355116,-8.458429686248,
    146.18754707398));
#384 = CARTESIAN_POINT('',(-32.07336828201,-8.380506881341,
    146.07526763903));
#385 = CARTESIAN_POINT('',(-32.09801060166,-8.28620642593,
    145.97047805271));
#386 = CARTESIAN_POINT('',(-32.12645684866,-8.175776679518,
    145.87655829264));
#387 = CARTESIAN_POINT('',(-32.15823429238,-8.050068267312,
    145.79698846942));
#388 = CARTESIAN_POINT('',(-32.19269228307,-7.910571858791,
    145.73536501008));
#389 = CARTESIAN_POINT('',(-32.26514746343,-7.60963741573,
    145.65589368334));
#390 = CARTESIAN_POINT('',(-32.3023431692,-7.451566795004,
    145.63866621357));
#391 = CARTESIAN_POINT('',(-32.3391220089,-7.290979058805,
    145.64653127152));
#392 = CARTESIAN_POINT('',(-32.37399677667,-7.134097470643,
    145.67960916119));
#393 = CARTESIAN_POINT('',(-32.40582117751,-6.986918512373,
    145.73556256111));
#394 = CARTESIAN_POINT('',(-32.43383917817,-6.854368306769,
    145.8096851803));
#395 = CARTESIAN_POINT('',(-32.48814459745,-6.592827085419,
    146.0037112672));
#396 = CARTESIAN_POINT('',(-32.51254645521,-6.471425367571,
    146.13311927455));
#397 = CARTESIAN_POINT('',(-32.53136247153,-6.375462235474,
    146.27634711126));
#398 = CARTESIAN_POINT('',(-32.54509246725,-6.304333601384,
    146.42860852453));
#399 = CARTESIAN_POINT('',(-32.55409289235,-6.257323903175,
    146.58623982735));
#400 = CARTESIAN_POINT('',(-32.55858520183,-6.233861536412,
    146.74632038661));
#401 = CARTESIAN_POINT('',(-32.55858520183,-6.233861536412,146.90625));
#402 = CYLINDRICAL_SURFACE('',#403,33.15);
#403 = AXIS2_PLACEMENT_3D('',#404,#405,#406);
#404 = CARTESIAN_POINT('',(0.,0.,123.90625));
#405 = DIRECTION('',(0.,0.,1.));
#406 = DIRECTION('',(1.,0.,0.));
#407 = ADVANCED_FACE('',(#408,#411,#422,#433,#444),#455,.T.);
#408 = FACE_BOUND('',#409,.T.);
#409 = EDGE_LOOP('',(#410));
#410 = ORIENTED_EDGE('',*,*,#94,.T.);
#411 = FACE_BOUND('',#412,.T.);
#412 = EDGE_LOOP('',(#413));
#413 = ORIENTED_EDGE('',*,*,#414,.F.);
#414 = EDGE_CURVE('',#415,#415,#417,.T.);
#415 = VERTEX_POINT('',#416);
#416 = CARTESIAN_POINT('',(-10.06813787033,-6.65,156.90625));
#417 = CIRCLE('',#418,1.45);
#418 = AXIS2_PLACEMENT_3D('',#419,#420,#421);
#419 = CARTESIAN_POINT('',(-11.51813787033,-6.65,156.90625));
#420 = DIRECTION('',(0.,0.,1.));
#421 = DIRECTION('',(1.,0.,0.));
#422 = FACE_BOUND('',#423,.T.);
#423 = EDGE_LOOP('',(#424));
#424 = ORIENTED_EDGE('',*,*,#425,.F.);
#425 = EDGE_CURVE('',#426,#426,#428,.T.);
#426 = VERTEX_POINT('',#427);
#427 = CARTESIAN_POINT('',(12.968137870333,-6.65,156.90625));
#428 = CIRCLE('',#429,1.45);
#429 = AXIS2_PLACEMENT_3D('',#430,#431,#432);
#430 = CARTESIAN_POINT('',(11.518137870333,-6.65,156.90625));
#431 = DIRECTION('',(0.,0.,1.));
#432 = DIRECTION('',(1.,0.,0.));
#433 = FACE_BOUND('',#434,.T.);
#434 = EDGE_LOOP('',(#435));
#435 = ORIENTED_EDGE('',*,*,#436,.F.);
#436 = EDGE_CURVE('',#437,#437,#439,.T.);
#437 = VERTEX_POINT('',#438);
#438 = CARTESIAN_POINT('',(6.,-1.E-15,156.90625));
#439 = CIRCLE('',#440,6.);
#440 = AXIS2_PLACEMENT_3D('',#441,#442,#443);
#441 = CARTESIAN_POINT('',(0.,0.,156.90625));
#442 = DIRECTION('',(0.,0.,1.));
#443 = DIRECTION('',(1.,0.,0.));
#444 = FACE_BOUND('',#445,.T.);
#445 = EDGE_LOOP('',(#446));
#446 = ORIENTED_EDGE('',*,*,#447,.F.);
#447 = EDGE_CURVE('',#448,#448,#450,.T.);
#448 = VERTEX_POINT('',#449);
#449 = CARTESIAN_POINT('',(1.45,13.3,156.90625));
#450 = CIRCLE('',#451,1.45);
#451 = AXIS2_PLACEMENT_3D('',#452,#453,#454);
#452 = CARTESIAN_POINT('',(8.1E-16,13.3,156.90625));
#453 = DIRECTION('',(0.,0.,1.));
#454 = DIRECTION('',(1.,0.,0.));
#455 = PLANE('',#456);
#456 = AXIS2_PLACEMENT_3D('',#457,#458,#459);
#457 = CARTESIAN_POINT('',(0.,0.,156.90625));
#458 = DIRECTION('',(0.,0.,1.));
#459 = DIRECTION('',(1.,0.,0.));
#460 = ADVANCED_FACE('',(#461,#464),#475,.F.);
#461 = FACE_BOUND('',#462,.F.);
#462 = EDGE_LOOP('',(#463));
#463 = ORIENTED_EDGE('',*,*,#127,.T.);
#464 = FACE_BOUND('',#465,.F.);
#465 = EDGE_LOOP('',(#466));
#466 = ORIENTED_EDGE('',*,*,#467,.F.);
#467 = EDGE_CURVE('',#468,#468,#470,.T.);
#468 = VERTEX_POINT('',#469);
#469 = CARTESIAN_POINT('',(32.14,-8.E-15,123.90625));
#470 = CIRCLE('',#471,32.14);
#471 = AXIS2_PLACEMENT_3D('',#472,#473,#474);
#472 = CARTESIAN_POINT('',(0.,0.,123.90625));
#473 = DIRECTION('',(0.,0.,1.));
#474 = DIRECTION('',(1.,0.,0.));
#475 = PLANE('',#476);
#476 = AXIS2_PLACEMENT_3D('',#477,#478,#479);
#477 = CARTESIAN_POINT('',(0.,0.,123.90625));
#478 = DIRECTION('',(0.,0.,1.));
#479 = DIRECTION('',(1.,0.,0.));
#480 = ADVANCED_FACE('',(#481),#506,.F.);
#481 = FACE_BOUND('',#482,.F.);
#482 = EDGE_LOOP('',(#483,#493,#499,#500));
#483 = ORIENTED_EDGE('',*,*,#484,.F.);
#484 = EDGE_CURVE('',#485,#487,#489,.T.);
#485 = VERTEX_POINT('',#486);
#486 = CARTESIAN_POINT('',(26.778119275809,14.911566921371,
    137.86644237886));
#487 = VERTEX_POINT('',#488);
#488 = CARTESIAN_POINT('',(26.778119275809,14.911566921371,140.00625));
#489 = LINE('',#490,#491);
#490 = CARTESIAN_POINT('',(26.778119275809,14.911566921371,122.90625));
#491 = VECTOR('',#492,1.);
#492 = DIRECTION('',(0.,0.,1.));
#493 = ORIENTED_EDGE('',*,*,#494,.T.);
#494 = EDGE_CURVE('',#485,#139,#495,.T.);
#495 = LINE('',#496,#497);
#496 = CARTESIAN_POINT('',(0.,0.,137.86644237886));
#497 = VECTOR('',#498,1.);
#498 = DIRECTION('',(0.873674364627,0.486511155673,0.));
#499 = ORIENTED_EDGE('',*,*,#138,.T.);
#500 = ORIENTED_EDGE('',*,*,#501,.F.);
#501 = EDGE_CURVE('',#487,#141,#502,.T.);
#502 = LINE('',#503,#504);
#503 = CARTESIAN_POINT('',(0.,0.,140.00625));
#504 = VECTOR('',#505,1.);
#505 = DIRECTION('',(0.873674364627,0.486511155673,0.));
#506 = PLANE('',#507);
#507 = AXIS2_PLACEMENT_3D('',#508,#509,#510);
#508 = CARTESIAN_POINT('',(0.,0.,137.86644237886));
#509 = DIRECTION('',(0.486511155673,-0.873674364627,0.));
#510 = DIRECTION('',(0.873674364627,0.486511155673,0.));
#511 = ADVANCED_FACE('',(#512),#531,.T.);
#512 = FACE_BOUND('',#513,.T.);
#513 = EDGE_LOOP('',(#514,#515,#523,#530));
#514 = ORIENTED_EDGE('',*,*,#165,.T.);
#515 = ORIENTED_EDGE('',*,*,#516,.F.);
#516 = EDGE_CURVE('',#517,#158,#519,.T.);
#517 = VERTEX_POINT('',#518);
#518 = CARTESIAN_POINT('',(23.170945593072,20.063144826345,
    137.86644237886));
#519 = LINE('',#520,#521);
#520 = CARTESIAN_POINT('',(0.,0.,137.86644237886));
#521 = VECTOR('',#522,1.);
#522 = DIRECTION('',(0.755985174325,0.654588738217,0.));
#523 = ORIENTED_EDGE('',*,*,#524,.F.);
#524 = EDGE_CURVE('',#485,#517,#525,.T.);
#525 = CIRCLE('',#526,30.65);
#526 = AXIS2_PLACEMENT_3D('',#527,#528,#529);
#527 = CARTESIAN_POINT('',(0.,0.,137.86644237886));
#528 = DIRECTION('',(0.,0.,1.));
#529 = DIRECTION('',(1.,0.,0.));
#530 = ORIENTED_EDGE('',*,*,#494,.T.);
#531 = PLANE('',#532);
#532 = AXIS2_PLACEMENT_3D('',#533,#534,#535);
#533 = CARTESIAN_POINT('',(0.,0.,137.86644237886));
#534 = DIRECTION('',(0.,0.,1.));
#535 = DIRECTION('',(0.873674364627,0.486511155673,0.));
#536 = ADVANCED_FACE('',(#537),#556,.F.);
#537 = FACE_BOUND('',#538,.F.);
#538 = EDGE_LOOP('',(#539,#540,#548,#555));
#539 = ORIENTED_EDGE('',*,*,#148,.T.);
#540 = ORIENTED_EDGE('',*,*,#541,.F.);
#541 = EDGE_CURVE('',#542,#149,#544,.T.);
#542 = VERTEX_POINT('',#543);
#543 = CARTESIAN_POINT('',(23.170945593072,20.063144826345,140.00625));
#544 = LINE('',#545,#546);
#545 = CARTESIAN_POINT('',(0.,0.,140.00625));
#546 = VECTOR('',#547,1.);
#547 = DIRECTION('',(0.755985174325,0.654588738217,0.));
#548 = ORIENTED_EDGE('',*,*,#549,.F.);
#549 = EDGE_CURVE('',#487,#542,#550,.T.);
#550 = CIRCLE('',#551,30.65);
#551 = AXIS2_PLACEMENT_3D('',#552,#553,#554);
#552 = CARTESIAN_POINT('',(0.,0.,140.00625));
#553 = DIRECTION('',(0.,0.,1.));
#554 = DIRECTION('',(1.,0.,0.));
#555 = ORIENTED_EDGE('',*,*,#501,.T.);
#556 = PLANE('',#557);
#557 = AXIS2_PLACEMENT_3D('',#558,#559,#560);
#558 = CARTESIAN_POINT('',(0.,0.,140.00625));
#559 = DIRECTION('',(0.,0.,1.));
#560 = DIRECTION('',(0.873674364627,0.486511155673,0.));
#561 = ADVANCED_FACE('',(#562),#573,.T.);
#562 = FACE_BOUND('',#563,.T.);
#563 = EDGE_LOOP('',(#564,#565,#571,#572));
#564 = ORIENTED_EDGE('',*,*,#541,.F.);
#565 = ORIENTED_EDGE('',*,*,#566,.F.);
#566 = EDGE_CURVE('',#517,#542,#567,.T.);
#567 = LINE('',#568,#569);
#568 = CARTESIAN_POINT('',(23.170945593072,20.063144826345,122.90625));
#569 = VECTOR('',#570,1.);
#570 = DIRECTION('',(0.,0.,1.));
#571 = ORIENTED_EDGE('',*,*,#516,.T.);
#572 = ORIENTED_EDGE('',*,*,#157,.T.);
#573 = PLANE('',#574);
#574 = AXIS2_PLACEMENT_3D('',#575,#576,#577);
#575 = CARTESIAN_POINT('',(0.,0.,137.86644237886));
#576 = DIRECTION('',(0.654588738217,-0.755985174325,0.));
#577 = DIRECTION('',(0.755985174325,0.654588738217,0.));
#578 = ADVANCED_FACE('',(#579),#604,.F.);
#579 = FACE_BOUND('',#580,.F.);
#580 = EDGE_LOOP('',(#581,#591,#597,#598));
#581 = ORIENTED_EDGE('',*,*,#582,.F.);
#582 = EDGE_CURVE('',#583,#585,#587,.T.);
#583 = VERTEX_POINT('',#584);
#584 = CARTESIAN_POINT('',(-23.17094559307,20.063144826345,
    137.86644237886));
#585 = VERTEX_POINT('',#586);
#586 = CARTESIAN_POINT('',(-23.17094559307,20.063144826345,140.00625));
#587 = LINE('',#588,#589);
#588 = CARTESIAN_POINT('',(-23.17094559307,20.063144826345,122.90625));
#589 = VECTOR('',#590,1.);
#590 = DIRECTION('',(0.,0.,1.));
#591 = ORIENTED_EDGE('',*,*,#592,.T.);
#592 = EDGE_CURVE('',#583,#175,#593,.T.);
#593 = LINE('',#594,#595);
#594 = CARTESIAN_POINT('',(0.,0.,137.86644237886));
#595 = VECTOR('',#596,1.);
#596 = DIRECTION('',(-0.755985174325,0.654588738217,0.));
#597 = ORIENTED_EDGE('',*,*,#174,.T.);
#598 = ORIENTED_EDGE('',*,*,#599,.F.);
#599 = EDGE_CURVE('',#585,#177,#600,.T.);
#600 = LINE('',#601,#602);
#601 = CARTESIAN_POINT('',(0.,0.,140.00625));
#602 = VECTOR('',#603,1.);
#603 = DIRECTION('',(-0.755985174325,0.654588738217,0.));
#604 = PLANE('',#605);
#605 = AXIS2_PLACEMENT_3D('',#606,#607,#608);
#606 = CARTESIAN_POINT('',(0.,0.,137.86644237886));
#607 = DIRECTION('',(0.654588738217,0.755985174325,0.));
#608 = DIRECTION('',(-0.755985174325,0.654588738217,0.));
#609 = ADVANCED_FACE('',(#610),#629,.T.);
#610 = FACE_BOUND('',#611,.T.);
#611 = EDGE_LOOP('',(#612,#613,#621,#628));
#612 = ORIENTED_EDGE('',*,*,#201,.T.);
#613 = ORIENTED_EDGE('',*,*,#614,.F.);
#614 = EDGE_CURVE('',#615,#194,#617,.T.);
#615 = VERTEX_POINT('',#616);
#616 = CARTESIAN_POINT('',(-26.7781192758,14.911566921371,
    137.86644237886));
#617 = LINE('',#618,#619);
#618 = CARTESIAN_POINT('',(0.,0.,137.86644237886));
#619 = VECTOR('',#620,1.);
#620 = DIRECTION('',(-0.873674364627,0.486511155673,0.));
#621 = ORIENTED_EDGE('',*,*,#622,.F.);
#622 = EDGE_CURVE('',#583,#615,#623,.T.);
#623 = CIRCLE('',#624,30.65);
#624 = AXIS2_PLACEMENT_3D('',#625,#626,#627);
#625 = CARTESIAN_POINT('',(0.,0.,137.86644237886));
#626 = DIRECTION('',(0.,0.,1.));
#627 = DIRECTION('',(1.,0.,0.));
#628 = ORIENTED_EDGE('',*,*,#592,.T.);
#629 = PLANE('',#630);
#630 = AXIS2_PLACEMENT_3D('',#631,#632,#633);
#631 = CARTESIAN_POINT('',(0.,0.,137.86644237886));
#632 = DIRECTION('',(0.,0.,1.));
#633 = DIRECTION('',(-0.755985174325,0.654588738217,0.));
#634 = ADVANCED_FACE('',(#635),#654,.F.);
#635 = FACE_BOUND('',#636,.F.);
#636 = EDGE_LOOP('',(#637,#638,#646,#653));
#637 = ORIENTED_EDGE('',*,*,#184,.T.);
#638 = ORIENTED_EDGE('',*,*,#639,.F.);
#639 = EDGE_CURVE('',#640,#185,#642,.T.);
#640 = VERTEX_POINT('',#641);
#641 = CARTESIAN_POINT('',(-26.7781192758,14.911566921371,140.00625));
#642 = LINE('',#643,#644);
#643 = CARTESIAN_POINT('',(0.,0.,140.00625));
#644 = VECTOR('',#645,1.);
#645 = DIRECTION('',(-0.873674364627,0.486511155673,0.));
#646 = ORIENTED_EDGE('',*,*,#647,.F.);
#647 = EDGE_CURVE('',#585,#640,#648,.T.);
#648 = CIRCLE('',#649,30.65);
#649 = AXIS2_PLACEMENT_3D('',#650,#651,#652);
#650 = CARTESIAN_POINT('',(0.,0.,140.00625));
#651 = DIRECTION('',(0.,0.,1.));
#652 = DIRECTION('',(1.,0.,0.));
#653 = ORIENTED_EDGE('',*,*,#599,.T.);
#654 = PLANE('',#655);
#655 = AXIS2_PLACEMENT_3D('',#656,#657,#658);
#656 = CARTESIAN_POINT('',(0.,0.,140.00625));
#657 = DIRECTION('',(0.,0.,1.));
#658 = DIRECTION('',(-0.755985174325,0.654588738217,0.));
#659 = ADVANCED_FACE('',(#660),#671,.T.);
#660 = FACE_BOUND('',#661,.T.);
#661 = EDGE_LOOP('',(#662,#663,#669,#670));
#662 = ORIENTED_EDGE('',*,*,#639,.F.);
#663 = ORIENTED_EDGE('',*,*,#664,.F.);
#664 = EDGE_CURVE('',#615,#640,#665,.T.);
#665 = LINE('',#666,#667);
#666 = CARTESIAN_POINT('',(-26.7781192758,14.911566921371,122.90625));
#667 = VECTOR('',#668,1.);
#668 = DIRECTION('',(0.,0.,1.));
#669 = ORIENTED_EDGE('',*,*,#614,.T.);
#670 = ORIENTED_EDGE('',*,*,#193,.T.);
#671 = PLANE('',#672);
#672 = AXIS2_PLACEMENT_3D('',#673,#674,#675);
#673 = CARTESIAN_POINT('',(0.,0.,137.86644237886));
#674 = DIRECTION('',(0.486511155673,0.873674364627,0.));
#675 = DIRECTION('',(-0.873674364627,0.486511155673,0.));
#676 = ADVANCED_FACE('',(#677),#702,.F.);
#677 = FACE_BOUND('',#678,.F.);
#678 = EDGE_LOOP('',(#679,#689,#695,#696));
#679 = ORIENTED_EDGE('',*,*,#680,.F.);
#680 = EDGE_CURVE('',#681,#683,#685,.T.);
#681 = VERTEX_POINT('',#682);
#682 = CARTESIAN_POINT('',(21.334154860397,-22.00627947638,
    137.86644237886));
#683 = VERTEX_POINT('',#684);
#684 = CARTESIAN_POINT('',(21.334154860397,-22.00627947638,140.00625));
#685 = LINE('',#686,#687);
#686 = CARTESIAN_POINT('',(21.334154860397,-22.00627947638,122.90625));
#687 = VECTOR('',#688,1.);
#688 = DIRECTION('',(0.,0.,1.));
#689 = ORIENTED_EDGE('',*,*,#690,.T.);
#690 = EDGE_CURVE('',#681,#211,#691,.T.);
#691 = LINE('',#692,#693);
#692 = CARTESIAN_POINT('',(0.,0.,137.86644237886));
#693 = VECTOR('',#694,1.);
#694 = DIRECTION('',(0.696057254825,-0.717986279817,0.));
#695 = ORIENTED_EDGE('',*,*,#210,.T.);
#696 = ORIENTED_EDGE('',*,*,#697,.F.);
#697 = EDGE_CURVE('',#683,#213,#698,.T.);
#698 = LINE('',#699,#700);
#699 = CARTESIAN_POINT('',(0.,0.,140.00625));
#700 = VECTOR('',#701,1.);
#701 = DIRECTION('',(0.696057254825,-0.717986279817,0.));
#702 = PLANE('',#703);
#703 = AXIS2_PLACEMENT_3D('',#704,#705,#706);
#704 = CARTESIAN_POINT('',(0.,0.,137.86644237886));
#705 = DIRECTION('',(-0.717986279817,-0.696057254825,0.));
#706 = DIRECTION('',(0.696057254825,-0.717986279817,0.));
#707 = ADVANCED_FACE('',(#708),#727,.T.);
#708 = FACE_BOUND('',#709,.T.);
#709 = EDGE_LOOP('',(#710,#711,#719,#726));
#710 = ORIENTED_EDGE('',*,*,#237,.T.);
#711 = ORIENTED_EDGE('',*,*,#712,.F.);
#712 = EDGE_CURVE('',#713,#230,#715,.T.);
#713 = VERTEX_POINT('',#714);
#714 = CARTESIAN_POINT('',(25.376591756866,-17.18869078217,
    137.86644237886));
#715 = LINE('',#716,#717);
#716 = CARTESIAN_POINT('',(0.,0.,137.86644237886));
#717 = VECTOR('',#718,1.);
#718 = DIRECTION('',(0.827947528772,-0.560805572012,0.));
#719 = ORIENTED_EDGE('',*,*,#720,.F.);
#720 = EDGE_CURVE('',#681,#713,#721,.T.);
#721 = CIRCLE('',#722,30.65);
#722 = AXIS2_PLACEMENT_3D('',#723,#724,#725);
#723 = CARTESIAN_POINT('',(0.,0.,137.86644237886));
#724 = DIRECTION('',(0.,0.,1.));
#725 = DIRECTION('',(1.,0.,0.));
#726 = ORIENTED_EDGE('',*,*,#690,.T.);
#727 = PLANE('',#728);
#728 = AXIS2_PLACEMENT_3D('',#729,#730,#731);
#729 = CARTESIAN_POINT('',(0.,0.,137.86644237886));
#730 = DIRECTION('',(0.,0.,1.));
#731 = DIRECTION('',(0.696057254825,-0.717986279817,0.));
#732 = ADVANCED_FACE('',(#733),#751,.T.);
#733 = FACE_BOUND('',#734,.T.);
#734 = EDGE_LOOP('',(#735,#743,#749,#750));
#735 = ORIENTED_EDGE('',*,*,#736,.F.);
#736 = EDGE_CURVE('',#737,#221,#739,.T.);
#737 = VERTEX_POINT('',#738);
#738 = CARTESIAN_POINT('',(25.376591756866,-17.18869078217,140.00625));
#739 = LINE('',#740,#741);
#740 = CARTESIAN_POINT('',(0.,0.,140.00625));
#741 = VECTOR('',#742,1.);
#742 = DIRECTION('',(0.827947528772,-0.560805572012,0.));
#743 = ORIENTED_EDGE('',*,*,#744,.F.);
#744 = EDGE_CURVE('',#713,#737,#745,.T.);
#745 = LINE('',#746,#747);
#746 = CARTESIAN_POINT('',(25.376591756866,-17.18869078217,122.90625));
#747 = VECTOR('',#748,1.);
#748 = DIRECTION('',(0.,0.,1.));
#749 = ORIENTED_EDGE('',*,*,#712,.T.);
#750 = ORIENTED_EDGE('',*,*,#229,.T.);
#751 = PLANE('',#752);
#752 = AXIS2_PLACEMENT_3D('',#753,#754,#755);
#753 = CARTESIAN_POINT('',(0.,0.,137.86644237886));
#754 = DIRECTION('',(-0.560805572012,-0.827947528772,0.));
#755 = DIRECTION('',(0.827947528772,-0.560805572012,0.));
#756 = ADVANCED_FACE('',(#757),#769,.F.);
#757 = FACE_BOUND('',#758,.F.);
#758 = EDGE_LOOP('',(#759,#760,#761,#768));
#759 = ORIENTED_EDGE('',*,*,#220,.T.);
#760 = ORIENTED_EDGE('',*,*,#736,.F.);
#761 = ORIENTED_EDGE('',*,*,#762,.F.);
#762 = EDGE_CURVE('',#683,#737,#763,.T.);
#763 = CIRCLE('',#764,30.65);
#764 = AXIS2_PLACEMENT_3D('',#765,#766,#767);
#765 = CARTESIAN_POINT('',(0.,0.,140.00625));
#766 = DIRECTION('',(0.,0.,1.));
#767 = DIRECTION('',(1.,0.,0.));
#768 = ORIENTED_EDGE('',*,*,#697,.T.);
#769 = PLANE('',#770);
#770 = AXIS2_PLACEMENT_3D('',#771,#772,#773);
#771 = CARTESIAN_POINT('',(0.,0.,140.00625));
#772 = DIRECTION('',(0.,0.,1.));
#773 = DIRECTION('',(0.696057254825,-0.717986279817,0.));
#774 = ADVANCED_FACE('',(#775),#800,.T.);
#775 = FACE_BOUND('',#776,.T.);
#776 = EDGE_LOOP('',(#777,#778,#786,#794));
#777 = ORIENTED_EDGE('',*,*,#246,.F.);
#778 = ORIENTED_EDGE('',*,*,#779,.T.);
#779 = EDGE_CURVE('',#247,#780,#782,.T.);
#780 = VERTEX_POINT('',#781);
#781 = CARTESIAN_POINT('',(6.006646381492,35.140328673018,143.90625));
#782 = LINE('',#783,#784);
#783 = CARTESIAN_POINT('',(0.,0.,143.90625));
#784 = VECTOR('',#785,1.);
#785 = DIRECTION('',(0.168489379565,0.985703469089,0.));
#786 = ORIENTED_EDGE('',*,*,#787,.T.);
#787 = EDGE_CURVE('',#780,#788,#790,.T.);
#788 = VERTEX_POINT('',#789);
#789 = CARTESIAN_POINT('',(6.006646381492,35.140328673018,146.40625));
#790 = LINE('',#791,#792);
#791 = CARTESIAN_POINT('',(6.006646381492,35.140328673018,143.90625));
#792 = VECTOR('',#793,1.);
#793 = DIRECTION('',(0.,0.,1.));
#794 = ORIENTED_EDGE('',*,*,#795,.F.);
#795 = EDGE_CURVE('',#249,#788,#796,.T.);
#796 = LINE('',#797,#798);
#797 = CARTESIAN_POINT('',(0.,0.,146.40625));
#798 = VECTOR('',#799,1.);
#799 = DIRECTION('',(0.168489379565,0.985703469089,0.));
#800 = PLANE('',#801);
#801 = AXIS2_PLACEMENT_3D('',#802,#803,#804);
#802 = CARTESIAN_POINT('',(0.,0.,143.90625));
#803 = DIRECTION('',(0.985703469089,-0.168489379565,0.));
#804 = DIRECTION('',(0.168489379565,0.985703469089,0.));
#805 = ADVANCED_FACE('',(#806),#825,.F.);
#806 = FACE_BOUND('',#807,.F.);
#807 = EDGE_LOOP('',(#808,#817,#823,#824));
#808 = ORIENTED_EDGE('',*,*,#809,.T.);
#809 = EDGE_CURVE('',#780,#810,#812,.T.);
#810 = VERTEX_POINT('',#811);
#811 = CARTESIAN_POINT('',(-7.594533270703,34.831674728617,143.90625));
#812 = CIRCLE('',#813,35.65);
#813 = AXIS2_PLACEMENT_3D('',#814,#815,#816);
#814 = CARTESIAN_POINT('',(0.,0.,143.90625));
#815 = DIRECTION('',(0.,-0.,1.));
#816 = DIRECTION('',(0.168489379565,0.985703469089,0.));
#817 = ORIENTED_EDGE('',*,*,#818,.F.);
#818 = EDGE_CURVE('',#266,#810,#819,.T.);
#819 = LINE('',#820,#821);
#820 = CARTESIAN_POINT('',(0.,0.,143.90625));
#821 = VECTOR('',#822,1.);
#822 = DIRECTION('',(-0.213030386275,0.977045574435,0.));
#823 = ORIENTED_EDGE('',*,*,#273,.F.);
#824 = ORIENTED_EDGE('',*,*,#779,.T.);
#825 = PLANE('',#826);
#826 = AXIS2_PLACEMENT_3D('',#827,#828,#829);
#827 = CARTESIAN_POINT('',(0.,0.,143.90625));
#828 = DIRECTION('',(0.,0.,1.));
#829 = DIRECTION('',(0.168489379565,0.985703469089,0.));
#830 = ADVANCED_FACE('',(#831),#850,.T.);
#831 = FACE_BOUND('',#832,.T.);
#832 = EDGE_LOOP('',(#833,#842,#848,#849));
#833 = ORIENTED_EDGE('',*,*,#834,.T.);
#834 = EDGE_CURVE('',#788,#835,#837,.T.);
#835 = VERTEX_POINT('',#836);
#836 = CARTESIAN_POINT('',(-7.594533270703,34.831674728617,146.40625));
#837 = CIRCLE('',#838,35.65);
#838 = AXIS2_PLACEMENT_3D('',#839,#840,#841);
#839 = CARTESIAN_POINT('',(0.,0.,146.40625));
#840 = DIRECTION('',(0.,-0.,1.));
#841 = DIRECTION('',(0.168489379565,0.985703469089,0.));
#842 = ORIENTED_EDGE('',*,*,#843,.F.);
#843 = EDGE_CURVE('',#257,#835,#844,.T.);
#844 = LINE('',#845,#846);
#845 = CARTESIAN_POINT('',(0.,0.,146.40625));
#846 = VECTOR('',#847,1.);
#847 = DIRECTION('',(-0.213030386275,0.977045574435,0.));
#848 = ORIENTED_EDGE('',*,*,#256,.F.);
#849 = ORIENTED_EDGE('',*,*,#795,.T.);
#850 = PLANE('',#851);
#851 = AXIS2_PLACEMENT_3D('',#852,#853,#854);
#852 = CARTESIAN_POINT('',(0.,0.,146.40625));
#853 = DIRECTION('',(0.,0.,1.));
#854 = DIRECTION('',(0.168489379565,0.985703469089,0.));
#855 = ADVANCED_FACE('',(#856),#867,.F.);
#856 = FACE_BOUND('',#857,.F.);
#857 = EDGE_LOOP('',(#858,#859,#860,#861));
#858 = ORIENTED_EDGE('',*,*,#843,.F.);
#859 = ORIENTED_EDGE('',*,*,#265,.F.);
#860 = ORIENTED_EDGE('',*,*,#818,.T.);
#861 = ORIENTED_EDGE('',*,*,#862,.T.);
#862 = EDGE_CURVE('',#810,#835,#863,.T.);
#863 = LINE('',#864,#865);
#864 = CARTESIAN_POINT('',(-7.594533270703,34.831674728617,143.90625));
#865 = VECTOR('',#866,1.);
#866 = DIRECTION('',(0.,0.,1.));
#867 = PLANE('',#868);
#868 = AXIS2_PLACEMENT_3D('',#869,#870,#871);
#869 = CARTESIAN_POINT('',(0.,0.,143.90625));
#870 = DIRECTION('',(0.977045574435,0.213030386275,0.));
#871 = DIRECTION('',(-0.213030386275,0.977045574435,0.));
#872 = ADVANCED_FACE('',(#873),#898,.T.);
#873 = FACE_BOUND('',#874,.T.);
#874 = EDGE_LOOP('',(#875,#876,#884,#892));
#875 = ORIENTED_EDGE('',*,*,#282,.F.);
#876 = ORIENTED_EDGE('',*,*,#877,.T.);
#877 = EDGE_CURVE('',#283,#878,#880,.T.);
#878 = VERTEX_POINT('',#879);
#879 = CARTESIAN_POINT('',(-33.43574051891,-12.36825597858,143.90625));
#880 = LINE('',#881,#882);
#881 = CARTESIAN_POINT('',(0.,0.,143.90625));
#882 = VECTOR('',#883,1.);
#883 = DIRECTION('',(-0.937888934612,-0.346935651573,0.));
#884 = ORIENTED_EDGE('',*,*,#885,.T.);
#885 = EDGE_CURVE('',#878,#886,#888,.T.);
#886 = VERTEX_POINT('',#887);
#887 = CARTESIAN_POINT('',(-33.43574051891,-12.36825597858,146.40625));
#888 = LINE('',#889,#890);
#889 = CARTESIAN_POINT('',(-33.43574051891,-12.36825597858,143.90625));
#890 = VECTOR('',#891,1.);
#891 = DIRECTION('',(0.,0.,1.));
#892 = ORIENTED_EDGE('',*,*,#893,.F.);
#893 = EDGE_CURVE('',#285,#886,#894,.T.);
#894 = LINE('',#895,#896);
#895 = CARTESIAN_POINT('',(0.,0.,146.40625));
#896 = VECTOR('',#897,1.);
#897 = DIRECTION('',(-0.937888934612,-0.346935651573,0.));
#898 = PLANE('',#899);
#899 = AXIS2_PLACEMENT_3D('',#900,#901,#902);
#900 = CARTESIAN_POINT('',(0.,0.,143.90625));
#901 = DIRECTION('',(-0.346935651573,0.937888934612,0.));
#902 = DIRECTION('',(-0.937888934612,-0.346935651573,0.));
#903 = ADVANCED_FACE('',(#904),#923,.F.);
#904 = FACE_BOUND('',#905,.F.);
#905 = EDGE_LOOP('',(#906,#915,#921,#922));
#906 = ORIENTED_EDGE('',*,*,#907,.T.);
#907 = EDGE_CURVE('',#878,#908,#910,.T.);
#908 = VERTEX_POINT('',#909);
#909 = CARTESIAN_POINT('',(-26.36784853598,-23.99289610662,143.90625));
#910 = CIRCLE('',#911,35.65);
#911 = AXIS2_PLACEMENT_3D('',#912,#913,#914);
#912 = CARTESIAN_POINT('',(0.,0.,143.90625));
#913 = DIRECTION('',(0.,0.,1.));
#914 = DIRECTION('',(-0.937888934612,-0.346935651573,0.));
#915 = ORIENTED_EDGE('',*,*,#916,.F.);
#916 = EDGE_CURVE('',#302,#908,#917,.T.);
#917 = LINE('',#918,#919);
#918 = CARTESIAN_POINT('',(0.,0.,143.90625));
#919 = VECTOR('',#920,1.);
#920 = DIRECTION('',(-0.739631094979,-0.67301251351,0.));
#921 = ORIENTED_EDGE('',*,*,#309,.F.);
#922 = ORIENTED_EDGE('',*,*,#877,.T.);
#923 = PLANE('',#924);
#924 = AXIS2_PLACEMENT_3D('',#925,#926,#927);
#925 = CARTESIAN_POINT('',(0.,0.,143.90625));
#926 = DIRECTION('',(0.,0.,1.));
#927 = DIRECTION('',(-0.937888934612,-0.346935651573,0.));
#928 = ADVANCED_FACE('',(#929),#948,.T.);
#929 = FACE_BOUND('',#930,.T.);
#930 = EDGE_LOOP('',(#931,#940,#946,#947));
#931 = ORIENTED_EDGE('',*,*,#932,.T.);
#932 = EDGE_CURVE('',#886,#933,#935,.T.);
#933 = VERTEX_POINT('',#934);
#934 = CARTESIAN_POINT('',(-26.36784853598,-23.99289610662,146.40625));
#935 = CIRCLE('',#936,35.65);
#936 = AXIS2_PLACEMENT_3D('',#937,#938,#939);
#937 = CARTESIAN_POINT('',(0.,0.,146.40625));
#938 = DIRECTION('',(0.,0.,1.));
#939 = DIRECTION('',(-0.937888934612,-0.346935651573,0.));
#940 = ORIENTED_EDGE('',*,*,#941,.F.);
#941 = EDGE_CURVE('',#293,#933,#942,.T.);
#942 = LINE('',#943,#944);
#943 = CARTESIAN_POINT('',(0.,0.,146.40625));
#944 = VECTOR('',#945,1.);
#945 = DIRECTION('',(-0.739631094979,-0.67301251351,0.));
#946 = ORIENTED_EDGE('',*,*,#292,.F.);
#947 = ORIENTED_EDGE('',*,*,#893,.T.);
#948 = PLANE('',#949);
#949 = AXIS2_PLACEMENT_3D('',#950,#951,#952);
#950 = CARTESIAN_POINT('',(0.,0.,146.40625));
#951 = DIRECTION('',(0.,0.,1.));
#952 = DIRECTION('',(-0.937888934612,-0.346935651573,0.));
#953 = ADVANCED_FACE('',(#954),#965,.F.);
#954 = FACE_BOUND('',#955,.F.);
#955 = EDGE_LOOP('',(#956,#957,#958,#959));
#956 = ORIENTED_EDGE('',*,*,#941,.F.);
#957 = ORIENTED_EDGE('',*,*,#301,.F.);
#958 = ORIENTED_EDGE('',*,*,#916,.T.);
#959 = ORIENTED_EDGE('',*,*,#960,.T.);
#960 = EDGE_CURVE('',#908,#933,#961,.T.);
#961 = LINE('',#962,#963);
#962 = CARTESIAN_POINT('',(-26.36784853598,-23.99289610662,143.90625));
#963 = VECTOR('',#964,1.);
#964 = DIRECTION('',(0.,0.,1.));
#965 = PLANE('',#966);
#966 = AXIS2_PLACEMENT_3D('',#967,#968,#969);
#967 = CARTESIAN_POINT('',(0.,0.,143.90625));
#968 = DIRECTION('',(-0.67301251351,0.739631094979,0.));
#969 = DIRECTION('',(-0.739631094979,-0.67301251351,0.));
#970 = ADVANCED_FACE('',(#971),#996,.T.);
#971 = FACE_BOUND('',#972,.T.);
#972 = EDGE_LOOP('',(#973,#974,#982,#990));
#973 = ORIENTED_EDGE('',*,*,#318,.F.);
#974 = ORIENTED_EDGE('',*,*,#975,.T.);
#975 = EDGE_CURVE('',#319,#976,#978,.T.);
#976 = VERTEX_POINT('',#977);
#977 = CARTESIAN_POINT('',(27.429094137422,-22.77207269443,143.90625));
#978 = LINE('',#979,#980);
#979 = CARTESIAN_POINT('',(0.,0.,143.90625));
#980 = VECTOR('',#981,1.);
#981 = DIRECTION('',(0.769399555047,-0.638767817516,0.));
#982 = ORIENTED_EDGE('',*,*,#983,.T.);
#983 = EDGE_CURVE('',#976,#984,#986,.T.);
#984 = VERTEX_POINT('',#985);
#985 = CARTESIAN_POINT('',(27.429094137422,-22.77207269443,146.40625));
#986 = LINE('',#987,#988);
#987 = CARTESIAN_POINT('',(27.429094137422,-22.77207269443,143.90625));
#988 = VECTOR('',#989,1.);
#989 = DIRECTION('',(0.,0.,1.));
#990 = ORIENTED_EDGE('',*,*,#991,.F.);
#991 = EDGE_CURVE('',#321,#984,#992,.T.);
#992 = LINE('',#993,#994);
#993 = CARTESIAN_POINT('',(0.,0.,146.40625));
#994 = VECTOR('',#995,1.);
#995 = DIRECTION('',(0.769399555047,-0.638767817516,0.));
#996 = PLANE('',#997);
#997 = AXIS2_PLACEMENT_3D('',#998,#999,#1000);
#998 = CARTESIAN_POINT('',(0.,0.,143.90625));
#999 = DIRECTION('',(-0.638767817516,-0.769399555047,0.));
#1000 = DIRECTION('',(0.769399555047,-0.638767817516,0.));
#1001 = ADVANCED_FACE('',(#1002),#1021,.F.);
#1002 = FACE_BOUND('',#1003,.F.);
#1003 = EDGE_LOOP('',(#1004,#1013,#1019,#1020));
#1004 = ORIENTED_EDGE('',*,*,#1005,.T.);
#1005 = EDGE_CURVE('',#976,#1006,#1008,.T.);
#1006 = VERTEX_POINT('',#1007);
#1007 = CARTESIAN_POINT('',(33.96238180669,-10.83877862199,143.90625));
#1008 = CIRCLE('',#1009,35.65);
#1009 = AXIS2_PLACEMENT_3D('',#1010,#1011,#1012);
#1010 = CARTESIAN_POINT('',(0.,0.,143.90625));
#1011 = DIRECTION('',(-0.,0.,1.));
#1012 = DIRECTION('',(0.769399555047,-0.638767817516,0.));
#1013 = ORIENTED_EDGE('',*,*,#1014,.F.);
#1014 = EDGE_CURVE('',#338,#1006,#1015,.T.);
#1015 = LINE('',#1016,#1017);
#1016 = CARTESIAN_POINT('',(0.,0.,143.90625));
#1017 = VECTOR('',#1018,1.);
#1018 = DIRECTION('',(0.952661481254,-0.304033060925,0.));
#1019 = ORIENTED_EDGE('',*,*,#345,.F.);
#1020 = ORIENTED_EDGE('',*,*,#975,.T.);
#1021 = PLANE('',#1022);
#1022 = AXIS2_PLACEMENT_3D('',#1023,#1024,#1025);
#1023 = CARTESIAN_POINT('',(0.,0.,143.90625));
#1024 = DIRECTION('',(0.,0.,1.));
#1025 = DIRECTION('',(0.769399555047,-0.638767817516,0.));
#1026 = ADVANCED_FACE('',(#1027),#1046,.T.);
#1027 = FACE_BOUND('',#1028,.T.);
#1028 = EDGE_LOOP('',(#1029,#1038,#1044,#1045));
#1029 = ORIENTED_EDGE('',*,*,#1030,.T.);
#1030 = EDGE_CURVE('',#984,#1031,#1033,.T.);
#1031 = VERTEX_POINT('',#1032);
#1032 = CARTESIAN_POINT('',(33.96238180669,-10.83877862199,146.40625));
#1033 = CIRCLE('',#1034,35.65);
#1034 = AXIS2_PLACEMENT_3D('',#1035,#1036,#1037);
#1035 = CARTESIAN_POINT('',(0.,0.,146.40625));
#1036 = DIRECTION('',(-0.,0.,1.));
#1037 = DIRECTION('',(0.769399555047,-0.638767817516,0.));
#1038 = ORIENTED_EDGE('',*,*,#1039,.F.);
#1039 = EDGE_CURVE('',#329,#1031,#1040,.T.);
#1040 = LINE('',#1041,#1042);
#1041 = CARTESIAN_POINT('',(0.,0.,146.40625));
#1042 = VECTOR('',#1043,1.);
#1043 = DIRECTION('',(0.952661481254,-0.304033060925,0.));
#1044 = ORIENTED_EDGE('',*,*,#328,.F.);
#1045 = ORIENTED_EDGE('',*,*,#991,.T.);
#1046 = PLANE('',#1047);
#1047 = AXIS2_PLACEMENT_3D('',#1048,#1049,#1050);
#1048 = CARTESIAN_POINT('',(0.,0.,146.40625));
#1049 = DIRECTION('',(0.,0.,1.));
#1050 = DIRECTION('',(0.769399555047,-0.638767817516,0.));
#1051 = ADVANCED_FACE('',(#1052),#1063,.F.);
#1052 = FACE_BOUND('',#1053,.F.);
#1053 = EDGE_LOOP('',(#1054,#1055,#1056,#1057));
#1054 = ORIENTED_EDGE('',*,*,#1039,.F.);
#1055 = ORIENTED_EDGE('',*,*,#337,.F.);
#1056 = ORIENTED_EDGE('',*,*,#1014,.T.);
#1057 = ORIENTED_EDGE('',*,*,#1058,.T.);
#1058 = EDGE_CURVE('',#1006,#1031,#1059,.T.);
#1059 = LINE('',#1060,#1061);
#1060 = CARTESIAN_POINT('',(33.96238180669,-10.83877862199,143.90625));
#1061 = VECTOR('',#1062,1.);
#1062 = DIRECTION('',(0.,0.,1.));
#1063 = PLANE('',#1064);
#1064 = AXIS2_PLACEMENT_3D('',#1065,#1066,#1067);
#1065 = CARTESIAN_POINT('',(0.,0.,143.90625));
#1066 = DIRECTION('',(-0.304033060925,-0.952661481254,0.));
#1067 = DIRECTION('',(0.952661481254,-0.304033060925,0.));
#1068 = ADVANCED_FACE('',(#1069),#1088,.F.);
#1069 = FACE_BOUND('',#1070,.F.);
#1070 = EDGE_LOOP('',(#1071,#1079,#1086,#1087));
#1071 = ORIENTED_EDGE('',*,*,#1072,.T.);
#1072 = EDGE_CURVE('',#355,#1073,#1075,.T.);
#1073 = VERTEX_POINT('',#1074);
#1074 = CARTESIAN_POINT('',(-24.83531445051,-4.450803988484,146.90625));
#1075 = LINE('',#1076,#1077);
#1076 = CARTESIAN_POINT('',(-40.71754650651,-8.117506174289,146.90625));
#1077 = VECTOR('',#1078,1.);
#1078 = DIRECTION('',(0.974370064785,0.224951054344,0.));
#1079 = ORIENTED_EDGE('',*,*,#1080,.F.);
#1080 = EDGE_CURVE('',#1073,#1073,#1081,.T.);
#1081 = CIRCLE('',#1082,1.25);
#1082 = AXIS2_PLACEMENT_3D('',#1083,#1084,#1085);
#1083 = CARTESIAN_POINT('',(-24.55412563258,-5.668766569465,146.90625));
#1084 = DIRECTION('',(0.974370064785,0.224951054344,-0.));
#1085 = DIRECTION('',(-0.224951054344,0.974370064785,0.));
#1086 = ORIENTED_EDGE('',*,*,#1072,.F.);
#1087 = ORIENTED_EDGE('',*,*,#354,.T.);
#1088 = CYLINDRICAL_SURFACE('',#1089,1.25);
#1089 = AXIS2_PLACEMENT_3D('',#1090,#1091,#1092);
#1090 = CARTESIAN_POINT('',(-40.43635768858,-9.33546875527,146.90625));
#1091 = DIRECTION('',(0.974370064785,0.224951054344,0.));
#1092 = DIRECTION('',(-0.224951054344,0.974370064785,0.));
#1093 = ADVANCED_FACE('',(#1094),#1113,.F.);
#1094 = FACE_BOUND('',#1095,.F.);
#1095 = EDGE_LOOP('',(#1096,#1097,#1105,#1112));
#1096 = ORIENTED_EDGE('',*,*,#414,.F.);
#1097 = ORIENTED_EDGE('',*,*,#1098,.F.);
#1098 = EDGE_CURVE('',#1099,#415,#1101,.T.);
#1099 = VERTEX_POINT('',#1100);
#1100 = CARTESIAN_POINT('',(-10.06813787033,-6.65,151.90625));
#1101 = LINE('',#1102,#1103);
#1102 = CARTESIAN_POINT('',(-10.06813787033,-6.65,150.90625));
#1103 = VECTOR('',#1104,1.);
#1104 = DIRECTION('',(0.,0.,1.));
#1105 = ORIENTED_EDGE('',*,*,#1106,.T.);
#1106 = EDGE_CURVE('',#1099,#1099,#1107,.T.);
#1107 = CIRCLE('',#1108,1.45);
#1108 = AXIS2_PLACEMENT_3D('',#1109,#1110,#1111);
#1109 = CARTESIAN_POINT('',(-11.51813787033,-6.65,151.90625));
#1110 = DIRECTION('',(0.,0.,1.));
#1111 = DIRECTION('',(1.,0.,0.));
#1112 = ORIENTED_EDGE('',*,*,#1098,.T.);
#1113 = CYLINDRICAL_SURFACE('',#1114,1.45);
#1114 = AXIS2_PLACEMENT_3D('',#1115,#1116,#1117);
#1115 = CARTESIAN_POINT('',(-11.51813787033,-6.65,150.90625));
#1116 = DIRECTION('',(0.,0.,1.));
#1117 = DIRECTION('',(1.,0.,0.));
#1118 = ADVANCED_FACE('',(#1119),#1138,.F.);
#1119 = FACE_BOUND('',#1120,.F.);
#1120 = EDGE_LOOP('',(#1121,#1122,#1130,#1137));
#1121 = ORIENTED_EDGE('',*,*,#425,.F.);
#1122 = ORIENTED_EDGE('',*,*,#1123,.F.);
#1123 = EDGE_CURVE('',#1124,#426,#1126,.T.);
#1124 = VERTEX_POINT('',#1125);
#1125 = CARTESIAN_POINT('',(12.968137870333,-6.65,151.90625));
#1126 = LINE('',#1127,#1128);
#1127 = CARTESIAN_POINT('',(12.968137870333,-6.65,150.90625));
#1128 = VECTOR('',#1129,1.);
#1129 = DIRECTION('',(0.,0.,1.));
#1130 = ORIENTED_EDGE('',*,*,#1131,.T.);
#1131 = EDGE_CURVE('',#1124,#1124,#1132,.T.);
#1132 = CIRCLE('',#1133,1.45);
#1133 = AXIS2_PLACEMENT_3D('',#1134,#1135,#1136);
#1134 = CARTESIAN_POINT('',(11.518137870333,-6.65,151.90625));
#1135 = DIRECTION('',(0.,0.,1.));
#1136 = DIRECTION('',(1.,0.,0.));
#1137 = ORIENTED_EDGE('',*,*,#1123,.T.);
#1138 = CYLINDRICAL_SURFACE('',#1139,1.45);
#1139 = AXIS2_PLACEMENT_3D('',#1140,#1141,#1142);
#1140 = CARTESIAN_POINT('',(11.518137870333,-6.65,150.90625));
#1141 = DIRECTION('',(0.,0.,1.));
#1142 = DIRECTION('',(1.,0.,0.));
#1143 = ADVANCED_FACE('',(#1144),#1163,.F.);
#1144 = FACE_BOUND('',#1145,.F.);
#1145 = EDGE_LOOP('',(#1146,#1147,#1155,#1162));
#1146 = ORIENTED_EDGE('',*,*,#436,.F.);
#1147 = ORIENTED_EDGE('',*,*,#1148,.F.);
#1148 = EDGE_CURVE('',#1149,#437,#1151,.T.);
#1149 = VERTEX_POINT('',#1150);
#1150 = CARTESIAN_POINT('',(6.,-1.E-15,151.90625));
#1151 = LINE('',#1152,#1153);
#1152 = CARTESIAN_POINT('',(6.,-1.47E-15,122.90625));
#1153 = VECTOR('',#1154,1.);
#1154 = DIRECTION('',(0.,0.,1.));
#1155 = ORIENTED_EDGE('',*,*,#1156,.T.);
#1156 = EDGE_CURVE('',#1149,#1149,#1157,.T.);
#1157 = CIRCLE('',#1158,6.);
#1158 = AXIS2_PLACEMENT_3D('',#1159,#1160,#1161);
#1159 = CARTESIAN_POINT('',(0.,0.,151.90625));
#1160 = DIRECTION('',(0.,0.,1.));
#1161 = DIRECTION('',(1.,0.,0.));
#1162 = ORIENTED_EDGE('',*,*,#1148,.T.);
#1163 = CYLINDRICAL_SURFACE('',#1164,6.);
#1164 = AXIS2_PLACEMENT_3D('',#1165,#1166,#1167);
#1165 = CARTESIAN_POINT('',(0.,0.,122.90625));
#1166 = DIRECTION('',(0.,0.,1.));
#1167 = DIRECTION('',(1.,0.,0.));
#1168 = ADVANCED_FACE('',(#1169),#1188,.F.);
#1169 = FACE_BOUND('',#1170,.F.);
#1170 = EDGE_LOOP('',(#1171,#1172,#1180,#1187));
#1171 = ORIENTED_EDGE('',*,*,#447,.F.);
#1172 = ORIENTED_EDGE('',*,*,#1173,.F.);
#1173 = EDGE_CURVE('',#1174,#448,#1176,.T.);
#1174 = VERTEX_POINT('',#1175);
#1175 = CARTESIAN_POINT('',(1.45,13.3,151.90625));
#1176 = LINE('',#1177,#1178);
#1177 = CARTESIAN_POINT('',(1.45,13.3,150.90625));
#1178 = VECTOR('',#1179,1.);
#1179 = DIRECTION('',(0.,0.,1.));
#1180 = ORIENTED_EDGE('',*,*,#1181,.T.);
#1181 = EDGE_CURVE('',#1174,#1174,#1182,.T.);
#1182 = CIRCLE('',#1183,1.45);
#1183 = AXIS2_PLACEMENT_3D('',#1184,#1185,#1186);
#1184 = CARTESIAN_POINT('',(8.1E-16,13.3,151.90625));
#1185 = DIRECTION('',(0.,0.,1.));
#1186 = DIRECTION('',(1.,0.,0.));
#1187 = ORIENTED_EDGE('',*,*,#1173,.T.);
#1188 = CYLINDRICAL_SURFACE('',#1189,1.45);
#1189 = AXIS2_PLACEMENT_3D('',#1190,#1191,#1192);
#1190 = CARTESIAN_POINT('',(8.1E-16,13.3,150.90625));
#1191 = DIRECTION('',(0.,0.,1.));
#1192 = DIRECTION('',(1.,0.,0.));
#1193 = ADVANCED_FACE('',(#1194),#1213,.F.);
#1194 = FACE_BOUND('',#1195,.F.);
#1195 = EDGE_LOOP('',(#1196,#1204,#1211,#1212));
#1196 = ORIENTED_EDGE('',*,*,#1197,.T.);
#1197 = EDGE_CURVE('',#468,#1198,#1200,.T.);
#1198 = VERTEX_POINT('',#1199);
#1199 = CARTESIAN_POINT('',(30.65,-8.E-15,125.39625));
#1200 = LINE('',#1201,#1202);
#1201 = CARTESIAN_POINT('',(32.15,-7.87E-15,123.89625));
#1202 = VECTOR('',#1203,1.);
#1203 = DIRECTION('',(-0.707106781187,1.7E-16,0.707106781187));
#1204 = ORIENTED_EDGE('',*,*,#1205,.F.);
#1205 = EDGE_CURVE('',#1198,#1198,#1206,.T.);
#1206 = CIRCLE('',#1207,30.65);
#1207 = AXIS2_PLACEMENT_3D('',#1208,#1209,#1210);
#1208 = CARTESIAN_POINT('',(0.,0.,125.39625));
#1209 = DIRECTION('',(0.,0.,1.));
#1210 = DIRECTION('',(1.,0.,0.));
#1211 = ORIENTED_EDGE('',*,*,#1197,.F.);
#1212 = ORIENTED_EDGE('',*,*,#467,.T.);
#1213 = CONICAL_SURFACE('',#1214,32.15,0.785398163397);
#1214 = AXIS2_PLACEMENT_3D('',#1215,#1216,#1217);
#1215 = CARTESIAN_POINT('',(0.,0.,123.89625));
#1216 = DIRECTION('',(-0.,-0.,-1.));
#1217 = DIRECTION('',(1.,0.,0.));
#1218 = ADVANCED_FACE('',(#1219,#1238,#1244,#1250,#1256),#1328,.F.);
#1219 = FACE_BOUND('',#1220,.F.);
#1220 = EDGE_LOOP('',(#1221,#1229,#1230,#1231));
#1221 = ORIENTED_EDGE('',*,*,#1222,.F.);
#1222 = EDGE_CURVE('',#1198,#1223,#1225,.T.);
#1223 = VERTEX_POINT('',#1224);
#1224 = CARTESIAN_POINT('',(30.65,-8.E-15,151.90625));
#1225 = LINE('',#1226,#1227);
#1226 = CARTESIAN_POINT('',(30.65,-7.51E-15,122.90625));
#1227 = VECTOR('',#1228,1.);
#1228 = DIRECTION('',(0.,0.,1.));
#1229 = ORIENTED_EDGE('',*,*,#1205,.T.);
#1230 = ORIENTED_EDGE('',*,*,#1222,.T.);
#1231 = ORIENTED_EDGE('',*,*,#1232,.F.);
#1232 = EDGE_CURVE('',#1223,#1223,#1233,.T.);
#1233 = CIRCLE('',#1234,30.65);
#1234 = AXIS2_PLACEMENT_3D('',#1235,#1236,#1237);
#1235 = CARTESIAN_POINT('',(0.,0.,151.90625));
#1236 = DIRECTION('',(0.,0.,1.));
#1237 = DIRECTION('',(1.,0.,0.));
#1238 = FACE_BOUND('',#1239,.F.);
#1239 = EDGE_LOOP('',(#1240,#1241,#1242,#1243));
#1240 = ORIENTED_EDGE('',*,*,#484,.T.);
#1241 = ORIENTED_EDGE('',*,*,#549,.T.);
#1242 = ORIENTED_EDGE('',*,*,#566,.F.);
#1243 = ORIENTED_EDGE('',*,*,#524,.F.);
#1244 = FACE_BOUND('',#1245,.F.);
#1245 = EDGE_LOOP('',(#1246,#1247,#1248,#1249));
#1246 = ORIENTED_EDGE('',*,*,#582,.T.);
#1247 = ORIENTED_EDGE('',*,*,#647,.T.);
#1248 = ORIENTED_EDGE('',*,*,#664,.F.);
#1249 = ORIENTED_EDGE('',*,*,#622,.F.);
#1250 = FACE_BOUND('',#1251,.F.);
#1251 = EDGE_LOOP('',(#1252,#1253,#1254,#1255));
#1252 = ORIENTED_EDGE('',*,*,#680,.T.);
#1253 = ORIENTED_EDGE('',*,*,#762,.T.);
#1254 = ORIENTED_EDGE('',*,*,#744,.F.);
#1255 = ORIENTED_EDGE('',*,*,#720,.F.);
#1256 = FACE_BOUND('',#1257,.F.);
#1257 = EDGE_LOOP('',(#1258));
#1258 = ORIENTED_EDGE('',*,*,#1259,.T.);
#1259 = EDGE_CURVE('',#1260,#1260,#1262,.T.);
#1260 = VERTEX_POINT('',#1261);
#1261 = CARTESIAN_POINT('',(-30.45641717377,-3.439353563799,146.90625));
#1262 = B_SPLINE_CURVE_WITH_KNOTS('',8,(#1263,#1264,#1265,#1266,#1267,
    #1268,#1269,#1270,#1271,#1272,#1273,#1274,#1275,#1276,#1277,#1278,
    #1279,#1280,#1281,#1282,#1283,#1284,#1285,#1286,#1287,#1288,#1289,
    #1290,#1291,#1292,#1293,#1294,#1295,#1296,#1297,#1298,#1299,#1300,
    #1301,#1302,#1303,#1304,#1305,#1306,#1307,#1308,#1309,#1310,#1311,
    #1312,#1313,#1314,#1315,#1316,#1317,#1318,#1319,#1320,#1321,#1322,
    #1323,#1324,#1325,#1326,#1327),.UNSPECIFIED.,.T.,.F.,(9,7,7,7,7,7,7,
    7,7,9),(0.,0.104226448604,0.201082144157,0.278621636572,
    0.371351961335,0.481598130855,0.594623066074,0.692899054956,
    0.828006064129,1.),.UNSPECIFIED.);
#1263 = CARTESIAN_POINT('',(-30.45641717377,-3.439353563799,146.90625));
#1264 = CARTESIAN_POINT('',(-30.45641717377,-3.439353563799,
    147.15507106001));
#1265 = CARTESIAN_POINT('',(-30.45413381901,-3.45957407945,
    147.40377842575));
#1266 = CARTESIAN_POINT('',(-30.44957021633,-3.499984008897,
    147.65145333046));
#1267 = CARTESIAN_POINT('',(-30.44263021362,-3.560766630128,
    147.8971302762));
#1268 = CARTESIAN_POINT('',(-30.43311968551,-3.642294514935,
    148.13972443193));
#1269 = CARTESIAN_POINT('',(-30.42074117718,-3.745098673539,
    148.3779426824));
#1270 = CARTESIAN_POINT('',(-30.40508190642,-3.869831929879,
    148.61017832794));
#1271 = CARTESIAN_POINT('',(-30.36748641995,-4.15419757929,
    149.04274463688));
#1272 = CARTESIAN_POINT('',(-30.34600507291,-4.31124787719,
    149.24494557478));
#1273 = CARTESIAN_POINT('',(-30.32070843364,-4.488927638012,
    149.4388147158));
#1274 = CARTESIAN_POINT('',(-30.29108141253,-4.687619050316,
    149.62186432036));
#1275 = CARTESIAN_POINT('',(-30.25654005941,-4.907491015078,
    149.79126902726));
#1276 = CARTESIAN_POINT('',(-30.2164433984,-5.148426827862,
    149.94381747731));
#1277 = CARTESIAN_POINT('',(-30.17013551954,-5.409916515712,
    150.07583533248));
#1278 = CARTESIAN_POINT('',(-30.0745333419,-5.915856138177,
    150.26892224306));
#1279 = CARTESIAN_POINT('',(-30.02761468441,-6.15362917556,
    150.33901466926));
#1280 = CARTESIAN_POINT('',(-29.97648073641,-6.401033298628,
    150.39004750994));
#1281 = CARTESIAN_POINT('',(-29.92152448785,-6.654446735277,
    150.41978443791));
#1282 = CARTESIAN_POINT('',(-29.86338428489,-6.910012075785,
    150.42705471469));
#1283 = CARTESIAN_POINT('',(-29.80294463888,-7.163823352486,
    150.41175877294));
#1284 = CARTESIAN_POINT('',(-29.74128869879,-7.412105420059,
    150.37487928145));
#1285 = CARTESIAN_POINT('',(-29.60583105356,-7.937543457239,
    150.25107033556));
#1286 = CARTESIAN_POINT('',(-29.53271951406,-8.208097482547,
    150.15639466659));
#1287 = CARTESIAN_POINT('',(-29.46133909762,-8.461254321901,
    150.03808579514));
#1288 = CARTESIAN_POINT('',(-29.39269858378,-8.6957733151,
    149.89959258505));
#1289 = CARTESIAN_POINT('',(-29.32769112467,-8.910867408527,
    149.744243449));
#1290 = CARTESIAN_POINT('',(-29.26705356367,-9.106138045485,
    149.57527557198));
#1291 = CARTESIAN_POINT('',(-29.21133815028,-9.281544070571,
    149.39584756383));
#1292 = CARTESIAN_POINT('',(-29.10092725014,-9.622705753088,
    148.98693656708));
#1293 = CARTESIAN_POINT('',(-29.04790132603,-9.781958343402,
    148.7525089394));
#1294 = CARTESIAN_POINT('',(-29.00216185642,-9.91632532278,
    148.50886565442));
#1295 = CARTESIAN_POINT('',(-28.96389141359,-10.02690040679,
    148.25838592513));
#1296 = CARTESIAN_POINT('',(-28.93316846838,-10.11462460682,
    148.00291263296));
#1297 = CARTESIAN_POINT('',(-28.91001906985,-10.18022391785,
    147.74390882947));
#1298 = CARTESIAN_POINT('',(-28.89445683513,-10.22415913835,
    147.4825823474));
#1299 = CARTESIAN_POINT('',(-28.87835108311,-10.26956345176,
    146.95077408764));
#1300 = CARTESIAN_POINT('',(-28.87820549582,-10.2699075536,
    146.68054019595));
#1301 = CARTESIAN_POINT('',(-28.88606271254,-10.24785290181,
    146.41050628063));
#1302 = CARTESIAN_POINT('',(-28.90191976183,-10.20331800044,
    146.14186902025));
#1303 = CARTESIAN_POINT('',(-28.92577185508,-10.13592958207,
    145.87591414802));
#1304 = CARTESIAN_POINT('',(-28.95759292495,-10.04504972628,
    145.61414110585));
#1305 = CARTESIAN_POINT('',(-28.99730266966,-9.929802723489,
    145.35840765916));
#1306 = CARTESIAN_POINT('',(-29.08595441228,-9.666768969786,
    144.89606895115));
#1307 = CARTESIAN_POINT('',(-29.13313076141,-9.524848719498,
    144.68680612675));
#1308 = CARTESIAN_POINT('',(-29.18613469692,-9.362613463062,
    144.48524763478));
#1309 = CARTESIAN_POINT('',(-29.24473330642,-9.179378290995,
    144.29367517271));
#1310 = CARTESIAN_POINT('',(-29.30855345064,-8.974555977415,
    144.11475656173));
#1311 = CARTESIAN_POINT('',(-29.37704913759,-8.747735065342,
    143.9516066903));
#1312 = CARTESIAN_POINT('',(-29.44947870495,-8.498803199448,
    143.80787995986));
#1313 = CARTESIAN_POINT('',(-29.6286109302,-7.856025265621,
    143.52296163441));
#1314 = CARTESIAN_POINT('',(-29.73793340641,-7.443019177909,
    143.40298916431));
#1315 = CARTESIAN_POINT('',(-29.84702478434,-7.002432275021,
    143.3446051849));
#1316 = CARTESIAN_POINT('',(-29.94982083024,-6.551523765655,
    143.35606851719));
#1317 = CARTESIAN_POINT('',(-30.04168717759,-6.109298626205,
    143.43753562926));
#1318 = CARTESIAN_POINT('',(-30.12056307898,-5.694481344631,
    143.58128066546));
#1319 = CARTESIAN_POINT('',(-30.18612852886,-5.322142003146,
    143.77172039679));
#1320 = CARTESIAN_POINT('',(-30.30636854167,-4.595298628026,
    144.25706295282));
#1321 = CARTESIAN_POINT('',(-30.35647663904,-4.253502495727,
    144.57959014059));
#1322 = CARTESIAN_POINT('',(-30.39323657313,-3.975686879195,
    144.93507226256));
#1323 = CARTESIAN_POINT('',(-30.41985418402,-3.758489997133,
    145.31192131286));
#1324 = CARTESIAN_POINT('',(-30.43845627369,-3.598392553537,
    145.70213801138));
#1325 = CARTESIAN_POINT('',(-30.45041114214,-3.492540579135,
    146.10028789599));
#1326 = CARTESIAN_POINT('',(-30.45641717377,-3.439353563799,
    146.50270765166));
#1327 = CARTESIAN_POINT('',(-30.45641717377,-3.439353563799,146.90625));
#1328 = CYLINDRICAL_SURFACE('',#1329,30.65);
#1329 = AXIS2_PLACEMENT_3D('',#1330,#1331,#1332);
#1330 = CARTESIAN_POINT('',(0.,0.,122.90625));
#1331 = DIRECTION('',(0.,0.,1.));
#1332 = DIRECTION('',(1.,0.,0.));
#1333 = ADVANCED_FACE('',(#1334),#1340,.T.);
#1334 = FACE_BOUND('',#1335,.T.);
#1335 = EDGE_LOOP('',(#1336,#1337,#1338,#1339));
#1336 = ORIENTED_EDGE('',*,*,#834,.F.);
#1337 = ORIENTED_EDGE('',*,*,#787,.F.);
#1338 = ORIENTED_EDGE('',*,*,#809,.T.);
#1339 = ORIENTED_EDGE('',*,*,#862,.T.);
#1340 = CYLINDRICAL_SURFACE('',#1341,35.65);
#1341 = AXIS2_PLACEMENT_3D('',#1342,#1343,#1344);
#1342 = CARTESIAN_POINT('',(0.,0.,143.90625));
#1343 = DIRECTION('',(0.,0.,1.));
#1344 = DIRECTION('',(0.168489379565,0.985703469089,0.));
#1345 = ADVANCED_FACE('',(#1346),#1352,.T.);
#1346 = FACE_BOUND('',#1347,.T.);
#1347 = EDGE_LOOP('',(#1348,#1349,#1350,#1351));
#1348 = ORIENTED_EDGE('',*,*,#932,.F.);
#1349 = ORIENTED_EDGE('',*,*,#885,.F.);
#1350 = ORIENTED_EDGE('',*,*,#907,.T.);
#1351 = ORIENTED_EDGE('',*,*,#960,.T.);
#1352 = CYLINDRICAL_SURFACE('',#1353,35.65);
#1353 = AXIS2_PLACEMENT_3D('',#1354,#1355,#1356);
#1354 = CARTESIAN_POINT('',(0.,0.,143.90625));
#1355 = DIRECTION('',(0.,0.,1.));
#1356 = DIRECTION('',(-0.937888934612,-0.346935651573,0.));
#1357 = ADVANCED_FACE('',(#1358),#1364,.T.);
#1358 = FACE_BOUND('',#1359,.T.);
#1359 = EDGE_LOOP('',(#1360,#1361,#1362,#1363));
#1360 = ORIENTED_EDGE('',*,*,#1030,.F.);
#1361 = ORIENTED_EDGE('',*,*,#983,.F.);
#1362 = ORIENTED_EDGE('',*,*,#1005,.T.);
#1363 = ORIENTED_EDGE('',*,*,#1058,.T.);
#1364 = CYLINDRICAL_SURFACE('',#1365,35.65);
#1365 = AXIS2_PLACEMENT_3D('',#1366,#1367,#1368);
#1366 = CARTESIAN_POINT('',(0.,0.,143.90625));
#1367 = DIRECTION('',(0.,0.,1.));
#1368 = DIRECTION('',(0.769399555047,-0.638767817516,0.));
#1369 = ADVANCED_FACE('',(#1370),#1373,.F.);
#1370 = FACE_BOUND('',#1371,.F.);
#1371 = EDGE_LOOP('',(#1372));
#1372 = ORIENTED_EDGE('',*,*,#1080,.T.);
#1373 = PLANE('',#1374);
#1374 = AXIS2_PLACEMENT_3D('',#1375,#1376,#1377);
#1375 = CARTESIAN_POINT('',(-24.55412563258,-5.668766569465,146.90625));
#1376 = DIRECTION('',(0.974370064785,0.224951054344,0.));
#1377 = DIRECTION('',(-0.224951054344,0.974370064785,0.));
#1378 = ADVANCED_FACE('',(#1379,#1382,#1385,#1388,#1391),#1394,.F.);
#1379 = FACE_BOUND('',#1380,.F.);
#1380 = EDGE_LOOP('',(#1381));
#1381 = ORIENTED_EDGE('',*,*,#1232,.T.);
#1382 = FACE_BOUND('',#1383,.F.);
#1383 = EDGE_LOOP('',(#1384));
#1384 = ORIENTED_EDGE('',*,*,#1106,.F.);
#1385 = FACE_BOUND('',#1386,.F.);
#1386 = EDGE_LOOP('',(#1387));
#1387 = ORIENTED_EDGE('',*,*,#1131,.F.);
#1388 = FACE_BOUND('',#1389,.F.);
#1389 = EDGE_LOOP('',(#1390));
#1390 = ORIENTED_EDGE('',*,*,#1156,.F.);
#1391 = FACE_BOUND('',#1392,.F.);
#1392 = EDGE_LOOP('',(#1393));
#1393 = ORIENTED_EDGE('',*,*,#1181,.F.);
#1394 = PLANE('',#1395);
#1395 = AXIS2_PLACEMENT_3D('',#1396,#1397,#1398);
#1396 = CARTESIAN_POINT('',(0.,0.,151.90625));
#1397 = DIRECTION('',(0.,0.,1.));
#1398 = DIRECTION('',(1.,0.,0.));
#1399 = ADVANCED_FACE('',(#1400),#1419,.T.);
#1400 = FACE_BOUND('',#1401,.T.);
#1401 = EDGE_LOOP('',(#1402,#1410,#1417,#1418));
#1402 = ORIENTED_EDGE('',*,*,#1403,.T.);
#1403 = EDGE_CURVE('',#1260,#1404,#1406,.T.);
#1404 = VERTEX_POINT('',#1405);
#1405 = CARTESIAN_POINT('',(-25.00042480011,-2.179738473697,146.90625));
#1406 = LINE('',#1407,#1408);
#1407 = CARTESIAN_POINT('',(-32.308200286,-3.866871381276,146.90625));
#1408 = VECTOR('',#1409,1.);
#1409 = DIRECTION('',(0.974370064785,0.224951054344,0.));
#1410 = ORIENTED_EDGE('',*,*,#1411,.F.);
#1411 = EDGE_CURVE('',#1404,#1404,#1412,.T.);
#1412 = CIRCLE('',#1413,3.5);
#1413 = AXIS2_PLACEMENT_3D('',#1414,#1415,#1416);
#1414 = CARTESIAN_POINT('',(-24.21309610991,-5.590033700445,146.90625));
#1415 = DIRECTION('',(0.974370064785,0.224951054344,-0.));
#1416 = DIRECTION('',(-0.224951054344,0.974370064785,0.));
#1417 = ORIENTED_EDGE('',*,*,#1403,.F.);
#1418 = ORIENTED_EDGE('',*,*,#1259,.T.);
#1419 = CYLINDRICAL_SURFACE('',#1420,3.5);
#1420 = AXIS2_PLACEMENT_3D('',#1421,#1422,#1423);
#1421 = CARTESIAN_POINT('',(-31.5208715958,-7.277166608024,146.90625));
#1422 = DIRECTION('',(0.974370064785,0.224951054344,0.));
#1423 = DIRECTION('',(-0.224951054344,0.974370064785,0.));
#1424 = ADVANCED_FACE('',(#1425),#1428,.T.);
#1425 = FACE_BOUND('',#1426,.T.);
#1426 = EDGE_LOOP('',(#1427));
#1427 = ORIENTED_EDGE('',*,*,#1411,.T.);
#1428 = PLANE('',#1429);
#1429 = AXIS2_PLACEMENT_3D('',#1430,#1431,#1432);
#1430 = CARTESIAN_POINT('',(-24.21309610991,-5.590033700445,146.90625));
#1431 = DIRECTION('',(0.974370064785,0.224951054344,0.));
#1432 = DIRECTION('',(-0.224951054344,0.974370064785,0.));
#1433 = ( GEOMETRIC_REPRESENTATION_CONTEXT(3) 
GLOBAL_UNCERTAINTY_ASSIGNED_CONTEXT((#1437)) 
GLOBAL_UNIT_ASSIGNED_CONTEXT((#1434,#1435,#1436)) REPRESENTATION_CONTEXT
('Context #1','3D Context with UNIT and UNCERTAINTY') );
#1434 = ( LENGTH_UNIT() NAMED_UNIT(*) SI_UNIT(.MILLI.,.METRE.) );
#1435 = ( NAMED_UNIT(*) PLANE_ANGLE_UNIT() SI_UNIT($,.RADIAN.) );
#1436 = ( NAMED_UNIT(*) SI_UNIT($,.STERADIAN.) SOLID_ANGLE_UNIT() );
#1437 = UNCERTAINTY_MEASURE_WITH_UNIT(LENGTH_MEASURE(1.E-07),#1434,
  'distance_accuracy_value','confusion accuracy');
#1438 = PRODUCT_RELATED_PRODUCT_CATEGORY('part',$,(#7));
ENDSEC;
END-ISO-10303-21;
