ISO-10303-21;
HEADER;
FILE_DESCRIPTION(('FreeCAD Model'),'2;1');
FILE_NAME('Open CASCADE Shape Model','2026-10-02T21:53:51',('FreeCAD'),(
    'FreeCAD'),'Open CASCADE STEP processor 7.8','FreeCAD','Unknown');
FILE_SCHEMA(('AUTOMOTIVE_DESIGN { 1 0 10303 214 1 1 1 1 }'));
ENDSEC;
DATA;
#1 = APPLICATION_PROTOCOL_DEFINITION('international standard',
  'automotive_design',2000,#2);
#2 = APPLICATION_CONTEXT(
  'core data for automotive mechanical design processes');
#3 = SHAPE_DEFINITION_REPRESENTATION(#4,#10);
#4 = PRODUCT_DEFINITION_SHAPE('','',#5);
#5 = PRODUCT_DEFINITION('design','',#6,#9);
#6 = PRODUCT_DEFINITION_FORMATION('','',#7);
#7 = PRODUCT('Open CASCADE STEP translator 7.8 6',
  'Open CASCADE STEP translator 7.8 6','',(#8));
#8 = PRODUCT_CONTEXT('',#2,'mechanical');
#9 = PRODUCT_DEFINITION_CONTEXT('part definition',#2,'design');
#10 = ADVANCED_BREP_SHAPE_REPRESENTATION('',(#11,#15),#765);
#11 = AXIS2_PLACEMENT_3D('',#12,#13,#14);
#12 = CARTESIAN_POINT('',(0.,0.,0.));
#13 = DIRECTION('',(0.,0.,1.));
#14 = DIRECTION('',(1.,0.,-0.));
#15 = MANIFOLD_SOLID_BREP('',#16);
#16 = CLOSED_SHELL('',(#17,#267,#299,#323,#347,#365,#390,#422,#469,#516,
    #534,#559,#691,#711,#731,#748));
#17 = ADVANCED_FACE('',(#18,#54,#117,#199),#262,.T.);
#18 = FACE_BOUND('',#19,.T.);
#19 = EDGE_LOOP('',(#20,#31,#39,#48));
#20 = ORIENTED_EDGE('',*,*,#21,.F.);
#21 = EDGE_CURVE('',#22,#24,#26,.T.);
#22 = VERTEX_POINT('',#23);
#23 = CARTESIAN_POINT('',(36.735086872667,-14.51838119273,99.7));
#24 = VERTEX_POINT('',#25);
#25 = CARTESIAN_POINT('',(36.735086872667,14.518381192737,99.7));
#26 = CIRCLE('',#27,39.5);
#27 = AXIS2_PLACEMENT_3D('',#28,#29,#30);
#28 = CARTESIAN_POINT('',(0.,0.,99.7));
#29 = DIRECTION('',(-0.,0.,1.));
#30 = DIRECTION('',(0.930002199308,-0.367553954247,0.));
#31 = ORIENTED_EDGE('',*,*,#32,.F.);
#32 = EDGE_CURVE('',#33,#22,#35,.T.);
#33 = VERTEX_POINT('',#34);
#34 = CARTESIAN_POINT('',(36.735086872667,-14.51838119273,60.3));
#35 = LINE('',#36,#37);
#36 = CARTESIAN_POINT('',(36.735086872667,-14.51838119273,60.3));
#37 = VECTOR('',#38,1.);
#38 = DIRECTION('',(0.,0.,1.));
#39 = ORIENTED_EDGE('',*,*,#40,.T.);
#40 = EDGE_CURVE('',#33,#41,#43,.T.);
#41 = VERTEX_POINT('',#42);
#42 = CARTESIAN_POINT('',(36.735086872667,14.518381192737,60.3));
#43 = CIRCLE('',#44,39.5);
#44 = AXIS2_PLACEMENT_3D('',#45,#46,#47);
#45 = CARTESIAN_POINT('',(0.,0.,60.3));
#46 = DIRECTION('',(-0.,0.,1.));
#47 = DIRECTION('',(0.930002199308,-0.367553954247,0.));
#48 = ORIENTED_EDGE('',*,*,#49,.T.);
#49 = EDGE_CURVE('',#41,#24,#50,.T.);
#50 = LINE('',#51,#52);
#51 = CARTESIAN_POINT('',(36.735086872667,14.518381192737,60.3));
#52 = VECTOR('',#53,1.);
#53 = DIRECTION('',(0.,0.,1.));
#54 = FACE_BOUND('',#55,.T.);
#55 = EDGE_LOOP('',(#56));
#56 = ORIENTED_EDGE('',*,*,#57,.T.);
#57 = EDGE_CURVE('',#58,#58,#60,.T.);
#58 = VERTEX_POINT('',#59);
#59 = CARTESIAN_POINT('',(39.5,1.E-15,62.));
#60 = B_SPLINE_CURVE_WITH_KNOTS('',7,(#61,#62,#63,#64,#65,#66,#67,#68,
    #69,#70,#71,#72,#73,#74,#75,#76,#77,#78,#79,#80,#81,#82,#83,#84,#85,
    #86,#87,#88,#89,#90,#91,#92,#93,#94,#95,#96,#97,#98,#99,#100,#101,
    #102,#103,#104,#105,#106,#107,#108,#109,#110,#111,#112,#113,#114,
    #115,#116),.UNSPECIFIED.,.T.,.F.,(8,6,6,6,6,6,6,6,6,8),(0.,
    8.652764039761E-02,0.16925447058,0.343856781156,0.473110567656,
    0.580328233648,0.672556667075,0.779526007458,0.894135755348,1.),
  .UNSPECIFIED.);
#61 = CARTESIAN_POINT('',(39.5,1.33E-15,62.));
#62 = CARTESIAN_POINT('',(39.5,-0.259306831186,62.));
#63 = CARTESIAN_POINT('',(39.49801437575,-0.516307216278,62.0261494198)
  );
#64 = CARTESIAN_POINT('',(39.494104717376,-0.766855495611,
    62.077608177538));
#65 = CARTESIAN_POINT('',(39.48852821734,-1.007023920838,62.152483915824
    ));
#66 = CARTESIAN_POINT('',(39.48169622948,-1.233328578959,62.247885221987
    ));
#67 = CARTESIAN_POINT('',(39.474098354167,-1.442945522385,62.3599699003)
  );
#68 = CARTESIAN_POINT('',(39.458633037049,-1.816500076402,
    62.602559064151));
#69 = CARTESIAN_POINT('',(39.4507230706,-1.983714700016,62.733126173575)
  );
#70 = CARTESIAN_POINT('',(39.442755581169,-2.135686605789,
    62.873464580742));
#71 = CARTESIAN_POINT('',(39.434974736998,-2.27270681251,63.02172723455)
  );
#72 = CARTESIAN_POINT('',(39.427573714484,-2.395164265608,
    63.176383662571));
#73 = CARTESIAN_POINT('',(39.420699518193,-2.503484754761,63.33616279122
    ));
#74 = CARTESIAN_POINT('',(39.401304474751,-2.797719868019,
    63.845792956754));
#75 = CARTESIAN_POINT('',(39.390967963037,-2.936556196595,
    64.210265501124));
#76 = CARTESIAN_POINT('',(39.384490322482,-3.018555792286,
    64.584394055971));
#77 = CARTESIAN_POINT('',(39.382275171141,-3.04621335881,64.962698081324
    ));
#78 = CARTESIAN_POINT('',(39.384405895334,-3.020243668333,
    65.340601505195));
#79 = CARTESIAN_POINT('',(39.390718642619,-2.939495685592,
    65.713636262626));
#80 = CARTESIAN_POINT('',(39.407883298807,-2.69802481301,66.342689392231
    ));
#81 = CARTESIAN_POINT('',(39.417138260879,-2.563408157054,
    66.604230741479));
#82 = CARTESIAN_POINT('',(39.428093027451,-2.395536156947,
    66.856759686259));
#83 = CARTESIAN_POINT('',(39.440323653611,-2.192756470358,
    67.096239104934));
#84 = CARTESIAN_POINT('',(39.453181008426,-1.953430921051,
    67.317300282119));
#85 = CARTESIAN_POINT('',(39.465664035131,-1.676410380522,
    67.512804960231));
#86 = CARTESIAN_POINT('',(39.485511312023,-1.101140432963,
    67.805919638841));
#87 = CARTESIAN_POINT('',(39.493502857314,-0.811149320913,
    67.916276144291));
#88 = CARTESIAN_POINT('',(39.499444483142,-0.498871926587,
    67.993333795277));
#89 = CARTESIAN_POINT('',(39.502383541873,-0.173528112555,
    68.030428491149));
#90 = CARTESIAN_POINT('',(39.501897049849,0.154320671955,68.025024540606
    ));
#91 = CARTESIAN_POINT('',(39.498312857222,0.47407797945,67.978799729487)
  );
#92 = CARTESIAN_POINT('',(39.487253869883,1.036563113065,67.82808229218)
  );
#93 = CARTESIAN_POINT('',(39.480284106195,1.289374516017,67.731147476425
    ));
#94 = CARTESIAN_POINT('',(39.471726110114,1.531448809957,67.607894622941
    ));
#95 = CARTESIAN_POINT('',(39.461996630652,1.759525270795,67.459782798439
    ));
#96 = CARTESIAN_POINT('',(39.451617616416,1.970595017429,67.288760576978
    ));
#97 = CARTESIAN_POINT('',(39.44115423713,2.161982420125,67.097221244106)
  );
#98 = CARTESIAN_POINT('',(39.419514110452,2.527977482423,66.645254982368
    ));
#99 = CARTESIAN_POINT('',(39.408888595761,2.688287163936,66.387018790842
    ));
#100 = CARTESIAN_POINT('',(39.399909992898,2.814196130173,
    66.118441262876));
#101 = CARTESIAN_POINT('',(39.392965993828,2.907380627229,
    65.843091051392));
#102 = CARTESIAN_POINT('',(39.388265136239,2.969095698232,
    65.563560017401));
#103 = CARTESIAN_POINT('',(39.385911186616,3.,65.281903578695));
#104 = CARTESIAN_POINT('',(39.385911186616,3.,64.697961135708));
#105 = CARTESIAN_POINT('',(39.388613370542,2.964523644166,
    64.396266957147));
#106 = CARTESIAN_POINT('',(39.394007382237,2.893709508701,64.09716925061
    ));
#107 = CARTESIAN_POINT('',(39.401957498044,2.786672189724,63.80318435994
    ));
#108 = CARTESIAN_POINT('',(39.412191725686,2.641743192316,
    63.517592097023));
#109 = CARTESIAN_POINT('',(39.42418343841,2.456744870194,63.245061948987
    ));
#110 = CARTESIAN_POINT('',(39.448903273881,2.019469411676,
    62.759418352329));
#111 = CARTESIAN_POINT('',(39.461831504564,1.76763541146,62.536951843533
    ));
#112 = CARTESIAN_POINT('',(39.47486367372,1.474230905978,62.338714268246
    ));
#113 = CARTESIAN_POINT('',(39.48658362628,1.14301593186,62.17665328352)
  );
#114 = CARTESIAN_POINT('',(39.495368457833,0.780630435761,62.06098101917
    ));
#115 = CARTESIAN_POINT('',(39.5,0.395992688733,62.));
#116 = CARTESIAN_POINT('',(39.5,1.33E-15,62.));
#117 = FACE_BOUND('',#118,.T.);
#118 = EDGE_LOOP('',(#119,#130,#161,#170));
#119 = ORIENTED_EDGE('',*,*,#120,.F.);
#120 = EDGE_CURVE('',#121,#123,#125,.T.);
#121 = VERTEX_POINT('',#122);
#122 = CARTESIAN_POINT('',(39.385911186616,-3.,78.3));
#123 = VERTEX_POINT('',#124);
#124 = CARTESIAN_POINT('',(39.385911186616,3.,78.3));
#125 = CIRCLE('',#126,39.5);
#126 = AXIS2_PLACEMENT_3D('',#127,#128,#129);
#127 = CARTESIAN_POINT('',(0.,0.,78.3));
#128 = DIRECTION('',(-0.,0.,1.));
#129 = DIRECTION('',(0.930002199308,-0.367553954247,0.));
#130 = ORIENTED_EDGE('',*,*,#131,.F.);
#131 = EDGE_CURVE('',#132,#121,#134,.T.);
#132 = VERTEX_POINT('',#133);
#133 = CARTESIAN_POINT('',(39.385911186616,-3.,81.7));
#134 = B_SPLINE_CURVE_WITH_KNOTS('',7,(#135,#136,#137,#138,#139,#140,
    #141,#142,#143,#144,#145,#146,#147,#148,#149,#150,#151,#152,#153,
    #154,#155,#156,#157,#158,#159,#160),.UNSPECIFIED.,.F.,.F.,(8,6,6,6,8
    ),(0.,0.257526621576,0.499999999121,0.742473376667,1.),
  .UNSPECIFIED.);
#135 = CARTESIAN_POINT('',(39.385911186616,-3.,81.7));
#136 = CARTESIAN_POINT('',(39.368143368281,-3.233267238301,81.7));
#137 = CARTESIAN_POINT('',(39.349217302542,-3.460456898502,
    81.662657664006));
#138 = CARTESIAN_POINT('',(39.329809523018,-3.674644388178,
    81.591473126271));
#139 = CARTESIAN_POINT('',(39.310789874546,-3.870076421851,
    81.491304036734));
#140 = CARTESIAN_POINT('',(39.293089938711,-4.042400728084,
    81.368274823749));
#141 = CARTESIAN_POINT('',(39.277428645125,-4.189077032319,
    81.229637435244));
#142 = CARTESIAN_POINT('',(39.251685205847,-4.423607115943,
    80.946139264218));
#143 = CARTESIAN_POINT('',(39.241044524215,-4.517002894429,
    80.798966963811));
#144 = CARTESIAN_POINT('',(39.232420432287,-4.590760324433,
    80.645055882592));
#145 = CARTESIAN_POINT('',(39.225908813323,-4.645544940056,
    80.486572472144));
#146 = CARTESIAN_POINT('',(39.221556699591,-4.681861095509,
    80.325245745702));
#147 = CARTESIAN_POINT('',(39.21938296302,-4.7,80.162576985675));
#148 = CARTESIAN_POINT('',(39.21938296302,-4.7,79.837423014324));
#149 = CARTESIAN_POINT('',(39.221556699591,-4.681861095509,
    79.674754254297));
#150 = CARTESIAN_POINT('',(39.225908813323,-4.645544940055,
    79.513427527856));
#151 = CARTESIAN_POINT('',(39.232420432287,-4.590760324433,
    79.354944117408));
#152 = CARTESIAN_POINT('',(39.241044524215,-4.517002894429,
    79.20103303619));
#153 = CARTESIAN_POINT('',(39.251685205847,-4.423607115943,
    79.053860735782));
#154 = CARTESIAN_POINT('',(39.277428645215,-4.189077031495,
    78.77036256376));
#155 = CARTESIAN_POINT('',(39.293089938496,-4.04240072985,
    78.631725179039));
#156 = CARTESIAN_POINT('',(39.31078987465,-3.870076421718,
    78.508695960027));
#157 = CARTESIAN_POINT('',(39.329809523227,-3.674644384808,
    78.408526875468));
#158 = CARTESIAN_POINT('',(39.349217302241,-3.460456902558,
    78.337342335649));
#159 = CARTESIAN_POINT('',(39.368143368408,-3.233267236642,78.3));
#160 = CARTESIAN_POINT('',(39.385911186616,-3.,78.3));
#161 = ORIENTED_EDGE('',*,*,#162,.T.);
#162 = EDGE_CURVE('',#132,#163,#165,.T.);
#163 = VERTEX_POINT('',#164);
#164 = CARTESIAN_POINT('',(39.385911186616,3.,81.7));
#165 = CIRCLE('',#166,39.5);
#166 = AXIS2_PLACEMENT_3D('',#167,#168,#169);
#167 = CARTESIAN_POINT('',(0.,0.,81.7));
#168 = DIRECTION('',(-0.,0.,1.));
#169 = DIRECTION('',(0.930002199308,-0.367553954247,0.));
#170 = ORIENTED_EDGE('',*,*,#171,.F.);
#171 = EDGE_CURVE('',#123,#163,#172,.T.);
#172 = B_SPLINE_CURVE_WITH_KNOTS('',7,(#173,#174,#175,#176,#177,#178,
    #179,#180,#181,#182,#183,#184,#185,#186,#187,#188,#189,#190,#191,
    #192,#193,#194,#195,#196,#197,#198),.UNSPECIFIED.,.F.,.F.,(8,6,6,6,8
    ),(0.,0.257526617476,0.499999989509,0.742473368134,1.),
  .UNSPECIFIED.);
#173 = CARTESIAN_POINT('',(39.385911186616,3.,78.3));
#174 = CARTESIAN_POINT('',(39.368143368408,3.233267236642,78.3));
#175 = CARTESIAN_POINT('',(39.349217302241,3.460456902558,
    78.337342335649));
#176 = CARTESIAN_POINT('',(39.329809523227,3.674644384808,
    78.408526875468));
#177 = CARTESIAN_POINT('',(39.31078987465,3.870076421719,78.508695960027
    ));
#178 = CARTESIAN_POINT('',(39.293089938496,4.04240072985,78.631725179039
    ));
#179 = CARTESIAN_POINT('',(39.277428645215,4.189077031495,78.77036256376
    ));
#180 = CARTESIAN_POINT('',(39.251685205847,4.423607115944,
    79.053860735783));
#181 = CARTESIAN_POINT('',(39.241044524215,4.51700289443,79.201033036191
    ));
#182 = CARTESIAN_POINT('',(39.232420432287,4.590760324433,
    79.354944117409));
#183 = CARTESIAN_POINT('',(39.225908813323,4.645544940055,
    79.513427527856));
#184 = CARTESIAN_POINT('',(39.221556699591,4.681861095508,
    79.674754254296));
#185 = CARTESIAN_POINT('',(39.21938296302,4.7,79.837423014323));
#186 = CARTESIAN_POINT('',(39.21938296302,4.7,80.162576990098));
#187 = CARTESIAN_POINT('',(39.221556699702,4.681861094449,
    80.325245734907));
#188 = CARTESIAN_POINT('',(39.225908812776,4.645544945103,
    80.486572479883));
#189 = CARTESIAN_POINT('',(39.232420433332,4.590760314915,
    80.645055886657));
#190 = CARTESIAN_POINT('',(39.241044523272,4.517002902992,
    80.798966954982));
#191 = CARTESIAN_POINT('',(39.251685206205,4.423607112682,
    80.946139268161));
#192 = CARTESIAN_POINT('',(39.277428645215,4.189077031495,81.22963743624
    ));
#193 = CARTESIAN_POINT('',(39.293089938496,4.04240072985,81.36827482096)
  );
#194 = CARTESIAN_POINT('',(39.31078987465,3.870076421718,81.491304039974
    ));
#195 = CARTESIAN_POINT('',(39.329809523227,3.674644384808,
    81.591473124531));
#196 = CARTESIAN_POINT('',(39.349217302241,3.460456902558,
    81.662657664351));
#197 = CARTESIAN_POINT('',(39.368143368408,3.233267236642,81.7));
#198 = CARTESIAN_POINT('',(39.385911186616,3.,81.7));
#199 = FACE_BOUND('',#200,.T.);
#200 = EDGE_LOOP('',(#201));
#201 = ORIENTED_EDGE('',*,*,#202,.T.);
#202 = EDGE_CURVE('',#203,#203,#205,.T.);
#203 = VERTEX_POINT('',#204);
#204 = CARTESIAN_POINT('',(39.5,1.E-15,92.));
#205 = B_SPLINE_CURVE_WITH_KNOTS('',7,(#206,#207,#208,#209,#210,#211,
    #212,#213,#214,#215,#216,#217,#218,#219,#220,#221,#222,#223,#224,
    #225,#226,#227,#228,#229,#230,#231,#232,#233,#234,#235,#236,#237,
    #238,#239,#240,#241,#242,#243,#244,#245,#246,#247,#248,#249,#250,
    #251,#252,#253,#254,#255,#256,#257,#258,#259,#260,#261),
  .UNSPECIFIED.,.T.,.F.,(8,6,6,6,6,6,6,6,6,8),(0.,8.652764174209E-02,
    0.169254473089,0.343856786126,0.473110574446,0.580328241948,
    0.672556676674,0.779526015501,0.894135758488,1.),.UNSPECIFIED.);
#206 = CARTESIAN_POINT('',(39.5,1.33E-15,92.));
#207 = CARTESIAN_POINT('',(39.5,-0.259306830865,92.));
#208 = CARTESIAN_POINT('',(39.498014375756,-0.516307216238,
    92.026149419736));
#209 = CARTESIAN_POINT('',(39.494104717374,-0.766855495858,
    92.077608177559));
#210 = CARTESIAN_POINT('',(39.488528217331,-1.00702392108,
    92.152483915948));
#211 = CARTESIAN_POINT('',(39.481696229478,-1.233328578926,
    92.247885222035));
#212 = CARTESIAN_POINT('',(39.474098354179,-1.442945522108,
    92.35996990012));
#213 = CARTESIAN_POINT('',(39.458633037049,-1.816500076402,
    92.602559064151));
#214 = CARTESIAN_POINT('',(39.4507230706,-1.983714700016,92.733126173575
    ));
#215 = CARTESIAN_POINT('',(39.442755581169,-2.135686605789,
    92.873464580742));
#216 = CARTESIAN_POINT('',(39.434974736998,-2.27270681251,93.02172723455
    ));
#217 = CARTESIAN_POINT('',(39.427573714484,-2.395164265608,
    93.176383662571));
#218 = CARTESIAN_POINT('',(39.420699518193,-2.503484754761,
    93.33616279122));
#219 = CARTESIAN_POINT('',(39.401304474751,-2.797719868019,
    93.845792956753));
#220 = CARTESIAN_POINT('',(39.390967963037,-2.936556196596,
    94.210265501125));
#221 = CARTESIAN_POINT('',(39.384490322482,-3.018555792286,
    94.58439405597));
#222 = CARTESIAN_POINT('',(39.382275171141,-3.04621335881,
    94.962698081325));
#223 = CARTESIAN_POINT('',(39.384405895334,-3.020243668333,
    95.340601505195));
#224 = CARTESIAN_POINT('',(39.390718642619,-2.939495685592,
    95.713636262626));
#225 = CARTESIAN_POINT('',(39.407883298807,-2.69802481301,
    96.342689392231));
#226 = CARTESIAN_POINT('',(39.417138260879,-2.563408157054,
    96.60423074148));
#227 = CARTESIAN_POINT('',(39.428093027451,-2.395536156948,
    96.856759686258));
#228 = CARTESIAN_POINT('',(39.440323653611,-2.192756470358,
    97.096239104935));
#229 = CARTESIAN_POINT('',(39.453181008426,-1.953430921051,
    97.317300282118));
#230 = CARTESIAN_POINT('',(39.465664035131,-1.676410380522,
    97.512804960231));
#231 = CARTESIAN_POINT('',(39.485511312023,-1.101140432963,
    97.805919638841));
#232 = CARTESIAN_POINT('',(39.493502857314,-0.811149320913,
    97.916276144291));
#233 = CARTESIAN_POINT('',(39.499444483142,-0.498871926586,
    97.993333795276));
#234 = CARTESIAN_POINT('',(39.502383541873,-0.173528112556,
    98.030428491149));
#235 = CARTESIAN_POINT('',(39.501897049849,0.154320671956,
    98.025024540606));
#236 = CARTESIAN_POINT('',(39.498312857222,0.474077979449,
    97.978799729487));
#237 = CARTESIAN_POINT('',(39.487253869883,1.036563113065,
    97.828082292181));
#238 = CARTESIAN_POINT('',(39.480284106195,1.289374516017,
    97.731147476425));
#239 = CARTESIAN_POINT('',(39.471726110114,1.531448809957,
    97.607894622941));
#240 = CARTESIAN_POINT('',(39.461996630652,1.759525270794,
    97.459782798439));
#241 = CARTESIAN_POINT('',(39.451617616416,1.970595017429,
    97.288760576978));
#242 = CARTESIAN_POINT('',(39.44115423713,2.161982420125,97.097221244106
    ));
#243 = CARTESIAN_POINT('',(39.419514110784,2.527977476796,
    96.645254989317));
#244 = CARTESIAN_POINT('',(39.408888594877,2.688287178725,96.38701877523
    ));
#245 = CARTESIAN_POINT('',(39.39990999388,2.814196113621,96.11844127035)
  );
#246 = CARTESIAN_POINT('',(39.39296599332,2.907380636112,95.843091064692
    ));
#247 = CARTESIAN_POINT('',(39.388265136338,2.969095696332,95.56355999835
    ));
#248 = CARTESIAN_POINT('',(39.385911186616,3.,95.281903586653));
#249 = CARTESIAN_POINT('',(39.385911186616,3.,94.697961135708));
#250 = CARTESIAN_POINT('',(39.388613370542,2.964523644166,
    94.396266957147));
#251 = CARTESIAN_POINT('',(39.394007382237,2.893709508702,94.09716925061
    ));
#252 = CARTESIAN_POINT('',(39.401957498044,2.786672189724,
    93.803184359939));
#253 = CARTESIAN_POINT('',(39.412191725686,2.641743192316,
    93.517592097023));
#254 = CARTESIAN_POINT('',(39.42418343841,2.456744870194,93.245061948987
    ));
#255 = CARTESIAN_POINT('',(39.448903274037,2.019469408923,
    92.759418349271));
#256 = CARTESIAN_POINT('',(39.461831504112,1.767635417401,
    92.536951852093));
#257 = CARTESIAN_POINT('',(39.474863674246,1.474230905253,92.3387142583)
  );
#258 = CARTESIAN_POINT('',(39.486583626009,1.14301592122,92.176653288862
    ));
#259 = CARTESIAN_POINT('',(39.495368457878,0.780630448723,
    92.060981018106));
#260 = CARTESIAN_POINT('',(39.5,0.395992683418,92.));
#261 = CARTESIAN_POINT('',(39.5,1.33E-15,92.));
#262 = CYLINDRICAL_SURFACE('',#263,39.5);
#263 = AXIS2_PLACEMENT_3D('',#264,#265,#266);
#264 = CARTESIAN_POINT('',(0.,0.,60.3));
#265 = DIRECTION('',(0.,0.,1.));
#266 = DIRECTION('',(0.930002199308,-0.367553954247,0.));
#267 = ADVANCED_FACE('',(#268),#294,.T.);
#268 = FACE_BOUND('',#269,.T.);
#269 = EDGE_LOOP('',(#270,#271,#279,#288));
#270 = ORIENTED_EDGE('',*,*,#21,.T.);
#271 = ORIENTED_EDGE('',*,*,#272,.F.);
#272 = EDGE_CURVE('',#273,#24,#275,.T.);
#273 = VERTEX_POINT('',#274);
#274 = CARTESIAN_POINT('',(34.410081374397,13.599496307121,99.7));
#275 = LINE('',#276,#277);
#276 = CARTESIAN_POINT('',(0.,0.,99.7));
#277 = VECTOR('',#278,1.);
#278 = DIRECTION('',(0.930002199308,0.367553954247,0.));
#279 = ORIENTED_EDGE('',*,*,#280,.F.);
#280 = EDGE_CURVE('',#281,#273,#283,.T.);
#281 = VERTEX_POINT('',#282);
#282 = CARTESIAN_POINT('',(34.410081374397,-13.59949630712,99.7));
#283 = CIRCLE('',#284,37.);
#284 = AXIS2_PLACEMENT_3D('',#285,#286,#287);
#285 = CARTESIAN_POINT('',(0.,0.,99.7));
#286 = DIRECTION('',(-0.,0.,1.));
#287 = DIRECTION('',(0.930002199308,-0.367553954247,0.));
#288 = ORIENTED_EDGE('',*,*,#289,.T.);
#289 = EDGE_CURVE('',#281,#22,#290,.T.);
#290 = LINE('',#291,#292);
#291 = CARTESIAN_POINT('',(0.,0.,99.7));
#292 = VECTOR('',#293,1.);
#293 = DIRECTION('',(0.930002199308,-0.367553954247,0.));
#294 = PLANE('',#295);
#295 = AXIS2_PLACEMENT_3D('',#296,#297,#298);
#296 = CARTESIAN_POINT('',(0.,0.,99.7));
#297 = DIRECTION('',(0.,0.,1.));
#298 = DIRECTION('',(0.930002199308,-0.367553954247,0.));
#299 = ADVANCED_FACE('',(#300),#318,.F.);
#300 = FACE_BOUND('',#301,.F.);
#301 = EDGE_LOOP('',(#302,#303,#311,#317));
#302 = ORIENTED_EDGE('',*,*,#272,.F.);
#303 = ORIENTED_EDGE('',*,*,#304,.F.);
#304 = EDGE_CURVE('',#305,#273,#307,.T.);
#305 = VERTEX_POINT('',#306);
#306 = CARTESIAN_POINT('',(34.410081374397,13.599496307121,60.3));
#307 = LINE('',#308,#309);
#308 = CARTESIAN_POINT('',(34.410081374397,13.599496307121,59.3));
#309 = VECTOR('',#310,1.);
#310 = DIRECTION('',(0.,0.,1.));
#311 = ORIENTED_EDGE('',*,*,#312,.T.);
#312 = EDGE_CURVE('',#305,#41,#313,.T.);
#313 = LINE('',#314,#315);
#314 = CARTESIAN_POINT('',(0.,0.,60.3));
#315 = VECTOR('',#316,1.);
#316 = DIRECTION('',(0.930002199308,0.367553954247,0.));
#317 = ORIENTED_EDGE('',*,*,#49,.T.);
#318 = PLANE('',#319);
#319 = AXIS2_PLACEMENT_3D('',#320,#321,#322);
#320 = CARTESIAN_POINT('',(0.,0.,60.3));
#321 = DIRECTION('',(0.367553954247,-0.930002199308,0.));
#322 = DIRECTION('',(0.930002199308,0.367553954247,0.));
#323 = ADVANCED_FACE('',(#324),#342,.T.);
#324 = FACE_BOUND('',#325,.T.);
#325 = EDGE_LOOP('',(#326,#334,#340,#341));
#326 = ORIENTED_EDGE('',*,*,#327,.F.);
#327 = EDGE_CURVE('',#328,#281,#330,.T.);
#328 = VERTEX_POINT('',#329);
#329 = CARTESIAN_POINT('',(34.410081374397,-13.59949630712,60.3));
#330 = LINE('',#331,#332);
#331 = CARTESIAN_POINT('',(34.410081374397,-13.59949630712,59.3));
#332 = VECTOR('',#333,1.);
#333 = DIRECTION('',(0.,0.,1.));
#334 = ORIENTED_EDGE('',*,*,#335,.T.);
#335 = EDGE_CURVE('',#328,#33,#336,.T.);
#336 = LINE('',#337,#338);
#337 = CARTESIAN_POINT('',(0.,0.,60.3));
#338 = VECTOR('',#339,1.);
#339 = DIRECTION('',(0.930002199308,-0.367553954247,0.));
#340 = ORIENTED_EDGE('',*,*,#32,.T.);
#341 = ORIENTED_EDGE('',*,*,#289,.F.);
#342 = PLANE('',#343);
#343 = AXIS2_PLACEMENT_3D('',#344,#345,#346);
#344 = CARTESIAN_POINT('',(0.,0.,60.3));
#345 = DIRECTION('',(-0.367553954247,-0.930002199308,0.));
#346 = DIRECTION('',(0.930002199308,-0.367553954247,0.));
#347 = ADVANCED_FACE('',(#348),#360,.F.);
#348 = FACE_BOUND('',#349,.F.);
#349 = EDGE_LOOP('',(#350,#351,#352,#359));
#350 = ORIENTED_EDGE('',*,*,#40,.T.);
#351 = ORIENTED_EDGE('',*,*,#312,.F.);
#352 = ORIENTED_EDGE('',*,*,#353,.F.);
#353 = EDGE_CURVE('',#328,#305,#354,.T.);
#354 = CIRCLE('',#355,37.);
#355 = AXIS2_PLACEMENT_3D('',#356,#357,#358);
#356 = CARTESIAN_POINT('',(0.,0.,60.3));
#357 = DIRECTION('',(-0.,0.,1.));
#358 = DIRECTION('',(0.930002199308,-0.367553954247,0.));
#359 = ORIENTED_EDGE('',*,*,#335,.T.);
#360 = PLANE('',#361);
#361 = AXIS2_PLACEMENT_3D('',#362,#363,#364);
#362 = CARTESIAN_POINT('',(0.,0.,60.3));
#363 = DIRECTION('',(0.,0.,1.));
#364 = DIRECTION('',(0.930002199308,-0.367553954247,0.));
#365 = ADVANCED_FACE('',(#366),#385,.F.);
#366 = FACE_BOUND('',#367,.F.);
#367 = EDGE_LOOP('',(#368,#376,#383,#384));
#368 = ORIENTED_EDGE('',*,*,#369,.T.);
#369 = EDGE_CURVE('',#58,#370,#372,.T.);
#370 = VERTEX_POINT('',#371);
#371 = CARTESIAN_POINT('',(37.9,1.E-15,62.));
#372 = LINE('',#373,#374);
#373 = CARTESIAN_POINT('',(41.5,7.3E-16,62.));
#374 = VECTOR('',#375,1.);
#375 = DIRECTION('',(-1.,0.,0.));
#376 = ORIENTED_EDGE('',*,*,#377,.F.);
#377 = EDGE_CURVE('',#370,#370,#378,.T.);
#378 = CIRCLE('',#379,3.);
#379 = AXIS2_PLACEMENT_3D('',#380,#381,#382);
#380 = CARTESIAN_POINT('',(37.9,0.,65.));
#381 = DIRECTION('',(-1.,-0.,-0.));
#382 = DIRECTION('',(0.,0.,-1.));
#383 = ORIENTED_EDGE('',*,*,#369,.F.);
#384 = ORIENTED_EDGE('',*,*,#57,.T.);
#385 = CYLINDRICAL_SURFACE('',#386,3.);
#386 = AXIS2_PLACEMENT_3D('',#387,#388,#389);
#387 = CARTESIAN_POINT('',(41.5,0.,65.));
#388 = DIRECTION('',(-1.,0.,0.));
#389 = DIRECTION('',(0.,0.,-1.));
#390 = ADVANCED_FACE('',(#391),#417,.T.);
#391 = FACE_BOUND('',#392,.T.);
#392 = EDGE_LOOP('',(#393,#401,#410,#416));
#393 = ORIENTED_EDGE('',*,*,#394,.F.);
#394 = EDGE_CURVE('',#395,#123,#397,.T.);
#395 = VERTEX_POINT('',#396);
#396 = CARTESIAN_POINT('',(36.878177829172,3.,78.3));
#397 = LINE('',#398,#399);
#398 = CARTESIAN_POINT('',(33.,3.,78.3));
#399 = VECTOR('',#400,1.);
#400 = DIRECTION('',(1.,0.,0.));
#401 = ORIENTED_EDGE('',*,*,#402,.F.);
#402 = EDGE_CURVE('',#403,#395,#405,.T.);
#403 = VERTEX_POINT('',#404);
#404 = CARTESIAN_POINT('',(36.878177829172,-3.,78.3));
#405 = CIRCLE('',#406,37.);
#406 = AXIS2_PLACEMENT_3D('',#407,#408,#409);
#407 = CARTESIAN_POINT('',(0.,0.,78.3));
#408 = DIRECTION('',(-0.,0.,1.));
#409 = DIRECTION('',(0.930002199308,-0.367553954247,0.));
#410 = ORIENTED_EDGE('',*,*,#411,.T.);
#411 = EDGE_CURVE('',#403,#121,#412,.T.);
#412 = LINE('',#413,#414);
#413 = CARTESIAN_POINT('',(33.,-3.,78.3));
#414 = VECTOR('',#415,1.);
#415 = DIRECTION('',(1.,0.,0.));
#416 = ORIENTED_EDGE('',*,*,#120,.T.);
#417 = PLANE('',#418);
#418 = AXIS2_PLACEMENT_3D('',#419,#420,#421);
#419 = CARTESIAN_POINT('',(33.,3.,78.3));
#420 = DIRECTION('',(0.,0.,1.));
#421 = DIRECTION('',(0.,-1.,0.));
#422 = ADVANCED_FACE('',(#423),#464,.F.);
#423 = FACE_BOUND('',#424,.F.);
#424 = EDGE_LOOP('',(#425,#426,#434,#463));
#425 = ORIENTED_EDGE('',*,*,#131,.F.);
#426 = ORIENTED_EDGE('',*,*,#427,.F.);
#427 = EDGE_CURVE('',#428,#132,#430,.T.);
#428 = VERTEX_POINT('',#429);
#429 = CARTESIAN_POINT('',(36.878177829172,-3.,81.7));
#430 = LINE('',#431,#432);
#431 = CARTESIAN_POINT('',(33.,-3.,81.7));
#432 = VECTOR('',#433,1.);
#433 = DIRECTION('',(1.,0.,0.));
#434 = ORIENTED_EDGE('',*,*,#435,.T.);
#435 = EDGE_CURVE('',#428,#403,#436,.T.);
#436 = B_SPLINE_CURVE_WITH_KNOTS('',7,(#437,#438,#439,#440,#441,#442,
    #443,#444,#445,#446,#447,#448,#449,#450,#451,#452,#453,#454,#455,
    #456,#457,#458,#459,#460,#461,#462),.UNSPECIFIED.,.F.,.F.,(8,6,6,6,8
    ),(0.,0.25758015601,0.5,0.74241984399,1.),.UNSPECIFIED.);
#437 = CARTESIAN_POINT('',(36.878177829172,-3.,81.7));
#438 = CARTESIAN_POINT('',(36.859202958269,-3.233252887813,81.7));
#439 = CARTESIAN_POINT('',(36.838990499675,-3.460420663168,
    81.662662260907));
#440 = CARTESIAN_POINT('',(36.818262201317,-3.674586771775,
    81.591491021278));
#441 = CARTESIAN_POINT('',(36.79794604967,-3.870007138134,81.4913409681)
  );
#442 = CARTESIAN_POINT('',(36.779036212742,-4.042336984558,
    81.368326848338));
#443 = CARTESIAN_POINT('',(36.762300837737,-4.18903794958,
    81.229684678161));
#444 = CARTESIAN_POINT('',(36.734791637277,-4.423595155016,
    80.946153722496));
#445 = CARTESIAN_POINT('',(36.723422440307,-4.51698552005,80.79899517582
    ));
#446 = CARTESIAN_POINT('',(36.714207338744,-4.590739300249,
    80.645099262242));
#447 = CARTESIAN_POINT('',(36.707248934104,-4.645524078591,
    80.48663292019));
#448 = CARTESIAN_POINT('',(36.702597106622,-4.681847932688,
    80.325317270166));
#449 = CARTESIAN_POINT('',(36.700272478553,-4.7,80.162635977811));
#450 = CARTESIAN_POINT('',(36.700272478553,-4.7,79.837364022189));
#451 = CARTESIAN_POINT('',(36.702597106622,-4.681847932688,
    79.674682729834));
#452 = CARTESIAN_POINT('',(36.707248934105,-4.645524078591,
    79.51336707981));
#453 = CARTESIAN_POINT('',(36.714207338744,-4.590739300249,
    79.354900737758));
#454 = CARTESIAN_POINT('',(36.723422440307,-4.51698552005,79.20100482418
    ));
#455 = CARTESIAN_POINT('',(36.734791637277,-4.423595155016,
    79.053846277504));
#456 = CARTESIAN_POINT('',(36.762300837737,-4.18903794958,
    78.770315321839));
#457 = CARTESIAN_POINT('',(36.779036212742,-4.042336984558,
    78.631673151662));
#458 = CARTESIAN_POINT('',(36.79794604967,-3.870007138134,78.5086590319)
  );
#459 = CARTESIAN_POINT('',(36.818262201317,-3.674586771774,
    78.408508978722));
#460 = CARTESIAN_POINT('',(36.838990499675,-3.460420663168,
    78.337337739093));
#461 = CARTESIAN_POINT('',(36.859202958269,-3.233252887812,78.3));
#462 = CARTESIAN_POINT('',(36.878177829172,-3.,78.3));
#463 = ORIENTED_EDGE('',*,*,#411,.T.);
#464 = CYLINDRICAL_SURFACE('',#465,1.7);
#465 = AXIS2_PLACEMENT_3D('',#466,#467,#468);
#466 = CARTESIAN_POINT('',(33.,-3.,80.));
#467 = DIRECTION('',(1.,0.,0.));
#468 = DIRECTION('',(0.,0.,1.));
#469 = ADVANCED_FACE('',(#470),#511,.F.);
#470 = FACE_BOUND('',#471,.F.);
#471 = EDGE_LOOP('',(#472,#503,#509,#510));
#472 = ORIENTED_EDGE('',*,*,#473,.T.);
#473 = EDGE_CURVE('',#395,#474,#476,.T.);
#474 = VERTEX_POINT('',#475);
#475 = CARTESIAN_POINT('',(36.878177829172,3.,81.7));
#476 = B_SPLINE_CURVE_WITH_KNOTS('',7,(#477,#478,#479,#480,#481,#482,
    #483,#484,#485,#486,#487,#488,#489,#490,#491,#492,#493,#494,#495,
    #496,#497,#498,#499,#500,#501,#502),.UNSPECIFIED.,.F.,.F.,(8,6,6,6,8
    ),(0.,0.257580150942,0.499999990162,0.742419835557,1.),
  .UNSPECIFIED.);
#477 = CARTESIAN_POINT('',(36.878177829172,3.,78.3));
#478 = CARTESIAN_POINT('',(36.859202958269,3.233252887812,78.3));
#479 = CARTESIAN_POINT('',(36.838990499675,3.460420663168,
    78.337337739093));
#480 = CARTESIAN_POINT('',(36.818262201317,3.674586771774,
    78.408508978722));
#481 = CARTESIAN_POINT('',(36.79794604967,3.870007138134,78.5086590319)
  );
#482 = CARTESIAN_POINT('',(36.779036212742,4.042336984558,
    78.631673151662));
#483 = CARTESIAN_POINT('',(36.762300837737,4.18903794958,78.77031532184)
  );
#484 = CARTESIAN_POINT('',(36.734791637277,4.423595155016,
    79.053846277504));
#485 = CARTESIAN_POINT('',(36.723422440307,4.51698552005,79.20100482418)
  );
#486 = CARTESIAN_POINT('',(36.714207338744,4.590739300249,
    79.354900737758));
#487 = CARTESIAN_POINT('',(36.707248934104,4.645524078591,79.51336707981
    ));
#488 = CARTESIAN_POINT('',(36.702597106622,4.681847932688,
    79.674682729834));
#489 = CARTESIAN_POINT('',(36.700272478553,4.7,79.837364022189));
#490 = CARTESIAN_POINT('',(36.700272478553,4.7,80.162635981953));
#491 = CARTESIAN_POINT('',(36.702597106733,4.681847931696,
    80.325317260038));
#492 = CARTESIAN_POINT('',(36.707248933556,4.645524083322,
    80.486632927462));
#493 = CARTESIAN_POINT('',(36.714207339791,4.590739291323,
    80.645099266046));
#494 = CARTESIAN_POINT('',(36.723422439361,4.516985528086,
    80.798995167539));
#495 = CARTESIAN_POINT('',(36.734791637637,4.423595151952,80.9461537262)
  );
#496 = CARTESIAN_POINT('',(36.762300837737,4.18903794958,81.229684678161
    ));
#497 = CARTESIAN_POINT('',(36.779036212742,4.042336984558,
    81.368326848338));
#498 = CARTESIAN_POINT('',(36.79794604967,3.870007138134,81.4913409681)
  );
#499 = CARTESIAN_POINT('',(36.818262201317,3.674586771774,
    81.591491021278));
#500 = CARTESIAN_POINT('',(36.838990499675,3.460420663168,
    81.662662260908));
#501 = CARTESIAN_POINT('',(36.859202958269,3.233252887812,81.7));
#502 = CARTESIAN_POINT('',(36.878177829172,3.,81.7));
#503 = ORIENTED_EDGE('',*,*,#504,.T.);
#504 = EDGE_CURVE('',#474,#163,#505,.T.);
#505 = LINE('',#506,#507);
#506 = CARTESIAN_POINT('',(33.,3.,81.7));
#507 = VECTOR('',#508,1.);
#508 = DIRECTION('',(1.,0.,0.));
#509 = ORIENTED_EDGE('',*,*,#171,.F.);
#510 = ORIENTED_EDGE('',*,*,#394,.F.);
#511 = CYLINDRICAL_SURFACE('',#512,1.7);
#512 = AXIS2_PLACEMENT_3D('',#513,#514,#515);
#513 = CARTESIAN_POINT('',(33.,3.,80.));
#514 = DIRECTION('',(1.,0.,0.));
#515 = DIRECTION('',(0.,0.,1.));
#516 = ADVANCED_FACE('',(#517),#529,.F.);
#517 = FACE_BOUND('',#518,.F.);
#518 = EDGE_LOOP('',(#519,#520,#527,#528));
#519 = ORIENTED_EDGE('',*,*,#504,.F.);
#520 = ORIENTED_EDGE('',*,*,#521,.F.);
#521 = EDGE_CURVE('',#428,#474,#522,.T.);
#522 = CIRCLE('',#523,37.);
#523 = AXIS2_PLACEMENT_3D('',#524,#525,#526);
#524 = CARTESIAN_POINT('',(0.,0.,81.7));
#525 = DIRECTION('',(-0.,0.,1.));
#526 = DIRECTION('',(0.930002199308,-0.367553954247,0.));
#527 = ORIENTED_EDGE('',*,*,#427,.T.);
#528 = ORIENTED_EDGE('',*,*,#162,.T.);
#529 = PLANE('',#530);
#530 = AXIS2_PLACEMENT_3D('',#531,#532,#533);
#531 = CARTESIAN_POINT('',(33.,3.,81.7));
#532 = DIRECTION('',(0.,0.,1.));
#533 = DIRECTION('',(0.,-1.,0.));
#534 = ADVANCED_FACE('',(#535),#554,.F.);
#535 = FACE_BOUND('',#536,.F.);
#536 = EDGE_LOOP('',(#537,#545,#552,#553));
#537 = ORIENTED_EDGE('',*,*,#538,.T.);
#538 = EDGE_CURVE('',#203,#539,#541,.T.);
#539 = VERTEX_POINT('',#540);
#540 = CARTESIAN_POINT('',(37.9,1.E-15,92.));
#541 = LINE('',#542,#543);
#542 = CARTESIAN_POINT('',(41.5,7.3E-16,92.));
#543 = VECTOR('',#544,1.);
#544 = DIRECTION('',(-1.,0.,0.));
#545 = ORIENTED_EDGE('',*,*,#546,.F.);
#546 = EDGE_CURVE('',#539,#539,#547,.T.);
#547 = CIRCLE('',#548,3.);
#548 = AXIS2_PLACEMENT_3D('',#549,#550,#551);
#549 = CARTESIAN_POINT('',(37.9,0.,95.));
#550 = DIRECTION('',(-1.,-0.,-0.));
#551 = DIRECTION('',(0.,0.,-1.));
#552 = ORIENTED_EDGE('',*,*,#538,.F.);
#553 = ORIENTED_EDGE('',*,*,#202,.T.);
#554 = CYLINDRICAL_SURFACE('',#555,3.);
#555 = AXIS2_PLACEMENT_3D('',#556,#557,#558);
#556 = CARTESIAN_POINT('',(41.5,0.,95.));
#557 = DIRECTION('',(-1.,0.,0.));
#558 = DIRECTION('',(0.,0.,-1.));
#559 = ADVANCED_FACE('',(#560,#566,#623,#629),#686,.F.);
#560 = FACE_BOUND('',#561,.F.);
#561 = EDGE_LOOP('',(#562,#563,#564,#565));
#562 = ORIENTED_EDGE('',*,*,#304,.T.);
#563 = ORIENTED_EDGE('',*,*,#280,.F.);
#564 = ORIENTED_EDGE('',*,*,#327,.F.);
#565 = ORIENTED_EDGE('',*,*,#353,.T.);
#566 = FACE_BOUND('',#567,.F.);
#567 = EDGE_LOOP('',(#568));
#568 = ORIENTED_EDGE('',*,*,#569,.T.);
#569 = EDGE_CURVE('',#570,#570,#572,.T.);
#570 = VERTEX_POINT('',#571);
#571 = CARTESIAN_POINT('',(37.,0.,63.35));
#572 = B_SPLINE_CURVE_WITH_KNOTS('',7,(#573,#574,#575,#576,#577,#578,
    #579,#580,#581,#582,#583,#584,#585,#586,#587,#588,#589,#590,#591,
    #592,#593,#594,#595,#596,#597,#598,#599,#600,#601,#602,#603,#604,
    #605,#606,#607,#608,#609,#610,#611,#612,#613,#614,#615,#616,#617,
    #618,#619,#620,#621,#622),.UNSPECIFIED.,.T.,.F.,(8,6,6,6,6,6,6,6,8),
  (0.,0.142452122227,0.276484486488,0.444553985746,0.591269628964,
    0.686488154306,0.791235596096,0.892416527498,1.),.UNSPECIFIED.);
#573 = CARTESIAN_POINT('',(37.,2.2E-16,63.35));
#574 = CARTESIAN_POINT('',(37.,-0.226249195572,63.35));
#575 = CARTESIAN_POINT('',(36.998385927518,-0.446737495097,
    63.386193731095));
#576 = CARTESIAN_POINT('',(36.995305853522,-0.654706237156,
    63.45526557745));
#577 = CARTESIAN_POINT('',(36.991190431327,-0.844505922305,
    63.552531793497));
#578 = CARTESIAN_POINT('',(36.986639935031,-1.011840646084,
    63.672028228724));
#579 = CARTESIAN_POINT('',(36.982179065523,-1.154197456518,
    63.806641125517));
#580 = CARTESIAN_POINT('',(36.974361694099,-1.381572026677,
    64.081489766603));
#581 = CARTESIAN_POINT('',(36.970859222297,-1.472281596982,
    64.224307973681));
#582 = CARTESIAN_POINT('',(36.967870070366,-1.544010091417,
    64.373860404291));
#583 = CARTESIAN_POINT('',(36.965544693037,-1.597276755426,
    64.527970801742));
#584 = CARTESIAN_POINT('',(36.963972246162,-1.632501789423,
    64.684803774877));
#585 = CARTESIAN_POINT('',(36.963191150116,-1.65,64.842686098157));
#586 = CARTESIAN_POINT('',(36.963191150116,-1.65,65.197263316625));
#587 = CARTESIAN_POINT('',(36.964419238892,-1.622487036245,
    65.394450338633));
#588 = CARTESIAN_POINT('',(36.966874520563,-1.567491239797,
    65.589140654128));
#589 = CARTESIAN_POINT('',(36.970461809449,-1.48421428027,
    65.778584626674));
#590 = CARTESIAN_POINT('',(36.974984155822,-1.371372737808,
    65.959185416771));
#591 = CARTESIAN_POINT('',(36.980050553582,-1.227508554523,
    66.125946384257));
#592 = CARTESIAN_POINT('',(36.989411698672,-0.898321443778,
    66.398273645952));
#593 = CARTESIAN_POINT('',(36.993871435292,-0.715344412125,
    66.513260984572));
#594 = CARTESIAN_POINT('',(36.997811939452,-0.506484351665,
    66.603291989919));
#595 = CARTESIAN_POINT('',(37.00045127989,-0.279275360706,
    66.659392849747));
#596 = CARTESIAN_POINT('',(37.001219703362,-4.377395388741E-02,
    66.67674031417));
#597 = CARTESIAN_POINT('',(37.000176063642,0.189300871924,
    66.654914984949));
#598 = CARTESIAN_POINT('',(36.996133529589,0.553791723434,
    66.561329640528));
#599 = CARTESIAN_POINT('',(36.993936308542,0.693388564274,
    66.509473703996));
#600 = CARTESIAN_POINT('',(36.991216465817,0.82722835449,66.443084973831
    ));
#601 = CARTESIAN_POINT('',(36.988106050016,0.953516837966,
    66.362941743329));
#602 = CARTESIAN_POINT('',(36.98477213721,1.070587301341,66.270097994999
    ));
#603 = CARTESIAN_POINT('',(36.981396921885,1.176946736795,
    66.165859718507));
#604 = CARTESIAN_POINT('',(36.974580977935,1.375193978943,
    65.926219968708));
#605 = CARTESIAN_POINT('',(36.971167132869,1.464582990031,
    65.788724220404));
#606 = CARTESIAN_POINT('',(36.968137229962,1.537847162487,
    65.641280259348));
#607 = CARTESIAN_POINT('',(36.965704683208,1.593696499602,
    65.486158361156));
#608 = CARTESIAN_POINT('',(36.964028669427,1.631236123222,
    65.325832952477));
#609 = CARTESIAN_POINT('',(36.963191150116,1.65,65.162905715446));
#610 = CARTESIAN_POINT('',(36.963191150116,1.65,64.842641006427));
#611 = CARTESIAN_POINT('',(36.963972696635,1.632491774886,
    64.684902142617));
#612 = CARTESIAN_POINT('',(36.965542655647,1.597322027276,64.52816186334
    ));
#613 = CARTESIAN_POINT('',(36.967866399491,1.544091977233,
    64.373988364233));
#614 = CARTESIAN_POINT('',(36.97085912193,1.472302755764,64.224279824833
    ));
#615 = CARTESIAN_POINT('',(36.97436476896,1.381482591841,64.081381658458
    ));
#616 = CARTESIAN_POINT('',(36.982177536668,1.154241924511,
    63.806694878087));
#617 = CARTESIAN_POINT('',(36.98663878135,1.011883763999,63.672051866937
    ));
#618 = CARTESIAN_POINT('',(36.991191036064,0.84450301626,63.552509034437
    ));
#619 = CARTESIAN_POINT('',(36.995307884819,0.654637678153,
    63.455220149669));
#620 = CARTESIAN_POINT('',(36.998387360025,0.446622546472,
    63.386161586285));
#621 = CARTESIAN_POINT('',(37.,0.226148707678,63.35));
#622 = CARTESIAN_POINT('',(37.,2.2E-16,63.35));
#623 = FACE_BOUND('',#624,.F.);
#624 = EDGE_LOOP('',(#625,#626,#627,#628));
#625 = ORIENTED_EDGE('',*,*,#402,.F.);
#626 = ORIENTED_EDGE('',*,*,#435,.F.);
#627 = ORIENTED_EDGE('',*,*,#521,.T.);
#628 = ORIENTED_EDGE('',*,*,#473,.F.);
#629 = FACE_BOUND('',#630,.F.);
#630 = EDGE_LOOP('',(#631));
#631 = ORIENTED_EDGE('',*,*,#632,.T.);
#632 = EDGE_CURVE('',#633,#633,#635,.T.);
#633 = VERTEX_POINT('',#634);
#634 = CARTESIAN_POINT('',(37.,0.,93.35));
#635 = B_SPLINE_CURVE_WITH_KNOTS('',7,(#636,#637,#638,#639,#640,#641,
    #642,#643,#644,#645,#646,#647,#648,#649,#650,#651,#652,#653,#654,
    #655,#656,#657,#658,#659,#660,#661,#662,#663,#664,#665,#666,#667,
    #668,#669,#670,#671,#672,#673,#674,#675,#676,#677,#678,#679,#680,
    #681,#682,#683,#684,#685),.UNSPECIFIED.,.T.,.F.,(8,6,6,6,6,6,6,6,8),
  (0.,0.142452122271,0.276484486583,0.444553985895,0.591269628952,
    0.686488154306,0.791235596032,0.892416527454,1.),.UNSPECIFIED.);
#636 = CARTESIAN_POINT('',(37.,2.2E-16,93.35));
#637 = CARTESIAN_POINT('',(37.,-0.226249195572,93.35));
#638 = CARTESIAN_POINT('',(36.998385927518,-0.446737495097,
    93.386193731095));
#639 = CARTESIAN_POINT('',(36.995305853522,-0.654706237157,
    93.45526557745));
#640 = CARTESIAN_POINT('',(36.991190431327,-0.844505922304,
    93.552531793497));
#641 = CARTESIAN_POINT('',(36.986639935031,-1.011840646084,
    93.672028228724));
#642 = CARTESIAN_POINT('',(36.982179065523,-1.154197456518,
    93.806641125517));
#643 = CARTESIAN_POINT('',(36.974361694098,-1.381572026685,
    94.081489766613));
#644 = CARTESIAN_POINT('',(36.970859222297,-1.472281596988,
    94.224307973693));
#645 = CARTESIAN_POINT('',(36.967870070366,-1.544010091418,
    94.373860404297));
#646 = CARTESIAN_POINT('',(36.965544693037,-1.597276755424,
    94.52797080174));
#647 = CARTESIAN_POINT('',(36.963972246162,-1.632501789421,
    94.684803774867));
#648 = CARTESIAN_POINT('',(36.963191150116,-1.65,94.842686098147));
#649 = CARTESIAN_POINT('',(36.963191150116,-1.65,95.197263316625));
#650 = CARTESIAN_POINT('',(36.964419238892,-1.622487036245,
    95.394450338632));
#651 = CARTESIAN_POINT('',(36.966874520563,-1.567491239797,
    95.589140654128));
#652 = CARTESIAN_POINT('',(36.970461809449,-1.484214280271,
    95.778584626673));
#653 = CARTESIAN_POINT('',(36.974984155822,-1.371372737808,
    95.959185416771));
#654 = CARTESIAN_POINT('',(36.980050553582,-1.227508554523,
    96.125946384257));
#655 = CARTESIAN_POINT('',(36.989411698666,-0.898321443994,
    96.398273645773));
#656 = CARTESIAN_POINT('',(36.993871435301,-0.715344411927,
    96.513260984839));
#657 = CARTESIAN_POINT('',(36.997811939453,-0.506484351403,
    96.603291989868));
#658 = CARTESIAN_POINT('',(37.000451279881,-0.279275360956,
    96.65939284959));
#659 = CARTESIAN_POINT('',(37.001219703369,-4.377395414137E-02,
    96.676740314327));
#660 = CARTESIAN_POINT('',(37.000176063639,0.189300872193,96.65491498488
    ));
#661 = CARTESIAN_POINT('',(36.996133529589,0.553791723434,
    96.561329640528));
#662 = CARTESIAN_POINT('',(36.993936308542,0.693388564274,
    96.509473703996));
#663 = CARTESIAN_POINT('',(36.991216465817,0.82722835449,96.443084973831
    ));
#664 = CARTESIAN_POINT('',(36.988106050016,0.953516837966,
    96.362941743329));
#665 = CARTESIAN_POINT('',(36.98477213721,1.070587301341,96.270097994999
    ));
#666 = CARTESIAN_POINT('',(36.981396921885,1.176946736794,
    96.165859718507));
#667 = CARTESIAN_POINT('',(36.974580977938,1.375193978867,95.9262199688)
  );
#668 = CARTESIAN_POINT('',(36.971167132866,1.464582990132,
    95.788724220325));
#669 = CARTESIAN_POINT('',(36.968137229962,1.537847162487,
    95.641280259244));
#670 = CARTESIAN_POINT('',(36.96570468321,1.593696499541,95.486158361228
    ));
#671 = CARTESIAN_POINT('',(36.964028669426,1.631236123246,
    95.325832952617));
#672 = CARTESIAN_POINT('',(36.963191150116,1.65,95.16290571532));
#673 = CARTESIAN_POINT('',(36.963191150116,1.65,94.842641006421));
#674 = CARTESIAN_POINT('',(36.963972696635,1.632491774885,94.68490214261
    ));
#675 = CARTESIAN_POINT('',(36.965542655647,1.597322027275,
    94.528161863341));
#676 = CARTESIAN_POINT('',(36.967866399491,1.544091977232,
    94.373988364234));
#677 = CARTESIAN_POINT('',(36.97085912193,1.472302755767,94.224279824839
    ));
#678 = CARTESIAN_POINT('',(36.97436476896,1.381482591844,94.081381658461
    ));
#679 = CARTESIAN_POINT('',(36.982177536669,1.154241924483,
    93.806694878053));
#680 = CARTESIAN_POINT('',(36.986638781351,1.011883763991,
    93.672051866946));
#681 = CARTESIAN_POINT('',(36.991191036062,0.844503016288,
    93.552509034461));
#682 = CARTESIAN_POINT('',(36.995307884819,0.654637678187,
    93.455220149675));
#683 = CARTESIAN_POINT('',(36.998387360026,0.446622546467,
    93.386161586272));
#684 = CARTESIAN_POINT('',(37.,0.226148707637,93.35));
#685 = CARTESIAN_POINT('',(37.,2.2E-16,93.35));
#686 = CYLINDRICAL_SURFACE('',#687,37.);
#687 = AXIS2_PLACEMENT_3D('',#688,#689,#690);
#688 = CARTESIAN_POINT('',(0.,0.,59.3));
#689 = DIRECTION('',(0.,0.,1.));
#690 = DIRECTION('',(0.930002199308,-0.367553954247,0.));
#691 = ADVANCED_FACE('',(#692,#695),#706,.F.);
#692 = FACE_BOUND('',#693,.F.);
#693 = EDGE_LOOP('',(#694));
#694 = ORIENTED_EDGE('',*,*,#377,.T.);
#695 = FACE_BOUND('',#696,.F.);
#696 = EDGE_LOOP('',(#697));
#697 = ORIENTED_EDGE('',*,*,#698,.F.);
#698 = EDGE_CURVE('',#699,#699,#701,.T.);
#699 = VERTEX_POINT('',#700);
#700 = CARTESIAN_POINT('',(37.9,0.,63.35));
#701 = CIRCLE('',#702,1.65);
#702 = AXIS2_PLACEMENT_3D('',#703,#704,#705);
#703 = CARTESIAN_POINT('',(37.9,0.,65.));
#704 = DIRECTION('',(-1.,-0.,-0.));
#705 = DIRECTION('',(0.,0.,-1.));
#706 = PLANE('',#707);
#707 = AXIS2_PLACEMENT_3D('',#708,#709,#710);
#708 = CARTESIAN_POINT('',(37.9,0.,65.));
#709 = DIRECTION('',(-1.,0.,0.));
#710 = DIRECTION('',(0.,0.,-1.));
#711 = ADVANCED_FACE('',(#712,#715),#726,.F.);
#712 = FACE_BOUND('',#713,.F.);
#713 = EDGE_LOOP('',(#714));
#714 = ORIENTED_EDGE('',*,*,#546,.T.);
#715 = FACE_BOUND('',#716,.F.);
#716 = EDGE_LOOP('',(#717));
#717 = ORIENTED_EDGE('',*,*,#718,.F.);
#718 = EDGE_CURVE('',#719,#719,#721,.T.);
#719 = VERTEX_POINT('',#720);
#720 = CARTESIAN_POINT('',(37.9,0.,93.35));
#721 = CIRCLE('',#722,1.65);
#722 = AXIS2_PLACEMENT_3D('',#723,#724,#725);
#723 = CARTESIAN_POINT('',(37.9,0.,95.));
#724 = DIRECTION('',(-1.,-0.,-0.));
#725 = DIRECTION('',(0.,0.,-1.));
#726 = PLANE('',#727);
#727 = AXIS2_PLACEMENT_3D('',#728,#729,#730);
#728 = CARTESIAN_POINT('',(37.9,0.,95.));
#729 = DIRECTION('',(-1.,0.,0.));
#730 = DIRECTION('',(0.,0.,-1.));
#731 = ADVANCED_FACE('',(#732),#743,.F.);
#732 = FACE_BOUND('',#733,.F.);
#733 = EDGE_LOOP('',(#734,#740,#741,#742));
#734 = ORIENTED_EDGE('',*,*,#735,.T.);
#735 = EDGE_CURVE('',#699,#570,#736,.T.);
#736 = LINE('',#737,#738);
#737 = CARTESIAN_POINT('',(41.5,4.E-16,63.35));
#738 = VECTOR('',#739,1.);
#739 = DIRECTION('',(-1.,0.,0.));
#740 = ORIENTED_EDGE('',*,*,#569,.F.);
#741 = ORIENTED_EDGE('',*,*,#735,.F.);
#742 = ORIENTED_EDGE('',*,*,#698,.T.);
#743 = CYLINDRICAL_SURFACE('',#744,1.65);
#744 = AXIS2_PLACEMENT_3D('',#745,#746,#747);
#745 = CARTESIAN_POINT('',(41.5,0.,65.));
#746 = DIRECTION('',(-1.,0.,0.));
#747 = DIRECTION('',(0.,0.,-1.));
#748 = ADVANCED_FACE('',(#749),#760,.F.);
#749 = FACE_BOUND('',#750,.F.);
#750 = EDGE_LOOP('',(#751,#757,#758,#759));
#751 = ORIENTED_EDGE('',*,*,#752,.T.);
#752 = EDGE_CURVE('',#719,#633,#753,.T.);
#753 = LINE('',#754,#755);
#754 = CARTESIAN_POINT('',(41.5,4.E-16,93.35));
#755 = VECTOR('',#756,1.);
#756 = DIRECTION('',(-1.,0.,0.));
#757 = ORIENTED_EDGE('',*,*,#632,.F.);
#758 = ORIENTED_EDGE('',*,*,#752,.F.);
#759 = ORIENTED_EDGE('',*,*,#718,.T.);
#760 = CYLINDRICAL_SURFACE('',#761,1.65);
#761 = AXIS2_PLACEMENT_3D('',#762,#763,#764);
#762 = CARTESIAN_POINT('',(41.5,0.,95.));
#763 = DIRECTION('',(-1.,0.,0.));
#764 = DIRECTION('',(0.,0.,-1.));
#765 = ( GEOMETRIC_REPRESENTATION_CONTEXT(3) 
GLOBAL_UNCERTAINTY_ASSIGNED_CONTEXT((#769)) GLOBAL_UNIT_ASSIGNED_CONTEXT
((#766,#767,#768)) REPRESENTATION_CONTEXT('Context #1',
  '3D Context with UNIT and UNCERTAINTY') );
#766 = ( LENGTH_UNIT() NAMED_UNIT(*) SI_UNIT(.MILLI.,.METRE.) );
#767 = ( NAMED_UNIT(*) PLANE_ANGLE_UNIT() SI_UNIT($,.RADIAN.) );
#768 = ( NAMED_UNIT(*) SI_UNIT($,.STERADIAN.) SOLID_ANGLE_UNIT() );
#769 = UNCERTAINTY_MEASURE_WITH_UNIT(LENGTH_MEASURE(1.E-07),#766,
  'distance_accuracy_value','confusion accuracy');
#770 = PRODUCT_RELATED_PRODUCT_CATEGORY('part',$,(#7));
ENDSEC;
END-ISO-10303-21;
