ISO-10303-21;
HEADER;
FILE_DESCRIPTION(('FreeCAD Model'),'2;1');
FILE_NAME('Open CASCADE Shape Model','2026-10-02T22:49:01',('FreeCAD'),(
    'FreeCAD'),'Open CASCADE STEP processor 7.8','FreeCAD','Unknown');
FILE_SCHEMA(('AUTOMOTIVE_DESIGN { 1 0 10303 214 1 1 1 1 }'));
ENDSEC;
DATA;
#1 = APPLICATION_PROTOCOL_DEFINITION('international standard',
  'automotive_design',2000,#2);
#2 = APPLICATION_CONTEXT(
  'core data for automotive mechanical design processes');
#3 = SHAPE_DEFINITION_REPRESENTATION(#4,#10);
#4 = PRODUCT_DEFINITION_SHAPE('','',#5);
#5 = PRODUCT_DEFINITION('design','',#6,#9);
#6 = PRODUCT_DEFINITION_FORMATION('','',#7);
#7 = PRODUCT('Open CASCADE STEP translator 7.8 6',
  'Open CASCADE STEP translator 7.8 6','',(#8));
#8 = PRODUCT_CONTEXT('',#2,'mechanical');
#9 = PRODUCT_DEFINITION_CONTEXT('part definition',#2,'design');
#10 = ADVANCED_BREP_SHAPE_REPRESENTATION('',(#11,#15),#365);
#11 = AXIS2_PLACEMENT_3D('',#12,#13,#14);
#12 = CARTESIAN_POINT('',(0.,0.,0.));
#13 = DIRECTION('',(0.,0.,1.));
#14 = DIRECTION('',(1.,0.,-0.));
#15 = MANIFOLD_SOLID_BREP('',#16);
#16 = CLOSED_SHELL('',(#17,#71,#168,#193,#218,#263,#288,#313,#338,#347,
    #356));
#17 = ADVANCED_FACE('',(#18),#62,.T.);
#18 = FACE_BOUND('',#19,.T.);
#19 = EDGE_LOOP('',(#20,#31,#38,#39));
#20 = ORIENTED_EDGE('',*,*,#21,.F.);
#21 = EDGE_CURVE('',#22,#24,#26,.T.);
#22 = VERTEX_POINT('',#23);
#23 = CARTESIAN_POINT('',(39.5,0.,147.50625));
#24 = VERTEX_POINT('',#25);
#25 = CARTESIAN_POINT('',(22.755437510066,0.,153.90350210608));
#26 = ELLIPSE('',#27,17.25,6.4);
#27 = AXIS2_PLACEMENT_3D('',#28,#29,#30);
#28 = CARTESIAN_POINT('',(22.25,0.,147.50625));
#29 = DIRECTION('',(0.,-1.,0.));
#30 = DIRECTION('',(1.,0.,0.));
#31 = ORIENTED_EDGE('',*,*,#32,.T.);
#32 = EDGE_CURVE('',#22,#22,#33,.T.);
#33 = CIRCLE('',#34,39.5);
#34 = AXIS2_PLACEMENT_3D('',#35,#36,#37);
#35 = CARTESIAN_POINT('',(0.,0.,147.50625));
#36 = DIRECTION('',(0.,0.,1.));
#37 = DIRECTION('',(1.,0.,0.));
#38 = ORIENTED_EDGE('',*,*,#21,.T.);
#39 = ORIENTED_EDGE('',*,*,#40,.F.);
#40 = EDGE_CURVE('',#24,#24,#41,.T.);
#41 = ( BOUNDED_CURVE() B_SPLINE_CURVE(10,(#42,#43,#44,#45,#46,#47,#48,
    #49,#50,#51,#52,#53,#54,#55,#56,#57,#58,#59,#60,#61),.UNSPECIFIED.,
.T.,.F.) B_SPLINE_CURVE_WITH_KNOTS((11,9,11),(3.56E-15,69.900436542373,
139.80087308474),.UNSPECIFIED.) CURVE() GEOMETRIC_REPRESENTATION_ITEM() 
RATIONAL_B_SPLINE_CURVE((1.,1.,1.,1.,1.,1.,1.,1.,1.,1.,1.,1.,1.,1.,1.,1.
,1.,1.,1.,1.)) REPRESENTATION_ITEM('') );
#42 = CARTESIAN_POINT('',(22.755437510066,0.,153.90350210608));
#43 = CARTESIAN_POINT('',(22.755437510067,7.045418653424,153.90350210608
    ));
#44 = CARTESIAN_POINT('',(20.331351270822,14.197660561635,
    153.90350210608));
#45 = CARTESIAN_POINT('',(15.362276187396,20.453381238865,
    153.90350210608));
#46 = CARTESIAN_POINT('',(8.238362570865,24.715040633301,153.90350210608
    ));
#47 = CARTESIAN_POINT('',(-5.887711937283E-03,26.167073039729,
    153.90350210608));
#48 = CARTESIAN_POINT('',(-8.219289001704,24.680154611848,
    153.90350210608));
#49 = CARTESIAN_POINT('',(-15.27046130844,20.465181117725,
    153.90350210608));
#50 = CARTESIAN_POINT('',(-20.25979907919,14.297878174578,
    153.90350210608));
#51 = CARTESIAN_POINT('',(-22.75543751006,7.148831531084,153.90350210608
    ));
#52 = CARTESIAN_POINT('',(-22.75543751006,-7.148831531084,
    153.90350210608));
#53 = CARTESIAN_POINT('',(-20.2597990792,-14.29787817457,153.90350210608
    ));
#54 = CARTESIAN_POINT('',(-15.27046130843,-20.46518111772,
    153.90350210608));
#55 = CARTESIAN_POINT('',(-8.219289001715,-24.68015461185,
    153.90350210608));
#56 = CARTESIAN_POINT('',(-5.887711928749E-03,-26.16707303972,
    153.90350210608));
#57 = CARTESIAN_POINT('',(8.238362570862,-24.7150406333,153.90350210608)
  );
#58 = CARTESIAN_POINT('',(15.362276187394,-20.45338123886,
    153.90350210608));
#59 = CARTESIAN_POINT('',(20.331351270824,-14.19766056163,
    153.90350210608));
#60 = CARTESIAN_POINT('',(22.755437510066,-7.045418653425,
    153.90350210608));
#61 = CARTESIAN_POINT('',(22.755437510066,-5.57E-15,153.90350210608));
#62 = SURFACE_OF_REVOLUTION('',#63,#68);
#63 = ELLIPSE('',#64,17.25,6.4);
#64 = AXIS2_PLACEMENT_3D('',#65,#66,#67);
#65 = CARTESIAN_POINT('',(22.25,0.,147.50625));
#66 = DIRECTION('',(0.,-1.,0.));
#67 = DIRECTION('',(1.,0.,0.));
#68 = AXIS1_PLACEMENT('',#69,#70);
#69 = CARTESIAN_POINT('',(0.,0.,0.));
#70 = DIRECTION('',(0.,0.,1.));
#71 = ADVANCED_FACE('',(#72),#107,.F.);
#72 = FACE_BOUND('',#73,.F.);
#73 = EDGE_LOOP('',(#74,#82,#105,#106));
#74 = ORIENTED_EDGE('',*,*,#75,.T.);
#75 = EDGE_CURVE('',#24,#76,#78,.T.);
#76 = VERTEX_POINT('',#77);
#77 = CARTESIAN_POINT('',(22.25,0.,153.40353167347));
#78 = ( BOUNDED_CURVE() B_SPLINE_CURVE(2,(#79,#80,#81),.UNSPECIFIED.,.F.
,.F.) B_SPLINE_CURVE_WITH_KNOTS((3,3),(0.,139.80087308474),
.PIECEWISE_BEZIER_KNOTS.) CURVE() GEOMETRIC_REPRESENTATION_ITEM() 
RATIONAL_B_SPLINE_CURVE((1.,0.703251370374,1.)) REPRESENTATION_ITEM('') 
  );
#79 = CARTESIAN_POINT('',(22.755437510066,0.,153.90350210608));
#80 = CARTESIAN_POINT('',(22.25,-2.58E-15,153.90899907424));
#81 = CARTESIAN_POINT('',(22.25,0.,153.40353167347));
#82 = ORIENTED_EDGE('',*,*,#83,.T.);
#83 = EDGE_CURVE('',#76,#76,#84,.T.);
#84 = ( BOUNDED_CURVE() B_SPLINE_CURVE(10,(#85,#86,#87,#88,#89,#90,#91,
    #92,#93,#94,#95,#96,#97,#98,#99,#100,#101,#102,#103,#104),
.UNSPECIFIED.,.T.,.F.) B_SPLINE_CURVE_WITH_KNOTS((11,9,11),(3.56E-15,
69.900436542373,139.80087308474),.UNSPECIFIED.) CURVE() 
GEOMETRIC_REPRESENTATION_ITEM() RATIONAL_B_SPLINE_CURVE((1.,1.,1.,1.,1.,
1.,1.,1.,1.,1.,1.,1.,1.,1.,1.,1.,1.,1.,1.,1.)) REPRESENTATION_ITEM('') 
  );
#85 = CARTESIAN_POINT('',(22.25,0.,153.40353167347));
#86 = CARTESIAN_POINT('',(22.25,6.888927754931,153.40353167347));
#87 = CARTESIAN_POINT('',(19.879756896596,13.882306035936,
    153.40353167347));
#88 = CARTESIAN_POINT('',(15.021053540207,19.999076368602,
    153.40353167347));
#89 = CARTESIAN_POINT('',(8.05537433067,24.166076958424,153.40353167348)
  );
#90 = CARTESIAN_POINT('',(-5.756935701189E-03,25.585857221005,
    153.40353167347));
#91 = CARTESIAN_POINT('',(-8.036724418373,24.131965815671,
    153.40353167348));
#92 = CARTESIAN_POINT('',(-14.93127802805,20.010614151804,
    153.40353167347));
#93 = CARTESIAN_POINT('',(-19.80979400254,13.980297642865,
    153.40353167347));
#94 = CARTESIAN_POINT('',(-22.25,6.990043654237,153.40353167347));
#95 = CARTESIAN_POINT('',(-22.24999999999,-6.990043654237,
    153.40353167347));
#96 = CARTESIAN_POINT('',(-19.80979400254,-13.98029764286,
    153.40353167347));
#97 = CARTESIAN_POINT('',(-14.93127802804,-20.0106141518,153.40353167347
    ));
#98 = CARTESIAN_POINT('',(-8.036724418383,-24.13196581567,
    153.40353167347));
#99 = CARTESIAN_POINT('',(-5.756935694081E-03,-25.585857221,
    153.40353167348));
#100 = CARTESIAN_POINT('',(8.055374330668,-24.16607695842,
    153.40353167347));
#101 = CARTESIAN_POINT('',(15.021053540205,-19.9990763686,
    153.40353167348));
#102 = CARTESIAN_POINT('',(19.879756896598,-13.88230603593,
    153.40353167347));
#103 = CARTESIAN_POINT('',(22.25,-6.888927754932,153.40353167347));
#104 = CARTESIAN_POINT('',(22.25,-5.45E-15,153.40353167347));
#105 = ORIENTED_EDGE('',*,*,#75,.F.);
#106 = ORIENTED_EDGE('',*,*,#40,.F.);
#107 = ( BOUNDED_SURFACE() B_SPLINE_SURFACE(2,10,(
    (#108,#109,#110,#111,#112,#113,#114,#115,#116,#117,#118,#119,#120
      ,#121,#122,#123,#124,#125,#126,#127)
    ,(#128,#129,#130,#131,#132,#133,#134,#135,#136,#137,#138,#139,#140
      ,#141,#142,#143,#144,#145,#146,#147)
    ,(#148,#149,#150,#151,#152,#153,#154,#155,#156,#157,#158,#159,#160
      ,#161,#162,#163,#164,#165,#166,#167
)),.UNSPECIFIED.,.F.,.T.,.F.) B_SPLINE_SURFACE_WITH_KNOTS((3,3),(11,9,11
    ),(0.,139.80087308474),(3.56E-15,69.900436542373,139.80087308474),
.UNSPECIFIED.) GEOMETRIC_REPRESENTATION_ITEM() RATIONAL_B_SPLINE_SURFACE
((
    (1.,1.,1.,1.,1.,1.,1.,1.,1.,1.,1.,1.,1.,1.,1.,1.,1.,1.,1.,1.)
    ,(0.703251370374,0.703251370374,0.703251370374,0.703251370374
      ,0.703251370375,0.703251370374,0.703251370375,0.703251370374
      ,0.703251370374,0.703251370374,0.703251370374,0.703251370374
      ,0.703251370375,0.703251370374,0.703251370375,0.703251370374
      ,0.703251370375,0.703251370374,0.703251370374,0.703251370374)
    ,(1.,1.,1.,1.,1.,1.,1.,1.,1.,1.,1.,1.,1.,1.,1.,1.,1.,1.,1.,1.
))) REPRESENTATION_ITEM('') SURFACE() );
#108 = CARTESIAN_POINT('',(22.755437510066,0.,153.90350210608));
#109 = CARTESIAN_POINT('',(22.755437510067,7.045418653424,
    153.90350210608));
#110 = CARTESIAN_POINT('',(20.331351270822,14.197660561635,
    153.90350210608));
#111 = CARTESIAN_POINT('',(15.362276187396,20.453381238865,
    153.90350210608));
#112 = CARTESIAN_POINT('',(8.238362570865,24.715040633301,
    153.90350210608));
#113 = CARTESIAN_POINT('',(-5.887711937283E-03,26.167073039729,
    153.90350210608));
#114 = CARTESIAN_POINT('',(-8.219289001704,24.680154611848,
    153.90350210608));
#115 = CARTESIAN_POINT('',(-15.27046130844,20.465181117725,
    153.90350210608));
#116 = CARTESIAN_POINT('',(-20.25979907919,14.297878174578,
    153.90350210608));
#117 = CARTESIAN_POINT('',(-22.75543751006,7.148831531084,
    153.90350210608));
#118 = CARTESIAN_POINT('',(-22.75543751006,-7.148831531084,
    153.90350210608));
#119 = CARTESIAN_POINT('',(-20.2597990792,-14.29787817457,
    153.90350210608));
#120 = CARTESIAN_POINT('',(-15.27046130843,-20.46518111772,
    153.90350210608));
#121 = CARTESIAN_POINT('',(-8.219289001715,-24.68015461185,
    153.90350210608));
#122 = CARTESIAN_POINT('',(-5.887711928749E-03,-26.16707303972,
    153.90350210608));
#123 = CARTESIAN_POINT('',(8.238362570862,-24.7150406333,153.90350210608
    ));
#124 = CARTESIAN_POINT('',(15.362276187394,-20.45338123886,
    153.90350210608));
#125 = CARTESIAN_POINT('',(20.331351270824,-14.19766056163,
    153.90350210608));
#126 = CARTESIAN_POINT('',(22.755437510066,-7.045418653425,
    153.90350210608));
#127 = CARTESIAN_POINT('',(22.755437510066,-5.57E-15,153.90350210608));
#128 = CARTESIAN_POINT('',(22.25,-2.58E-15,153.90899907424));
#129 = CARTESIAN_POINT('',(22.25,6.888927754931,153.90899907424));
#130 = CARTESIAN_POINT('',(19.879756896595,13.882306035935,
    153.90899907424));
#131 = CARTESIAN_POINT('',(15.021053540209,19.999076368604,
    153.90899907424));
#132 = CARTESIAN_POINT('',(8.055374330667,24.166076958421,
    153.90899907424));
#133 = CARTESIAN_POINT('',(-5.756935698128E-03,25.585857221008,
    153.90899907424));
#134 = CARTESIAN_POINT('',(-8.036724418376,24.131965815669,
    153.90899907424));
#135 = CARTESIAN_POINT('',(-14.93127802805,20.010614151805,
    153.90899907424));
#136 = CARTESIAN_POINT('',(-19.80979400254,13.980297642864,
    153.90899907424));
#137 = CARTESIAN_POINT('',(-22.25,6.990043654237,153.90899907424));
#138 = CARTESIAN_POINT('',(-22.25,-6.990043654237,153.90899907424));
#139 = CARTESIAN_POINT('',(-19.80979400254,-13.98029764286,
    153.90899907424));
#140 = CARTESIAN_POINT('',(-14.93127802804,-20.0106141518,
    153.90899907424));
#141 = CARTESIAN_POINT('',(-8.036724418381,-24.13196581567,
    153.90899907424));
#142 = CARTESIAN_POINT('',(-5.7569356965E-03,-25.585857221,
    153.90899907424));
#143 = CARTESIAN_POINT('',(8.055374330669,-24.16607695842,
    153.90899907424));
#144 = CARTESIAN_POINT('',(15.021053540205,-19.9990763686,
    153.90899907424));
#145 = CARTESIAN_POINT('',(19.879756896598,-13.88230603593,
    153.90899907424));
#146 = CARTESIAN_POINT('',(22.25,-6.888927754931,153.90899907424));
#147 = CARTESIAN_POINT('',(22.25,3.783E-14,153.90899907424));
#148 = CARTESIAN_POINT('',(22.25,0.,153.40353167347));
#149 = CARTESIAN_POINT('',(22.25,6.888927754931,153.40353167347));
#150 = CARTESIAN_POINT('',(19.879756896596,13.882306035936,
    153.40353167347));
#151 = CARTESIAN_POINT('',(15.021053540207,19.999076368602,
    153.40353167347));
#152 = CARTESIAN_POINT('',(8.05537433067,24.166076958424,153.40353167348
    ));
#153 = CARTESIAN_POINT('',(-5.756935701189E-03,25.585857221005,
    153.40353167347));
#154 = CARTESIAN_POINT('',(-8.036724418373,24.131965815671,
    153.40353167348));
#155 = CARTESIAN_POINT('',(-14.93127802805,20.010614151804,
    153.40353167347));
#156 = CARTESIAN_POINT('',(-19.80979400254,13.980297642865,
    153.40353167347));
#157 = CARTESIAN_POINT('',(-22.25,6.990043654237,153.40353167347));
#158 = CARTESIAN_POINT('',(-22.24999999999,-6.990043654237,
    153.40353167347));
#159 = CARTESIAN_POINT('',(-19.80979400254,-13.98029764286,
    153.40353167347));
#160 = CARTESIAN_POINT('',(-14.93127802804,-20.0106141518,
    153.40353167347));
#161 = CARTESIAN_POINT('',(-8.036724418383,-24.13196581567,
    153.40353167347));
#162 = CARTESIAN_POINT('',(-5.756935694081E-03,-25.585857221,
    153.40353167348));
#163 = CARTESIAN_POINT('',(8.055374330668,-24.16607695842,
    153.40353167347));
#164 = CARTESIAN_POINT('',(15.021053540205,-19.9990763686,
    153.40353167348));
#165 = CARTESIAN_POINT('',(19.879756896598,-13.88230603593,
    153.40353167347));
#166 = CARTESIAN_POINT('',(22.25,-6.888927754932,153.40353167347));
#167 = CARTESIAN_POINT('',(22.25,-5.45E-15,153.40353167347));
#168 = ADVANCED_FACE('',(#169),#188,.T.);
#169 = FACE_BOUND('',#170,.T.);
#170 = EDGE_LOOP('',(#171,#180,#186,#187));
#171 = ORIENTED_EDGE('',*,*,#172,.T.);
#172 = EDGE_CURVE('',#173,#173,#175,.T.);
#173 = VERTEX_POINT('',#174);
#174 = CARTESIAN_POINT('',(38.9,0.,146.90625));
#175 = CIRCLE('',#176,38.9);
#176 = AXIS2_PLACEMENT_3D('',#177,#178,#179);
#177 = CARTESIAN_POINT('',(0.,0.,146.90625));
#178 = DIRECTION('',(0.,0.,1.));
#179 = DIRECTION('',(1.,0.,0.));
#180 = ORIENTED_EDGE('',*,*,#181,.T.);
#181 = EDGE_CURVE('',#173,#22,#182,.T.);
#182 = LINE('',#183,#184);
#183 = CARTESIAN_POINT('',(38.9,0.,146.90625));
#184 = VECTOR('',#185,1.);
#185 = DIRECTION('',(0.707106781187,0.,0.707106781187));
#186 = ORIENTED_EDGE('',*,*,#32,.F.);
#187 = ORIENTED_EDGE('',*,*,#181,.F.);
#188 = CONICAL_SURFACE('',#189,38.9,0.785398163397);
#189 = AXIS2_PLACEMENT_3D('',#190,#191,#192);
#190 = CARTESIAN_POINT('',(0.,0.,146.90625));
#191 = DIRECTION('',(0.,0.,1.));
#192 = DIRECTION('',(1.,0.,0.));
#193 = ADVANCED_FACE('',(#194),#213,.F.);
#194 = FACE_BOUND('',#195,.T.);
#195 = EDGE_LOOP('',(#196,#204,#205,#206));
#196 = ORIENTED_EDGE('',*,*,#197,.F.);
#197 = EDGE_CURVE('',#76,#198,#200,.T.);
#198 = VERTEX_POINT('',#199);
#199 = CARTESIAN_POINT('',(22.25,0.,146.90625));
#200 = LINE('',#201,#202);
#201 = CARTESIAN_POINT('',(22.25,0.,153.90625));
#202 = VECTOR('',#203,1.);
#203 = DIRECTION('',(0.,0.,-1.));
#204 = ORIENTED_EDGE('',*,*,#83,.T.);
#205 = ORIENTED_EDGE('',*,*,#197,.T.);
#206 = ORIENTED_EDGE('',*,*,#207,.F.);
#207 = EDGE_CURVE('',#198,#198,#208,.T.);
#208 = CIRCLE('',#209,22.25);
#209 = AXIS2_PLACEMENT_3D('',#210,#211,#212);
#210 = CARTESIAN_POINT('',(0.,0.,146.90625));
#211 = DIRECTION('',(0.,0.,1.));
#212 = DIRECTION('',(1.,0.,0.));
#213 = CYLINDRICAL_SURFACE('',#214,22.25);
#214 = AXIS2_PLACEMENT_3D('',#215,#216,#217);
#215 = CARTESIAN_POINT('',(0.,0.,153.90625));
#216 = DIRECTION('',(-0.,-0.,-1.));
#217 = DIRECTION('',(1.,0.,0.));
#218 = ADVANCED_FACE('',(#219,#222,#233,#244,#247),#258,.F.);
#219 = FACE_BOUND('',#220,.T.);
#220 = EDGE_LOOP('',(#221));
#221 = ORIENTED_EDGE('',*,*,#172,.F.);
#222 = FACE_BOUND('',#223,.T.);
#223 = EDGE_LOOP('',(#224));
#224 = ORIENTED_EDGE('',*,*,#225,.T.);
#225 = EDGE_CURVE('',#226,#226,#228,.T.);
#226 = VERTEX_POINT('',#227);
#227 = CARTESIAN_POINT('',(1.05,-24.5,146.90625));
#228 = CIRCLE('',#229,1.05);
#229 = AXIS2_PLACEMENT_3D('',#230,#231,#232);
#230 = CARTESIAN_POINT('',(-4.5E-15,-24.5,146.90625));
#231 = DIRECTION('',(0.,0.,1.));
#232 = DIRECTION('',(1.,0.,0.));
#233 = FACE_BOUND('',#234,.T.);
#234 = EDGE_LOOP('',(#235));
#235 = ORIENTED_EDGE('',*,*,#236,.T.);
#236 = EDGE_CURVE('',#237,#237,#239,.T.);
#237 = VERTEX_POINT('',#238);
#238 = CARTESIAN_POINT('',(22.267622392719,12.25,146.90625));
#239 = CIRCLE('',#240,1.05);
#240 = AXIS2_PLACEMENT_3D('',#241,#242,#243);
#241 = CARTESIAN_POINT('',(21.217622392719,12.25,146.90625));
#242 = DIRECTION('',(0.,0.,1.));
#243 = DIRECTION('',(1.,0.,0.));
#244 = FACE_BOUND('',#245,.T.);
#245 = EDGE_LOOP('',(#246));
#246 = ORIENTED_EDGE('',*,*,#207,.T.);
#247 = FACE_BOUND('',#248,.T.);
#248 = EDGE_LOOP('',(#249));
#249 = ORIENTED_EDGE('',*,*,#250,.T.);
#250 = EDGE_CURVE('',#251,#251,#253,.T.);
#251 = VERTEX_POINT('',#252);
#252 = CARTESIAN_POINT('',(-20.16762239271,12.25,146.90625));
#253 = CIRCLE('',#254,1.05);
#254 = AXIS2_PLACEMENT_3D('',#255,#256,#257);
#255 = CARTESIAN_POINT('',(-21.21762239271,12.25,146.90625));
#256 = DIRECTION('',(0.,0.,1.));
#257 = DIRECTION('',(1.,0.,0.));
#258 = PLANE('',#259);
#259 = AXIS2_PLACEMENT_3D('',#260,#261,#262);
#260 = CARTESIAN_POINT('',(0.,0.,146.90625));
#261 = DIRECTION('',(0.,0.,1.));
#262 = DIRECTION('',(1.,0.,0.));
#263 = ADVANCED_FACE('',(#264),#283,.F.);
#264 = FACE_BOUND('',#265,.F.);
#265 = EDGE_LOOP('',(#266,#274,#281,#282));
#266 = ORIENTED_EDGE('',*,*,#267,.T.);
#267 = EDGE_CURVE('',#226,#268,#270,.T.);
#268 = VERTEX_POINT('',#269);
#269 = CARTESIAN_POINT('',(1.05,-24.5,152.39625));
#270 = LINE('',#271,#272);
#271 = CARTESIAN_POINT('',(1.05,-24.5,146.89625));
#272 = VECTOR('',#273,1.);
#273 = DIRECTION('',(0.,0.,1.));
#274 = ORIENTED_EDGE('',*,*,#275,.F.);
#275 = EDGE_CURVE('',#268,#268,#276,.T.);
#276 = CIRCLE('',#277,1.05);
#277 = AXIS2_PLACEMENT_3D('',#278,#279,#280);
#278 = CARTESIAN_POINT('',(-4.5E-15,-24.5,152.39625));
#279 = DIRECTION('',(0.,0.,1.));
#280 = DIRECTION('',(1.,0.,0.));
#281 = ORIENTED_EDGE('',*,*,#267,.F.);
#282 = ORIENTED_EDGE('',*,*,#225,.T.);
#283 = CYLINDRICAL_SURFACE('',#284,1.05);
#284 = AXIS2_PLACEMENT_3D('',#285,#286,#287);
#285 = CARTESIAN_POINT('',(-4.5E-15,-24.5,146.89625));
#286 = DIRECTION('',(0.,0.,1.));
#287 = DIRECTION('',(1.,0.,0.));
#288 = ADVANCED_FACE('',(#289),#308,.F.);
#289 = FACE_BOUND('',#290,.F.);
#290 = EDGE_LOOP('',(#291,#299,#306,#307));
#291 = ORIENTED_EDGE('',*,*,#292,.T.);
#292 = EDGE_CURVE('',#237,#293,#295,.T.);
#293 = VERTEX_POINT('',#294);
#294 = CARTESIAN_POINT('',(22.267622392719,12.25,152.39625));
#295 = LINE('',#296,#297);
#296 = CARTESIAN_POINT('',(22.267622392719,12.25,146.89625));
#297 = VECTOR('',#298,1.);
#298 = DIRECTION('',(0.,0.,1.));
#299 = ORIENTED_EDGE('',*,*,#300,.F.);
#300 = EDGE_CURVE('',#293,#293,#301,.T.);
#301 = CIRCLE('',#302,1.05);
#302 = AXIS2_PLACEMENT_3D('',#303,#304,#305);
#303 = CARTESIAN_POINT('',(21.217622392719,12.25,152.39625));
#304 = DIRECTION('',(0.,0.,1.));
#305 = DIRECTION('',(1.,0.,0.));
#306 = ORIENTED_EDGE('',*,*,#292,.F.);
#307 = ORIENTED_EDGE('',*,*,#236,.T.);
#308 = CYLINDRICAL_SURFACE('',#309,1.05);
#309 = AXIS2_PLACEMENT_3D('',#310,#311,#312);
#310 = CARTESIAN_POINT('',(21.217622392719,12.25,146.89625));
#311 = DIRECTION('',(0.,0.,1.));
#312 = DIRECTION('',(1.,0.,0.));
#313 = ADVANCED_FACE('',(#314),#333,.F.);
#314 = FACE_BOUND('',#315,.F.);
#315 = EDGE_LOOP('',(#316,#324,#331,#332));
#316 = ORIENTED_EDGE('',*,*,#317,.T.);
#317 = EDGE_CURVE('',#251,#318,#320,.T.);
#318 = VERTEX_POINT('',#319);
#319 = CARTESIAN_POINT('',(-20.16762239271,12.25,152.39625));
#320 = LINE('',#321,#322);
#321 = CARTESIAN_POINT('',(-20.16762239271,12.25,146.89625));
#322 = VECTOR('',#323,1.);
#323 = DIRECTION('',(0.,0.,1.));
#324 = ORIENTED_EDGE('',*,*,#325,.F.);
#325 = EDGE_CURVE('',#318,#318,#326,.T.);
#326 = CIRCLE('',#327,1.05);
#327 = AXIS2_PLACEMENT_3D('',#328,#329,#330);
#328 = CARTESIAN_POINT('',(-21.21762239271,12.25,152.39625));
#329 = DIRECTION('',(0.,0.,1.));
#330 = DIRECTION('',(1.,0.,0.));
#331 = ORIENTED_EDGE('',*,*,#317,.F.);
#332 = ORIENTED_EDGE('',*,*,#250,.T.);
#333 = CYLINDRICAL_SURFACE('',#334,1.05);
#334 = AXIS2_PLACEMENT_3D('',#335,#336,#337);
#335 = CARTESIAN_POINT('',(-21.21762239271,12.25,146.89625));
#336 = DIRECTION('',(0.,0.,1.));
#337 = DIRECTION('',(1.,0.,0.));
#338 = ADVANCED_FACE('',(#339),#342,.F.);
#339 = FACE_BOUND('',#340,.F.);
#340 = EDGE_LOOP('',(#341));
#341 = ORIENTED_EDGE('',*,*,#275,.T.);
#342 = PLANE('',#343);
#343 = AXIS2_PLACEMENT_3D('',#344,#345,#346);
#344 = CARTESIAN_POINT('',(-4.5E-15,-24.5,152.39625));
#345 = DIRECTION('',(0.,0.,1.));
#346 = DIRECTION('',(1.,0.,0.));
#347 = ADVANCED_FACE('',(#348),#351,.F.);
#348 = FACE_BOUND('',#349,.F.);
#349 = EDGE_LOOP('',(#350));
#350 = ORIENTED_EDGE('',*,*,#300,.T.);
#351 = PLANE('',#352);
#352 = AXIS2_PLACEMENT_3D('',#353,#354,#355);
#353 = CARTESIAN_POINT('',(21.217622392719,12.25,152.39625));
#354 = DIRECTION('',(0.,0.,1.));
#355 = DIRECTION('',(1.,0.,0.));
#356 = ADVANCED_FACE('',(#357),#360,.F.);
#357 = FACE_BOUND('',#358,.F.);
#358 = EDGE_LOOP('',(#359));
#359 = ORIENTED_EDGE('',*,*,#325,.T.);
#360 = PLANE('',#361);
#361 = AXIS2_PLACEMENT_3D('',#362,#363,#364);
#362 = CARTESIAN_POINT('',(-21.21762239271,12.25,152.39625));
#363 = DIRECTION('',(0.,0.,1.));
#364 = DIRECTION('',(1.,0.,0.));
#365 = ( GEOMETRIC_REPRESENTATION_CONTEXT(3) 
GLOBAL_UNCERTAINTY_ASSIGNED_CONTEXT((#369)) GLOBAL_UNIT_ASSIGNED_CONTEXT
((#366,#367,#368)) REPRESENTATION_CONTEXT('Context #1',
  '3D Context with UNIT and UNCERTAINTY') );
#366 = ( LENGTH_UNIT() NAMED_UNIT(*) SI_UNIT(.MILLI.,.METRE.) );
#367 = ( NAMED_UNIT(*) PLANE_ANGLE_UNIT() SI_UNIT($,.RADIAN.) );
#368 = ( NAMED_UNIT(*) SI_UNIT($,.STERADIAN.) SOLID_ANGLE_UNIT() );
#369 = UNCERTAINTY_MEASURE_WITH_UNIT(LENGTH_MEASURE(2.E-06),#366,
  'distance_accuracy_value','confusion accuracy');
#370 = PRODUCT_RELATED_PRODUCT_CATEGORY('part',$,(#7));
ENDSEC;
END-ISO-10303-21;
