ISO-10303-21;
HEADER;
FILE_DESCRIPTION(('FreeCAD Model'),'2;1');
FILE_NAME('Open CASCADE Shape Model','2026-10-04T22:13:21',('FreeCAD'),(
    'FreeCAD'),'Open CASCADE STEP processor 7.8','FreeCAD','Unknown');
FILE_SCHEMA(('AUTOMOTIVE_DESIGN { 1 0 10303 214 1 1 1 1 }'));
ENDSEC;
DATA;
#1 = APPLICATION_PROTOCOL_DEFINITION('international standard',
  'automotive_design',2000,#2);
#2 = APPLICATION_CONTEXT(
  'core data for automotive mechanical design processes');
#3 = SHAPE_DEFINITION_REPRESENTATION(#4,#10);
#4 = PRODUCT_DEFINITION_SHAPE('','',#5);
#5 = PRODUCT_DEFINITION('design','',#6,#9);
#6 = PRODUCT_DEFINITION_FORMATION('','',#7);
#7 = PRODUCT('Open CASCADE STEP translator 7.8 6',
  'Open CASCADE STEP translator 7.8 6','',(#8));
#8 = PRODUCT_CONTEXT('',#2,'mechanical');
#9 = PRODUCT_DEFINITION_CONTEXT('part definition',#2,'design');
#10 = ADVANCED_BREP_SHAPE_REPRESENTATION('',(#11,#15),#491);
#11 = AXIS2_PLACEMENT_3D('',#12,#13,#14);
#12 = CARTESIAN_POINT('',(0.,0.,0.));
#13 = DIRECTION('',(0.,0.,1.));
#14 = DIRECTION('',(1.,0.,-0.));
#15 = MANIFOLD_SOLID_BREP('',#16);
#16 = CLOSED_SHELL('',(#17,#68,#94,#175,#206,#226,#242,#259,#270,#290,
    #423,#448,#473,#482));
#17 = ADVANCED_FACE('',(#18),#63,.T.);
#18 = FACE_BOUND('',#19,.T.);
#19 = EDGE_LOOP('',(#20,#29,#37,#46,#55,#62));
#20 = ORIENTED_EDGE('',*,*,#21,.T.);
#21 = EDGE_CURVE('',#22,#22,#24,.T.);
#22 = VERTEX_POINT('',#23);
#23 = CARTESIAN_POINT('',(33.7,0.,1.));
#24 = CIRCLE('',#25,33.7);
#25 = AXIS2_PLACEMENT_3D('',#26,#27,#28);
#26 = CARTESIAN_POINT('',(0.,0.,1.));
#27 = DIRECTION('',(0.,0.,1.));
#28 = DIRECTION('',(1.,0.,0.));
#29 = ORIENTED_EDGE('',*,*,#30,.T.);
#30 = EDGE_CURVE('',#22,#31,#33,.T.);
#31 = VERTEX_POINT('',#32);
#32 = CARTESIAN_POINT('',(33.7,0.,33.5));
#33 = LINE('',#34,#35);
#34 = CARTESIAN_POINT('',(33.7,-8.25E-15,0.));
#35 = VECTOR('',#36,1.);
#36 = DIRECTION('',(0.,0.,1.));
#37 = ORIENTED_EDGE('',*,*,#38,.F.);
#38 = EDGE_CURVE('',#39,#31,#41,.T.);
#39 = VERTEX_POINT('',#40);
#40 = CARTESIAN_POINT('',(-0.6,33.694658330364,33.5));
#41 = CIRCLE('',#42,33.7);
#42 = AXIS2_PLACEMENT_3D('',#43,#44,#45);
#43 = CARTESIAN_POINT('',(0.,0.,33.5));
#44 = DIRECTION('',(0.,0.,1.));
#45 = DIRECTION('',(1.,0.,0.));
#46 = ORIENTED_EDGE('',*,*,#47,.F.);
#47 = EDGE_CURVE('',#48,#39,#50,.T.);
#48 = VERTEX_POINT('',#49);
#49 = CARTESIAN_POINT('',(0.599999999999,33.694658330365,33.5));
#50 = CIRCLE('',#51,33.7);
#51 = AXIS2_PLACEMENT_3D('',#52,#53,#54);
#52 = CARTESIAN_POINT('',(0.,0.,33.5));
#53 = DIRECTION('',(0.,0.,1.));
#54 = DIRECTION('',(1.,0.,0.));
#55 = ORIENTED_EDGE('',*,*,#56,.F.);
#56 = EDGE_CURVE('',#31,#48,#57,.T.);
#57 = CIRCLE('',#58,33.7);
#58 = AXIS2_PLACEMENT_3D('',#59,#60,#61);
#59 = CARTESIAN_POINT('',(0.,0.,33.5));
#60 = DIRECTION('',(0.,0.,1.));
#61 = DIRECTION('',(1.,0.,0.));
#62 = ORIENTED_EDGE('',*,*,#30,.F.);
#63 = CYLINDRICAL_SURFACE('',#64,33.7);
#64 = AXIS2_PLACEMENT_3D('',#65,#66,#67);
#65 = CARTESIAN_POINT('',(0.,0.,0.));
#66 = DIRECTION('',(0.,0.,1.));
#67 = DIRECTION('',(1.,0.,0.));
#68 = ADVANCED_FACE('',(#69),#89,.T.);
#69 = FACE_BOUND('',#70,.F.);
#70 = EDGE_LOOP('',(#71,#80,#81,#82));
#71 = ORIENTED_EDGE('',*,*,#72,.F.);
#72 = EDGE_CURVE('',#22,#73,#75,.T.);
#73 = VERTEX_POINT('',#74);
#74 = CARTESIAN_POINT('',(32.7,0.,0.));
#75 = CIRCLE('',#76,1.);
#76 = AXIS2_PLACEMENT_3D('',#77,#78,#79);
#77 = CARTESIAN_POINT('',(32.7,0.,1.));
#78 = DIRECTION('',(-0.,1.,0.));
#79 = DIRECTION('',(1.,0.,0.));
#80 = ORIENTED_EDGE('',*,*,#21,.F.);
#81 = ORIENTED_EDGE('',*,*,#72,.T.);
#82 = ORIENTED_EDGE('',*,*,#83,.T.);
#83 = EDGE_CURVE('',#73,#73,#84,.T.);
#84 = CIRCLE('',#85,32.7);
#85 = AXIS2_PLACEMENT_3D('',#86,#87,#88);
#86 = CARTESIAN_POINT('',(0.,0.,0.));
#87 = DIRECTION('',(0.,0.,1.));
#88 = DIRECTION('',(1.,0.,0.));
#89 = TOROIDAL_SURFACE('',#90,32.7,1.);
#90 = AXIS2_PLACEMENT_3D('',#91,#92,#93);
#91 = CARTESIAN_POINT('',(0.,0.,1.));
#92 = DIRECTION('',(-0.,-0.,-1.));
#93 = DIRECTION('',(1.,0.,0.));
#94 = ADVANCED_FACE('',(#95),#170,.T.);
#95 = FACE_BOUND('',#96,.T.);
#96 = EDGE_LOOP('',(#97,#120,#121,#130,#137,#138,#139,#162));
#97 = ORIENTED_EDGE('',*,*,#98,.F.);
#98 = EDGE_CURVE('',#39,#99,#101,.T.);
#99 = VERTEX_POINT('',#100);
#100 = CARTESIAN_POINT('',(-0.6,33.2,34.362872740318));
#101 = B_SPLINE_CURVE_WITH_KNOTS('',5,(#102,#103,#104,#105,#106,#107,
    #108,#109,#110,#111,#112,#113,#114,#115,#116,#117,#118,#119),
  .UNSPECIFIED.,.F.,.F.,(6,4,4,4,6),(0.,0.305243860373,0.608367869183,
    0.960937606942,1.),.UNSPECIFIED.);
#102 = CARTESIAN_POINT('',(-0.6,33.694658330364,33.5));
#103 = CARTESIAN_POINT('',(-0.6,33.694658330364,33.573712225248));
#104 = CARTESIAN_POINT('',(-0.6,33.687865238531,33.64742650255));
#105 = CARTESIAN_POINT('',(-0.6,33.674279256955,33.720302346439));
#106 = CARTESIAN_POINT('',(-0.6,33.654054592204,33.791513009503));
#107 = CARTESIAN_POINT('',(-0.6,33.601117878366,33.928558413264));
#108 = CARTESIAN_POINT('',(-0.6,33.568492087825,33.994430790505));
#109 = CARTESIAN_POINT('',(-0.6,33.529913468752,34.057124037504));
#110 = CARTESIAN_POINT('',(-0.6,33.485813728069,34.115936965128));
#111 = CARTESIAN_POINT('',(-0.6,33.379670955071,34.233441956007));
#112 = CARTESIAN_POINT('',(-0.6,33.315869727615,34.290554359669));
#113 = CARTESIAN_POINT('',(-0.6,33.246211284758,34.340633592018));
#114 = CARTESIAN_POINT('',(-0.6,33.171750684973,34.382921583545));
#115 = CARTESIAN_POINT('',(-0.6,33.085027676698,34.420664923287));
#116 = CARTESIAN_POINT('',(-0.6,33.076333316864,34.42432756598));
#117 = CARTESIAN_POINT('',(-0.6,33.067596166276,34.42788753993));
#118 = CARTESIAN_POINT('',(-0.6,33.058817845134,34.431344185377));
#119 = CARTESIAN_POINT('',(-0.6,33.05,34.434696876746));
#120 = ORIENTED_EDGE('',*,*,#38,.T.);
#121 = ORIENTED_EDGE('',*,*,#122,.T.);
#122 = EDGE_CURVE('',#31,#123,#125,.T.);
#123 = VERTEX_POINT('',#124);
#124 = CARTESIAN_POINT('',(32.7,0.,34.5));
#125 = CIRCLE('',#126,1.);
#126 = AXIS2_PLACEMENT_3D('',#127,#128,#129);
#127 = CARTESIAN_POINT('',(32.7,0.,33.5));
#128 = DIRECTION('',(0.,-1.,0.));
#129 = DIRECTION('',(1.,0.,0.));
#130 = ORIENTED_EDGE('',*,*,#131,.F.);
#131 = EDGE_CURVE('',#123,#123,#132,.T.);
#132 = CIRCLE('',#133,32.7);
#133 = AXIS2_PLACEMENT_3D('',#134,#135,#136);
#134 = CARTESIAN_POINT('',(0.,0.,34.5));
#135 = DIRECTION('',(0.,0.,1.));
#136 = DIRECTION('',(1.,0.,0.));
#137 = ORIENTED_EDGE('',*,*,#122,.F.);
#138 = ORIENTED_EDGE('',*,*,#56,.T.);
#139 = ORIENTED_EDGE('',*,*,#140,.T.);
#140 = EDGE_CURVE('',#48,#141,#143,.T.);
#141 = VERTEX_POINT('',#142);
#142 = CARTESIAN_POINT('',(0.6,33.2,34.362872740318));
#143 = B_SPLINE_CURVE_WITH_KNOTS('',5,(#144,#145,#146,#147,#148,#149,
    #150,#151,#152,#153,#154,#155,#156,#157,#158,#159,#160,#161),
  .UNSPECIFIED.,.F.,.F.,(6,4,4,4,6),(0.,0.305243860373,0.608367869183,
    0.960937606942,1.),.UNSPECIFIED.);
#144 = CARTESIAN_POINT('',(0.6,33.694658330364,33.5));
#145 = CARTESIAN_POINT('',(0.6,33.694658330364,33.573712225248));
#146 = CARTESIAN_POINT('',(0.6,33.687865238531,33.64742650255));
#147 = CARTESIAN_POINT('',(0.6,33.674279256955,33.720302346439));
#148 = CARTESIAN_POINT('',(0.6,33.654054592204,33.791513009503));
#149 = CARTESIAN_POINT('',(0.6,33.601117878366,33.928558413264));
#150 = CARTESIAN_POINT('',(0.6,33.568492087825,33.994430790505));
#151 = CARTESIAN_POINT('',(0.6,33.529913468752,34.057124037504));
#152 = CARTESIAN_POINT('',(0.6,33.485813728069,34.115936965128));
#153 = CARTESIAN_POINT('',(0.6,33.379670955071,34.233441956007));
#154 = CARTESIAN_POINT('',(0.6,33.315869727615,34.290554359669));
#155 = CARTESIAN_POINT('',(0.6,33.246211284758,34.340633592018));
#156 = CARTESIAN_POINT('',(0.6,33.171750684973,34.382921583545));
#157 = CARTESIAN_POINT('',(0.6,33.085027676698,34.420664923287));
#158 = CARTESIAN_POINT('',(0.6,33.076333316864,34.42432756598));
#159 = CARTESIAN_POINT('',(0.6,33.067596166276,34.42788753993));
#160 = CARTESIAN_POINT('',(0.6,33.058817845134,34.431344185377));
#161 = CARTESIAN_POINT('',(0.6,33.05,34.434696876746));
#162 = ORIENTED_EDGE('',*,*,#163,.T.);
#163 = EDGE_CURVE('',#141,#99,#164,.T.);
#164 = B_SPLINE_CURVE_WITH_KNOTS('',4,(#165,#166,#167,#168,#169),
  .UNSPECIFIED.,.F.,.F.,(5,5),(0.,1.),.PIECEWISE_BEZIER_KNOTS.);
#165 = CARTESIAN_POINT('',(0.72,33.2,34.361471270756));
#166 = CARTESIAN_POINT('',(0.360095784643,33.2,34.36607104522));
#167 = CARTESIAN_POINT('',(-1.8728240114E-07,33.2,34.367482523483));
#168 = CARTESIAN_POINT('',(-0.360095593819,33.2,34.366071047659));
#169 = CARTESIAN_POINT('',(-0.72,33.2,34.361471270756));
#170 = TOROIDAL_SURFACE('',#171,32.7,1.);
#171 = AXIS2_PLACEMENT_3D('',#172,#173,#174);
#172 = CARTESIAN_POINT('',(0.,0.,33.5));
#173 = DIRECTION('',(0.,0.,1.));
#174 = DIRECTION('',(1.,0.,0.));
#175 = ADVANCED_FACE('',(#176),#201,.T.);
#176 = FACE_BOUND('',#177,.T.);
#177 = EDGE_LOOP('',(#178,#186,#194,#200));
#178 = ORIENTED_EDGE('',*,*,#179,.F.);
#179 = EDGE_CURVE('',#180,#39,#182,.T.);
#180 = VERTEX_POINT('',#181);
#181 = CARTESIAN_POINT('',(-0.6,33.2,33.5));
#182 = LINE('',#183,#184);
#183 = CARTESIAN_POINT('',(-0.6,33.2,33.5));
#184 = VECTOR('',#185,1.);
#185 = DIRECTION('',(0.,1.,0.));
#186 = ORIENTED_EDGE('',*,*,#187,.F.);
#187 = EDGE_CURVE('',#188,#180,#190,.T.);
#188 = VERTEX_POINT('',#189);
#189 = CARTESIAN_POINT('',(0.6,33.2,33.5));
#190 = LINE('',#191,#192);
#191 = CARTESIAN_POINT('',(0.6,33.2,33.5));
#192 = VECTOR('',#193,1.);
#193 = DIRECTION('',(-1.,0.,0.));
#194 = ORIENTED_EDGE('',*,*,#195,.T.);
#195 = EDGE_CURVE('',#188,#48,#196,.T.);
#196 = LINE('',#197,#198);
#197 = CARTESIAN_POINT('',(0.6,33.2,33.5));
#198 = VECTOR('',#199,1.);
#199 = DIRECTION('',(0.,1.,0.));
#200 = ORIENTED_EDGE('',*,*,#47,.T.);
#201 = PLANE('',#202);
#202 = AXIS2_PLACEMENT_3D('',#203,#204,#205);
#203 = CARTESIAN_POINT('',(0.6,33.2,33.5));
#204 = DIRECTION('',(0.,0.,1.));
#205 = DIRECTION('',(0.,1.,0.));
#206 = ADVANCED_FACE('',(#207,#210),#221,.F.);
#207 = FACE_BOUND('',#208,.F.);
#208 = EDGE_LOOP('',(#209));
#209 = ORIENTED_EDGE('',*,*,#83,.T.);
#210 = FACE_BOUND('',#211,.F.);
#211 = EDGE_LOOP('',(#212));
#212 = ORIENTED_EDGE('',*,*,#213,.F.);
#213 = EDGE_CURVE('',#214,#214,#216,.T.);
#214 = VERTEX_POINT('',#215);
#215 = CARTESIAN_POINT('',(31.7,-8.E-15,0.));
#216 = CIRCLE('',#217,31.7);
#217 = AXIS2_PLACEMENT_3D('',#218,#219,#220);
#218 = CARTESIAN_POINT('',(0.,0.,0.));
#219 = DIRECTION('',(0.,0.,1.));
#220 = DIRECTION('',(1.,0.,0.));
#221 = PLANE('',#222);
#222 = AXIS2_PLACEMENT_3D('',#223,#224,#225);
#223 = CARTESIAN_POINT('',(0.,0.,0.));
#224 = DIRECTION('',(0.,0.,1.));
#225 = DIRECTION('',(1.,0.,0.));
#226 = ADVANCED_FACE('',(#227),#237,.F.);
#227 = FACE_BOUND('',#228,.F.);
#228 = EDGE_LOOP('',(#229,#230,#236));
#229 = ORIENTED_EDGE('',*,*,#179,.F.);
#230 = ORIENTED_EDGE('',*,*,#231,.T.);
#231 = EDGE_CURVE('',#180,#99,#232,.T.);
#232 = LINE('',#233,#234);
#233 = CARTESIAN_POINT('',(-0.6,33.2,33.5));
#234 = VECTOR('',#235,1.);
#235 = DIRECTION('',(0.,0.,1.));
#236 = ORIENTED_EDGE('',*,*,#98,.F.);
#237 = PLANE('',#238);
#238 = AXIS2_PLACEMENT_3D('',#239,#240,#241);
#239 = CARTESIAN_POINT('',(-0.6,33.2,33.5));
#240 = DIRECTION('',(-1.,0.,0.));
#241 = DIRECTION('',(0.,0.,1.));
#242 = ADVANCED_FACE('',(#243),#254,.T.);
#243 = FACE_BOUND('',#244,.T.);
#244 = EDGE_LOOP('',(#245,#251,#252,#253));
#245 = ORIENTED_EDGE('',*,*,#246,.F.);
#246 = EDGE_CURVE('',#188,#141,#247,.T.);
#247 = LINE('',#248,#249);
#248 = CARTESIAN_POINT('',(0.6,33.2,33.5));
#249 = VECTOR('',#250,1.);
#250 = DIRECTION('',(0.,0.,1.));
#251 = ORIENTED_EDGE('',*,*,#187,.T.);
#252 = ORIENTED_EDGE('',*,*,#231,.T.);
#253 = ORIENTED_EDGE('',*,*,#163,.F.);
#254 = PLANE('',#255);
#255 = AXIS2_PLACEMENT_3D('',#256,#257,#258);
#256 = CARTESIAN_POINT('',(0.6,33.2,33.5));
#257 = DIRECTION('',(0.,1.,0.));
#258 = DIRECTION('',(0.,0.,1.));
#259 = ADVANCED_FACE('',(#260),#265,.T.);
#260 = FACE_BOUND('',#261,.T.);
#261 = EDGE_LOOP('',(#262,#263,#264));
#262 = ORIENTED_EDGE('',*,*,#195,.F.);
#263 = ORIENTED_EDGE('',*,*,#246,.T.);
#264 = ORIENTED_EDGE('',*,*,#140,.F.);
#265 = PLANE('',#266);
#266 = AXIS2_PLACEMENT_3D('',#267,#268,#269);
#267 = CARTESIAN_POINT('',(0.6,33.2,33.5));
#268 = DIRECTION('',(-1.,0.,0.));
#269 = DIRECTION('',(0.,0.,1.));
#270 = ADVANCED_FACE('',(#271,#274),#285,.T.);
#271 = FACE_BOUND('',#272,.T.);
#272 = EDGE_LOOP('',(#273));
#273 = ORIENTED_EDGE('',*,*,#131,.T.);
#274 = FACE_BOUND('',#275,.T.);
#275 = EDGE_LOOP('',(#276));
#276 = ORIENTED_EDGE('',*,*,#277,.F.);
#277 = EDGE_CURVE('',#278,#278,#280,.T.);
#278 = VERTEX_POINT('',#279);
#279 = CARTESIAN_POINT('',(31.7,-8.E-15,34.5));
#280 = CIRCLE('',#281,31.7);
#281 = AXIS2_PLACEMENT_3D('',#282,#283,#284);
#282 = CARTESIAN_POINT('',(0.,0.,34.5));
#283 = DIRECTION('',(0.,0.,1.));
#284 = DIRECTION('',(1.,0.,0.));
#285 = PLANE('',#286);
#286 = AXIS2_PLACEMENT_3D('',#287,#288,#289);
#287 = CARTESIAN_POINT('',(0.,0.,34.5));
#288 = DIRECTION('',(0.,0.,1.));
#289 = DIRECTION('',(1.,0.,0.));
#290 = ADVANCED_FACE('',(#291,#302,#360),#418,.F.);
#291 = FACE_BOUND('',#292,.F.);
#292 = EDGE_LOOP('',(#293,#294,#300,#301));
#293 = ORIENTED_EDGE('',*,*,#213,.T.);
#294 = ORIENTED_EDGE('',*,*,#295,.T.);
#295 = EDGE_CURVE('',#214,#278,#296,.T.);
#296 = LINE('',#297,#298);
#297 = CARTESIAN_POINT('',(31.7,-7.76E-15,-1.));
#298 = VECTOR('',#299,1.);
#299 = DIRECTION('',(0.,0.,1.));
#300 = ORIENTED_EDGE('',*,*,#277,.F.);
#301 = ORIENTED_EDGE('',*,*,#295,.F.);
#302 = FACE_BOUND('',#303,.F.);
#303 = EDGE_LOOP('',(#304));
#304 = ORIENTED_EDGE('',*,*,#305,.F.);
#305 = EDGE_CURVE('',#306,#306,#308,.T.);
#306 = VERTEX_POINT('',#307);
#307 = CARTESIAN_POINT('',(-29.74084235253,-10.97143090765,13.706));
#308 = B_SPLINE_CURVE_WITH_KNOTS('',8,(#309,#310,#311,#312,#313,#314,
    #315,#316,#317,#318,#319,#320,#321,#322,#323,#324,#325,#326,#327,
    #328,#329,#330,#331,#332,#333,#334,#335,#336,#337,#338,#339,#340,
    #341,#342,#343,#344,#345,#346,#347,#348,#349,#350,#351,#352,#353,
    #354,#355,#356,#357,#358,#359),.UNSPECIFIED.,.T.,.F.,(9,7,7,7,7,7,7,
    9),(0.,0.173081274275,0.303014573361,0.414113204566,0.59890308178,
    0.754931425212,0.864027483383,1.),.UNSPECIFIED.);
#309 = CARTESIAN_POINT('',(-29.74084235253,-10.97143090765,13.706));
#310 = CARTESIAN_POINT('',(-29.74084235253,-10.97143090765,
    14.164745768396));
#311 = CARTESIAN_POINT('',(-29.76182090895,-10.91456398986,
    14.62214628304));
#312 = CARTESIAN_POINT('',(-29.80355902421,-10.80141766245,
    15.074706413908));
#313 = CARTESIAN_POINT('',(-29.86608860665,-10.63005416825,
    15.518382416393));
#314 = CARTESIAN_POINT('',(-29.94936886122,-10.39686668291,
    15.947158507608));
#315 = CARTESIAN_POINT('',(-30.05288001081,-10.09712214803,
    16.352142188537));
#316 = CARTESIAN_POINT('',(-30.17484001278,-9.725607648046,
    16.720374940323));
#317 = CARTESIAN_POINT('',(-30.41432747769,-8.943252965196,
    17.265726268714));
#318 = CARTESIAN_POINT('',(-30.52925588383,-8.552645581532,
    17.476428220479));
#319 = CARTESIAN_POINT('',(-30.65123683715,-8.11532131184,
    17.640455867732));
#320 = CARTESIAN_POINT('',(-30.77380423518,-7.644290060046,
    17.741786376441));
#321 = CARTESIAN_POINT('',(-30.8904071462,-7.156559764892,
    17.771734860103));
#322 = CARTESIAN_POINT('',(-30.99654757048,-6.670751080432,
    17.729011959231));
#323 = CARTESIAN_POINT('',(-31.08982698693,-6.205150879147,
    17.619943360709));
#324 = CARTESIAN_POINT('',(-31.23761788089,-5.407498889219,
    17.320951117488));
#325 = CARTESIAN_POINT('',(-31.2951880315,-5.069114332142,
    17.146255555401));
#326 = CARTESIAN_POINT('',(-31.34338459623,-4.761608586448,
    16.942036469909));
#327 = CARTESIAN_POINT('',(-31.38350723045,-4.485534741476,
    16.714390639267));
#328 = CARTESIAN_POINT('',(-31.4167620791,-4.240752316675,
    16.468432054362));
#329 = CARTESIAN_POINT('',(-31.44418696476,-4.026678575987,
    16.208476556432));
#330 = CARTESIAN_POINT('',(-31.46664904326,-3.842457018196,
    15.938155986327));
#331 = CARTESIAN_POINT('',(-31.51511406222,-3.428601052746,
    15.198635947711));
#332 = CARTESIAN_POINT('',(-31.53385443447,-3.247583273772,
    14.712318191325));
#333 = CARTESIAN_POINT('',(-31.54407033021,-3.140451730515,
    14.212313597189));
#334 = CARTESIAN_POINT('',(-31.54731658273,-3.104991687615,
    13.706000000002));
#335 = CARTESIAN_POINT('',(-31.54407033021,-3.140451730512,
    13.19968640281));
#336 = CARTESIAN_POINT('',(-31.53385443447,-3.247583273776,
    12.699681808669));
#337 = CARTESIAN_POINT('',(-31.51511406222,-3.428601052744,
    12.213364052293));
#338 = CARTESIAN_POINT('',(-31.45928978701,-3.905299706919,
    11.361550289597));
#339 = CARTESIAN_POINT('',(-31.42464063682,-4.186214943836,
    10.975689947514));
#340 = CARTESIAN_POINT('',(-31.37865346853,-4.533879250536,
    10.61088495496));
#341 = CARTESIAN_POINT('',(-31.31867749937,-4.948160372821,
    10.284253658279));
#342 = CARTESIAN_POINT('',(-31.24164406405,-5.424902241394,
    10.01302347834));
#343 = CARTESIAN_POINT('',(-31.14468813223,-5.956232770613,
    9.814470291505));
#344 = CARTESIAN_POINT('',(-31.02613636221,-6.530582872772,9.706));
#345 = CARTESIAN_POINT('',(-30.7906172977,-7.550728018625,9.706));
#346 = CARTESIAN_POINT('',(-30.68933685082,-7.959674753211,
    9.759030083515));
#347 = CARTESIAN_POINT('',(-30.58591723694,-8.350455726723,
    9.860969235131));
#348 = CARTESIAN_POINT('',(-30.48299267535,-8.716817285604,
    10.006480092635));
#349 = CARTESIAN_POINT('',(-30.38338433816,-9.053709180025,
    10.189054328505));
#350 = CARTESIAN_POINT('',(-30.28974414291,-9.357436882763,
    10.401061982027));
#351 = CARTESIAN_POINT('',(-30.20419229641,-9.625833341004,
    10.633804703909));
#352 = CARTESIAN_POINT('',(-30.03321430674,-10.14835390191,
    11.181394775739));
#353 = CARTESIAN_POINT('',(-29.95041588734,-10.39060418785,
    11.510657423436));
#354 = CARTESIAN_POINT('',(-29.88079919724,-10.58785762392,
    11.857520274429));
#355 = CARTESIAN_POINT('',(-29.82490179818,-10.74272457371,
    12.216492607019));
#356 = CARTESIAN_POINT('',(-29.78291841027,-10.85737415968,
    12.583560932415));
#357 = CARTESIAN_POINT('',(-29.75489097922,-10.93334816423,
    12.955712602478));
#358 = CARTESIAN_POINT('',(-29.74084235253,-10.97143090765,
    13.330588787876));
#359 = CARTESIAN_POINT('',(-29.74084235253,-10.97143090765,13.706));
#360 = FACE_BOUND('',#361,.F.);
#361 = EDGE_LOOP('',(#362));
#362 = ORIENTED_EDGE('',*,*,#363,.F.);
#363 = EDGE_CURVE('',#364,#364,#366,.T.);
#364 = VERTEX_POINT('',#365);
#365 = CARTESIAN_POINT('',(4.,31.446621440148,29.));
#366 = B_SPLINE_CURVE_WITH_KNOTS('',8,(#367,#368,#369,#370,#371,#372,
    #373,#374,#375,#376,#377,#378,#379,#380,#381,#382,#383,#384,#385,
    #386,#387,#388,#389,#390,#391,#392,#393,#394,#395,#396,#397,#398,
    #399,#400,#401,#402,#403,#404,#405,#406,#407,#408,#409,#410,#411,
    #412,#413,#414,#415,#416,#417),.UNSPECIFIED.,.T.,.F.,(9,7,7,7,7,7,7,
    9),(0.,0.173081275816,0.303014575441,0.414113206595,0.598903083722,
    0.754931427081,0.864027485201,1.),.UNSPECIFIED.);
#367 = CARTESIAN_POINT('',(4.,31.446621440148,29.));
#368 = CARTESIAN_POINT('',(4.,31.446621440148,28.541254231594));
#369 = CARTESIAN_POINT('',(3.939871429234,31.45427004441,28.083853716991
    ));
#370 = CARTESIAN_POINT('',(3.820236001866,31.469486028827,
    27.631293586058));
#371 = CARTESIAN_POINT('',(3.639198447345,31.49186458343,27.187617583612
    ));
#372 = CARTESIAN_POINT('',(3.393253561189,31.520554599777,
    26.758841492419));
#373 = CARTESIAN_POINT('',(3.077906516981,31.553984916162,
    26.353857811438));
#374 = CARTESIAN_POINT('',(2.688478878582,31.589246512699,
    25.985625059685));
#375 = CARTESIAN_POINT('',(1.872302939473,31.64660441851,25.440273732389
    ));
#376 = CARTESIAN_POINT('',(1.465853521254,31.670719674743,
    25.229571775994));
#377 = CARTESIAN_POINT('',(1.012298129464,31.691197707693,
    25.065544137163));
#378 = CARTESIAN_POINT('',(0.525767664787,31.704664735314,
    24.964213620744));
#379 = CARTESIAN_POINT('',(2.430796676376E-02,31.708563676985,
    24.934265139317));
#380 = CARTESIAN_POINT('',(-0.472925904345,31.702700552974,
    24.976988042442));
#381 = CARTESIAN_POINT('',(-0.947576093941,31.688851968134,
    25.086056638545));
#382 = CARTESIAN_POINT('',(-1.758030034484,31.65342233484,
    25.385048882512));
#383 = CARTESIAN_POINT('',(-2.100692283363,31.633397003328,
    25.559744444599));
#384 = CARTESIAN_POINT('',(-2.41115854477,31.61118455152,25.763963530091
    ));
#385 = CARTESIAN_POINT('',(-2.68918226385,31.588175742715,
    25.991609360733));
#386 = CARTESIAN_POINT('',(-2.935171644229,31.565514207209,
    26.237567945638));
#387 = CARTESIAN_POINT('',(-3.149927945755,31.544080081145,
    26.497523443568));
#388 = CARTESIAN_POINT('',(-3.334480785198,31.524525624378,
    26.767844013673));
#389 = CARTESIAN_POINT('',(-3.748631906178,31.478651152267,
    27.507364052288));
#390 = CARTESIAN_POINT('',(-3.9292258777,31.456191069747,27.993681808677
    ));
#391 = CARTESIAN_POINT('',(-4.035909722962,31.442045779134,
    28.493686402812));
#392 = CARTESIAN_POINT('',(-4.071191175186,31.437232056378,
    28.999999999998));
#393 = CARTESIAN_POINT('',(-4.035909722964,31.442045779134,
    29.506313597189));
#394 = CARTESIAN_POINT('',(-3.929225877696,31.456191069748,
    30.006318191327));
#395 = CARTESIAN_POINT('',(-3.748631906181,31.478651152267,
    30.492635947707));
#396 = CARTESIAN_POINT('',(-3.271593278061,31.531491514475,
    31.344449710405));
#397 = CARTESIAN_POINT('',(-2.990083517605,31.560922598483,
    31.730310052477));
#398 = CARTESIAN_POINT('',(-2.640984962562,31.594321530685,
    32.095115045055));
#399 = CARTESIAN_POINT('',(-2.223830181098,31.629075716981,
    32.421746341708));
#400 = CARTESIAN_POINT('',(-1.741978423259,31.6612602296,32.692976521665
    ));
#401 = CARTESIAN_POINT('',(-1.202455521967,31.686312634786,
    32.891529708494));
#402 = CARTESIAN_POINT('',(-0.616157630072,31.7,33.));
#403 = CARTESIAN_POINT('',(0.430821523666,31.7,33.));
#404 = CARTESIAN_POINT('',(0.852070123249,31.693308363522,
    32.946969916485));
#405 = CARTESIAN_POINT('',(1.256099756908,31.680445979655,
    32.845030764869));
#406 = CARTESIAN_POINT('',(1.636224481417,31.662572786856,
    32.699519907365));
#407 = CARTESIAN_POINT('',(1.986888858883,31.641301591741,
    32.516945671495));
#408 = CARTESIAN_POINT('',(2.303896500927,31.618385255593,
    32.304938017973));
#409 = CARTESIAN_POINT('',(2.584658953402,31.595402163644,
    32.072195296091));
#410 = CARTESIAN_POINT('',(3.132249021312,31.546347880207,
    31.524605228181));
#411 = CARTESIAN_POINT('',(3.386916052837,31.520166034987,
    31.195342563698));
#412 = CARTESIAN_POINT('',(3.594774228325,31.496705986031,
    30.848479740473));
#413 = CARTESIAN_POINT('',(3.758246130914,31.477078716945,
    30.489507392447));
#414 = CARTESIAN_POINT('',(3.879401472262,31.461961904894,30.12243905272
    ));
#415 = CARTESIAN_POINT('',(3.959733058401,31.45174324845,29.750287411571
    ));
#416 = CARTESIAN_POINT('',(4.,31.446621440148,29.37541120741));
#417 = CARTESIAN_POINT('',(4.,31.446621440148,29.));
#418 = CYLINDRICAL_SURFACE('',#419,31.7);
#419 = AXIS2_PLACEMENT_3D('',#420,#421,#422);
#420 = CARTESIAN_POINT('',(0.,0.,-1.));
#421 = DIRECTION('',(0.,0.,1.));
#422 = DIRECTION('',(1.,0.,0.));
#423 = ADVANCED_FACE('',(#424),#443,.F.);
#424 = FACE_BOUND('',#425,.F.);
#425 = EDGE_LOOP('',(#426,#434,#441,#442));
#426 = ORIENTED_EDGE('',*,*,#427,.T.);
#427 = EDGE_CURVE('',#306,#428,#430,.T.);
#428 = VERTEX_POINT('',#429);
#429 = CARTESIAN_POINT('',(-31.15697091405,-11.29836994705,13.706));
#430 = LINE('',#431,#432);
#431 = CARTESIAN_POINT('',(-28.03898670674,-10.57852657315,13.706));
#432 = VECTOR('',#433,1.);
#433 = DIRECTION('',(-0.974370064785,-0.224951054344,0.));
#434 = ORIENTED_EDGE('',*,*,#435,.F.);
#435 = EDGE_CURVE('',#428,#428,#436,.T.);
#436 = CIRCLE('',#437,4.);
#437 = AXIS2_PLACEMENT_3D('',#438,#439,#440);
#438 = CARTESIAN_POINT('',(-32.05677513143,-7.400889687913,13.706));
#439 = DIRECTION('',(-0.974370064785,-0.224951054344,0.));
#440 = DIRECTION('',(0.224951054344,-0.974370064785,0.));
#441 = ORIENTED_EDGE('',*,*,#427,.F.);
#442 = ORIENTED_EDGE('',*,*,#305,.T.);
#443 = CYLINDRICAL_SURFACE('',#444,4.);
#444 = AXIS2_PLACEMENT_3D('',#445,#446,#447);
#445 = CARTESIAN_POINT('',(-28.93879092412,-6.681046314013,13.706));
#446 = DIRECTION('',(-0.974370064785,-0.224951054344,0.));
#447 = DIRECTION('',(0.224951054344,-0.974370064785,0.));
#448 = ADVANCED_FACE('',(#449),#468,.F.);
#449 = FACE_BOUND('',#450,.F.);
#450 = EDGE_LOOP('',(#451,#459,#466,#467));
#451 = ORIENTED_EDGE('',*,*,#452,.T.);
#452 = EDGE_CURVE('',#364,#453,#455,.T.);
#453 = VERTEX_POINT('',#454);
#454 = CARTESIAN_POINT('',(4.,32.9,29.));
#455 = LINE('',#456,#457);
#456 = CARTESIAN_POINT('',(4.,29.7,29.));
#457 = VECTOR('',#458,1.);
#458 = DIRECTION('',(6.E-17,1.,0.));
#459 = ORIENTED_EDGE('',*,*,#460,.F.);
#460 = EDGE_CURVE('',#453,#453,#461,.T.);
#461 = CIRCLE('',#462,4.);
#462 = AXIS2_PLACEMENT_3D('',#463,#464,#465);
#463 = CARTESIAN_POINT('',(2.01E-15,32.9,29.));
#464 = DIRECTION('',(6.E-17,1.,0.));
#465 = DIRECTION('',(1.,-6.E-17,0.));
#466 = ORIENTED_EDGE('',*,*,#452,.F.);
#467 = ORIENTED_EDGE('',*,*,#363,.T.);
#468 = CYLINDRICAL_SURFACE('',#469,4.);
#469 = AXIS2_PLACEMENT_3D('',#470,#471,#472);
#470 = CARTESIAN_POINT('',(1.82E-15,29.7,29.));
#471 = DIRECTION('',(6.E-17,1.,0.));
#472 = DIRECTION('',(1.,-6.E-17,0.));
#473 = ADVANCED_FACE('',(#474),#477,.F.);
#474 = FACE_BOUND('',#475,.F.);
#475 = EDGE_LOOP('',(#476));
#476 = ORIENTED_EDGE('',*,*,#435,.T.);
#477 = PLANE('',#478);
#478 = AXIS2_PLACEMENT_3D('',#479,#480,#481);
#479 = CARTESIAN_POINT('',(-32.05677513143,-7.400889687913,13.706));
#480 = DIRECTION('',(-0.974370064785,-0.224951054344,0.));
#481 = DIRECTION('',(0.224951054344,-0.974370064785,0.));
#482 = ADVANCED_FACE('',(#483),#486,.F.);
#483 = FACE_BOUND('',#484,.F.);
#484 = EDGE_LOOP('',(#485));
#485 = ORIENTED_EDGE('',*,*,#460,.T.);
#486 = PLANE('',#487);
#487 = AXIS2_PLACEMENT_3D('',#488,#489,#490);
#488 = CARTESIAN_POINT('',(2.01E-15,32.9,29.));
#489 = DIRECTION('',(6.E-17,1.,0.));
#490 = DIRECTION('',(1.,-6.E-17,0.));
#491 = ( GEOMETRIC_REPRESENTATION_CONTEXT(3) 
GLOBAL_UNCERTAINTY_ASSIGNED_CONTEXT((#495)) GLOBAL_UNIT_ASSIGNED_CONTEXT
((#492,#493,#494)) REPRESENTATION_CONTEXT('Context #1',
  '3D Context with UNIT and UNCERTAINTY') );
#492 = ( LENGTH_UNIT() NAMED_UNIT(*) SI_UNIT(.MILLI.,.METRE.) );
#493 = ( NAMED_UNIT(*) PLANE_ANGLE_UNIT() SI_UNIT($,.RADIAN.) );
#494 = ( NAMED_UNIT(*) SI_UNIT($,.STERADIAN.) SOLID_ANGLE_UNIT() );
#495 = UNCERTAINTY_MEASURE_WITH_UNIT(LENGTH_MEASURE(2.E-07),#492,
  'distance_accuracy_value','confusion accuracy');
#496 = PRODUCT_RELATED_PRODUCT_CATEGORY('part',$,(#7));
ENDSEC;
END-ISO-10303-21;
