ISO-10303-21;
HEADER;
FILE_DESCRIPTION(('FreeCAD Model'),'2;1');
FILE_NAME('Open CASCADE Shape Model','2026-10-04T22:13:21',('FreeCAD'),(
    'FreeCAD'),'Open CASCADE STEP processor 7.8','FreeCAD','Unknown');
FILE_SCHEMA(('AUTOMOTIVE_DESIGN { 1 0 10303 214 1 1 1 1 }'));
ENDSEC;
DATA;
#1 = APPLICATION_PROTOCOL_DEFINITION('international standard',
  'automotive_design',2000,#2);
#2 = APPLICATION_CONTEXT(
  'core data for automotive mechanical design processes');
#3 = SHAPE_DEFINITION_REPRESENTATION(#4,#10);
#4 = PRODUCT_DEFINITION_SHAPE('','',#5);
#5 = PRODUCT_DEFINITION('design','',#6,#9);
#6 = PRODUCT_DEFINITION_FORMATION('','',#7);
#7 = PRODUCT('Open CASCADE STEP translator 7.8 7',
  'Open CASCADE STEP translator 7.8 7','',(#8));
#8 = PRODUCT_CONTEXT('',#2,'mechanical');
#9 = PRODUCT_DEFINITION_CONTEXT('part definition',#2,'design');
#10 = ADVANCED_BREP_SHAPE_REPRESENTATION('',(#11,#15),#491);
#11 = AXIS2_PLACEMENT_3D('',#12,#13,#14);
#12 = CARTESIAN_POINT('',(0.,0.,0.));
#13 = DIRECTION('',(0.,0.,1.));
#14 = DIRECTION('',(1.,0.,-0.));
#15 = MANIFOLD_SOLID_BREP('',#16);
#16 = CLOSED_SHELL('',(#17,#68,#149,#180,#206,#222,#239,#250,#270,#290,
    #423,#448,#473,#482));
#17 = ADVANCED_FACE('',(#18),#63,.T.);
#18 = FACE_BOUND('',#19,.T.);
#19 = EDGE_LOOP('',(#20,#31,#39,#46,#47,#56));
#20 = ORIENTED_EDGE('',*,*,#21,.T.);
#21 = EDGE_CURVE('',#22,#24,#26,.T.);
#22 = VERTEX_POINT('',#23);
#23 = CARTESIAN_POINT('',(-0.6,33.694658330364,98.406));
#24 = VERTEX_POINT('',#25);
#25 = CARTESIAN_POINT('',(33.7,0.,98.406));
#26 = CIRCLE('',#27,33.7);
#27 = AXIS2_PLACEMENT_3D('',#28,#29,#30);
#28 = CARTESIAN_POINT('',(0.,0.,98.406));
#29 = DIRECTION('',(0.,0.,1.));
#30 = DIRECTION('',(1.,0.,0.));
#31 = ORIENTED_EDGE('',*,*,#32,.T.);
#32 = EDGE_CURVE('',#24,#33,#35,.T.);
#33 = VERTEX_POINT('',#34);
#34 = CARTESIAN_POINT('',(33.7,0.,128.906));
#35 = LINE('',#36,#37);
#36 = CARTESIAN_POINT('',(33.7,-8.25E-15,97.406));
#37 = VECTOR('',#38,1.);
#38 = DIRECTION('',(0.,0.,1.));
#39 = ORIENTED_EDGE('',*,*,#40,.F.);
#40 = EDGE_CURVE('',#33,#33,#41,.T.);
#41 = CIRCLE('',#42,33.7);
#42 = AXIS2_PLACEMENT_3D('',#43,#44,#45);
#43 = CARTESIAN_POINT('',(0.,0.,128.906));
#44 = DIRECTION('',(0.,0.,1.));
#45 = DIRECTION('',(1.,0.,0.));
#46 = ORIENTED_EDGE('',*,*,#32,.F.);
#47 = ORIENTED_EDGE('',*,*,#48,.T.);
#48 = EDGE_CURVE('',#24,#49,#51,.T.);
#49 = VERTEX_POINT('',#50);
#50 = CARTESIAN_POINT('',(0.599999999999,33.694658330365,98.406));
#51 = CIRCLE('',#52,33.7);
#52 = AXIS2_PLACEMENT_3D('',#53,#54,#55);
#53 = CARTESIAN_POINT('',(0.,0.,98.406));
#54 = DIRECTION('',(0.,0.,1.));
#55 = DIRECTION('',(1.,0.,0.));
#56 = ORIENTED_EDGE('',*,*,#57,.T.);
#57 = EDGE_CURVE('',#49,#22,#58,.T.);
#58 = CIRCLE('',#59,33.7);
#59 = AXIS2_PLACEMENT_3D('',#60,#61,#62);
#60 = CARTESIAN_POINT('',(0.,0.,98.406));
#61 = DIRECTION('',(0.,0.,1.));
#62 = DIRECTION('',(1.,0.,0.));
#63 = CYLINDRICAL_SURFACE('',#64,33.7);
#64 = AXIS2_PLACEMENT_3D('',#65,#66,#67);
#65 = CARTESIAN_POINT('',(0.,0.,97.406));
#66 = DIRECTION('',(0.,0.,1.));
#67 = DIRECTION('',(1.,0.,0.));
#68 = ADVANCED_FACE('',(#69),#144,.T.);
#69 = FACE_BOUND('',#70,.F.);
#70 = EDGE_LOOP('',(#71,#94,#95,#104,#111,#112,#113,#136));
#71 = ORIENTED_EDGE('',*,*,#72,.F.);
#72 = EDGE_CURVE('',#22,#73,#75,.T.);
#73 = VERTEX_POINT('',#74);
#74 = CARTESIAN_POINT('',(-0.6,33.2,97.543127259682));
#75 = B_SPLINE_CURVE_WITH_KNOTS('',5,(#76,#77,#78,#79,#80,#81,#82,#83,
    #84,#85,#86,#87,#88,#89,#90,#91,#92,#93),.UNSPECIFIED.,.F.,.F.,(6,4,
    4,4,6),(0.,0.305243860373,0.608367869183,0.960937606942,1.),
  .UNSPECIFIED.);
#76 = CARTESIAN_POINT('',(-0.6,33.694658330364,98.406));
#77 = CARTESIAN_POINT('',(-0.6,33.694658330364,98.332287774752));
#78 = CARTESIAN_POINT('',(-0.6,33.687865238531,98.25857349745));
#79 = CARTESIAN_POINT('',(-0.6,33.674279256955,98.185697653561));
#80 = CARTESIAN_POINT('',(-0.6,33.654054592204,98.114486990497));
#81 = CARTESIAN_POINT('',(-0.6,33.601117878366,97.977441586736));
#82 = CARTESIAN_POINT('',(-0.6,33.568492087825,97.911569209495));
#83 = CARTESIAN_POINT('',(-0.6,33.529913468752,97.848875962496));
#84 = CARTESIAN_POINT('',(-0.6,33.485813728069,97.790063034872));
#85 = CARTESIAN_POINT('',(-0.6,33.379670955071,97.672558043993));
#86 = CARTESIAN_POINT('',(-0.6,33.315869727615,97.615445640331));
#87 = CARTESIAN_POINT('',(-0.6,33.246211284758,97.565366407982));
#88 = CARTESIAN_POINT('',(-0.6,33.171750684973,97.523078416455));
#89 = CARTESIAN_POINT('',(-0.6,33.085027676698,97.485335076713));
#90 = CARTESIAN_POINT('',(-0.6,33.076333316864,97.48167243402));
#91 = CARTESIAN_POINT('',(-0.6,33.067596166276,97.47811246007));
#92 = CARTESIAN_POINT('',(-0.6,33.058817845134,97.474655814623));
#93 = CARTESIAN_POINT('',(-0.6,33.05,97.471303123254));
#94 = ORIENTED_EDGE('',*,*,#21,.T.);
#95 = ORIENTED_EDGE('',*,*,#96,.T.);
#96 = EDGE_CURVE('',#24,#97,#99,.T.);
#97 = VERTEX_POINT('',#98);
#98 = CARTESIAN_POINT('',(32.7,0.,97.406));
#99 = CIRCLE('',#100,1.);
#100 = AXIS2_PLACEMENT_3D('',#101,#102,#103);
#101 = CARTESIAN_POINT('',(32.7,0.,98.406));
#102 = DIRECTION('',(-0.,1.,0.));
#103 = DIRECTION('',(1.,0.,0.));
#104 = ORIENTED_EDGE('',*,*,#105,.F.);
#105 = EDGE_CURVE('',#97,#97,#106,.T.);
#106 = CIRCLE('',#107,32.7);
#107 = AXIS2_PLACEMENT_3D('',#108,#109,#110);
#108 = CARTESIAN_POINT('',(0.,0.,97.406));
#109 = DIRECTION('',(0.,0.,1.));
#110 = DIRECTION('',(1.,0.,0.));
#111 = ORIENTED_EDGE('',*,*,#96,.F.);
#112 = ORIENTED_EDGE('',*,*,#48,.T.);
#113 = ORIENTED_EDGE('',*,*,#114,.T.);
#114 = EDGE_CURVE('',#49,#115,#117,.T.);
#115 = VERTEX_POINT('',#116);
#116 = CARTESIAN_POINT('',(0.6,33.2,97.543127259682));
#117 = B_SPLINE_CURVE_WITH_KNOTS('',5,(#118,#119,#120,#121,#122,#123,
    #124,#125,#126,#127,#128,#129,#130,#131,#132,#133,#134,#135),
  .UNSPECIFIED.,.F.,.F.,(6,4,4,4,6),(0.,0.305243860373,0.608367869183,
    0.960937606942,1.),.UNSPECIFIED.);
#118 = CARTESIAN_POINT('',(0.6,33.694658330364,98.406));
#119 = CARTESIAN_POINT('',(0.6,33.694658330364,98.332287774752));
#120 = CARTESIAN_POINT('',(0.6,33.687865238531,98.25857349745));
#121 = CARTESIAN_POINT('',(0.6,33.674279256955,98.185697653561));
#122 = CARTESIAN_POINT('',(0.6,33.654054592204,98.114486990497));
#123 = CARTESIAN_POINT('',(0.6,33.601117878366,97.977441586736));
#124 = CARTESIAN_POINT('',(0.6,33.568492087825,97.911569209495));
#125 = CARTESIAN_POINT('',(0.6,33.529913468752,97.848875962496));
#126 = CARTESIAN_POINT('',(0.6,33.485813728069,97.790063034872));
#127 = CARTESIAN_POINT('',(0.6,33.379670955071,97.672558043993));
#128 = CARTESIAN_POINT('',(0.6,33.315869727615,97.615445640331));
#129 = CARTESIAN_POINT('',(0.6,33.246211284758,97.565366407982));
#130 = CARTESIAN_POINT('',(0.6,33.171750684973,97.523078416455));
#131 = CARTESIAN_POINT('',(0.6,33.085027676698,97.485335076713));
#132 = CARTESIAN_POINT('',(0.6,33.076333316864,97.48167243402));
#133 = CARTESIAN_POINT('',(0.6,33.067596166276,97.47811246007));
#134 = CARTESIAN_POINT('',(0.6,33.058817845134,97.474655814623));
#135 = CARTESIAN_POINT('',(0.6,33.05,97.471303123254));
#136 = ORIENTED_EDGE('',*,*,#137,.T.);
#137 = EDGE_CURVE('',#115,#73,#138,.T.);
#138 = B_SPLINE_CURVE_WITH_KNOTS('',4,(#139,#140,#141,#142,#143),
  .UNSPECIFIED.,.F.,.F.,(5,5),(0.,1.),.PIECEWISE_BEZIER_KNOTS.);
#139 = CARTESIAN_POINT('',(0.72,33.2,97.544528729244));
#140 = CARTESIAN_POINT('',(0.360095784643,33.2,97.53992895478));
#141 = CARTESIAN_POINT('',(-1.872823997E-07,33.2,97.538517476517));
#142 = CARTESIAN_POINT('',(-0.360095593819,33.2,97.539928952341));
#143 = CARTESIAN_POINT('',(-0.72,33.2,97.544528729244));
#144 = TOROIDAL_SURFACE('',#145,32.7,1.);
#145 = AXIS2_PLACEMENT_3D('',#146,#147,#148);
#146 = CARTESIAN_POINT('',(0.,0.,98.406));
#147 = DIRECTION('',(-0.,-0.,-1.));
#148 = DIRECTION('',(1.,0.,0.));
#149 = ADVANCED_FACE('',(#150),#175,.F.);
#150 = FACE_BOUND('',#151,.F.);
#151 = EDGE_LOOP('',(#152,#160,#168,#174));
#152 = ORIENTED_EDGE('',*,*,#153,.F.);
#153 = EDGE_CURVE('',#154,#22,#156,.T.);
#154 = VERTEX_POINT('',#155);
#155 = CARTESIAN_POINT('',(-0.6,33.2,98.406));
#156 = LINE('',#157,#158);
#157 = CARTESIAN_POINT('',(-0.6,33.2,98.406));
#158 = VECTOR('',#159,1.);
#159 = DIRECTION('',(0.,1.,0.));
#160 = ORIENTED_EDGE('',*,*,#161,.F.);
#161 = EDGE_CURVE('',#162,#154,#164,.T.);
#162 = VERTEX_POINT('',#163);
#163 = CARTESIAN_POINT('',(0.6,33.2,98.406));
#164 = LINE('',#165,#166);
#165 = CARTESIAN_POINT('',(0.6,33.2,98.406));
#166 = VECTOR('',#167,1.);
#167 = DIRECTION('',(-1.,0.,0.));
#168 = ORIENTED_EDGE('',*,*,#169,.T.);
#169 = EDGE_CURVE('',#162,#49,#170,.T.);
#170 = LINE('',#171,#172);
#171 = CARTESIAN_POINT('',(0.6,33.2,98.406));
#172 = VECTOR('',#173,1.);
#173 = DIRECTION('',(0.,1.,0.));
#174 = ORIENTED_EDGE('',*,*,#57,.T.);
#175 = PLANE('',#176);
#176 = AXIS2_PLACEMENT_3D('',#177,#178,#179);
#177 = CARTESIAN_POINT('',(0.6,33.2,98.406));
#178 = DIRECTION('',(0.,0.,1.));
#179 = DIRECTION('',(0.,1.,0.));
#180 = ADVANCED_FACE('',(#181),#201,.T.);
#181 = FACE_BOUND('',#182,.T.);
#182 = EDGE_LOOP('',(#183,#192,#193,#194));
#183 = ORIENTED_EDGE('',*,*,#184,.F.);
#184 = EDGE_CURVE('',#33,#185,#187,.T.);
#185 = VERTEX_POINT('',#186);
#186 = CARTESIAN_POINT('',(32.7,0.,129.906));
#187 = CIRCLE('',#188,1.);
#188 = AXIS2_PLACEMENT_3D('',#189,#190,#191);
#189 = CARTESIAN_POINT('',(32.7,0.,128.906));
#190 = DIRECTION('',(0.,-1.,0.));
#191 = DIRECTION('',(1.,0.,0.));
#192 = ORIENTED_EDGE('',*,*,#40,.T.);
#193 = ORIENTED_EDGE('',*,*,#184,.T.);
#194 = ORIENTED_EDGE('',*,*,#195,.F.);
#195 = EDGE_CURVE('',#185,#185,#196,.T.);
#196 = CIRCLE('',#197,32.7);
#197 = AXIS2_PLACEMENT_3D('',#198,#199,#200);
#198 = CARTESIAN_POINT('',(0.,0.,129.906));
#199 = DIRECTION('',(0.,0.,1.));
#200 = DIRECTION('',(1.,0.,0.));
#201 = TOROIDAL_SURFACE('',#202,32.7,1.);
#202 = AXIS2_PLACEMENT_3D('',#203,#204,#205);
#203 = CARTESIAN_POINT('',(0.,0.,128.906));
#204 = DIRECTION('',(0.,0.,1.));
#205 = DIRECTION('',(1.,0.,0.));
#206 = ADVANCED_FACE('',(#207),#217,.F.);
#207 = FACE_BOUND('',#208,.F.);
#208 = EDGE_LOOP('',(#209,#210,#216));
#209 = ORIENTED_EDGE('',*,*,#72,.T.);
#210 = ORIENTED_EDGE('',*,*,#211,.T.);
#211 = EDGE_CURVE('',#73,#154,#212,.T.);
#212 = LINE('',#213,#214);
#213 = CARTESIAN_POINT('',(-0.6,33.2,96.406));
#214 = VECTOR('',#215,1.);
#215 = DIRECTION('',(0.,0.,1.));
#216 = ORIENTED_EDGE('',*,*,#153,.T.);
#217 = PLANE('',#218);
#218 = AXIS2_PLACEMENT_3D('',#219,#220,#221);
#219 = CARTESIAN_POINT('',(-0.6,33.2,96.406));
#220 = DIRECTION('',(-1.,0.,0.));
#221 = DIRECTION('',(0.,0.,1.));
#222 = ADVANCED_FACE('',(#223),#234,.T.);
#223 = FACE_BOUND('',#224,.T.);
#224 = EDGE_LOOP('',(#225,#231,#232,#233));
#225 = ORIENTED_EDGE('',*,*,#226,.F.);
#226 = EDGE_CURVE('',#115,#162,#227,.T.);
#227 = LINE('',#228,#229);
#228 = CARTESIAN_POINT('',(0.6,33.2,96.406));
#229 = VECTOR('',#230,1.);
#230 = DIRECTION('',(0.,0.,1.));
#231 = ORIENTED_EDGE('',*,*,#137,.T.);
#232 = ORIENTED_EDGE('',*,*,#211,.T.);
#233 = ORIENTED_EDGE('',*,*,#161,.F.);
#234 = PLANE('',#235);
#235 = AXIS2_PLACEMENT_3D('',#236,#237,#238);
#236 = CARTESIAN_POINT('',(0.6,33.2,96.406));
#237 = DIRECTION('',(0.,1.,0.));
#238 = DIRECTION('',(0.,0.,1.));
#239 = ADVANCED_FACE('',(#240),#245,.T.);
#240 = FACE_BOUND('',#241,.T.);
#241 = EDGE_LOOP('',(#242,#243,#244));
#242 = ORIENTED_EDGE('',*,*,#114,.T.);
#243 = ORIENTED_EDGE('',*,*,#226,.T.);
#244 = ORIENTED_EDGE('',*,*,#169,.T.);
#245 = PLANE('',#246);
#246 = AXIS2_PLACEMENT_3D('',#247,#248,#249);
#247 = CARTESIAN_POINT('',(0.6,33.2,96.406));
#248 = DIRECTION('',(-1.,0.,0.));
#249 = DIRECTION('',(0.,0.,1.));
#250 = ADVANCED_FACE('',(#251,#254),#265,.F.);
#251 = FACE_BOUND('',#252,.F.);
#252 = EDGE_LOOP('',(#253));
#253 = ORIENTED_EDGE('',*,*,#105,.T.);
#254 = FACE_BOUND('',#255,.F.);
#255 = EDGE_LOOP('',(#256));
#256 = ORIENTED_EDGE('',*,*,#257,.F.);
#257 = EDGE_CURVE('',#258,#258,#260,.T.);
#258 = VERTEX_POINT('',#259);
#259 = CARTESIAN_POINT('',(31.7,-8.E-15,97.406));
#260 = CIRCLE('',#261,31.7);
#261 = AXIS2_PLACEMENT_3D('',#262,#263,#264);
#262 = CARTESIAN_POINT('',(0.,0.,97.406));
#263 = DIRECTION('',(0.,0.,1.));
#264 = DIRECTION('',(1.,0.,0.));
#265 = PLANE('',#266);
#266 = AXIS2_PLACEMENT_3D('',#267,#268,#269);
#267 = CARTESIAN_POINT('',(0.,0.,97.406));
#268 = DIRECTION('',(0.,0.,1.));
#269 = DIRECTION('',(1.,0.,0.));
#270 = ADVANCED_FACE('',(#271,#274),#285,.T.);
#271 = FACE_BOUND('',#272,.T.);
#272 = EDGE_LOOP('',(#273));
#273 = ORIENTED_EDGE('',*,*,#195,.T.);
#274 = FACE_BOUND('',#275,.T.);
#275 = EDGE_LOOP('',(#276));
#276 = ORIENTED_EDGE('',*,*,#277,.F.);
#277 = EDGE_CURVE('',#278,#278,#280,.T.);
#278 = VERTEX_POINT('',#279);
#279 = CARTESIAN_POINT('',(31.7,-8.E-15,129.906));
#280 = CIRCLE('',#281,31.7);
#281 = AXIS2_PLACEMENT_3D('',#282,#283,#284);
#282 = CARTESIAN_POINT('',(0.,0.,129.906));
#283 = DIRECTION('',(0.,0.,1.));
#284 = DIRECTION('',(1.,0.,0.));
#285 = PLANE('',#286);
#286 = AXIS2_PLACEMENT_3D('',#287,#288,#289);
#287 = CARTESIAN_POINT('',(0.,0.,129.906));
#288 = DIRECTION('',(0.,0.,1.));
#289 = DIRECTION('',(1.,0.,0.));
#290 = ADVANCED_FACE('',(#291,#302,#360),#418,.F.);
#291 = FACE_BOUND('',#292,.F.);
#292 = EDGE_LOOP('',(#293,#294,#300,#301));
#293 = ORIENTED_EDGE('',*,*,#257,.T.);
#294 = ORIENTED_EDGE('',*,*,#295,.T.);
#295 = EDGE_CURVE('',#258,#278,#296,.T.);
#296 = LINE('',#297,#298);
#297 = CARTESIAN_POINT('',(31.7,-7.76E-15,96.406));
#298 = VECTOR('',#299,1.);
#299 = DIRECTION('',(0.,0.,1.));
#300 = ORIENTED_EDGE('',*,*,#277,.F.);
#301 = ORIENTED_EDGE('',*,*,#295,.F.);
#302 = FACE_BOUND('',#303,.F.);
#303 = EDGE_LOOP('',(#304));
#304 = ORIENTED_EDGE('',*,*,#305,.F.);
#305 = EDGE_CURVE('',#306,#306,#308,.T.);
#306 = VERTEX_POINT('',#307);
#307 = CARTESIAN_POINT('',(4.,31.446621440148,102.9));
#308 = B_SPLINE_CURVE_WITH_KNOTS('',8,(#309,#310,#311,#312,#313,#314,
    #315,#316,#317,#318,#319,#320,#321,#322,#323,#324,#325,#326,#327,
    #328,#329,#330,#331,#332,#333,#334,#335,#336,#337,#338,#339,#340,
    #341,#342,#343,#344,#345,#346,#347,#348,#349,#350,#351,#352,#353,
    #354,#355,#356,#357,#358,#359),.UNSPECIFIED.,.T.,.F.,(9,7,7,7,7,7,7,
    9),(0.,0.174179550655,0.304937333348,0.444933616818,0.637639810259,
    0.790616319927,0.886138590731,1.),.UNSPECIFIED.);
#309 = CARTESIAN_POINT('',(4.,31.446621440148,102.9));
#310 = CARTESIAN_POINT('',(4.,31.446621440148,102.4412542316));
#311 = CARTESIAN_POINT('',(3.939871429241,31.45427004441,101.98385371695
    ));
#312 = CARTESIAN_POINT('',(3.820236001833,31.469486028828,
    101.53129358609));
#313 = CARTESIAN_POINT('',(3.63919844741,31.491864583426,101.0876175836)
  );
#314 = CARTESIAN_POINT('',(3.393253561118,31.520554599781,
    100.65884149239));
#315 = CARTESIAN_POINT('',(3.077906517025,31.553984916159,
    100.25385781146));
#316 = CARTESIAN_POINT('',(2.68847887857,31.5892465127,99.885625059677)
  );
#317 = CARTESIAN_POINT('',(1.87230293782,31.646604418626,99.340273731284
    ));
#318 = CARTESIAN_POINT('',(1.465853529966,31.670719674371,
    99.129571779525));
#319 = CARTESIAN_POINT('',(1.0122981089,31.691197708202,98.965544132263)
  );
#320 = CARTESIAN_POINT('',(0.525767692177,31.704664735045,
    98.864213623565));
#321 = CARTESIAN_POINT('',(2.430794509999E-02,31.708563676881,
    98.834265139894));
#322 = CARTESIAN_POINT('',(-0.472925894592,31.702700553181,
    98.87698804077));
#323 = CARTESIAN_POINT('',(-0.947576095962,31.688851968045,
    98.986056639291));
#324 = CARTESIAN_POINT('',(-1.852228338234,31.649304381688,
    99.319800471476));
#325 = CARTESIAN_POINT('',(-2.270743976451,31.623097713615,
    99.549899825304));
#326 = CARTESIAN_POINT('',(-2.638004713904,31.59411590505,
    99.822826931375));
#327 = CARTESIAN_POINT('',(-2.954588407277,31.564993299593,
    100.12742634723));
#328 = CARTESIAN_POINT('',(-3.222182909,31.537635907741,100.4549742372)
  );
#329 = CARTESIAN_POINT('',(-3.442972249878,31.513360427461,
    100.79871042047));
#330 = CARTESIAN_POINT('',(-3.619210521482,31.493005661954,
    101.15351558524));
#331 = CARTESIAN_POINT('',(-3.936604805463,31.45516523467,102.0138504379
    ));
#332 = CARTESIAN_POINT('',(-4.039961385042,31.441598506261,
    102.52689545262));
#333 = CARTESIAN_POINT('',(-4.067639690525,31.437711902059,
    103.04614496178));
#334 = CARTESIAN_POINT('',(-4.021212635517,31.443889029678,
    103.56581909207));
#335 = CARTESIAN_POINT('',(-3.899646064366,31.459979145293,
    104.08003844041));
#336 = CARTESIAN_POINT('',(-3.699582434695,31.485201063082,
    104.58147820463));
#337 = CARTESIAN_POINT('',(-3.415688304387,31.517682303591,
    105.05981900372));
#338 = CARTESIAN_POINT('',(-2.744679214673,31.582364247553,
    105.84546970527));
#339 = CARTESIAN_POINT('',(-2.37105150856,31.615156967265,
    106.19096356378));
#340 = CARTESIAN_POINT('',(-1.921220655318,31.649168195145,
    106.49979229205));
#341 = CARTESIAN_POINT('',(-1.404391714355,31.679620211258,
    106.74462666221));
#342 = CARTESIAN_POINT('',(-0.837981655286,31.700764656981,
    106.90501228958));
#343 = CARTESIAN_POINT('',(-0.243454451014,31.708844533985,
    106.96801131777));
#344 = CARTESIAN_POINT('',(0.355014114681,31.703299946882,
    106.92842942655));
#345 = CARTESIAN_POINT('',(1.295177925866,31.675593679934,
    106.70271606543));
#346 = CARTESIAN_POINT('',(1.635224617087,31.660857780459,
    106.58048976487));
#347 = CARTESIAN_POINT('',(1.951472053814,31.643077050006,
    106.42815690446));
#348 = CARTESIAN_POINT('',(2.242327719901,31.623364110597,
    106.25063296858));
#349 = CARTESIAN_POINT('',(2.506865166398,31.602770348655,
    106.05249969668));
#350 = CARTESIAN_POINT('',(2.744709147055,31.582210800597,
    105.83806910441));
#351 = CARTESIAN_POINT('',(2.955978403647,31.562428047893,
    105.61141417901));
#352 = CARTESIAN_POINT('',(3.362130386294,31.521981906792,
    105.09621284512));
#353 = CARTESIAN_POINT('',(3.548070816746,31.501680373797,
    104.80161319169));
#354 = CARTESIAN_POINT('',(3.700602958692,31.483903785856,
    104.49657538771));
#355 = CARTESIAN_POINT('',(3.821105094906,31.469216180369,
    104.18409731838));
#356 = CARTESIAN_POINT('',(3.910708195524,31.457979362031,
    103.86647778701));
#357 = CARTESIAN_POINT('',(3.970209303236,31.450410795853,
    103.54555656145));
#358 = CARTESIAN_POINT('',(4.,31.446621440148,103.22290757832));
#359 = CARTESIAN_POINT('',(4.,31.446621440148,102.9));
#360 = FACE_BOUND('',#361,.F.);
#361 = EDGE_LOOP('',(#362));
#362 = ORIENTED_EDGE('',*,*,#363,.F.);
#363 = EDGE_CURVE('',#364,#364,#366,.T.);
#364 = VERTEX_POINT('',#365);
#365 = CARTESIAN_POINT('',(-29.74084235253,-10.97143090765,119.906));
#366 = B_SPLINE_CURVE_WITH_KNOTS('',8,(#367,#368,#369,#370,#371,#372,
    #373,#374,#375,#376,#377,#378,#379,#380,#381,#382,#383,#384,#385,
    #386,#387,#388,#389,#390,#391,#392,#393,#394,#395,#396,#397,#398,
    #399,#400,#401,#402,#403,#404,#405,#406,#407,#408,#409,#410,#411,
    #412,#413,#414,#415,#416,#417),.UNSPECIFIED.,.T.,.F.,(9,7,7,7,7,7,7,
    9),(0.,0.173081273121,0.303014571337,0.414113201799,0.598903084465,
    0.754931426854,0.864027484294,1.),.UNSPECIFIED.);
#367 = CARTESIAN_POINT('',(-29.74084235253,-10.97143090765,119.906));
#368 = CARTESIAN_POINT('',(-29.74084235253,-10.97143090765,
    120.3647457684));
#369 = CARTESIAN_POINT('',(-29.76182090895,-10.91456398985,120.822146283
    ));
#370 = CARTESIAN_POINT('',(-29.8035590242,-10.80141766247,
    121.27470641395));
#371 = CARTESIAN_POINT('',(-29.86608860666,-10.63005416821,
    121.71838241637));
#372 = CARTESIAN_POINT('',(-29.9493688612,-10.39686668296,
    122.14715850759));
#373 = CARTESIAN_POINT('',(-30.05288001082,-10.097122148,122.55214218855
    ));
#374 = CARTESIAN_POINT('',(-30.17484001277,-9.725607648057,
    122.92037494031));
#375 = CARTESIAN_POINT('',(-30.41432747769,-8.943252965194,
    123.46572626871));
#376 = CARTESIAN_POINT('',(-30.52925588383,-8.552645581536,
    123.67642822047));
#377 = CARTESIAN_POINT('',(-30.65123683715,-8.115321311836,
    123.84045586773));
#378 = CARTESIAN_POINT('',(-30.77380423518,-7.644290060048,
    123.94178637643));
#379 = CARTESIAN_POINT('',(-30.8904071462,-7.156559764891,123.9717348601
    ));
#380 = CARTESIAN_POINT('',(-30.99654757048,-6.670751080432,
    123.92901195923));
#381 = CARTESIAN_POINT('',(-31.08982698693,-6.205150879147,
    123.8199433607));
#382 = CARTESIAN_POINT('',(-31.23761788089,-5.407498889219,
    123.52095111748));
#383 = CARTESIAN_POINT('',(-31.2951880315,-5.069114332143,123.3462555554
    ));
#384 = CARTESIAN_POINT('',(-31.34338459623,-4.761608586448,
    123.1420364699));
#385 = CARTESIAN_POINT('',(-31.38350723045,-4.485534741476,
    122.91439063926));
#386 = CARTESIAN_POINT('',(-31.4167620791,-4.240752316675,
    122.66843205436));
#387 = CARTESIAN_POINT('',(-31.44418696476,-4.026678575987,
    122.40847655643));
#388 = CARTESIAN_POINT('',(-31.46664904326,-3.842457018196,
    122.13815598632));
#389 = CARTESIAN_POINT('',(-31.51511406332,-3.428601043391,
    121.39863593099));
#390 = CARTESIAN_POINT('',(-31.53385443279,-3.247583288204,
    120.91231824436));
#391 = CARTESIAN_POINT('',(-31.54407033017,-3.140451730832,
    120.41231353803));
#392 = CARTESIAN_POINT('',(-31.54731658426,-3.104991674449,
    119.90599999999));
#393 = CARTESIAN_POINT('',(-31.54407033017,-3.140451730837,
    119.39968646196));
#394 = CARTESIAN_POINT('',(-31.53385443279,-3.247583288199,
    118.89968175563));
#395 = CARTESIAN_POINT('',(-31.51511406332,-3.428601043394,118.413364069
    ));
#396 = CARTESIAN_POINT('',(-31.45928978701,-3.905299706915,
    117.5615502896));
#397 = CARTESIAN_POINT('',(-31.42464063682,-4.186214943842,
    117.1756899475));
#398 = CARTESIAN_POINT('',(-31.37865346853,-4.533879250537,
    116.81088495496));
#399 = CARTESIAN_POINT('',(-31.31867749937,-4.948160372815,
    116.48425365828));
#400 = CARTESIAN_POINT('',(-31.24164406405,-5.424902241389,
    116.21302347833));
#401 = CARTESIAN_POINT('',(-31.14468813222,-5.956232770628,
    116.0144702915));
#402 = CARTESIAN_POINT('',(-31.02613636222,-6.530582872764,115.906));
#403 = CARTESIAN_POINT('',(-30.7906172977,-7.550728018625,115.906));
#404 = CARTESIAN_POINT('',(-30.68933685082,-7.959674753211,
    115.95903008351));
#405 = CARTESIAN_POINT('',(-30.58591723694,-8.350455726723,
    116.06096923513));
#406 = CARTESIAN_POINT('',(-30.48299267535,-8.716817285604,
    116.20648009263));
#407 = CARTESIAN_POINT('',(-30.38338433816,-9.053709180025,
    116.3890543285));
#408 = CARTESIAN_POINT('',(-30.28974414291,-9.357436882763,
    116.60106198202));
#409 = CARTESIAN_POINT('',(-30.20419229641,-9.625833341004,
    116.8338047039));
#410 = CARTESIAN_POINT('',(-30.03321430674,-10.14835390191,
    117.38139477573));
#411 = CARTESIAN_POINT('',(-29.95041588734,-10.39060418785,
    117.71065742343));
#412 = CARTESIAN_POINT('',(-29.88079919724,-10.58785762392,
    118.05752027442));
#413 = CARTESIAN_POINT('',(-29.82490179818,-10.74272457371,
    118.41649260701));
#414 = CARTESIAN_POINT('',(-29.78291841027,-10.85737415968,
    118.78356093241));
#415 = CARTESIAN_POINT('',(-29.75489097922,-10.93334816423,
    119.15571260247));
#416 = CARTESIAN_POINT('',(-29.74084235253,-10.97143090765,
    119.53058878787));
#417 = CARTESIAN_POINT('',(-29.74084235253,-10.97143090765,119.906));
#418 = CYLINDRICAL_SURFACE('',#419,31.7);
#419 = AXIS2_PLACEMENT_3D('',#420,#421,#422);
#420 = CARTESIAN_POINT('',(0.,0.,96.406));
#421 = DIRECTION('',(0.,0.,1.));
#422 = DIRECTION('',(1.,0.,0.));
#423 = ADVANCED_FACE('',(#424),#443,.F.);
#424 = FACE_BOUND('',#425,.F.);
#425 = EDGE_LOOP('',(#426,#434,#441,#442));
#426 = ORIENTED_EDGE('',*,*,#427,.T.);
#427 = EDGE_CURVE('',#306,#428,#430,.T.);
#428 = VERTEX_POINT('',#429);
#429 = CARTESIAN_POINT('',(4.,32.9,102.9));
#430 = LINE('',#431,#432);
#431 = CARTESIAN_POINT('',(4.,29.7,102.9));
#432 = VECTOR('',#433,1.);
#433 = DIRECTION('',(6.E-17,1.,0.));
#434 = ORIENTED_EDGE('',*,*,#435,.F.);
#435 = EDGE_CURVE('',#428,#428,#436,.T.);
#436 = CIRCLE('',#437,4.);
#437 = AXIS2_PLACEMENT_3D('',#438,#439,#440);
#438 = CARTESIAN_POINT('',(2.01E-15,32.9,102.9));
#439 = DIRECTION('',(6.E-17,1.,0.));
#440 = DIRECTION('',(1.,-6.E-17,0.));
#441 = ORIENTED_EDGE('',*,*,#427,.F.);
#442 = ORIENTED_EDGE('',*,*,#305,.T.);
#443 = CYLINDRICAL_SURFACE('',#444,4.);
#444 = AXIS2_PLACEMENT_3D('',#445,#446,#447);
#445 = CARTESIAN_POINT('',(1.82E-15,29.7,102.9));
#446 = DIRECTION('',(6.E-17,1.,0.));
#447 = DIRECTION('',(1.,-6.E-17,0.));
#448 = ADVANCED_FACE('',(#449),#468,.F.);
#449 = FACE_BOUND('',#450,.F.);
#450 = EDGE_LOOP('',(#451,#459,#466,#467));
#451 = ORIENTED_EDGE('',*,*,#452,.T.);
#452 = EDGE_CURVE('',#364,#453,#455,.T.);
#453 = VERTEX_POINT('',#454);
#454 = CARTESIAN_POINT('',(-31.15697091405,-11.29836994705,119.906));
#455 = LINE('',#456,#457);
#456 = CARTESIAN_POINT('',(-28.03898670674,-10.57852657315,119.906));
#457 = VECTOR('',#458,1.);
#458 = DIRECTION('',(-0.974370064785,-0.224951054344,0.));
#459 = ORIENTED_EDGE('',*,*,#460,.F.);
#460 = EDGE_CURVE('',#453,#453,#461,.T.);
#461 = CIRCLE('',#462,4.);
#462 = AXIS2_PLACEMENT_3D('',#463,#464,#465);
#463 = CARTESIAN_POINT('',(-32.05677513143,-7.400889687913,119.906));
#464 = DIRECTION('',(-0.974370064785,-0.224951054344,0.));
#465 = DIRECTION('',(0.224951054344,-0.974370064785,0.));
#466 = ORIENTED_EDGE('',*,*,#452,.F.);
#467 = ORIENTED_EDGE('',*,*,#363,.T.);
#468 = CYLINDRICAL_SURFACE('',#469,4.);
#469 = AXIS2_PLACEMENT_3D('',#470,#471,#472);
#470 = CARTESIAN_POINT('',(-28.93879092412,-6.681046314013,119.906));
#471 = DIRECTION('',(-0.974370064785,-0.224951054344,0.));
#472 = DIRECTION('',(0.224951054344,-0.974370064785,0.));
#473 = ADVANCED_FACE('',(#474),#477,.F.);
#474 = FACE_BOUND('',#475,.F.);
#475 = EDGE_LOOP('',(#476));
#476 = ORIENTED_EDGE('',*,*,#435,.T.);
#477 = PLANE('',#478);
#478 = AXIS2_PLACEMENT_3D('',#479,#480,#481);
#479 = CARTESIAN_POINT('',(2.01E-15,32.9,102.9));
#480 = DIRECTION('',(6.E-17,1.,0.));
#481 = DIRECTION('',(1.,-6.E-17,0.));
#482 = ADVANCED_FACE('',(#483),#486,.F.);
#483 = FACE_BOUND('',#484,.F.);
#484 = EDGE_LOOP('',(#485));
#485 = ORIENTED_EDGE('',*,*,#460,.T.);
#486 = PLANE('',#487);
#487 = AXIS2_PLACEMENT_3D('',#488,#489,#490);
#488 = CARTESIAN_POINT('',(-32.05677513143,-7.400889687913,119.906));
#489 = DIRECTION('',(-0.974370064785,-0.224951054344,0.));
#490 = DIRECTION('',(0.224951054344,-0.974370064785,0.));
#491 = ( GEOMETRIC_REPRESENTATION_CONTEXT(3) 
GLOBAL_UNCERTAINTY_ASSIGNED_CONTEXT((#495)) GLOBAL_UNIT_ASSIGNED_CONTEXT
((#492,#493,#494)) REPRESENTATION_CONTEXT('Context #1',
  '3D Context with UNIT and UNCERTAINTY') );
#492 = ( LENGTH_UNIT() NAMED_UNIT(*) SI_UNIT(.MILLI.,.METRE.) );
#493 = ( NAMED_UNIT(*) PLANE_ANGLE_UNIT() SI_UNIT($,.RADIAN.) );
#494 = ( NAMED_UNIT(*) SI_UNIT($,.STERADIAN.) SOLID_ANGLE_UNIT() );
#495 = UNCERTAINTY_MEASURE_WITH_UNIT(LENGTH_MEASURE(2.E-07),#492,
  'distance_accuracy_value','confusion accuracy');
#496 = PRODUCT_RELATED_PRODUCT_CATEGORY('part',$,(#7));
ENDSEC;
END-ISO-10303-21;
