ISO-10303-21;
HEADER;
FILE_DESCRIPTION(('FreeCAD Model'),'2;1');
FILE_NAME('Open CASCADE Shape Model','2026-09-19T21:01:32',('FreeCAD'),(
    'FreeCAD'),'Open CASCADE STEP processor 7.8','FreeCAD','Unknown');
FILE_SCHEMA(('AUTOMOTIVE_DESIGN { 1 0 10303 214 1 1 1 1 }'));
ENDSEC;
DATA;
#1 = APPLICATION_PROTOCOL_DEFINITION('international standard',
  'automotive_design',2000,#2);
#2 = APPLICATION_CONTEXT(
  'core data for automotive mechanical design processes');
#3 = SHAPE_DEFINITION_REPRESENTATION(#4,#10);
#4 = PRODUCT_DEFINITION_SHAPE('','',#5);
#5 = PRODUCT_DEFINITION('design','',#6,#9);
#6 = PRODUCT_DEFINITION_FORMATION('','',#7);
#7 = PRODUCT('Open CASCADE STEP translator 7.8 7',
  'Open CASCADE STEP translator 7.8 7','',(#8));
#8 = PRODUCT_CONTEXT('',#2,'mechanical');
#9 = PRODUCT_DEFINITION_CONTEXT('part definition',#2,'design');
#10 = ADVANCED_BREP_SHAPE_REPRESENTATION('',(#11,#15),#1115);
#11 = AXIS2_PLACEMENT_3D('',#12,#13,#14);
#12 = CARTESIAN_POINT('',(0.,0.,0.));
#13 = DIRECTION('',(0.,0.,1.));
#14 = DIRECTION('',(1.,0.,-0.));
#15 = MANIFOLD_SOLID_BREP('',#16);
#16 = CLOSED_SHELL('',(#17,#45,#70,#645,#665,#690,#755,#820,#885,#950,
    #987,#1012,#1037,#1062,#1087,#1099));
#17 = ADVANCED_FACE('',(#18,#29),#40,.T.);
#18 = FACE_BOUND('',#19,.T.);
#19 = EDGE_LOOP('',(#20));
#20 = ORIENTED_EDGE('',*,*,#21,.T.);
#21 = EDGE_CURVE('',#22,#22,#24,.T.);
#22 = VERTEX_POINT('',#23);
#23 = CARTESIAN_POINT('',(24.5,-6.000769315822E-15,168.));
#24 = CIRCLE('',#25,24.5);
#25 = AXIS2_PLACEMENT_3D('',#26,#27,#28);
#26 = CARTESIAN_POINT('',(0.,0.,168.));
#27 = DIRECTION('',(0.,0.,1.));
#28 = DIRECTION('',(1.,0.,0.));
#29 = FACE_BOUND('',#30,.T.);
#30 = EDGE_LOOP('',(#31));
#31 = ORIENTED_EDGE('',*,*,#32,.F.);
#32 = EDGE_CURVE('',#33,#33,#35,.T.);
#33 = VERTEX_POINT('',#34);
#34 = CARTESIAN_POINT('',(8.,-1.959434878636E-15,168.));
#35 = CIRCLE('',#36,8.);
#36 = AXIS2_PLACEMENT_3D('',#37,#38,#39);
#37 = CARTESIAN_POINT('',(0.,0.,168.));
#38 = DIRECTION('',(0.,0.,1.));
#39 = DIRECTION('',(1.,0.,0.));
#40 = PLANE('',#41);
#41 = AXIS2_PLACEMENT_3D('',#42,#43,#44);
#42 = CARTESIAN_POINT('',(0.,0.,168.));
#43 = DIRECTION('',(0.,0.,1.));
#44 = DIRECTION('',(1.,0.,0.));
#45 = ADVANCED_FACE('',(#46),#65,.F.);
#46 = FACE_BOUND('',#47,.F.);
#47 = EDGE_LOOP('',(#48,#49,#57,#64));
#48 = ORIENTED_EDGE('',*,*,#32,.F.);
#49 = ORIENTED_EDGE('',*,*,#50,.F.);
#50 = EDGE_CURVE('',#51,#33,#53,.T.);
#51 = VERTEX_POINT('',#52);
#52 = CARTESIAN_POINT('',(8.,-1.959434878636E-15,165.));
#53 = LINE('',#54,#55);
#54 = CARTESIAN_POINT('',(8.,-1.959434878636E-15,164.));
#55 = VECTOR('',#56,1.);
#56 = DIRECTION('',(0.,0.,1.));
#57 = ORIENTED_EDGE('',*,*,#58,.T.);
#58 = EDGE_CURVE('',#51,#51,#59,.T.);
#59 = CIRCLE('',#60,8.);
#60 = AXIS2_PLACEMENT_3D('',#61,#62,#63);
#61 = CARTESIAN_POINT('',(0.,0.,165.));
#62 = DIRECTION('',(0.,0.,1.));
#63 = DIRECTION('',(1.,0.,0.));
#64 = ORIENTED_EDGE('',*,*,#50,.T.);
#65 = CYLINDRICAL_SURFACE('',#66,8.);
#66 = AXIS2_PLACEMENT_3D('',#67,#68,#69);
#67 = CARTESIAN_POINT('',(0.,0.,164.));
#68 = DIRECTION('',(0.,0.,1.));
#69 = DIRECTION('',(1.,0.,0.));
#70 = ADVANCED_FACE('',(#71,#98,#227,#369,#511),#640,.T.);
#71 = FACE_BOUND('',#72,.T.);
#72 = EDGE_LOOP('',(#73,#82,#90,#97));
#73 = ORIENTED_EDGE('',*,*,#74,.T.);
#74 = EDGE_CURVE('',#75,#75,#77,.T.);
#75 = VERTEX_POINT('',#76);
#76 = CARTESIAN_POINT('',(37.,0.,144.4));
#77 = CIRCLE('',#78,37.);
#78 = AXIS2_PLACEMENT_3D('',#79,#80,#81);
#79 = CARTESIAN_POINT('',(0.,0.,144.4));
#80 = DIRECTION('',(0.,0.,1.));
#81 = DIRECTION('',(1.,0.,0.));
#82 = ORIENTED_EDGE('',*,*,#83,.T.);
#83 = EDGE_CURVE('',#75,#84,#86,.T.);
#84 = VERTEX_POINT('',#85);
#85 = CARTESIAN_POINT('',(36.,0.,151.));
#86 = LINE('',#87,#88);
#87 = CARTESIAN_POINT('',(37.,0.,144.4));
#88 = VECTOR('',#89,1.);
#89 = DIRECTION('',(-0.149805379428,0.,0.988715504225));
#90 = ORIENTED_EDGE('',*,*,#91,.F.);
#91 = EDGE_CURVE('',#84,#84,#92,.T.);
#92 = CIRCLE('',#93,36.);
#93 = AXIS2_PLACEMENT_3D('',#94,#95,#96);
#94 = CARTESIAN_POINT('',(0.,0.,151.));
#95 = DIRECTION('',(0.,0.,1.));
#96 = DIRECTION('',(1.,0.,0.));
#97 = ORIENTED_EDGE('',*,*,#83,.F.);
#98 = FACE_BOUND('',#99,.T.);
#99 = EDGE_LOOP('',(#100));
#100 = ORIENTED_EDGE('',*,*,#101,.F.);
#101 = EDGE_CURVE('',#102,#102,#104,.T.);
#102 = VERTEX_POINT('',#103);
#103 = CARTESIAN_POINT('',(24.632933879764,27.037096935798,147.2));
#104 = B_SPLINE_CURVE_WITH_KNOTS('',7,(#105,#106,#107,#108,#109,#110,
    #111,#112,#113,#114,#115,#116,#117,#118,#119,#120,#121,#122,#123,
    #124,#125,#126,#127,#128,#129,#130,#131,#132,#133,#134,#135,#136,
    #137,#138,#139,#140,#141,#142,#143,#144,#145,#146,#147,#148,#149,
    #150,#151,#152,#153,#154,#155,#156,#157,#158,#159,#160,#161,#162,
    #163,#164,#165,#166,#167,#168,#169,#170,#171,#172,#173,#174,#175,
    #176,#177,#178,#179,#180,#181,#182,#183,#184,#185,#186,#187,#188,
    #189,#190,#191,#192,#193,#194,#195,#196,#197,#198,#199,#200,#201,
    #202,#203,#204,#205,#206,#207,#208,#209,#210,#211,#212,#213,#214,
    #215,#216,#217,#218,#219,#220,#221,#222,#223,#224,#225,#226),
  .UNSPECIFIED.,.T.,.F.,(8,6,6,6,6,6,6,6,6,6,6,6,6,6,6,6,6,6,6,6,8),(0.,
    0.120539173734,0.162909331913,0.196336833837,0.249422822329,
    0.302935836004,0.336363569945,0.37873402221,0.411600491805,
    0.501516580525,0.566704093431,0.591420580787,0.623742106152,
    0.665580052364,0.698048530309,0.749382062457,0.801142633775,
    0.833611333064,0.875449564493,0.982838500769,1.),.UNSPECIFIED.);
#105 = CARTESIAN_POINT('',(24.632933879764,27.037096935798,147.2));
#106 = CARTESIAN_POINT('',(24.615610900558,27.019773956592,
    147.36151464602));
#107 = CARTESIAN_POINT('',(24.611546111512,26.99039219068,147.5229295552
    ));
#108 = CARTESIAN_POINT('',(24.620823578154,26.949081670117,
    147.68324909872));
#109 = CARTESIAN_POINT('',(24.643893896919,26.895641342714,
    147.84111227802));
#110 = CARTESIAN_POINT('',(24.681353514439,26.829744040793,
    147.9947249049));
#111 = CARTESIAN_POINT('',(24.733786483885,26.751057077339,
    148.14192500658));
#112 = CARTESIAN_POINT('',(24.826156325157,26.626532115269,
    148.32839113526));
#113 = CARTESIAN_POINT('',(24.852132254689,26.592502287785,
    148.3757186091));
#114 = CARTESIAN_POINT('',(24.880090308907,26.55681336539,
    148.42174294873));
#115 = CARTESIAN_POINT('',(24.910055777073,26.519456215846,
    148.46630770138));
#116 = CARTESIAN_POINT('',(24.942045549367,26.480431979497,
    148.50923596128));
#117 = CARTESIAN_POINT('',(24.976064568444,26.439755220126,
    148.55033267252));
#118 = CARTESIAN_POINT('',(25.040533864821,26.364086388469,
    148.62019838925));
#119 = CARTESIAN_POINT('',(25.070220234685,26.329708521992,
    148.64973664665));
#120 = CARTESIAN_POINT('',(25.101154273093,26.294340942212,
    148.67789715397));
#121 = CARTESIAN_POINT('',(25.133319708333,26.258011168821,
    148.70456603758));
#122 = CARTESIAN_POINT('',(25.166688614842,26.220758921237,
    148.72962365676));
#123 = CARTESIAN_POINT('',(25.201218913584,26.182638264467,
    148.75294816023));
#124 = CARTESIAN_POINT('',(25.293440332082,26.081913534716,
    148.80851680497));
#125 = CARTESIAN_POINT('',(25.352845103385,26.018056407441,
    148.83796143208));
#126 = CARTESIAN_POINT('',(25.414781403806,25.95248757393,
    148.86222702103));
#127 = CARTESIAN_POINT('',(25.47887612338,25.885624600088,
    148.88085220398));
#128 = CARTESIAN_POINT('',(25.544662980877,25.817969729016,
    148.89346701343));
#129 = CARTESIAN_POINT('',(25.611575111743,25.75011276278,148.8998474684
    ));
#130 = CARTESIAN_POINT('',(25.746836909434,25.614806240272,
    148.90014950467));
#131 = CARTESIAN_POINT('',(25.815247087257,25.547311059295,
    148.89397056744));
#132 = CARTESIAN_POINT('',(25.883471228633,25.48094071572,
    148.88144959803));
#133 = CARTESIAN_POINT('',(25.95090371186,25.416277691907,148.8628120924
    ));
#134 = CARTESIAN_POINT('',(26.017028585019,25.35380130088,
    148.83843511781));
#135 = CARTESIAN_POINT('',(26.081416796181,25.29389513531,
    148.80879084975));
#136 = CARTESIAN_POINT('',(26.182638264467,25.201218913584,
    148.75294816023));
#137 = CARTESIAN_POINT('',(26.220758921237,25.166688614842,
    148.72962365676));
#138 = CARTESIAN_POINT('',(26.258011168821,25.133319708333,
    148.70456603758));
#139 = CARTESIAN_POINT('',(26.294340942212,25.101154273093,
    148.67789715397));
#140 = CARTESIAN_POINT('',(26.329708521992,25.070220234685,
    148.64973664665));
#141 = CARTESIAN_POINT('',(26.364086388469,25.040533864821,
    148.62019838925));
#142 = CARTESIAN_POINT('',(26.439755220126,24.976064568444,
    148.55033267252));
#143 = CARTESIAN_POINT('',(26.480431979497,24.942045549367,
    148.50923596128));
#144 = CARTESIAN_POINT('',(26.519456215846,24.910055777073,
    148.46630770138));
#145 = CARTESIAN_POINT('',(26.55681336539,24.880090308907,
    148.42174294873));
#146 = CARTESIAN_POINT('',(26.592502287785,24.852132254688,
    148.3757186091));
#147 = CARTESIAN_POINT('',(26.626532115269,24.826156325157,
    148.32839113526));
#148 = CARTESIAN_POINT('',(26.684041465427,24.783497171061,
    148.24227550263));
#149 = CARTESIAN_POINT('',(26.70817390195,24.766037583642,
    148.20395517629));
#150 = CARTESIAN_POINT('',(26.731323718812,24.74973959466,
    148.16499689185));
#151 = CARTESIAN_POINT('',(26.753498664878,24.734589085447,
    148.12545946804));
#152 = CARTESIAN_POINT('',(26.774706930445,24.72057184218,
    148.08539689574));
#153 = CARTESIAN_POINT('',(26.794957147245,24.707673555884,148.044858338
    ));
#154 = CARTESIAN_POINT('',(26.867062724822,24.663614526007,
    147.89180183337));
#155 = CARTESIAN_POINT('',(26.912742458232,24.639630130438,
    147.77653020548));
#156 = CARTESIAN_POINT('',(26.951514119697,24.623611573775,
    147.65892550932));
#157 = CARTESIAN_POINT('',(26.983504139205,24.615331681792,
    147.53972123549));
#158 = CARTESIAN_POINT('',(27.008792685863,24.614605184603,
    147.41955861947));
#159 = CARTESIAN_POINT('',(27.02741328535,24.621290158607,
    147.29900019586));
#160 = CARTESIAN_POINT('',(27.047931819956,24.645520518783,
    147.09119199299));
#161 = CARTESIAN_POINT('',(27.053017658406,24.659570097997,
    147.0039286908));
#162 = CARTESIAN_POINT('',(27.05454684266,24.677460355584,
    146.91693818378));
#163 = CARTESIAN_POINT('',(27.052475052381,24.699183703712,
    146.83043236062));
#164 = CARTESIAN_POINT('',(27.046738267447,24.724743809593,146.744638252
    ));
#165 = CARTESIAN_POINT('',(27.037251744833,24.754155641312,
    146.65980045185));
#166 = CARTESIAN_POINT('',(27.018840642698,24.800076631759,
    146.54448138634));
#167 = CARTESIAN_POINT('',(27.013223881787,24.813259243759,
    146.51295468326));
#168 = CARTESIAN_POINT('',(27.007045934103,24.827001340641,
    146.48161994128));
#169 = CARTESIAN_POINT('',(27.000300343831,24.841304497246,
    146.4504932004));
#170 = CARTESIAN_POINT('',(26.992980221698,24.856170351017,
    146.41959149603));
#171 = CARTESIAN_POINT('',(26.985078244979,24.871600602005,
    146.38893285899));
#172 = CARTESIAN_POINT('',(26.965482285896,24.908515373624,
    146.31878703249));
#173 = CARTESIAN_POINT('',(26.953369934742,24.9304014106,146.27948664531
    ));
#174 = CARTESIAN_POINT('',(26.940231911684,24.953259554397,
    146.24067723372));
#175 = CARTESIAN_POINT('',(26.926049931002,24.97709321751,
    146.20240552464));
#176 = CARTESIAN_POINT('',(26.910805113599,25.001904794313,
    146.16472289222));
#177 = CARTESIAN_POINT('',(26.894477987002,25.027695661064,
    146.1276853578));
#178 = CARTESIAN_POINT('',(26.854487218723,25.089118728568,
    146.04432466617));
#179 = CARTESIAN_POINT('',(26.830080600982,25.125410061531,
    145.9984817271));
#180 = CARTESIAN_POINT('',(26.803784912451,25.163341836345,
    145.95395357201));
#181 = CARTESIAN_POINT('',(26.775558765469,25.202906141848,
    145.91089156106));
#182 = CARTESIAN_POINT('',(26.745366690189,25.24408251418,
    145.86946730012));
#183 = CARTESIAN_POINT('',(26.713182720368,25.286834956791,
    145.82987032578));
#184 = CARTESIAN_POINT('',(26.652461692291,25.36546794893,
    145.76315370691));
#185 = CARTESIAN_POINT('',(26.624723656007,25.400741168339,
    145.73522755657));
#186 = CARTESIAN_POINT('',(26.595775802818,25.436901006708,
    145.70862417178));
#187 = CARTESIAN_POINT('',(26.565621734463,25.473909390128,
    145.68344904383));
#188 = CARTESIAN_POINT('',(26.534275421158,25.511716162279,
    145.65981299084));
#189 = CARTESIAN_POINT('',(26.50176390086,25.550257463946,
    145.63782882594));
#190 = CARTESIAN_POINT('',(26.414953847636,25.651425062465,
    145.58563839885));
#191 = CARTESIAN_POINT('',(26.35894055046,25.715071044624,
    145.55805715485));
#192 = CARTESIAN_POINT('',(26.300303610288,25.780024501671,
    145.53534347273));
#193 = CARTESIAN_POINT('',(26.239341067175,25.845849596457,
    145.51791816996));
#194 = CARTESIAN_POINT('',(26.176446626058,25.912042595165,
    145.50611831991));
#195 = CARTESIAN_POINT('',(26.112122963155,25.978035333307,
    145.50014756402));
#196 = CARTESIAN_POINT('',(25.981329642503,26.108910309696,
    145.49985546287));
#197 = CARTESIAN_POINT('',(25.914797120181,26.173828237178,
    145.50563133515));
#198 = CARTESIAN_POINT('',(25.848041769569,26.237310173174,
    145.51734025085));
#199 = CARTESIAN_POINT('',(25.781647002406,26.298838606229,
    145.53477716126));
#200 = CARTESIAN_POINT('',(25.716130448832,26.358008127372,
    145.55759830562));
#201 = CARTESIAN_POINT('',(25.651940167405,26.414511845573,
    145.58537266608));
#202 = CARTESIAN_POINT('',(25.550257463946,26.50176390086,
    145.63782882594));
#203 = CARTESIAN_POINT('',(25.511716162279,26.534275421158,
    145.65981299084));
#204 = CARTESIAN_POINT('',(25.473909390128,26.565621734463,
    145.68344904383));
#205 = CARTESIAN_POINT('',(25.436901006708,26.595775802818,
    145.70862417178));
#206 = CARTESIAN_POINT('',(25.400741168339,26.624723656007,
    145.73522755657));
#207 = CARTESIAN_POINT('',(25.36546794893,26.652461692291,
    145.76315370691));
#208 = CARTESIAN_POINT('',(25.286834956791,26.713182720368,
    145.82987032578));
#209 = CARTESIAN_POINT('',(25.24408251418,26.745366690189,
    145.86946730012));
#210 = CARTESIAN_POINT('',(25.202906141848,26.775558765469,
    145.91089156106));
#211 = CARTESIAN_POINT('',(25.163341836344,26.803784912451,
    145.95395357201));
#212 = CARTESIAN_POINT('',(25.125410061531,26.830080600982,
    145.9984817271));
#213 = CARTESIAN_POINT('',(25.089118728567,26.854487218723,
    146.04432466617));
#214 = CARTESIAN_POINT('',(24.96552119322,26.934957970134,
    146.21206581699));
#215 = CARTESIAN_POINT('',(24.887483369566,26.980638278437,
    146.34044081568));
#216 = CARTESIAN_POINT('',(24.820143593667,27.014969771229,
    146.47445001613));
#217 = CARTESIAN_POINT('',(24.763417219994,27.038545602809,
    146.61250255014));
#218 = CARTESIAN_POINT('',(24.717167312078,27.051893060269,
    146.75327912029));
#219 = CARTESIAN_POINT('',(24.681285750595,27.055397729736,
    146.89576291383));
#220 = CARTESIAN_POINT('',(24.651747206603,27.048213181339,
    147.06213886066));
#221 = CARTESIAN_POINT('',(24.6479436924,27.046975671916,147.08508478643
    ));
#222 = CARTESIAN_POINT('',(24.644406913415,27.045491333971,
    147.10804822513));
#223 = CARTESIAN_POINT('',(24.641137150154,27.043760805579,
    147.13102531127));
#224 = CARTESIAN_POINT('',(24.63813475779,27.041784623302,
    147.15401219271));
#225 = CARTESIAN_POINT('',(24.63540016616,27.039563222195,
    147.17700503074));
#226 = CARTESIAN_POINT('',(24.632933879764,27.037096935798,147.2));
#227 = FACE_BOUND('',#228,.T.);
#228 = EDGE_LOOP('',(#229));
#229 = ORIENTED_EDGE('',*,*,#230,.F.);
#230 = EDGE_CURVE('',#231,#231,#233,.T.);
#231 = VERTEX_POINT('',#232);
#232 = CARTESIAN_POINT('',(-24.63293387976,27.037096935798,147.2));
#233 = B_SPLINE_CURVE_WITH_KNOTS('',8,(#234,#235,#236,#237,#238,#239,
    #240,#241,#242,#243,#244,#245,#246,#247,#248,#249,#250,#251,#252,
    #253,#254,#255,#256,#257,#258,#259,#260,#261,#262,#263,#264,#265,
    #266,#267,#268,#269,#270,#271,#272,#273,#274,#275,#276,#277,#278,
    #279,#280,#281,#282,#283,#284,#285,#286,#287,#288,#289,#290,#291,
    #292,#293,#294,#295,#296,#297,#298,#299,#300,#301,#302,#303,#304,
    #305,#306,#307,#308,#309,#310,#311,#312,#313,#314,#315,#316,#317,
    #318,#319,#320,#321,#322,#323,#324,#325,#326,#327,#328,#329,#330,
    #331,#332,#333,#334,#335,#336,#337,#338,#339,#340,#341,#342,#343,
    #344,#345,#346,#347,#348,#349,#350,#351,#352,#353,#354,#355,#356,
    #357,#358,#359,#360,#361,#362,#363,#364,#365,#366,#367,#368),
  .UNSPECIFIED.,.T.,.F.,(9,7,7,7,7,7,7,7,7,7,7,7,7,7,7,7,7,7,7,9),(0.,
    0.124574889585,0.166411256522,0.198878508866,0.250210103304,
    0.301968720792,0.334436194471,0.376272846614,0.408593372257,
    0.43330909512,0.498494591743,0.588407899312,0.62127335233,
    0.663642494055,0.697069194059,0.750153909027,0.803665638933,
    0.837092570947,0.879462006752,1.),.UNSPECIFIED.);
#234 = CARTESIAN_POINT('',(-24.63293387976,27.037096935798,147.2));
#235 = CARTESIAN_POINT('',(-24.64859974561,27.052762801646,
    147.0539358186));
#236 = CARTESIAN_POINT('',(-24.67485018325,27.058729456164,
    146.90814373421));
#237 = CARTESIAN_POINT('',(-24.71154353343,27.054988632473,
    146.7632835426));
#238 = CARTESIAN_POINT('',(-24.75872818043,27.041271879994,
    146.62022947931));
#239 = CARTESIAN_POINT('',(-24.8164878482,27.017196494083,
    146.48006093637));
#240 = CARTESIAN_POINT('',(-24.88494318413,26.982244037518,
    146.34409881943));
#241 = CARTESIAN_POINT('',(-24.96418029645,26.935830988919,
    146.21388562324));
#242 = CARTESIAN_POINT('',(-25.08478715948,26.857307377053,
    146.05020328164));
#243 = CARTESIAN_POINT('',(-25.11633722829,26.836182255417,
    146.00994246187));
#244 = CARTESIAN_POINT('',(-25.14911742078,26.81364579565,
    145.97065163017));
#245 = CARTESIAN_POINT('',(-25.18312398909,26.78967183896,
    145.93242256653));
#246 = CARTESIAN_POINT('',(-25.21834728147,26.764236737239,
    145.89535746321));
#247 = CARTESIAN_POINT('',(-25.25477062483,26.737320697734,
    145.85956805653));
#248 = CARTESIAN_POINT('',(-25.29236920724,26.708909127715,
    145.82517475884));
#249 = CARTESIAN_POINT('',(-25.36117307537,26.655778228148,
    145.76679771733));
#250 = CARTESIAN_POINT('',(-25.39192286348,26.631658165078,
    145.74220909416));
#251 = CARTESIAN_POINT('',(-25.42334106731,26.606631247764,
    145.71860044108));
#252 = CARTESIAN_POINT('',(-25.45540519841,26.580698768641,
    145.69603660781));
#253 = CARTESIAN_POINT('',(-25.48808692968,26.553866866974,
    145.67458552396));
#254 = CARTESIAN_POINT('',(-25.52135148769,26.526147541084,
    145.65431694961));
#255 = CARTESIAN_POINT('',(-25.55515704502,26.497559660569,
    145.63530122587));
#256 = CARTESIAN_POINT('',(-25.64367869372,26.421600863998,
    145.58963460217));
#257 = CARTESIAN_POINT('',(-25.69915954908,26.372943874754,
    145.56495246585));
#258 = CARTESIAN_POINT('',(-25.75566695527,26.322292462853,
    145.54386110352));
#259 = CARTESIAN_POINT('',(-25.81293704906,26.269822338732,
    145.52663082134));
#260 = CARTESIAN_POINT('',(-25.87067197097,26.215755651757,
    145.51349322619));
#261 = CARTESIAN_POINT('',(-25.9285407797,26.160365710333,
    145.50462563094));
#262 = CARTESIAN_POINT('',(-25.98618113721,26.10398224159,
    145.50012938332));
#263 = CARTESIAN_POINT('',(-26.10069674155,25.98953808602,
    145.49987379481));
#264 = CARTESIAN_POINT('',(-26.1575987553,25.931430250761,
    145.50418736708));
#265 = CARTESIAN_POINT('',(-26.21350444717,25.873075026049,
    145.51294940746));
#266 = CARTESIAN_POINT('',(-26.2680743897,25.814844385988,
    145.52605870606));
#267 = CARTESIAN_POINT('',(-26.32102717665,25.757078294816,
    145.5433350904));
#268 = CARTESIAN_POINT('',(-26.37213405692,25.700082878475,
    145.56454189574));
#269 = CARTESIAN_POINT('',(-26.42121411219,25.644129410548,
    145.58940208599));
#270 = CARTESIAN_POINT('',(-26.49755966056,25.555157045021,
    145.63530122587));
#271 = CARTESIAN_POINT('',(-26.52614754108,25.521351487696,
    145.65431694961));
#272 = CARTESIAN_POINT('',(-26.55386686697,25.488086929685,
    145.67458552396));
#273 = CARTESIAN_POINT('',(-26.58069876864,25.455405198418,
    145.69603660781));
#274 = CARTESIAN_POINT('',(-26.60663124776,25.42334106732,
    145.71860044108));
#275 = CARTESIAN_POINT('',(-26.63165816507,25.391922863487,
    145.74220909416));
#276 = CARTESIAN_POINT('',(-26.65577822814,25.361173075371,
    145.76679771733));
#277 = CARTESIAN_POINT('',(-26.70890912771,25.292369207249,
    145.82517475884));
#278 = CARTESIAN_POINT('',(-26.73732069773,25.254770624833,
    145.85956805653));
#279 = CARTESIAN_POINT('',(-26.76423673723,25.218347281472,
    145.89535746321));
#280 = CARTESIAN_POINT('',(-26.78967183896,25.183123989096,
    145.93242256653));
#281 = CARTESIAN_POINT('',(-26.81364579565,25.149117420789,
    145.97065163017));
#282 = CARTESIAN_POINT('',(-26.83618225541,25.11633722829,
    146.00994246187));
#283 = CARTESIAN_POINT('',(-26.85730737705,25.084787159484,
    146.05020328164));
#284 = CARTESIAN_POINT('',(-26.89229929929,25.031041975419,
    146.12314388681));
#285 = CARTESIAN_POINT('',(-26.90672333195,25.008352511001,
    146.15546350862));
#286 = CARTESIAN_POINT('',(-26.92033312447,24.986397558811,
    146.18827453748));
#287 = CARTESIAN_POINT('',(-26.93314092134,24.965176385954,
    146.22154137918));
#288 = CARTESIAN_POINT('',(-26.94515867033,24.944687750473,
    146.25523076306));
#289 = CARTESIAN_POINT('',(-26.95639802253,24.924929901356,
    146.2893117421));
#290 = CARTESIAN_POINT('',(-26.96687033234,24.905900578529,
    146.32375569287));
#291 = CARTESIAN_POINT('',(-26.98401679654,24.873600153363,
    146.38513329106));
#292 = CARTESIAN_POINT('',(-26.99100472751,24.860027913764,
    146.41192683677));
#293 = CARTESIAN_POINT('',(-26.99755529803,24.84687919241,
    146.43890506126));
#294 = CARTESIAN_POINT('',(-27.00367313896,24.834152918944,
    146.46605657084));
#295 = CARTESIAN_POINT('',(-27.00936266448,24.82184805431,
    146.49337046952));
#296 = CARTESIAN_POINT('',(-27.01462807201,24.809963590759,
    146.52083635903));
#297 = CARTESIAN_POINT('',(-27.01947334226,24.79849855184,
    146.54844433879));
#298 = CARTESIAN_POINT('',(-27.03558305662,24.758317685199,
    146.64934852111));
#299 = CARTESIAN_POINT('',(-27.04436663679,24.732096767523,
    146.72342880196));
#300 = CARTESIAN_POINT('',(-27.05032375803,24.708768743417,
    146.79825956989));
#301 = CARTESIAN_POINT('',(-27.05351094752,24.688322029648,
    146.8736852722));
#302 = CARTESIAN_POINT('',(-27.05397339856,24.670751508989,
    146.94955962391));
#303 = CARTESIAN_POINT('',(-27.05174619879,24.656057703193,
    147.02574451635));
#304 = CARTESIAN_POINT('',(-27.04685386929,24.644247565657,
    147.1021092926));
#305 = CARTESIAN_POINT('',(-27.02890015151,24.623046000503,
    147.2839414701));
#306 = CARTESIAN_POINT('',(-27.01344783573,24.616276428104,
    147.38941901357));
#307 = CARTESIAN_POINT('',(-26.9929873442,24.615059245346,
    147.49466025448));
#308 = CARTESIAN_POINT('',(-26.96750912945,24.619471627784,
    147.5993233724));
#309 = CARTESIAN_POINT('',(-26.93697474664,24.629618532524,
    147.70302727038));
#310 = CARTESIAN_POINT('',(-26.90132252488,24.64562622933,
    147.80534811246));
#311 = CARTESIAN_POINT('',(-26.86046218277,24.66764768806,
    147.90581262045));
#312 = CARTESIAN_POINT('',(-26.79736980239,24.706199339202,
    148.03973706199));
#313 = CARTESIAN_POINT('',(-26.77976948464,24.717347270606,
    148.07526225631));
#314 = CARTESIAN_POINT('',(-26.76145176446,24.729332619222,
    148.11043600343));
#315 = CARTESIAN_POINT('',(-26.74241119184,24.742164340053,
    148.14522817994));
#316 = CARTESIAN_POINT('',(-26.72264253748,24.755851340528,
    148.17960624851));
#317 = CARTESIAN_POINT('',(-26.70214079281,24.770402480497,
    148.21353525787));
#318 = CARTESIAN_POINT('',(-26.68090116997,24.785826572232,
    148.24697784284));
#319 = CARTESIAN_POINT('',(-26.63058048858,24.823153332066,
    148.32232902139));
#320 = CARTESIAN_POINT('',(-26.60100974465,24.845638272306,
    148.36388674064));
#321 = CARTESIAN_POINT('',(-26.57019671128,24.869606038575,
    148.40448382137));
#322 = CARTESIAN_POINT('',(-26.53813479061,24.89507304299,
    148.44402532505));
#323 = CARTESIAN_POINT('',(-26.50482212721,24.922051941683,
    148.48240579884));
#324 = CARTESIAN_POINT('',(-26.47026278965,24.950550304137,
    148.51951013909));
#325 = CARTESIAN_POINT('',(-26.43446795208,24.98056928251,
    148.55521445493));
#326 = CARTESIAN_POINT('',(-26.36825772438,25.03697991684,
    148.61634695707));
#327 = CARTESIAN_POINT('',(-26.33830298861,25.062798642219,
    148.6423520823));
#328 = CARTESIAN_POINT('',(-26.30760378462,25.08955400869,
    148.66733696372));
#329 = CARTESIAN_POINT('',(-26.27617605551,25.117236990713,
    148.69123159577));
#330 = CARTESIAN_POINT('',(-26.24404157597,25.145833048274,
    148.71396264477));
#331 = CARTESIAN_POINT('',(-26.21122875704,25.175321189527,
    148.73545478263));
#332 = CARTESIAN_POINT('',(-26.17777345078,25.205673033441,
    148.75563202053));
#333 = CARTESIAN_POINT('',(-26.08963931224,25.286366774626,
    148.80425458467));
#334 = CARTESIAN_POINT('',(-26.03402068925,25.33799391056,148.8306002753
    ));
#335 = CARTESIAN_POINT('',(-25.97707588649,25.391555291148,
    148.85312742517));
#336 = CARTESIAN_POINT('',(-25.919056087,25.446828763593,148.87153961251
    ));
#337 = CARTESIAN_POINT('',(-25.86025402343,25.503546194942,
    148.88558275753));
#338 = CARTESIAN_POINT('',(-25.80100548745,25.561391013594,
    148.89506212717));
#339 = CARTESIAN_POINT('',(-25.74168998166,25.619995108752,
    148.89986627005));
#340 = CARTESIAN_POINT('',(-25.62329677447,25.738349181732,
    148.90013055179));
#341 = CARTESIAN_POINT('',(-25.56418485453,25.798144542801,
    148.89551530175));
#342 = CARTESIAN_POINT('',(-25.50582959456,25.857887175617,
    148.88614496156));
#343 = CARTESIAN_POINT('',(-25.44860920381,25.917187470246,
    148.87213084521));
#344 = CARTESIAN_POINT('',(-25.39284904527,25.975700539295,
    148.85367072693));
#345 = CARTESIAN_POINT('',(-25.33882475948,26.03312563781,148.8310240508
    ));
#346 = CARTESIAN_POINT('',(-25.28676472745,26.089204666031,
    148.80449437386));
#347 = CARTESIAN_POINT('',(-25.20567303344,26.177773450781,
    148.75563202053));
#348 = CARTESIAN_POINT('',(-25.17532118952,26.211228757045,
    148.73545478263));
#349 = CARTESIAN_POINT('',(-25.14583304827,26.244041575977,
    148.71396264477));
#350 = CARTESIAN_POINT('',(-25.11723699071,26.276176055517,
    148.69123159577));
#351 = CARTESIAN_POINT('',(-25.08955400869,26.30760378463,
    148.66733696372));
#352 = CARTESIAN_POINT('',(-25.06279864221,26.338302988612,
    148.6423520823));
#353 = CARTESIAN_POINT('',(-25.03697991684,26.368257724386,
    148.61634695707));
#354 = CARTESIAN_POINT('',(-24.98056928251,26.434467952085,
    148.55521445493));
#355 = CARTESIAN_POINT('',(-24.95055030413,26.470262789655,
    148.51951013909));
#356 = CARTESIAN_POINT('',(-24.92205194168,26.504822127215,
    148.48240579884));
#357 = CARTESIAN_POINT('',(-24.89507304299,26.538134790618,
    148.44402532505));
#358 = CARTESIAN_POINT('',(-24.86960603857,26.570196711288,
    148.40448382137));
#359 = CARTESIAN_POINT('',(-24.8456382723,26.601009744656,
    148.36388674064));
#360 = CARTESIAN_POINT('',(-24.82315333206,26.630580488587,
    148.32232902139));
#361 = CARTESIAN_POINT('',(-24.74232928703,26.739540415371,
    148.15917028284));
#362 = CARTESIAN_POINT('',(-24.69446191862,26.810072159637,
    148.03152485696));
#363 = CARTESIAN_POINT('',(-24.65794136805,26.870929676093,
    147.89871737914));
#364 = CARTESIAN_POINT('',(-24.63235865108,26.922361539105,
    147.76218093074));
#365 = CARTESIAN_POINT('',(-24.61734435143,26.964573383473,
    147.62312873919));
#366 = CARTESIAN_POINT('',(-24.61256218041,26.997738103002,
    147.48257410359));
#367 = CARTESIAN_POINT('',(-24.61777650274,27.021939558775,
    147.34132317284));
#368 = CARTESIAN_POINT('',(-24.63293387976,27.037096935798,147.2));
#369 = FACE_BOUND('',#370,.T.);
#370 = EDGE_LOOP('',(#371));
#371 = ORIENTED_EDGE('',*,*,#372,.F.);
#372 = EDGE_CURVE('',#373,#373,#375,.T.);
#373 = VERTEX_POINT('',#374);
#374 = CARTESIAN_POINT('',(24.632933879764,-27.03709693579,147.2));
#375 = B_SPLINE_CURVE_WITH_KNOTS('',8,(#376,#377,#378,#379,#380,#381,
    #382,#383,#384,#385,#386,#387,#388,#389,#390,#391,#392,#393,#394,
    #395,#396,#397,#398,#399,#400,#401,#402,#403,#404,#405,#406,#407,
    #408,#409,#410,#411,#412,#413,#414,#415,#416,#417,#418,#419,#420,
    #421,#422,#423,#424,#425,#426,#427,#428,#429,#430,#431,#432,#433,
    #434,#435,#436,#437,#438,#439,#440,#441,#442,#443,#444,#445,#446,
    #447,#448,#449,#450,#451,#452,#453,#454,#455,#456,#457,#458,#459,
    #460,#461,#462,#463,#464,#465,#466,#467,#468,#469,#470,#471,#472,
    #473,#474,#475,#476,#477,#478,#479,#480,#481,#482,#483,#484,#485,
    #486,#487,#488,#489,#490,#491,#492,#493,#494,#495,#496,#497,#498,
    #499,#500,#501,#502,#503,#504,#505,#506,#507,#508,#509,#510),
  .UNSPECIFIED.,.T.,.F.,(9,7,7,7,7,7,7,7,7,7,7,7,7,7,7,7,7,7,7,9),(0.,
    0.124574889585,0.166411256521,0.198878508865,0.250210103303,
    0.301968720791,0.33443619447,0.376272846613,0.408593372256,
    0.433309095119,0.498494591742,0.588407899311,0.621273352329,
    0.663642494054,0.697069194057,0.750153909025,0.803665638932,
    0.837092570946,0.879462006751,1.),.UNSPECIFIED.);
#376 = CARTESIAN_POINT('',(24.632933879764,-27.03709693579,147.2));
#377 = CARTESIAN_POINT('',(24.648599745612,-27.05276280164,
    147.0539358186));
#378 = CARTESIAN_POINT('',(24.674850183256,-27.05872945616,
    146.90814373421));
#379 = CARTESIAN_POINT('',(24.711543533435,-27.05498863247,
    146.7632835426));
#380 = CARTESIAN_POINT('',(24.758728180436,-27.04127187999,
    146.62022947931));
#381 = CARTESIAN_POINT('',(24.816487848209,-27.01719649408,
    146.48006093637));
#382 = CARTESIAN_POINT('',(24.884943184133,-26.98224403751,
    146.34409881943));
#383 = CARTESIAN_POINT('',(24.964180296455,-26.93583098891,
    146.21388562324));
#384 = CARTESIAN_POINT('',(25.084787159484,-26.85730737705,
    146.05020328164));
#385 = CARTESIAN_POINT('',(25.11633722829,-26.83618225541,
    146.00994246187));
#386 = CARTESIAN_POINT('',(25.149117420789,-26.81364579565,
    145.97065163017));
#387 = CARTESIAN_POINT('',(25.183123989096,-26.78967183896,
    145.93242256653));
#388 = CARTESIAN_POINT('',(25.218347281472,-26.76423673723,
    145.89535746321));
#389 = CARTESIAN_POINT('',(25.254770624833,-26.73732069773,
    145.85956805653));
#390 = CARTESIAN_POINT('',(25.292369207249,-26.70890912771,
    145.82517475884));
#391 = CARTESIAN_POINT('',(25.361173075371,-26.65577822814,
    145.76679771733));
#392 = CARTESIAN_POINT('',(25.391922863487,-26.63165816507,
    145.74220909416));
#393 = CARTESIAN_POINT('',(25.423341067319,-26.60663124776,
    145.71860044108));
#394 = CARTESIAN_POINT('',(25.455405198418,-26.58069876864,
    145.69603660781));
#395 = CARTESIAN_POINT('',(25.488086929685,-26.55386686697,
    145.67458552396));
#396 = CARTESIAN_POINT('',(25.521351487695,-26.52614754108,
    145.65431694961));
#397 = CARTESIAN_POINT('',(25.55515704502,-26.49755966056,
    145.63530122587));
#398 = CARTESIAN_POINT('',(25.643678693725,-26.42160086399,
    145.58963460217));
#399 = CARTESIAN_POINT('',(25.699159549085,-26.37294387475,
    145.56495246585));
#400 = CARTESIAN_POINT('',(25.755666955278,-26.32229246285,
    145.54386110352));
#401 = CARTESIAN_POINT('',(25.812937049064,-26.26982233873,
    145.52663082134));
#402 = CARTESIAN_POINT('',(25.870671970972,-26.21575565175,
    145.51349322619));
#403 = CARTESIAN_POINT('',(25.9285407797,-26.16036571033,145.50462563094
    ));
#404 = CARTESIAN_POINT('',(25.986181137216,-26.10398224159,
    145.50012938332));
#405 = CARTESIAN_POINT('',(26.100696741556,-25.98953808602,
    145.49987379481));
#406 = CARTESIAN_POINT('',(26.157598755307,-25.93143025076,
    145.50418736708));
#407 = CARTESIAN_POINT('',(26.213504447176,-25.87307502604,
    145.51294940746));
#408 = CARTESIAN_POINT('',(26.268074389701,-25.81484438598,
    145.52605870606));
#409 = CARTESIAN_POINT('',(26.321027176657,-25.75707829481,
    145.5433350904));
#410 = CARTESIAN_POINT('',(26.372134056922,-25.70008287847,
    145.56454189574));
#411 = CARTESIAN_POINT('',(26.421214112192,-25.64412941054,
    145.58940208599));
#412 = CARTESIAN_POINT('',(26.497559660569,-25.55515704502,
    145.63530122587));
#413 = CARTESIAN_POINT('',(26.526147541084,-25.52135148769,
    145.65431694961));
#414 = CARTESIAN_POINT('',(26.553866866974,-25.48808692968,
    145.67458552396));
#415 = CARTESIAN_POINT('',(26.580698768641,-25.45540519841,
    145.69603660781));
#416 = CARTESIAN_POINT('',(26.606631247764,-25.42334106732,
    145.71860044108));
#417 = CARTESIAN_POINT('',(26.631658165078,-25.39192286348,
    145.74220909416));
#418 = CARTESIAN_POINT('',(26.655778228148,-25.36117307537,
    145.76679771733));
#419 = CARTESIAN_POINT('',(26.708909127715,-25.29236920724,
    145.82517475884));
#420 = CARTESIAN_POINT('',(26.737320697734,-25.25477062483,
    145.85956805653));
#421 = CARTESIAN_POINT('',(26.764236737239,-25.21834728147,
    145.89535746321));
#422 = CARTESIAN_POINT('',(26.78967183896,-25.18312398909,
    145.93242256653));
#423 = CARTESIAN_POINT('',(26.81364579565,-25.14911742078,
    145.97065163017));
#424 = CARTESIAN_POINT('',(26.836182255417,-25.11633722829,
    146.00994246187));
#425 = CARTESIAN_POINT('',(26.857307377053,-25.08478715948,
    146.05020328164));
#426 = CARTESIAN_POINT('',(26.892299299298,-25.03104197541,
    146.12314388681));
#427 = CARTESIAN_POINT('',(26.90672333195,-25.008352511,146.15546350862)
  );
#428 = CARTESIAN_POINT('',(26.920333124476,-24.98639755881,
    146.18827453748));
#429 = CARTESIAN_POINT('',(26.933140921343,-24.96517638595,
    146.22154137918));
#430 = CARTESIAN_POINT('',(26.945158670331,-24.94468775047,
    146.25523076306));
#431 = CARTESIAN_POINT('',(26.95639802253,-24.92492990135,146.2893117421
    ));
#432 = CARTESIAN_POINT('',(26.966870332346,-24.90590057852,
    146.32375569287));
#433 = CARTESIAN_POINT('',(26.984016796544,-24.87360015336,
    146.38513329106));
#434 = CARTESIAN_POINT('',(26.991004727518,-24.86002791376,
    146.41192683677));
#435 = CARTESIAN_POINT('',(26.997555298031,-24.84687919241,
    146.43890506126));
#436 = CARTESIAN_POINT('',(27.003673138967,-24.83415291894,
    146.46605657084));
#437 = CARTESIAN_POINT('',(27.009362664485,-24.82184805431,
    146.49337046952));
#438 = CARTESIAN_POINT('',(27.014628072015,-24.80996359075,
    146.52083635903));
#439 = CARTESIAN_POINT('',(27.019473342261,-24.79849855184,
    146.54844433879));
#440 = CARTESIAN_POINT('',(27.035583056628,-24.75831768519,
    146.64934852111));
#441 = CARTESIAN_POINT('',(27.044366636793,-24.73209676752,
    146.72342880196));
#442 = CARTESIAN_POINT('',(27.050323758031,-24.70876874341,
    146.79825956989));
#443 = CARTESIAN_POINT('',(27.05351094752,-24.68832202964,146.8736852722
    ));
#444 = CARTESIAN_POINT('',(27.053973398564,-24.67075150898,
    146.94955962391));
#445 = CARTESIAN_POINT('',(27.051746198793,-24.65605770319,
    147.02574451635));
#446 = CARTESIAN_POINT('',(27.046853869295,-24.64424756565,
    147.1021092926));
#447 = CARTESIAN_POINT('',(27.028900151515,-24.6230460005,147.2839414701
    ));
#448 = CARTESIAN_POINT('',(27.013447835735,-24.6162764281,
    147.38941901357));
#449 = CARTESIAN_POINT('',(26.992987344202,-24.61505924534,
    147.49466025448));
#450 = CARTESIAN_POINT('',(26.967509129451,-24.61947162778,
    147.5993233724));
#451 = CARTESIAN_POINT('',(26.936974746648,-24.62961853252,
    147.70302727038));
#452 = CARTESIAN_POINT('',(26.90132252488,-24.64562622933,
    147.80534811246));
#453 = CARTESIAN_POINT('',(26.860462182775,-24.66764768806,
    147.90581262045));
#454 = CARTESIAN_POINT('',(26.797369802395,-24.7061993392,
    148.03973706199));
#455 = CARTESIAN_POINT('',(26.779769484645,-24.7173472706,
    148.07526225631));
#456 = CARTESIAN_POINT('',(26.761451764465,-24.72933261922,
    148.11043600343));
#457 = CARTESIAN_POINT('',(26.742411191845,-24.74216434005,
    148.14522817994));
#458 = CARTESIAN_POINT('',(26.722642537489,-24.75585134052,
    148.17960624851));
#459 = CARTESIAN_POINT('',(26.702140792819,-24.77040248049,
    148.21353525787));
#460 = CARTESIAN_POINT('',(26.680901169975,-24.78582657223,
    148.24697784284));
#461 = CARTESIAN_POINT('',(26.630580488586,-24.82315333206,
    148.32232902139));
#462 = CARTESIAN_POINT('',(26.601009744656,-24.8456382723,
    148.36388674064));
#463 = CARTESIAN_POINT('',(26.570196711288,-24.86960603857,
    148.40448382137));
#464 = CARTESIAN_POINT('',(26.538134790618,-24.89507304299,
    148.44402532505));
#465 = CARTESIAN_POINT('',(26.504822127215,-24.92205194168,
    148.48240579884));
#466 = CARTESIAN_POINT('',(26.470262789654,-24.95055030413,
    148.51951013909));
#467 = CARTESIAN_POINT('',(26.434467952085,-24.98056928251,
    148.55521445493));
#468 = CARTESIAN_POINT('',(26.368257724386,-25.03697991684,
    148.61634695707));
#469 = CARTESIAN_POINT('',(26.338302988611,-25.06279864221,
    148.6423520823));
#470 = CARTESIAN_POINT('',(26.307603784629,-25.08955400869,
    148.66733696372));
#471 = CARTESIAN_POINT('',(26.276176055516,-25.11723699071,
    148.69123159577));
#472 = CARTESIAN_POINT('',(26.244041575977,-25.14583304827,
    148.71396264477));
#473 = CARTESIAN_POINT('',(26.211228757045,-25.17532118952,
    148.73545478263));
#474 = CARTESIAN_POINT('',(26.177773450781,-25.20567303344,
    148.75563202053));
#475 = CARTESIAN_POINT('',(26.089639312249,-25.28636677462,
    148.80425458467));
#476 = CARTESIAN_POINT('',(26.03402068926,-25.33799391056,148.8306002753
    ));
#477 = CARTESIAN_POINT('',(25.977075886497,-25.39155529114,
    148.85312742517));
#478 = CARTESIAN_POINT('',(25.919056087009,-25.44682876359,
    148.87153961251));
#479 = CARTESIAN_POINT('',(25.860254023436,-25.50354619494,
    148.88558275753));
#480 = CARTESIAN_POINT('',(25.801005487457,-25.56139101359,
    148.89506212717));
#481 = CARTESIAN_POINT('',(25.741689981667,-25.61999510875,
    148.89986627005));
#482 = CARTESIAN_POINT('',(25.623296774472,-25.73834918173,
    148.90013055179));
#483 = CARTESIAN_POINT('',(25.564184854539,-25.7981445428,
    148.89551530175));
#484 = CARTESIAN_POINT('',(25.50582959456,-25.85788717561,
    148.88614496156));
#485 = CARTESIAN_POINT('',(25.448609203813,-25.91718747024,
    148.87213084521));
#486 = CARTESIAN_POINT('',(25.392849045272,-25.97570053929,
    148.85367072693));
#487 = CARTESIAN_POINT('',(25.338824759487,-26.03312563781,
    148.8310240508));
#488 = CARTESIAN_POINT('',(25.286764727451,-26.08920466603,
    148.80449437386));
#489 = CARTESIAN_POINT('',(25.205673033441,-26.17777345078,
    148.75563202053));
#490 = CARTESIAN_POINT('',(25.175321189527,-26.21122875704,
    148.73545478263));
#491 = CARTESIAN_POINT('',(25.145833048274,-26.24404157597,
    148.71396264477));
#492 = CARTESIAN_POINT('',(25.117236990713,-26.27617605551,
    148.69123159577));
#493 = CARTESIAN_POINT('',(25.08955400869,-26.30760378463,
    148.66733696372));
#494 = CARTESIAN_POINT('',(25.062798642219,-26.33830298861,
    148.6423520823));
#495 = CARTESIAN_POINT('',(25.03697991684,-26.36825772438,
    148.61634695707));
#496 = CARTESIAN_POINT('',(24.98056928251,-26.43446795208,
    148.55521445493));
#497 = CARTESIAN_POINT('',(24.950550304136,-26.47026278965,
    148.51951013909));
#498 = CARTESIAN_POINT('',(24.922051941683,-26.50482212721,
    148.48240579884));
#499 = CARTESIAN_POINT('',(24.89507304299,-26.53813479061,
    148.44402532505));
#500 = CARTESIAN_POINT('',(24.869606038575,-26.57019671128,
    148.40448382137));
#501 = CARTESIAN_POINT('',(24.845638272306,-26.60100974465,
    148.36388674064));
#502 = CARTESIAN_POINT('',(24.823153332066,-26.63058048858,
    148.32232902139));
#503 = CARTESIAN_POINT('',(24.742329287033,-26.73954041537,
    148.15917028284));
#504 = CARTESIAN_POINT('',(24.694461918625,-26.81007215963,
    148.03152485696));
#505 = CARTESIAN_POINT('',(24.657941368057,-26.87092967609,
    147.89871737914));
#506 = CARTESIAN_POINT('',(24.632358651088,-26.9223615391,
    147.76218093074));
#507 = CARTESIAN_POINT('',(24.617344351432,-26.96457338347,
    147.62312873919));
#508 = CARTESIAN_POINT('',(24.612562180418,-26.997738103,147.48257410359
    ));
#509 = CARTESIAN_POINT('',(24.617776502741,-27.02193955877,
    147.34132317284));
#510 = CARTESIAN_POINT('',(24.632933879764,-27.03709693579,147.2));
#511 = FACE_BOUND('',#512,.T.);
#512 = EDGE_LOOP('',(#513));
#513 = ORIENTED_EDGE('',*,*,#514,.F.);
#514 = EDGE_CURVE('',#515,#515,#517,.T.);
#515 = VERTEX_POINT('',#516);
#516 = CARTESIAN_POINT('',(-24.63293387976,-27.03709693579,147.2));
#517 = B_SPLINE_CURVE_WITH_KNOTS('',7,(#518,#519,#520,#521,#522,#523,
    #524,#525,#526,#527,#528,#529,#530,#531,#532,#533,#534,#535,#536,
    #537,#538,#539,#540,#541,#542,#543,#544,#545,#546,#547,#548,#549,
    #550,#551,#552,#553,#554,#555,#556,#557,#558,#559,#560,#561,#562,
    #563,#564,#565,#566,#567,#568,#569,#570,#571,#572,#573,#574,#575,
    #576,#577,#578,#579,#580,#581,#582,#583,#584,#585,#586,#587,#588,
    #589,#590,#591,#592,#593,#594,#595,#596,#597,#598,#599,#600,#601,
    #602,#603,#604,#605,#606,#607,#608,#609,#610,#611,#612,#613,#614,
    #615,#616,#617,#618,#619,#620,#621,#622,#623,#624,#625,#626,#627,
    #628,#629,#630,#631,#632,#633,#634,#635,#636,#637,#638,#639),
  .UNSPECIFIED.,.T.,.F.,(8,6,6,6,6,6,6,6,6,6,6,6,6,6,6,6,6,6,6,6,8),(0.,
    0.120539173734,0.162909331913,0.196336833837,0.249422822329,
    0.302935836004,0.336363569945,0.37873402221,0.411600491804,
    0.501516580524,0.56670409343,0.591420580787,0.623742106151,
    0.665580052363,0.698048530309,0.749382062457,0.801142633774,
    0.833611333063,0.875449564492,0.982838500769,1.),.UNSPECIFIED.);
#518 = CARTESIAN_POINT('',(-24.63293387976,-27.03709693579,147.2));
#519 = CARTESIAN_POINT('',(-24.61561090055,-27.01977395659,
    147.36151464602));
#520 = CARTESIAN_POINT('',(-24.61154611151,-26.99039219068,
    147.5229295552));
#521 = CARTESIAN_POINT('',(-24.62082357815,-26.94908167011,
    147.68324909872));
#522 = CARTESIAN_POINT('',(-24.64389389691,-26.89564134271,
    147.84111227802));
#523 = CARTESIAN_POINT('',(-24.68135351443,-26.82974404079,
    147.9947249049));
#524 = CARTESIAN_POINT('',(-24.73378648388,-26.75105707733,
    148.14192500658));
#525 = CARTESIAN_POINT('',(-24.82615632515,-26.62653211526,
    148.32839113526));
#526 = CARTESIAN_POINT('',(-24.85213225468,-26.59250228778,
    148.3757186091));
#527 = CARTESIAN_POINT('',(-24.8800903089,-26.55681336539,
    148.42174294873));
#528 = CARTESIAN_POINT('',(-24.91005577707,-26.51945621584,
    148.46630770138));
#529 = CARTESIAN_POINT('',(-24.94204554936,-26.48043197949,
    148.50923596128));
#530 = CARTESIAN_POINT('',(-24.97606456844,-26.43975522012,
    148.55033267252));
#531 = CARTESIAN_POINT('',(-25.04053386482,-26.36408638846,
    148.62019838925));
#532 = CARTESIAN_POINT('',(-25.07022023468,-26.32970852199,
    148.64973664665));
#533 = CARTESIAN_POINT('',(-25.10115427309,-26.29434094221,
    148.67789715397));
#534 = CARTESIAN_POINT('',(-25.13331970833,-26.25801116882,
    148.70456603758));
#535 = CARTESIAN_POINT('',(-25.16668861484,-26.22075892123,
    148.72962365676));
#536 = CARTESIAN_POINT('',(-25.20121891358,-26.18263826446,
    148.75294816023));
#537 = CARTESIAN_POINT('',(-25.29344033208,-26.08191353471,
    148.80851680497));
#538 = CARTESIAN_POINT('',(-25.35284510338,-26.01805640744,
    148.83796143208));
#539 = CARTESIAN_POINT('',(-25.4147814038,-25.95248757393,
    148.86222702103));
#540 = CARTESIAN_POINT('',(-25.47887612338,-25.88562460008,
    148.88085220398));
#541 = CARTESIAN_POINT('',(-25.54466298087,-25.81796972901,
    148.89346701343));
#542 = CARTESIAN_POINT('',(-25.61157511174,-25.75011276278,
    148.8998474684));
#543 = CARTESIAN_POINT('',(-25.74683690943,-25.61480624027,
    148.90014950467));
#544 = CARTESIAN_POINT('',(-25.81524708725,-25.54731105929,
    148.89397056744));
#545 = CARTESIAN_POINT('',(-25.88347122863,-25.48094071572,
    148.88144959803));
#546 = CARTESIAN_POINT('',(-25.95090371186,-25.4162776919,148.8628120924
    ));
#547 = CARTESIAN_POINT('',(-26.01702858501,-25.35380130088,
    148.83843511781));
#548 = CARTESIAN_POINT('',(-26.08141679618,-25.29389513531,
    148.80879084975));
#549 = CARTESIAN_POINT('',(-26.18263826446,-25.20121891358,
    148.75294816023));
#550 = CARTESIAN_POINT('',(-26.22075892123,-25.16668861484,
    148.72962365676));
#551 = CARTESIAN_POINT('',(-26.25801116882,-25.13331970833,
    148.70456603758));
#552 = CARTESIAN_POINT('',(-26.29434094221,-25.10115427309,
    148.67789715397));
#553 = CARTESIAN_POINT('',(-26.32970852199,-25.07022023468,
    148.64973664665));
#554 = CARTESIAN_POINT('',(-26.36408638846,-25.04053386482,
    148.62019838925));
#555 = CARTESIAN_POINT('',(-26.43975522012,-24.97606456844,
    148.55033267252));
#556 = CARTESIAN_POINT('',(-26.48043197949,-24.94204554936,
    148.50923596128));
#557 = CARTESIAN_POINT('',(-26.51945621584,-24.91005577707,
    148.46630770138));
#558 = CARTESIAN_POINT('',(-26.55681336539,-24.8800903089,
    148.42174294873));
#559 = CARTESIAN_POINT('',(-26.59250228778,-24.85213225468,
    148.3757186091));
#560 = CARTESIAN_POINT('',(-26.62653211526,-24.82615632515,
    148.32839113526));
#561 = CARTESIAN_POINT('',(-26.68404146542,-24.78349717106,
    148.24227550263));
#562 = CARTESIAN_POINT('',(-26.70817390195,-24.76603758364,
    148.20395517629));
#563 = CARTESIAN_POINT('',(-26.73132371881,-24.74973959466,
    148.16499689185));
#564 = CARTESIAN_POINT('',(-26.75349866487,-24.73458908544,
    148.12545946804));
#565 = CARTESIAN_POINT('',(-26.77470693044,-24.72057184218,
    148.08539689574));
#566 = CARTESIAN_POINT('',(-26.79495714724,-24.70767355588,148.044858338
    ));
#567 = CARTESIAN_POINT('',(-26.86706272482,-24.663614526,147.89180183337
    ));
#568 = CARTESIAN_POINT('',(-26.91274245823,-24.63963013043,
    147.77653020548));
#569 = CARTESIAN_POINT('',(-26.95151411969,-24.62361157377,
    147.65892550932));
#570 = CARTESIAN_POINT('',(-26.9835041392,-24.61533168179,
    147.53972123549));
#571 = CARTESIAN_POINT('',(-27.00879268586,-24.6146051846,
    147.41955861947));
#572 = CARTESIAN_POINT('',(-27.02741328535,-24.6212901586,
    147.29900019586));
#573 = CARTESIAN_POINT('',(-27.04793181995,-24.64552051878,
    147.09119199299));
#574 = CARTESIAN_POINT('',(-27.0530176584,-24.65957009799,147.0039286908
    ));
#575 = CARTESIAN_POINT('',(-27.05454684266,-24.67746035558,
    146.91693818378));
#576 = CARTESIAN_POINT('',(-27.05247505238,-24.69918370371,
    146.83043236062));
#577 = CARTESIAN_POINT('',(-27.04673826744,-24.72474380959,146.744638252
    ));
#578 = CARTESIAN_POINT('',(-27.03725174483,-24.75415564131,
    146.65980045185));
#579 = CARTESIAN_POINT('',(-27.01884064269,-24.80007663175,
    146.54448138634));
#580 = CARTESIAN_POINT('',(-27.01322388178,-24.81325924375,
    146.51295468326));
#581 = CARTESIAN_POINT('',(-27.0070459341,-24.82700134064,
    146.48161994128));
#582 = CARTESIAN_POINT('',(-27.00030034383,-24.84130449724,
    146.4504932004));
#583 = CARTESIAN_POINT('',(-26.99298022169,-24.85617035101,
    146.41959149603));
#584 = CARTESIAN_POINT('',(-26.98507824497,-24.871600602,146.38893285899
    ));
#585 = CARTESIAN_POINT('',(-26.96548228589,-24.90851537362,
    146.31878703249));
#586 = CARTESIAN_POINT('',(-26.95336993474,-24.9304014106,
    146.27948664531));
#587 = CARTESIAN_POINT('',(-26.94023191168,-24.95325955439,
    146.24067723372));
#588 = CARTESIAN_POINT('',(-26.926049931,-24.97709321751,146.20240552464
    ));
#589 = CARTESIAN_POINT('',(-26.91080511359,-25.00190479431,
    146.16472289222));
#590 = CARTESIAN_POINT('',(-26.894477987,-25.02769566106,146.1276853578)
  );
#591 = CARTESIAN_POINT('',(-26.85448721872,-25.08911872856,
    146.04432466617));
#592 = CARTESIAN_POINT('',(-26.83008060098,-25.12541006153,
    145.9984817271));
#593 = CARTESIAN_POINT('',(-26.80378491245,-25.16334183634,
    145.95395357201));
#594 = CARTESIAN_POINT('',(-26.77555876546,-25.20290614184,
    145.91089156106));
#595 = CARTESIAN_POINT('',(-26.74536669018,-25.24408251418,
    145.86946730012));
#596 = CARTESIAN_POINT('',(-26.71318272036,-25.28683495679,
    145.82987032578));
#597 = CARTESIAN_POINT('',(-26.65246169229,-25.36546794893,
    145.76315370691));
#598 = CARTESIAN_POINT('',(-26.624723656,-25.40074116833,145.73522755657
    ));
#599 = CARTESIAN_POINT('',(-26.59577580281,-25.4369010067,
    145.70862417178));
#600 = CARTESIAN_POINT('',(-26.56562173446,-25.47390939012,
    145.68344904383));
#601 = CARTESIAN_POINT('',(-26.53427542115,-25.51171616227,
    145.65981299084));
#602 = CARTESIAN_POINT('',(-26.50176390086,-25.55025746394,
    145.63782882594));
#603 = CARTESIAN_POINT('',(-26.41495384763,-25.65142506246,
    145.58563839885));
#604 = CARTESIAN_POINT('',(-26.35894055046,-25.71507104462,
    145.55805715485));
#605 = CARTESIAN_POINT('',(-26.30030361028,-25.78002450167,
    145.53534347273));
#606 = CARTESIAN_POINT('',(-26.23934106717,-25.84584959645,
    145.51791816996));
#607 = CARTESIAN_POINT('',(-26.17644662605,-25.91204259516,
    145.50611831991));
#608 = CARTESIAN_POINT('',(-26.11212296315,-25.9780353333,
    145.50014756402));
#609 = CARTESIAN_POINT('',(-25.9813296425,-26.10891030969,
    145.49985546287));
#610 = CARTESIAN_POINT('',(-25.91479712018,-26.17382823717,
    145.50563133515));
#611 = CARTESIAN_POINT('',(-25.84804176956,-26.23731017317,
    145.51734025085));
#612 = CARTESIAN_POINT('',(-25.7816470024,-26.29883860622,
    145.53477716126));
#613 = CARTESIAN_POINT('',(-25.71613044883,-26.35800812737,
    145.55759830562));
#614 = CARTESIAN_POINT('',(-25.6519401674,-26.41451184557,
    145.58537266608));
#615 = CARTESIAN_POINT('',(-25.55025746394,-26.50176390086,
    145.63782882594));
#616 = CARTESIAN_POINT('',(-25.51171616227,-26.53427542115,
    145.65981299084));
#617 = CARTESIAN_POINT('',(-25.47390939012,-26.56562173446,
    145.68344904383));
#618 = CARTESIAN_POINT('',(-25.4369010067,-26.59577580281,
    145.70862417178));
#619 = CARTESIAN_POINT('',(-25.40074116833,-26.624723656,145.73522755657
    ));
#620 = CARTESIAN_POINT('',(-25.36546794893,-26.65246169229,
    145.76315370691));
#621 = CARTESIAN_POINT('',(-25.28683495679,-26.71318272036,
    145.82987032578));
#622 = CARTESIAN_POINT('',(-25.24408251418,-26.74536669018,
    145.86946730012));
#623 = CARTESIAN_POINT('',(-25.20290614184,-26.77555876546,
    145.91089156106));
#624 = CARTESIAN_POINT('',(-25.16334183634,-26.80378491245,
    145.95395357201));
#625 = CARTESIAN_POINT('',(-25.12541006153,-26.83008060098,
    145.9984817271));
#626 = CARTESIAN_POINT('',(-25.08911872856,-26.85448721872,
    146.04432466617));
#627 = CARTESIAN_POINT('',(-24.96552119322,-26.93495797013,
    146.21206581699));
#628 = CARTESIAN_POINT('',(-24.88748336956,-26.98063827843,
    146.34044081568));
#629 = CARTESIAN_POINT('',(-24.82014359366,-27.01496977123,
    146.47445001613));
#630 = CARTESIAN_POINT('',(-24.76341721999,-27.0385456028,
    146.61250255014));
#631 = CARTESIAN_POINT('',(-24.71716731207,-27.05189306026,
    146.75327912029));
#632 = CARTESIAN_POINT('',(-24.68128575059,-27.05539772973,
    146.89576291383));
#633 = CARTESIAN_POINT('',(-24.6517472066,-27.04821318133,
    147.06213886066));
#634 = CARTESIAN_POINT('',(-24.6479436924,-27.04697567191,
    147.08508478643));
#635 = CARTESIAN_POINT('',(-24.64440691341,-27.04549133397,
    147.10804822513));
#636 = CARTESIAN_POINT('',(-24.64113715015,-27.04376080557,
    147.13102531127));
#637 = CARTESIAN_POINT('',(-24.63813475779,-27.0417846233,
    147.15401219271));
#638 = CARTESIAN_POINT('',(-24.63540016616,-27.03956322219,
    147.17700503074));
#639 = CARTESIAN_POINT('',(-24.63293387976,-27.03709693579,147.2));
#640 = CONICAL_SURFACE('',#641,37.,0.150371428007);
#641 = AXIS2_PLACEMENT_3D('',#642,#643,#644);
#642 = CARTESIAN_POINT('',(0.,0.,144.4));
#643 = DIRECTION('',(-0.,-0.,-1.));
#644 = DIRECTION('',(1.,0.,0.));
#645 = ADVANCED_FACE('',(#646,#657),#660,.F.);
#646 = FACE_BOUND('',#647,.T.);
#647 = EDGE_LOOP('',(#648));
#648 = ORIENTED_EDGE('',*,*,#649,.T.);
#649 = EDGE_CURVE('',#650,#650,#652,.T.);
#650 = VERTEX_POINT('',#651);
#651 = CARTESIAN_POINT('',(33.8,0.,144.4));
#652 = CIRCLE('',#653,33.8);
#653 = AXIS2_PLACEMENT_3D('',#654,#655,#656);
#654 = CARTESIAN_POINT('',(0.,0.,144.4));
#655 = DIRECTION('',(0.,0.,1.));
#656 = DIRECTION('',(1.,0.,0.));
#657 = FACE_BOUND('',#658,.T.);
#658 = EDGE_LOOP('',(#659));
#659 = ORIENTED_EDGE('',*,*,#74,.F.);
#660 = PLANE('',#661);
#661 = AXIS2_PLACEMENT_3D('',#662,#663,#664);
#662 = CARTESIAN_POINT('',(0.,0.,144.4));
#663 = DIRECTION('',(0.,0.,1.));
#664 = DIRECTION('',(1.,0.,0.));
#665 = ADVANCED_FACE('',(#666),#685,.T.);
#666 = FACE_BOUND('',#667,.T.);
#667 = EDGE_LOOP('',(#668,#669,#677,#684));
#668 = ORIENTED_EDGE('',*,*,#91,.T.);
#669 = ORIENTED_EDGE('',*,*,#670,.T.);
#670 = EDGE_CURVE('',#84,#671,#673,.T.);
#671 = VERTEX_POINT('',#672);
#672 = CARTESIAN_POINT('',(30.,0.,158.));
#673 = LINE('',#674,#675);
#674 = CARTESIAN_POINT('',(36.,0.,151.));
#675 = VECTOR('',#676,1.);
#676 = DIRECTION('',(-0.650791373456,0.,0.759256602365));
#677 = ORIENTED_EDGE('',*,*,#678,.F.);
#678 = EDGE_CURVE('',#671,#671,#679,.T.);
#679 = CIRCLE('',#680,30.);
#680 = AXIS2_PLACEMENT_3D('',#681,#682,#683);
#681 = CARTESIAN_POINT('',(0.,0.,158.));
#682 = DIRECTION('',(0.,0.,1.));
#683 = DIRECTION('',(1.,0.,0.));
#684 = ORIENTED_EDGE('',*,*,#670,.F.);
#685 = CONICAL_SURFACE('',#686,36.,0.708626272128);
#686 = AXIS2_PLACEMENT_3D('',#687,#688,#689);
#687 = CARTESIAN_POINT('',(0.,0.,151.));
#688 = DIRECTION('',(-0.,-0.,-1.));
#689 = DIRECTION('',(1.,0.,0.));
#690 = ADVANCED_FACE('',(#691),#750,.F.);
#691 = FACE_BOUND('',#692,.F.);
#692 = EDGE_LOOP('',(#693,#694,#702,#749));
#693 = ORIENTED_EDGE('',*,*,#101,.F.);
#694 = ORIENTED_EDGE('',*,*,#695,.F.);
#695 = EDGE_CURVE('',#696,#102,#698,.T.);
#696 = VERTEX_POINT('',#697);
#697 = CARTESIAN_POINT('',(22.667878673039,25.072041729073,147.2));
#698 = LINE('',#699,#700);
#699 = CARTESIAN_POINT('',(17.88980156402,20.293964620054,147.2));
#700 = VECTOR('',#701,1.);
#701 = DIRECTION('',(0.707106781187,0.707106781187,0.));
#702 = ORIENTED_EDGE('',*,*,#703,.T.);
#703 = EDGE_CURVE('',#696,#696,#704,.T.);
#704 = B_SPLINE_CURVE_WITH_KNOTS('',7,(#705,#706,#707,#708,#709,#710,
    #711,#712,#713,#714,#715,#716,#717,#718,#719,#720,#721,#722,#723,
    #724,#725,#726,#727,#728,#729,#730,#731,#732,#733,#734,#735,#736,
    #737,#738,#739,#740,#741,#742,#743,#744,#745,#746,#747,#748),
  .UNSPECIFIED.,.T.,.F.,(8,6,6,6,6,6,6,8),(0.,0.152733158853,
    0.285717609031,0.421916082011,0.588703408333,0.714478916925,
    0.837885550984,1.),.UNSPECIFIED.);
#705 = CARTESIAN_POINT('',(22.667878673039,25.072041729073,147.2));
#706 = CARTESIAN_POINT('',(22.667878673039,25.072041729073,
    147.40316079738));
#707 = CARTESIAN_POINT('',(22.688915521282,25.053022009625,
    147.60622623324));
#708 = CARTESIAN_POINT('',(22.730960574675,25.015009177131,
    147.80673546061));
#709 = CARTESIAN_POINT('',(22.794527712544,24.957334079019,
    148.00188743832));
#710 = CARTESIAN_POINT('',(22.880417739507,24.878875614743,
    148.1880005072));
#711 = CARTESIAN_POINT('',(22.989411861748,24.77821277882,
    148.35992742411));
#712 = CARTESIAN_POINT('',(23.236860129741,24.546145580867,
    148.6404293958));
#713 = CARTESIAN_POINT('',(23.373720525841,24.416611732512,
    148.75889884192));
#714 = CARTESIAN_POINT('',(23.529096742351,24.267716134196,
    148.85174761462));
#715 = CARTESIAN_POINT('',(23.696846992307,24.104310920054,
    148.90964681199));
#716 = CARTESIAN_POINT('',(23.869142832195,23.933281956465,
    148.92757746909));
#717 = CARTESIAN_POINT('',(24.038188863147,23.76252087109,148.9050923097
    ));
#718 = CARTESIAN_POINT('',(24.360226307678,23.432324602549,
    148.78667656349));
#719 = CARTESIAN_POINT('',(24.50705467365,23.279083852408,
    148.69107309674));
#720 = CARTESIAN_POINT('',(24.635592851516,23.142783222754,
    148.56788052549));
#721 = CARTESIAN_POINT('',(24.745180620736,23.025115019482,
    148.42389543366));
#722 = CARTESIAN_POINT('',(24.835856618738,22.926845828906,
    148.26511001458));
#723 = CARTESIAN_POINT('',(24.908172362238,22.847966926419,
    148.09685270733));
#724 = CARTESIAN_POINT('',(25.030414377088,22.71405552169,
    147.71193649665));
#725 = CARTESIAN_POINT('',(25.072580483677,22.667354174276,
    147.4900092917));
#726 = CARTESIAN_POINT('',(25.091214392353,22.646599872636,
    147.26302716642));
#727 = CARTESIAN_POINT('',(25.086822441338,22.651484095653,
    147.03447777324));
#728 = CARTESIAN_POINT('',(25.059150720653,22.682265685466,
    146.80809754874));
#729 = CARTESIAN_POINT('',(25.007381672986,22.73947815695,
    146.58825410662));
#730 = CARTESIAN_POINT('',(24.872305609997,22.8870227266,146.22474110124
    ));
#731 = CARTESIAN_POINT('',(24.799115446072,22.966590794967,146.073565396
    ));
#732 = CARTESIAN_POINT('',(24.710073049983,23.062746661431,
    145.93162233742));
#733 = CARTESIAN_POINT('',(24.604872423834,23.175316717484,
    145.80343642737));
#734 = CARTESIAN_POINT('',(24.483665277397,23.303479411815,
    145.69393504803));
#735 = CARTESIAN_POINT('',(24.347191273549,23.445689879484,
    145.60853035011));
#736 = CARTESIAN_POINT('',(24.050202151948,23.750203225417,
    145.49932507275));
#737 = CARTESIAN_POINT('',(23.894027380647,23.908140248244,
    145.47580716054));
#738 = CARTESIAN_POINT('',(23.734285201892,24.06711596,145.48690595463)
  );
#739 = CARTESIAN_POINT('',(23.577432165907,24.220541147413,
    145.53274226492));
#740 = CARTESIAN_POINT('',(23.430041005485,24.362494959235,
    145.60969310706));
#741 = CARTESIAN_POINT('',(23.297533821053,24.488560690368,
    145.71056633188));
#742 = CARTESIAN_POINT('',(23.032997131372,24.737898967341,
    145.97456607512));
#743 = CARTESIAN_POINT('',(22.909024381301,24.852728086121,
    146.15241508939));
#744 = CARTESIAN_POINT('',(22.811440322696,24.941985043015,
    146.34793953355));
#745 = CARTESIAN_POINT('',(22.739323160572,25.007449007032,
    146.55460303527));
#746 = CARTESIAN_POINT('',(22.69170482173,25.050500042282,
    146.76767182238));
#747 = CARTESIAN_POINT('',(22.667878673039,25.072041729073,
    146.98379574619));
#748 = CARTESIAN_POINT('',(22.667878673039,25.072041729073,147.2));
#749 = ORIENTED_EDGE('',*,*,#695,.T.);
#750 = CYLINDRICAL_SURFACE('',#751,1.7);
#751 = AXIS2_PLACEMENT_3D('',#752,#753,#754);
#752 = CARTESIAN_POINT('',(19.091883092037,19.091883092037,147.2));
#753 = DIRECTION('',(0.707106781187,0.707106781187,0.));
#754 = DIRECTION('',(-0.707106781187,0.707106781187,0.));
#755 = ADVANCED_FACE('',(#756),#815,.F.);
#756 = FACE_BOUND('',#757,.F.);
#757 = EDGE_LOOP('',(#758,#759,#767,#814));
#758 = ORIENTED_EDGE('',*,*,#230,.F.);
#759 = ORIENTED_EDGE('',*,*,#760,.F.);
#760 = EDGE_CURVE('',#761,#231,#763,.T.);
#761 = VERTEX_POINT('',#762);
#762 = CARTESIAN_POINT('',(-22.66787867303,25.072041729073,147.2));
#763 = LINE('',#764,#765);
#764 = CARTESIAN_POINT('',(-17.88980156402,20.293964620054,147.2));
#765 = VECTOR('',#766,1.);
#766 = DIRECTION('',(-0.707106781187,0.707106781187,0.));
#767 = ORIENTED_EDGE('',*,*,#768,.T.);
#768 = EDGE_CURVE('',#761,#761,#769,.T.);
#769 = B_SPLINE_CURVE_WITH_KNOTS('',7,(#770,#771,#772,#773,#774,#775,
    #776,#777,#778,#779,#780,#781,#782,#783,#784,#785,#786,#787,#788,
    #789,#790,#791,#792,#793,#794,#795,#796,#797,#798,#799,#800,#801,
    #802,#803,#804,#805,#806,#807,#808,#809,#810,#811,#812,#813),
  .UNSPECIFIED.,.T.,.F.,(8,6,6,6,6,6,6,8),(0.,0.152733158996,
    0.285717609299,0.421916082407,0.588703408887,0.714478917597,
    0.837885550736,1.),.UNSPECIFIED.);
#770 = CARTESIAN_POINT('',(-22.66787867303,25.072041729073,147.2));
#771 = CARTESIAN_POINT('',(-22.66787867303,25.072041729073,
    146.99683920261));
#772 = CARTESIAN_POINT('',(-22.68891552128,25.053022009625,
    146.79377376675));
#773 = CARTESIAN_POINT('',(-22.73096057467,25.015009177131,
    146.59326453938));
#774 = CARTESIAN_POINT('',(-22.79452771254,24.957334079019,
    146.39811256167));
#775 = CARTESIAN_POINT('',(-22.8804177395,24.878875614743,
    146.21199949279));
#776 = CARTESIAN_POINT('',(-22.98941186174,24.77821277882,
    146.04007257588));
#777 = CARTESIAN_POINT('',(-23.23686012974,24.546145580867,
    145.75957060419));
#778 = CARTESIAN_POINT('',(-23.37372052584,24.416611732512,
    145.64110115807));
#779 = CARTESIAN_POINT('',(-23.52909674235,24.267716134196,
    145.54825238537));
#780 = CARTESIAN_POINT('',(-23.6968469923,24.104310920054,145.490353188)
  );
#781 = CARTESIAN_POINT('',(-23.86914283219,23.933281956465,
    145.4724225309));
#782 = CARTESIAN_POINT('',(-24.03818886314,23.76252087109,145.4949076903
    ));
#783 = CARTESIAN_POINT('',(-24.36022630767,23.432324602549,
    145.6133234365));
#784 = CARTESIAN_POINT('',(-24.50705467365,23.279083852408,
    145.70892690325));
#785 = CARTESIAN_POINT('',(-24.63559285151,23.142783222754,
    145.8321194745));
#786 = CARTESIAN_POINT('',(-24.74518062073,23.025115019483,
    145.97610456633));
#787 = CARTESIAN_POINT('',(-24.83585661873,22.926845828906,
    146.13488998541));
#788 = CARTESIAN_POINT('',(-24.90817236223,22.847966926419,
    146.30314729266));
#789 = CARTESIAN_POINT('',(-25.03041437708,22.71405552169,
    146.68806350335));
#790 = CARTESIAN_POINT('',(-25.07258048367,22.667354174276,
    146.90999070829));
#791 = CARTESIAN_POINT('',(-25.09121439235,22.646599872636,
    147.13697283357));
#792 = CARTESIAN_POINT('',(-25.08682244133,22.651484095653,
    147.36552222675));
#793 = CARTESIAN_POINT('',(-25.05915072065,22.682265685466,
    147.59190245125));
#794 = CARTESIAN_POINT('',(-25.00738167298,22.739478156949,
    147.81174589337));
#795 = CARTESIAN_POINT('',(-24.87230560999,22.8870227266,148.17525889875
    ));
#796 = CARTESIAN_POINT('',(-24.79911544607,22.966590794967,
    148.32643460399));
#797 = CARTESIAN_POINT('',(-24.71007304998,23.062746661431,
    148.46837766257));
#798 = CARTESIAN_POINT('',(-24.60487242383,23.175316717484,
    148.59656357262));
#799 = CARTESIAN_POINT('',(-24.48366527739,23.303479411815,
    148.70606495196));
#800 = CARTESIAN_POINT('',(-24.34719127354,23.445689879484,
    148.79146964989));
#801 = CARTESIAN_POINT('',(-24.05020215318,23.750203224154,
    148.90067492679));
#802 = CARTESIAN_POINT('',(-23.89402737614,23.908140252787,
    148.92419283993));
#803 = CARTESIAN_POINT('',(-23.73428520961,24.067115952323,
    148.91309404637));
#804 = CARTESIAN_POINT('',(-23.57743215842,24.220541154743,
    148.86725773228));
#805 = CARTESIAN_POINT('',(-23.43004100956,24.362494955306,
    148.79030689556));
#806 = CARTESIAN_POINT('',(-23.29753382002,24.488560691334,
    148.68943366708));
#807 = CARTESIAN_POINT('',(-23.03299713137,24.737898967341,
    148.42543392487));
#808 = CARTESIAN_POINT('',(-22.9090243813,24.852728086121,148.2475849106
    ));
#809 = CARTESIAN_POINT('',(-22.81144032269,24.941985043015,
    148.05206046644));
#810 = CARTESIAN_POINT('',(-22.73932316057,25.007449007032,
    147.84539696472));
#811 = CARTESIAN_POINT('',(-22.69170482173,25.050500042282,
    147.63232817761));
#812 = CARTESIAN_POINT('',(-22.66787867303,25.072041729073,
    147.4162042538));
#813 = CARTESIAN_POINT('',(-22.66787867303,25.072041729073,147.2));
#814 = ORIENTED_EDGE('',*,*,#760,.T.);
#815 = CYLINDRICAL_SURFACE('',#816,1.7);
#816 = AXIS2_PLACEMENT_3D('',#817,#818,#819);
#817 = CARTESIAN_POINT('',(-19.09188309203,19.091883092037,147.2));
#818 = DIRECTION('',(-0.707106781187,0.707106781187,0.));
#819 = DIRECTION('',(0.707106781187,0.707106781187,0.));
#820 = ADVANCED_FACE('',(#821),#880,.F.);
#821 = FACE_BOUND('',#822,.F.);
#822 = EDGE_LOOP('',(#823,#824,#832,#879));
#823 = ORIENTED_EDGE('',*,*,#372,.F.);
#824 = ORIENTED_EDGE('',*,*,#825,.F.);
#825 = EDGE_CURVE('',#826,#373,#828,.T.);
#826 = VERTEX_POINT('',#827);
#827 = CARTESIAN_POINT('',(22.667878673039,-25.07204172907,147.2));
#828 = LINE('',#829,#830);
#829 = CARTESIAN_POINT('',(17.88980156402,-20.29396462005,147.2));
#830 = VECTOR('',#831,1.);
#831 = DIRECTION('',(0.707106781187,-0.707106781187,0.));
#832 = ORIENTED_EDGE('',*,*,#833,.T.);
#833 = EDGE_CURVE('',#826,#826,#834,.T.);
#834 = B_SPLINE_CURVE_WITH_KNOTS('',7,(#835,#836,#837,#838,#839,#840,
    #841,#842,#843,#844,#845,#846,#847,#848,#849,#850,#851,#852,#853,
    #854,#855,#856,#857,#858,#859,#860,#861,#862,#863,#864,#865,#866,
    #867,#868,#869,#870,#871,#872,#873,#874,#875,#876,#877,#878),
  .UNSPECIFIED.,.T.,.F.,(8,6,6,6,6,6,6,8),(0.,0.152733159323,
    0.28571760991,0.421916083309,0.588703407239,0.714478916189,
    0.837885550505,1.),.UNSPECIFIED.);
#835 = CARTESIAN_POINT('',(22.667878673039,-25.07204172907,147.2));
#836 = CARTESIAN_POINT('',(22.667878673039,-25.07204172907,
    146.99683920261));
#837 = CARTESIAN_POINT('',(22.688915521282,-25.05302200962,
    146.79377376675));
#838 = CARTESIAN_POINT('',(22.730960574675,-25.01500917713,
    146.59326453938));
#839 = CARTESIAN_POINT('',(22.794527712544,-24.95733407901,
    146.39811256167));
#840 = CARTESIAN_POINT('',(22.880417739507,-24.87887561474,
    146.21199949279));
#841 = CARTESIAN_POINT('',(22.989411861748,-24.77821277882,
    146.04007257588));
#842 = CARTESIAN_POINT('',(23.236860129741,-24.54614558086,
    145.75957060419));
#843 = CARTESIAN_POINT('',(23.373720525841,-24.41661173251,
    145.64110115807));
#844 = CARTESIAN_POINT('',(23.529096742351,-24.26771613419,
    145.54825238537));
#845 = CARTESIAN_POINT('',(23.696846992307,-24.10431092005,145.490353188
    ));
#846 = CARTESIAN_POINT('',(23.869142832195,-23.93328195646,
    145.4724225309));
#847 = CARTESIAN_POINT('',(24.038188863147,-23.76252087109,
    145.4949076903));
#848 = CARTESIAN_POINT('',(24.360226307678,-23.43232460254,
    145.6133234365));
#849 = CARTESIAN_POINT('',(24.50705467365,-23.2790838524,145.70892690325
    ));
#850 = CARTESIAN_POINT('',(24.635592851517,-23.14278322275,
    145.8321194745));
#851 = CARTESIAN_POINT('',(24.745180620736,-23.02511501948,
    145.97610456633));
#852 = CARTESIAN_POINT('',(24.835856618739,-22.9268458289,
    146.13488998541));
#853 = CARTESIAN_POINT('',(24.908172362238,-22.84796692641,
    146.30314729266));
#854 = CARTESIAN_POINT('',(25.030414375915,-22.71405552297,
    146.68806349965));
#855 = CARTESIAN_POINT('',(25.072580486015,-22.66735417171,
    146.90999072276));
#856 = CARTESIAN_POINT('',(25.091214391391,-22.64659987369,
    147.1369728075));
#857 = CARTESIAN_POINT('',(25.086822439256,-22.65148409792,
    147.36552225266));
#858 = CARTESIAN_POINT('',(25.059150723603,-22.68226568224,
    147.59190243705));
#859 = CARTESIAN_POINT('',(25.007381671662,-22.73947815839,
    147.81174589693));
#860 = CARTESIAN_POINT('',(24.872305609997,-22.8870227266,
    148.17525889875));
#861 = CARTESIAN_POINT('',(24.799115446072,-22.96659079496,
    148.32643460399));
#862 = CARTESIAN_POINT('',(24.710073049983,-23.06274666143,
    148.46837766257));
#863 = CARTESIAN_POINT('',(24.604872423834,-23.17531671748,
    148.59656357262));
#864 = CARTESIAN_POINT('',(24.483665277397,-23.30347941181,
    148.70606495196));
#865 = CARTESIAN_POINT('',(24.347191273549,-23.44568987948,
    148.79146964989));
#866 = CARTESIAN_POINT('',(24.05020215206,-23.7502032253,148.9006749272)
  );
#867 = CARTESIAN_POINT('',(23.894027380542,-23.90814024835,
    148.92419283954));
#868 = CARTESIAN_POINT('',(23.734285201784,-24.0671159601,
    148.91309404527));
#869 = CARTESIAN_POINT('',(23.577432166015,-24.2205411473,
    148.86725773504));
#870 = CARTESIAN_POINT('',(23.430041005579,-24.36249495914,
    148.79030689308));
#871 = CARTESIAN_POINT('',(23.297533820955,-24.48856069046,
    148.68943366801));
#872 = CARTESIAN_POINT('',(23.032997131372,-24.73789896734,
    148.42543392487));
#873 = CARTESIAN_POINT('',(22.909024381301,-24.85272808612,
    148.2475849106));
#874 = CARTESIAN_POINT('',(22.811440322695,-24.94198504301,
    148.05206046644));
#875 = CARTESIAN_POINT('',(22.739323160572,-25.00744900703,
    147.84539696472));
#876 = CARTESIAN_POINT('',(22.69170482173,-25.05050004228,
    147.63232817761));
#877 = CARTESIAN_POINT('',(22.667878673039,-25.07204172907,
    147.4162042538));
#878 = CARTESIAN_POINT('',(22.667878673039,-25.07204172907,147.2));
#879 = ORIENTED_EDGE('',*,*,#825,.T.);
#880 = CYLINDRICAL_SURFACE('',#881,1.7);
#881 = AXIS2_PLACEMENT_3D('',#882,#883,#884);
#882 = CARTESIAN_POINT('',(19.091883092037,-19.09188309203,147.2));
#883 = DIRECTION('',(0.707106781187,-0.707106781187,0.));
#884 = DIRECTION('',(-0.707106781187,-0.707106781187,0.));
#885 = ADVANCED_FACE('',(#886),#945,.F.);
#886 = FACE_BOUND('',#887,.F.);
#887 = EDGE_LOOP('',(#888,#889,#897,#944));
#888 = ORIENTED_EDGE('',*,*,#514,.F.);
#889 = ORIENTED_EDGE('',*,*,#890,.F.);
#890 = EDGE_CURVE('',#891,#515,#893,.T.);
#891 = VERTEX_POINT('',#892);
#892 = CARTESIAN_POINT('',(-22.66787867303,-25.07204172907,147.2));
#893 = LINE('',#894,#895);
#894 = CARTESIAN_POINT('',(-17.88980156402,-20.29396462005,147.2));
#895 = VECTOR('',#896,1.);
#896 = DIRECTION('',(-0.707106781187,-0.707106781187,-0.));
#897 = ORIENTED_EDGE('',*,*,#898,.T.);
#898 = EDGE_CURVE('',#891,#891,#899,.T.);
#899 = B_SPLINE_CURVE_WITH_KNOTS('',7,(#900,#901,#902,#903,#904,#905,
    #906,#907,#908,#909,#910,#911,#912,#913,#914,#915,#916,#917,#918,
    #919,#920,#921,#922,#923,#924,#925,#926,#927,#928,#929,#930,#931,
    #932,#933,#934,#935,#936,#937,#938,#939,#940,#941,#942,#943),
  .UNSPECIFIED.,.T.,.F.,(8,6,6,6,6,6,6,8),(0.,0.152733158996,
    0.285717609299,0.421916082407,0.588703408887,0.714478917596,
    0.837885550736,1.),.UNSPECIFIED.);
#900 = CARTESIAN_POINT('',(-22.66787867303,-25.07204172907,147.2));
#901 = CARTESIAN_POINT('',(-22.66787867303,-25.07204172907,
    147.40316079738));
#902 = CARTESIAN_POINT('',(-22.68891552128,-25.05302200962,
    147.60622623324));
#903 = CARTESIAN_POINT('',(-22.73096057467,-25.01500917713,
    147.80673546061));
#904 = CARTESIAN_POINT('',(-22.79452771254,-24.95733407901,
    148.00188743832));
#905 = CARTESIAN_POINT('',(-22.8804177395,-24.87887561474,148.1880005072
    ));
#906 = CARTESIAN_POINT('',(-22.98941186174,-24.77821277882,
    148.35992742411));
#907 = CARTESIAN_POINT('',(-23.23686012974,-24.54614558086,
    148.6404293958));
#908 = CARTESIAN_POINT('',(-23.37372052584,-24.41661173251,
    148.75889884192));
#909 = CARTESIAN_POINT('',(-23.52909674235,-24.26771613419,
    148.85174761462));
#910 = CARTESIAN_POINT('',(-23.6968469923,-24.10431092005,
    148.90964681199));
#911 = CARTESIAN_POINT('',(-23.86914283219,-23.93328195646,
    148.92757746909));
#912 = CARTESIAN_POINT('',(-24.03818886314,-23.76252087109,
    148.9050923097));
#913 = CARTESIAN_POINT('',(-24.36022630767,-23.43232460254,
    148.78667656349));
#914 = CARTESIAN_POINT('',(-24.50705467365,-23.2790838524,
    148.69107309674));
#915 = CARTESIAN_POINT('',(-24.63559285151,-23.14278322275,
    148.56788052549));
#916 = CARTESIAN_POINT('',(-24.74518062073,-23.02511501948,
    148.42389543366));
#917 = CARTESIAN_POINT('',(-24.83585661873,-22.9268458289,
    148.26511001458));
#918 = CARTESIAN_POINT('',(-24.90817236223,-22.84796692641,
    148.09685270733));
#919 = CARTESIAN_POINT('',(-25.03041437708,-22.71405552169,
    147.71193649664));
#920 = CARTESIAN_POINT('',(-25.07258048367,-22.66735417427,
    147.4900092917));
#921 = CARTESIAN_POINT('',(-25.09121439235,-22.64659987263,
    147.26302716642));
#922 = CARTESIAN_POINT('',(-25.08682244133,-22.65148409565,
    147.03447777324));
#923 = CARTESIAN_POINT('',(-25.05915072065,-22.68226568546,
    146.80809754874));
#924 = CARTESIAN_POINT('',(-25.00738167298,-22.73947815694,
    146.58825410663));
#925 = CARTESIAN_POINT('',(-24.87230560999,-22.8870227266,
    146.22474110124));
#926 = CARTESIAN_POINT('',(-24.79911544607,-22.96659079496,146.073565396
    ));
#927 = CARTESIAN_POINT('',(-24.71007304998,-23.06274666143,
    145.93162233742));
#928 = CARTESIAN_POINT('',(-24.60487242383,-23.17531671748,
    145.80343642737));
#929 = CARTESIAN_POINT('',(-24.48366527739,-23.30347941181,
    145.69393504803));
#930 = CARTESIAN_POINT('',(-24.34719127354,-23.44568987948,
    145.60853035011));
#931 = CARTESIAN_POINT('',(-24.05020215318,-23.75020322415,
    145.49932507321));
#932 = CARTESIAN_POINT('',(-23.89402737614,-23.90814025278,
    145.47580716006));
#933 = CARTESIAN_POINT('',(-23.73428520961,-24.06711595232,
    145.48690595362));
#934 = CARTESIAN_POINT('',(-23.57743215842,-24.22054115474,
    145.53274226771));
#935 = CARTESIAN_POINT('',(-23.43004100956,-24.3624949553,
    145.60969310443));
#936 = CARTESIAN_POINT('',(-23.29753382002,-24.48856069133,
    145.71056633291));
#937 = CARTESIAN_POINT('',(-23.03299713137,-24.73789896734,
    145.97456607512));
#938 = CARTESIAN_POINT('',(-22.9090243813,-24.85272808612,
    146.15241508939));
#939 = CARTESIAN_POINT('',(-22.81144032269,-24.94198504301,
    146.34793953355));
#940 = CARTESIAN_POINT('',(-22.73932316057,-25.00744900703,
    146.55460303527));
#941 = CARTESIAN_POINT('',(-22.69170482173,-25.05050004228,
    146.76767182238));
#942 = CARTESIAN_POINT('',(-22.66787867303,-25.07204172907,
    146.98379574619));
#943 = CARTESIAN_POINT('',(-22.66787867303,-25.07204172907,147.2));
#944 = ORIENTED_EDGE('',*,*,#890,.T.);
#945 = CYLINDRICAL_SURFACE('',#946,1.7);
#946 = AXIS2_PLACEMENT_3D('',#947,#948,#949);
#947 = CARTESIAN_POINT('',(-19.09188309203,-19.09188309203,147.2));
#948 = DIRECTION('',(-0.707106781187,-0.707106781187,0.));
#949 = DIRECTION('',(0.707106781187,-0.707106781187,0.));
#950 = ADVANCED_FACE('',(#951,#970,#973,#976,#979),#982,.F.);
#951 = FACE_BOUND('',#952,.T.);
#952 = EDGE_LOOP('',(#953,#962,#968,#969));
#953 = ORIENTED_EDGE('',*,*,#954,.T.);
#954 = EDGE_CURVE('',#955,#955,#957,.T.);
#955 = VERTEX_POINT('',#956);
#956 = CARTESIAN_POINT('',(33.8,0.,150.5));
#957 = CIRCLE('',#958,33.8);
#958 = AXIS2_PLACEMENT_3D('',#959,#960,#961);
#959 = CARTESIAN_POINT('',(0.,0.,150.5));
#960 = DIRECTION('',(0.,0.,1.));
#961 = DIRECTION('',(1.,0.,0.));
#962 = ORIENTED_EDGE('',*,*,#963,.T.);
#963 = EDGE_CURVE('',#955,#650,#964,.T.);
#964 = LINE('',#965,#966);
#965 = CARTESIAN_POINT('',(33.8,0.,150.5));
#966 = VECTOR('',#967,1.);
#967 = DIRECTION('',(0.,0.,-1.));
#968 = ORIENTED_EDGE('',*,*,#649,.F.);
#969 = ORIENTED_EDGE('',*,*,#963,.F.);
#970 = FACE_BOUND('',#971,.T.);
#971 = EDGE_LOOP('',(#972));
#972 = ORIENTED_EDGE('',*,*,#703,.T.);
#973 = FACE_BOUND('',#974,.T.);
#974 = EDGE_LOOP('',(#975));
#975 = ORIENTED_EDGE('',*,*,#898,.T.);
#976 = FACE_BOUND('',#977,.T.);
#977 = EDGE_LOOP('',(#978));
#978 = ORIENTED_EDGE('',*,*,#768,.T.);
#979 = FACE_BOUND('',#980,.T.);
#980 = EDGE_LOOP('',(#981));
#981 = ORIENTED_EDGE('',*,*,#833,.T.);
#982 = CYLINDRICAL_SURFACE('',#983,33.8);
#983 = AXIS2_PLACEMENT_3D('',#984,#985,#986);
#984 = CARTESIAN_POINT('',(0.,0.,150.5));
#985 = DIRECTION('',(-0.,-0.,-1.));
#986 = DIRECTION('',(1.,0.,0.));
#987 = ADVANCED_FACE('',(#988),#1007,.T.);
#988 = FACE_BOUND('',#989,.T.);
#989 = EDGE_LOOP('',(#990,#991,#999,#1006));
#990 = ORIENTED_EDGE('',*,*,#678,.T.);
#991 = ORIENTED_EDGE('',*,*,#992,.T.);
#992 = EDGE_CURVE('',#671,#993,#995,.T.);
#993 = VERTEX_POINT('',#994);
#994 = CARTESIAN_POINT('',(24.5,0.,164.));
#995 = LINE('',#996,#997);
#996 = CARTESIAN_POINT('',(30.,0.,158.));
#997 = VECTOR('',#998,1.);
#998 = DIRECTION('',(-0.675724628517,0.,0.737154140201));
#999 = ORIENTED_EDGE('',*,*,#1000,.F.);
#1000 = EDGE_CURVE('',#993,#993,#1001,.T.);
#1001 = CIRCLE('',#1002,24.5);
#1002 = AXIS2_PLACEMENT_3D('',#1003,#1004,#1005);
#1003 = CARTESIAN_POINT('',(0.,0.,164.));
#1004 = DIRECTION('',(0.,0.,1.));
#1005 = DIRECTION('',(1.,0.,0.));
#1006 = ORIENTED_EDGE('',*,*,#992,.F.);
#1007 = CONICAL_SURFACE('',#1008,30.,0.741947268006);
#1008 = AXIS2_PLACEMENT_3D('',#1009,#1010,#1011);
#1009 = CARTESIAN_POINT('',(0.,0.,158.));
#1010 = DIRECTION('',(-0.,-0.,-1.));
#1011 = DIRECTION('',(1.,0.,0.));
#1012 = ADVANCED_FACE('',(#1013),#1032,.F.);
#1013 = FACE_BOUND('',#1014,.T.);
#1014 = EDGE_LOOP('',(#1015,#1024,#1030,#1031));
#1015 = ORIENTED_EDGE('',*,*,#1016,.T.);
#1016 = EDGE_CURVE('',#1017,#1017,#1019,.T.);
#1017 = VERTEX_POINT('',#1018);
#1018 = CARTESIAN_POINT('',(28.,0.,156.));
#1019 = CIRCLE('',#1020,28.);
#1020 = AXIS2_PLACEMENT_3D('',#1021,#1022,#1023);
#1021 = CARTESIAN_POINT('',(0.,0.,156.));
#1022 = DIRECTION('',(0.,0.,1.));
#1023 = DIRECTION('',(1.,0.,0.));
#1024 = ORIENTED_EDGE('',*,*,#1025,.T.);
#1025 = EDGE_CURVE('',#1017,#955,#1026,.T.);
#1026 = LINE('',#1027,#1028);
#1027 = CARTESIAN_POINT('',(28.,0.,156.));
#1028 = VECTOR('',#1029,1.);
#1029 = DIRECTION('',(0.725623851173,0.,-0.688091583009));
#1030 = ORIENTED_EDGE('',*,*,#954,.F.);
#1031 = ORIENTED_EDGE('',*,*,#1025,.F.);
#1032 = CONICAL_SURFACE('',#1033,28.,0.811940601149);
#1033 = AXIS2_PLACEMENT_3D('',#1034,#1035,#1036);
#1034 = CARTESIAN_POINT('',(0.,0.,156.));
#1035 = DIRECTION('',(-0.,-0.,-1.));
#1036 = DIRECTION('',(1.,0.,0.));
#1037 = ADVANCED_FACE('',(#1038),#1057,.F.);
#1038 = FACE_BOUND('',#1039,.T.);
#1039 = EDGE_LOOP('',(#1040,#1049,#1055,#1056));
#1040 = ORIENTED_EDGE('',*,*,#1041,.T.);
#1041 = EDGE_CURVE('',#1042,#1042,#1044,.T.);
#1042 = VERTEX_POINT('',#1043);
#1043 = CARTESIAN_POINT('',(23.3,0.,163.));
#1044 = CIRCLE('',#1045,23.3);
#1045 = AXIS2_PLACEMENT_3D('',#1046,#1047,#1048);
#1046 = CARTESIAN_POINT('',(0.,0.,163.));
#1047 = DIRECTION('',(0.,0.,1.));
#1048 = DIRECTION('',(1.,0.,0.));
#1049 = ORIENTED_EDGE('',*,*,#1050,.T.);
#1050 = EDGE_CURVE('',#1042,#1017,#1051,.T.);
#1051 = LINE('',#1052,#1053);
#1052 = CARTESIAN_POINT('',(23.3,0.,163.));
#1053 = VECTOR('',#1054,1.);
#1054 = DIRECTION('',(0.557434187884,0.,-0.830221130891));
#1055 = ORIENTED_EDGE('',*,*,#1016,.F.);
#1056 = ORIENTED_EDGE('',*,*,#1050,.F.);
#1057 = CONICAL_SURFACE('',#1058,23.3,0.591292065367);
#1058 = AXIS2_PLACEMENT_3D('',#1059,#1060,#1061);
#1059 = CARTESIAN_POINT('',(0.,0.,163.));
#1060 = DIRECTION('',(-0.,-0.,-1.));
#1061 = DIRECTION('',(1.,0.,0.));
#1062 = ADVANCED_FACE('',(#1063),#1082,.F.);
#1063 = FACE_BOUND('',#1064,.T.);
#1064 = EDGE_LOOP('',(#1065,#1074,#1080,#1081));
#1065 = ORIENTED_EDGE('',*,*,#1066,.F.);
#1066 = EDGE_CURVE('',#1067,#1067,#1069,.T.);
#1067 = VERTEX_POINT('',#1068);
#1068 = CARTESIAN_POINT('',(23.3,0.,165.));
#1069 = CIRCLE('',#1070,23.3);
#1070 = AXIS2_PLACEMENT_3D('',#1071,#1072,#1073);
#1071 = CARTESIAN_POINT('',(0.,0.,165.));
#1072 = DIRECTION('',(0.,0.,-1.));
#1073 = DIRECTION('',(1.,0.,0.));
#1074 = ORIENTED_EDGE('',*,*,#1075,.T.);
#1075 = EDGE_CURVE('',#1067,#1042,#1076,.T.);
#1076 = LINE('',#1077,#1078);
#1077 = CARTESIAN_POINT('',(23.3,0.,167.));
#1078 = VECTOR('',#1079,1.);
#1079 = DIRECTION('',(0.,0.,-1.));
#1080 = ORIENTED_EDGE('',*,*,#1041,.F.);
#1081 = ORIENTED_EDGE('',*,*,#1075,.F.);
#1082 = CYLINDRICAL_SURFACE('',#1083,23.3);
#1083 = AXIS2_PLACEMENT_3D('',#1084,#1085,#1086);
#1084 = CARTESIAN_POINT('',(0.,0.,167.));
#1085 = DIRECTION('',(-0.,-0.,-1.));
#1086 = DIRECTION('',(1.,0.,0.));
#1087 = ADVANCED_FACE('',(#1088,#1091),#1094,.F.);
#1088 = FACE_BOUND('',#1089,.F.);
#1089 = EDGE_LOOP('',(#1090));
#1090 = ORIENTED_EDGE('',*,*,#1066,.F.);
#1091 = FACE_BOUND('',#1092,.F.);
#1092 = EDGE_LOOP('',(#1093));
#1093 = ORIENTED_EDGE('',*,*,#58,.F.);
#1094 = PLANE('',#1095);
#1095 = AXIS2_PLACEMENT_3D('',#1096,#1097,#1098);
#1096 = CARTESIAN_POINT('',(0.,0.,165.));
#1097 = DIRECTION('',(0.,0.,1.));
#1098 = DIRECTION('',(1.,0.,0.));
#1099 = ADVANCED_FACE('',(#1100),#1110,.T.);
#1100 = FACE_BOUND('',#1101,.T.);
#1101 = EDGE_LOOP('',(#1102,#1103,#1108,#1109));
#1102 = ORIENTED_EDGE('',*,*,#21,.F.);
#1103 = ORIENTED_EDGE('',*,*,#1104,.F.);
#1104 = EDGE_CURVE('',#993,#22,#1105,.T.);
#1105 = B_SPLINE_CURVE_WITH_KNOTS('',1,(#1106,#1107),.UNSPECIFIED.,.F.,
  .F.,(2,2),(0.,4.),.PIECEWISE_BEZIER_KNOTS.);
#1106 = CARTESIAN_POINT('',(24.5,-6.000769315822E-15,164.));
#1107 = CARTESIAN_POINT('',(24.5,-6.000769315822E-15,168.));
#1108 = ORIENTED_EDGE('',*,*,#1000,.T.);
#1109 = ORIENTED_EDGE('',*,*,#1104,.T.);
#1110 = CYLINDRICAL_SURFACE('',#1111,24.5);
#1111 = AXIS2_PLACEMENT_3D('',#1112,#1113,#1114);
#1112 = CARTESIAN_POINT('',(0.,0.,164.));
#1113 = DIRECTION('',(0.,0.,1.));
#1114 = DIRECTION('',(1.,0.,0.));
#1115 = ( GEOMETRIC_REPRESENTATION_CONTEXT(3) 
GLOBAL_UNCERTAINTY_ASSIGNED_CONTEXT((#1119)) 
GLOBAL_UNIT_ASSIGNED_CONTEXT((#1116,#1117,#1118)) REPRESENTATION_CONTEXT
('Context #1','3D Context with UNIT and UNCERTAINTY') );
#1116 = ( LENGTH_UNIT() NAMED_UNIT(*) SI_UNIT(.MILLI.,.METRE.) );
#1117 = ( NAMED_UNIT(*) PLANE_ANGLE_UNIT() SI_UNIT($,.RADIAN.) );
#1118 = ( NAMED_UNIT(*) SI_UNIT($,.STERADIAN.) SOLID_ANGLE_UNIT() );
#1119 = UNCERTAINTY_MEASURE_WITH_UNIT(LENGTH_MEASURE(1.E-06),#1116,
  'distance_accuracy_value','confusion accuracy');
#1120 = PRODUCT_RELATED_PRODUCT_CATEGORY('part',$,(#7));
ENDSEC;
END-ISO-10303-21;
