ISO-10303-21;
HEADER;
FILE_DESCRIPTION(('FreeCAD Model'),'2;1');
FILE_NAME('Open CASCADE Shape Model','2026-09-22T17:20:30',('FreeCAD'),(
    'FreeCAD'),'Open CASCADE STEP processor 7.8','FreeCAD','Unknown');
FILE_SCHEMA(('AUTOMOTIVE_DESIGN { 1 0 10303 214 1 1 1 1 }'));
ENDSEC;
DATA;
#1 = APPLICATION_PROTOCOL_DEFINITION('international standard',
  'automotive_design',2000,#2);
#2 = APPLICATION_CONTEXT(
  'core data for automotive mechanical design processes');
#3 = SHAPE_DEFINITION_REPRESENTATION(#4,#10);
#4 = PRODUCT_DEFINITION_SHAPE('','',#5);
#5 = PRODUCT_DEFINITION('design','',#6,#9);
#6 = PRODUCT_DEFINITION_FORMATION('','',#7);
#7 = PRODUCT('Open CASCADE STEP translator 7.8 1',
  'Open CASCADE STEP translator 7.8 1','',(#8));
#8 = PRODUCT_CONTEXT('',#2,'mechanical');
#9 = PRODUCT_DEFINITION_CONTEXT('part definition',#2,'design');
#10 = ADVANCED_BREP_SHAPE_REPRESENTATION('',(#11,#15),#1277);
#11 = AXIS2_PLACEMENT_3D('',#12,#13,#14);
#12 = CARTESIAN_POINT('',(0.,0.,0.));
#13 = DIRECTION('',(0.,0.,1.));
#14 = DIRECTION('',(1.,0.,-0.));
#15 = MANIFOLD_SOLID_BREP('',#16);
#16 = CLOSED_SHELL('',(#17,#50,#75,#95,#115,#140,#347,#400,#433,#457,
    #483,#500,#588,#655,#686,#711,#736,#753,#784,#809,#834,#851,#884,
    #909,#934,#959,#971,#1002,#1026,#1050,#1067,#1092,#1123,#1147,#1171,
    #1188,#1204,#1229,#1241,#1253,#1265));
#17 = ADVANCED_FACE('',(#18),#45,.T.);
#18 = FACE_BOUND('',#19,.T.);
#19 = EDGE_LOOP('',(#20,#29,#37,#44));
#20 = ORIENTED_EDGE('',*,*,#21,.F.);
#21 = EDGE_CURVE('',#22,#22,#24,.T.);
#22 = VERTEX_POINT('',#23);
#23 = CARTESIAN_POINT('',(27.,-7.E-15,2.));
#24 = CIRCLE('',#25,27.);
#25 = AXIS2_PLACEMENT_3D('',#26,#27,#28);
#26 = CARTESIAN_POINT('',(0.,0.,2.));
#27 = DIRECTION('',(0.,0.,1.));
#28 = DIRECTION('',(1.,0.,0.));
#29 = ORIENTED_EDGE('',*,*,#30,.F.);
#30 = EDGE_CURVE('',#31,#22,#33,.T.);
#31 = VERTEX_POINT('',#32);
#32 = CARTESIAN_POINT('',(25.,-6.E-15,0.));
#33 = LINE('',#34,#35);
#34 = CARTESIAN_POINT('',(25.,-6.12E-15,0.));
#35 = VECTOR('',#36,1.);
#36 = DIRECTION('',(0.707106781187,-1.7E-16,0.707106781187));
#37 = ORIENTED_EDGE('',*,*,#38,.T.);
#38 = EDGE_CURVE('',#31,#31,#39,.T.);
#39 = CIRCLE('',#40,25.);
#40 = AXIS2_PLACEMENT_3D('',#41,#42,#43);
#41 = CARTESIAN_POINT('',(0.,0.,0.));
#42 = DIRECTION('',(0.,0.,1.));
#43 = DIRECTION('',(1.,0.,0.));
#44 = ORIENTED_EDGE('',*,*,#30,.T.);
#45 = CONICAL_SURFACE('',#46,25.,0.785398163397);
#46 = AXIS2_PLACEMENT_3D('',#47,#48,#49);
#47 = CARTESIAN_POINT('',(0.,0.,0.));
#48 = DIRECTION('',(0.,0.,1.));
#49 = DIRECTION('',(1.,0.,0.));
#50 = ADVANCED_FACE('',(#51),#70,.T.);
#51 = FACE_BOUND('',#52,.T.);
#52 = EDGE_LOOP('',(#53,#62,#68,#69));
#53 = ORIENTED_EDGE('',*,*,#54,.F.);
#54 = EDGE_CURVE('',#55,#55,#57,.T.);
#55 = VERTEX_POINT('',#56);
#56 = CARTESIAN_POINT('',(27.,-7.E-15,8.));
#57 = CIRCLE('',#58,27.);
#58 = AXIS2_PLACEMENT_3D('',#59,#60,#61);
#59 = CARTESIAN_POINT('',(0.,0.,8.));
#60 = DIRECTION('',(0.,0.,1.));
#61 = DIRECTION('',(1.,0.,0.));
#62 = ORIENTED_EDGE('',*,*,#63,.F.);
#63 = EDGE_CURVE('',#22,#55,#64,.T.);
#64 = LINE('',#65,#66);
#65 = CARTESIAN_POINT('',(27.,-6.61E-15,2.));
#66 = VECTOR('',#67,1.);
#67 = DIRECTION('',(0.,0.,1.));
#68 = ORIENTED_EDGE('',*,*,#21,.T.);
#69 = ORIENTED_EDGE('',*,*,#63,.T.);
#70 = CYLINDRICAL_SURFACE('',#71,27.);
#71 = AXIS2_PLACEMENT_3D('',#72,#73,#74);
#72 = CARTESIAN_POINT('',(0.,0.,2.));
#73 = DIRECTION('',(0.,0.,1.));
#74 = DIRECTION('',(1.,0.,0.));
#75 = ADVANCED_FACE('',(#76,#79),#90,.F.);
#76 = FACE_BOUND('',#77,.F.);
#77 = EDGE_LOOP('',(#78));
#78 = ORIENTED_EDGE('',*,*,#38,.T.);
#79 = FACE_BOUND('',#80,.F.);
#80 = EDGE_LOOP('',(#81));
#81 = ORIENTED_EDGE('',*,*,#82,.F.);
#82 = EDGE_CURVE('',#83,#83,#85,.T.);
#83 = VERTEX_POINT('',#84);
#84 = CARTESIAN_POINT('',(9.228125,-2.E-15,0.));
#85 = CIRCLE('',#86,9.228125);
#86 = AXIS2_PLACEMENT_3D('',#87,#88,#89);
#87 = CARTESIAN_POINT('',(0.,0.,0.));
#88 = DIRECTION('',(0.,0.,1.));
#89 = DIRECTION('',(1.,0.,0.));
#90 = PLANE('',#91);
#91 = AXIS2_PLACEMENT_3D('',#92,#93,#94);
#92 = CARTESIAN_POINT('',(0.,0.,0.));
#93 = DIRECTION('',(0.,0.,1.));
#94 = DIRECTION('',(1.,0.,0.));
#95 = ADVANCED_FACE('',(#96,#99),#110,.T.);
#96 = FACE_BOUND('',#97,.T.);
#97 = EDGE_LOOP('',(#98));
#98 = ORIENTED_EDGE('',*,*,#54,.T.);
#99 = FACE_BOUND('',#100,.T.);
#100 = EDGE_LOOP('',(#101));
#101 = ORIENTED_EDGE('',*,*,#102,.F.);
#102 = EDGE_CURVE('',#103,#103,#105,.T.);
#103 = VERTEX_POINT('',#104);
#104 = CARTESIAN_POINT('',(20.65,-5.E-15,8.));
#105 = CIRCLE('',#106,20.65);
#106 = AXIS2_PLACEMENT_3D('',#107,#108,#109);
#107 = CARTESIAN_POINT('',(0.,0.,8.));
#108 = DIRECTION('',(0.,0.,1.));
#109 = DIRECTION('',(1.,0.,0.));
#110 = PLANE('',#111);
#111 = AXIS2_PLACEMENT_3D('',#112,#113,#114);
#112 = CARTESIAN_POINT('',(0.,0.,8.));
#113 = DIRECTION('',(0.,0.,1.));
#114 = DIRECTION('',(1.,0.,0.));
#115 = ADVANCED_FACE('',(#116),#135,.F.);
#116 = FACE_BOUND('',#117,.F.);
#117 = EDGE_LOOP('',(#118,#119,#127,#134));
#118 = ORIENTED_EDGE('',*,*,#82,.T.);
#119 = ORIENTED_EDGE('',*,*,#120,.T.);
#120 = EDGE_CURVE('',#83,#121,#123,.T.);
#121 = VERTEX_POINT('',#122);
#122 = CARTESIAN_POINT('',(9.228125,-2.E-15,9.525));
#123 = LINE('',#124,#125);
#124 = CARTESIAN_POINT('',(9.228125,-2.26E-15,-0.1));
#125 = VECTOR('',#126,1.);
#126 = DIRECTION('',(0.,0.,1.));
#127 = ORIENTED_EDGE('',*,*,#128,.F.);
#128 = EDGE_CURVE('',#121,#121,#129,.T.);
#129 = CIRCLE('',#130,9.228125);
#130 = AXIS2_PLACEMENT_3D('',#131,#132,#133);
#131 = CARTESIAN_POINT('',(0.,0.,9.525));
#132 = DIRECTION('',(0.,0.,1.));
#133 = DIRECTION('',(1.,0.,0.));
#134 = ORIENTED_EDGE('',*,*,#120,.F.);
#135 = CYLINDRICAL_SURFACE('',#136,9.228125);
#136 = AXIS2_PLACEMENT_3D('',#137,#138,#139);
#137 = CARTESIAN_POINT('',(0.,0.,-0.1));
#138 = DIRECTION('',(0.,0.,1.));
#139 = DIRECTION('',(1.,0.,0.));
#140 = ADVANCED_FACE('',(#141,#219,#270,#306),#342,.T.);
#141 = FACE_BOUND('',#142,.T.);
#142 = EDGE_LOOP('',(#143,#154,#162,#169,#170,#179,#187,#196,#202,#203,
    #204,#213));
#143 = ORIENTED_EDGE('',*,*,#144,.T.);
#144 = EDGE_CURVE('',#145,#147,#149,.T.);
#145 = VERTEX_POINT('',#146);
#146 = CARTESIAN_POINT('',(20.270601338194,-3.940205754526,14.5));
#147 = VERTEX_POINT('',#148);
#148 = CARTESIAN_POINT('',(20.65,-5.E-15,14.5));
#149 = CIRCLE('',#150,20.65);
#150 = AXIS2_PLACEMENT_3D('',#151,#152,#153);
#151 = CARTESIAN_POINT('',(0.,0.,14.5));
#152 = DIRECTION('',(0.,0.,1.));
#153 = DIRECTION('',(1.,0.,0.));
#154 = ORIENTED_EDGE('',*,*,#155,.T.);
#155 = EDGE_CURVE('',#147,#156,#158,.T.);
#156 = VERTEX_POINT('',#157);
#157 = CARTESIAN_POINT('',(20.65,-5.E-15,15.90625));
#158 = LINE('',#159,#160);
#159 = CARTESIAN_POINT('',(20.65,-5.06E-15,8.));
#160 = VECTOR('',#161,1.);
#161 = DIRECTION('',(0.,0.,1.));
#162 = ORIENTED_EDGE('',*,*,#163,.F.);
#163 = EDGE_CURVE('',#156,#156,#164,.T.);
#164 = CIRCLE('',#165,20.65);
#165 = AXIS2_PLACEMENT_3D('',#166,#167,#168);
#166 = CARTESIAN_POINT('',(0.,0.,15.90625));
#167 = DIRECTION('',(0.,0.,1.));
#168 = DIRECTION('',(1.,0.,0.));
#169 = ORIENTED_EDGE('',*,*,#155,.F.);
#170 = ORIENTED_EDGE('',*,*,#171,.T.);
#171 = EDGE_CURVE('',#147,#172,#174,.T.);
#172 = VERTEX_POINT('',#173);
#173 = CARTESIAN_POINT('',(20.270601338194,3.940205754526,14.5));
#174 = CIRCLE('',#175,20.65);
#175 = AXIS2_PLACEMENT_3D('',#176,#177,#178);
#176 = CARTESIAN_POINT('',(0.,0.,14.5));
#177 = DIRECTION('',(0.,0.,1.));
#178 = DIRECTION('',(1.,0.,0.));
#179 = ORIENTED_EDGE('',*,*,#180,.F.);
#180 = EDGE_CURVE('',#181,#172,#183,.T.);
#181 = VERTEX_POINT('',#182);
#182 = CARTESIAN_POINT('',(20.270601338194,3.940205754526,12.));
#183 = LINE('',#184,#185);
#184 = CARTESIAN_POINT('',(20.270601338194,3.940205754526,8.));
#185 = VECTOR('',#186,1.);
#186 = DIRECTION('',(0.,0.,1.));
#187 = ORIENTED_EDGE('',*,*,#188,.F.);
#188 = EDGE_CURVE('',#189,#181,#191,.T.);
#189 = VERTEX_POINT('',#190);
#190 = CARTESIAN_POINT('',(20.65,-5.E-15,12.));
#191 = CIRCLE('',#192,20.65);
#192 = AXIS2_PLACEMENT_3D('',#193,#194,#195);
#193 = CARTESIAN_POINT('',(0.,0.,12.));
#194 = DIRECTION('',(0.,0.,1.));
#195 = DIRECTION('',(1.,0.,0.));
#196 = ORIENTED_EDGE('',*,*,#197,.F.);
#197 = EDGE_CURVE('',#103,#189,#198,.T.);
#198 = LINE('',#199,#200);
#199 = CARTESIAN_POINT('',(20.65,-5.06E-15,8.));
#200 = VECTOR('',#201,1.);
#201 = DIRECTION('',(0.,0.,1.));
#202 = ORIENTED_EDGE('',*,*,#102,.T.);
#203 = ORIENTED_EDGE('',*,*,#197,.T.);
#204 = ORIENTED_EDGE('',*,*,#205,.F.);
#205 = EDGE_CURVE('',#206,#189,#208,.T.);
#206 = VERTEX_POINT('',#207);
#207 = CARTESIAN_POINT('',(20.270601338194,-3.940205754526,12.));
#208 = CIRCLE('',#209,20.65);
#209 = AXIS2_PLACEMENT_3D('',#210,#211,#212);
#210 = CARTESIAN_POINT('',(0.,0.,12.));
#211 = DIRECTION('',(0.,0.,1.));
#212 = DIRECTION('',(1.,0.,0.));
#213 = ORIENTED_EDGE('',*,*,#214,.T.);
#214 = EDGE_CURVE('',#206,#145,#215,.T.);
#215 = LINE('',#216,#217);
#216 = CARTESIAN_POINT('',(20.270601338194,-3.940205754526,8.));
#217 = VECTOR('',#218,1.);
#218 = DIRECTION('',(0.,0.,1.));
#219 = FACE_BOUND('',#220,.T.);
#220 = EDGE_LOOP('',(#221));
#221 = ORIENTED_EDGE('',*,*,#222,.T.);
#222 = EDGE_CURVE('',#223,#223,#225,.T.);
#223 = VERTEX_POINT('',#224);
#224 = CARTESIAN_POINT('',(-20.36503355083,-3.41875832335,13.10625));
#225 = B_SPLINE_CURVE_WITH_KNOTS('',7,(#226,#227,#228,#229,#230,#231,
    #232,#233,#234,#235,#236,#237,#238,#239,#240,#241,#242,#243,#244,
    #245,#246,#247,#248,#249,#250,#251,#252,#253,#254,#255,#256,#257,
    #258,#259,#260,#261,#262,#263,#264,#265,#266,#267,#268,#269),
  .UNSPECIFIED.,.T.,.F.,(8,6,6,6,6,6,6,8),(0.,0.151246853874,
    0.287079470995,0.424389251135,0.587287301455,0.713795235866,
    0.839626185364,1.),.UNSPECIFIED.);
#226 = CARTESIAN_POINT('',(-20.36503355083,-3.41875832335,13.10625));
#227 = CARTESIAN_POINT('',(-20.36503355083,-3.41875832335,13.25646492693
    ));
#228 = CARTESIAN_POINT('',(-20.36154049991,-3.439565589231,
    13.406757157598));
#229 = CARTESIAN_POINT('',(-20.3545477265,-3.481222141271,
    13.554977208895));
#230 = CARTESIAN_POINT('',(-20.34384602486,-3.544146043299,
    13.698753668499));
#231 = CARTESIAN_POINT('',(-20.32906708655,-3.628899272658,
    13.835173001276));
#232 = CARTESIAN_POINT('',(-20.30965733274,-3.735997566585,
    13.960477353158));
#233 = CARTESIAN_POINT('',(-20.26284585734,-3.981655262336,
    14.167205825246));
#234 = CARTESIAN_POINT('',(-20.23588551313,-4.118910327369,
    14.25433815461));
#235 = CARTESIAN_POINT('',(-20.2041463432,-4.274259284229,
    14.321846636281));
#236 = CARTESIAN_POINT('',(-20.16814600258,-4.442025988705,
    14.363582230022));
#237 = CARTESIAN_POINT('',(-20.12898680357,-4.615043132263,
    14.376297620585));
#238 = CARTESIAN_POINT('',(-20.08846754516,-4.785786518688,
    14.359769245748));
#239 = CARTESIAN_POINT('',(-20.00816421749,-5.111189007939,
    14.273723317881));
#240 = CARTESIAN_POINT('',(-19.96954350295,-5.260992363296,
    14.20486382574));
#241 = CARTESIAN_POINT('',(-19.93386432498,-5.394155876858,
    14.115415956851));
#242 = CARTESIAN_POINT('',(-19.90212220956,-5.509100623856,
    14.009906634907));
#243 = CARTESIAN_POINT('',(-19.87504036446,-5.60503819942,
    13.892597695628));
#244 = CARTESIAN_POINT('',(-19.85301759203,-5.681891519472,
    13.767523533021));
#245 = CARTESIAN_POINT('',(-19.81605491736,-5.809619029353,
    13.485375779744));
#246 = CARTESIAN_POINT('',(-19.80261070192,-5.855018622553,
    13.322185849442));
#247 = CARTESIAN_POINT('',(-19.7964563069,-5.875478722578,
    13.153259868933));
#248 = CARTESIAN_POINT('',(-19.79791993834,-5.870604412414,
    12.982866670018));
#249 = CARTESIAN_POINT('',(-19.80694961865,-5.840455837326,
    12.815140194583));
#250 = CARTESIAN_POINT('',(-19.8231791204,-5.785403555072,
    12.654116925152));
#251 = CARTESIAN_POINT('',(-19.86373434642,-5.644348850737,
    12.387520868767));
#252 = CARTESIAN_POINT('',(-19.88580076273,-5.566758236453,
    12.275235231811));
#253 = CARTESIAN_POINT('',(-19.91209706567,-5.472834739053,
    12.170451284994));
#254 = CARTESIAN_POINT('',(-19.94224035093,-5.362800195222,
    12.076541903074));
#255 = CARTESIAN_POINT('',(-19.97559965408,-5.237466731026,
    11.99698153146));
#256 = CARTESIAN_POINT('',(-20.01134989355,-5.098280116752,
    11.935363194034));
#257 = CARTESIAN_POINT('',(-20.08551717317,-4.79774191854,
    11.855892111363));
#258 = CARTESIAN_POINT('',(-20.12311710987,-4.639760892709,
    11.838665650109));
#259 = CARTESIAN_POINT('',(-20.15972586648,-4.479133417689,
    11.846532826286));
#260 = CARTESIAN_POINT('',(-20.19382841824,-4.322073482932,
    11.879611553735));
#261 = CARTESIAN_POINT('',(-20.22441460549,-4.174607340066,
    11.935566877108));
#262 = CARTESIAN_POINT('',(-20.25094641448,-4.041715776361,
    12.009692341193));
#263 = CARTESIAN_POINT('',(-20.30174568743,-3.779422442488,
    12.203677832252));
#264 = CARTESIAN_POINT('',(-20.32405866209,-3.657553219237,
    12.333051139548));
#265 = CARTESIAN_POINT('',(-20.34095371706,-3.561137835578,
    12.47625768927));
#266 = CARTESIAN_POINT('',(-20.35313629431,-3.489631009221,
    12.62851807632));
#267 = CARTESIAN_POINT('',(-20.36107221678,-3.442354799886,
    12.786168742086));
#268 = CARTESIAN_POINT('',(-20.36503355083,-3.41875832335,
    12.946282812344));
#269 = CARTESIAN_POINT('',(-20.36503355083,-3.41875832335,13.10625));
#270 = FACE_BOUND('',#271,.T.);
#271 = EDGE_LOOP('',(#272,#282,#291,#299));
#272 = ORIENTED_EDGE('',*,*,#273,.T.);
#273 = EDGE_CURVE('',#274,#276,#278,.T.);
#274 = VERTEX_POINT('',#275);
#275 = CARTESIAN_POINT('',(-6.72298238954,19.524958586126,12.));
#276 = VERTEX_POINT('',#277);
#277 = CARTESIAN_POINT('',(-6.72298238954,19.524958586126,14.5));
#278 = LINE('',#279,#280);
#279 = CARTESIAN_POINT('',(-6.72298238954,19.524958586126,8.));
#280 = VECTOR('',#281,1.);
#281 = DIRECTION('',(0.,0.,1.));
#282 = ORIENTED_EDGE('',*,*,#283,.T.);
#283 = EDGE_CURVE('',#276,#284,#286,.T.);
#284 = VERTEX_POINT('',#285);
#285 = CARTESIAN_POINT('',(-13.54761894865,15.5847528316,14.5));
#286 = CIRCLE('',#287,20.65);
#287 = AXIS2_PLACEMENT_3D('',#288,#289,#290);
#288 = CARTESIAN_POINT('',(0.,0.,14.5));
#289 = DIRECTION('',(0.,0.,1.));
#290 = DIRECTION('',(1.,0.,0.));
#291 = ORIENTED_EDGE('',*,*,#292,.F.);
#292 = EDGE_CURVE('',#293,#284,#295,.T.);
#293 = VERTEX_POINT('',#294);
#294 = CARTESIAN_POINT('',(-13.54761894865,15.5847528316,12.));
#295 = LINE('',#296,#297);
#296 = CARTESIAN_POINT('',(-13.54761894865,15.5847528316,8.));
#297 = VECTOR('',#298,1.);
#298 = DIRECTION('',(0.,0.,1.));
#299 = ORIENTED_EDGE('',*,*,#300,.F.);
#300 = EDGE_CURVE('',#274,#293,#301,.T.);
#301 = CIRCLE('',#302,20.65);
#302 = AXIS2_PLACEMENT_3D('',#303,#304,#305);
#303 = CARTESIAN_POINT('',(0.,0.,12.));
#304 = DIRECTION('',(0.,0.,1.));
#305 = DIRECTION('',(1.,0.,0.));
#306 = FACE_BOUND('',#307,.T.);
#307 = EDGE_LOOP('',(#308,#318,#327,#335));
#308 = ORIENTED_EDGE('',*,*,#309,.T.);
#309 = EDGE_CURVE('',#310,#312,#314,.T.);
#310 = VERTEX_POINT('',#311);
#311 = CARTESIAN_POINT('',(-13.54761894865,-15.5847528316,12.));
#312 = VERTEX_POINT('',#313);
#313 = CARTESIAN_POINT('',(-13.54761894865,-15.5847528316,14.5));
#314 = LINE('',#315,#316);
#315 = CARTESIAN_POINT('',(-13.54761894865,-15.5847528316,8.));
#316 = VECTOR('',#317,1.);
#317 = DIRECTION('',(0.,0.,1.));
#318 = ORIENTED_EDGE('',*,*,#319,.T.);
#319 = EDGE_CURVE('',#312,#320,#322,.T.);
#320 = VERTEX_POINT('',#321);
#321 = CARTESIAN_POINT('',(-6.72298238954,-19.52495858612,14.5));
#322 = CIRCLE('',#323,20.65);
#323 = AXIS2_PLACEMENT_3D('',#324,#325,#326);
#324 = CARTESIAN_POINT('',(0.,0.,14.5));
#325 = DIRECTION('',(0.,0.,1.));
#326 = DIRECTION('',(1.,0.,0.));
#327 = ORIENTED_EDGE('',*,*,#328,.F.);
#328 = EDGE_CURVE('',#329,#320,#331,.T.);
#329 = VERTEX_POINT('',#330);
#330 = CARTESIAN_POINT('',(-6.72298238954,-19.52495858612,12.));
#331 = LINE('',#332,#333);
#332 = CARTESIAN_POINT('',(-6.72298238954,-19.52495858612,8.));
#333 = VECTOR('',#334,1.);
#334 = DIRECTION('',(0.,0.,1.));
#335 = ORIENTED_EDGE('',*,*,#336,.F.);
#336 = EDGE_CURVE('',#310,#329,#337,.T.);
#337 = CIRCLE('',#338,20.65);
#338 = AXIS2_PLACEMENT_3D('',#339,#340,#341);
#339 = CARTESIAN_POINT('',(0.,0.,12.));
#340 = DIRECTION('',(0.,0.,1.));
#341 = DIRECTION('',(1.,0.,0.));
#342 = CYLINDRICAL_SURFACE('',#343,20.65);
#343 = AXIS2_PLACEMENT_3D('',#344,#345,#346);
#344 = CARTESIAN_POINT('',(0.,0.,8.));
#345 = DIRECTION('',(0.,0.,1.));
#346 = DIRECTION('',(1.,0.,0.));
#347 = ADVANCED_FACE('',(#348,#359,#370,#381,#384),#395,.T.);
#348 = FACE_BOUND('',#349,.T.);
#349 = EDGE_LOOP('',(#350));
#350 = ORIENTED_EDGE('',*,*,#351,.T.);
#351 = EDGE_CURVE('',#352,#352,#354,.T.);
#352 = VERTEX_POINT('',#353);
#353 = CARTESIAN_POINT('',(18.35625,-4.E-15,9.525));
#354 = CIRCLE('',#355,18.35625);
#355 = AXIS2_PLACEMENT_3D('',#356,#357,#358);
#356 = CARTESIAN_POINT('',(0.,0.,9.525));
#357 = DIRECTION('',(0.,0.,1.));
#358 = DIRECTION('',(1.,0.,0.));
#359 = FACE_BOUND('',#360,.T.);
#360 = EDGE_LOOP('',(#361));
#361 = ORIENTED_EDGE('',*,*,#362,.F.);
#362 = EDGE_CURVE('',#363,#363,#365,.T.);
#363 = VERTEX_POINT('',#364);
#364 = CARTESIAN_POINT('',(-9.99134295109,-6.75,9.525));
#365 = CIRCLE('',#366,1.7);
#366 = AXIS2_PLACEMENT_3D('',#367,#368,#369);
#367 = CARTESIAN_POINT('',(-11.69134295109,-6.75,9.525));
#368 = DIRECTION('',(0.,0.,1.));
#369 = DIRECTION('',(1.,0.,0.));
#370 = FACE_BOUND('',#371,.T.);
#371 = EDGE_LOOP('',(#372));
#372 = ORIENTED_EDGE('',*,*,#373,.F.);
#373 = EDGE_CURVE('',#374,#374,#376,.T.);
#374 = VERTEX_POINT('',#375);
#375 = CARTESIAN_POINT('',(13.39134295109,-6.75,9.525));
#376 = CIRCLE('',#377,1.7);
#377 = AXIS2_PLACEMENT_3D('',#378,#379,#380);
#378 = CARTESIAN_POINT('',(11.69134295109,-6.75,9.525));
#379 = DIRECTION('',(0.,0.,1.));
#380 = DIRECTION('',(1.,0.,0.));
#381 = FACE_BOUND('',#382,.T.);
#382 = EDGE_LOOP('',(#383));
#383 = ORIENTED_EDGE('',*,*,#128,.F.);
#384 = FACE_BOUND('',#385,.T.);
#385 = EDGE_LOOP('',(#386));
#386 = ORIENTED_EDGE('',*,*,#387,.F.);
#387 = EDGE_CURVE('',#388,#388,#390,.T.);
#388 = VERTEX_POINT('',#389);
#389 = CARTESIAN_POINT('',(1.7,13.5,9.525));
#390 = CIRCLE('',#391,1.7);
#391 = AXIS2_PLACEMENT_3D('',#392,#393,#394);
#392 = CARTESIAN_POINT('',(8.3E-16,13.5,9.525));
#393 = DIRECTION('',(0.,0.,1.));
#394 = DIRECTION('',(1.,0.,0.));
#395 = PLANE('',#396);
#396 = AXIS2_PLACEMENT_3D('',#397,#398,#399);
#397 = CARTESIAN_POINT('',(0.,0.,9.525));
#398 = DIRECTION('',(0.,0.,1.));
#399 = DIRECTION('',(1.,0.,0.));
#400 = ADVANCED_FACE('',(#401),#428,.T.);
#401 = FACE_BOUND('',#402,.T.);
#402 = EDGE_LOOP('',(#403,#414,#420,#421,#422));
#403 = ORIENTED_EDGE('',*,*,#404,.T.);
#404 = EDGE_CURVE('',#405,#407,#409,.T.);
#405 = VERTEX_POINT('',#406);
#406 = CARTESIAN_POINT('',(22.724669296813,-4.417228242967,14.5));
#407 = VERTEX_POINT('',#408);
#408 = CARTESIAN_POINT('',(22.724669296813,4.417228242967,14.5));
#409 = CIRCLE('',#410,23.15);
#410 = AXIS2_PLACEMENT_3D('',#411,#412,#413);
#411 = CARTESIAN_POINT('',(0.,0.,14.5));
#412 = DIRECTION('',(-0.,0.,1.));
#413 = DIRECTION('',(0.981627183448,-0.190808995377,0.));
#414 = ORIENTED_EDGE('',*,*,#415,.F.);
#415 = EDGE_CURVE('',#172,#407,#416,.T.);
#416 = LINE('',#417,#418);
#417 = CARTESIAN_POINT('',(0.,0.,14.5));
#418 = VECTOR('',#419,1.);
#419 = DIRECTION('',(0.981627183448,0.190808995377,0.));
#420 = ORIENTED_EDGE('',*,*,#171,.F.);
#421 = ORIENTED_EDGE('',*,*,#144,.F.);
#422 = ORIENTED_EDGE('',*,*,#423,.T.);
#423 = EDGE_CURVE('',#145,#405,#424,.T.);
#424 = LINE('',#425,#426);
#425 = CARTESIAN_POINT('',(0.,0.,14.5));
#426 = VECTOR('',#427,1.);
#427 = DIRECTION('',(0.981627183448,-0.190808995377,0.));
#428 = PLANE('',#429);
#429 = AXIS2_PLACEMENT_3D('',#430,#431,#432);
#430 = CARTESIAN_POINT('',(0.,0.,14.5));
#431 = DIRECTION('',(0.,0.,1.));
#432 = DIRECTION('',(0.981627183448,-0.190808995377,0.));
#433 = ADVANCED_FACE('',(#434),#452,.T.);
#434 = FACE_BOUND('',#435,.T.);
#435 = EDGE_LOOP('',(#436,#437,#445,#451));
#436 = ORIENTED_EDGE('',*,*,#214,.F.);
#437 = ORIENTED_EDGE('',*,*,#438,.T.);
#438 = EDGE_CURVE('',#206,#439,#441,.T.);
#439 = VERTEX_POINT('',#440);
#440 = CARTESIAN_POINT('',(22.724669296813,-4.417228242967,12.));
#441 = LINE('',#442,#443);
#442 = CARTESIAN_POINT('',(0.,0.,12.));
#443 = VECTOR('',#444,1.);
#444 = DIRECTION('',(0.981627183448,-0.190808995377,0.));
#445 = ORIENTED_EDGE('',*,*,#446,.T.);
#446 = EDGE_CURVE('',#439,#405,#447,.T.);
#447 = LINE('',#448,#449);
#448 = CARTESIAN_POINT('',(22.724669296813,-4.417228242967,12.));
#449 = VECTOR('',#450,1.);
#450 = DIRECTION('',(0.,0.,1.));
#451 = ORIENTED_EDGE('',*,*,#423,.F.);
#452 = PLANE('',#453);
#453 = AXIS2_PLACEMENT_3D('',#454,#455,#456);
#454 = CARTESIAN_POINT('',(0.,0.,12.));
#455 = DIRECTION('',(-0.190808995377,-0.981627183448,0.));
#456 = DIRECTION('',(0.981627183448,-0.190808995377,0.));
#457 = ADVANCED_FACE('',(#458),#478,.F.);
#458 = FACE_BOUND('',#459,.F.);
#459 = EDGE_LOOP('',(#460,#469,#475,#476,#477));
#460 = ORIENTED_EDGE('',*,*,#461,.T.);
#461 = EDGE_CURVE('',#439,#462,#464,.T.);
#462 = VERTEX_POINT('',#463);
#463 = CARTESIAN_POINT('',(22.724669296813,4.417228242967,12.));
#464 = CIRCLE('',#465,23.15);
#465 = AXIS2_PLACEMENT_3D('',#466,#467,#468);
#466 = CARTESIAN_POINT('',(0.,0.,12.));
#467 = DIRECTION('',(-0.,0.,1.));
#468 = DIRECTION('',(0.981627183448,-0.190808995377,0.));
#469 = ORIENTED_EDGE('',*,*,#470,.F.);
#470 = EDGE_CURVE('',#181,#462,#471,.T.);
#471 = LINE('',#472,#473);
#472 = CARTESIAN_POINT('',(0.,0.,12.));
#473 = VECTOR('',#474,1.);
#474 = DIRECTION('',(0.981627183448,0.190808995377,0.));
#475 = ORIENTED_EDGE('',*,*,#188,.F.);
#476 = ORIENTED_EDGE('',*,*,#205,.F.);
#477 = ORIENTED_EDGE('',*,*,#438,.T.);
#478 = PLANE('',#479);
#479 = AXIS2_PLACEMENT_3D('',#480,#481,#482);
#480 = CARTESIAN_POINT('',(0.,0.,12.));
#481 = DIRECTION('',(0.,0.,1.));
#482 = DIRECTION('',(0.981627183448,-0.190808995377,0.));
#483 = ADVANCED_FACE('',(#484),#495,.F.);
#484 = FACE_BOUND('',#485,.F.);
#485 = EDGE_LOOP('',(#486,#487,#488,#489));
#486 = ORIENTED_EDGE('',*,*,#415,.F.);
#487 = ORIENTED_EDGE('',*,*,#180,.F.);
#488 = ORIENTED_EDGE('',*,*,#470,.T.);
#489 = ORIENTED_EDGE('',*,*,#490,.T.);
#490 = EDGE_CURVE('',#462,#407,#491,.T.);
#491 = LINE('',#492,#493);
#492 = CARTESIAN_POINT('',(22.724669296813,4.417228242967,12.));
#493 = VECTOR('',#494,1.);
#494 = DIRECTION('',(0.,0.,1.));
#495 = PLANE('',#496);
#496 = AXIS2_PLACEMENT_3D('',#497,#498,#499);
#497 = CARTESIAN_POINT('',(0.,0.,12.));
#498 = DIRECTION('',(0.190808995377,-0.981627183448,0.));
#499 = DIRECTION('',(0.981627183448,0.190808995377,0.));
#500 = ADVANCED_FACE('',(#501,#504,#538,#549),#583,.T.);
#501 = FACE_BOUND('',#502,.T.);
#502 = EDGE_LOOP('',(#503));
#503 = ORIENTED_EDGE('',*,*,#163,.T.);
#504 = FACE_BOUND('',#505,.T.);
#505 = EDGE_LOOP('',(#506,#516,#524,#532));
#506 = ORIENTED_EDGE('',*,*,#507,.F.);
#507 = EDGE_CURVE('',#508,#510,#512,.T.);
#508 = VERTEX_POINT('',#509);
#509 = CARTESIAN_POINT('',(-19.175,3.825,15.90625));
#510 = VERTEX_POINT('',#511);
#511 = CARTESIAN_POINT('',(-12.825,3.825,15.90625));
#512 = LINE('',#513,#514);
#513 = CARTESIAN_POINT('',(-19.175,3.825,15.90625));
#514 = VECTOR('',#515,1.);
#515 = DIRECTION('',(1.,0.,0.));
#516 = ORIENTED_EDGE('',*,*,#517,.T.);
#517 = EDGE_CURVE('',#508,#518,#520,.T.);
#518 = VERTEX_POINT('',#519);
#519 = CARTESIAN_POINT('',(-19.175,7.175,15.90625));
#520 = LINE('',#521,#522);
#521 = CARTESIAN_POINT('',(-19.175,3.825,15.90625));
#522 = VECTOR('',#523,1.);
#523 = DIRECTION('',(0.,1.,0.));
#524 = ORIENTED_EDGE('',*,*,#525,.T.);
#525 = EDGE_CURVE('',#518,#526,#528,.T.);
#526 = VERTEX_POINT('',#527);
#527 = CARTESIAN_POINT('',(-12.825,7.175,15.90625));
#528 = LINE('',#529,#530);
#529 = CARTESIAN_POINT('',(-19.175,7.175,15.90625));
#530 = VECTOR('',#531,1.);
#531 = DIRECTION('',(1.,0.,0.));
#532 = ORIENTED_EDGE('',*,*,#533,.F.);
#533 = EDGE_CURVE('',#510,#526,#534,.T.);
#534 = LINE('',#535,#536);
#535 = CARTESIAN_POINT('',(-12.825,3.825,15.90625));
#536 = VECTOR('',#537,1.);
#537 = DIRECTION('',(0.,1.,0.));
#538 = FACE_BOUND('',#539,.T.);
#539 = EDGE_LOOP('',(#540));
#540 = ORIENTED_EDGE('',*,*,#541,.F.);
#541 = EDGE_CURVE('',#542,#542,#544,.T.);
#542 = VERTEX_POINT('',#543);
#543 = CARTESIAN_POINT('',(9.,-2.E-15,15.90625));
#544 = CIRCLE('',#545,9.);
#545 = AXIS2_PLACEMENT_3D('',#546,#547,#548);
#546 = CARTESIAN_POINT('',(0.,0.,15.90625));
#547 = DIRECTION('',(0.,0.,1.));
#548 = DIRECTION('',(1.,0.,0.));
#549 = FACE_BOUND('',#550,.T.);
#550 = EDGE_LOOP('',(#551,#561,#569,#577));
#551 = ORIENTED_EDGE('',*,*,#552,.F.);
#552 = EDGE_CURVE('',#553,#555,#557,.T.);
#553 = VERTEX_POINT('',#554);
#554 = CARTESIAN_POINT('',(9.825,3.825,15.90625));
#555 = VERTEX_POINT('',#556);
#556 = CARTESIAN_POINT('',(16.175,3.825,15.90625));
#557 = LINE('',#558,#559);
#558 = CARTESIAN_POINT('',(9.825,3.825,15.90625));
#559 = VECTOR('',#560,1.);
#560 = DIRECTION('',(1.,0.,0.));
#561 = ORIENTED_EDGE('',*,*,#562,.T.);
#562 = EDGE_CURVE('',#553,#563,#565,.T.);
#563 = VERTEX_POINT('',#564);
#564 = CARTESIAN_POINT('',(9.825,7.175,15.90625));
#565 = LINE('',#566,#567);
#566 = CARTESIAN_POINT('',(9.825,3.825,15.90625));
#567 = VECTOR('',#568,1.);
#568 = DIRECTION('',(0.,1.,0.));
#569 = ORIENTED_EDGE('',*,*,#570,.T.);
#570 = EDGE_CURVE('',#563,#571,#573,.T.);
#571 = VERTEX_POINT('',#572);
#572 = CARTESIAN_POINT('',(16.175,7.175,15.90625));
#573 = LINE('',#574,#575);
#574 = CARTESIAN_POINT('',(9.825,7.175,15.90625));
#575 = VECTOR('',#576,1.);
#576 = DIRECTION('',(1.,0.,0.));
#577 = ORIENTED_EDGE('',*,*,#578,.F.);
#578 = EDGE_CURVE('',#555,#571,#579,.T.);
#579 = LINE('',#580,#581);
#580 = CARTESIAN_POINT('',(16.175,3.825,15.90625));
#581 = VECTOR('',#582,1.);
#582 = DIRECTION('',(0.,1.,0.));
#583 = PLANE('',#584);
#584 = AXIS2_PLACEMENT_3D('',#585,#586,#587);
#585 = CARTESIAN_POINT('',(0.,0.,15.90625));
#586 = DIRECTION('',(0.,0.,1.));
#587 = DIRECTION('',(1.,0.,0.));
#588 = ADVANCED_FACE('',(#589),#650,.F.);
#589 = FACE_BOUND('',#590,.F.);
#590 = EDGE_LOOP('',(#591,#599,#608,#616,#633,#641,#648,#649));
#591 = ORIENTED_EDGE('',*,*,#592,.T.);
#592 = EDGE_CURVE('',#223,#593,#595,.T.);
#593 = VERTEX_POINT('',#594);
#594 = CARTESIAN_POINT('',(-11.97362959535,-1.481450071145,13.10625));
#595 = LINE('',#596,#597);
#596 = CARTESIAN_POINT('',(-28.5379206967,-5.305617994991,13.10625));
#597 = VECTOR('',#598,1.);
#598 = DIRECTION('',(0.974370064785,0.224951054344,0.));
#599 = ORIENTED_EDGE('',*,*,#600,.F.);
#600 = EDGE_CURVE('',#601,#593,#603,.T.);
#601 = VERTEX_POINT('',#602);
#602 = CARTESIAN_POINT('',(-11.82599806602,-2.120912478695,12.00625));
#603 = CIRCLE('',#604,1.25);
#604 = AXIS2_PLACEMENT_3D('',#605,#606,#607);
#605 = CARTESIAN_POINT('',(-11.69244077742,-2.699412652126,13.10625));
#606 = DIRECTION('',(0.974370064785,0.224951054344,-0.));
#607 = DIRECTION('',(-0.224951054344,0.974370064785,0.));
#608 = ORIENTED_EDGE('',*,*,#609,.F.);
#609 = EDGE_CURVE('',#610,#601,#612,.T.);
#610 = VERTEX_POINT('',#611);
#611 = CARTESIAN_POINT('',(-18.00997979717,-3.548597154918,12.00625));
#612 = LINE('',#613,#614);
#613 = CARTESIAN_POINT('',(-28.39028916737,-5.945080402541,12.00625));
#614 = VECTOR('',#615,1.);
#615 = DIRECTION('',(0.974370064785,0.224951054344,0.));
#616 = ORIENTED_EDGE('',*,*,#617,.F.);
#617 = EDGE_CURVE('',#618,#610,#620,.T.);
#618 = VERTEX_POINT('',#619);
#619 = CARTESIAN_POINT('',(-17.74286521996,-4.705597501781,12.00625));
#620 = B_SPLINE_CURVE_WITH_KNOTS('',6,(#621,#622,#623,#624,#625,#626,
    #627,#628,#629,#630,#631,#632),.UNSPECIFIED.,.F.,.F.,(7,5,7),(0.,
    0.281458521759,1.),.UNSPECIFIED.);
#621 = CARTESIAN_POINT('',(-17.74286493484,-4.705598576836,12.0062506));
#622 = CARTESIAN_POINT('',(-17.75544438907,-4.658166660646,
    11.97977830914));
#623 = CARTESIAN_POINT('',(-17.76839610343,-4.608717041272,
    11.955588435917));
#624 = CARTESIAN_POINT('',(-17.78165021032,-4.557417068667,
    11.933941262451));
#625 = CARTESIAN_POINT('',(-17.79513164368,-4.504462214985,
    11.915063647533));
#626 = CARTESIAN_POINT('',(-17.80876302676,-4.450073093555,
    11.899148465914));
#627 = CARTESIAN_POINT('',(-17.85745415563,-4.252599535678,
    11.853690903438));
#628 = CARTESIAN_POINT('',(-17.89273637821,-4.10367718915,
    11.841536089161));
#629 = CARTESIAN_POINT('',(-17.92674032093,-3.953066213886,
    11.852388861486));
#630 = CARTESIAN_POINT('',(-17.95805914416,-3.806864655685,
    11.885922710328));
#631 = CARTESIAN_POINT('',(-17.98591756348,-3.670718788367,
    11.939103407818));
#632 = CARTESIAN_POINT('',(-18.00998001218,-3.548596063678,12.0062506));
#633 = ORIENTED_EDGE('',*,*,#634,.T.);
#634 = EDGE_CURVE('',#618,#635,#637,.T.);
#635 = VERTEX_POINT('',#636);
#636 = CARTESIAN_POINT('',(-11.55888348881,-3.277912825558,12.00625));
#637 = LINE('',#638,#639);
#638 = CARTESIAN_POINT('',(-28.12317459016,-7.102080749404,12.00625));
#639 = VECTOR('',#640,1.);
#640 = DIRECTION('',(0.974370064785,0.224951054344,0.));
#641 = ORIENTED_EDGE('',*,*,#642,.F.);
#642 = EDGE_CURVE('',#593,#635,#643,.T.);
#643 = CIRCLE('',#644,1.25);
#644 = AXIS2_PLACEMENT_3D('',#645,#646,#647);
#645 = CARTESIAN_POINT('',(-11.69244077742,-2.699412652126,13.10625));
#646 = DIRECTION('',(0.974370064785,0.224951054344,-0.));
#647 = DIRECTION('',(-0.224951054344,0.974370064785,0.));
#648 = ORIENTED_EDGE('',*,*,#592,.F.);
#649 = ORIENTED_EDGE('',*,*,#222,.T.);
#650 = CYLINDRICAL_SURFACE('',#651,1.25);
#651 = AXIS2_PLACEMENT_3D('',#652,#653,#654);
#652 = CARTESIAN_POINT('',(-28.25673187877,-6.523580575972,13.10625));
#653 = DIRECTION('',(0.974370064785,0.224951054344,0.));
#654 = DIRECTION('',(-0.224951054344,0.974370064785,0.));
#655 = ADVANCED_FACE('',(#656),#681,.T.);
#656 = FACE_BOUND('',#657,.T.);
#657 = EDGE_LOOP('',(#658,#659,#667,#675));
#658 = ORIENTED_EDGE('',*,*,#273,.F.);
#659 = ORIENTED_EDGE('',*,*,#660,.T.);
#660 = EDGE_CURVE('',#274,#661,#663,.T.);
#661 = VERTEX_POINT('',#662);
#662 = CARTESIAN_POINT('',(-7.536902775683,21.888755025124,12.));
#663 = LINE('',#664,#665);
#664 = CARTESIAN_POINT('',(0.,0.,12.));
#665 = VECTOR('',#666,1.);
#666 = DIRECTION('',(-0.325568154457,0.945518575599,0.));
#667 = ORIENTED_EDGE('',*,*,#668,.T.);
#668 = EDGE_CURVE('',#661,#669,#671,.T.);
#669 = VERTEX_POINT('',#670);
#670 = CARTESIAN_POINT('',(-7.536902775683,21.888755025124,14.5));
#671 = LINE('',#672,#673);
#672 = CARTESIAN_POINT('',(-7.536902775683,21.888755025124,12.));
#673 = VECTOR('',#674,1.);
#674 = DIRECTION('',(0.,0.,1.));
#675 = ORIENTED_EDGE('',*,*,#676,.F.);
#676 = EDGE_CURVE('',#276,#669,#677,.T.);
#677 = LINE('',#678,#679);
#678 = CARTESIAN_POINT('',(0.,0.,14.5));
#679 = VECTOR('',#680,1.);
#680 = DIRECTION('',(-0.325568154457,0.945518575599,0.));
#681 = PLANE('',#682);
#682 = AXIS2_PLACEMENT_3D('',#683,#684,#685);
#683 = CARTESIAN_POINT('',(0.,0.,12.));
#684 = DIRECTION('',(0.945518575599,0.325568154457,0.));
#685 = DIRECTION('',(-0.325568154457,0.945518575599,0.));
#686 = ADVANCED_FACE('',(#687),#706,.F.);
#687 = FACE_BOUND('',#688,.F.);
#688 = EDGE_LOOP('',(#689,#698,#704,#705));
#689 = ORIENTED_EDGE('',*,*,#690,.T.);
#690 = EDGE_CURVE('',#661,#691,#693,.T.);
#691 = VERTEX_POINT('',#692);
#692 = CARTESIAN_POINT('',(-15.18776652113,17.471526782157,12.));
#693 = CIRCLE('',#694,23.15);
#694 = AXIS2_PLACEMENT_3D('',#695,#696,#697);
#695 = CARTESIAN_POINT('',(0.,0.,12.));
#696 = DIRECTION('',(0.,0.,1.));
#697 = DIRECTION('',(-0.325568154457,0.945518575599,0.));
#698 = ORIENTED_EDGE('',*,*,#699,.F.);
#699 = EDGE_CURVE('',#293,#691,#700,.T.);
#700 = LINE('',#701,#702);
#701 = CARTESIAN_POINT('',(0.,0.,12.));
#702 = VECTOR('',#703,1.);
#703 = DIRECTION('',(-0.656059028991,0.754709580223,0.));
#704 = ORIENTED_EDGE('',*,*,#300,.F.);
#705 = ORIENTED_EDGE('',*,*,#660,.T.);
#706 = PLANE('',#707);
#707 = AXIS2_PLACEMENT_3D('',#708,#709,#710);
#708 = CARTESIAN_POINT('',(0.,0.,12.));
#709 = DIRECTION('',(0.,0.,1.));
#710 = DIRECTION('',(-0.325568154457,0.945518575599,0.));
#711 = ADVANCED_FACE('',(#712),#731,.T.);
#712 = FACE_BOUND('',#713,.T.);
#713 = EDGE_LOOP('',(#714,#723,#729,#730));
#714 = ORIENTED_EDGE('',*,*,#715,.T.);
#715 = EDGE_CURVE('',#669,#716,#718,.T.);
#716 = VERTEX_POINT('',#717);
#717 = CARTESIAN_POINT('',(-15.18776652113,17.471526782157,14.5));
#718 = CIRCLE('',#719,23.15);
#719 = AXIS2_PLACEMENT_3D('',#720,#721,#722);
#720 = CARTESIAN_POINT('',(0.,0.,14.5));
#721 = DIRECTION('',(0.,0.,1.));
#722 = DIRECTION('',(-0.325568154457,0.945518575599,0.));
#723 = ORIENTED_EDGE('',*,*,#724,.F.);
#724 = EDGE_CURVE('',#284,#716,#725,.T.);
#725 = LINE('',#726,#727);
#726 = CARTESIAN_POINT('',(0.,0.,14.5));
#727 = VECTOR('',#728,1.);
#728 = DIRECTION('',(-0.656059028991,0.754709580223,0.));
#729 = ORIENTED_EDGE('',*,*,#283,.F.);
#730 = ORIENTED_EDGE('',*,*,#676,.T.);
#731 = PLANE('',#732);
#732 = AXIS2_PLACEMENT_3D('',#733,#734,#735);
#733 = CARTESIAN_POINT('',(0.,0.,14.5));
#734 = DIRECTION('',(0.,0.,1.));
#735 = DIRECTION('',(-0.325568154457,0.945518575599,0.));
#736 = ADVANCED_FACE('',(#737),#748,.F.);
#737 = FACE_BOUND('',#738,.F.);
#738 = EDGE_LOOP('',(#739,#740,#741,#742));
#739 = ORIENTED_EDGE('',*,*,#724,.F.);
#740 = ORIENTED_EDGE('',*,*,#292,.F.);
#741 = ORIENTED_EDGE('',*,*,#699,.T.);
#742 = ORIENTED_EDGE('',*,*,#743,.T.);
#743 = EDGE_CURVE('',#691,#716,#744,.T.);
#744 = LINE('',#745,#746);
#745 = CARTESIAN_POINT('',(-15.18776652113,17.471526782157,12.));
#746 = VECTOR('',#747,1.);
#747 = DIRECTION('',(0.,0.,1.));
#748 = PLANE('',#749);
#749 = AXIS2_PLACEMENT_3D('',#750,#751,#752);
#750 = CARTESIAN_POINT('',(0.,0.,12.));
#751 = DIRECTION('',(0.754709580223,0.656059028991,0.));
#752 = DIRECTION('',(-0.656059028991,0.754709580223,0.));
#753 = ADVANCED_FACE('',(#754),#779,.T.);
#754 = FACE_BOUND('',#755,.T.);
#755 = EDGE_LOOP('',(#756,#757,#765,#773));
#756 = ORIENTED_EDGE('',*,*,#309,.F.);
#757 = ORIENTED_EDGE('',*,*,#758,.T.);
#758 = EDGE_CURVE('',#310,#759,#761,.T.);
#759 = VERTEX_POINT('',#760);
#760 = CARTESIAN_POINT('',(-15.18776652113,-17.47152678215,12.));
#761 = LINE('',#762,#763);
#762 = CARTESIAN_POINT('',(0.,0.,12.));
#763 = VECTOR('',#764,1.);
#764 = DIRECTION('',(-0.656059028991,-0.754709580223,0.));
#765 = ORIENTED_EDGE('',*,*,#766,.T.);
#766 = EDGE_CURVE('',#759,#767,#769,.T.);
#767 = VERTEX_POINT('',#768);
#768 = CARTESIAN_POINT('',(-15.18776652113,-17.47152678215,14.5));
#769 = LINE('',#770,#771);
#770 = CARTESIAN_POINT('',(-15.18776652113,-17.47152678215,12.));
#771 = VECTOR('',#772,1.);
#772 = DIRECTION('',(0.,0.,1.));
#773 = ORIENTED_EDGE('',*,*,#774,.F.);
#774 = EDGE_CURVE('',#312,#767,#775,.T.);
#775 = LINE('',#776,#777);
#776 = CARTESIAN_POINT('',(0.,0.,14.5));
#777 = VECTOR('',#778,1.);
#778 = DIRECTION('',(-0.656059028991,-0.754709580223,0.));
#779 = PLANE('',#780);
#780 = AXIS2_PLACEMENT_3D('',#781,#782,#783);
#781 = CARTESIAN_POINT('',(0.,0.,12.));
#782 = DIRECTION('',(-0.754709580223,0.656059028991,0.));
#783 = DIRECTION('',(-0.656059028991,-0.754709580223,0.));
#784 = ADVANCED_FACE('',(#785),#804,.F.);
#785 = FACE_BOUND('',#786,.F.);
#786 = EDGE_LOOP('',(#787,#796,#802,#803));
#787 = ORIENTED_EDGE('',*,*,#788,.T.);
#788 = EDGE_CURVE('',#759,#789,#791,.T.);
#789 = VERTEX_POINT('',#790);
#790 = CARTESIAN_POINT('',(-7.536902775683,-21.88875502512,12.));
#791 = CIRCLE('',#792,23.15);
#792 = AXIS2_PLACEMENT_3D('',#793,#794,#795);
#793 = CARTESIAN_POINT('',(0.,0.,12.));
#794 = DIRECTION('',(0.,0.,1.));
#795 = DIRECTION('',(-0.656059028991,-0.754709580223,0.));
#796 = ORIENTED_EDGE('',*,*,#797,.F.);
#797 = EDGE_CURVE('',#329,#789,#798,.T.);
#798 = LINE('',#799,#800);
#799 = CARTESIAN_POINT('',(0.,0.,12.));
#800 = VECTOR('',#801,1.);
#801 = DIRECTION('',(-0.325568154457,-0.945518575599,0.));
#802 = ORIENTED_EDGE('',*,*,#336,.F.);
#803 = ORIENTED_EDGE('',*,*,#758,.T.);
#804 = PLANE('',#805);
#805 = AXIS2_PLACEMENT_3D('',#806,#807,#808);
#806 = CARTESIAN_POINT('',(0.,0.,12.));
#807 = DIRECTION('',(0.,0.,1.));
#808 = DIRECTION('',(-0.656059028991,-0.754709580223,0.));
#809 = ADVANCED_FACE('',(#810),#829,.T.);
#810 = FACE_BOUND('',#811,.T.);
#811 = EDGE_LOOP('',(#812,#821,#827,#828));
#812 = ORIENTED_EDGE('',*,*,#813,.T.);
#813 = EDGE_CURVE('',#767,#814,#816,.T.);
#814 = VERTEX_POINT('',#815);
#815 = CARTESIAN_POINT('',(-7.536902775683,-21.88875502512,14.5));
#816 = CIRCLE('',#817,23.15);
#817 = AXIS2_PLACEMENT_3D('',#818,#819,#820);
#818 = CARTESIAN_POINT('',(0.,0.,14.5));
#819 = DIRECTION('',(0.,0.,1.));
#820 = DIRECTION('',(-0.656059028991,-0.754709580223,0.));
#821 = ORIENTED_EDGE('',*,*,#822,.F.);
#822 = EDGE_CURVE('',#320,#814,#823,.T.);
#823 = LINE('',#824,#825);
#824 = CARTESIAN_POINT('',(0.,0.,14.5));
#825 = VECTOR('',#826,1.);
#826 = DIRECTION('',(-0.325568154457,-0.945518575599,0.));
#827 = ORIENTED_EDGE('',*,*,#319,.F.);
#828 = ORIENTED_EDGE('',*,*,#774,.T.);
#829 = PLANE('',#830);
#830 = AXIS2_PLACEMENT_3D('',#831,#832,#833);
#831 = CARTESIAN_POINT('',(0.,0.,14.5));
#832 = DIRECTION('',(0.,0.,1.));
#833 = DIRECTION('',(-0.656059028991,-0.754709580223,0.));
#834 = ADVANCED_FACE('',(#835),#846,.F.);
#835 = FACE_BOUND('',#836,.F.);
#836 = EDGE_LOOP('',(#837,#838,#839,#840));
#837 = ORIENTED_EDGE('',*,*,#822,.F.);
#838 = ORIENTED_EDGE('',*,*,#328,.F.);
#839 = ORIENTED_EDGE('',*,*,#797,.T.);
#840 = ORIENTED_EDGE('',*,*,#841,.T.);
#841 = EDGE_CURVE('',#789,#814,#842,.T.);
#842 = LINE('',#843,#844);
#843 = CARTESIAN_POINT('',(-7.536902775683,-21.88875502512,12.));
#844 = VECTOR('',#845,1.);
#845 = DIRECTION('',(0.,0.,1.));
#846 = PLANE('',#847);
#847 = AXIS2_PLACEMENT_3D('',#848,#849,#850);
#848 = CARTESIAN_POINT('',(0.,0.,12.));
#849 = DIRECTION('',(-0.945518575599,0.325568154457,0.));
#850 = DIRECTION('',(-0.325568154457,-0.945518575599,0.));
#851 = ADVANCED_FACE('',(#852),#879,.F.);
#852 = FACE_BOUND('',#853,.F.);
#853 = EDGE_LOOP('',(#854,#862,#869,#870,#877,#878));
#854 = ORIENTED_EDGE('',*,*,#855,.T.);
#855 = EDGE_CURVE('',#352,#856,#858,.T.);
#856 = VERTEX_POINT('',#857);
#857 = CARTESIAN_POINT('',(18.35625,-4.E-15,12.00625));
#858 = LINE('',#859,#860);
#859 = CARTESIAN_POINT('',(18.35625,-4.5E-15,9.525));
#860 = VECTOR('',#861,1.);
#861 = DIRECTION('',(0.,0.,1.));
#862 = ORIENTED_EDGE('',*,*,#863,.F.);
#863 = EDGE_CURVE('',#618,#856,#864,.T.);
#864 = CIRCLE('',#865,18.35625);
#865 = AXIS2_PLACEMENT_3D('',#866,#867,#868);
#866 = CARTESIAN_POINT('',(0.,0.,12.00625));
#867 = DIRECTION('',(0.,0.,1.));
#868 = DIRECTION('',(1.,0.,0.));
#869 = ORIENTED_EDGE('',*,*,#617,.T.);
#870 = ORIENTED_EDGE('',*,*,#871,.F.);
#871 = EDGE_CURVE('',#856,#610,#872,.T.);
#872 = CIRCLE('',#873,18.35625);
#873 = AXIS2_PLACEMENT_3D('',#874,#875,#876);
#874 = CARTESIAN_POINT('',(0.,0.,12.00625));
#875 = DIRECTION('',(0.,0.,1.));
#876 = DIRECTION('',(1.,0.,0.));
#877 = ORIENTED_EDGE('',*,*,#855,.F.);
#878 = ORIENTED_EDGE('',*,*,#351,.T.);
#879 = CYLINDRICAL_SURFACE('',#880,18.35625);
#880 = AXIS2_PLACEMENT_3D('',#881,#882,#883);
#881 = CARTESIAN_POINT('',(0.,0.,9.525));
#882 = DIRECTION('',(0.,0.,1.));
#883 = DIRECTION('',(1.,0.,0.));
#884 = ADVANCED_FACE('',(#885),#904,.T.);
#885 = FACE_BOUND('',#886,.T.);
#886 = EDGE_LOOP('',(#887,#896,#902,#903));
#887 = ORIENTED_EDGE('',*,*,#888,.F.);
#888 = EDGE_CURVE('',#889,#889,#891,.T.);
#889 = VERTEX_POINT('',#890);
#890 = CARTESIAN_POINT('',(-9.99134295109,-6.75,12.00625));
#891 = CIRCLE('',#892,1.7);
#892 = AXIS2_PLACEMENT_3D('',#893,#894,#895);
#893 = CARTESIAN_POINT('',(-11.69134295109,-6.75,12.00625));
#894 = DIRECTION('',(0.,0.,1.));
#895 = DIRECTION('',(1.,0.,0.));
#896 = ORIENTED_EDGE('',*,*,#897,.F.);
#897 = EDGE_CURVE('',#363,#889,#898,.T.);
#898 = LINE('',#899,#900);
#899 = CARTESIAN_POINT('',(-9.99134295109,-6.75,9.525));
#900 = VECTOR('',#901,1.);
#901 = DIRECTION('',(0.,0.,1.));
#902 = ORIENTED_EDGE('',*,*,#362,.T.);
#903 = ORIENTED_EDGE('',*,*,#897,.T.);
#904 = CYLINDRICAL_SURFACE('',#905,1.7);
#905 = AXIS2_PLACEMENT_3D('',#906,#907,#908);
#906 = CARTESIAN_POINT('',(-11.69134295109,-6.75,9.525));
#907 = DIRECTION('',(0.,0.,1.));
#908 = DIRECTION('',(1.,0.,0.));
#909 = ADVANCED_FACE('',(#910),#929,.T.);
#910 = FACE_BOUND('',#911,.T.);
#911 = EDGE_LOOP('',(#912,#921,#927,#928));
#912 = ORIENTED_EDGE('',*,*,#913,.F.);
#913 = EDGE_CURVE('',#914,#914,#916,.T.);
#914 = VERTEX_POINT('',#915);
#915 = CARTESIAN_POINT('',(13.39134295109,-6.75,12.00625));
#916 = CIRCLE('',#917,1.7);
#917 = AXIS2_PLACEMENT_3D('',#918,#919,#920);
#918 = CARTESIAN_POINT('',(11.69134295109,-6.75,12.00625));
#919 = DIRECTION('',(0.,0.,1.));
#920 = DIRECTION('',(1.,0.,0.));
#921 = ORIENTED_EDGE('',*,*,#922,.F.);
#922 = EDGE_CURVE('',#374,#914,#923,.T.);
#923 = LINE('',#924,#925);
#924 = CARTESIAN_POINT('',(13.39134295109,-6.75,9.525));
#925 = VECTOR('',#926,1.);
#926 = DIRECTION('',(0.,0.,1.));
#927 = ORIENTED_EDGE('',*,*,#373,.T.);
#928 = ORIENTED_EDGE('',*,*,#922,.T.);
#929 = CYLINDRICAL_SURFACE('',#930,1.7);
#930 = AXIS2_PLACEMENT_3D('',#931,#932,#933);
#931 = CARTESIAN_POINT('',(11.69134295109,-6.75,9.525));
#932 = DIRECTION('',(0.,0.,1.));
#933 = DIRECTION('',(1.,0.,0.));
#934 = ADVANCED_FACE('',(#935),#954,.T.);
#935 = FACE_BOUND('',#936,.T.);
#936 = EDGE_LOOP('',(#937,#946,#952,#953));
#937 = ORIENTED_EDGE('',*,*,#938,.F.);
#938 = EDGE_CURVE('',#939,#939,#941,.T.);
#939 = VERTEX_POINT('',#940);
#940 = CARTESIAN_POINT('',(1.7,13.5,12.00625));
#941 = CIRCLE('',#942,1.7);
#942 = AXIS2_PLACEMENT_3D('',#943,#944,#945);
#943 = CARTESIAN_POINT('',(8.3E-16,13.5,12.00625));
#944 = DIRECTION('',(0.,0.,1.));
#945 = DIRECTION('',(1.,0.,0.));
#946 = ORIENTED_EDGE('',*,*,#947,.F.);
#947 = EDGE_CURVE('',#388,#939,#948,.T.);
#948 = LINE('',#949,#950);
#949 = CARTESIAN_POINT('',(1.7,13.5,9.525));
#950 = VECTOR('',#951,1.);
#951 = DIRECTION('',(0.,0.,1.));
#952 = ORIENTED_EDGE('',*,*,#387,.T.);
#953 = ORIENTED_EDGE('',*,*,#947,.T.);
#954 = CYLINDRICAL_SURFACE('',#955,1.7);
#955 = AXIS2_PLACEMENT_3D('',#956,#957,#958);
#956 = CARTESIAN_POINT('',(8.3E-16,13.5,9.525));
#957 = DIRECTION('',(0.,0.,1.));
#958 = DIRECTION('',(1.,0.,0.));
#959 = ADVANCED_FACE('',(#960),#966,.T.);
#960 = FACE_BOUND('',#961,.T.);
#961 = EDGE_LOOP('',(#962,#963,#964,#965));
#962 = ORIENTED_EDGE('',*,*,#404,.F.);
#963 = ORIENTED_EDGE('',*,*,#446,.F.);
#964 = ORIENTED_EDGE('',*,*,#461,.T.);
#965 = ORIENTED_EDGE('',*,*,#490,.T.);
#966 = CYLINDRICAL_SURFACE('',#967,23.15);
#967 = AXIS2_PLACEMENT_3D('',#968,#969,#970);
#968 = CARTESIAN_POINT('',(0.,0.,12.));
#969 = DIRECTION('',(0.,0.,1.));
#970 = DIRECTION('',(0.981627183448,-0.190808995377,0.));
#971 = ADVANCED_FACE('',(#972),#997,.T.);
#972 = FACE_BOUND('',#973,.T.);
#973 = EDGE_LOOP('',(#974,#984,#990,#991));
#974 = ORIENTED_EDGE('',*,*,#975,.F.);
#975 = EDGE_CURVE('',#976,#978,#980,.T.);
#976 = VERTEX_POINT('',#977);
#977 = CARTESIAN_POINT('',(-19.175,3.825,12.10625));
#978 = VERTEX_POINT('',#979);
#979 = CARTESIAN_POINT('',(-12.825,3.825,12.10625));
#980 = LINE('',#981,#982);
#981 = CARTESIAN_POINT('',(-19.175,3.825,12.10625));
#982 = VECTOR('',#983,1.);
#983 = DIRECTION('',(1.,0.,0.));
#984 = ORIENTED_EDGE('',*,*,#985,.T.);
#985 = EDGE_CURVE('',#976,#508,#986,.T.);
#986 = LINE('',#987,#988);
#987 = CARTESIAN_POINT('',(-19.175,3.825,12.10625));
#988 = VECTOR('',#989,1.);
#989 = DIRECTION('',(0.,0.,1.));
#990 = ORIENTED_EDGE('',*,*,#507,.T.);
#991 = ORIENTED_EDGE('',*,*,#992,.F.);
#992 = EDGE_CURVE('',#978,#510,#993,.T.);
#993 = LINE('',#994,#995);
#994 = CARTESIAN_POINT('',(-12.825,3.825,12.10625));
#995 = VECTOR('',#996,1.);
#996 = DIRECTION('',(0.,0.,1.));
#997 = PLANE('',#998);
#998 = AXIS2_PLACEMENT_3D('',#999,#1000,#1001);
#999 = CARTESIAN_POINT('',(-19.175,3.825,12.10625));
#1000 = DIRECTION('',(0.,1.,0.));
#1001 = DIRECTION('',(0.,0.,1.));
#1002 = ADVANCED_FACE('',(#1003),#1021,.F.);
#1003 = FACE_BOUND('',#1004,.F.);
#1004 = EDGE_LOOP('',(#1005,#1006,#1014,#1020));
#1005 = ORIENTED_EDGE('',*,*,#992,.F.);
#1006 = ORIENTED_EDGE('',*,*,#1007,.T.);
#1007 = EDGE_CURVE('',#978,#1008,#1010,.T.);
#1008 = VERTEX_POINT('',#1009);
#1009 = CARTESIAN_POINT('',(-12.825,7.175,12.10625));
#1010 = LINE('',#1011,#1012);
#1011 = CARTESIAN_POINT('',(-12.825,3.825,12.10625));
#1012 = VECTOR('',#1013,1.);
#1013 = DIRECTION('',(0.,1.,0.));
#1014 = ORIENTED_EDGE('',*,*,#1015,.T.);
#1015 = EDGE_CURVE('',#1008,#526,#1016,.T.);
#1016 = LINE('',#1017,#1018);
#1017 = CARTESIAN_POINT('',(-12.825,7.175,12.10625));
#1018 = VECTOR('',#1019,1.);
#1019 = DIRECTION('',(0.,0.,1.));
#1020 = ORIENTED_EDGE('',*,*,#533,.F.);
#1021 = PLANE('',#1022);
#1022 = AXIS2_PLACEMENT_3D('',#1023,#1024,#1025);
#1023 = CARTESIAN_POINT('',(-12.825,3.825,12.10625));
#1024 = DIRECTION('',(1.,0.,0.));
#1025 = DIRECTION('',(0.,0.,1.));
#1026 = ADVANCED_FACE('',(#1027),#1045,.F.);
#1027 = FACE_BOUND('',#1028,.F.);
#1028 = EDGE_LOOP('',(#1029,#1037,#1043,#1044));
#1029 = ORIENTED_EDGE('',*,*,#1030,.F.);
#1030 = EDGE_CURVE('',#1031,#1008,#1033,.T.);
#1031 = VERTEX_POINT('',#1032);
#1032 = CARTESIAN_POINT('',(-19.175,7.175,12.10625));
#1033 = LINE('',#1034,#1035);
#1034 = CARTESIAN_POINT('',(-19.175,7.175,12.10625));
#1035 = VECTOR('',#1036,1.);
#1036 = DIRECTION('',(1.,0.,0.));
#1037 = ORIENTED_EDGE('',*,*,#1038,.T.);
#1038 = EDGE_CURVE('',#1031,#518,#1039,.T.);
#1039 = LINE('',#1040,#1041);
#1040 = CARTESIAN_POINT('',(-19.175,7.175,12.10625));
#1041 = VECTOR('',#1042,1.);
#1042 = DIRECTION('',(0.,0.,1.));
#1043 = ORIENTED_EDGE('',*,*,#525,.T.);
#1044 = ORIENTED_EDGE('',*,*,#1015,.F.);
#1045 = PLANE('',#1046);
#1046 = AXIS2_PLACEMENT_3D('',#1047,#1048,#1049);
#1047 = CARTESIAN_POINT('',(-19.175,7.175,12.10625));
#1048 = DIRECTION('',(0.,1.,0.));
#1049 = DIRECTION('',(0.,0.,1.));
#1050 = ADVANCED_FACE('',(#1051),#1062,.T.);
#1051 = FACE_BOUND('',#1052,.T.);
#1052 = EDGE_LOOP('',(#1053,#1054,#1060,#1061));
#1053 = ORIENTED_EDGE('',*,*,#985,.F.);
#1054 = ORIENTED_EDGE('',*,*,#1055,.T.);
#1055 = EDGE_CURVE('',#976,#1031,#1056,.T.);
#1056 = LINE('',#1057,#1058);
#1057 = CARTESIAN_POINT('',(-19.175,3.825,12.10625));
#1058 = VECTOR('',#1059,1.);
#1059 = DIRECTION('',(0.,1.,0.));
#1060 = ORIENTED_EDGE('',*,*,#1038,.T.);
#1061 = ORIENTED_EDGE('',*,*,#517,.F.);
#1062 = PLANE('',#1063);
#1063 = AXIS2_PLACEMENT_3D('',#1064,#1065,#1066);
#1064 = CARTESIAN_POINT('',(-19.175,3.825,12.10625));
#1065 = DIRECTION('',(1.,0.,0.));
#1066 = DIRECTION('',(0.,0.,1.));
#1067 = ADVANCED_FACE('',(#1068),#1087,.F.);
#1068 = FACE_BOUND('',#1069,.F.);
#1069 = EDGE_LOOP('',(#1070,#1071,#1079,#1086));
#1070 = ORIENTED_EDGE('',*,*,#541,.F.);
#1071 = ORIENTED_EDGE('',*,*,#1072,.F.);
#1072 = EDGE_CURVE('',#1073,#542,#1075,.T.);
#1073 = VERTEX_POINT('',#1074);
#1074 = CARTESIAN_POINT('',(9.,-2.E-15,12.00625));
#1075 = LINE('',#1076,#1077);
#1076 = CARTESIAN_POINT('',(9.,-2.2E-15,11.80625));
#1077 = VECTOR('',#1078,1.);
#1078 = DIRECTION('',(0.,0.,1.));
#1079 = ORIENTED_EDGE('',*,*,#1080,.T.);
#1080 = EDGE_CURVE('',#1073,#1073,#1081,.T.);
#1081 = CIRCLE('',#1082,9.);
#1082 = AXIS2_PLACEMENT_3D('',#1083,#1084,#1085);
#1083 = CARTESIAN_POINT('',(0.,0.,12.00625));
#1084 = DIRECTION('',(0.,0.,1.));
#1085 = DIRECTION('',(1.,0.,0.));
#1086 = ORIENTED_EDGE('',*,*,#1072,.T.);
#1087 = CYLINDRICAL_SURFACE('',#1088,9.);
#1088 = AXIS2_PLACEMENT_3D('',#1089,#1090,#1091);
#1089 = CARTESIAN_POINT('',(0.,0.,11.80625));
#1090 = DIRECTION('',(0.,0.,1.));
#1091 = DIRECTION('',(1.,0.,0.));
#1092 = ADVANCED_FACE('',(#1093),#1118,.T.);
#1093 = FACE_BOUND('',#1094,.T.);
#1094 = EDGE_LOOP('',(#1095,#1105,#1111,#1112));
#1095 = ORIENTED_EDGE('',*,*,#1096,.F.);
#1096 = EDGE_CURVE('',#1097,#1099,#1101,.T.);
#1097 = VERTEX_POINT('',#1098);
#1098 = CARTESIAN_POINT('',(9.825,3.825,12.10625));
#1099 = VERTEX_POINT('',#1100);
#1100 = CARTESIAN_POINT('',(16.175,3.825,12.10625));
#1101 = LINE('',#1102,#1103);
#1102 = CARTESIAN_POINT('',(9.825,3.825,12.10625));
#1103 = VECTOR('',#1104,1.);
#1104 = DIRECTION('',(1.,0.,0.));
#1105 = ORIENTED_EDGE('',*,*,#1106,.T.);
#1106 = EDGE_CURVE('',#1097,#553,#1107,.T.);
#1107 = LINE('',#1108,#1109);
#1108 = CARTESIAN_POINT('',(9.825,3.825,12.10625));
#1109 = VECTOR('',#1110,1.);
#1110 = DIRECTION('',(0.,0.,1.));
#1111 = ORIENTED_EDGE('',*,*,#552,.T.);
#1112 = ORIENTED_EDGE('',*,*,#1113,.F.);
#1113 = EDGE_CURVE('',#1099,#555,#1114,.T.);
#1114 = LINE('',#1115,#1116);
#1115 = CARTESIAN_POINT('',(16.175,3.825,12.10625));
#1116 = VECTOR('',#1117,1.);
#1117 = DIRECTION('',(0.,0.,1.));
#1118 = PLANE('',#1119);
#1119 = AXIS2_PLACEMENT_3D('',#1120,#1121,#1122);
#1120 = CARTESIAN_POINT('',(9.825,3.825,12.10625));
#1121 = DIRECTION('',(0.,1.,0.));
#1122 = DIRECTION('',(0.,0.,1.));
#1123 = ADVANCED_FACE('',(#1124),#1142,.T.);
#1124 = FACE_BOUND('',#1125,.T.);
#1125 = EDGE_LOOP('',(#1126,#1127,#1135,#1141));
#1126 = ORIENTED_EDGE('',*,*,#1106,.F.);
#1127 = ORIENTED_EDGE('',*,*,#1128,.T.);
#1128 = EDGE_CURVE('',#1097,#1129,#1131,.T.);
#1129 = VERTEX_POINT('',#1130);
#1130 = CARTESIAN_POINT('',(9.825,7.175,12.10625));
#1131 = LINE('',#1132,#1133);
#1132 = CARTESIAN_POINT('',(9.825,3.825,12.10625));
#1133 = VECTOR('',#1134,1.);
#1134 = DIRECTION('',(0.,1.,0.));
#1135 = ORIENTED_EDGE('',*,*,#1136,.T.);
#1136 = EDGE_CURVE('',#1129,#563,#1137,.T.);
#1137 = LINE('',#1138,#1139);
#1138 = CARTESIAN_POINT('',(9.825,7.175,12.10625));
#1139 = VECTOR('',#1140,1.);
#1140 = DIRECTION('',(0.,0.,1.));
#1141 = ORIENTED_EDGE('',*,*,#562,.F.);
#1142 = PLANE('',#1143);
#1143 = AXIS2_PLACEMENT_3D('',#1144,#1145,#1146);
#1144 = CARTESIAN_POINT('',(9.825,3.825,12.10625));
#1145 = DIRECTION('',(1.,0.,0.));
#1146 = DIRECTION('',(0.,0.,1.));
#1147 = ADVANCED_FACE('',(#1148),#1166,.F.);
#1148 = FACE_BOUND('',#1149,.F.);
#1149 = EDGE_LOOP('',(#1150,#1151,#1159,#1165));
#1150 = ORIENTED_EDGE('',*,*,#1113,.F.);
#1151 = ORIENTED_EDGE('',*,*,#1152,.T.);
#1152 = EDGE_CURVE('',#1099,#1153,#1155,.T.);
#1153 = VERTEX_POINT('',#1154);
#1154 = CARTESIAN_POINT('',(16.175,7.175,12.10625));
#1155 = LINE('',#1156,#1157);
#1156 = CARTESIAN_POINT('',(16.175,3.825,12.10625));
#1157 = VECTOR('',#1158,1.);
#1158 = DIRECTION('',(0.,1.,0.));
#1159 = ORIENTED_EDGE('',*,*,#1160,.T.);
#1160 = EDGE_CURVE('',#1153,#571,#1161,.T.);
#1161 = LINE('',#1162,#1163);
#1162 = CARTESIAN_POINT('',(16.175,7.175,12.10625));
#1163 = VECTOR('',#1164,1.);
#1164 = DIRECTION('',(0.,0.,1.));
#1165 = ORIENTED_EDGE('',*,*,#578,.F.);
#1166 = PLANE('',#1167);
#1167 = AXIS2_PLACEMENT_3D('',#1168,#1169,#1170);
#1168 = CARTESIAN_POINT('',(16.175,3.825,12.10625));
#1169 = DIRECTION('',(1.,0.,0.));
#1170 = DIRECTION('',(0.,0.,1.));
#1171 = ADVANCED_FACE('',(#1172),#1183,.F.);
#1172 = FACE_BOUND('',#1173,.F.);
#1173 = EDGE_LOOP('',(#1174,#1180,#1181,#1182));
#1174 = ORIENTED_EDGE('',*,*,#1175,.F.);
#1175 = EDGE_CURVE('',#1129,#1153,#1176,.T.);
#1176 = LINE('',#1177,#1178);
#1177 = CARTESIAN_POINT('',(9.825,7.175,12.10625));
#1178 = VECTOR('',#1179,1.);
#1179 = DIRECTION('',(1.,0.,0.));
#1180 = ORIENTED_EDGE('',*,*,#1136,.T.);
#1181 = ORIENTED_EDGE('',*,*,#570,.T.);
#1182 = ORIENTED_EDGE('',*,*,#1160,.F.);
#1183 = PLANE('',#1184);
#1184 = AXIS2_PLACEMENT_3D('',#1185,#1186,#1187);
#1185 = CARTESIAN_POINT('',(9.825,7.175,12.10625));
#1186 = DIRECTION('',(0.,1.,0.));
#1187 = DIRECTION('',(0.,0.,1.));
#1188 = ADVANCED_FACE('',(#1189),#1199,.F.);
#1189 = FACE_BOUND('',#1190,.F.);
#1190 = EDGE_LOOP('',(#1191,#1192,#1193));
#1191 = ORIENTED_EDGE('',*,*,#600,.T.);
#1192 = ORIENTED_EDGE('',*,*,#642,.T.);
#1193 = ORIENTED_EDGE('',*,*,#1194,.T.);
#1194 = EDGE_CURVE('',#635,#601,#1195,.T.);
#1195 = LINE('',#1196,#1197);
#1196 = CARTESIAN_POINT('',(-11.69244077742,-2.699412652126,12.00625));
#1197 = VECTOR('',#1198,1.);
#1198 = DIRECTION('',(-0.224951054344,0.974370064785,0.));
#1199 = PLANE('',#1200);
#1200 = AXIS2_PLACEMENT_3D('',#1201,#1202,#1203);
#1201 = CARTESIAN_POINT('',(-11.69244077742,-2.699412652126,13.10625));
#1202 = DIRECTION('',(0.974370064785,0.224951054344,0.));
#1203 = DIRECTION('',(-0.224951054344,0.974370064785,0.));
#1204 = ADVANCED_FACE('',(#1205,#1212,#1215,#1218,#1221),#1224,.F.);
#1205 = FACE_BOUND('',#1206,.F.);
#1206 = EDGE_LOOP('',(#1207,#1208,#1209,#1210,#1211));
#1207 = ORIENTED_EDGE('',*,*,#863,.T.);
#1208 = ORIENTED_EDGE('',*,*,#871,.T.);
#1209 = ORIENTED_EDGE('',*,*,#609,.T.);
#1210 = ORIENTED_EDGE('',*,*,#1194,.F.);
#1211 = ORIENTED_EDGE('',*,*,#634,.F.);
#1212 = FACE_BOUND('',#1213,.F.);
#1213 = EDGE_LOOP('',(#1214));
#1214 = ORIENTED_EDGE('',*,*,#888,.F.);
#1215 = FACE_BOUND('',#1216,.F.);
#1216 = EDGE_LOOP('',(#1217));
#1217 = ORIENTED_EDGE('',*,*,#913,.F.);
#1218 = FACE_BOUND('',#1219,.F.);
#1219 = EDGE_LOOP('',(#1220));
#1220 = ORIENTED_EDGE('',*,*,#1080,.F.);
#1221 = FACE_BOUND('',#1222,.F.);
#1222 = EDGE_LOOP('',(#1223));
#1223 = ORIENTED_EDGE('',*,*,#938,.F.);
#1224 = PLANE('',#1225);
#1225 = AXIS2_PLACEMENT_3D('',#1226,#1227,#1228);
#1226 = CARTESIAN_POINT('',(0.,0.,12.00625));
#1227 = DIRECTION('',(0.,0.,1.));
#1228 = DIRECTION('',(1.,0.,0.));
#1229 = ADVANCED_FACE('',(#1230),#1236,.T.);
#1230 = FACE_BOUND('',#1231,.T.);
#1231 = EDGE_LOOP('',(#1232,#1233,#1234,#1235));
#1232 = ORIENTED_EDGE('',*,*,#715,.F.);
#1233 = ORIENTED_EDGE('',*,*,#668,.F.);
#1234 = ORIENTED_EDGE('',*,*,#690,.T.);
#1235 = ORIENTED_EDGE('',*,*,#743,.T.);
#1236 = CYLINDRICAL_SURFACE('',#1237,23.15);
#1237 = AXIS2_PLACEMENT_3D('',#1238,#1239,#1240);
#1238 = CARTESIAN_POINT('',(0.,0.,12.));
#1239 = DIRECTION('',(0.,0.,1.));
#1240 = DIRECTION('',(-0.325568154457,0.945518575599,0.));
#1241 = ADVANCED_FACE('',(#1242),#1248,.T.);
#1242 = FACE_BOUND('',#1243,.T.);
#1243 = EDGE_LOOP('',(#1244,#1245,#1246,#1247));
#1244 = ORIENTED_EDGE('',*,*,#813,.F.);
#1245 = ORIENTED_EDGE('',*,*,#766,.F.);
#1246 = ORIENTED_EDGE('',*,*,#788,.T.);
#1247 = ORIENTED_EDGE('',*,*,#841,.T.);
#1248 = CYLINDRICAL_SURFACE('',#1249,23.15);
#1249 = AXIS2_PLACEMENT_3D('',#1250,#1251,#1252);
#1250 = CARTESIAN_POINT('',(0.,0.,12.));
#1251 = DIRECTION('',(0.,0.,1.));
#1252 = DIRECTION('',(-0.656059028991,-0.754709580223,0.));
#1253 = ADVANCED_FACE('',(#1254),#1260,.T.);
#1254 = FACE_BOUND('',#1255,.T.);
#1255 = EDGE_LOOP('',(#1256,#1257,#1258,#1259));
#1256 = ORIENTED_EDGE('',*,*,#1055,.F.);
#1257 = ORIENTED_EDGE('',*,*,#975,.T.);
#1258 = ORIENTED_EDGE('',*,*,#1007,.T.);
#1259 = ORIENTED_EDGE('',*,*,#1030,.F.);
#1260 = PLANE('',#1261);
#1261 = AXIS2_PLACEMENT_3D('',#1262,#1263,#1264);
#1262 = CARTESIAN_POINT('',(-19.175,3.825,12.10625));
#1263 = DIRECTION('',(0.,0.,1.));
#1264 = DIRECTION('',(1.,0.,0.));
#1265 = ADVANCED_FACE('',(#1266),#1272,.T.);
#1266 = FACE_BOUND('',#1267,.T.);
#1267 = EDGE_LOOP('',(#1268,#1269,#1270,#1271));
#1268 = ORIENTED_EDGE('',*,*,#1128,.F.);
#1269 = ORIENTED_EDGE('',*,*,#1096,.T.);
#1270 = ORIENTED_EDGE('',*,*,#1152,.T.);
#1271 = ORIENTED_EDGE('',*,*,#1175,.F.);
#1272 = PLANE('',#1273);
#1273 = AXIS2_PLACEMENT_3D('',#1274,#1275,#1276);
#1274 = CARTESIAN_POINT('',(9.825,3.825,12.10625));
#1275 = DIRECTION('',(0.,0.,1.));
#1276 = DIRECTION('',(1.,0.,0.));
#1277 = ( GEOMETRIC_REPRESENTATION_CONTEXT(3) 
GLOBAL_UNCERTAINTY_ASSIGNED_CONTEXT((#1281)) 
GLOBAL_UNIT_ASSIGNED_CONTEXT((#1278,#1279,#1280)) REPRESENTATION_CONTEXT
('Context #1','3D Context with UNIT and UNCERTAINTY') );
#1278 = ( LENGTH_UNIT() NAMED_UNIT(*) SI_UNIT(.MILLI.,.METRE.) );
#1279 = ( NAMED_UNIT(*) PLANE_ANGLE_UNIT() SI_UNIT($,.RADIAN.) );
#1280 = ( NAMED_UNIT(*) SI_UNIT($,.STERADIAN.) SOLID_ANGLE_UNIT() );
#1281 = UNCERTAINTY_MEASURE_WITH_UNIT(LENGTH_MEASURE(1.E-07),#1278,
  'distance_accuracy_value','confusion accuracy');
#1282 = PRODUCT_RELATED_PRODUCT_CATEGORY('part',$,(#7));
ENDSEC;
END-ISO-10303-21;
