ISO-10303-21;
HEADER;
FILE_DESCRIPTION(('FreeCAD Model'),'2;1');
FILE_NAME('Open CASCADE Shape Model','2026-09-22T17:20:30',('FreeCAD'),(
    'FreeCAD'),'Open CASCADE STEP processor 7.8','FreeCAD','Unknown');
FILE_SCHEMA(('AUTOMOTIVE_DESIGN { 1 0 10303 214 1 1 1 1 }'));
ENDSEC;
DATA;
#1 = APPLICATION_PROTOCOL_DEFINITION('international standard',
  'automotive_design',2000,#2);
#2 = APPLICATION_CONTEXT(
  'core data for automotive mechanical design processes');
#3 = SHAPE_DEFINITION_REPRESENTATION(#4,#10);
#4 = PRODUCT_DEFINITION_SHAPE('','',#5);
#5 = PRODUCT_DEFINITION('design','',#6,#9);
#6 = PRODUCT_DEFINITION_FORMATION('','',#7);
#7 = PRODUCT('Open CASCADE STEP translator 7.8 3',
  'Open CASCADE STEP translator 7.8 3','',(#8));
#8 = PRODUCT_CONTEXT('',#2,'mechanical');
#9 = PRODUCT_DEFINITION_CONTEXT('part definition',#2,'design');
#10 = ADVANCED_BREP_SHAPE_REPRESENTATION('',(#11,#15),#1006);
#11 = AXIS2_PLACEMENT_3D('',#12,#13,#14);
#12 = CARTESIAN_POINT('',(0.,0.,0.));
#13 = DIRECTION('',(0.,0.,1.));
#14 = DIRECTION('',(1.,0.,-0.));
#15 = MANIFOLD_SOLID_BREP('',#16);
#16 = CLOSED_SHELL('',(#17,#50,#70,#90,#115,#322,#375,#408,#432,#458,
    #478,#495,#526,#551,#576,#593,#624,#649,#674,#691,#716,#741,#766,
    #791,#816,#828,#918,#930,#942,#951,#972,#997));
#17 = ADVANCED_FACE('',(#18),#45,.T.);
#18 = FACE_BOUND('',#19,.T.);
#19 = EDGE_LOOP('',(#20,#29,#37,#44));
#20 = ORIENTED_EDGE('',*,*,#21,.F.);
#21 = EDGE_CURVE('',#22,#22,#24,.T.);
#22 = VERTEX_POINT('',#23);
#23 = CARTESIAN_POINT('',(27.,-7.E-15,105.70625));
#24 = CIRCLE('',#25,27.);
#25 = AXIS2_PLACEMENT_3D('',#26,#27,#28);
#26 = CARTESIAN_POINT('',(0.,0.,105.70625));
#27 = DIRECTION('',(0.,0.,1.));
#28 = DIRECTION('',(1.,0.,0.));
#29 = ORIENTED_EDGE('',*,*,#30,.F.);
#30 = EDGE_CURVE('',#31,#22,#33,.T.);
#31 = VERTEX_POINT('',#32);
#32 = CARTESIAN_POINT('',(27.,-7.E-15,101.90625));
#33 = LINE('',#34,#35);
#34 = CARTESIAN_POINT('',(27.,-6.61E-15,101.90625));
#35 = VECTOR('',#36,1.);
#36 = DIRECTION('',(0.,0.,1.));
#37 = ORIENTED_EDGE('',*,*,#38,.T.);
#38 = EDGE_CURVE('',#31,#31,#39,.T.);
#39 = CIRCLE('',#40,27.);
#40 = AXIS2_PLACEMENT_3D('',#41,#42,#43);
#41 = CARTESIAN_POINT('',(0.,0.,101.90625));
#42 = DIRECTION('',(0.,0.,1.));
#43 = DIRECTION('',(1.,0.,0.));
#44 = ORIENTED_EDGE('',*,*,#30,.T.);
#45 = CYLINDRICAL_SURFACE('',#46,27.);
#46 = AXIS2_PLACEMENT_3D('',#47,#48,#49);
#47 = CARTESIAN_POINT('',(0.,0.,101.90625));
#48 = DIRECTION('',(0.,0.,1.));
#49 = DIRECTION('',(1.,0.,0.));
#50 = ADVANCED_FACE('',(#51,#54),#65,.T.);
#51 = FACE_BOUND('',#52,.T.);
#52 = EDGE_LOOP('',(#53));
#53 = ORIENTED_EDGE('',*,*,#21,.T.);
#54 = FACE_BOUND('',#55,.T.);
#55 = EDGE_LOOP('',(#56));
#56 = ORIENTED_EDGE('',*,*,#57,.F.);
#57 = EDGE_CURVE('',#58,#58,#60,.T.);
#58 = VERTEX_POINT('',#59);
#59 = CARTESIAN_POINT('',(25.8,-6.E-15,105.70625));
#60 = CIRCLE('',#61,25.8);
#61 = AXIS2_PLACEMENT_3D('',#62,#63,#64);
#62 = CARTESIAN_POINT('',(0.,0.,105.70625));
#63 = DIRECTION('',(0.,0.,1.));
#64 = DIRECTION('',(1.,0.,0.));
#65 = PLANE('',#66);
#66 = AXIS2_PLACEMENT_3D('',#67,#68,#69);
#67 = CARTESIAN_POINT('',(0.,0.,105.70625));
#68 = DIRECTION('',(0.,0.,1.));
#69 = DIRECTION('',(1.,0.,0.));
#70 = ADVANCED_FACE('',(#71,#74),#85,.F.);
#71 = FACE_BOUND('',#72,.F.);
#72 = EDGE_LOOP('',(#73));
#73 = ORIENTED_EDGE('',*,*,#38,.T.);
#74 = FACE_BOUND('',#75,.F.);
#75 = EDGE_LOOP('',(#76));
#76 = ORIENTED_EDGE('',*,*,#77,.F.);
#77 = EDGE_CURVE('',#78,#78,#80,.T.);
#78 = VERTEX_POINT('',#79);
#79 = CARTESIAN_POINT('',(20.65,-5.E-15,101.90625));
#80 = CIRCLE('',#81,20.65);
#81 = AXIS2_PLACEMENT_3D('',#82,#83,#84);
#82 = CARTESIAN_POINT('',(0.,0.,101.90625));
#83 = DIRECTION('',(0.,0.,1.));
#84 = DIRECTION('',(1.,0.,0.));
#85 = PLANE('',#86);
#86 = AXIS2_PLACEMENT_3D('',#87,#88,#89);
#87 = CARTESIAN_POINT('',(0.,0.,101.90625));
#88 = DIRECTION('',(0.,0.,1.));
#89 = DIRECTION('',(1.,0.,0.));
#90 = ADVANCED_FACE('',(#91),#110,.T.);
#91 = FACE_BOUND('',#92,.T.);
#92 = EDGE_LOOP('',(#93,#102,#108,#109));
#93 = ORIENTED_EDGE('',*,*,#94,.F.);
#94 = EDGE_CURVE('',#95,#95,#97,.T.);
#95 = VERTEX_POINT('',#96);
#96 = CARTESIAN_POINT('',(25.8,-6.E-15,106.90625));
#97 = CIRCLE('',#98,25.8);
#98 = AXIS2_PLACEMENT_3D('',#99,#100,#101);
#99 = CARTESIAN_POINT('',(0.,0.,106.90625));
#100 = DIRECTION('',(0.,0.,1.));
#101 = DIRECTION('',(1.,0.,0.));
#102 = ORIENTED_EDGE('',*,*,#103,.F.);
#103 = EDGE_CURVE('',#58,#95,#104,.T.);
#104 = LINE('',#105,#106);
#105 = CARTESIAN_POINT('',(25.8,-6.32E-15,104.70625));
#106 = VECTOR('',#107,1.);
#107 = DIRECTION('',(0.,0.,1.));
#108 = ORIENTED_EDGE('',*,*,#57,.T.);
#109 = ORIENTED_EDGE('',*,*,#103,.T.);
#110 = CYLINDRICAL_SURFACE('',#111,25.8);
#111 = AXIS2_PLACEMENT_3D('',#112,#113,#114);
#112 = CARTESIAN_POINT('',(0.,0.,104.70625));
#113 = DIRECTION('',(0.,0.,1.));
#114 = DIRECTION('',(1.,0.,0.));
#115 = ADVANCED_FACE('',(#116,#194,#230,#266),#317,.T.);
#116 = FACE_BOUND('',#117,.T.);
#117 = EDGE_LOOP('',(#118,#129,#135,#136,#137,#146,#154,#163,#171,#178,
    #179,#188));
#118 = ORIENTED_EDGE('',*,*,#119,.T.);
#119 = EDGE_CURVE('',#120,#122,#124,.T.);
#120 = VERTEX_POINT('',#121);
#121 = CARTESIAN_POINT('',(20.270601338194,-3.940205754526,96.40625));
#122 = VERTEX_POINT('',#123);
#123 = CARTESIAN_POINT('',(20.65,-5.E-15,96.40625));
#124 = CIRCLE('',#125,20.65);
#125 = AXIS2_PLACEMENT_3D('',#126,#127,#128);
#126 = CARTESIAN_POINT('',(0.,0.,96.40625));
#127 = DIRECTION('',(0.,0.,1.));
#128 = DIRECTION('',(1.,0.,0.));
#129 = ORIENTED_EDGE('',*,*,#130,.T.);
#130 = EDGE_CURVE('',#122,#78,#131,.T.);
#131 = LINE('',#132,#133);
#132 = CARTESIAN_POINT('',(20.65,-5.06E-15,88.90625));
#133 = VECTOR('',#134,1.);
#134 = DIRECTION('',(0.,0.,1.));
#135 = ORIENTED_EDGE('',*,*,#77,.F.);
#136 = ORIENTED_EDGE('',*,*,#130,.F.);
#137 = ORIENTED_EDGE('',*,*,#138,.T.);
#138 = EDGE_CURVE('',#122,#139,#141,.T.);
#139 = VERTEX_POINT('',#140);
#140 = CARTESIAN_POINT('',(20.270601338194,3.940205754526,96.40625));
#141 = CIRCLE('',#142,20.65);
#142 = AXIS2_PLACEMENT_3D('',#143,#144,#145);
#143 = CARTESIAN_POINT('',(0.,0.,96.40625));
#144 = DIRECTION('',(0.,0.,1.));
#145 = DIRECTION('',(1.,0.,0.));
#146 = ORIENTED_EDGE('',*,*,#147,.F.);
#147 = EDGE_CURVE('',#148,#139,#150,.T.);
#148 = VERTEX_POINT('',#149);
#149 = CARTESIAN_POINT('',(20.270601338194,3.940205754526,93.90625));
#150 = LINE('',#151,#152);
#151 = CARTESIAN_POINT('',(20.270601338194,3.940205754526,88.90625));
#152 = VECTOR('',#153,1.);
#153 = DIRECTION('',(0.,0.,1.));
#154 = ORIENTED_EDGE('',*,*,#155,.F.);
#155 = EDGE_CURVE('',#156,#148,#158,.T.);
#156 = VERTEX_POINT('',#157);
#157 = CARTESIAN_POINT('',(20.65,-5.E-15,93.90625));
#158 = CIRCLE('',#159,20.65);
#159 = AXIS2_PLACEMENT_3D('',#160,#161,#162);
#160 = CARTESIAN_POINT('',(0.,0.,93.90625));
#161 = DIRECTION('',(0.,0.,1.));
#162 = DIRECTION('',(1.,0.,0.));
#163 = ORIENTED_EDGE('',*,*,#164,.F.);
#164 = EDGE_CURVE('',#165,#156,#167,.T.);
#165 = VERTEX_POINT('',#166);
#166 = CARTESIAN_POINT('',(20.65,-5.E-15,88.90625));
#167 = LINE('',#168,#169);
#168 = CARTESIAN_POINT('',(20.65,-5.06E-15,88.90625));
#169 = VECTOR('',#170,1.);
#170 = DIRECTION('',(0.,0.,1.));
#171 = ORIENTED_EDGE('',*,*,#172,.T.);
#172 = EDGE_CURVE('',#165,#165,#173,.T.);
#173 = CIRCLE('',#174,20.65);
#174 = AXIS2_PLACEMENT_3D('',#175,#176,#177);
#175 = CARTESIAN_POINT('',(0.,0.,88.90625));
#176 = DIRECTION('',(0.,0.,1.));
#177 = DIRECTION('',(1.,0.,0.));
#178 = ORIENTED_EDGE('',*,*,#164,.T.);
#179 = ORIENTED_EDGE('',*,*,#180,.F.);
#180 = EDGE_CURVE('',#181,#156,#183,.T.);
#181 = VERTEX_POINT('',#182);
#182 = CARTESIAN_POINT('',(20.270601338194,-3.940205754526,93.90625));
#183 = CIRCLE('',#184,20.65);
#184 = AXIS2_PLACEMENT_3D('',#185,#186,#187);
#185 = CARTESIAN_POINT('',(0.,0.,93.90625));
#186 = DIRECTION('',(0.,0.,1.));
#187 = DIRECTION('',(1.,0.,0.));
#188 = ORIENTED_EDGE('',*,*,#189,.T.);
#189 = EDGE_CURVE('',#181,#120,#190,.T.);
#190 = LINE('',#191,#192);
#191 = CARTESIAN_POINT('',(20.270601338194,-3.940205754526,88.90625));
#192 = VECTOR('',#193,1.);
#193 = DIRECTION('',(0.,0.,1.));
#194 = FACE_BOUND('',#195,.T.);
#195 = EDGE_LOOP('',(#196,#206,#215,#223));
#196 = ORIENTED_EDGE('',*,*,#197,.T.);
#197 = EDGE_CURVE('',#198,#200,#202,.T.);
#198 = VERTEX_POINT('',#199);
#199 = CARTESIAN_POINT('',(-6.72298238954,19.524958586126,93.90625));
#200 = VERTEX_POINT('',#201);
#201 = CARTESIAN_POINT('',(-6.72298238954,19.524958586126,96.40625));
#202 = LINE('',#203,#204);
#203 = CARTESIAN_POINT('',(-6.72298238954,19.524958586126,88.90625));
#204 = VECTOR('',#205,1.);
#205 = DIRECTION('',(0.,0.,1.));
#206 = ORIENTED_EDGE('',*,*,#207,.T.);
#207 = EDGE_CURVE('',#200,#208,#210,.T.);
#208 = VERTEX_POINT('',#209);
#209 = CARTESIAN_POINT('',(-13.54761894865,15.5847528316,96.40625));
#210 = CIRCLE('',#211,20.65);
#211 = AXIS2_PLACEMENT_3D('',#212,#213,#214);
#212 = CARTESIAN_POINT('',(0.,0.,96.40625));
#213 = DIRECTION('',(0.,0.,1.));
#214 = DIRECTION('',(1.,0.,0.));
#215 = ORIENTED_EDGE('',*,*,#216,.F.);
#216 = EDGE_CURVE('',#217,#208,#219,.T.);
#217 = VERTEX_POINT('',#218);
#218 = CARTESIAN_POINT('',(-13.54761894865,15.5847528316,93.90625));
#219 = LINE('',#220,#221);
#220 = CARTESIAN_POINT('',(-13.54761894865,15.5847528316,88.90625));
#221 = VECTOR('',#222,1.);
#222 = DIRECTION('',(0.,0.,1.));
#223 = ORIENTED_EDGE('',*,*,#224,.F.);
#224 = EDGE_CURVE('',#198,#217,#225,.T.);
#225 = CIRCLE('',#226,20.65);
#226 = AXIS2_PLACEMENT_3D('',#227,#228,#229);
#227 = CARTESIAN_POINT('',(0.,0.,93.90625));
#228 = DIRECTION('',(0.,0.,1.));
#229 = DIRECTION('',(1.,0.,0.));
#230 = FACE_BOUND('',#231,.T.);
#231 = EDGE_LOOP('',(#232,#242,#251,#259));
#232 = ORIENTED_EDGE('',*,*,#233,.T.);
#233 = EDGE_CURVE('',#234,#236,#238,.T.);
#234 = VERTEX_POINT('',#235);
#235 = CARTESIAN_POINT('',(-13.54761894865,-15.5847528316,93.90625));
#236 = VERTEX_POINT('',#237);
#237 = CARTESIAN_POINT('',(-13.54761894865,-15.5847528316,96.40625));
#238 = LINE('',#239,#240);
#239 = CARTESIAN_POINT('',(-13.54761894865,-15.5847528316,88.90625));
#240 = VECTOR('',#241,1.);
#241 = DIRECTION('',(0.,0.,1.));
#242 = ORIENTED_EDGE('',*,*,#243,.T.);
#243 = EDGE_CURVE('',#236,#244,#246,.T.);
#244 = VERTEX_POINT('',#245);
#245 = CARTESIAN_POINT('',(-6.72298238954,-19.52495858612,96.40625));
#246 = CIRCLE('',#247,20.65);
#247 = AXIS2_PLACEMENT_3D('',#248,#249,#250);
#248 = CARTESIAN_POINT('',(0.,0.,96.40625));
#249 = DIRECTION('',(0.,0.,1.));
#250 = DIRECTION('',(1.,0.,0.));
#251 = ORIENTED_EDGE('',*,*,#252,.F.);
#252 = EDGE_CURVE('',#253,#244,#255,.T.);
#253 = VERTEX_POINT('',#254);
#254 = CARTESIAN_POINT('',(-6.72298238954,-19.52495858612,93.90625));
#255 = LINE('',#256,#257);
#256 = CARTESIAN_POINT('',(-6.72298238954,-19.52495858612,88.90625));
#257 = VECTOR('',#258,1.);
#258 = DIRECTION('',(0.,0.,1.));
#259 = ORIENTED_EDGE('',*,*,#260,.F.);
#260 = EDGE_CURVE('',#234,#253,#261,.T.);
#261 = CIRCLE('',#262,20.65);
#262 = AXIS2_PLACEMENT_3D('',#263,#264,#265);
#263 = CARTESIAN_POINT('',(0.,0.,93.90625));
#264 = DIRECTION('',(0.,0.,1.));
#265 = DIRECTION('',(1.,0.,0.));
#266 = FACE_BOUND('',#267,.T.);
#267 = EDGE_LOOP('',(#268));
#268 = ORIENTED_EDGE('',*,*,#269,.T.);
#269 = EDGE_CURVE('',#270,#270,#272,.T.);
#270 = VERTEX_POINT('',#271);
#271 = CARTESIAN_POINT('',(-20.36503355083,-3.41875832335,96.90625));
#272 = B_SPLINE_CURVE_WITH_KNOTS('',7,(#273,#274,#275,#276,#277,#278,
    #279,#280,#281,#282,#283,#284,#285,#286,#287,#288,#289,#290,#291,
    #292,#293,#294,#295,#296,#297,#298,#299,#300,#301,#302,#303,#304,
    #305,#306,#307,#308,#309,#310,#311,#312,#313,#314,#315,#316),
  .UNSPECIFIED.,.T.,.F.,(8,6,6,6,6,6,6,8),(0.,0.151246853874,
    0.287079470995,0.424389251135,0.587287301455,0.713795235866,
    0.839626185364,1.),.UNSPECIFIED.);
#273 = CARTESIAN_POINT('',(-20.36503355083,-3.41875832335,96.90625));
#274 = CARTESIAN_POINT('',(-20.36503355083,-3.41875832335,97.05646492693
    ));
#275 = CARTESIAN_POINT('',(-20.36154049991,-3.439565589231,
    97.206757157598));
#276 = CARTESIAN_POINT('',(-20.3545477265,-3.481222141272,
    97.354977208895));
#277 = CARTESIAN_POINT('',(-20.34384602486,-3.544146043299,
    97.498753668499));
#278 = CARTESIAN_POINT('',(-20.32906708655,-3.628899272658,
    97.635173001276));
#279 = CARTESIAN_POINT('',(-20.30965733274,-3.735997566585,
    97.760477353158));
#280 = CARTESIAN_POINT('',(-20.26284585734,-3.981655262336,
    97.967205825246));
#281 = CARTESIAN_POINT('',(-20.23588551313,-4.118910327369,
    98.05433815461));
#282 = CARTESIAN_POINT('',(-20.2041463432,-4.274259284229,
    98.121846636281));
#283 = CARTESIAN_POINT('',(-20.16814600258,-4.442025988704,
    98.163582230022));
#284 = CARTESIAN_POINT('',(-20.12898680357,-4.615043132263,
    98.176297620585));
#285 = CARTESIAN_POINT('',(-20.08846754516,-4.785786518688,
    98.159769245749));
#286 = CARTESIAN_POINT('',(-20.00816421749,-5.111189007939,
    98.073723317881));
#287 = CARTESIAN_POINT('',(-19.96954350295,-5.260992363296,
    98.00486382574));
#288 = CARTESIAN_POINT('',(-19.93386432498,-5.394155876858,
    97.915415956852));
#289 = CARTESIAN_POINT('',(-19.90212220956,-5.509100623856,
    97.809906634907));
#290 = CARTESIAN_POINT('',(-19.87504036446,-5.605038199419,
    97.692597695628));
#291 = CARTESIAN_POINT('',(-19.85301759203,-5.681891519472,
    97.567523533021));
#292 = CARTESIAN_POINT('',(-19.81605491736,-5.809619029353,
    97.285375779744));
#293 = CARTESIAN_POINT('',(-19.80261070192,-5.855018622553,
    97.122185849442));
#294 = CARTESIAN_POINT('',(-19.7964563069,-5.875478722578,
    96.953259868932));
#295 = CARTESIAN_POINT('',(-19.79791993834,-5.870604412414,
    96.782866670018));
#296 = CARTESIAN_POINT('',(-19.80694961865,-5.840455837326,
    96.615140194583));
#297 = CARTESIAN_POINT('',(-19.8231791204,-5.785403555072,
    96.454116925153));
#298 = CARTESIAN_POINT('',(-19.86373434642,-5.644348850737,
    96.187520868767));
#299 = CARTESIAN_POINT('',(-19.88580076273,-5.566758236453,
    96.075235231811));
#300 = CARTESIAN_POINT('',(-19.91209706567,-5.472834739053,
    95.970451284994));
#301 = CARTESIAN_POINT('',(-19.94224035093,-5.362800195222,
    95.876541903074));
#302 = CARTESIAN_POINT('',(-19.97559965408,-5.237466731026,
    95.79698153146));
#303 = CARTESIAN_POINT('',(-20.01134989355,-5.098280116752,
    95.735363194034));
#304 = CARTESIAN_POINT('',(-20.08551717317,-4.79774191854,
    95.655892111363));
#305 = CARTESIAN_POINT('',(-20.12311710987,-4.639760892709,
    95.638665650109));
#306 = CARTESIAN_POINT('',(-20.15972586648,-4.479133417689,
    95.646532826286));
#307 = CARTESIAN_POINT('',(-20.19382841824,-4.322073482932,
    95.679611553735));
#308 = CARTESIAN_POINT('',(-20.22441460549,-4.174607340066,
    95.735566877108));
#309 = CARTESIAN_POINT('',(-20.25094641448,-4.041715776361,
    95.809692341193));
#310 = CARTESIAN_POINT('',(-20.30174568743,-3.779422442488,
    96.003677832252));
#311 = CARTESIAN_POINT('',(-20.32405866209,-3.657553219238,
    96.133051139548));
#312 = CARTESIAN_POINT('',(-20.34095371706,-3.561137835578,
    96.27625768927));
#313 = CARTESIAN_POINT('',(-20.35313629431,-3.489631009221,
    96.42851807632));
#314 = CARTESIAN_POINT('',(-20.36107221678,-3.442354799886,
    96.586168742086));
#315 = CARTESIAN_POINT('',(-20.36503355083,-3.41875832335,
    96.746282812343));
#316 = CARTESIAN_POINT('',(-20.36503355083,-3.41875832335,96.90625));
#317 = CYLINDRICAL_SURFACE('',#318,20.65);
#318 = AXIS2_PLACEMENT_3D('',#319,#320,#321);
#319 = CARTESIAN_POINT('',(0.,0.,88.90625));
#320 = DIRECTION('',(0.,0.,1.));
#321 = DIRECTION('',(1.,0.,0.));
#322 = ADVANCED_FACE('',(#323,#326,#337,#348,#359),#370,.T.);
#323 = FACE_BOUND('',#324,.T.);
#324 = EDGE_LOOP('',(#325));
#325 = ORIENTED_EDGE('',*,*,#94,.T.);
#326 = FACE_BOUND('',#327,.T.);
#327 = EDGE_LOOP('',(#328));
#328 = ORIENTED_EDGE('',*,*,#329,.F.);
#329 = EDGE_CURVE('',#330,#330,#332,.T.);
#330 = VERTEX_POINT('',#331);
#331 = CARTESIAN_POINT('',(-10.06813787033,-6.65,106.90625));
#332 = CIRCLE('',#333,1.45);
#333 = AXIS2_PLACEMENT_3D('',#334,#335,#336);
#334 = CARTESIAN_POINT('',(-11.51813787033,-6.65,106.90625));
#335 = DIRECTION('',(0.,0.,1.));
#336 = DIRECTION('',(1.,0.,0.));
#337 = FACE_BOUND('',#338,.T.);
#338 = EDGE_LOOP('',(#339));
#339 = ORIENTED_EDGE('',*,*,#340,.F.);
#340 = EDGE_CURVE('',#341,#341,#343,.T.);
#341 = VERTEX_POINT('',#342);
#342 = CARTESIAN_POINT('',(12.968137870333,-6.65,106.90625));
#343 = CIRCLE('',#344,1.45);
#344 = AXIS2_PLACEMENT_3D('',#345,#346,#347);
#345 = CARTESIAN_POINT('',(11.518137870333,-6.65,106.90625));
#346 = DIRECTION('',(0.,0.,1.));
#347 = DIRECTION('',(1.,0.,0.));
#348 = FACE_BOUND('',#349,.T.);
#349 = EDGE_LOOP('',(#350));
#350 = ORIENTED_EDGE('',*,*,#351,.F.);
#351 = EDGE_CURVE('',#352,#352,#354,.T.);
#352 = VERTEX_POINT('',#353);
#353 = CARTESIAN_POINT('',(6.,-1.E-15,106.90625));
#354 = CIRCLE('',#355,6.);
#355 = AXIS2_PLACEMENT_3D('',#356,#357,#358);
#356 = CARTESIAN_POINT('',(0.,0.,106.90625));
#357 = DIRECTION('',(0.,0.,1.));
#358 = DIRECTION('',(1.,0.,0.));
#359 = FACE_BOUND('',#360,.T.);
#360 = EDGE_LOOP('',(#361));
#361 = ORIENTED_EDGE('',*,*,#362,.F.);
#362 = EDGE_CURVE('',#363,#363,#365,.T.);
#363 = VERTEX_POINT('',#364);
#364 = CARTESIAN_POINT('',(1.45,13.3,106.90625));
#365 = CIRCLE('',#366,1.45);
#366 = AXIS2_PLACEMENT_3D('',#367,#368,#369);
#367 = CARTESIAN_POINT('',(8.1E-16,13.3,106.90625));
#368 = DIRECTION('',(0.,0.,1.));
#369 = DIRECTION('',(1.,0.,0.));
#370 = PLANE('',#371);
#371 = AXIS2_PLACEMENT_3D('',#372,#373,#374);
#372 = CARTESIAN_POINT('',(0.,0.,106.90625));
#373 = DIRECTION('',(0.,0.,1.));
#374 = DIRECTION('',(1.,0.,0.));
#375 = ADVANCED_FACE('',(#376),#403,.T.);
#376 = FACE_BOUND('',#377,.T.);
#377 = EDGE_LOOP('',(#378,#389,#395,#396,#397));
#378 = ORIENTED_EDGE('',*,*,#379,.T.);
#379 = EDGE_CURVE('',#380,#382,#384,.T.);
#380 = VERTEX_POINT('',#381);
#381 = CARTESIAN_POINT('',(22.724669296813,-4.417228242967,96.40625));
#382 = VERTEX_POINT('',#383);
#383 = CARTESIAN_POINT('',(22.724669296813,4.417228242967,96.40625));
#384 = CIRCLE('',#385,23.15);
#385 = AXIS2_PLACEMENT_3D('',#386,#387,#388);
#386 = CARTESIAN_POINT('',(0.,0.,96.40625));
#387 = DIRECTION('',(-0.,0.,1.));
#388 = DIRECTION('',(0.981627183448,-0.190808995377,0.));
#389 = ORIENTED_EDGE('',*,*,#390,.F.);
#390 = EDGE_CURVE('',#139,#382,#391,.T.);
#391 = LINE('',#392,#393);
#392 = CARTESIAN_POINT('',(0.,0.,96.40625));
#393 = VECTOR('',#394,1.);
#394 = DIRECTION('',(0.981627183448,0.190808995377,0.));
#395 = ORIENTED_EDGE('',*,*,#138,.F.);
#396 = ORIENTED_EDGE('',*,*,#119,.F.);
#397 = ORIENTED_EDGE('',*,*,#398,.T.);
#398 = EDGE_CURVE('',#120,#380,#399,.T.);
#399 = LINE('',#400,#401);
#400 = CARTESIAN_POINT('',(0.,0.,96.40625));
#401 = VECTOR('',#402,1.);
#402 = DIRECTION('',(0.981627183448,-0.190808995377,0.));
#403 = PLANE('',#404);
#404 = AXIS2_PLACEMENT_3D('',#405,#406,#407);
#405 = CARTESIAN_POINT('',(0.,0.,96.40625));
#406 = DIRECTION('',(0.,0.,1.));
#407 = DIRECTION('',(0.981627183448,-0.190808995377,0.));
#408 = ADVANCED_FACE('',(#409),#427,.T.);
#409 = FACE_BOUND('',#410,.T.);
#410 = EDGE_LOOP('',(#411,#412,#420,#426));
#411 = ORIENTED_EDGE('',*,*,#189,.F.);
#412 = ORIENTED_EDGE('',*,*,#413,.T.);
#413 = EDGE_CURVE('',#181,#414,#416,.T.);
#414 = VERTEX_POINT('',#415);
#415 = CARTESIAN_POINT('',(22.724669296813,-4.417228242967,93.90625));
#416 = LINE('',#417,#418);
#417 = CARTESIAN_POINT('',(0.,0.,93.90625));
#418 = VECTOR('',#419,1.);
#419 = DIRECTION('',(0.981627183448,-0.190808995377,0.));
#420 = ORIENTED_EDGE('',*,*,#421,.T.);
#421 = EDGE_CURVE('',#414,#380,#422,.T.);
#422 = LINE('',#423,#424);
#423 = CARTESIAN_POINT('',(22.724669296813,-4.417228242967,93.90625));
#424 = VECTOR('',#425,1.);
#425 = DIRECTION('',(0.,0.,1.));
#426 = ORIENTED_EDGE('',*,*,#398,.F.);
#427 = PLANE('',#428);
#428 = AXIS2_PLACEMENT_3D('',#429,#430,#431);
#429 = CARTESIAN_POINT('',(0.,0.,93.90625));
#430 = DIRECTION('',(-0.190808995377,-0.981627183448,0.));
#431 = DIRECTION('',(0.981627183448,-0.190808995377,0.));
#432 = ADVANCED_FACE('',(#433),#453,.F.);
#433 = FACE_BOUND('',#434,.F.);
#434 = EDGE_LOOP('',(#435,#444,#450,#451,#452));
#435 = ORIENTED_EDGE('',*,*,#436,.T.);
#436 = EDGE_CURVE('',#414,#437,#439,.T.);
#437 = VERTEX_POINT('',#438);
#438 = CARTESIAN_POINT('',(22.724669296813,4.417228242967,93.90625));
#439 = CIRCLE('',#440,23.15);
#440 = AXIS2_PLACEMENT_3D('',#441,#442,#443);
#441 = CARTESIAN_POINT('',(0.,0.,93.90625));
#442 = DIRECTION('',(-0.,0.,1.));
#443 = DIRECTION('',(0.981627183448,-0.190808995377,0.));
#444 = ORIENTED_EDGE('',*,*,#445,.F.);
#445 = EDGE_CURVE('',#148,#437,#446,.T.);
#446 = LINE('',#447,#448);
#447 = CARTESIAN_POINT('',(0.,0.,93.90625));
#448 = VECTOR('',#449,1.);
#449 = DIRECTION('',(0.981627183448,0.190808995377,0.));
#450 = ORIENTED_EDGE('',*,*,#155,.F.);
#451 = ORIENTED_EDGE('',*,*,#180,.F.);
#452 = ORIENTED_EDGE('',*,*,#413,.T.);
#453 = PLANE('',#454);
#454 = AXIS2_PLACEMENT_3D('',#455,#456,#457);
#455 = CARTESIAN_POINT('',(0.,0.,93.90625));
#456 = DIRECTION('',(0.,0.,1.));
#457 = DIRECTION('',(0.981627183448,-0.190808995377,0.));
#458 = ADVANCED_FACE('',(#459,#462),#473,.F.);
#459 = FACE_BOUND('',#460,.F.);
#460 = EDGE_LOOP('',(#461));
#461 = ORIENTED_EDGE('',*,*,#172,.T.);
#462 = FACE_BOUND('',#463,.F.);
#463 = EDGE_LOOP('',(#464));
#464 = ORIENTED_EDGE('',*,*,#465,.F.);
#465 = EDGE_CURVE('',#466,#466,#468,.T.);
#466 = VERTEX_POINT('',#467);
#467 = CARTESIAN_POINT('',(18.15,-4.E-15,88.90625));
#468 = CIRCLE('',#469,18.15);
#469 = AXIS2_PLACEMENT_3D('',#470,#471,#472);
#470 = CARTESIAN_POINT('',(0.,0.,88.90625));
#471 = DIRECTION('',(0.,0.,1.));
#472 = DIRECTION('',(1.,0.,0.));
#473 = PLANE('',#474);
#474 = AXIS2_PLACEMENT_3D('',#475,#476,#477);
#475 = CARTESIAN_POINT('',(0.,0.,88.90625));
#476 = DIRECTION('',(0.,0.,1.));
#477 = DIRECTION('',(1.,0.,0.));
#478 = ADVANCED_FACE('',(#479),#490,.F.);
#479 = FACE_BOUND('',#480,.F.);
#480 = EDGE_LOOP('',(#481,#482,#483,#484));
#481 = ORIENTED_EDGE('',*,*,#390,.F.);
#482 = ORIENTED_EDGE('',*,*,#147,.F.);
#483 = ORIENTED_EDGE('',*,*,#445,.T.);
#484 = ORIENTED_EDGE('',*,*,#485,.T.);
#485 = EDGE_CURVE('',#437,#382,#486,.T.);
#486 = LINE('',#487,#488);
#487 = CARTESIAN_POINT('',(22.724669296813,4.417228242967,93.90625));
#488 = VECTOR('',#489,1.);
#489 = DIRECTION('',(0.,0.,1.));
#490 = PLANE('',#491);
#491 = AXIS2_PLACEMENT_3D('',#492,#493,#494);
#492 = CARTESIAN_POINT('',(0.,0.,93.90625));
#493 = DIRECTION('',(0.190808995377,-0.981627183448,0.));
#494 = DIRECTION('',(0.981627183448,0.190808995377,0.));
#495 = ADVANCED_FACE('',(#496),#521,.T.);
#496 = FACE_BOUND('',#497,.T.);
#497 = EDGE_LOOP('',(#498,#499,#507,#515));
#498 = ORIENTED_EDGE('',*,*,#197,.F.);
#499 = ORIENTED_EDGE('',*,*,#500,.T.);
#500 = EDGE_CURVE('',#198,#501,#503,.T.);
#501 = VERTEX_POINT('',#502);
#502 = CARTESIAN_POINT('',(-7.536902775683,21.888755025124,93.90625));
#503 = LINE('',#504,#505);
#504 = CARTESIAN_POINT('',(0.,0.,93.90625));
#505 = VECTOR('',#506,1.);
#506 = DIRECTION('',(-0.325568154457,0.945518575599,0.));
#507 = ORIENTED_EDGE('',*,*,#508,.T.);
#508 = EDGE_CURVE('',#501,#509,#511,.T.);
#509 = VERTEX_POINT('',#510);
#510 = CARTESIAN_POINT('',(-7.536902775683,21.888755025124,96.40625));
#511 = LINE('',#512,#513);
#512 = CARTESIAN_POINT('',(-7.536902775683,21.888755025124,93.90625));
#513 = VECTOR('',#514,1.);
#514 = DIRECTION('',(0.,0.,1.));
#515 = ORIENTED_EDGE('',*,*,#516,.F.);
#516 = EDGE_CURVE('',#200,#509,#517,.T.);
#517 = LINE('',#518,#519);
#518 = CARTESIAN_POINT('',(0.,0.,96.40625));
#519 = VECTOR('',#520,1.);
#520 = DIRECTION('',(-0.325568154457,0.945518575599,0.));
#521 = PLANE('',#522);
#522 = AXIS2_PLACEMENT_3D('',#523,#524,#525);
#523 = CARTESIAN_POINT('',(0.,0.,93.90625));
#524 = DIRECTION('',(0.945518575599,0.325568154457,0.));
#525 = DIRECTION('',(-0.325568154457,0.945518575599,0.));
#526 = ADVANCED_FACE('',(#527),#546,.F.);
#527 = FACE_BOUND('',#528,.F.);
#528 = EDGE_LOOP('',(#529,#538,#544,#545));
#529 = ORIENTED_EDGE('',*,*,#530,.T.);
#530 = EDGE_CURVE('',#501,#531,#533,.T.);
#531 = VERTEX_POINT('',#532);
#532 = CARTESIAN_POINT('',(-15.18776652113,17.471526782157,93.90625));
#533 = CIRCLE('',#534,23.15);
#534 = AXIS2_PLACEMENT_3D('',#535,#536,#537);
#535 = CARTESIAN_POINT('',(0.,0.,93.90625));
#536 = DIRECTION('',(0.,0.,1.));
#537 = DIRECTION('',(-0.325568154457,0.945518575599,0.));
#538 = ORIENTED_EDGE('',*,*,#539,.F.);
#539 = EDGE_CURVE('',#217,#531,#540,.T.);
#540 = LINE('',#541,#542);
#541 = CARTESIAN_POINT('',(0.,0.,93.90625));
#542 = VECTOR('',#543,1.);
#543 = DIRECTION('',(-0.656059028991,0.754709580223,0.));
#544 = ORIENTED_EDGE('',*,*,#224,.F.);
#545 = ORIENTED_EDGE('',*,*,#500,.T.);
#546 = PLANE('',#547);
#547 = AXIS2_PLACEMENT_3D('',#548,#549,#550);
#548 = CARTESIAN_POINT('',(0.,0.,93.90625));
#549 = DIRECTION('',(0.,0.,1.));
#550 = DIRECTION('',(-0.325568154457,0.945518575599,0.));
#551 = ADVANCED_FACE('',(#552),#571,.T.);
#552 = FACE_BOUND('',#553,.T.);
#553 = EDGE_LOOP('',(#554,#563,#569,#570));
#554 = ORIENTED_EDGE('',*,*,#555,.T.);
#555 = EDGE_CURVE('',#509,#556,#558,.T.);
#556 = VERTEX_POINT('',#557);
#557 = CARTESIAN_POINT('',(-15.18776652113,17.471526782157,96.40625));
#558 = CIRCLE('',#559,23.15);
#559 = AXIS2_PLACEMENT_3D('',#560,#561,#562);
#560 = CARTESIAN_POINT('',(0.,0.,96.40625));
#561 = DIRECTION('',(0.,0.,1.));
#562 = DIRECTION('',(-0.325568154457,0.945518575599,0.));
#563 = ORIENTED_EDGE('',*,*,#564,.F.);
#564 = EDGE_CURVE('',#208,#556,#565,.T.);
#565 = LINE('',#566,#567);
#566 = CARTESIAN_POINT('',(0.,0.,96.40625));
#567 = VECTOR('',#568,1.);
#568 = DIRECTION('',(-0.656059028991,0.754709580223,0.));
#569 = ORIENTED_EDGE('',*,*,#207,.F.);
#570 = ORIENTED_EDGE('',*,*,#516,.T.);
#571 = PLANE('',#572);
#572 = AXIS2_PLACEMENT_3D('',#573,#574,#575);
#573 = CARTESIAN_POINT('',(0.,0.,96.40625));
#574 = DIRECTION('',(0.,0.,1.));
#575 = DIRECTION('',(-0.325568154457,0.945518575599,0.));
#576 = ADVANCED_FACE('',(#577),#588,.F.);
#577 = FACE_BOUND('',#578,.F.);
#578 = EDGE_LOOP('',(#579,#580,#581,#582));
#579 = ORIENTED_EDGE('',*,*,#564,.F.);
#580 = ORIENTED_EDGE('',*,*,#216,.F.);
#581 = ORIENTED_EDGE('',*,*,#539,.T.);
#582 = ORIENTED_EDGE('',*,*,#583,.T.);
#583 = EDGE_CURVE('',#531,#556,#584,.T.);
#584 = LINE('',#585,#586);
#585 = CARTESIAN_POINT('',(-15.18776652113,17.471526782157,93.90625));
#586 = VECTOR('',#587,1.);
#587 = DIRECTION('',(0.,0.,1.));
#588 = PLANE('',#589);
#589 = AXIS2_PLACEMENT_3D('',#590,#591,#592);
#590 = CARTESIAN_POINT('',(0.,0.,93.90625));
#591 = DIRECTION('',(0.754709580223,0.656059028991,0.));
#592 = DIRECTION('',(-0.656059028991,0.754709580223,0.));
#593 = ADVANCED_FACE('',(#594),#619,.T.);
#594 = FACE_BOUND('',#595,.T.);
#595 = EDGE_LOOP('',(#596,#597,#605,#613));
#596 = ORIENTED_EDGE('',*,*,#233,.F.);
#597 = ORIENTED_EDGE('',*,*,#598,.T.);
#598 = EDGE_CURVE('',#234,#599,#601,.T.);
#599 = VERTEX_POINT('',#600);
#600 = CARTESIAN_POINT('',(-15.18776652113,-17.47152678215,93.90625));
#601 = LINE('',#602,#603);
#602 = CARTESIAN_POINT('',(0.,0.,93.90625));
#603 = VECTOR('',#604,1.);
#604 = DIRECTION('',(-0.656059028991,-0.754709580223,0.));
#605 = ORIENTED_EDGE('',*,*,#606,.T.);
#606 = EDGE_CURVE('',#599,#607,#609,.T.);
#607 = VERTEX_POINT('',#608);
#608 = CARTESIAN_POINT('',(-15.18776652113,-17.47152678215,96.40625));
#609 = LINE('',#610,#611);
#610 = CARTESIAN_POINT('',(-15.18776652113,-17.47152678215,93.90625));
#611 = VECTOR('',#612,1.);
#612 = DIRECTION('',(0.,0.,1.));
#613 = ORIENTED_EDGE('',*,*,#614,.F.);
#614 = EDGE_CURVE('',#236,#607,#615,.T.);
#615 = LINE('',#616,#617);
#616 = CARTESIAN_POINT('',(0.,0.,96.40625));
#617 = VECTOR('',#618,1.);
#618 = DIRECTION('',(-0.656059028991,-0.754709580223,0.));
#619 = PLANE('',#620);
#620 = AXIS2_PLACEMENT_3D('',#621,#622,#623);
#621 = CARTESIAN_POINT('',(0.,0.,93.90625));
#622 = DIRECTION('',(-0.754709580223,0.656059028991,0.));
#623 = DIRECTION('',(-0.656059028991,-0.754709580223,0.));
#624 = ADVANCED_FACE('',(#625),#644,.F.);
#625 = FACE_BOUND('',#626,.F.);
#626 = EDGE_LOOP('',(#627,#636,#642,#643));
#627 = ORIENTED_EDGE('',*,*,#628,.T.);
#628 = EDGE_CURVE('',#599,#629,#631,.T.);
#629 = VERTEX_POINT('',#630);
#630 = CARTESIAN_POINT('',(-7.536902775683,-21.88875502512,93.90625));
#631 = CIRCLE('',#632,23.15);
#632 = AXIS2_PLACEMENT_3D('',#633,#634,#635);
#633 = CARTESIAN_POINT('',(0.,0.,93.90625));
#634 = DIRECTION('',(0.,0.,1.));
#635 = DIRECTION('',(-0.656059028991,-0.754709580223,0.));
#636 = ORIENTED_EDGE('',*,*,#637,.F.);
#637 = EDGE_CURVE('',#253,#629,#638,.T.);
#638 = LINE('',#639,#640);
#639 = CARTESIAN_POINT('',(0.,0.,93.90625));
#640 = VECTOR('',#641,1.);
#641 = DIRECTION('',(-0.325568154457,-0.945518575599,0.));
#642 = ORIENTED_EDGE('',*,*,#260,.F.);
#643 = ORIENTED_EDGE('',*,*,#598,.T.);
#644 = PLANE('',#645);
#645 = AXIS2_PLACEMENT_3D('',#646,#647,#648);
#646 = CARTESIAN_POINT('',(0.,0.,93.90625));
#647 = DIRECTION('',(0.,0.,1.));
#648 = DIRECTION('',(-0.656059028991,-0.754709580223,0.));
#649 = ADVANCED_FACE('',(#650),#669,.T.);
#650 = FACE_BOUND('',#651,.T.);
#651 = EDGE_LOOP('',(#652,#661,#667,#668));
#652 = ORIENTED_EDGE('',*,*,#653,.T.);
#653 = EDGE_CURVE('',#607,#654,#656,.T.);
#654 = VERTEX_POINT('',#655);
#655 = CARTESIAN_POINT('',(-7.536902775683,-21.88875502512,96.40625));
#656 = CIRCLE('',#657,23.15);
#657 = AXIS2_PLACEMENT_3D('',#658,#659,#660);
#658 = CARTESIAN_POINT('',(0.,0.,96.40625));
#659 = DIRECTION('',(0.,0.,1.));
#660 = DIRECTION('',(-0.656059028991,-0.754709580223,0.));
#661 = ORIENTED_EDGE('',*,*,#662,.F.);
#662 = EDGE_CURVE('',#244,#654,#663,.T.);
#663 = LINE('',#664,#665);
#664 = CARTESIAN_POINT('',(0.,0.,96.40625));
#665 = VECTOR('',#666,1.);
#666 = DIRECTION('',(-0.325568154457,-0.945518575599,0.));
#667 = ORIENTED_EDGE('',*,*,#243,.F.);
#668 = ORIENTED_EDGE('',*,*,#614,.T.);
#669 = PLANE('',#670);
#670 = AXIS2_PLACEMENT_3D('',#671,#672,#673);
#671 = CARTESIAN_POINT('',(0.,0.,96.40625));
#672 = DIRECTION('',(0.,0.,1.));
#673 = DIRECTION('',(-0.656059028991,-0.754709580223,0.));
#674 = ADVANCED_FACE('',(#675),#686,.F.);
#675 = FACE_BOUND('',#676,.F.);
#676 = EDGE_LOOP('',(#677,#678,#679,#680));
#677 = ORIENTED_EDGE('',*,*,#662,.F.);
#678 = ORIENTED_EDGE('',*,*,#252,.F.);
#679 = ORIENTED_EDGE('',*,*,#637,.T.);
#680 = ORIENTED_EDGE('',*,*,#681,.T.);
#681 = EDGE_CURVE('',#629,#654,#682,.T.);
#682 = LINE('',#683,#684);
#683 = CARTESIAN_POINT('',(-7.536902775683,-21.88875502512,93.90625));
#684 = VECTOR('',#685,1.);
#685 = DIRECTION('',(0.,0.,1.));
#686 = PLANE('',#687);
#687 = AXIS2_PLACEMENT_3D('',#688,#689,#690);
#688 = CARTESIAN_POINT('',(0.,0.,93.90625));
#689 = DIRECTION('',(-0.945518575599,0.325568154457,0.));
#690 = DIRECTION('',(-0.325568154457,-0.945518575599,0.));
#691 = ADVANCED_FACE('',(#692),#711,.F.);
#692 = FACE_BOUND('',#693,.F.);
#693 = EDGE_LOOP('',(#694,#702,#709,#710));
#694 = ORIENTED_EDGE('',*,*,#695,.T.);
#695 = EDGE_CURVE('',#270,#696,#698,.T.);
#696 = VERTEX_POINT('',#697);
#697 = CARTESIAN_POINT('',(-16.35829488688,-2.493729815692,96.90625));
#698 = LINE('',#699,#700);
#699 = CARTESIAN_POINT('',(-28.5379206967,-5.305617994991,96.90625));
#700 = VECTOR('',#701,1.);
#701 = DIRECTION('',(0.974370064785,0.224951054344,0.));
#702 = ORIENTED_EDGE('',*,*,#703,.F.);
#703 = EDGE_CURVE('',#696,#696,#704,.T.);
#704 = CIRCLE('',#705,1.25);
#705 = AXIS2_PLACEMENT_3D('',#706,#707,#708);
#706 = CARTESIAN_POINT('',(-16.07710606895,-3.711692396674,96.90625));
#707 = DIRECTION('',(0.974370064785,0.224951054344,-0.));
#708 = DIRECTION('',(-0.224951054344,0.974370064785,0.));
#709 = ORIENTED_EDGE('',*,*,#695,.F.);
#710 = ORIENTED_EDGE('',*,*,#269,.T.);
#711 = CYLINDRICAL_SURFACE('',#712,1.25);
#712 = AXIS2_PLACEMENT_3D('',#713,#714,#715);
#713 = CARTESIAN_POINT('',(-28.25673187877,-6.523580575972,96.90625));
#714 = DIRECTION('',(0.974370064785,0.224951054344,0.));
#715 = DIRECTION('',(-0.224951054344,0.974370064785,0.));
#716 = ADVANCED_FACE('',(#717),#736,.F.);
#717 = FACE_BOUND('',#718,.F.);
#718 = EDGE_LOOP('',(#719,#720,#728,#735));
#719 = ORIENTED_EDGE('',*,*,#329,.F.);
#720 = ORIENTED_EDGE('',*,*,#721,.F.);
#721 = EDGE_CURVE('',#722,#330,#724,.T.);
#722 = VERTEX_POINT('',#723);
#723 = CARTESIAN_POINT('',(-10.06813787033,-6.65,101.90625));
#724 = LINE('',#725,#726);
#725 = CARTESIAN_POINT('',(-10.06813787033,-6.65,100.90625));
#726 = VECTOR('',#727,1.);
#727 = DIRECTION('',(0.,0.,1.));
#728 = ORIENTED_EDGE('',*,*,#729,.T.);
#729 = EDGE_CURVE('',#722,#722,#730,.T.);
#730 = CIRCLE('',#731,1.45);
#731 = AXIS2_PLACEMENT_3D('',#732,#733,#734);
#732 = CARTESIAN_POINT('',(-11.51813787033,-6.65,101.90625));
#733 = DIRECTION('',(0.,0.,1.));
#734 = DIRECTION('',(1.,0.,0.));
#735 = ORIENTED_EDGE('',*,*,#721,.T.);
#736 = CYLINDRICAL_SURFACE('',#737,1.45);
#737 = AXIS2_PLACEMENT_3D('',#738,#739,#740);
#738 = CARTESIAN_POINT('',(-11.51813787033,-6.65,100.90625));
#739 = DIRECTION('',(0.,0.,1.));
#740 = DIRECTION('',(1.,0.,0.));
#741 = ADVANCED_FACE('',(#742),#761,.F.);
#742 = FACE_BOUND('',#743,.F.);
#743 = EDGE_LOOP('',(#744,#745,#753,#760));
#744 = ORIENTED_EDGE('',*,*,#340,.F.);
#745 = ORIENTED_EDGE('',*,*,#746,.F.);
#746 = EDGE_CURVE('',#747,#341,#749,.T.);
#747 = VERTEX_POINT('',#748);
#748 = CARTESIAN_POINT('',(12.968137870333,-6.65,101.90625));
#749 = LINE('',#750,#751);
#750 = CARTESIAN_POINT('',(12.968137870333,-6.65,100.90625));
#751 = VECTOR('',#752,1.);
#752 = DIRECTION('',(0.,0.,1.));
#753 = ORIENTED_EDGE('',*,*,#754,.T.);
#754 = EDGE_CURVE('',#747,#747,#755,.T.);
#755 = CIRCLE('',#756,1.45);
#756 = AXIS2_PLACEMENT_3D('',#757,#758,#759);
#757 = CARTESIAN_POINT('',(11.518137870333,-6.65,101.90625));
#758 = DIRECTION('',(0.,0.,1.));
#759 = DIRECTION('',(1.,0.,0.));
#760 = ORIENTED_EDGE('',*,*,#746,.T.);
#761 = CYLINDRICAL_SURFACE('',#762,1.45);
#762 = AXIS2_PLACEMENT_3D('',#763,#764,#765);
#763 = CARTESIAN_POINT('',(11.518137870333,-6.65,100.90625));
#764 = DIRECTION('',(0.,0.,1.));
#765 = DIRECTION('',(1.,0.,0.));
#766 = ADVANCED_FACE('',(#767),#786,.F.);
#767 = FACE_BOUND('',#768,.F.);
#768 = EDGE_LOOP('',(#769,#770,#778,#785));
#769 = ORIENTED_EDGE('',*,*,#351,.F.);
#770 = ORIENTED_EDGE('',*,*,#771,.F.);
#771 = EDGE_CURVE('',#772,#352,#774,.T.);
#772 = VERTEX_POINT('',#773);
#773 = CARTESIAN_POINT('',(6.,-1.E-15,101.90625));
#774 = LINE('',#775,#776);
#775 = CARTESIAN_POINT('',(6.,-1.47E-15,87.90625));
#776 = VECTOR('',#777,1.);
#777 = DIRECTION('',(0.,0.,1.));
#778 = ORIENTED_EDGE('',*,*,#779,.T.);
#779 = EDGE_CURVE('',#772,#772,#780,.T.);
#780 = CIRCLE('',#781,6.);
#781 = AXIS2_PLACEMENT_3D('',#782,#783,#784);
#782 = CARTESIAN_POINT('',(0.,0.,101.90625));
#783 = DIRECTION('',(0.,0.,1.));
#784 = DIRECTION('',(1.,0.,0.));
#785 = ORIENTED_EDGE('',*,*,#771,.T.);
#786 = CYLINDRICAL_SURFACE('',#787,6.);
#787 = AXIS2_PLACEMENT_3D('',#788,#789,#790);
#788 = CARTESIAN_POINT('',(0.,0.,87.90625));
#789 = DIRECTION('',(0.,0.,1.));
#790 = DIRECTION('',(1.,0.,0.));
#791 = ADVANCED_FACE('',(#792),#811,.F.);
#792 = FACE_BOUND('',#793,.F.);
#793 = EDGE_LOOP('',(#794,#795,#803,#810));
#794 = ORIENTED_EDGE('',*,*,#362,.F.);
#795 = ORIENTED_EDGE('',*,*,#796,.F.);
#796 = EDGE_CURVE('',#797,#363,#799,.T.);
#797 = VERTEX_POINT('',#798);
#798 = CARTESIAN_POINT('',(1.45,13.3,101.90625));
#799 = LINE('',#800,#801);
#800 = CARTESIAN_POINT('',(1.45,13.3,100.90625));
#801 = VECTOR('',#802,1.);
#802 = DIRECTION('',(0.,0.,1.));
#803 = ORIENTED_EDGE('',*,*,#804,.T.);
#804 = EDGE_CURVE('',#797,#797,#805,.T.);
#805 = CIRCLE('',#806,1.45);
#806 = AXIS2_PLACEMENT_3D('',#807,#808,#809);
#807 = CARTESIAN_POINT('',(8.1E-16,13.3,101.90625));
#808 = DIRECTION('',(0.,0.,1.));
#809 = DIRECTION('',(1.,0.,0.));
#810 = ORIENTED_EDGE('',*,*,#796,.T.);
#811 = CYLINDRICAL_SURFACE('',#812,1.45);
#812 = AXIS2_PLACEMENT_3D('',#813,#814,#815);
#813 = CARTESIAN_POINT('',(8.1E-16,13.3,100.90625));
#814 = DIRECTION('',(0.,0.,1.));
#815 = DIRECTION('',(1.,0.,0.));
#816 = ADVANCED_FACE('',(#817),#823,.T.);
#817 = FACE_BOUND('',#818,.T.);
#818 = EDGE_LOOP('',(#819,#820,#821,#822));
#819 = ORIENTED_EDGE('',*,*,#379,.F.);
#820 = ORIENTED_EDGE('',*,*,#421,.F.);
#821 = ORIENTED_EDGE('',*,*,#436,.T.);
#822 = ORIENTED_EDGE('',*,*,#485,.T.);
#823 = CYLINDRICAL_SURFACE('',#824,23.15);
#824 = AXIS2_PLACEMENT_3D('',#825,#826,#827);
#825 = CARTESIAN_POINT('',(0.,0.,93.90625));
#826 = DIRECTION('',(0.,0.,1.));
#827 = DIRECTION('',(0.981627183448,-0.190808995377,0.));
#828 = ADVANCED_FACE('',(#829,#848),#913,.F.);
#829 = FACE_BOUND('',#830,.F.);
#830 = EDGE_LOOP('',(#831,#839,#846,#847));
#831 = ORIENTED_EDGE('',*,*,#832,.T.);
#832 = EDGE_CURVE('',#466,#833,#835,.T.);
#833 = VERTEX_POINT('',#834);
#834 = CARTESIAN_POINT('',(18.15,-4.E-15,101.90625));
#835 = LINE('',#836,#837);
#836 = CARTESIAN_POINT('',(18.15,-4.45E-15,87.90625));
#837 = VECTOR('',#838,1.);
#838 = DIRECTION('',(0.,0.,1.));
#839 = ORIENTED_EDGE('',*,*,#840,.F.);
#840 = EDGE_CURVE('',#833,#833,#841,.T.);
#841 = CIRCLE('',#842,18.15);
#842 = AXIS2_PLACEMENT_3D('',#843,#844,#845);
#843 = CARTESIAN_POINT('',(0.,0.,101.90625));
#844 = DIRECTION('',(0.,0.,1.));
#845 = DIRECTION('',(1.,0.,0.));
#846 = ORIENTED_EDGE('',*,*,#832,.F.);
#847 = ORIENTED_EDGE('',*,*,#465,.T.);
#848 = FACE_BOUND('',#849,.F.);
#849 = EDGE_LOOP('',(#850));
#850 = ORIENTED_EDGE('',*,*,#851,.T.);
#851 = EDGE_CURVE('',#852,#852,#854,.T.);
#852 = VERTEX_POINT('',#853);
#853 = CARTESIAN_POINT('',(-18.14021396398,-0.595934007218,96.90625));
#854 = B_SPLINE_CURVE_WITH_KNOTS('',8,(#855,#856,#857,#858,#859,#860,
    #861,#862,#863,#864,#865,#866,#867,#868,#869,#870,#871,#872,#873,
    #874,#875,#876,#877,#878,#879,#880,#881,#882,#883,#884,#885,#886,
    #887,#888,#889,#890,#891,#892,#893,#894,#895,#896,#897,#898,#899,
    #900,#901,#902,#903,#904,#905,#906,#907,#908,#909,#910,#911,#912),
  .UNSPECIFIED.,.T.,.F.,(9,7,7,7,7,7,7,7,9),(0.,0.105885838309,
    0.204579643638,0.283384917071,0.370363448123,0.580287447063,
    0.755629323323,0.861176090453,1.),.UNSPECIFIED.);
#855 = CARTESIAN_POINT('',(-18.14021396398,-0.595934007218,96.90625));
#856 = CARTESIAN_POINT('',(-18.14021396398,-0.595934007218,
    97.155368493075));
#857 = CARTESIAN_POINT('',(-18.13953600792,-0.616574774032,
    97.404367312625));
#858 = CARTESIAN_POINT('',(-18.13818061783,-0.6578228977,97.652276308212
    ));
#859 = CARTESIAN_POINT('',(-18.13601215332,-0.719829312539,
    97.898082626199));
#860 = CARTESIAN_POINT('',(-18.1327575281,-0.802906685752,
    98.140665722486));
#861 = CARTESIAN_POINT('',(-18.12799477514,-0.907501687259,
    98.378714492543));
#862 = CARTESIAN_POINT('',(-18.12113146052,-1.034162140741,
    98.610626518758));
#863 = CARTESIAN_POINT('',(-18.10227725414,-1.322692631429,
    99.042953810227));
#864 = CARTESIAN_POINT('',(-18.09063564258,-1.482056841786,
    99.245142879088));
#865 = CARTESIAN_POINT('',(-18.0757908522,-1.662087290831,
    99.438891760088));
#866 = CARTESIAN_POINT('',(-18.05694002934,-1.863128191156,
    99.621803838289));
#867 = CARTESIAN_POINT('',(-18.03313451518,-2.085318767255,
    99.79111828795));
#868 = CARTESIAN_POINT('',(-18.00328799853,-2.328513423303,
    99.943657206634));
#869 = CARTESIAN_POINT('',(-17.9662273408,-2.592168243946,
    100.07574242384));
#870 = CARTESIAN_POINT('',(-17.88456372244,-3.101171430057,100.26877287)
  );
#871 = CARTESIAN_POINT('',(-17.84290318375,-3.340012873015,
    100.33888410815));
#872 = CARTESIAN_POINT('',(-17.79568797448,-3.58835353728,
    100.38998889497));
#873 = CARTESIAN_POINT('',(-17.7430308231,-3.842439501732,
    100.41978867739));
#874 = CARTESIAN_POINT('',(-17.68541719569,-4.098315238869,
    100.42708468614));
#875 = CARTESIAN_POINT('',(-17.62373429118,-4.352010302918,
    100.41177468037));
#876 = CARTESIAN_POINT('',(-17.55921981505,-4.599717579461,
    100.3748649667));
#877 = CARTESIAN_POINT('',(-17.42060756659,-5.10091815283,
    100.25628430913));
#878 = CARTESIAN_POINT('',(-17.34680415051,-5.350196225956,
    100.17087680794));
#879 = CARTESIAN_POINT('',(-17.27309989766,-5.584442521022,
    100.06512505323));
#880 = CARTESIAN_POINT('',(-17.20066192258,-5.802708864841,
    99.941770841187));
#881 = CARTESIAN_POINT('',(-17.13057818569,-6.004383084246,
    99.803482153582));
#882 = CARTESIAN_POINT('',(-17.06380397258,-6.189142071997,
    99.652875558054));
#883 = CARTESIAN_POINT('',(-17.00112150648,-6.356928540331,
    99.492526755054));
#884 = CARTESIAN_POINT('',(-16.803107549,-6.872447565967,98.920566752991
    ));
#885 = CARTESIAN_POINT('',(-16.68810505226,-7.145075839109,
    98.467760112145));
#886 = CARTESIAN_POINT('',(-16.60371923332,-7.333965629685,
    97.988026497663));
#887 = CARTESIAN_POINT('',(-16.55231241561,-7.445708882962,
    97.493571119553));
#888 = CARTESIAN_POINT('',(-16.53460754493,-7.484181414343,
    96.993238942056));
#889 = CARTESIAN_POINT('',(-16.55058055007,-7.450464884797,
    96.49403164648));
#890 = CARTESIAN_POINT('',(-16.59975489541,-7.3425273126,96.002935567347
    ));
#891 = CARTESIAN_POINT('',(-16.7481289718,-6.996572494409,
    95.136189791605));
#892 = CARTESIAN_POINT('',(-16.83968374842,-6.778414113197,94.7435767918
    ));
#893 = CARTESIAN_POINT('',(-16.95518575512,-6.493457753686,
    94.368522987075));
#894 = CARTESIAN_POINT('',(-17.09147266842,-6.13872924503,
    94.028130786816));
#895 = CARTESIAN_POINT('',(-17.24203443255,-5.714071917744,
    93.740719437674));
#896 = CARTESIAN_POINT('',(-17.3978305524,-5.223080206996,
    93.526226833785));
#897 = CARTESIAN_POINT('',(-17.5484598162,-4.673488084187,93.40625));
#898 = CARTESIAN_POINT('',(-17.76689647343,-3.727334973339,93.40625));
#899 = CARTESIAN_POINT('',(-17.83906959511,-3.377451104914,
    93.449722661099));
#900 = CARTESIAN_POINT('',(-17.90056750519,-3.039305910847,
    93.533448380226));
#901 = CARTESIAN_POINT('',(-17.95150464101,-2.718470147249,
    93.653240074367));
#902 = CARTESIAN_POINT('',(-17.99271742297,-2.419816614205,
    93.803963143121));
#903 = CARTESIAN_POINT('',(-18.02547658496,-2.147265314171,
    93.979548786126));
#904 = CARTESIAN_POINT('',(-18.05118518513,-1.903501046153,
    94.17300979965));
#905 = CARTESIAN_POINT('',(-18.09746647728,-1.408532434334,
    94.644073137068));
#906 = CARTESIAN_POINT('',(-18.11459324177,-1.171418255401,
    94.936393135561));
#907 = CARTESIAN_POINT('',(-18.12548251712,-0.976990963802,
    95.24589074431));
#908 = CARTESIAN_POINT('',(-18.1322907638,-0.823554098617,
    95.567293478613));
#909 = CARTESIAN_POINT('',(-18.13648154116,-0.70956538948,
    95.896721385472));
#910 = CARTESIAN_POINT('',(-18.13896706919,-0.633883477638,
    96.231225074611));
#911 = CARTESIAN_POINT('',(-18.14021396398,-0.595934007218,96.568463375)
  );
#912 = CARTESIAN_POINT('',(-18.14021396398,-0.595934007218,96.90625));
#913 = CYLINDRICAL_SURFACE('',#914,18.15);
#914 = AXIS2_PLACEMENT_3D('',#915,#916,#917);
#915 = CARTESIAN_POINT('',(0.,0.,87.90625));
#916 = DIRECTION('',(0.,0.,1.));
#917 = DIRECTION('',(1.,0.,0.));
#918 = ADVANCED_FACE('',(#919),#925,.T.);
#919 = FACE_BOUND('',#920,.T.);
#920 = EDGE_LOOP('',(#921,#922,#923,#924));
#921 = ORIENTED_EDGE('',*,*,#555,.F.);
#922 = ORIENTED_EDGE('',*,*,#508,.F.);
#923 = ORIENTED_EDGE('',*,*,#530,.T.);
#924 = ORIENTED_EDGE('',*,*,#583,.T.);
#925 = CYLINDRICAL_SURFACE('',#926,23.15);
#926 = AXIS2_PLACEMENT_3D('',#927,#928,#929);
#927 = CARTESIAN_POINT('',(0.,0.,93.90625));
#928 = DIRECTION('',(0.,0.,1.));
#929 = DIRECTION('',(-0.325568154457,0.945518575599,0.));
#930 = ADVANCED_FACE('',(#931),#937,.T.);
#931 = FACE_BOUND('',#932,.T.);
#932 = EDGE_LOOP('',(#933,#934,#935,#936));
#933 = ORIENTED_EDGE('',*,*,#653,.F.);
#934 = ORIENTED_EDGE('',*,*,#606,.F.);
#935 = ORIENTED_EDGE('',*,*,#628,.T.);
#936 = ORIENTED_EDGE('',*,*,#681,.T.);
#937 = CYLINDRICAL_SURFACE('',#938,23.15);
#938 = AXIS2_PLACEMENT_3D('',#939,#940,#941);
#939 = CARTESIAN_POINT('',(0.,0.,93.90625));
#940 = DIRECTION('',(0.,0.,1.));
#941 = DIRECTION('',(-0.656059028991,-0.754709580223,0.));
#942 = ADVANCED_FACE('',(#943),#946,.F.);
#943 = FACE_BOUND('',#944,.F.);
#944 = EDGE_LOOP('',(#945));
#945 = ORIENTED_EDGE('',*,*,#703,.T.);
#946 = PLANE('',#947);
#947 = AXIS2_PLACEMENT_3D('',#948,#949,#950);
#948 = CARTESIAN_POINT('',(-16.07710606895,-3.711692396674,96.90625));
#949 = DIRECTION('',(0.974370064785,0.224951054344,0.));
#950 = DIRECTION('',(-0.224951054344,0.974370064785,0.));
#951 = ADVANCED_FACE('',(#952,#955,#958,#961,#964),#967,.F.);
#952 = FACE_BOUND('',#953,.F.);
#953 = EDGE_LOOP('',(#954));
#954 = ORIENTED_EDGE('',*,*,#840,.T.);
#955 = FACE_BOUND('',#956,.F.);
#956 = EDGE_LOOP('',(#957));
#957 = ORIENTED_EDGE('',*,*,#729,.F.);
#958 = FACE_BOUND('',#959,.F.);
#959 = EDGE_LOOP('',(#960));
#960 = ORIENTED_EDGE('',*,*,#754,.F.);
#961 = FACE_BOUND('',#962,.F.);
#962 = EDGE_LOOP('',(#963));
#963 = ORIENTED_EDGE('',*,*,#779,.F.);
#964 = FACE_BOUND('',#965,.F.);
#965 = EDGE_LOOP('',(#966));
#966 = ORIENTED_EDGE('',*,*,#804,.F.);
#967 = PLANE('',#968);
#968 = AXIS2_PLACEMENT_3D('',#969,#970,#971);
#969 = CARTESIAN_POINT('',(0.,0.,101.90625));
#970 = DIRECTION('',(0.,0.,1.));
#971 = DIRECTION('',(1.,0.,0.));
#972 = ADVANCED_FACE('',(#973),#992,.T.);
#973 = FACE_BOUND('',#974,.T.);
#974 = EDGE_LOOP('',(#975,#983,#990,#991));
#975 = ORIENTED_EDGE('',*,*,#976,.T.);
#976 = EDGE_CURVE('',#852,#977,#979,.T.);
#977 = VERTEX_POINT('',#978);
#978 = CARTESIAN_POINT('',(-15.25672415226,6.977206974193E-02,96.90625)
  );
#979 = LINE('',#980,#981);
#980 = CARTESIAN_POINT('',(-20.12857447619,-1.054983201977,96.90625));
#981 = VECTOR('',#982,1.);
#982 = DIRECTION('',(0.974370064785,0.224951054344,0.));
#983 = ORIENTED_EDGE('',*,*,#984,.F.);
#984 = EDGE_CURVE('',#977,#977,#985,.T.);
#985 = CIRCLE('',#986,3.5);
#986 = AXIS2_PLACEMENT_3D('',#987,#988,#989);
#987 = CARTESIAN_POINT('',(-14.46939546206,-3.340523157006,96.90625));
#988 = DIRECTION('',(0.974370064785,0.224951054344,-0.));
#989 = DIRECTION('',(-0.224951054344,0.974370064785,0.));
#990 = ORIENTED_EDGE('',*,*,#976,.F.);
#991 = ORIENTED_EDGE('',*,*,#851,.T.);
#992 = CYLINDRICAL_SURFACE('',#993,3.5);
#993 = AXIS2_PLACEMENT_3D('',#994,#995,#996);
#994 = CARTESIAN_POINT('',(-19.34124578598,-4.465278428726,96.90625));
#995 = DIRECTION('',(0.974370064785,0.224951054344,0.));
#996 = DIRECTION('',(-0.224951054344,0.974370064785,0.));
#997 = ADVANCED_FACE('',(#998),#1001,.T.);
#998 = FACE_BOUND('',#999,.T.);
#999 = EDGE_LOOP('',(#1000));
#1000 = ORIENTED_EDGE('',*,*,#984,.T.);
#1001 = PLANE('',#1002);
#1002 = AXIS2_PLACEMENT_3D('',#1003,#1004,#1005);
#1003 = CARTESIAN_POINT('',(-14.46939546206,-3.340523157006,96.90625));
#1004 = DIRECTION('',(0.974370064785,0.224951054344,0.));
#1005 = DIRECTION('',(-0.224951054344,0.974370064785,0.));
#1006 = ( GEOMETRIC_REPRESENTATION_CONTEXT(3) 
GLOBAL_UNCERTAINTY_ASSIGNED_CONTEXT((#1010)) 
GLOBAL_UNIT_ASSIGNED_CONTEXT((#1007,#1008,#1009)) REPRESENTATION_CONTEXT
('Context #1','3D Context with UNIT and UNCERTAINTY') );
#1007 = ( LENGTH_UNIT() NAMED_UNIT(*) SI_UNIT(.MILLI.,.METRE.) );
#1008 = ( NAMED_UNIT(*) PLANE_ANGLE_UNIT() SI_UNIT($,.RADIAN.) );
#1009 = ( NAMED_UNIT(*) SI_UNIT($,.STERADIAN.) SOLID_ANGLE_UNIT() );
#1010 = UNCERTAINTY_MEASURE_WITH_UNIT(LENGTH_MEASURE(1.E-07),#1007,
  'distance_accuracy_value','confusion accuracy');
#1011 = PRODUCT_RELATED_PRODUCT_CATEGORY('part',$,(#7));
ENDSEC;
END-ISO-10303-21;
