ISO-10303-21;
HEADER;
FILE_DESCRIPTION(('FreeCAD Model'),'2;1');
FILE_NAME('Open CASCADE Shape Model','2026-09-22T17:20:31',('FreeCAD'),(
    'FreeCAD'),'Open CASCADE STEP processor 7.8','FreeCAD','Unknown');
FILE_SCHEMA(('AUTOMOTIVE_DESIGN { 1 0 10303 214 1 1 1 1 }'));
ENDSEC;
DATA;
#1 = APPLICATION_PROTOCOL_DEFINITION('international standard',
  'automotive_design',2000,#2);
#2 = APPLICATION_CONTEXT(
  'core data for automotive mechanical design processes');
#3 = SHAPE_DEFINITION_REPRESENTATION(#4,#10);
#4 = PRODUCT_DEFINITION_SHAPE('','',#5);
#5 = PRODUCT_DEFINITION('design','',#6,#9);
#6 = PRODUCT_DEFINITION_FORMATION('','',#7);
#7 = PRODUCT('Open CASCADE STEP translator 7.8 5',
  'Open CASCADE STEP translator 7.8 5','',(#8));
#8 = PRODUCT_CONTEXT('',#2,'mechanical');
#9 = PRODUCT_DEFINITION_CONTEXT('part definition',#2,'design');
#10 = ADVANCED_BREP_SHAPE_REPRESENTATION('',(#11,#15),#1008);
#11 = AXIS2_PLACEMENT_3D('',#12,#13,#14);
#12 = CARTESIAN_POINT('',(0.,0.,0.));
#13 = DIRECTION('',(0.,0.,1.));
#14 = DIRECTION('',(1.,0.,-0.));
#15 = MANIFOLD_SOLID_BREP('',#16);
#16 = CLOSED_SHELL('',(#17,#402,#434,#458,#482,#500,#565,#636,#701,#733,
    #780,#827,#845,#910,#975));
#17 = ADVANCED_FACE('',(#18,#54,#105,#162,#213,#295,#346),#397,.T.);
#18 = FACE_BOUND('',#19,.T.);
#19 = EDGE_LOOP('',(#20,#31,#39,#48));
#20 = ORIENTED_EDGE('',*,*,#21,.F.);
#21 = EDGE_CURVE('',#22,#24,#26,.T.);
#22 = VERTEX_POINT('',#23);
#23 = CARTESIAN_POINT('',(14.452750229583,22.806095913183,82.7));
#24 = VERTEX_POINT('',#25);
#25 = CARTESIAN_POINT('',(-14.45275022958,22.806095913183,82.7));
#26 = CIRCLE('',#27,27.);
#27 = AXIS2_PLACEMENT_3D('',#28,#29,#30);
#28 = CARTESIAN_POINT('',(0.,0.,82.7));
#29 = DIRECTION('',(0.,-0.,1.));
#30 = DIRECTION('',(0.53528704554,0.844670219007,0.));
#31 = ORIENTED_EDGE('',*,*,#32,.F.);
#32 = EDGE_CURVE('',#33,#22,#35,.T.);
#33 = VERTEX_POINT('',#34);
#34 = CARTESIAN_POINT('',(14.452750229583,22.806095913183,25.3));
#35 = LINE('',#36,#37);
#36 = CARTESIAN_POINT('',(14.452750229583,22.806095913183,25.3));
#37 = VECTOR('',#38,1.);
#38 = DIRECTION('',(0.,0.,1.));
#39 = ORIENTED_EDGE('',*,*,#40,.T.);
#40 = EDGE_CURVE('',#33,#41,#43,.T.);
#41 = VERTEX_POINT('',#42);
#42 = CARTESIAN_POINT('',(-14.45275022958,22.806095913183,25.3));
#43 = CIRCLE('',#44,27.);
#44 = AXIS2_PLACEMENT_3D('',#45,#46,#47);
#45 = CARTESIAN_POINT('',(0.,0.,25.3));
#46 = DIRECTION('',(0.,-0.,1.));
#47 = DIRECTION('',(0.53528704554,0.844670219007,0.));
#48 = ORIENTED_EDGE('',*,*,#49,.T.);
#49 = EDGE_CURVE('',#41,#24,#50,.T.);
#50 = LINE('',#51,#52);
#51 = CARTESIAN_POINT('',(-14.45275022958,22.806095913183,25.3));
#52 = VECTOR('',#53,1.);
#53 = DIRECTION('',(0.,0.,1.));
#54 = FACE_BOUND('',#55,.T.);
#55 = EDGE_LOOP('',(#56));
#56 = ORIENTED_EDGE('',*,*,#57,.T.);
#57 = EDGE_CURVE('',#58,#58,#60,.T.);
#58 = VERTEX_POINT('',#59);
#59 = CARTESIAN_POINT('',(-1.65,26.949536174116,30.));
#60 = B_SPLINE_CURVE_WITH_KNOTS('',7,(#61,#62,#63,#64,#65,#66,#67,#68,
    #69,#70,#71,#72,#73,#74,#75,#76,#77,#78,#79,#80,#81,#82,#83,#84,#85,
    #86,#87,#88,#89,#90,#91,#92,#93,#94,#95,#96,#97,#98,#99,#100,#101,
    #102,#103,#104),.UNSPECIFIED.,.T.,.F.,(8,6,6,6,6,6,6,8),(0.,
    0.152561815552,0.28575061502,0.422005155321,0.58849112772,
    0.714359159999,0.837999588932,1.),.UNSPECIFIED.);
#61 = CARTESIAN_POINT('',(-1.65,26.949536174116,30.));
#62 = CARTESIAN_POINT('',(-1.65,26.949536174116,29.802706157232));
#63 = CARTESIAN_POINT('',(-1.622478512177,26.951221107665,
    29.605489405982));
#64 = CARTESIAN_POINT('',(-1.567466129557,26.95458970906,29.41078044056)
  );
#65 = CARTESIAN_POINT('',(-1.484171866754,26.959510583415,29.22133593073
    ));
#66 = CARTESIAN_POINT('',(-1.371323151564,26.965712047345,
    29.040753240118));
#67 = CARTESIAN_POINT('',(-1.227471125479,26.972657259192,
    28.874022651745));
#68 = CARTESIAN_POINT('',(-0.898341987696,26.985487791178,
    28.601743349455));
#69 = CARTESIAN_POINT('',(-0.715372494911,26.991600709588,
    28.486752469214));
#70 = CARTESIAN_POINT('',(-0.50651288373,26.997001382517,28.39671642996)
  );
#71 = CARTESIAN_POINT('',(-0.279303701234,27.000617995225,
    28.340611725683));
#72 = CARTESIAN_POINT('',(-4.379940302848E-02,27.001671485348,
    28.323258548737));
#73 = CARTESIAN_POINT('',(0.189285162453,27.000241608398,28.345080981544
    ));
#74 = CARTESIAN_POINT('',(0.636479668367,26.993444488589,28.459901015259
    ));
#75 = CARTESIAN_POINT('',(0.842263873655,26.988106095929,28.552529986792
    ));
#76 = CARTESIAN_POINT('',(1.024029915315,26.981637851137,28.6719685063)
  );
#77 = CARTESIAN_POINT('',(1.180105441988,26.974896447246,28.811673909645
    ));
#78 = CARTESIAN_POINT('',(1.309930041828,26.968556215676,28.965848424282
    ));
#79 = CARTESIAN_POINT('',(1.413837568739,26.963073705057,29.129310590354
    ));
#80 = CARTESIAN_POINT('',(1.589647997003,26.953337373808,29.502926768385
    ));
#81 = CARTESIAN_POINT('',(1.650698319969,26.94955067008,29.718292101186)
  );
#82 = CARTESIAN_POINT('',(1.677808596072,26.947775697087,29.938731634816
    ));
#83 = CARTESIAN_POINT('',(1.671442163182,26.948186278132,30.160775021465
    ));
#84 = CARTESIAN_POINT('',(1.63123015917,26.950788566119,30.380664471374)
  );
#85 = CARTESIAN_POINT('',(1.556340628708,26.955334068154,30.594013758531
    ));
#86 = CARTESIAN_POINT('',(1.362414383513,26.965734144465,30.946764289012
    ));
#87 = CARTESIAN_POINT('',(1.257444715001,26.971061024112,31.093620584896
    ));
#88 = CARTESIAN_POINT('',(1.130214016546,26.976999493622,31.231432697733
    ));
#89 = CARTESIAN_POINT('',(0.980672354563,26.983146768779,31.355806606178
    ));
#90 = CARTESIAN_POINT('',(0.809534300927,26.988942735576,31.461978078229
    ));
#91 = CARTESIAN_POINT('',(0.618410901121,26.993719124288,31.544738255655
    ));
#92 = CARTESIAN_POINT('',(0.205948180147,26.999988339348,31.65064068268)
  );
#93 = CARTESIAN_POINT('',(-9.53080017046E-03,27.00145728035,
    31.67345933927));
#94 = CARTESIAN_POINT('',(-0.228164677096,27.000819863462,31.66271813196
    ));
#95 = CARTESIAN_POINT('',(-0.441045609719,26.997966341314,
    31.618297749311));
#96 = CARTESIAN_POINT('',(-0.63964105417,26.993435474465,31.543677051208
    ));
#97 = CARTESIAN_POINT('',(-0.81721169731,26.988062032471,31.445773110395
    ));
#98 = CARTESIAN_POINT('',(-1.169834989594,26.975387550472,
    31.189577292186));
#99 = CARTESIAN_POINT('',(-1.333676281169,26.967766724592,
    31.017132429746));
#100 = CARTESIAN_POINT('',(-1.461977636484,26.960818249758,
    30.827432839461));
#101 = CARTESIAN_POINT('',(-1.556510088361,26.955260945058,
    30.626812863032));
#102 = CARTESIAN_POINT('',(-1.618825635318,26.951444643795,
    30.419891599701));
#103 = CARTESIAN_POINT('',(-1.65,26.949536174116,30.20997329772));
#104 = CARTESIAN_POINT('',(-1.65,26.949536174116,30.));
#105 = FACE_BOUND('',#106,.T.);
#106 = EDGE_LOOP('',(#107));
#107 = ORIENTED_EDGE('',*,*,#108,.T.);
#108 = EDGE_CURVE('',#109,#109,#111,.T.);
#109 = VERTEX_POINT('',#110);
#110 = CARTESIAN_POINT('',(-5.2,26.494527736874,42.));
#111 = B_SPLINE_CURVE_WITH_KNOTS('',7,(#112,#113,#114,#115,#116,#117,
    #118,#119,#120,#121,#122,#123,#124,#125,#126,#127,#128,#129,#130,
    #131,#132,#133,#134,#135,#136,#137,#138,#139,#140,#141,#142,#143,
    #144,#145,#146,#147,#148,#149,#150,#151,#152,#153,#154,#155,#156,
    #157,#158,#159,#160,#161),.UNSPECIFIED.,.T.,.F.,(8,6,6,6,6,6,6,6,8),
  (0.,0.134165038187,0.250115895706,0.366066753229,0.500231789979,
    0.634396828135,0.750347685626,0.861282210239,1.),.UNSPECIFIED.);
#112 = CARTESIAN_POINT('',(-5.2,26.494527736874,42.));
#113 = CARTESIAN_POINT('',(-5.2,26.494527736874,41.461433265227));
#114 = CARTESIAN_POINT('',(-5.134923495089,26.507299917636,
    40.923755316816));
#115 = CARTESIAN_POINT('',(-5.005159280826,26.532769248182,
    40.391226690825));
#116 = CARTESIAN_POINT('',(-4.80904167457,26.570212832548,
    39.868433293498));
#117 = CARTESIAN_POINT('',(-4.543438618113,26.618195617695,
    39.361615169478));
#118 = CARTESIAN_POINT('',(-4.204020811691,26.67403553883,38.87949415742
    ));
#119 = CARTESIAN_POINT('',(-3.425350209241,26.78432187885,
    38.052299422065));
#120 = CARTESIAN_POINT('',(-2.995442978445,26.839409854357,
    37.686389873615));
#121 = CARTESIAN_POINT('',(-2.497214543666,26.894436897826,
    37.360075677145));
#122 = CARTESIAN_POINT('',(-1.936484119419,26.943609783708,
    37.092812316998));
#123 = CARTESIAN_POINT('',(-1.323615264888,26.980464763643,
    36.901429154395));
#124 = CARTESIAN_POINT('',(-0.672371772418,27.,36.8));
#125 = CARTESIAN_POINT('',(0.672371772443,27.,36.8));
#126 = CARTESIAN_POINT('',(1.323615264865,26.980464763642,
    36.901429154402));
#127 = CARTESIAN_POINT('',(1.936484119399,26.943609783712,
    37.092812316981));
#128 = CARTESIAN_POINT('',(2.497214543688,26.894436897824,
    37.360075677147));
#129 = CARTESIAN_POINT('',(2.99544297846,26.839409854354,37.686389873639
    ));
#130 = CARTESIAN_POINT('',(3.425350209225,26.784321878852,
    38.052299422047));
#131 = CARTESIAN_POINT('',(4.204020807223,26.674035539463,
    38.879494152672));
#132 = CARTESIAN_POINT('',(4.543438631675,26.618195615719,
    39.361615189192));
#133 = CARTESIAN_POINT('',(4.809041655893,26.570212835331,
    39.868433256523));
#134 = CARTESIAN_POINT('',(5.005159294024,26.532769246181,
    40.391226728866));
#135 = CARTESIAN_POINT('',(5.134923491029,26.507299918258,
    40.923755295236));
#136 = CARTESIAN_POINT('',(5.2,26.494527736874,41.461433270869));
#137 = CARTESIAN_POINT('',(5.2,26.494527736874,42.538566734772));
#138 = CARTESIAN_POINT('',(5.134923495089,26.507299917636,
    43.076244683186));
#139 = CARTESIAN_POINT('',(5.005159280827,26.532769248182,
    43.608773309173));
#140 = CARTESIAN_POINT('',(4.809041674569,26.570212832548,
    44.131566706502));
#141 = CARTESIAN_POINT('',(4.543438618113,26.618195617695,
    44.638384830523));
#142 = CARTESIAN_POINT('',(4.204020811692,26.67403553883,45.12050584258)
  );
#143 = CARTESIAN_POINT('',(3.425350209242,26.784321878849,
    45.947700577934));
#144 = CARTESIAN_POINT('',(2.995442978443,26.839409854357,
    46.313610126388));
#145 = CARTESIAN_POINT('',(2.497214543667,26.894436897825,
    46.639924322852));
#146 = CARTESIAN_POINT('',(1.93648411942,26.943609783709,46.907187683003
    ));
#147 = CARTESIAN_POINT('',(1.323615264888,26.980464763643,
    47.098570845605));
#148 = CARTESIAN_POINT('',(0.672371772418,27.,47.2));
#149 = CARTESIAN_POINT('',(-0.643283236967,27.,47.2));
#150 = CARTESIAN_POINT('',(-1.268358765459,26.982118574062,
    47.107157134599));
#151 = CARTESIAN_POINT('',(-1.85954475052,26.948182249901,
    46.930933051533));
#152 = CARTESIAN_POINT('',(-2.403922929554,26.902459377023,
    46.683515609352));
#153 = CARTESIAN_POINT('',(-2.891508611931,26.850647997754,
    46.37986534476));
#154 = CARTESIAN_POINT('',(-3.316309714161,26.798033749811,
    46.037600810179));
#155 = CARTESIAN_POINT('',(-4.127923556141,26.686465905476,45.2259869682
    ));
#156 = CARTESIAN_POINT('',(-4.493898453161,26.627119086728,
    44.730955863029));
#157 = CARTESIAN_POINT('',(-4.779802791809,26.575788183088,
    44.208018083864));
#158 = CARTESIAN_POINT('',(-4.990639109172,26.535619507946,
    43.667226936798));
#159 = CARTESIAN_POINT('',(-5.130051615182,26.508255997575,
    43.115657528265));
#160 = CARTESIAN_POINT('',(-5.2,26.494527736874,42.558362098146));
#161 = CARTESIAN_POINT('',(-5.2,26.494527736874,42.));
#162 = FACE_BOUND('',#163,.T.);
#163 = EDGE_LOOP('',(#164));
#164 = ORIENTED_EDGE('',*,*,#165,.T.);
#165 = EDGE_CURVE('',#166,#166,#168,.T.);
#166 = VERTEX_POINT('',#167);
#167 = CARTESIAN_POINT('',(2.9,26.843807479566,56.));
#168 = B_SPLINE_CURVE_WITH_KNOTS('',7,(#169,#170,#171,#172,#173,#174,
    #175,#176,#177,#178,#179,#180,#181,#182,#183,#184,#185,#186,#187,
    #188,#189,#190,#191,#192,#193,#194,#195,#196,#197,#198,#199,#200,
    #201,#202,#203,#204,#205,#206,#207,#208,#209,#210,#211,#212),
  .UNSPECIFIED.,.T.,.F.,(8,6,6,6,6,6,6,8),(0.,0.151491533769,
    0.286158050477,0.423734333261,0.587655028385,0.714517722148,
    0.839354444289,1.),.UNSPECIFIED.);
#169 = CARTESIAN_POINT('',(2.9,26.843807479566,56.));
#170 = CARTESIAN_POINT('',(2.9,26.843807479566,55.808405994947));
#171 = CARTESIAN_POINT('',(2.926765439289,26.840915876028,
    55.616760304916));
#172 = CARTESIAN_POINT('',(2.98032943508,26.835129594236,55.427580997938
    ));
#173 = CARTESIAN_POINT('',(3.061403771137,26.826199905143,55.2437022525)
  );
#174 = CARTESIAN_POINT('',(3.171065447372,26.813673096402,
    55.068735593587));
#175 = CARTESIAN_POINT('',(3.310456428015,26.796830984929,54.90753806212
    ));
#176 = CARTESIAN_POINT('',(3.63094337758,26.755174858105,54.642408199694
    ));
#177 = CARTESIAN_POINT('',(3.809930593764,26.730902073648,
    54.530594776224));
#178 = CARTESIAN_POINT('',(4.013321186293,26.701772085378,
    54.443826332711));
#179 = CARTESIAN_POINT('',(4.2336420244,26.668017841173,54.390318460144)
  );
#180 = CARTESIAN_POINT('',(4.461168475948,26.630548716485,
    54.374291544164));
#181 = CARTESIAN_POINT('',(4.685628934895,26.591191688102,
    54.395764015435));
#182 = CARTESIAN_POINT('',(5.114765369472,26.5120313142,54.505947524478)
  );
#183 = CARTESIAN_POINT('',(5.313140890353,26.473301353776,
    54.594619240771));
#184 = CARTESIAN_POINT('',(5.489314656075,26.437172525093,
    54.709447272797));
#185 = CARTESIAN_POINT('',(5.641329802453,26.404792067774,
    54.844473572113));
#186 = CARTESIAN_POINT('',(5.768279785309,26.376997644083,
    54.994275817449));
#187 = CARTESIAN_POINT('',(5.870140191313,26.354274420886,
    55.153880669243));
#188 = CARTESIAN_POINT('',(6.040162723483,26.315877624131,
    55.515196941979));
#189 = CARTESIAN_POINT('',(6.100449607411,26.301864995227,
    55.724033441667));
#190 = CARTESIAN_POINT('',(6.127614619474,26.295431338366,
    55.939894316206));
#191 = CARTESIAN_POINT('',(6.121183680227,26.296950005462,56.15765666915
    ));
#192 = CARTESIAN_POINT('',(6.081124345194,26.306391568278,
    56.372241427521));
#193 = CARTESIAN_POINT('',(6.007821338221,26.323332287585,
    56.578482539908));
#194 = CARTESIAN_POINT('',(5.820262856134,26.365347941732,
    56.919650152294));
#195 = CARTESIAN_POINT('',(5.717480121545,26.388061282972,
    57.062944491931));
#196 = CARTESIAN_POINT('',(5.593227779464,26.414986698442,
    57.196781391113));
#197 = CARTESIAN_POINT('',(5.447723698707,26.445668811201,
    57.316986079838));
#198 = CARTESIAN_POINT('',(5.281925095297,26.479383895537,
    57.419123346752));
#199 = CARTESIAN_POINT('',(5.097630388257,26.51519210739,57.498451990934
    ));
#200 = CARTESIAN_POINT('',(4.701366843674,26.588288604973,
    57.600195176387));
#201 = CARTESIAN_POINT('',(4.493741358225,26.624832732127,
    57.622508665192));
#202 = CARTESIAN_POINT('',(4.282526109722,26.659940339823,
    57.612690017605));
#203 = CARTESIAN_POINT('',(4.076225287044,26.692060579292,
    57.570346751875));
#204 = CARTESIAN_POINT('',(3.883004766296,26.720318839476,
    57.498480333847));
#205 = CARTESIAN_POINT('',(3.70947678377,26.744394918826,57.403360028033
    ));
#206 = CARTESIAN_POINT('',(3.366602770891,26.789995714761,
    57.154247475928));
#207 = CARTESIAN_POINT('',(3.207877228734,26.809453930785,
    56.987664323186));
#208 = CARTESIAN_POINT('',(3.083143996179,26.823802229715,
    56.803921201429));
#209 = CARTESIAN_POINT('',(2.991056343579,26.833971111386,
    56.609164066204));
#210 = CARTESIAN_POINT('',(2.930328181766,26.840530890749,
    56.408024339436));
#211 = CARTESIAN_POINT('',(2.9,26.843807479566,56.203942144236));
#212 = CARTESIAN_POINT('',(2.9,26.843807479566,56.));
#213 = FACE_BOUND('',#214,.T.);
#214 = EDGE_LOOP('',(#215,#226,#257,#266));
#215 = ORIENTED_EDGE('',*,*,#216,.F.);
#216 = EDGE_CURVE('',#217,#219,#221,.T.);
#217 = VERTEX_POINT('',#218);
#218 = CARTESIAN_POINT('',(2.8,26.854422354614,64.));
#219 = VERTEX_POINT('',#220);
#220 = CARTESIAN_POINT('',(-2.8,26.854422354614,64.));
#221 = CIRCLE('',#222,27.);
#222 = AXIS2_PLACEMENT_3D('',#223,#224,#225);
#223 = CARTESIAN_POINT('',(0.,0.,64.));
#224 = DIRECTION('',(0.,-0.,1.));
#225 = DIRECTION('',(0.53528704554,0.844670219007,0.));
#226 = ORIENTED_EDGE('',*,*,#227,.F.);
#227 = EDGE_CURVE('',#228,#217,#230,.T.);
#228 = VERTEX_POINT('',#229);
#229 = CARTESIAN_POINT('',(2.8,26.854422354614,68.));
#230 = B_SPLINE_CURVE_WITH_KNOTS('',7,(#231,#232,#233,#234,#235,#236,
    #237,#238,#239,#240,#241,#242,#243,#244,#245,#246,#247,#248,#249,
    #250,#251,#252,#253,#254,#255,#256),.UNSPECIFIED.,.F.,.F.,(8,6,6,6,8
    ),(0.,0.256799718226,0.5,0.743200281774,1.),.UNSPECIFIED.);
#231 = CARTESIAN_POINT('',(2.8,26.854422354614,68.));
#232 = CARTESIAN_POINT('',(3.076248857742,26.825619024144,68.));
#233 = CARTESIAN_POINT('',(3.344450684246,26.794303287508,67.95548436762
    ));
#234 = CARTESIAN_POINT('',(3.59652539222,26.761654172653,67.871117367608
    ));
#235 = CARTESIAN_POINT('',(3.825943106901,26.729262083949,
    67.752948352896));
#236 = CARTESIAN_POINT('',(4.027876143808,26.69885545453,67.60833558257)
  );
#237 = CARTESIAN_POINT('',(4.199604065791,26.671780156459,
    67.445798318681));
#238 = CARTESIAN_POINT('',(4.474959546587,26.626925303559,
    67.112950719851));
#239 = CARTESIAN_POINT('',(4.584857951354,26.608216904401,
    66.939704517172));
#240 = CARTESIAN_POINT('',(4.671574624076,26.592996722619,
    66.758626048641));
#241 = CARTESIAN_POINT('',(4.735950277408,26.581478765247,
    66.572275518352));
#242 = CARTESIAN_POINT('',(4.778638170978,26.573766912991,
    66.382636832974));
#243 = CARTESIAN_POINT('',(4.8,26.569907790581,66.191365578371));
#244 = CARTESIAN_POINT('',(4.8,26.569907790581,65.808634421629));
#245 = CARTESIAN_POINT('',(4.778638170978,26.573766912991,
    65.617363167026));
#246 = CARTESIAN_POINT('',(4.735950277408,26.581478765247,
    65.427724481647));
#247 = CARTESIAN_POINT('',(4.671574624076,26.592996722618,65.24137395136
    ));
#248 = CARTESIAN_POINT('',(4.584857951354,26.608216904401,
    65.060295482827));
#249 = CARTESIAN_POINT('',(4.474959546587,26.626925303559,
    64.887049280149));
#250 = CARTESIAN_POINT('',(4.199604065791,26.671780156459,
    64.554201681319));
#251 = CARTESIAN_POINT('',(4.027876143807,26.69885545453,64.391664417429
    ));
#252 = CARTESIAN_POINT('',(3.825943106902,26.729262083948,
    64.247051647105));
#253 = CARTESIAN_POINT('',(3.59652539222,26.761654172653,64.128882632391
    ));
#254 = CARTESIAN_POINT('',(3.344450684246,26.794303287508,64.04451563238
    ));
#255 = CARTESIAN_POINT('',(3.076248857742,26.825619024144,64.));
#256 = CARTESIAN_POINT('',(2.8,26.854422354614,64.));
#257 = ORIENTED_EDGE('',*,*,#258,.T.);
#258 = EDGE_CURVE('',#228,#259,#261,.T.);
#259 = VERTEX_POINT('',#260);
#260 = CARTESIAN_POINT('',(-2.8,26.854422354614,68.));
#261 = CIRCLE('',#262,27.);
#262 = AXIS2_PLACEMENT_3D('',#263,#264,#265);
#263 = CARTESIAN_POINT('',(0.,0.,68.));
#264 = DIRECTION('',(0.,-0.,1.));
#265 = DIRECTION('',(0.53528704554,0.844670219007,0.));
#266 = ORIENTED_EDGE('',*,*,#267,.F.);
#267 = EDGE_CURVE('',#219,#259,#268,.T.);
#268 = B_SPLINE_CURVE_WITH_KNOTS('',7,(#269,#270,#271,#272,#273,#274,
    #275,#276,#277,#278,#279,#280,#281,#282,#283,#284,#285,#286,#287,
    #288,#289,#290,#291,#292,#293,#294),.UNSPECIFIED.,.F.,.F.,(8,6,6,6,8
    ),(0.,0.256799713874,0.499999991527,0.743200274534,1.),
  .UNSPECIFIED.);
#269 = CARTESIAN_POINT('',(-2.8,26.854422354614,64.));
#270 = CARTESIAN_POINT('',(-3.076248857742,26.825619024144,64.));
#271 = CARTESIAN_POINT('',(-3.344450684246,26.794303287508,
    64.04451563238));
#272 = CARTESIAN_POINT('',(-3.596525392219,26.761654172653,
    64.128882632391));
#273 = CARTESIAN_POINT('',(-3.825943106902,26.729262083948,
    64.247051647105));
#274 = CARTESIAN_POINT('',(-4.027876143807,26.69885545453,
    64.391664417429));
#275 = CARTESIAN_POINT('',(-4.199604065791,26.671780156459,
    64.554201681319));
#276 = CARTESIAN_POINT('',(-4.474959546587,26.626925303559,
    64.887049280149));
#277 = CARTESIAN_POINT('',(-4.584857951354,26.608216904402,
    65.060295482827));
#278 = CARTESIAN_POINT('',(-4.671574624076,26.592996722618,
    65.241373951361));
#279 = CARTESIAN_POINT('',(-4.735950277408,26.581478765247,
    65.427724481647));
#280 = CARTESIAN_POINT('',(-4.778638170978,26.573766912991,
    65.617363167027));
#281 = CARTESIAN_POINT('',(-4.8,26.569907790581,65.808634421629));
#282 = CARTESIAN_POINT('',(-4.8,26.569907790581,66.191365582584));
#283 = CARTESIAN_POINT('',(-4.778638169967,26.573766913148,
    66.382636822697));
#284 = CARTESIAN_POINT('',(-4.735950282217,26.581478764475,
    66.572275525707));
#285 = CARTESIAN_POINT('',(-4.671574615022,26.592996724094,
    66.758626052513));
#286 = CARTESIAN_POINT('',(-4.584857959489,26.608216903071,
    66.939704508787));
#287 = CARTESIAN_POINT('',(-4.47495954349,26.626925304064,
    67.112950723594));
#288 = CARTESIAN_POINT('',(-4.199604065791,26.671780156459,
    67.445798318681));
#289 = CARTESIAN_POINT('',(-4.027876143807,26.69885545453,
    67.608335582571));
#290 = CARTESIAN_POINT('',(-3.825943106902,26.729262083948,
    67.752948352894));
#291 = CARTESIAN_POINT('',(-3.596525392219,26.761654172653,
    67.871117367609));
#292 = CARTESIAN_POINT('',(-3.344450684246,26.794303287508,
    67.95548436762));
#293 = CARTESIAN_POINT('',(-3.076248857742,26.825619024144,68.));
#294 = CARTESIAN_POINT('',(-2.8,26.854422354614,68.));
#295 = FACE_BOUND('',#296,.T.);
#296 = EDGE_LOOP('',(#297));
#297 = ORIENTED_EDGE('',*,*,#298,.T.);
#298 = EDGE_CURVE('',#299,#299,#301,.T.);
#299 = VERTEX_POINT('',#300);
#300 = CARTESIAN_POINT('',(-6.1,26.301901071976,56.));
#301 = B_SPLINE_CURVE_WITH_KNOTS('',7,(#302,#303,#304,#305,#306,#307,
    #308,#309,#310,#311,#312,#313,#314,#315,#316,#317,#318,#319,#320,
    #321,#322,#323,#324,#325,#326,#327,#328,#329,#330,#331,#332,#333,
    #334,#335,#336,#337,#338,#339,#340,#341,#342,#343,#344,#345),
  .UNSPECIFIED.,.T.,.F.,(8,6,6,6,6,6,6,8),(0.,0.151872144628,
    0.286940192666,0.423243742126,0.587099838428,0.71303341689,
    0.83849439363,1.),.UNSPECIFIED.);
#302 = CARTESIAN_POINT('',(-6.1,26.301901071976,56.));
#303 = CARTESIAN_POINT('',(-6.1,26.301901071976,55.807729171808));
#304 = CARTESIAN_POINT('',(-6.073044961591,26.308152480389,
    55.615414691068));
#305 = CARTESIAN_POINT('',(-6.019106818266,26.320662303401,
    55.425787504191));
#306 = CARTESIAN_POINT('',(-5.937620556062,26.339376454254,
    55.24184481425));
#307 = CARTESIAN_POINT('',(-5.827748075697,26.364125487972,
    55.067247561069));
#308 = CARTESIAN_POINT('',(-5.688604044495,26.394497421391,
    54.906760817384));
#309 = CARTESIAN_POINT('',(-5.369821599142,26.461075473181,
    54.643041043475));
#310 = CARTESIAN_POINT('',(-5.192008260744,26.497174118953,
    54.531832092272));
#311 = CARTESIAN_POINT('',(-4.989901267734,26.536627058132,
    54.445147747693));
#312 = CARTESIAN_POINT('',(-4.770478647921,26.577237772317,
    54.391101712299));
#313 = CARTESIAN_POINT('',(-4.542932122089,26.616733383008,
    54.374188072905));
#314 = CARTESIAN_POINT('',(-4.317139752815,26.653510852006,
    54.395053137256));
#315 = CARTESIAN_POINT('',(-3.885085550592,26.719923589042,54.5059858017
    ));
#316 = CARTESIAN_POINT('',(-3.686434309133,26.748351544702,
    54.594780110689));
#317 = CARTESIAN_POINT('',(-3.509960838518,26.771916229441,
    54.709872662799));
#318 = CARTESIAN_POINT('',(-3.357783426519,26.791075218633,
    54.845257877196));
#319 = CARTESIAN_POINT('',(-3.230929509505,26.806330663866,
    54.995326209274));
#320 = CARTESIAN_POINT('',(-3.129428997996,26.818141316591,
    55.154796188564));
#321 = CARTESIAN_POINT('',(-2.959528788434,26.837471991318,
    55.515852512526));
#322 = CARTESIAN_POINT('',(-2.899581361816,26.843913673867,
    55.72450615932));
#323 = CARTESIAN_POINT('',(-2.87256077801,26.846713147656,
    55.939745900566));
#324 = CARTESIAN_POINT('',(-2.878828548839,26.84605763968,
    56.157027416301));
#325 = CARTESIAN_POINT('',(-2.918665358064,26.841896114443,
    56.37155465975));
#326 = CARTESIAN_POINT('',(-2.991957974241,26.833925596532,
    56.578081110767));
#327 = CARTESIAN_POINT('',(-3.179339489989,26.812283001249,
    56.918926822577));
#328 = CARTESIAN_POINT('',(-3.281852468389,26.800150443141,
    57.062153958348));
#329 = CARTESIAN_POINT('',(-3.406083381997,26.784944475541,
    57.196235336269));
#330 = CARTESIAN_POINT('',(-3.551777987936,26.766300560923,
    57.316732473122));
#331 = CARTESIAN_POINT('',(-3.717851122121,26.743844319996,
    57.419059050264));
#332 = CARTESIAN_POINT('',(-3.902348145475,26.717270088235,
    57.498446479333));
#333 = CARTESIAN_POINT('',(-4.301094604045,26.655977214422,
    57.600827168745));
#334 = CARTESIAN_POINT('',(-4.509971637985,26.622097398495,
    57.622680883534));
#335 = CARTESIAN_POINT('',(-4.72133430705,26.585740644025,
    57.612114856953));
#336 = CARTESIAN_POINT('',(-4.926956746845,26.548202130663,
    57.569251342633));
#337 = CARTESIAN_POINT('',(-5.119071814042,26.511292117761,
    57.497352312628));
#338 = CARTESIAN_POINT('',(-5.291447786417,26.47685259889,
    57.402688288472));
#339 = CARTESIAN_POINT('',(-5.632274829672,26.406738376432,
    57.155062946853));
#340 = CARTESIAN_POINT('',(-5.790685017388,26.372458508086,
    56.98930344287));
#341 = CARTESIAN_POINT('',(-5.915657728708,26.344416963994,
    56.806023458939));
#342 = CARTESIAN_POINT('',(-6.008240508778,26.32318279746,
    56.611238194856));
#343 = CARTESIAN_POINT('',(-6.069432205385,26.308990270479,
    56.409602687012));
#344 = CARTESIAN_POINT('',(-6.1,26.301901071976,56.204746161273));
#345 = CARTESIAN_POINT('',(-6.1,26.301901071976,56.));
#346 = FACE_BOUND('',#347,.T.);
#347 = EDGE_LOOP('',(#348));
#348 = ORIENTED_EDGE('',*,*,#349,.T.);
#349 = EDGE_CURVE('',#350,#350,#352,.T.);
#350 = VERTEX_POINT('',#351);
#351 = CARTESIAN_POINT('',(-1.65,26.949536174116,78.));
#352 = B_SPLINE_CURVE_WITH_KNOTS('',7,(#353,#354,#355,#356,#357,#358,
    #359,#360,#361,#362,#363,#364,#365,#366,#367,#368,#369,#370,#371,
    #372,#373,#374,#375,#376,#377,#378,#379,#380,#381,#382,#383,#384,
    #385,#386,#387,#388,#389,#390,#391,#392,#393,#394,#395,#396),
  .UNSPECIFIED.,.T.,.F.,(8,6,6,6,6,6,6,8),(0.,0.152561815662,
    0.285750615226,0.422005155571,0.588491127933,0.71435916016,
    0.837999589024,1.),.UNSPECIFIED.);
#353 = CARTESIAN_POINT('',(-1.65,26.949536174116,78.));
#354 = CARTESIAN_POINT('',(-1.65,26.949536174116,77.802706157232));
#355 = CARTESIAN_POINT('',(-1.622478512177,26.951221107665,
    77.605489405982));
#356 = CARTESIAN_POINT('',(-1.567466129557,26.95458970906,77.41078044056
    ));
#357 = CARTESIAN_POINT('',(-1.484171866754,26.959510583415,
    77.22133593073));
#358 = CARTESIAN_POINT('',(-1.371323151564,26.965712047345,
    77.040753240118));
#359 = CARTESIAN_POINT('',(-1.227471125479,26.972657259192,
    76.874022651745));
#360 = CARTESIAN_POINT('',(-0.898341987696,26.985487791178,
    76.601743349455));
#361 = CARTESIAN_POINT('',(-0.715372494911,26.991600709588,
    76.486752469214));
#362 = CARTESIAN_POINT('',(-0.506512883731,26.997001382517,
    76.396716429961));
#363 = CARTESIAN_POINT('',(-0.279303701233,27.000617995225,
    76.340611725683));
#364 = CARTESIAN_POINT('',(-4.379940302864E-02,27.001671485348,
    76.323258548737));
#365 = CARTESIAN_POINT('',(0.189285162453,27.000241608398,
    76.345080981544));
#366 = CARTESIAN_POINT('',(0.636479668276,26.99344448859,76.459901015236
    ));
#367 = CARTESIAN_POINT('',(0.842263873647,26.988106095931,
    76.552529986758));
#368 = CARTESIAN_POINT('',(1.024029915386,26.981637851135,
    76.671968506331));
#369 = CARTESIAN_POINT('',(1.180105442037,26.974896447243,
    76.811673909716));
#370 = CARTESIAN_POINT('',(1.309930041807,26.968556215677,
    76.965848424297));
#371 = CARTESIAN_POINT('',(1.413837568697,26.963073705059,
    77.129310590264));
#372 = CARTESIAN_POINT('',(1.589647997003,26.953337373808,
    77.502926768384));
#373 = CARTESIAN_POINT('',(1.650698319968,26.94955067008,77.718292101184
    ));
#374 = CARTESIAN_POINT('',(1.677808596072,26.947775697087,
    77.938731634815));
#375 = CARTESIAN_POINT('',(1.671442163182,26.948186278132,
    78.160775021466));
#376 = CARTESIAN_POINT('',(1.63123015917,26.950788566119,78.380664471375
    ));
#377 = CARTESIAN_POINT('',(1.556340628707,26.955334068154,
    78.594013758533));
#378 = CARTESIAN_POINT('',(1.36241438353,26.965734144465,78.946764288982
    ));
#379 = CARTESIAN_POINT('',(1.257444715007,26.971061024112,
    79.093620584901));
#380 = CARTESIAN_POINT('',(1.130214016528,26.976999493623,
    79.231432697757));
#381 = CARTESIAN_POINT('',(0.980672354538,26.98314676878,79.355806606189
    ));
#382 = CARTESIAN_POINT('',(0.809534300931,26.988942735575,
    79.461978078218));
#383 = CARTESIAN_POINT('',(0.618410901153,26.993719124288,
    79.544738255647));
#384 = CARTESIAN_POINT('',(0.205948180147,26.999988339348,79.65064068268
    ));
#385 = CARTESIAN_POINT('',(-9.530800169706E-03,27.00145728035,
    79.67345933927));
#386 = CARTESIAN_POINT('',(-0.228164677096,27.000819863462,
    79.66271813196));
#387 = CARTESIAN_POINT('',(-0.44104560972,26.997966341314,79.61829774931
    ));
#388 = CARTESIAN_POINT('',(-0.63964105417,26.993435474465,
    79.543677051208));
#389 = CARTESIAN_POINT('',(-0.817211697311,26.988062032471,
    79.445773110395));
#390 = CARTESIAN_POINT('',(-1.169834989594,26.975387550472,
    79.189577292186));
#391 = CARTESIAN_POINT('',(-1.333676281169,26.967766724592,
    79.017132429745));
#392 = CARTESIAN_POINT('',(-1.461977636483,26.960818249758,
    78.827432839461));
#393 = CARTESIAN_POINT('',(-1.556510088361,26.955260945058,
    78.626812863031));
#394 = CARTESIAN_POINT('',(-1.618825635317,26.951444643795,
    78.419891599701));
#395 = CARTESIAN_POINT('',(-1.65,26.949536174116,78.209973297719));
#396 = CARTESIAN_POINT('',(-1.65,26.949536174116,78.));
#397 = CYLINDRICAL_SURFACE('',#398,27.);
#398 = AXIS2_PLACEMENT_3D('',#399,#400,#401);
#399 = CARTESIAN_POINT('',(0.,0.,25.3));
#400 = DIRECTION('',(0.,0.,1.));
#401 = DIRECTION('',(0.53528704554,0.844670219007,0.));
#402 = ADVANCED_FACE('',(#403),#429,.T.);
#403 = FACE_BOUND('',#404,.T.);
#404 = EDGE_LOOP('',(#405,#406,#414,#423));
#405 = ORIENTED_EDGE('',*,*,#21,.T.);
#406 = ORIENTED_EDGE('',*,*,#407,.F.);
#407 = EDGE_CURVE('',#408,#24,#410,.T.);
#408 = VERTEX_POINT('',#409);
#409 = CARTESIAN_POINT('',(-13.11453261573,20.694420365666,82.7));
#410 = LINE('',#411,#412);
#411 = CARTESIAN_POINT('',(0.,0.,82.7));
#412 = VECTOR('',#413,1.);
#413 = DIRECTION('',(-0.53528704554,0.844670219007,0.));
#414 = ORIENTED_EDGE('',*,*,#415,.F.);
#415 = EDGE_CURVE('',#416,#408,#418,.T.);
#416 = VERTEX_POINT('',#417);
#417 = CARTESIAN_POINT('',(13.114532615732,20.694420365666,82.7));
#418 = CIRCLE('',#419,24.5);
#419 = AXIS2_PLACEMENT_3D('',#420,#421,#422);
#420 = CARTESIAN_POINT('',(0.,0.,82.7));
#421 = DIRECTION('',(0.,-0.,1.));
#422 = DIRECTION('',(0.53528704554,0.844670219007,0.));
#423 = ORIENTED_EDGE('',*,*,#424,.T.);
#424 = EDGE_CURVE('',#416,#22,#425,.T.);
#425 = LINE('',#426,#427);
#426 = CARTESIAN_POINT('',(0.,0.,82.7));
#427 = VECTOR('',#428,1.);
#428 = DIRECTION('',(0.53528704554,0.844670219007,0.));
#429 = PLANE('',#430);
#430 = AXIS2_PLACEMENT_3D('',#431,#432,#433);
#431 = CARTESIAN_POINT('',(0.,0.,82.7));
#432 = DIRECTION('',(0.,0.,1.));
#433 = DIRECTION('',(0.53528704554,0.844670219007,0.));
#434 = ADVANCED_FACE('',(#435),#453,.F.);
#435 = FACE_BOUND('',#436,.F.);
#436 = EDGE_LOOP('',(#437,#438,#446,#452));
#437 = ORIENTED_EDGE('',*,*,#407,.F.);
#438 = ORIENTED_EDGE('',*,*,#439,.F.);
#439 = EDGE_CURVE('',#440,#408,#442,.T.);
#440 = VERTEX_POINT('',#441);
#441 = CARTESIAN_POINT('',(-13.11453261573,20.694420365666,25.3));
#442 = LINE('',#443,#444);
#443 = CARTESIAN_POINT('',(-13.11453261573,20.694420365666,24.3));
#444 = VECTOR('',#445,1.);
#445 = DIRECTION('',(0.,0.,1.));
#446 = ORIENTED_EDGE('',*,*,#447,.T.);
#447 = EDGE_CURVE('',#440,#41,#448,.T.);
#448 = LINE('',#449,#450);
#449 = CARTESIAN_POINT('',(0.,0.,25.3));
#450 = VECTOR('',#451,1.);
#451 = DIRECTION('',(-0.53528704554,0.844670219007,0.));
#452 = ORIENTED_EDGE('',*,*,#49,.T.);
#453 = PLANE('',#454);
#454 = AXIS2_PLACEMENT_3D('',#455,#456,#457);
#455 = CARTESIAN_POINT('',(0.,0.,25.3));
#456 = DIRECTION('',(0.844670219007,0.53528704554,0.));
#457 = DIRECTION('',(-0.53528704554,0.844670219007,0.));
#458 = ADVANCED_FACE('',(#459),#477,.T.);
#459 = FACE_BOUND('',#460,.T.);
#460 = EDGE_LOOP('',(#461,#469,#475,#476));
#461 = ORIENTED_EDGE('',*,*,#462,.F.);
#462 = EDGE_CURVE('',#463,#416,#465,.T.);
#463 = VERTEX_POINT('',#464);
#464 = CARTESIAN_POINT('',(13.114532615732,20.694420365666,25.3));
#465 = LINE('',#466,#467);
#466 = CARTESIAN_POINT('',(13.114532615732,20.694420365666,24.3));
#467 = VECTOR('',#468,1.);
#468 = DIRECTION('',(0.,0.,1.));
#469 = ORIENTED_EDGE('',*,*,#470,.T.);
#470 = EDGE_CURVE('',#463,#33,#471,.T.);
#471 = LINE('',#472,#473);
#472 = CARTESIAN_POINT('',(0.,0.,25.3));
#473 = VECTOR('',#474,1.);
#474 = DIRECTION('',(0.53528704554,0.844670219007,0.));
#475 = ORIENTED_EDGE('',*,*,#32,.T.);
#476 = ORIENTED_EDGE('',*,*,#424,.F.);
#477 = PLANE('',#478);
#478 = AXIS2_PLACEMENT_3D('',#479,#480,#481);
#479 = CARTESIAN_POINT('',(0.,0.,25.3));
#480 = DIRECTION('',(0.844670219007,-0.53528704554,0.));
#481 = DIRECTION('',(0.53528704554,0.844670219007,0.));
#482 = ADVANCED_FACE('',(#483),#495,.F.);
#483 = FACE_BOUND('',#484,.F.);
#484 = EDGE_LOOP('',(#485,#486,#487,#494));
#485 = ORIENTED_EDGE('',*,*,#40,.T.);
#486 = ORIENTED_EDGE('',*,*,#447,.F.);
#487 = ORIENTED_EDGE('',*,*,#488,.F.);
#488 = EDGE_CURVE('',#463,#440,#489,.T.);
#489 = CIRCLE('',#490,24.5);
#490 = AXIS2_PLACEMENT_3D('',#491,#492,#493);
#491 = CARTESIAN_POINT('',(0.,0.,25.3));
#492 = DIRECTION('',(0.,-0.,1.));
#493 = DIRECTION('',(0.53528704554,0.844670219007,0.));
#494 = ORIENTED_EDGE('',*,*,#470,.T.);
#495 = PLANE('',#496);
#496 = AXIS2_PLACEMENT_3D('',#497,#498,#499);
#497 = CARTESIAN_POINT('',(0.,0.,25.3));
#498 = DIRECTION('',(0.,0.,1.));
#499 = DIRECTION('',(0.53528704554,0.844670219007,0.));
#500 = ADVANCED_FACE('',(#501),#560,.F.);
#501 = FACE_BOUND('',#502,.F.);
#502 = EDGE_LOOP('',(#503,#552,#558,#559));
#503 = ORIENTED_EDGE('',*,*,#504,.F.);
#504 = EDGE_CURVE('',#505,#505,#507,.T.);
#505 = VERTEX_POINT('',#506);
#506 = CARTESIAN_POINT('',(-1.65,24.444375631216,30.));
#507 = B_SPLINE_CURVE_WITH_KNOTS('',7,(#508,#509,#510,#511,#512,#513,
    #514,#515,#516,#517,#518,#519,#520,#521,#522,#523,#524,#525,#526,
    #527,#528,#529,#530,#531,#532,#533,#534,#535,#536,#537,#538,#539,
    #540,#541,#542,#543,#544,#545,#546,#547,#548,#549,#550,#551),
  .UNSPECIFIED.,.T.,.F.,(8,6,6,6,6,6,6,8),(0.,0.152564013732,
    0.285759556939,0.422016610309,0.588488990102,0.714358186557,
    0.838001618596,1.),.UNSPECIFIED.);
#508 = CARTESIAN_POINT('',(-1.65,24.444375631216,30.));
#509 = CARTESIAN_POINT('',(-1.65,24.444375631216,29.802692133874));
#510 = CARTESIAN_POINT('',(-1.622474595898,24.446233508671,
    29.605461726303));
#511 = CARTESIAN_POINT('',(-1.567454593334,24.449947849468,
    29.410744201739));
#512 = CARTESIAN_POINT('',(-1.484152387991,24.455373365931,
    29.221299453929));
#513 = CARTESIAN_POINT('',(-1.371300384551,24.462209744922,
    29.040725079132));
#514 = CARTESIAN_POINT('',(-1.22745394524,24.46986485114,28.874008439016
    ));
#515 = CARTESIAN_POINT('',(-0.898351429822,24.484005782273,
    28.601751160662));
#516 = CARTESIAN_POINT('',(-0.71538539067,24.490743190428,28.48675864686
    ));
#517 = CARTESIAN_POINT('',(-0.506526015922,24.496695317,28.396720310347)
  );
#518 = CARTESIAN_POINT('',(-0.279316720872,24.500680840906,
    28.340613824528));
#519 = CARTESIAN_POINT('',(-4.38110990687E-02,24.501842065675,
    28.323258021118));
#520 = CARTESIAN_POINT('',(0.189277964618,24.50026643206,28.345079133455
    ));
#521 = CARTESIAN_POINT('',(0.636479752751,24.492775421012,
    28.459901036925));
#522 = CARTESIAN_POINT('',(0.842259291364,24.486892103383,
    28.552528838886));
#523 = CARTESIAN_POINT('',(1.024019701432,24.479763455689,28.67196297128
    ));
#524 = CARTESIAN_POINT('',(1.180092106713,24.472333136514,
    28.811662278695));
#525 = CARTESIAN_POINT('',(1.309917940696,24.465344251002,
    28.965832334851));
#526 = CARTESIAN_POINT('',(1.413830928582,24.459300226895,
    29.129296479303));
#527 = CARTESIAN_POINT('',(1.589646432957,24.448566551588,
    29.502923444617));
#528 = CARTESIAN_POINT('',(1.650698873939,24.444391667682,
    29.718290507123));
#529 = CARTESIAN_POINT('',(1.677810164024,24.442434544581,
    29.938735132347));
#530 = CARTESIAN_POINT('',(1.671442028313,24.442887375692,
    30.160782591142));
#531 = CARTESIAN_POINT('',(1.631227807621,24.44575665461,30.380672174129
    ));
#532 = CARTESIAN_POINT('',(1.556338176706,24.450767868607,
    30.594018218706));
#533 = CARTESIAN_POINT('',(1.36240864801,24.462232908193,30.946774721852
    ));
#534 = CARTESIAN_POINT('',(1.257435140974,24.468105133337,
    31.093631943355));
#535 = CARTESIAN_POINT('',(1.130204331584,24.474650959851,
    31.231440236065));
#536 = CARTESIAN_POINT('',(0.980665971,24.48142632972,31.355809437125));
#537 = CARTESIAN_POINT('',(0.809532752285,24.48781407341,31.461977927801
    ));
#538 = CARTESIAN_POINT('',(0.618412596482,24.493078061276,31.54473782036
    ));
#539 = CARTESIAN_POINT('',(0.205943440798,24.499987271132,
    31.650641899538));
#540 = CARTESIAN_POINT('',(-9.53960113956E-03,24.501606024136,
    31.67346009419));
#541 = CARTESIAN_POINT('',(-0.22817588334,24.500903390947,
    31.662717031022));
#542 = CARTESIAN_POINT('',(-0.441058107131,24.497758738274,
    31.618294784574));
#543 = CARTESIAN_POINT('',(-0.639653869079,24.492765278316,
    31.54367164907));
#544 = CARTESIAN_POINT('',(-0.817221261201,24.486843001476,
    31.445766161822));
#545 = CARTESIAN_POINT('',(-1.169815095943,24.472874436279,
    31.18959174577));
#546 = CARTESIAN_POINT('',(-1.333649507881,24.464474935977,
    31.017162502835));
#547 = CARTESIAN_POINT('',(-1.461954325551,24.456815242734,
    30.827472986586));
#548 = CARTESIAN_POINT('',(-1.55649595505,24.45068804927,30.626853819279
    ));
#549 = CARTESIAN_POINT('',(-1.618820688024,24.446480023921,
    30.419923606374));
#550 = CARTESIAN_POINT('',(-1.65,24.444375631216,30.209989954127));
#551 = CARTESIAN_POINT('',(-1.65,24.444375631216,30.));
#552 = ORIENTED_EDGE('',*,*,#553,.F.);
#553 = EDGE_CURVE('',#58,#505,#554,.T.);
#554 = LINE('',#555,#556);
#555 = CARTESIAN_POINT('',(-1.65,29.,30.));
#556 = VECTOR('',#557,1.);
#557 = DIRECTION('',(-6.E-17,-1.,0.));
#558 = ORIENTED_EDGE('',*,*,#57,.T.);
#559 = ORIENTED_EDGE('',*,*,#553,.T.);
#560 = CYLINDRICAL_SURFACE('',#561,1.65);
#561 = AXIS2_PLACEMENT_3D('',#562,#563,#564);
#562 = CARTESIAN_POINT('',(1.78E-15,29.,30.));
#563 = DIRECTION('',(-6.E-17,-1.,0.));
#564 = DIRECTION('',(-1.,6.E-17,0.));
#565 = ADVANCED_FACE('',(#566),#631,.F.);
#566 = FACE_BOUND('',#567,.F.);
#567 = EDGE_LOOP('',(#568,#623,#629,#630));
#568 = ORIENTED_EDGE('',*,*,#569,.F.);
#569 = EDGE_CURVE('',#570,#570,#572,.T.);
#570 = VERTEX_POINT('',#571);
#571 = CARTESIAN_POINT('',(-5.2,23.941804443275,42.));
#572 = B_SPLINE_CURVE_WITH_KNOTS('',7,(#573,#574,#575,#576,#577,#578,
    #579,#580,#581,#582,#583,#584,#585,#586,#587,#588,#589,#590,#591,
    #592,#593,#594,#595,#596,#597,#598,#599,#600,#601,#602,#603,#604,
    #605,#606,#607,#608,#609,#610,#611,#612,#613,#614,#615,#616,#617,
    #618,#619,#620,#621,#622),.UNSPECIFIED.,.T.,.F.,(8,6,6,6,6,6,6,6,8),
  (0.,0.138896658913,0.250000000288,0.361103341673,0.500000000583,
    0.638896657693,0.749999999659,0.861103341057,1.),.UNSPECIFIED.);
#573 = CARTESIAN_POINT('',(-5.2,23.941804443275,42.));
#574 = CARTESIAN_POINT('',(-5.2,23.941804443275,41.441279178991));
#575 = CARTESIAN_POINT('',(-5.129961713871,23.957015992237,
    40.883664055878));
#576 = CARTESIAN_POINT('',(-4.990387283441,23.987332083333,
    40.331893124268));
#577 = CARTESIAN_POINT('',(-4.779381589567,24.031806160057,
    39.791082500374));
#578 = CARTESIAN_POINT('',(-4.49339840097,24.08857053614,39.268323030239
    ));
#579 = CARTESIAN_POINT('',(-4.127537151478,24.15411226641,
    38.773626627138));
#580 = CARTESIAN_POINT('',(-3.316535120631,24.277221645303,
    37.962624596291));
#581 = CARTESIAN_POINT('',(-2.891989495279,24.33526570903,
    37.620512368192));
#582 = CARTESIAN_POINT('',(-2.404659382508,24.39240475055,
    37.316917470505));
#583 = CARTESIAN_POINT('',(-1.860474410987,24.44281672902,
    37.069436233894));
#584 = CARTESIAN_POINT('',(-1.269314059534,24.480252317586,
    36.893038543368));
#585 = CARTESIAN_POINT('',(-0.643960907594,24.5,36.8));
#586 = CARTESIAN_POINT('',(0.64396090766,24.5,36.8));
#587 = CARTESIAN_POINT('',(1.269314059472,24.480252317581,
    36.893038543387));
#588 = CARTESIAN_POINT('',(1.860474410931,24.442816729031,37.06943623385
    ));
#589 = CARTESIAN_POINT('',(2.404659382566,24.392404750546,
    37.316917470506));
#590 = CARTESIAN_POINT('',(2.891989495322,24.335265709022,
    37.620512368257));
#591 = CARTESIAN_POINT('',(3.316535120584,24.27722164531,37.962624596244
    ));
#592 = CARTESIAN_POINT('',(4.127537151478,24.154112266411,
    38.773626627138));
#593 = CARTESIAN_POINT('',(4.49339840097,24.08857053614,39.268323030239)
  );
#594 = CARTESIAN_POINT('',(4.779381589566,24.031806160057,
    39.791082500375));
#595 = CARTESIAN_POINT('',(4.990387283441,23.987332083333,
    40.331893124267));
#596 = CARTESIAN_POINT('',(5.129961713871,23.957015992237,
    40.883664055879));
#597 = CARTESIAN_POINT('',(5.2,23.941804443275,41.441279178991));
#598 = CARTESIAN_POINT('',(5.2,23.941804443275,42.558720813772));
#599 = CARTESIAN_POINT('',(5.129961708432,23.957015993139,
    43.116335971762));
#600 = CARTESIAN_POINT('',(4.990387301114,23.98733208044,43.668106827125
    ));
#601 = CARTESIAN_POINT('',(4.779381564575,24.031806164072,44.20891754671
    ));
#602 = CARTESIAN_POINT('',(4.493398419097,24.0885705333,44.731676944784)
  );
#603 = CARTESIAN_POINT('',(4.127537145514,24.154112267316,
    45.226373378826));
#604 = CARTESIAN_POINT('',(3.316535118805,24.27722164558,46.037375405535
    ));
#605 = CARTESIAN_POINT('',(2.891989503991,24.335265708135,
    46.379487626127));
#606 = CARTESIAN_POINT('',(2.404659364699,24.392404751847,
    46.683082537486));
#607 = CARTESIAN_POINT('',(1.860474430603,24.442816728063,
    46.930563760352));
#608 = CARTESIAN_POINT('',(1.269314047694,24.480252317891,
    47.106961458431));
#609 = CARTESIAN_POINT('',(0.643960910882,24.5,47.2));
#610 = CARTESIAN_POINT('',(-0.643960907594,24.5,47.2));
#611 = CARTESIAN_POINT('',(-1.269314059535,24.480252317586,
    47.106961456632));
#612 = CARTESIAN_POINT('',(-1.860474410986,24.44281672902,
    46.930563766106));
#613 = CARTESIAN_POINT('',(-2.404659382508,24.39240475055,
    46.683082529495));
#614 = CARTESIAN_POINT('',(-2.891989495279,24.33526570903,
    46.379487631808));
#615 = CARTESIAN_POINT('',(-3.316535120631,24.277221645303,
    46.037375403709));
#616 = CARTESIAN_POINT('',(-4.127537151478,24.15411226641,
    45.226373372862));
#617 = CARTESIAN_POINT('',(-4.493398400969,24.08857053614,
    44.731676969762));
#618 = CARTESIAN_POINT('',(-4.779381589568,24.031806160057,
    44.208917499623));
#619 = CARTESIAN_POINT('',(-4.99038728344,23.987332083334,
    43.668106875735));
#620 = CARTESIAN_POINT('',(-5.129961713871,23.957015992237,
    43.116335944121));
#621 = CARTESIAN_POINT('',(-5.2,23.941804443275,42.558720821009));
#622 = CARTESIAN_POINT('',(-5.2,23.941804443275,42.));
#623 = ORIENTED_EDGE('',*,*,#624,.F.);
#624 = EDGE_CURVE('',#109,#570,#625,.T.);
#625 = LINE('',#626,#627);
#626 = CARTESIAN_POINT('',(-5.2,29.,42.));
#627 = VECTOR('',#628,1.);
#628 = DIRECTION('',(-6.E-17,-1.,0.));
#629 = ORIENTED_EDGE('',*,*,#108,.T.);
#630 = ORIENTED_EDGE('',*,*,#624,.T.);
#631 = CYLINDRICAL_SURFACE('',#632,5.2);
#632 = AXIS2_PLACEMENT_3D('',#633,#634,#635);
#633 = CARTESIAN_POINT('',(1.78E-15,29.,42.));
#634 = DIRECTION('',(-6.E-17,-1.,0.));
#635 = DIRECTION('',(-1.,6.E-17,0.));
#636 = ADVANCED_FACE('',(#637),#696,.F.);
#637 = FACE_BOUND('',#638,.F.);
#638 = EDGE_LOOP('',(#639,#688,#694,#695));
#639 = ORIENTED_EDGE('',*,*,#640,.F.);
#640 = EDGE_CURVE('',#641,#641,#643,.T.);
#641 = VERTEX_POINT('',#642);
#642 = CARTESIAN_POINT('',(2.9,24.327761919256,56.));
#643 = B_SPLINE_CURVE_WITH_KNOTS('',7,(#644,#645,#646,#647,#648,#649,
    #650,#651,#652,#653,#654,#655,#656,#657,#658,#659,#660,#661,#662,
    #663,#664,#665,#666,#667,#668,#669,#670,#671,#672,#673,#674,#675,
    #676,#677,#678,#679,#680,#681,#682,#683,#684,#685,#686,#687),
  .UNSPECIFIED.,.T.,.F.,(8,6,6,6,6,6,6,8),(0.,0.151242346359,
    0.286138897448,0.423943939163,0.58787078313,0.714824904962,
    0.839762589272,1.),.UNSPECIFIED.);
#644 = CARTESIAN_POINT('',(2.9,24.327761919256,56.));
#645 = CARTESIAN_POINT('',(2.9,24.327761919256,55.808351984584));
#646 = CARTESIAN_POINT('',(2.926780547227,24.32456945946,55.616627363279
    ));
#647 = CARTESIAN_POINT('',(2.980387193621,24.318179647473,
    55.427377365079));
#648 = CARTESIAN_POINT('',(3.061519470673,24.308318865325,
    55.243467714483));
#649 = CARTESIAN_POINT('',(3.171223405943,24.294488187525,
    55.068531261888));
#650 = CARTESIAN_POINT('',(3.31059270352,24.275899732722,54.907425325217
    ));
#651 = CARTESIAN_POINT('',(3.631328379643,24.229873885366,
    54.642089698289));
#652 = CARTESIAN_POINT('',(3.810617121104,24.203022705143,
    54.530211513851));
#653 = CARTESIAN_POINT('',(4.014189370067,24.170812947853,54.44353866704
    ));
#654 = CARTESIAN_POINT('',(4.234515418514,24.133509476085,54.39020421189
    ));
#655 = CARTESIAN_POINT('',(4.461891798609,24.092115373211,
    54.374334565514));
#656 = CARTESIAN_POINT('',(4.686046510179,24.04865318691,54.395871230545
    ));
#657 = CARTESIAN_POINT('',(5.114328962343,23.96126935345,54.505835474172
    ));
#658 = CARTESIAN_POINT('',(5.312480128062,23.918468714727,
    54.594297882963));
#659 = CARTESIAN_POINT('',(5.488621208085,23.878490345993,
    54.708935434603));
#660 = CARTESIAN_POINT('',(5.640745510403,23.842611769198,
    54.843862261347));
#661 = CARTESIAN_POINT('',(5.767888872956,23.811778633424,
    54.993702275549));
#662 = CARTESIAN_POINT('',(5.869964951548,23.786549486644,
    55.153508265787));
#663 = CARTESIAN_POINT('',(6.040221191595,23.743942798798,
    55.515321193041));
#664 = CARTESIAN_POINT('',(6.100521499821,23.728406341573,
    55.724288319729));
#665 = CARTESIAN_POINT('',(6.127599719374,23.721294828423,
    55.940148871665));
#666 = CARTESIAN_POINT('',(6.121105751182,23.722996787839,
    56.157716952819));
#667 = CARTESIAN_POINT('',(6.081120678597,23.733442189644,
    56.372036456256));
#668 = CARTESIAN_POINT('',(6.007974994501,23.752181766741,
    56.578203040171));
#669 = CARTESIAN_POINT('',(5.82008795555,23.798817511052,56.919968295276
    ));
#670 = CARTESIAN_POINT('',(5.717113833417,23.824026611451,
    57.063423881985));
#671 = CARTESIAN_POINT('',(5.59270405192,23.853884939988,57.197283304598
    ));
#672 = CARTESIAN_POINT('',(5.447122479829,23.887872576211,
    57.317400911563));
#673 = CARTESIAN_POINT('',(5.281366650262,23.925176028577,
    57.419382764843));
#674 = CARTESIAN_POINT('',(5.097268017572,23.964750352377,
    57.498545031912));
#675 = CARTESIAN_POINT('',(4.701706162496,24.045458098147,
    57.600108054122));
#676 = CARTESIAN_POINT('',(4.494339374046,24.085818694598,
    57.622462009617));
#677 = CARTESIAN_POINT('',(4.283272397751,24.124602759081,
    57.612762656441));
#678 = CARTESIAN_POINT('',(4.076982636034,24.160099083838,
    57.570560106726));
#679 = CARTESIAN_POINT('',(3.883628083311,24.191340902732,
    57.498784011123));
#680 = CARTESIAN_POINT('',(3.70983742195,24.217972285496,57.403622047008
    ));
#681 = CARTESIAN_POINT('',(3.366785954004,24.268347884771,
    57.154380566251));
#682 = CARTESIAN_POINT('',(3.20809150996,24.289824397301,56.98791730803)
  );
#683 = CARTESIAN_POINT('',(3.083300516312,24.305668143839,
    56.804216741594));
#684 = CARTESIAN_POINT('',(2.991133661326,24.316899008179,56.60942175541
    ));
#685 = CARTESIAN_POINT('',(2.930347429364,24.324144167314,
    56.408190199053));
#686 = CARTESIAN_POINT('',(2.9,24.327761919256,56.204006884502));
#687 = CARTESIAN_POINT('',(2.9,24.327761919256,56.));
#688 = ORIENTED_EDGE('',*,*,#689,.F.);
#689 = EDGE_CURVE('',#166,#641,#690,.T.);
#690 = LINE('',#691,#692);
#691 = CARTESIAN_POINT('',(2.9,29.,56.));
#692 = VECTOR('',#693,1.);
#693 = DIRECTION('',(-6.E-17,-1.,0.));
#694 = ORIENTED_EDGE('',*,*,#165,.T.);
#695 = ORIENTED_EDGE('',*,*,#689,.T.);
#696 = CYLINDRICAL_SURFACE('',#697,1.6);
#697 = AXIS2_PLACEMENT_3D('',#698,#699,#700);
#698 = CARTESIAN_POINT('',(4.5,29.,56.));
#699 = DIRECTION('',(-6.E-17,-1.,0.));
#700 = DIRECTION('',(-1.,6.E-17,0.));
#701 = ADVANCED_FACE('',(#702),#728,.T.);
#702 = FACE_BOUND('',#703,.T.);
#703 = EDGE_LOOP('',(#704,#712,#721,#727));
#704 = ORIENTED_EDGE('',*,*,#705,.F.);
#705 = EDGE_CURVE('',#706,#219,#708,.T.);
#706 = VERTEX_POINT('',#707);
#707 = CARTESIAN_POINT('',(-2.8,24.339474110999,64.));
#708 = LINE('',#709,#710);
#709 = CARTESIAN_POINT('',(-2.8,20.5,64.));
#710 = VECTOR('',#711,1.);
#711 = DIRECTION('',(0.,1.,0.));
#712 = ORIENTED_EDGE('',*,*,#713,.F.);
#713 = EDGE_CURVE('',#714,#706,#716,.T.);
#714 = VERTEX_POINT('',#715);
#715 = CARTESIAN_POINT('',(2.8,24.339474110999,64.));
#716 = CIRCLE('',#717,24.5);
#717 = AXIS2_PLACEMENT_3D('',#718,#719,#720);
#718 = CARTESIAN_POINT('',(0.,0.,64.));
#719 = DIRECTION('',(0.,-0.,1.));
#720 = DIRECTION('',(0.53528704554,0.844670219007,0.));
#721 = ORIENTED_EDGE('',*,*,#722,.T.);
#722 = EDGE_CURVE('',#714,#217,#723,.T.);
#723 = LINE('',#724,#725);
#724 = CARTESIAN_POINT('',(2.8,20.5,64.));
#725 = VECTOR('',#726,1.);
#726 = DIRECTION('',(0.,1.,0.));
#727 = ORIENTED_EDGE('',*,*,#216,.T.);
#728 = PLANE('',#729);
#729 = AXIS2_PLACEMENT_3D('',#730,#731,#732);
#730 = CARTESIAN_POINT('',(-2.8,20.5,64.));
#731 = DIRECTION('',(0.,0.,1.));
#732 = DIRECTION('',(1.,0.,0.));
#733 = ADVANCED_FACE('',(#734),#775,.F.);
#734 = FACE_BOUND('',#735,.F.);
#735 = EDGE_LOOP('',(#736,#737,#745,#774));
#736 = ORIENTED_EDGE('',*,*,#227,.F.);
#737 = ORIENTED_EDGE('',*,*,#738,.F.);
#738 = EDGE_CURVE('',#739,#228,#741,.T.);
#739 = VERTEX_POINT('',#740);
#740 = CARTESIAN_POINT('',(2.8,24.339474110999,68.));
#741 = LINE('',#742,#743);
#742 = CARTESIAN_POINT('',(2.8,20.5,68.));
#743 = VECTOR('',#744,1.);
#744 = DIRECTION('',(0.,1.,0.));
#745 = ORIENTED_EDGE('',*,*,#746,.T.);
#746 = EDGE_CURVE('',#739,#714,#747,.T.);
#747 = B_SPLINE_CURVE_WITH_KNOTS('',7,(#748,#749,#750,#751,#752,#753,
    #754,#755,#756,#757,#758,#759,#760,#761,#762,#763,#764,#765,#766,
    #767,#768,#769,#770,#771,#772,#773),.UNSPECIFIED.,.F.,.F.,(8,6,6,6,8
    ),(0.,0.246867964793,0.499999989911,0.753132021745,1.),
  .UNSPECIFIED.);
#748 = CARTESIAN_POINT('',(2.8,24.339474110999,68.));
#749 = CARTESIAN_POINT('',(3.064922103333,24.308997614837,68.));
#750 = CARTESIAN_POINT('',(3.32278228046,24.275924838673,67.959059907988
    ));
#751 = CARTESIAN_POINT('',(3.56628159255,24.241404903796,67.88110550177)
  );
#752 = CARTESIAN_POINT('',(3.789379956936,24.206992271396,
    67.771407496642));
#753 = CARTESIAN_POINT('',(3.987506602024,24.174404535258,
    67.636494139678));
#754 = CARTESIAN_POINT('',(4.157931640082,24.145030433315,67.48402062088
    ));
#755 = CARTESIAN_POINT('',(4.446123136347,24.093649636255,
    67.157131534419));
#756 = CARTESIAN_POINT('',(4.565841114125,24.071243070088,
    66.978403579475));
#757 = CARTESIAN_POINT('',(4.660262074685,24.052965933833,66.79060445497
    ));
#758 = CARTESIAN_POINT('',(4.730319474911,24.039116667047,66.5967363299)
  );
#759 = CARTESIAN_POINT('',(4.776758310769,24.02983855538,66.399103972209
    ));
#760 = CARTESIAN_POINT('',(4.8,24.025195108469,66.199608568612));
#761 = CARTESIAN_POINT('',(4.8,24.025195108469,65.800391426091));
#762 = CARTESIAN_POINT('',(4.776758309439,24.029838555604,
    65.600896040769));
#763 = CARTESIAN_POINT('',(4.73031948123,24.039116665938,65.403263660662
    ));
#764 = CARTESIAN_POINT('',(4.660262062785,24.052965935956,
    65.209395540452));
#765 = CARTESIAN_POINT('',(4.565841124821,24.071243068172,
    65.021596430835));
#766 = CARTESIAN_POINT('',(4.446123132274,24.093649636981,
    64.842868460961));
#767 = CARTESIAN_POINT('',(4.157931640072,24.145030433317,
    64.515979379108));
#768 = CARTESIAN_POINT('',(3.987506602033,24.174404535256,
    64.363505860339));
#769 = CARTESIAN_POINT('',(3.78937995695,24.206992271394,64.228592503358
    ));
#770 = CARTESIAN_POINT('',(3.566281592538,24.241404903799,
    64.118894498219));
#771 = CARTESIAN_POINT('',(3.322782280445,24.275924838674,
    64.040940092017));
#772 = CARTESIAN_POINT('',(3.064922103349,24.308997614835,64.));
#773 = CARTESIAN_POINT('',(2.8,24.339474110999,64.));
#774 = ORIENTED_EDGE('',*,*,#722,.T.);
#775 = CYLINDRICAL_SURFACE('',#776,2.);
#776 = AXIS2_PLACEMENT_3D('',#777,#778,#779);
#777 = CARTESIAN_POINT('',(2.8,20.5,66.));
#778 = DIRECTION('',(0.,1.,0.));
#779 = DIRECTION('',(0.,0.,1.));
#780 = ADVANCED_FACE('',(#781),#822,.F.);
#781 = FACE_BOUND('',#782,.F.);
#782 = EDGE_LOOP('',(#783,#814,#820,#821));
#783 = ORIENTED_EDGE('',*,*,#784,.T.);
#784 = EDGE_CURVE('',#706,#785,#787,.T.);
#785 = VERTEX_POINT('',#786);
#786 = CARTESIAN_POINT('',(-2.8,24.339474110999,68.));
#787 = B_SPLINE_CURVE_WITH_KNOTS('',7,(#788,#789,#790,#791,#792,#793,
    #794,#795,#796,#797,#798,#799,#800,#801,#802,#803,#804,#805,#806,
    #807,#808,#809,#810,#811,#812,#813),.UNSPECIFIED.,.F.,.F.,(8,6,6,6,8
    ),(0.,0.246867969778,0.5,0.753132030222,1.),.UNSPECIFIED.);
#788 = CARTESIAN_POINT('',(-2.8,24.339474110999,64.));
#789 = CARTESIAN_POINT('',(-3.064922103338,24.308997614836,64.));
#790 = CARTESIAN_POINT('',(-3.322782280455,24.275924838673,
    64.040940092013));
#791 = CARTESIAN_POINT('',(-3.566281592546,24.241404903797,
    64.118894498227));
#792 = CARTESIAN_POINT('',(-3.78937995694,24.206992271396,
    64.228592503358));
#793 = CARTESIAN_POINT('',(-3.987506602027,24.174404535258,
    64.363505860327));
#794 = CARTESIAN_POINT('',(-4.157931640079,24.145030433315,
    64.515979379116));
#795 = CARTESIAN_POINT('',(-4.446123136347,24.093649636255,
    64.842868465582));
#796 = CARTESIAN_POINT('',(-4.565841114125,24.071243070088,
    65.021596420526));
#797 = CARTESIAN_POINT('',(-4.660262074685,24.052965933833,
    65.20939554503));
#798 = CARTESIAN_POINT('',(-4.730319474911,24.039116667047,65.4032636701
    ));
#799 = CARTESIAN_POINT('',(-4.776758310769,24.02983855538,
    65.600896027791));
#800 = CARTESIAN_POINT('',(-4.8,24.025195108469,65.800391431388));
#801 = CARTESIAN_POINT('',(-4.8,24.025195108469,66.199608568612));
#802 = CARTESIAN_POINT('',(-4.776758310769,24.02983855538,
    66.399103972209));
#803 = CARTESIAN_POINT('',(-4.730319474911,24.039116667047,66.5967363299
    ));
#804 = CARTESIAN_POINT('',(-4.660262074685,24.052965933833,
    66.79060445497));
#805 = CARTESIAN_POINT('',(-4.565841114125,24.071243070088,
    66.978403579475));
#806 = CARTESIAN_POINT('',(-4.446123136347,24.093649636255,
    67.157131534419));
#807 = CARTESIAN_POINT('',(-4.157931640079,24.145030433315,
    67.484020620884));
#808 = CARTESIAN_POINT('',(-3.987506602028,24.174404535257,
    67.636494139672));
#809 = CARTESIAN_POINT('',(-3.789379956939,24.206992271396,
    67.771407496644));
#810 = CARTESIAN_POINT('',(-3.566281592547,24.241404903797,
    67.881105501772));
#811 = CARTESIAN_POINT('',(-3.322782280455,24.275924838673,
    67.959059907987));
#812 = CARTESIAN_POINT('',(-3.064922103338,24.308997614836,68.));
#813 = CARTESIAN_POINT('',(-2.8,24.339474110999,68.));
#814 = ORIENTED_EDGE('',*,*,#815,.T.);
#815 = EDGE_CURVE('',#785,#259,#816,.T.);
#816 = LINE('',#817,#818);
#817 = CARTESIAN_POINT('',(-2.8,20.5,68.));
#818 = VECTOR('',#819,1.);
#819 = DIRECTION('',(0.,1.,0.));
#820 = ORIENTED_EDGE('',*,*,#267,.F.);
#821 = ORIENTED_EDGE('',*,*,#705,.F.);
#822 = CYLINDRICAL_SURFACE('',#823,2.);
#823 = AXIS2_PLACEMENT_3D('',#824,#825,#826);
#824 = CARTESIAN_POINT('',(-2.8,20.5,66.));
#825 = DIRECTION('',(0.,1.,0.));
#826 = DIRECTION('',(0.,0.,1.));
#827 = ADVANCED_FACE('',(#828),#840,.F.);
#828 = FACE_BOUND('',#829,.F.);
#829 = EDGE_LOOP('',(#830,#831,#838,#839));
#830 = ORIENTED_EDGE('',*,*,#815,.F.);
#831 = ORIENTED_EDGE('',*,*,#832,.F.);
#832 = EDGE_CURVE('',#739,#785,#833,.T.);
#833 = CIRCLE('',#834,24.5);
#834 = AXIS2_PLACEMENT_3D('',#835,#836,#837);
#835 = CARTESIAN_POINT('',(0.,0.,68.));
#836 = DIRECTION('',(0.,-0.,1.));
#837 = DIRECTION('',(0.53528704554,0.844670219007,0.));
#838 = ORIENTED_EDGE('',*,*,#738,.T.);
#839 = ORIENTED_EDGE('',*,*,#258,.T.);
#840 = PLANE('',#841);
#841 = AXIS2_PLACEMENT_3D('',#842,#843,#844);
#842 = CARTESIAN_POINT('',(-2.8,20.5,68.));
#843 = DIRECTION('',(0.,0.,1.));
#844 = DIRECTION('',(1.,0.,0.));
#845 = ADVANCED_FACE('',(#846),#905,.F.);
#846 = FACE_BOUND('',#847,.F.);
#847 = EDGE_LOOP('',(#848,#897,#903,#904));
#848 = ORIENTED_EDGE('',*,*,#849,.F.);
#849 = EDGE_CURVE('',#850,#850,#852,.T.);
#850 = VERTEX_POINT('',#851);
#851 = CARTESIAN_POINT('',(-6.1,23.728463919942,56.));
#852 = B_SPLINE_CURVE_WITH_KNOTS('',7,(#853,#854,#855,#856,#857,#858,
    #859,#860,#861,#862,#863,#864,#865,#866,#867,#868,#869,#870,#871,
    #872,#873,#874,#875,#876,#877,#878,#879,#880,#881,#882,#883,#884,
    #885,#886,#887,#888,#889,#890,#891,#892,#893,#894,#895,#896),
  .UNSPECIFIED.,.T.,.F.,(8,6,6,6,6,6,6,8),(0.,0.151835350134,
    0.287335728322,0.423695296019,0.587072712806,0.712927225471,
    0.838665854278,1.),.UNSPECIFIED.);
#853 = CARTESIAN_POINT('',(-6.1,23.728463919942,56.));
#854 = CARTESIAN_POINT('',(-6.1,23.728463919942,55.807514605104));
#855 = CARTESIAN_POINT('',(-6.072984717429,23.735408806963,
    55.614972016411));
#856 = CARTESIAN_POINT('',(-6.018919554549,23.749308000423,
    55.425178240564));
#857 = CARTESIAN_POINT('',(-5.937284447115,23.770086784768,
    55.241193177692));
#858 = CARTESIAN_POINT('',(-5.827323122944,23.797529241872,
    55.066708805914));
#859 = CARTESIAN_POINT('',(-5.688255498988,23.831148027197,
    54.906472475464));
#860 = CARTESIAN_POINT('',(-5.369615860453,23.904832393066,
    54.64287084163));
#861 = CARTESIAN_POINT('',(-5.19176094058,23.944797586585,
    54.531726043255));
#862 = CARTESIAN_POINT('',(-4.989757090792,23.988426898221,
    54.445152225656));
#863 = CARTESIAN_POINT('',(-4.770513775336,24.033305413222,
    54.391156823457));
#864 = CARTESIAN_POINT('',(-4.543111605005,24.076946474198,
    54.374206625401));
#865 = CARTESIAN_POINT('',(-4.317327027172,24.117594153495,
    54.395005053373));
#866 = CARTESIAN_POINT('',(-3.885500584314,24.190931192375,
    54.505879239152));
#867 = CARTESIAN_POINT('',(-3.687014902083,24.222308617813,
    54.594486651302));
#868 = CARTESIAN_POINT('',(-3.51050444154,24.248339629703,
    54.709445176992));
#869 = CARTESIAN_POINT('',(-3.35817611976,24.269513595545,
    54.844812176645));
#870 = CARTESIAN_POINT('',(-3.231145612362,24.286376224694,
    54.994982222363));
#871 = CARTESIAN_POINT('',(-3.129508022316,24.299428763848,
    55.154628253335));
#872 = CARTESIAN_POINT('',(-2.959743045514,24.320744613949,
    55.515397193053));
#873 = CARTESIAN_POINT('',(-2.899592883971,24.327879717432,
    55.724107244706));
#874 = CARTESIAN_POINT('',(-2.872457182467,24.330978744275,
    55.939707234295));
#875 = CARTESIAN_POINT('',(-2.878798635504,24.330248913524,
    56.157311153452));
#876 = CARTESIAN_POINT('',(-2.918770833889,24.325641024359,
    56.37192614287));
#877 = CARTESIAN_POINT('',(-2.992088166787,24.316841663054,
    56.578317930128));
#878 = CARTESIAN_POINT('',(-3.179426506371,24.29296194608,
    56.919085104788));
#879 = CARTESIAN_POINT('',(-3.282072923838,24.279553575616,
    57.062462491112));
#880 = CARTESIAN_POINT('',(-3.406460495959,24.262746786425,
    57.196623992158));
#881 = CARTESIAN_POINT('',(-3.552279291457,24.242143823848,
    57.317099705171));
#882 = CARTESIAN_POINT('',(-3.718372714196,24.21733902214,
    57.419310788604));
#883 = CARTESIAN_POINT('',(-3.902716040018,24.188007493363,
    57.498540938597));
#884 = CARTESIAN_POINT('',(-4.301292736539,24.120317255368,
    57.600878040523));
#885 = CARTESIAN_POINT('',(-4.510188442521,24.082868287455,
    57.622673221087));
#886 = CARTESIAN_POINT('',(-4.721440492778,24.042692765025,
    57.612063041607));
#887 = CARTESIAN_POINT('',(-4.926908234744,24.001209015578,
    57.569223813855));
#888 = CARTESIAN_POINT('',(-5.118916423021,23.960397670261,
    57.497404022944));
#889 = CARTESIAN_POINT('',(-5.291298928077,23.922281612834,
    57.402796440387));
#890 = CARTESIAN_POINT('',(-5.631839068891,23.844725115082,
    57.155379545592));
#891 = CARTESIAN_POINT('',(-5.790148542721,23.806789032436,
    56.989923138682));
#892 = CARTESIAN_POINT('',(-5.915231517452,23.775696073526,
    56.806788862216));
#893 = CARTESIAN_POINT('',(-6.008001911894,23.752115028036,
    56.61196323542));
#894 = CARTESIAN_POINT('',(-6.06935574065,23.736341633313,56.41013140054
    ));
#895 = CARTESIAN_POINT('',(-6.1,23.728463919942,56.20500213008));
#896 = CARTESIAN_POINT('',(-6.1,23.728463919942,56.));
#897 = ORIENTED_EDGE('',*,*,#898,.F.);
#898 = EDGE_CURVE('',#299,#850,#899,.T.);
#899 = LINE('',#900,#901);
#900 = CARTESIAN_POINT('',(-6.1,29.,56.));
#901 = VECTOR('',#902,1.);
#902 = DIRECTION('',(-6.E-17,-1.,0.));
#903 = ORIENTED_EDGE('',*,*,#298,.T.);
#904 = ORIENTED_EDGE('',*,*,#898,.T.);
#905 = CYLINDRICAL_SURFACE('',#906,1.6);
#906 = AXIS2_PLACEMENT_3D('',#907,#908,#909);
#907 = CARTESIAN_POINT('',(-4.5,29.,56.));
#908 = DIRECTION('',(-6.E-17,-1.,0.));
#909 = DIRECTION('',(-1.,6.E-17,0.));
#910 = ADVANCED_FACE('',(#911),#970,.F.);
#911 = FACE_BOUND('',#912,.F.);
#912 = EDGE_LOOP('',(#913,#962,#968,#969));
#913 = ORIENTED_EDGE('',*,*,#914,.F.);
#914 = EDGE_CURVE('',#915,#915,#917,.T.);
#915 = VERTEX_POINT('',#916);
#916 = CARTESIAN_POINT('',(-1.65,24.444375631216,78.));
#917 = B_SPLINE_CURVE_WITH_KNOTS('',7,(#918,#919,#920,#921,#922,#923,
    #924,#925,#926,#927,#928,#929,#930,#931,#932,#933,#934,#935,#936,
    #937,#938,#939,#940,#941,#942,#943,#944,#945,#946,#947,#948,#949,
    #950,#951,#952,#953,#954,#955,#956,#957,#958,#959,#960,#961),
  .UNSPECIFIED.,.T.,.F.,(8,6,6,6,6,6,6,8),(0.,0.152564013875,
    0.285759558534,0.422016612137,0.588488989519,0.714358186152,
    0.838001618367,1.),.UNSPECIFIED.);
#918 = CARTESIAN_POINT('',(-1.65,24.444375631216,78.));
#919 = CARTESIAN_POINT('',(-1.65,24.444375631216,77.802692133874));
#920 = CARTESIAN_POINT('',(-1.622474595898,24.446233508671,
    77.605461726303));
#921 = CARTESIAN_POINT('',(-1.567454593334,24.449947849468,
    77.410744201739));
#922 = CARTESIAN_POINT('',(-1.484152387991,24.455373365931,
    77.221299453929));
#923 = CARTESIAN_POINT('',(-1.371300384551,24.462209744922,
    77.040725079132));
#924 = CARTESIAN_POINT('',(-1.22745394524,24.46986485114,76.874008439016
    ));
#925 = CARTESIAN_POINT('',(-0.898351428294,24.484005782338,
    76.601751159397));
#926 = CARTESIAN_POINT('',(-0.715385397525,24.490743190247,
    76.486758650313));
#927 = CARTESIAN_POINT('',(-0.506526002561,24.496695317202,
    76.396720306394));
#928 = CARTESIAN_POINT('',(-0.279316734856,24.500680840829,
    76.340613826259));
#929 = CARTESIAN_POINT('',(-4.381109113586E-02,24.501842065639,
    76.323258021499));
#930 = CARTESIAN_POINT('',(0.189277962585,24.500266432094,
    76.345079132932));
#931 = CARTESIAN_POINT('',(0.636479752751,24.492775421012,
    76.459901036925));
#932 = CARTESIAN_POINT('',(0.842259291364,24.486892103383,
    76.552528838886));
#933 = CARTESIAN_POINT('',(1.024019701432,24.479763455689,76.67196297128
    ));
#934 = CARTESIAN_POINT('',(1.180092106713,24.472333136514,
    76.811662278695));
#935 = CARTESIAN_POINT('',(1.309917940696,24.465344251002,
    76.965832334852));
#936 = CARTESIAN_POINT('',(1.413830928582,24.459300226895,
    77.129296479303));
#937 = CARTESIAN_POINT('',(1.589646431392,24.448566551684,
    77.502923441292));
#938 = CARTESIAN_POINT('',(1.650698877066,24.444391667488,
    77.718290520156));
#939 = CARTESIAN_POINT('',(1.677810162718,24.442434544668,
    77.938735108901));
#940 = CARTESIAN_POINT('',(1.671442025568,24.44288737585,78.160782614419
    ));
#941 = CARTESIAN_POINT('',(1.631227811531,24.445756654379,
    78.380672161386));
#942 = CARTESIAN_POINT('',(1.55633817495,24.450767868711,78.5940182219)
  );
#943 = CARTESIAN_POINT('',(1.36240864801,24.462232908193,78.946774721852
    ));
#944 = CARTESIAN_POINT('',(1.257435140974,24.468105133337,
    79.093631943355));
#945 = CARTESIAN_POINT('',(1.130204331583,24.474650959851,
    79.231440236065));
#946 = CARTESIAN_POINT('',(0.980665971001,24.48142632972,79.355809437125
    ));
#947 = CARTESIAN_POINT('',(0.809532752284,24.48781407341,79.461977927801
    ));
#948 = CARTESIAN_POINT('',(0.618412596482,24.493078061276,79.54473782036
    ));
#949 = CARTESIAN_POINT('',(0.205943440798,24.499987271132,
    79.650641899538));
#950 = CARTESIAN_POINT('',(-9.539601139937E-03,24.501606024136,
    79.673460094191));
#951 = CARTESIAN_POINT('',(-0.22817588334,24.500903390947,
    79.662717031021));
#952 = CARTESIAN_POINT('',(-0.44105810713,24.497758738274,
    79.618294784575));
#953 = CARTESIAN_POINT('',(-0.63965386908,24.492765278316,
    79.543671649069));
#954 = CARTESIAN_POINT('',(-0.8172212612,24.486843001476,79.445766161822
    ));
#955 = CARTESIAN_POINT('',(-1.169815095942,24.472874436279,
    79.18959174577));
#956 = CARTESIAN_POINT('',(-1.333649507881,24.464474935977,
    79.017162502835));
#957 = CARTESIAN_POINT('',(-1.46195432555,24.456815242734,
    78.827472986586));
#958 = CARTESIAN_POINT('',(-1.556495955051,24.45068804927,
    78.626853819279));
#959 = CARTESIAN_POINT('',(-1.618820688023,24.446480023921,
    78.419923606373));
#960 = CARTESIAN_POINT('',(-1.65,24.444375631216,78.209989954127));
#961 = CARTESIAN_POINT('',(-1.65,24.444375631216,78.));
#962 = ORIENTED_EDGE('',*,*,#963,.F.);
#963 = EDGE_CURVE('',#350,#915,#964,.T.);
#964 = LINE('',#965,#966);
#965 = CARTESIAN_POINT('',(-1.65,29.,78.));
#966 = VECTOR('',#967,1.);
#967 = DIRECTION('',(-6.E-17,-1.,0.));
#968 = ORIENTED_EDGE('',*,*,#349,.T.);
#969 = ORIENTED_EDGE('',*,*,#963,.T.);
#970 = CYLINDRICAL_SURFACE('',#971,1.65);
#971 = AXIS2_PLACEMENT_3D('',#972,#973,#974);
#972 = CARTESIAN_POINT('',(1.78E-15,29.,78.));
#973 = DIRECTION('',(-6.E-17,-1.,0.));
#974 = DIRECTION('',(-1.,6.E-17,0.));
#975 = ADVANCED_FACE('',(#976,#982,#985,#988,#991,#997,#1000),#1003,.F.
  );
#976 = FACE_BOUND('',#977,.F.);
#977 = EDGE_LOOP('',(#978,#979,#980,#981));
#978 = ORIENTED_EDGE('',*,*,#439,.T.);
#979 = ORIENTED_EDGE('',*,*,#415,.F.);
#980 = ORIENTED_EDGE('',*,*,#462,.F.);
#981 = ORIENTED_EDGE('',*,*,#488,.T.);
#982 = FACE_BOUND('',#983,.F.);
#983 = EDGE_LOOP('',(#984));
#984 = ORIENTED_EDGE('',*,*,#504,.T.);
#985 = FACE_BOUND('',#986,.F.);
#986 = EDGE_LOOP('',(#987));
#987 = ORIENTED_EDGE('',*,*,#569,.T.);
#988 = FACE_BOUND('',#989,.F.);
#989 = EDGE_LOOP('',(#990));
#990 = ORIENTED_EDGE('',*,*,#640,.T.);
#991 = FACE_BOUND('',#992,.F.);
#992 = EDGE_LOOP('',(#993,#994,#995,#996));
#993 = ORIENTED_EDGE('',*,*,#713,.F.);
#994 = ORIENTED_EDGE('',*,*,#746,.F.);
#995 = ORIENTED_EDGE('',*,*,#832,.T.);
#996 = ORIENTED_EDGE('',*,*,#784,.F.);
#997 = FACE_BOUND('',#998,.F.);
#998 = EDGE_LOOP('',(#999));
#999 = ORIENTED_EDGE('',*,*,#849,.T.);
#1000 = FACE_BOUND('',#1001,.F.);
#1001 = EDGE_LOOP('',(#1002));
#1002 = ORIENTED_EDGE('',*,*,#914,.T.);
#1003 = CYLINDRICAL_SURFACE('',#1004,24.5);
#1004 = AXIS2_PLACEMENT_3D('',#1005,#1006,#1007);
#1005 = CARTESIAN_POINT('',(0.,0.,24.3));
#1006 = DIRECTION('',(0.,0.,1.));
#1007 = DIRECTION('',(0.53528704554,0.844670219007,0.));
#1008 = ( GEOMETRIC_REPRESENTATION_CONTEXT(3) 
GLOBAL_UNCERTAINTY_ASSIGNED_CONTEXT((#1012)) 
GLOBAL_UNIT_ASSIGNED_CONTEXT((#1009,#1010,#1011)) REPRESENTATION_CONTEXT
('Context #1','3D Context with UNIT and UNCERTAINTY') );
#1009 = ( LENGTH_UNIT() NAMED_UNIT(*) SI_UNIT(.MILLI.,.METRE.) );
#1010 = ( NAMED_UNIT(*) PLANE_ANGLE_UNIT() SI_UNIT($,.RADIAN.) );
#1011 = ( NAMED_UNIT(*) SI_UNIT($,.STERADIAN.) SOLID_ANGLE_UNIT() );
#1012 = UNCERTAINTY_MEASURE_WITH_UNIT(LENGTH_MEASURE(1.E-07),#1009,
  'distance_accuracy_value','confusion accuracy');
#1013 = PRODUCT_RELATED_PRODUCT_CATEGORY('part',$,(#7));
ENDSEC;
END-ISO-10303-21;
