ISO-10303-21;
HEADER;
FILE_DESCRIPTION(('FreeCAD Model'),'2;1');
FILE_NAME('Open CASCADE Shape Model','2026-09-22T17:20:31',('FreeCAD'),(
    'FreeCAD'),'Open CASCADE STEP processor 7.8','FreeCAD','Unknown');
FILE_SCHEMA(('AUTOMOTIVE_DESIGN { 1 0 10303 214 1 1 1 1 }'));
ENDSEC;
DATA;
#1 = APPLICATION_PROTOCOL_DEFINITION('international standard',
  'automotive_design',2000,#2);
#2 = APPLICATION_CONTEXT(
  'core data for automotive mechanical design processes');
#3 = SHAPE_DEFINITION_REPRESENTATION(#4,#10);
#4 = PRODUCT_DEFINITION_SHAPE('','',#5);
#5 = PRODUCT_DEFINITION('design','',#6,#9);
#6 = PRODUCT_DEFINITION_FORMATION('','',#7);
#7 = PRODUCT('Open CASCADE STEP translator 7.8 6',
  'Open CASCADE STEP translator 7.8 6','',(#8));
#8 = PRODUCT_CONTEXT('',#2,'mechanical');
#9 = PRODUCT_DEFINITION_CONTEXT('part definition',#2,'design');
#10 = ADVANCED_BREP_SHAPE_REPRESENTATION('',(#11,#15),#663);
#11 = AXIS2_PLACEMENT_3D('',#12,#13,#14);
#12 = CARTESIAN_POINT('',(0.,0.,0.));
#13 = DIRECTION('',(0.,0.,1.));
#14 = DIRECTION('',(1.,0.,-0.));
#15 = MANIFOLD_SOLID_BREP('',#16);
#16 = CLOSED_SHELL('',(#17,#255,#287,#311,#335,#353,#424,#456,#503,#550,
    #568,#639));
#17 = ADVANCED_FACE('',(#18,#54,#111,#193),#250,.T.);
#18 = FACE_BOUND('',#19,.T.);
#19 = EDGE_LOOP('',(#20,#31,#39,#48));
#20 = ORIENTED_EDGE('',*,*,#21,.F.);
#21 = EDGE_CURVE('',#22,#24,#26,.T.);
#22 = VERTEX_POINT('',#23);
#23 = CARTESIAN_POINT('',(24.595582622335,-11.13810196882,73.7));
#24 = VERTEX_POINT('',#25);
#25 = CARTESIAN_POINT('',(24.595582622335,11.138101968823,73.7));
#26 = CIRCLE('',#27,27.);
#27 = AXIS2_PLACEMENT_3D('',#28,#29,#30);
#28 = CARTESIAN_POINT('',(0.,0.,73.7));
#29 = DIRECTION('',(-0.,0.,1.));
#30 = DIRECTION('',(0.910947504531,-0.412522295142,0.));
#31 = ORIENTED_EDGE('',*,*,#32,.F.);
#32 = EDGE_CURVE('',#33,#22,#35,.T.);
#33 = VERTEX_POINT('',#34);
#34 = CARTESIAN_POINT('',(24.595582622335,-11.13810196882,34.3));
#35 = LINE('',#36,#37);
#36 = CARTESIAN_POINT('',(24.595582622335,-11.13810196882,34.3));
#37 = VECTOR('',#38,1.);
#38 = DIRECTION('',(0.,0.,1.));
#39 = ORIENTED_EDGE('',*,*,#40,.T.);
#40 = EDGE_CURVE('',#33,#41,#43,.T.);
#41 = VERTEX_POINT('',#42);
#42 = CARTESIAN_POINT('',(24.595582622335,11.138101968823,34.3));
#43 = CIRCLE('',#44,27.);
#44 = AXIS2_PLACEMENT_3D('',#45,#46,#47);
#45 = CARTESIAN_POINT('',(0.,0.,34.3));
#46 = DIRECTION('',(-0.,0.,1.));
#47 = DIRECTION('',(0.910947504531,-0.412522295142,0.));
#48 = ORIENTED_EDGE('',*,*,#49,.T.);
#49 = EDGE_CURVE('',#41,#24,#50,.T.);
#50 = LINE('',#51,#52);
#51 = CARTESIAN_POINT('',(24.595582622335,11.138101968823,34.3));
#52 = VECTOR('',#53,1.);
#53 = DIRECTION('',(0.,0.,1.));
#54 = FACE_BOUND('',#55,.T.);
#55 = EDGE_LOOP('',(#56));
#56 = ORIENTED_EDGE('',*,*,#57,.T.);
#57 = EDGE_CURVE('',#58,#58,#60,.T.);
#58 = VERTEX_POINT('',#59);
#59 = CARTESIAN_POINT('',(27.,0.,37.35));
#60 = B_SPLINE_CURVE_WITH_KNOTS('',7,(#61,#62,#63,#64,#65,#66,#67,#68,
    #69,#70,#71,#72,#73,#74,#75,#76,#77,#78,#79,#80,#81,#82,#83,#84,#85,
    #86,#87,#88,#89,#90,#91,#92,#93,#94,#95,#96,#97,#98,#99,#100,#101,
    #102,#103,#104,#105,#106,#107,#108,#109,#110),.UNSPECIFIED.,.T.,.F.,
  (8,6,6,6,6,6,6,6,8),(0.,0.142549421687,0.276300646746,0.444354630542,
    0.591068329947,0.686279073829,0.791018237673,0.892378209403,1.),
  .UNSPECIFIED.);
#61 = CARTESIAN_POINT('',(27.,-6.E-15,37.35));
#62 = CARTESIAN_POINT('',(27.,-0.226277228574,37.35));
#63 = CARTESIAN_POINT('',(26.997787570442,-0.446770019298,
    37.386202695156));
#64 = CARTESIAN_POINT('',(26.993566508082,-0.654729063741,37.45527854202
    ));
#65 = CARTESIAN_POINT('',(26.987926618355,-0.844516299368,
    37.552541347832));
#66 = CARTESIAN_POINT('',(26.981689308751,-1.011842555322,
    37.672031309138));
#67 = CARTESIAN_POINT('',(26.975573873603,-1.154196236719,
    37.806639651034));
#68 = CARTESIAN_POINT('',(26.964869942961,-1.381266890486,
    38.081120920309));
#69 = CARTESIAN_POINT('',(26.960065709323,-1.472068617314,
    38.223867185982));
#70 = CARTESIAN_POINT('',(26.955956065727,-1.543981082624,
    38.373616652729));
#71 = CARTESIAN_POINT('',(26.95275940717,-1.597351934808,38.528028136118
    ));
#72 = CARTESIAN_POINT('',(26.950603608416,-1.632566638439,
    38.685088465657));
#73 = CARTESIAN_POINT('',(26.949536174116,-1.65,38.84297728283));
#74 = CARTESIAN_POINT('',(26.949536174116,-1.65,39.197293842767));
#75 = CARTESIAN_POINT('',(26.951221107665,-1.622478512177,
    39.394510594018));
#76 = CARTESIAN_POINT('',(26.95458970906,-1.567466129557,39.58921955944)
  );
#77 = CARTESIAN_POINT('',(26.959510583415,-1.484171866754,39.77866406927
    ));
#78 = CARTESIAN_POINT('',(26.965712047345,-1.371323151564,
    39.959246759881));
#79 = CARTESIAN_POINT('',(26.972657259192,-1.227471125479,
    40.125977348255));
#80 = CARTESIAN_POINT('',(26.985487791178,-0.898341987696,
    40.398256650545));
#81 = CARTESIAN_POINT('',(26.991600709588,-0.715372494911,
    40.513247530786));
#82 = CARTESIAN_POINT('',(26.997001382517,-0.50651288373,40.603283570039
    ));
#83 = CARTESIAN_POINT('',(27.000617995225,-0.279303701234,
    40.659388274317));
#84 = CARTESIAN_POINT('',(27.001671485348,-4.37994030286E-02,
    40.676741451263));
#85 = CARTESIAN_POINT('',(27.000241608398,0.189285162453,40.654919018456
    ));
#86 = CARTESIAN_POINT('',(26.994701295936,0.553792095335,40.56132954504)
  );
#87 = CARTESIAN_POINT('',(26.991690028381,0.693388676719,40.50947359));
#88 = CARTESIAN_POINT('',(26.98796232731,0.827228136431,40.443085031744)
  );
#89 = CARTESIAN_POINT('',(26.983698945459,0.953516592572,40.362941943146
    ));
#90 = CARTESIAN_POINT('',(26.979128731852,1.070587297983,40.270098084403
    ));
#91 = CARTESIAN_POINT('',(26.974501425465,1.176946897955,40.165859523697
    ));
#92 = CARTESIAN_POINT('',(26.965156210364,1.375194081488,39.926219844753
    ));
#93 = CARTESIAN_POINT('',(26.960475048558,1.464583429422,39.788723618268
    ));
#94 = CARTESIAN_POINT('',(26.956319911064,1.537847331554,39.641279643082
    ));
#95 = CARTESIAN_POINT('',(26.952983678311,1.593696305566,39.486158351627
    ));
#96 = CARTESIAN_POINT('',(26.950684901527,1.631235923259,39.325833698322
    ));
#97 = CARTESIAN_POINT('',(26.949536174116,1.65,39.162906601749));
#98 = CARTESIAN_POINT('',(26.949536174116,1.65,38.842349242233));
#99 = CARTESIAN_POINT('',(26.950612096856,1.632426822625,38.684602516815
    ));
#100 = CARTESIAN_POINT('',(26.952766417723,1.597240569128,
    38.528029075418));
#101 = CARTESIAN_POINT('',(26.955948836519,1.544077490855,
    38.374067382303));
#102 = CARTESIAN_POINT('',(26.960046522785,1.472402021425,
    38.224494020986));
#103 = CARTESIAN_POINT('',(26.964852391284,1.381639227612,38.08157099858
    ));
#104 = CARTESIAN_POINT('',(26.97557177159,1.154240828323,37.806693553023
    ));
#105 = CARTESIAN_POINT('',(26.98168772357,1.011885780307,37.672054997344
    ));
#106 = CARTESIAN_POINT('',(26.9879274516,0.844513357608,37.552518508947)
  );
#107 = CARTESIAN_POINT('',(26.99356929912,0.654660297291,37.455232990148
    ));
#108 = CARTESIAN_POINT('',(26.997789539465,0.446654753665,
    37.386170454211));
#109 = CARTESIAN_POINT('',(27.,0.226176451595,37.35));
#110 = CARTESIAN_POINT('',(27.,-6.E-15,37.35));
#111 = FACE_BOUND('',#112,.T.);
#112 = EDGE_LOOP('',(#113,#124,#155,#164));
#113 = ORIENTED_EDGE('',*,*,#114,.F.);
#114 = EDGE_CURVE('',#115,#117,#119,.T.);
#115 = VERTEX_POINT('',#116);
#116 = CARTESIAN_POINT('',(26.832815729997,-3.,52.3));
#117 = VERTEX_POINT('',#118);
#118 = CARTESIAN_POINT('',(26.832815729997,3.,52.3));
#119 = CIRCLE('',#120,27.);
#120 = AXIS2_PLACEMENT_3D('',#121,#122,#123);
#121 = CARTESIAN_POINT('',(0.,0.,52.3));
#122 = DIRECTION('',(-0.,0.,1.));
#123 = DIRECTION('',(0.910947504531,-0.412522295142,0.));
#124 = ORIENTED_EDGE('',*,*,#125,.F.);
#125 = EDGE_CURVE('',#126,#115,#128,.T.);
#126 = VERTEX_POINT('',#127);
#127 = CARTESIAN_POINT('',(26.832815729997,-3.,55.7));
#128 = B_SPLINE_CURVE_WITH_KNOTS('',7,(#129,#130,#131,#132,#133,#134,
    #135,#136,#137,#138,#139,#140,#141,#142,#143,#144,#145,#146,#147,
    #148,#149,#150,#151,#152,#153,#154),.UNSPECIFIED.,.F.,.F.,(8,6,6,6,8
    ),(0.,0.258066086704,0.500000008426,0.74193392488,1.),
  .UNSPECIFIED.);
#129 = CARTESIAN_POINT('',(26.832815729997,-3.,55.7));
#130 = CARTESIAN_POINT('',(26.806748199394,-3.233155081738,55.7));
#131 = CARTESIAN_POINT('',(26.7789742332,-3.460168001948,55.662693585885
    ));
#132 = CARTESIAN_POINT('',(26.750477996585,-3.67418054603,55.59161621923
    ));
#133 = CARTESIAN_POINT('',(26.722524882766,-3.869515586011,
    55.491602075996));
#134 = CARTESIAN_POINT('',(26.696473536884,-4.041883052809,
    55.368696786095));
#135 = CARTESIAN_POINT('',(26.673382776469,-4.188759151832,
    55.230021686746));
#136 = CARTESIAN_POINT('',(26.635439359581,-4.423414864396,
    54.946371656418));
#137 = CARTESIAN_POINT('',(26.619764775684,-4.516771030111,
    54.799363003623));
#138 = CARTESIAN_POINT('',(26.607043359758,-4.590564730088,
    54.645529586183));
#139 = CARTESIAN_POINT('',(26.59742824232,-4.645415503428,
    54.487048239592));
#140 = CARTESIAN_POINT('',(26.590995802429,-4.681803422574,
    54.325653744009));
#141 = CARTESIAN_POINT('',(26.587779147571,-4.7,54.162835234868));
#142 = CARTESIAN_POINT('',(26.587779147571,-4.7,53.837164768678));
#143 = CARTESIAN_POINT('',(26.590995802298,-4.68180342342,53.67434624731
    ));
#144 = CARTESIAN_POINT('',(26.597428242965,-4.645415499387,
    53.512951766661));
#145 = CARTESIAN_POINT('',(26.607043358523,-4.590564737721,
    53.354470417049));
#146 = CARTESIAN_POINT('',(26.6197647768,-4.516771023234,53.200636989295
    ));
#147 = CARTESIAN_POINT('',(26.635439359157,-4.42341486702,
    53.053628346754));
#148 = CARTESIAN_POINT('',(26.673382776469,-4.188759151832,
    52.769978313254));
#149 = CARTESIAN_POINT('',(26.696473536884,-4.041883052809,
    52.631303213905));
#150 = CARTESIAN_POINT('',(26.722524882766,-3.869515586012,
    52.508397924005));
#151 = CARTESIAN_POINT('',(26.750477996585,-3.67418054603,52.40838378077
    ));
#152 = CARTESIAN_POINT('',(26.7789742332,-3.460168001949,52.337306414115
    ));
#153 = CARTESIAN_POINT('',(26.806748199394,-3.233155081738,52.3));
#154 = CARTESIAN_POINT('',(26.832815729997,-3.,52.3));
#155 = ORIENTED_EDGE('',*,*,#156,.T.);
#156 = EDGE_CURVE('',#126,#157,#159,.T.);
#157 = VERTEX_POINT('',#158);
#158 = CARTESIAN_POINT('',(26.832815729997,3.,55.7));
#159 = CIRCLE('',#160,27.);
#160 = AXIS2_PLACEMENT_3D('',#161,#162,#163);
#161 = CARTESIAN_POINT('',(0.,0.,55.7));
#162 = DIRECTION('',(-0.,0.,1.));
#163 = DIRECTION('',(0.910947504531,-0.412522295142,0.));
#164 = ORIENTED_EDGE('',*,*,#165,.F.);
#165 = EDGE_CURVE('',#117,#157,#166,.T.);
#166 = B_SPLINE_CURVE_WITH_KNOTS('',7,(#167,#168,#169,#170,#171,#172,
    #173,#174,#175,#176,#177,#178,#179,#180,#181,#182,#183,#184,#185,
    #186,#187,#188,#189,#190,#191,#192),.UNSPECIFIED.,.F.,.F.,(8,6,6,6,8
    ),(0.,0.258066079469,0.5,0.741933920531,1.),.UNSPECIFIED.);
#167 = CARTESIAN_POINT('',(26.832815729997,3.,52.3));
#168 = CARTESIAN_POINT('',(26.806748199394,3.233155081738,52.3));
#169 = CARTESIAN_POINT('',(26.7789742332,3.460168001949,52.337306414115)
  );
#170 = CARTESIAN_POINT('',(26.750477996585,3.67418054603,52.408383780769
    ));
#171 = CARTESIAN_POINT('',(26.722524882766,3.869515586012,
    52.508397924005));
#172 = CARTESIAN_POINT('',(26.696473536884,4.041883052809,
    52.631303213905));
#173 = CARTESIAN_POINT('',(26.673382776469,4.188759151832,
    52.769978313254));
#174 = CARTESIAN_POINT('',(26.635439359157,4.42341486702,53.053628346754
    ));
#175 = CARTESIAN_POINT('',(26.6197647768,4.516771023234,53.200636989295)
  );
#176 = CARTESIAN_POINT('',(26.607043358523,4.590564737721,
    53.354470417048));
#177 = CARTESIAN_POINT('',(26.597428242965,4.645415499387,
    53.512951766661));
#178 = CARTESIAN_POINT('',(26.590995802298,4.68180342342,53.67434624731)
  );
#179 = CARTESIAN_POINT('',(26.587779147571,4.7,53.837164768678));
#180 = CARTESIAN_POINT('',(26.587779147571,4.7,54.162835231322));
#181 = CARTESIAN_POINT('',(26.590995802298,4.68180342342,54.325653752691
    ));
#182 = CARTESIAN_POINT('',(26.597428242965,4.645415499387,
    54.487048233338));
#183 = CARTESIAN_POINT('',(26.607043358523,4.590564737721,
    54.645529582952));
#184 = CARTESIAN_POINT('',(26.6197647768,4.516771023234,54.799363010705)
  );
#185 = CARTESIAN_POINT('',(26.635439359157,4.42341486702,54.946371653246
    ));
#186 = CARTESIAN_POINT('',(26.673382776469,4.188759151831,
    55.230021686746));
#187 = CARTESIAN_POINT('',(26.696473536884,4.04188305281,55.368696786095
    ));
#188 = CARTESIAN_POINT('',(26.722524882766,3.869515586011,
    55.491602075996));
#189 = CARTESIAN_POINT('',(26.750477996585,3.674180546031,55.59161621923
    ));
#190 = CARTESIAN_POINT('',(26.7789742332,3.460168001948,55.662693585885)
  );
#191 = CARTESIAN_POINT('',(26.806748199394,3.233155081738,55.7));
#192 = CARTESIAN_POINT('',(26.832815729997,3.,55.7));
#193 = FACE_BOUND('',#194,.T.);
#194 = EDGE_LOOP('',(#195));
#195 = ORIENTED_EDGE('',*,*,#196,.T.);
#196 = EDGE_CURVE('',#197,#197,#199,.T.);
#197 = VERTEX_POINT('',#198);
#198 = CARTESIAN_POINT('',(27.,0.,67.35));
#199 = B_SPLINE_CURVE_WITH_KNOTS('',7,(#200,#201,#202,#203,#204,#205,
    #206,#207,#208,#209,#210,#211,#212,#213,#214,#215,#216,#217,#218,
    #219,#220,#221,#222,#223,#224,#225,#226,#227,#228,#229,#230,#231,
    #232,#233,#234,#235,#236,#237,#238,#239,#240,#241,#242,#243,#244,
    #245,#246,#247,#248,#249),.UNSPECIFIED.,.T.,.F.,(8,6,6,6,6,6,6,6,8),
  (0.,0.142549421674,0.276300646727,0.444354630508,0.591068329949,
    0.686279073827,0.791018237667,0.892378209394,1.),.UNSPECIFIED.);
#200 = CARTESIAN_POINT('',(27.,-6.E-15,67.35));
#201 = CARTESIAN_POINT('',(27.,-0.226277228574,67.35));
#202 = CARTESIAN_POINT('',(26.997787570442,-0.446770019298,
    67.386202695156));
#203 = CARTESIAN_POINT('',(26.993566508082,-0.654729063741,
    67.455278542019));
#204 = CARTESIAN_POINT('',(26.987926618355,-0.844516299368,
    67.552541347832));
#205 = CARTESIAN_POINT('',(26.981689308751,-1.011842555322,
    67.672031309138));
#206 = CARTESIAN_POINT('',(26.975573873603,-1.154196236719,
    67.806639651034));
#207 = CARTESIAN_POINT('',(26.964869942961,-1.38126689049,
    68.081120920315));
#208 = CARTESIAN_POINT('',(26.960065709322,-1.472068617317,
    68.223867185989));
#209 = CARTESIAN_POINT('',(26.955956065727,-1.543981082624,
    68.373616652733));
#210 = CARTESIAN_POINT('',(26.95275940717,-1.597351934807,
    68.528028136116));
#211 = CARTESIAN_POINT('',(26.950603608416,-1.632566638438,
    68.685088465652));
#212 = CARTESIAN_POINT('',(26.949536174116,-1.65,68.842977282824));
#213 = CARTESIAN_POINT('',(26.949536174116,-1.65,69.197293842767));
#214 = CARTESIAN_POINT('',(26.951221107665,-1.622478512177,
    69.394510594018));
#215 = CARTESIAN_POINT('',(26.95458970906,-1.567466129557,
    69.589219559439));
#216 = CARTESIAN_POINT('',(26.959510583415,-1.484171866753,
    69.778664069271));
#217 = CARTESIAN_POINT('',(26.965712047345,-1.371323151565,
    69.959246759881));
#218 = CARTESIAN_POINT('',(26.972657259192,-1.227471125479,
    70.125977348255));
#219 = CARTESIAN_POINT('',(26.98548779118,-0.898341987645,
    70.398256650587));
#220 = CARTESIAN_POINT('',(26.991600709585,-0.715372494958,
    70.513247530723));
#221 = CARTESIAN_POINT('',(26.997001382516,-0.506512883792,
    70.603283570052));
#222 = CARTESIAN_POINT('',(27.000617995227,-0.279303701175,
    70.659388274353));
#223 = CARTESIAN_POINT('',(27.001671485345,-4.379940296931E-02,
    70.676741451227));
#224 = CARTESIAN_POINT('',(27.000241608399,0.18928516239,70.654919018472
    ));
#225 = CARTESIAN_POINT('',(26.994701295936,0.553792095335,70.56132954504
    ));
#226 = CARTESIAN_POINT('',(26.991690028381,0.693388676719,70.50947359));
#227 = CARTESIAN_POINT('',(26.98796232731,0.827228136431,70.443085031744
    ));
#228 = CARTESIAN_POINT('',(26.983698945459,0.953516592572,
    70.362941943146));
#229 = CARTESIAN_POINT('',(26.979128731852,1.070587297983,
    70.270098084403));
#230 = CARTESIAN_POINT('',(26.974501425465,1.176946897955,
    70.165859523697));
#231 = CARTESIAN_POINT('',(26.965156210364,1.375194081488,
    69.926219844753));
#232 = CARTESIAN_POINT('',(26.960475048558,1.464583429422,
    69.788723618268));
#233 = CARTESIAN_POINT('',(26.956319911064,1.537847331554,
    69.641279643082));
#234 = CARTESIAN_POINT('',(26.952983678311,1.593696305566,
    69.486158351627));
#235 = CARTESIAN_POINT('',(26.950684901527,1.631235923259,
    69.325833698322));
#236 = CARTESIAN_POINT('',(26.949536174116,1.65,69.162906601749));
#237 = CARTESIAN_POINT('',(26.949536174116,1.65,68.842349242231));
#238 = CARTESIAN_POINT('',(26.950612096856,1.632426822625,
    68.684602516813));
#239 = CARTESIAN_POINT('',(26.952766417723,1.597240569127,
    68.528029075417));
#240 = CARTESIAN_POINT('',(26.955948836519,1.544077490856,
    68.374067382303));
#241 = CARTESIAN_POINT('',(26.960046522785,1.472402021426,
    68.224494020988));
#242 = CARTESIAN_POINT('',(26.964852391284,1.381639227613,
    68.081570998581));
#243 = CARTESIAN_POINT('',(26.975571771591,1.154240828308,
    67.806693553006));
#244 = CARTESIAN_POINT('',(26.98168772357,1.011885780302,67.672054997348
    ));
#245 = CARTESIAN_POINT('',(26.9879274516,0.844513357623,67.55251850896)
  );
#246 = CARTESIAN_POINT('',(26.99356929912,0.654660297308,67.455232990151
    ));
#247 = CARTESIAN_POINT('',(26.997789539465,0.446654753663,
    67.386170454204));
#248 = CARTESIAN_POINT('',(27.,0.226176451574,67.35));
#249 = CARTESIAN_POINT('',(27.,-6.E-15,67.35));
#250 = CYLINDRICAL_SURFACE('',#251,27.);
#251 = AXIS2_PLACEMENT_3D('',#252,#253,#254);
#252 = CARTESIAN_POINT('',(0.,0.,34.3));
#253 = DIRECTION('',(0.,0.,1.));
#254 = DIRECTION('',(0.910947504531,-0.412522295142,0.));
#255 = ADVANCED_FACE('',(#256),#282,.T.);
#256 = FACE_BOUND('',#257,.T.);
#257 = EDGE_LOOP('',(#258,#259,#267,#276));
#258 = ORIENTED_EDGE('',*,*,#21,.T.);
#259 = ORIENTED_EDGE('',*,*,#260,.F.);
#260 = EDGE_CURVE('',#261,#24,#263,.T.);
#261 = VERTEX_POINT('',#262);
#262 = CARTESIAN_POINT('',(22.318213861008,10.106796230969,73.7));
#263 = LINE('',#264,#265);
#264 = CARTESIAN_POINT('',(0.,0.,73.7));
#265 = VECTOR('',#266,1.);
#266 = DIRECTION('',(0.910947504531,0.412522295142,0.));
#267 = ORIENTED_EDGE('',*,*,#268,.F.);
#268 = EDGE_CURVE('',#269,#261,#271,.T.);
#269 = VERTEX_POINT('',#270);
#270 = CARTESIAN_POINT('',(22.318213861008,-10.10679623096,73.7));
#271 = CIRCLE('',#272,24.5);
#272 = AXIS2_PLACEMENT_3D('',#273,#274,#275);
#273 = CARTESIAN_POINT('',(0.,0.,73.7));
#274 = DIRECTION('',(-0.,0.,1.));
#275 = DIRECTION('',(0.910947504531,-0.412522295142,0.));
#276 = ORIENTED_EDGE('',*,*,#277,.T.);
#277 = EDGE_CURVE('',#269,#22,#278,.T.);
#278 = LINE('',#279,#280);
#279 = CARTESIAN_POINT('',(0.,0.,73.7));
#280 = VECTOR('',#281,1.);
#281 = DIRECTION('',(0.910947504531,-0.412522295142,0.));
#282 = PLANE('',#283);
#283 = AXIS2_PLACEMENT_3D('',#284,#285,#286);
#284 = CARTESIAN_POINT('',(0.,0.,73.7));
#285 = DIRECTION('',(0.,0.,1.));
#286 = DIRECTION('',(0.910947504531,-0.412522295142,0.));
#287 = ADVANCED_FACE('',(#288),#306,.F.);
#288 = FACE_BOUND('',#289,.F.);
#289 = EDGE_LOOP('',(#290,#291,#299,#305));
#290 = ORIENTED_EDGE('',*,*,#260,.F.);
#291 = ORIENTED_EDGE('',*,*,#292,.F.);
#292 = EDGE_CURVE('',#293,#261,#295,.T.);
#293 = VERTEX_POINT('',#294);
#294 = CARTESIAN_POINT('',(22.318213861008,10.106796230969,34.3));
#295 = LINE('',#296,#297);
#296 = CARTESIAN_POINT('',(22.318213861008,10.106796230969,33.3));
#297 = VECTOR('',#298,1.);
#298 = DIRECTION('',(0.,0.,1.));
#299 = ORIENTED_EDGE('',*,*,#300,.T.);
#300 = EDGE_CURVE('',#293,#41,#301,.T.);
#301 = LINE('',#302,#303);
#302 = CARTESIAN_POINT('',(0.,0.,34.3));
#303 = VECTOR('',#304,1.);
#304 = DIRECTION('',(0.910947504531,0.412522295142,0.));
#305 = ORIENTED_EDGE('',*,*,#49,.T.);
#306 = PLANE('',#307);
#307 = AXIS2_PLACEMENT_3D('',#308,#309,#310);
#308 = CARTESIAN_POINT('',(0.,0.,34.3));
#309 = DIRECTION('',(0.412522295142,-0.910947504531,0.));
#310 = DIRECTION('',(0.910947504531,0.412522295142,0.));
#311 = ADVANCED_FACE('',(#312),#330,.T.);
#312 = FACE_BOUND('',#313,.T.);
#313 = EDGE_LOOP('',(#314,#322,#328,#329));
#314 = ORIENTED_EDGE('',*,*,#315,.F.);
#315 = EDGE_CURVE('',#316,#269,#318,.T.);
#316 = VERTEX_POINT('',#317);
#317 = CARTESIAN_POINT('',(22.318213861008,-10.10679623096,34.3));
#318 = LINE('',#319,#320);
#319 = CARTESIAN_POINT('',(22.318213861008,-10.10679623096,33.3));
#320 = VECTOR('',#321,1.);
#321 = DIRECTION('',(0.,0.,1.));
#322 = ORIENTED_EDGE('',*,*,#323,.T.);
#323 = EDGE_CURVE('',#316,#33,#324,.T.);
#324 = LINE('',#325,#326);
#325 = CARTESIAN_POINT('',(0.,0.,34.3));
#326 = VECTOR('',#327,1.);
#327 = DIRECTION('',(0.910947504531,-0.412522295142,0.));
#328 = ORIENTED_EDGE('',*,*,#32,.T.);
#329 = ORIENTED_EDGE('',*,*,#277,.F.);
#330 = PLANE('',#331);
#331 = AXIS2_PLACEMENT_3D('',#332,#333,#334);
#332 = CARTESIAN_POINT('',(0.,0.,34.3));
#333 = DIRECTION('',(-0.412522295142,-0.910947504531,0.));
#334 = DIRECTION('',(0.910947504531,-0.412522295142,0.));
#335 = ADVANCED_FACE('',(#336),#348,.F.);
#336 = FACE_BOUND('',#337,.F.);
#337 = EDGE_LOOP('',(#338,#339,#340,#347));
#338 = ORIENTED_EDGE('',*,*,#40,.T.);
#339 = ORIENTED_EDGE('',*,*,#300,.F.);
#340 = ORIENTED_EDGE('',*,*,#341,.F.);
#341 = EDGE_CURVE('',#316,#293,#342,.T.);
#342 = CIRCLE('',#343,24.5);
#343 = AXIS2_PLACEMENT_3D('',#344,#345,#346);
#344 = CARTESIAN_POINT('',(0.,0.,34.3));
#345 = DIRECTION('',(-0.,0.,1.));
#346 = DIRECTION('',(0.910947504531,-0.412522295142,0.));
#347 = ORIENTED_EDGE('',*,*,#323,.T.);
#348 = PLANE('',#349);
#349 = AXIS2_PLACEMENT_3D('',#350,#351,#352);
#350 = CARTESIAN_POINT('',(0.,0.,34.3));
#351 = DIRECTION('',(0.,0.,1.));
#352 = DIRECTION('',(0.910947504531,-0.412522295142,0.));
#353 = ADVANCED_FACE('',(#354),#419,.F.);
#354 = FACE_BOUND('',#355,.F.);
#355 = EDGE_LOOP('',(#356,#411,#417,#418));
#356 = ORIENTED_EDGE('',*,*,#357,.F.);
#357 = EDGE_CURVE('',#358,#358,#360,.T.);
#358 = VERTEX_POINT('',#359);
#359 = CARTESIAN_POINT('',(24.5,0.,37.35));
#360 = B_SPLINE_CURVE_WITH_KNOTS('',7,(#361,#362,#363,#364,#365,#366,
    #367,#368,#369,#370,#371,#372,#373,#374,#375,#376,#377,#378,#379,
    #380,#381,#382,#383,#384,#385,#386,#387,#388,#389,#390,#391,#392,
    #393,#394,#395,#396,#397,#398,#399,#400,#401,#402,#403,#404,#405,
    #406,#407,#408,#409,#410),.UNSPECIFIED.,.T.,.F.,(8,6,6,6,6,6,6,6,8),
  (0.,0.142604373121,0.276387925323,0.444406267266,0.591094165671,
    0.686285178528,0.791003037012,0.892387903152,1.),.UNSPECIFIED.);
#361 = CARTESIAN_POINT('',(24.5,-6.E-15,37.35));
#362 = CARTESIAN_POINT('',(24.5,-0.226290097838,37.35));
#363 = CARTESIAN_POINT('',(24.497561532817,-0.446784970138,
    37.386206810772));
#364 = CARTESIAN_POINT('',(24.492909637578,-0.654739578849,
    37.455284504817));
#365 = CARTESIAN_POINT('',(24.486694128367,-0.844521103667,
    37.552545757312));
#366 = CARTESIAN_POINT('',(24.479819628296,-1.011843462698,
    37.672032750862));
#367 = CARTESIAN_POINT('',(24.473078959426,-1.15419569215,
    37.806638992763));
#368 = CARTESIAN_POINT('',(24.461280744906,-1.381251601581,
    38.081102439198));
#369 = CARTESIAN_POINT('',(24.455983547262,-1.472078437947,
    38.223869017041));
#370 = CARTESIAN_POINT('',(24.451452440392,-1.543995497246,38.3736473924
    ));
#371 = CARTESIAN_POINT('',(24.44792943323,-1.597346133544,
    38.528043796203));
#372 = CARTESIAN_POINT('',(24.445553780908,-1.63254786223,
    38.685043846051));
#373 = CARTESIAN_POINT('',(24.444375631216,-1.65,38.842894847654));
#374 = CARTESIAN_POINT('',(24.444375631216,-1.65,39.197307866126));
#375 = CARTESIAN_POINT('',(24.446233508671,-1.622474595897,
    39.394538273697));
#376 = CARTESIAN_POINT('',(24.449947849468,-1.567454593334,
    39.589255798261));
#377 = CARTESIAN_POINT('',(24.455373365931,-1.484152387991,
    39.778700546072));
#378 = CARTESIAN_POINT('',(24.462209744922,-1.371300384551,
    39.959274920868));
#379 = CARTESIAN_POINT('',(24.46986485114,-1.22745394524,40.125991560984
    ));
#380 = CARTESIAN_POINT('',(24.484005782338,-0.898351428294,
    40.398248840603));
#381 = CARTESIAN_POINT('',(24.490743190247,-0.715385397525,
    40.513241349687));
#382 = CARTESIAN_POINT('',(24.496695317202,-0.506526002561,
    40.603279693606));
#383 = CARTESIAN_POINT('',(24.500680840829,-0.279316734856,
    40.659386173741));
#384 = CARTESIAN_POINT('',(24.501842065639,-4.381109113551E-02,
    40.676741978501));
#385 = CARTESIAN_POINT('',(24.500266432094,0.189277962585,
    40.654920867068));
#386 = CARTESIAN_POINT('',(24.494160506883,0.553792265821,
    40.561329501267));
#387 = CARTESIAN_POINT('',(24.490841835169,0.693388728249,40.50947353778
    ));
#388 = CARTESIAN_POINT('',(24.486733498906,0.82722803655,40.443085058201
    ));
#389 = CARTESIAN_POINT('',(24.482034592414,0.953516480071,
    40.362942034744));
#390 = CARTESIAN_POINT('',(24.476997262334,1.070587296298,
    40.270098125546));
#391 = CARTESIAN_POINT('',(24.471896763905,1.176946971902,
    40.165859434311));
#392 = CARTESIAN_POINT('',(24.46159548764,1.375194397105,39.926219463237
    ));
#393 = CARTESIAN_POINT('',(24.456435179878,1.464583718437,
    39.788723085956));
#394 = CARTESIAN_POINT('',(24.451854516167,1.537847335835,39.64127937085
    ));
#395 = CARTESIAN_POINT('',(24.448176464141,1.593696134755,
    39.486158569333));
#396 = CARTESIAN_POINT('',(24.445642091174,1.631235815248,
    39.325834267023));
#397 = CARTESIAN_POINT('',(24.444375631216,1.65,39.162907073582));
#398 = CARTESIAN_POINT('',(24.444375631216,1.65,38.842277983074));
#399 = CARTESIAN_POINT('',(24.44556289088,1.632410939815,38.684521223894
    ));
#400 = CARTESIAN_POINT('',(24.447938485995,1.597217431226,
    38.527982391303));
#401 = CARTESIAN_POINT('',(24.451445943663,1.544067655655,
    38.374073320995));
#402 = CARTESIAN_POINT('',(24.455961422811,1.472420911501,
    38.224539418002));
#403 = CARTESIAN_POINT('',(24.461258655393,1.381676712887,
    38.081616310493));
#404 = CARTESIAN_POINT('',(24.47307663941,1.154240340705,37.806692963595
    ));
#405 = CARTESIAN_POINT('',(24.479817879271,1.011886736243,
    37.672056461137));
#406 = CARTESIAN_POINT('',(24.486695048885,0.844518145586,
    37.552522882835));
#407 = CARTESIAN_POINT('',(24.492912717181,0.654670718353,
    37.455238895541));
#408 = CARTESIAN_POINT('',(24.497563705765,0.446669557999,
    37.386174525873));
#409 = CARTESIAN_POINT('',(24.5,0.226189188908,37.35));
#410 = CARTESIAN_POINT('',(24.5,-6.E-15,37.35));
#411 = ORIENTED_EDGE('',*,*,#412,.F.);
#412 = EDGE_CURVE('',#58,#358,#413,.T.);
#413 = LINE('',#414,#415);
#414 = CARTESIAN_POINT('',(29.,4.E-16,37.35));
#415 = VECTOR('',#416,1.);
#416 = DIRECTION('',(-1.,0.,0.));
#417 = ORIENTED_EDGE('',*,*,#57,.T.);
#418 = ORIENTED_EDGE('',*,*,#412,.T.);
#419 = CYLINDRICAL_SURFACE('',#420,1.65);
#420 = AXIS2_PLACEMENT_3D('',#421,#422,#423);
#421 = CARTESIAN_POINT('',(29.,0.,39.));
#422 = DIRECTION('',(-1.,0.,0.));
#423 = DIRECTION('',(0.,0.,-1.));
#424 = ADVANCED_FACE('',(#425),#451,.T.);
#425 = FACE_BOUND('',#426,.T.);
#426 = EDGE_LOOP('',(#427,#435,#444,#450));
#427 = ORIENTED_EDGE('',*,*,#428,.F.);
#428 = EDGE_CURVE('',#429,#117,#431,.T.);
#429 = VERTEX_POINT('',#430);
#430 = CARTESIAN_POINT('',(24.315632831576,3.,52.3));
#431 = LINE('',#432,#433);
#432 = CARTESIAN_POINT('',(20.5,3.,52.3));
#433 = VECTOR('',#434,1.);
#434 = DIRECTION('',(1.,0.,0.));
#435 = ORIENTED_EDGE('',*,*,#436,.F.);
#436 = EDGE_CURVE('',#437,#429,#439,.T.);
#437 = VERTEX_POINT('',#438);
#438 = CARTESIAN_POINT('',(24.315632831576,-3.,52.3));
#439 = CIRCLE('',#440,24.5);
#440 = AXIS2_PLACEMENT_3D('',#441,#442,#443);
#441 = CARTESIAN_POINT('',(0.,0.,52.3));
#442 = DIRECTION('',(-0.,0.,1.));
#443 = DIRECTION('',(0.910947504531,-0.412522295142,0.));
#444 = ORIENTED_EDGE('',*,*,#445,.T.);
#445 = EDGE_CURVE('',#437,#115,#446,.T.);
#446 = LINE('',#447,#448);
#447 = CARTESIAN_POINT('',(20.5,-3.,52.3));
#448 = VECTOR('',#449,1.);
#449 = DIRECTION('',(1.,0.,0.));
#450 = ORIENTED_EDGE('',*,*,#114,.T.);
#451 = PLANE('',#452);
#452 = AXIS2_PLACEMENT_3D('',#453,#454,#455);
#453 = CARTESIAN_POINT('',(20.5,3.,52.3));
#454 = DIRECTION('',(0.,0.,1.));
#455 = DIRECTION('',(0.,-1.,0.));
#456 = ADVANCED_FACE('',(#457),#498,.F.);
#457 = FACE_BOUND('',#458,.F.);
#458 = EDGE_LOOP('',(#459,#460,#468,#497));
#459 = ORIENTED_EDGE('',*,*,#125,.F.);
#460 = ORIENTED_EDGE('',*,*,#461,.F.);
#461 = EDGE_CURVE('',#462,#126,#464,.T.);
#462 = VERTEX_POINT('',#463);
#463 = CARTESIAN_POINT('',(24.315632831576,-3.,55.7));
#464 = LINE('',#465,#466);
#465 = CARTESIAN_POINT('',(20.5,-3.,55.7));
#466 = VECTOR('',#467,1.);
#467 = DIRECTION('',(1.,0.,0.));
#468 = ORIENTED_EDGE('',*,*,#469,.T.);
#469 = EDGE_CURVE('',#462,#437,#470,.T.);
#470 = B_SPLINE_CURVE_WITH_KNOTS('',7,(#471,#472,#473,#474,#475,#476,
    #477,#478,#479,#480,#481,#482,#483,#484,#485,#486,#487,#488,#489,
    #490,#491,#492,#493,#494,#495,#496),.UNSPECIFIED.,.F.,.F.,(8,6,6,6,8
    ),(0.,0.258296217797,0.500000008231,0.741703793524,1.),
  .UNSPECIFIED.);
#471 = CARTESIAN_POINT('',(24.315632831576,-3.,55.7));
#472 = CARTESIAN_POINT('',(24.28687193388,-3.233113142761,55.7));
#473 = CARTESIAN_POINT('',(24.256225248329,-3.460056162878,55.6627070145
    ));
#474 = CARTESIAN_POINT('',(24.224774890381,-3.673997974862,
    55.591671895102));
#475 = CARTESIAN_POINT('',(24.193912123541,-3.86929284529,
    55.491719866575));
#476 = CARTESIAN_POINT('',(24.16513220421,-4.041676362987,
    55.368864906196));
#477 = CARTESIAN_POINT('',(24.139605037889,-4.188631912629,
    55.230175492521));
#478 = CARTESIAN_POINT('',(24.097665439554,-4.423324861523,
    54.946480451202));
#479 = CARTESIAN_POINT('',(24.080343246081,-4.516663849067,
    54.799546689522));
#480 = CARTESIAN_POINT('',(24.066275026633,-4.590480618013,
    54.645740744041));
#481 = CARTESIAN_POINT('',(24.05563669673,-4.645367960895,
    54.487241909467));
#482 = CARTESIAN_POINT('',(24.048517891122,-4.681787182625,
    54.325796154691));
#483 = CARTESIAN_POINT('',(24.044957891417,-4.7,54.162907861636));
#484 = CARTESIAN_POINT('',(24.044957891417,-4.7,53.837092141829));
#485 = CARTESIAN_POINT('',(24.048517890981,-4.681787183451,
    53.674203836826));
#486 = CARTESIAN_POINT('',(24.055636697426,-4.645367956951,
    53.512758096644));
#487 = CARTESIAN_POINT('',(24.066275025302,-4.590480625462,
    53.354259259107));
#488 = CARTESIAN_POINT('',(24.080343247284,-4.516663842358,
    53.20045330357));
#489 = CARTESIAN_POINT('',(24.097665439097,-4.423324864082,
    53.053519551891));
#490 = CARTESIAN_POINT('',(24.139605037889,-4.188631912629,
    52.769824507479));
#491 = CARTESIAN_POINT('',(24.16513220421,-4.041676362987,
    52.631135093805));
#492 = CARTESIAN_POINT('',(24.193912123541,-3.869292845289,
    52.508280133424));
#493 = CARTESIAN_POINT('',(24.224774890381,-3.673997974863,
    52.408328104898));
#494 = CARTESIAN_POINT('',(24.256225248329,-3.460056162877,52.3372929855
    ));
#495 = CARTESIAN_POINT('',(24.28687193388,-3.233113142761,52.3));
#496 = CARTESIAN_POINT('',(24.315632831576,-3.,52.3));
#497 = ORIENTED_EDGE('',*,*,#445,.T.);
#498 = CYLINDRICAL_SURFACE('',#499,1.7);
#499 = AXIS2_PLACEMENT_3D('',#500,#501,#502);
#500 = CARTESIAN_POINT('',(20.5,-3.,54.));
#501 = DIRECTION('',(1.,0.,0.));
#502 = DIRECTION('',(0.,0.,1.));
#503 = ADVANCED_FACE('',(#504),#545,.F.);
#504 = FACE_BOUND('',#505,.F.);
#505 = EDGE_LOOP('',(#506,#537,#543,#544));
#506 = ORIENTED_EDGE('',*,*,#507,.T.);
#507 = EDGE_CURVE('',#429,#508,#510,.T.);
#508 = VERTEX_POINT('',#509);
#509 = CARTESIAN_POINT('',(24.315632831576,3.,55.7));
#510 = B_SPLINE_CURVE_WITH_KNOTS('',7,(#511,#512,#513,#514,#515,#516,
    #517,#518,#519,#520,#521,#522,#523,#524,#525,#526,#527,#528,#529,
    #530,#531,#532,#533,#534,#535,#536),.UNSPECIFIED.,.F.,.F.,(8,6,6,6,8
    ),(0.,0.258296213545,0.5,0.741703786455,1.),.UNSPECIFIED.);
#511 = CARTESIAN_POINT('',(24.315632831576,3.,52.3));
#512 = CARTESIAN_POINT('',(24.28687193388,3.233113142761,52.3));
#513 = CARTESIAN_POINT('',(24.256225248329,3.460056162877,52.3372929855)
  );
#514 = CARTESIAN_POINT('',(24.224774890381,3.673997974863,
    52.408328104898));
#515 = CARTESIAN_POINT('',(24.193912123541,3.869292845289,
    52.508280133424));
#516 = CARTESIAN_POINT('',(24.16513220421,4.041676362987,52.631135093805
    ));
#517 = CARTESIAN_POINT('',(24.139605037889,4.188631912629,
    52.769824507479));
#518 = CARTESIAN_POINT('',(24.097665439554,4.423324861523,
    53.053519548798));
#519 = CARTESIAN_POINT('',(24.080343246081,4.516663849067,
    53.200453310478));
#520 = CARTESIAN_POINT('',(24.066275026633,4.590480618013,
    53.354259255959));
#521 = CARTESIAN_POINT('',(24.05563669673,4.645367960895,53.512758090533
    ));
#522 = CARTESIAN_POINT('',(24.048517891122,4.681787182625,
    53.674203845309));
#523 = CARTESIAN_POINT('',(24.044957891417,4.7,53.837092138364));
#524 = CARTESIAN_POINT('',(24.044957891417,4.7,54.162907861636));
#525 = CARTESIAN_POINT('',(24.048517891122,4.681787182625,
    54.325796154691));
#526 = CARTESIAN_POINT('',(24.05563669673,4.645367960895,54.487241909467
    ));
#527 = CARTESIAN_POINT('',(24.066275026633,4.590480618014,
    54.645740744041));
#528 = CARTESIAN_POINT('',(24.080343246081,4.516663849067,
    54.799546689523));
#529 = CARTESIAN_POINT('',(24.097665439554,4.423324861523,
    54.946480451202));
#530 = CARTESIAN_POINT('',(24.139605037889,4.188631912629,
    55.230175492521));
#531 = CARTESIAN_POINT('',(24.16513220421,4.041676362988,55.368864906195
    ));
#532 = CARTESIAN_POINT('',(24.193912123541,3.869292845288,
    55.491719866576));
#533 = CARTESIAN_POINT('',(24.224774890381,3.673997974863,
    55.591671895102));
#534 = CARTESIAN_POINT('',(24.256225248329,3.460056162877,55.6627070145)
  );
#535 = CARTESIAN_POINT('',(24.28687193388,3.233113142762,55.7));
#536 = CARTESIAN_POINT('',(24.315632831576,3.,55.7));
#537 = ORIENTED_EDGE('',*,*,#538,.T.);
#538 = EDGE_CURVE('',#508,#157,#539,.T.);
#539 = LINE('',#540,#541);
#540 = CARTESIAN_POINT('',(20.5,3.,55.7));
#541 = VECTOR('',#542,1.);
#542 = DIRECTION('',(1.,0.,0.));
#543 = ORIENTED_EDGE('',*,*,#165,.F.);
#544 = ORIENTED_EDGE('',*,*,#428,.F.);
#545 = CYLINDRICAL_SURFACE('',#546,1.7);
#546 = AXIS2_PLACEMENT_3D('',#547,#548,#549);
#547 = CARTESIAN_POINT('',(20.5,3.,54.));
#548 = DIRECTION('',(1.,0.,0.));
#549 = DIRECTION('',(0.,0.,1.));
#550 = ADVANCED_FACE('',(#551),#563,.F.);
#551 = FACE_BOUND('',#552,.F.);
#552 = EDGE_LOOP('',(#553,#554,#561,#562));
#553 = ORIENTED_EDGE('',*,*,#538,.F.);
#554 = ORIENTED_EDGE('',*,*,#555,.F.);
#555 = EDGE_CURVE('',#462,#508,#556,.T.);
#556 = CIRCLE('',#557,24.5);
#557 = AXIS2_PLACEMENT_3D('',#558,#559,#560);
#558 = CARTESIAN_POINT('',(0.,0.,55.7));
#559 = DIRECTION('',(-0.,0.,1.));
#560 = DIRECTION('',(0.910947504531,-0.412522295142,0.));
#561 = ORIENTED_EDGE('',*,*,#461,.T.);
#562 = ORIENTED_EDGE('',*,*,#156,.T.);
#563 = PLANE('',#564);
#564 = AXIS2_PLACEMENT_3D('',#565,#566,#567);
#565 = CARTESIAN_POINT('',(20.5,3.,55.7));
#566 = DIRECTION('',(0.,0.,1.));
#567 = DIRECTION('',(0.,-1.,0.));
#568 = ADVANCED_FACE('',(#569),#634,.F.);
#569 = FACE_BOUND('',#570,.F.);
#570 = EDGE_LOOP('',(#571,#626,#632,#633));
#571 = ORIENTED_EDGE('',*,*,#572,.F.);
#572 = EDGE_CURVE('',#573,#573,#575,.T.);
#573 = VERTEX_POINT('',#574);
#574 = CARTESIAN_POINT('',(24.5,0.,67.35));
#575 = B_SPLINE_CURVE_WITH_KNOTS('',7,(#576,#577,#578,#579,#580,#581,
    #582,#583,#584,#585,#586,#587,#588,#589,#590,#591,#592,#593,#594,
    #595,#596,#597,#598,#599,#600,#601,#602,#603,#604,#605,#606,#607,
    #608,#609,#610,#611,#612,#613,#614,#615,#616,#617,#618,#619,#620,
    #621,#622,#623,#624,#625),.UNSPECIFIED.,.T.,.F.,(8,6,6,6,6,6,6,6,8),
  (0.,0.142604373112,0.276387925304,0.444406267237,0.591094165634,
    0.686285178512,0.791003036988,0.892387903119,1.),.UNSPECIFIED.);
#576 = CARTESIAN_POINT('',(24.5,-6.E-15,67.35));
#577 = CARTESIAN_POINT('',(24.5,-0.226290097838,67.35));
#578 = CARTESIAN_POINT('',(24.497561532817,-0.446784970138,
    67.386206810772));
#579 = CARTESIAN_POINT('',(24.492909637578,-0.654739578849,
    67.455284504817));
#580 = CARTESIAN_POINT('',(24.486694128367,-0.844521103667,
    67.552545757312));
#581 = CARTESIAN_POINT('',(24.479819628296,-1.011843462698,
    67.672032750862));
#582 = CARTESIAN_POINT('',(24.473078959426,-1.15419569215,
    67.806638992763));
#583 = CARTESIAN_POINT('',(24.461280744906,-1.381251601578,
    68.081102439195));
#584 = CARTESIAN_POINT('',(24.455983547262,-1.472078437944,
    68.223869017037));
#585 = CARTESIAN_POINT('',(24.451452440392,-1.543995497246,
    68.373647392397));
#586 = CARTESIAN_POINT('',(24.44792943323,-1.597346133545,
    68.528043796203));
#587 = CARTESIAN_POINT('',(24.445553780908,-1.63254786223,
    68.685043846054));
#588 = CARTESIAN_POINT('',(24.444375631216,-1.65,68.842894847658));
#589 = CARTESIAN_POINT('',(24.444375631216,-1.65,69.197307866126));
#590 = CARTESIAN_POINT('',(24.446233508671,-1.622474595898,
    69.394538273697));
#591 = CARTESIAN_POINT('',(24.449947849468,-1.567454593334,
    69.589255798262));
#592 = CARTESIAN_POINT('',(24.455373365931,-1.484152387992,
    69.778700546071));
#593 = CARTESIAN_POINT('',(24.462209744922,-1.371300384551,
    69.959274920868));
#594 = CARTESIAN_POINT('',(24.46986485114,-1.22745394524,70.125991560984
    ));
#595 = CARTESIAN_POINT('',(24.484005782338,-0.898351428294,
    70.398248840603));
#596 = CARTESIAN_POINT('',(24.490743190247,-0.715385397525,
    70.513241349687));
#597 = CARTESIAN_POINT('',(24.496695317202,-0.506526002561,
    70.603279693605));
#598 = CARTESIAN_POINT('',(24.500680840829,-0.279316734856,
    70.659386173741));
#599 = CARTESIAN_POINT('',(24.501842065639,-4.381109113529E-02,
    70.676741978501));
#600 = CARTESIAN_POINT('',(24.500266432094,0.189277962585,
    70.654920867068));
#601 = CARTESIAN_POINT('',(24.494160506882,0.553792265862,
    70.561329501256));
#602 = CARTESIAN_POINT('',(24.49084183517,0.693388728205,70.509473537782
    ));
#603 = CARTESIAN_POINT('',(24.486733498908,0.827228036526,70.44308505823
    ));
#604 = CARTESIAN_POINT('',(24.482034592413,0.953516480102,
    70.362942034736));
#605 = CARTESIAN_POINT('',(24.476997262332,1.070587296324,
    70.270098125502));
#606 = CARTESIAN_POINT('',(24.471896763906,1.176946971873,
    70.165859434346));
#607 = CARTESIAN_POINT('',(24.46159548764,1.375194397105,69.926219463237
    ));
#608 = CARTESIAN_POINT('',(24.456435179878,1.464583718437,
    69.788723085956));
#609 = CARTESIAN_POINT('',(24.451854516167,1.537847335835,69.64127937085
    ));
#610 = CARTESIAN_POINT('',(24.448176464141,1.593696134755,
    69.486158569333));
#611 = CARTESIAN_POINT('',(24.445642091174,1.631235815248,
    69.325834267023));
#612 = CARTESIAN_POINT('',(24.444375631216,1.65,69.162907073582));
#613 = CARTESIAN_POINT('',(24.444375631216,1.65,68.842277983076));
#614 = CARTESIAN_POINT('',(24.44556289088,1.632410939816,68.684521223896
    ));
#615 = CARTESIAN_POINT('',(24.447938485995,1.597217431226,
    68.527982391304));
#616 = CARTESIAN_POINT('',(24.451445943663,1.544067655655,
    68.374073320994));
#617 = CARTESIAN_POINT('',(24.455961422811,1.4724209115,68.224539418));
#618 = CARTESIAN_POINT('',(24.461258655393,1.381676712885,
    68.081616310491));
#619 = CARTESIAN_POINT('',(24.473076639412,1.154240340659,
    67.806692963539));
#620 = CARTESIAN_POINT('',(24.479817879271,1.01188673623,67.67205646115)
  );
#621 = CARTESIAN_POINT('',(24.486695048882,0.844518145632,
    67.552522882875));
#622 = CARTESIAN_POINT('',(24.49291271718,0.65467071841,67.45523889555)
  );
#623 = CARTESIAN_POINT('',(24.497563705766,0.446669557991,
    67.386174525852));
#624 = CARTESIAN_POINT('',(24.5,0.226189188843,67.35));
#625 = CARTESIAN_POINT('',(24.5,-6.E-15,67.35));
#626 = ORIENTED_EDGE('',*,*,#627,.F.);
#627 = EDGE_CURVE('',#197,#573,#628,.T.);
#628 = LINE('',#629,#630);
#629 = CARTESIAN_POINT('',(29.,4.E-16,67.35));
#630 = VECTOR('',#631,1.);
#631 = DIRECTION('',(-1.,0.,0.));
#632 = ORIENTED_EDGE('',*,*,#196,.T.);
#633 = ORIENTED_EDGE('',*,*,#627,.T.);
#634 = CYLINDRICAL_SURFACE('',#635,1.65);
#635 = AXIS2_PLACEMENT_3D('',#636,#637,#638);
#636 = CARTESIAN_POINT('',(29.,0.,69.));
#637 = DIRECTION('',(-1.,0.,0.));
#638 = DIRECTION('',(0.,0.,-1.));
#639 = ADVANCED_FACE('',(#640,#646,#649,#655),#658,.F.);
#640 = FACE_BOUND('',#641,.F.);
#641 = EDGE_LOOP('',(#642,#643,#644,#645));
#642 = ORIENTED_EDGE('',*,*,#292,.T.);
#643 = ORIENTED_EDGE('',*,*,#268,.F.);
#644 = ORIENTED_EDGE('',*,*,#315,.F.);
#645 = ORIENTED_EDGE('',*,*,#341,.T.);
#646 = FACE_BOUND('',#647,.F.);
#647 = EDGE_LOOP('',(#648));
#648 = ORIENTED_EDGE('',*,*,#357,.T.);
#649 = FACE_BOUND('',#650,.F.);
#650 = EDGE_LOOP('',(#651,#652,#653,#654));
#651 = ORIENTED_EDGE('',*,*,#436,.F.);
#652 = ORIENTED_EDGE('',*,*,#469,.F.);
#653 = ORIENTED_EDGE('',*,*,#555,.T.);
#654 = ORIENTED_EDGE('',*,*,#507,.F.);
#655 = FACE_BOUND('',#656,.F.);
#656 = EDGE_LOOP('',(#657));
#657 = ORIENTED_EDGE('',*,*,#572,.T.);
#658 = CYLINDRICAL_SURFACE('',#659,24.5);
#659 = AXIS2_PLACEMENT_3D('',#660,#661,#662);
#660 = CARTESIAN_POINT('',(0.,0.,33.3));
#661 = DIRECTION('',(0.,0.,1.));
#662 = DIRECTION('',(0.910947504531,-0.412522295142,0.));
#663 = ( GEOMETRIC_REPRESENTATION_CONTEXT(3) 
GLOBAL_UNCERTAINTY_ASSIGNED_CONTEXT((#667)) GLOBAL_UNIT_ASSIGNED_CONTEXT
((#664,#665,#666)) REPRESENTATION_CONTEXT('Context #1',
  '3D Context with UNIT and UNCERTAINTY') );
#664 = ( LENGTH_UNIT() NAMED_UNIT(*) SI_UNIT(.MILLI.,.METRE.) );
#665 = ( NAMED_UNIT(*) PLANE_ANGLE_UNIT() SI_UNIT($,.RADIAN.) );
#666 = ( NAMED_UNIT(*) SI_UNIT($,.STERADIAN.) SOLID_ANGLE_UNIT() );
#667 = UNCERTAINTY_MEASURE_WITH_UNIT(LENGTH_MEASURE(1.E-07),#664,
  'distance_accuracy_value','confusion accuracy');
#668 = PRODUCT_RELATED_PRODUCT_CATEGORY('part',$,(#7));
ENDSEC;
END-ISO-10303-21;
