ISO-10303-21;
HEADER;
FILE_DESCRIPTION(('FreeCAD Model'),'2;1');
FILE_NAME('Open CASCADE Shape Model','2026-09-20T16:48:14',('FreeCAD'),(
    'FreeCAD'),'Open CASCADE STEP processor 7.8','FreeCAD','Unknown');
FILE_SCHEMA(('AUTOMOTIVE_DESIGN { 1 0 10303 214 1 1 1 1 }'));
ENDSEC;
DATA;
#1 = APPLICATION_PROTOCOL_DEFINITION('international standard',
  'automotive_design',2000,#2);
#2 = APPLICATION_CONTEXT(
  'core data for automotive mechanical design processes');
#3 = SHAPE_DEFINITION_REPRESENTATION(#4,#10);
#4 = PRODUCT_DEFINITION_SHAPE('','',#5);
#5 = PRODUCT_DEFINITION('design','',#6,#9);
#6 = PRODUCT_DEFINITION_FORMATION('','',#7);
#7 = PRODUCT('Open CASCADE STEP translator 7.8 6',
  'Open CASCADE STEP translator 7.8 6','',(#8));
#8 = PRODUCT_CONTEXT('',#2,'mechanical');
#9 = PRODUCT_DEFINITION_CONTEXT('part definition',#2,'design');
#10 = ADVANCED_BREP_SHAPE_REPRESENTATION('',(#11,#15),#953);
#11 = AXIS2_PLACEMENT_3D('',#12,#13,#14);
#12 = CARTESIAN_POINT('',(0.,0.,0.));
#13 = DIRECTION('',(0.,0.,1.));
#14 = DIRECTION('',(1.,0.,-0.));
#15 = MANIFOLD_SOLID_BREP('',#16);
#16 = CLOSED_SHELL('',(#17,#312,#344,#376,#401,#427,#453,#478,#549,#642,
    #667,#684,#709,#734,#787,#812,#837,#862,#887,#912,#933));
#17 = ADVANCED_FACE('',(#18),#307,.T.);
#18 = FACE_BOUND('',#19,.T.);
#19 = EDGE_LOOP('',(#20,#144,#153,#161,#168,#169,#178,#300));
#20 = ORIENTED_EDGE('',*,*,#21,.F.);
#21 = EDGE_CURVE('',#22,#24,#26,.T.);
#22 = VERTEX_POINT('',#23);
#23 = CARTESIAN_POINT('',(-24.89888148363,-27.36869929068,144.4));
#24 = VERTEX_POINT('',#25);
#25 = CARTESIAN_POINT('',(-27.36869929068,-24.89888148363,144.4));
#26 = B_SPLINE_CURVE_WITH_KNOTS('',6,(#27,#28,#29,#30,#31,#32,#33,#34,
    #35,#36,#37,#38,#39,#40,#41,#42,#43,#44,#45,#46,#47,#48,#49,#50,#51,
    #52,#53,#54,#55,#56,#57,#58,#59,#60,#61,#62,#63,#64,#65,#66,#67,#68,
    #69,#70,#71,#72,#73,#74,#75,#76,#77,#78,#79,#80,#81,#82,#83,#84,#85,
    #86,#87,#88,#89,#90,#91,#92,#93,#94,#95,#96,#97,#98,#99,#100,#101,
    #102,#103,#104,#105,#106,#107,#108,#109,#110,#111,#112,#113,#114,
    #115,#116,#117,#118,#119,#120,#121,#122,#123,#124,#125,#126,#127,
    #128,#129,#130,#131,#132,#133,#134,#135,#136,#137,#138,#139,#140,
    #141,#142,#143),.UNSPECIFIED.,.F.,.F.,(7,5,5,5,5,5,5,5,5,5,5,5,5,5,5
    ,5,5,5,5,5,5,5,5,7),(0.,4.771608993434E-02,8.591839888091E-02,
    0.116294771649,0.199983131602,0.283083821697,0.314106738226,
    0.354095714855,0.404018986809,0.441689876281,0.461229675574,
    0.473518582291,0.499956941614,0.538680939819,0.55821889209,
    0.595884954856,0.6458015464,0.685786218635,0.716806773063,
    0.800533654953,0.883600363426,0.913980781062,0.952189434801,1.),
  .UNSPECIFIED.);
#27 = CARTESIAN_POINT('',(-24.89888148363,-27.36869929068,144.4));
#28 = CARTESIAN_POINT('',(-24.79673242931,-27.44546682571,144.4789091747
    ));
#29 = CARTESIAN_POINT('',(-24.69862304587,-27.51675752066,
    144.56314933124));
#30 = CARTESIAN_POINT('',(-24.60472702832,-27.58269851615,
    144.65200759179));
#31 = CARTESIAN_POINT('',(-24.51513178859,-27.64346571365,
    144.74485620671));
#32 = CARTESIAN_POINT('',(-24.42985691859,-27.69926099375,
    144.84116853623));
#33 = CARTESIAN_POINT('',(-24.28403528027,-27.79114366754,
    145.02008953029));
#34 = CARTESIAN_POINT('',(-24.22195458413,-27.82893843156,
    145.10159373998));
#35 = CARTESIAN_POINT('',(-24.16261959793,-27.86377687075,
    145.18483088475));
#36 = CARTESIAN_POINT('',(-24.10601440902,-27.89575517761,
    145.26961003812));
#37 = CARTESIAN_POINT('',(-24.0521188776,-27.92496257635,145.35576595549
    ));
#38 = CARTESIAN_POINT('',(-23.96019036248,-27.97256754019,
    145.51264896843));
#39 = CARTESIAN_POINT('',(-23.92117061273,-27.99195337222,
    145.58291942653));
#40 = CARTESIAN_POINT('',(-23.88383904993,-28.00967955595,145.6538988611
    ));
#41 = CARTESIAN_POINT('',(-23.84818536909,-28.02578324492,
    145.72552185636));
#42 = CARTESIAN_POINT('',(-23.81420001627,-28.04029799264,145.7977289999
    ));
#43 = CARTESIAN_POINT('',(-23.69281498711,-28.08894749086,
    146.07086322871));
#44 = CARTESIAN_POINT('',(-23.61636837693,-28.11280201387,
    146.27525041184));
#45 = CARTESIAN_POINT('',(-23.55231522392,-28.1254640729,146.48256940538
    ));
#46 = CARTESIAN_POINT('',(-23.50059604959,-28.12732668047,
    146.69189393595));
#47 = CARTESIAN_POINT('',(-23.46119681529,-28.11865726638,
    146.90239754895));
#48 = CARTESIAN_POINT('',(-23.40745229198,-28.08052892394,
    147.32284242406));
#49 = CARTESIAN_POINT('',(-23.39294144991,-28.05122247199,147.5327109285
    ));
#50 = CARTESIAN_POINT('',(-23.39079228955,-28.01168918544,
    147.74225567352));
#51 = CARTESIAN_POINT('',(-23.40124577517,-27.96184164238,
    147.95066305449));
#52 = CARTESIAN_POINT('',(-23.42460488038,-27.9014921164,148.15701779983
    ));
#53 = CARTESIAN_POINT('',(-23.47503762524,-27.80365889692,
    148.43615898016));
#54 = CARTESIAN_POINT('',(-23.4906087122,-27.77554838435,148.51160350663
    ));
#55 = CARTESIAN_POINT('',(-23.50806442593,-27.74590323568,
    148.58655491474));
#56 = CARTESIAN_POINT('',(-23.52742957753,-27.71470239341,
    148.66095004338));
#57 = CARTESIAN_POINT('',(-23.54873080856,-27.68192246716,148.7347195644
    ));
#58 = CARTESIAN_POINT('',(-23.60198651256,-27.60321532781,
    148.90197420344));
#59 = CARTESIAN_POINT('',(-23.63523968303,-27.55622778048,
    148.99499255807));
#60 = CARTESIAN_POINT('',(-23.67181803241,-27.50651840034,
    149.08668395343));
#61 = CARTESIAN_POINT('',(-23.71178533628,-27.45402843067,
    149.17686079516));
#62 = CARTESIAN_POINT('',(-23.75520591053,-27.39869743184,
    149.26530684228));
#63 = CARTESIAN_POINT('',(-23.86074116404,-27.26776312262,
    149.45972871864));
#64 = CARTESIAN_POINT('',(-23.92481300414,-27.19054725866,
    149.56458752477));
#65 = CARTESIAN_POINT('',(-23.9944877555,-27.10868944642,149.66589025977
    ));
#66 = CARTESIAN_POINT('',(-24.06986728622,-27.02209164623,
    149.76304491034));
#67 = CARTESIAN_POINT('',(-24.15100108013,-26.93070651767,
    149.85534810991));
#68 = CARTESIAN_POINT('',(-24.30340323563,-26.76200935183,
    150.00738993714));
#69 = CARTESIAN_POINT('',(-24.37219899631,-26.68675551924,
    150.06955377457));
#70 = CARTESIAN_POINT('',(-24.44422754474,-26.60881853479,150.1281471069
    ));
#71 = CARTESIAN_POINT('',(-24.51942352183,-26.52826375002,
    150.18277361074));
#72 = CARTESIAN_POINT('',(-24.5976591744,-26.44521887103,150.23301327654
    ));
#73 = CARTESIAN_POINT('',(-24.72077618339,-26.31563233971,
    150.30201497578));
#74 = CARTESIAN_POINT('',(-24.763586756,-26.27076000261,150.32428875958)
  );
#75 = CARTESIAN_POINT('',(-24.8071281454,-26.22530472275,150.345210801)
  );
#76 = CARTESIAN_POINT('',(-24.85136409142,-26.17930278302,
    150.36472304546));
#77 = CARTESIAN_POINT('',(-24.89625157057,-26.13279724043,150.3827698423
    ));
#78 = CARTESIAN_POINT('',(-24.97034851724,-26.05630567283,
    150.40969575196));
#79 = CARTESIAN_POINT('',(-24.99919477466,-26.02659339877,
    150.41949181688));
#80 = CARTESIAN_POINT('',(-25.02826626696,-25.99671443899,
    150.42867509017));
#81 = CARTESIAN_POINT('',(-25.05754943296,-25.96668236927,150.4372336305
    ));
#82 = CARTESIAN_POINT('',(-25.08702970645,-25.93651177063,
    150.44515645063));
#83 = CARTESIAN_POINT('',(-25.18050594686,-25.84104469113,
    150.46808940184));
#84 = CARTESIAN_POINT('',(-25.24516387828,-25.77529880305,
    150.48075733728));
#85 = CARTESIAN_POINT('',(-25.31050441448,-25.70914171436,150.4903368593
    ));
#86 = CARTESIAN_POINT('',(-25.37635569059,-25.64274539133,
    150.49675622158));
#87 = CARTESIAN_POINT('',(-25.44253483881,-25.57629273357,
    150.49997720106));
#88 = CARTESIAN_POINT('',(-25.60597610582,-25.41284671547,
    150.50003315505));
#89 = CARTESIAN_POINT('',(-25.70341369065,-25.31598905466,
    150.49320466248));
#90 = CARTESIAN_POINT('',(-25.80053240138,-25.22003259186,
    150.47951242043));
#91 = CARTESIAN_POINT('',(-25.89677430661,-25.12553533238,150.4591350654
    ));
#92 = CARTESIAN_POINT('',(-25.99164820236,-25.03298822452,
    150.43238992897));
#93 = CARTESIAN_POINT('',(-26.13168776831,-24.89732314635,150.3831930964
    ));
#94 = CARTESIAN_POINT('',(-26.17819747139,-24.85242837219,150.365177811)
  );
#95 = CARTESIAN_POINT('',(-26.22420441173,-24.80818425595,
    150.34569656332));
#96 = CARTESIAN_POINT('',(-26.26966546477,-24.76463388852,
    150.32480494743));
#97 = CARTESIAN_POINT('',(-26.31454427904,-24.72181359856,
    150.30256097695));
#98 = CARTESIAN_POINT('',(-26.44414876749,-24.59866889832,
    150.23364622457));
#99 = CARTESIAN_POINT('',(-26.52720701677,-24.52041324875,
    150.18346227271));
#100 = CARTESIAN_POINT('',(-26.60777721866,-24.44519505647,
    150.12888920762));
#101 = CARTESIAN_POINT('',(-26.68573126459,-24.3731424772,
    150.07034697605));
#102 = CARTESIAN_POINT('',(-26.76100346924,-24.30432120473,
    150.00823194861));
#103 = CARTESIAN_POINT('',(-26.92974522034,-24.15185741199,
    149.85629904455));
#104 = CARTESIAN_POINT('',(-27.02115740809,-24.07068650867,
    149.76405435559));
#105 = CARTESIAN_POINT('',(-27.10778357078,-23.99526825782,
    149.66695466344));
#106 = CARTESIAN_POINT('',(-27.18967067886,-23.9255535547,
    149.56570364502));
#107 = CARTESIAN_POINT('',(-27.26691655713,-23.86144075907,
    149.46089363797));
#108 = CARTESIAN_POINT('',(-27.39790753423,-23.75582893763,
    149.26655261918));
#109 = CARTESIAN_POINT('',(-27.45326481604,-23.71237325212,
    149.17813947332));
#110 = CARTESIAN_POINT('',(-27.50578125004,-23.67237052201,
    149.08799388369));
#111 = CARTESIAN_POINT('',(-27.55551725366,-23.63575646288,
    148.99633222819));
#112 = CARTESIAN_POINT('',(-27.60253158481,-23.60246730857,
    148.90334221651));
#113 = CARTESIAN_POINT('',(-27.68128768835,-23.54914647251,
    148.73613328728));
#114 = CARTESIAN_POINT('',(-27.71408962134,-23.52781633003,
    148.66238161005));
#115 = CARTESIAN_POINT('',(-27.74531248658,-23.5084222175,
    148.58800354572));
#116 = CARTESIAN_POINT('',(-27.77497968847,-23.49093748509,
    148.51306846536));
#117 = CARTESIAN_POINT('',(-27.80311230182,-23.4753373106,
    148.43763956583));
#118 = CARTESIAN_POINT('',(-27.90156979845,-23.42451712256,
    148.15700647307));
#119 = CARTESIAN_POINT('',(-27.96235527198,-23.40100350864,
    147.94909336662));
#120 = CARTESIAN_POINT('',(-28.0124824011,-23.39058810797,147.7390996664
    ));
#121 = CARTESIAN_POINT('',(-28.0521420521,-23.39296204826,
    147.52796075632));
#122 = CARTESIAN_POINT('',(-28.08142237078,-23.4078796385,
    147.31650790857));
#123 = CARTESIAN_POINT('',(-28.11890070386,-23.46239701371,
    146.89608971983));
#124 = CARTESIAN_POINT('',(-28.127257184,-23.50179270705,146.68718412391
    ));
#125 = CARTESIAN_POINT('',(-28.12523333491,-23.55332560638,
    146.47945451425));
#126 = CARTESIAN_POINT('',(-28.11256622146,-23.61701009436,
    146.27370971646));
#127 = CARTESIAN_POINT('',(-28.0888702076,-23.69290528965,
    146.07085611651));
#128 = CARTESIAN_POINT('',(-28.04058293272,-23.81352604886,
    145.79917479287));
#129 = CARTESIAN_POINT('',(-28.02609298857,-23.84748728635,
    145.72695038865));
#130 = CARTESIAN_POINT('',(-28.0100141981,-23.8831170828,145.65530948905
    ));
#131 = CARTESIAN_POINT('',(-27.9923130328,-23.92042498584,145.5843114711
    ));
#132 = CARTESIAN_POINT('',(-27.97295236251,-23.95942129836,
    145.51402170762));
#133 = CARTESIAN_POINT('',(-27.92540370526,-24.05129909297,
    145.35709048846));
#134 = CARTESIAN_POINT('',(-27.89622736853,-24.10516765117,
    145.27090530054));
#135 = CARTESIAN_POINT('',(-27.86428024169,-24.16174640687,
    145.18609564968));
#136 = CARTESIAN_POINT('',(-27.82947312472,-24.22105552524,
    145.10282667161));
#137 = CARTESIAN_POINT('',(-27.79170983141,-24.28311096953,
    145.02128916292));
#138 = CARTESIAN_POINT('',(-27.69980575863,-24.42902419709,
    144.84210936327));
#139 = CARTESIAN_POINT('',(-27.64394039587,-24.51443184472,
    144.74558175326));
#140 = CARTESIAN_POINT('',(-27.58308484947,-24.60417687539,
    144.65252832394));
#141 = CARTESIAN_POINT('',(-27.51703599381,-24.6982397981,
    144.56347843992));
#142 = CARTESIAN_POINT('',(-27.44561679904,-24.79653287054,
    144.47906333195));
#143 = CARTESIAN_POINT('',(-27.36869929068,-24.89888148363,144.4));
#144 = ORIENTED_EDGE('',*,*,#145,.T.);
#145 = EDGE_CURVE('',#22,#146,#148,.T.);
#146 = VERTEX_POINT('',#147);
#147 = CARTESIAN_POINT('',(37.,0.,144.4));
#148 = CIRCLE('',#149,37.);
#149 = AXIS2_PLACEMENT_3D('',#150,#151,#152);
#150 = CARTESIAN_POINT('',(0.,0.,144.4));
#151 = DIRECTION('',(0.,0.,1.));
#152 = DIRECTION('',(1.,0.,0.));
#153 = ORIENTED_EDGE('',*,*,#154,.T.);
#154 = EDGE_CURVE('',#146,#155,#157,.T.);
#155 = VERTEX_POINT('',#156);
#156 = CARTESIAN_POINT('',(36.,0.,151.));
#157 = LINE('',#158,#159);
#158 = CARTESIAN_POINT('',(37.,0.,144.4));
#159 = VECTOR('',#160,1.);
#160 = DIRECTION('',(-0.149805379428,0.,0.988715504225));
#161 = ORIENTED_EDGE('',*,*,#162,.F.);
#162 = EDGE_CURVE('',#155,#155,#163,.T.);
#163 = CIRCLE('',#164,36.);
#164 = AXIS2_PLACEMENT_3D('',#165,#166,#167);
#165 = CARTESIAN_POINT('',(0.,0.,151.));
#166 = DIRECTION('',(0.,0.,1.));
#167 = DIRECTION('',(1.,0.,0.));
#168 = ORIENTED_EDGE('',*,*,#154,.F.);
#169 = ORIENTED_EDGE('',*,*,#170,.T.);
#170 = EDGE_CURVE('',#146,#171,#173,.T.);
#171 = VERTEX_POINT('',#172);
#172 = CARTESIAN_POINT('',(27.368699290683,24.898881483636,144.4));
#173 = CIRCLE('',#174,37.);
#174 = AXIS2_PLACEMENT_3D('',#175,#176,#177);
#175 = CARTESIAN_POINT('',(0.,0.,144.4));
#176 = DIRECTION('',(0.,0.,1.));
#177 = DIRECTION('',(1.,0.,0.));
#178 = ORIENTED_EDGE('',*,*,#179,.F.);
#179 = EDGE_CURVE('',#180,#171,#182,.T.);
#180 = VERTEX_POINT('',#181);
#181 = CARTESIAN_POINT('',(24.898881483636,27.368699290683,144.4));
#182 = B_SPLINE_CURVE_WITH_KNOTS('',6,(#183,#184,#185,#186,#187,#188,
    #189,#190,#191,#192,#193,#194,#195,#196,#197,#198,#199,#200,#201,
    #202,#203,#204,#205,#206,#207,#208,#209,#210,#211,#212,#213,#214,
    #215,#216,#217,#218,#219,#220,#221,#222,#223,#224,#225,#226,#227,
    #228,#229,#230,#231,#232,#233,#234,#235,#236,#237,#238,#239,#240,
    #241,#242,#243,#244,#245,#246,#247,#248,#249,#250,#251,#252,#253,
    #254,#255,#256,#257,#258,#259,#260,#261,#262,#263,#264,#265,#266,
    #267,#268,#269,#270,#271,#272,#273,#274,#275,#276,#277,#278,#279,
    #280,#281,#282,#283,#284,#285,#286,#287,#288,#289,#290,#291,#292,
    #293,#294,#295,#296,#297,#298,#299),.UNSPECIFIED.,.F.,.F.,(7,5,5,5,5
    ,5,5,5,5,5,5,5,5,5,5,5,5,5,5,5,5,5,5,7),(0.,4.771608993418E-02,
    8.591839888064E-02,0.116294771649,0.199983131601,0.283083821696,
    0.314106738225,0.354095714854,0.404018986808,0.44168987628,
    0.461229675573,0.47351858229,0.499956941613,0.538680939818,
    0.558218892089,0.595884954855,0.645801546399,0.685786218634,
    0.716806773062,0.800533654952,0.883600363425,0.913980781061,
    0.952189434801,1.),.UNSPECIFIED.);
#183 = CARTESIAN_POINT('',(24.898881483636,27.368699290683,144.4));
#184 = CARTESIAN_POINT('',(24.796732429315,27.44546682571,144.4789091747
    ));
#185 = CARTESIAN_POINT('',(24.698623045876,27.516757520667,
    144.56314933124));
#186 = CARTESIAN_POINT('',(24.604727028328,27.582698516157,
    144.65200759179));
#187 = CARTESIAN_POINT('',(24.515131788597,27.643465713651,
    144.74485620671));
#188 = CARTESIAN_POINT('',(24.429856918595,27.699260993759,
    144.84116853623));
#189 = CARTESIAN_POINT('',(24.284035280274,27.791143667546,
    145.02008953029));
#190 = CARTESIAN_POINT('',(24.221954584139,27.828938431561,
    145.10159373998));
#191 = CARTESIAN_POINT('',(24.162619597938,27.86377687075,
    145.18483088475));
#192 = CARTESIAN_POINT('',(24.106014409026,27.895755177616,
    145.26961003812));
#193 = CARTESIAN_POINT('',(24.052118877602,27.924962576353,
    145.35576595549));
#194 = CARTESIAN_POINT('',(23.960190362482,27.972567540192,
    145.51264896843));
#195 = CARTESIAN_POINT('',(23.921170612735,27.991953372228,
    145.58291942653));
#196 = CARTESIAN_POINT('',(23.883839049936,28.009679555952,
    145.6538988611));
#197 = CARTESIAN_POINT('',(23.848185369092,28.025783244923,
    145.72552185636));
#198 = CARTESIAN_POINT('',(23.81420001627,28.040297992645,145.7977289999
    ));
#199 = CARTESIAN_POINT('',(23.692814987118,28.088947490866,
    146.07086322871));
#200 = CARTESIAN_POINT('',(23.616368376933,28.112802013879,
    146.27525041184));
#201 = CARTESIAN_POINT('',(23.552315223925,28.125464072908,
    146.48256940538));
#202 = CARTESIAN_POINT('',(23.50059604959,28.127326680475,
    146.69189393595));
#203 = CARTESIAN_POINT('',(23.46119681529,28.118657266381,
    146.90239754895));
#204 = CARTESIAN_POINT('',(23.407452291988,28.080528923944,
    147.32284242406));
#205 = CARTESIAN_POINT('',(23.392941449915,28.051222471991,
    147.5327109285));
#206 = CARTESIAN_POINT('',(23.390792289554,28.011689185443,
    147.74225567352));
#207 = CARTESIAN_POINT('',(23.401245775174,27.961841642387,
    147.95066305449));
#208 = CARTESIAN_POINT('',(23.424604880383,27.901492116401,
    148.15701779983));
#209 = CARTESIAN_POINT('',(23.475037625247,27.803658896925,
    148.43615898016));
#210 = CARTESIAN_POINT('',(23.490608712206,27.775548384352,
    148.51160350663));
#211 = CARTESIAN_POINT('',(23.508064425932,27.745903235688,
    148.58655491474));
#212 = CARTESIAN_POINT('',(23.527429577531,27.714702393411,
    148.66095004338));
#213 = CARTESIAN_POINT('',(23.548730808564,27.681922467168,
    148.7347195644));
#214 = CARTESIAN_POINT('',(23.601986512561,27.603215327815,
    148.90197420344));
#215 = CARTESIAN_POINT('',(23.635239683031,27.55622778048,
    148.99499255807));
#216 = CARTESIAN_POINT('',(23.671818032418,27.506518400345,
    149.08668395343));
#217 = CARTESIAN_POINT('',(23.711785336282,27.454028430673,
    149.17686079516));
#218 = CARTESIAN_POINT('',(23.755205910533,27.39869743184,
    149.26530684228));
#219 = CARTESIAN_POINT('',(23.860741164044,27.267763122628,
    149.45972871864));
#220 = CARTESIAN_POINT('',(23.924813004145,27.190547258669,
    149.56458752477));
#221 = CARTESIAN_POINT('',(23.994487755505,27.108689446428,
    149.66589025977));
#222 = CARTESIAN_POINT('',(24.069867286227,27.022091646232,
    149.76304491034));
#223 = CARTESIAN_POINT('',(24.151001080132,26.930706517672,
    149.85534810991));
#224 = CARTESIAN_POINT('',(24.303403235634,26.76200935183,
    150.00738993714));
#225 = CARTESIAN_POINT('',(24.372198996313,26.686755519245,
    150.06955377457));
#226 = CARTESIAN_POINT('',(24.444227544745,26.608818534795,
    150.1281471069));
#227 = CARTESIAN_POINT('',(24.51942352183,26.528263750022,
    150.18277361074));
#228 = CARTESIAN_POINT('',(24.597659174406,26.445218871036,
    150.23301327654));
#229 = CARTESIAN_POINT('',(24.720776183393,26.315632339715,
    150.30201497578));
#230 = CARTESIAN_POINT('',(24.763586756002,26.270760002611,
    150.32428875958));
#231 = CARTESIAN_POINT('',(24.807128145402,26.225304722759,150.345210801
    ));
#232 = CARTESIAN_POINT('',(24.851364091421,26.179302783023,
    150.36472304546));
#233 = CARTESIAN_POINT('',(24.896251570571,26.132797240436,
    150.3827698423));
#234 = CARTESIAN_POINT('',(24.97034851724,26.056305672833,
    150.40969575196));
#235 = CARTESIAN_POINT('',(24.999194774666,26.026593398777,
    150.41949181688));
#236 = CARTESIAN_POINT('',(25.028266266969,25.99671443899,
    150.42867509017));
#237 = CARTESIAN_POINT('',(25.057549432965,25.966682369274,
    150.4372336305));
#238 = CARTESIAN_POINT('',(25.087029706457,25.936511770639,
    150.44515645063));
#239 = CARTESIAN_POINT('',(25.180505946863,25.841044691131,
    150.46808940184));
#240 = CARTESIAN_POINT('',(25.245163878283,25.775298803056,
    150.48075733728));
#241 = CARTESIAN_POINT('',(25.310504414487,25.709141714362,
    150.4903368593));
#242 = CARTESIAN_POINT('',(25.376355690597,25.642745391333,
    150.49675622158));
#243 = CARTESIAN_POINT('',(25.442534838817,25.576292733579,
    150.49997720106));
#244 = CARTESIAN_POINT('',(25.605976105823,25.412846715476,
    150.50003315505));
#245 = CARTESIAN_POINT('',(25.703413690656,25.31598905466,
    150.49320466248));
#246 = CARTESIAN_POINT('',(25.800532401387,25.220032591869,
    150.47951242043));
#247 = CARTESIAN_POINT('',(25.896774306618,25.125535332389,
    150.4591350654));
#248 = CARTESIAN_POINT('',(25.991648202363,25.032988224528,
    150.43238992897));
#249 = CARTESIAN_POINT('',(26.131687768319,24.897323146354,
    150.3831930964));
#250 = CARTESIAN_POINT('',(26.178197471391,24.852428372194,150.365177811
    ));
#251 = CARTESIAN_POINT('',(26.224204411732,24.808184255951,
    150.34569656332));
#252 = CARTESIAN_POINT('',(26.269665464779,24.764633888527,
    150.32480494743));
#253 = CARTESIAN_POINT('',(26.314544279046,24.721813598566,
    150.30256097695));
#254 = CARTESIAN_POINT('',(26.444148767491,24.598668898321,
    150.23364622457));
#255 = CARTESIAN_POINT('',(26.527207016778,24.520413248751,
    150.18346227271));
#256 = CARTESIAN_POINT('',(26.607777218662,24.445195056477,
    150.12888920762));
#257 = CARTESIAN_POINT('',(26.685731264595,24.373142477202,
    150.07034697605));
#258 = CARTESIAN_POINT('',(26.761003469241,24.304321204735,
    150.00823194861));
#259 = CARTESIAN_POINT('',(26.929745220342,24.151857411993,
    149.85629904455));
#260 = CARTESIAN_POINT('',(27.021157408096,24.070686508672,
    149.76405435559));
#261 = CARTESIAN_POINT('',(27.10778357078,23.995268257823,
    149.66695466344));
#262 = CARTESIAN_POINT('',(27.189670678862,23.925553554705,
    149.56570364502));
#263 = CARTESIAN_POINT('',(27.266916557137,23.861440759075,
    149.46089363797));
#264 = CARTESIAN_POINT('',(27.397907534239,23.755828937632,
    149.26655261918));
#265 = CARTESIAN_POINT('',(27.453264816042,23.712373252127,
    149.17813947332));
#266 = CARTESIAN_POINT('',(27.505781250047,23.672370522018,
    149.08799388369));
#267 = CARTESIAN_POINT('',(27.555517253664,23.635756462882,
    148.99633222819));
#268 = CARTESIAN_POINT('',(27.602531584815,23.602467308573,
    148.90334221651));
#269 = CARTESIAN_POINT('',(27.681287688354,23.549146472518,
    148.73613328728));
#270 = CARTESIAN_POINT('',(27.714089621347,23.527816330034,
    148.66238161005));
#271 = CARTESIAN_POINT('',(27.745312486587,23.508422217507,
    148.58800354572));
#272 = CARTESIAN_POINT('',(27.77497968847,23.490937485099,
    148.51306846536));
#273 = CARTESIAN_POINT('',(27.803112301828,23.475337310605,
    148.43763956583));
#274 = CARTESIAN_POINT('',(27.901569798455,23.424517122568,
    148.15700647307));
#275 = CARTESIAN_POINT('',(27.962355271981,23.401003508642,
    147.94909336662));
#276 = CARTESIAN_POINT('',(28.012482401103,23.390588107973,
    147.7390996664));
#277 = CARTESIAN_POINT('',(28.052142052105,23.392962048264,
    147.52796075633));
#278 = CARTESIAN_POINT('',(28.081422370788,23.4078796385,147.31650790857
    ));
#279 = CARTESIAN_POINT('',(28.118900703863,23.462397013718,
    146.89608971983));
#280 = CARTESIAN_POINT('',(28.127257184006,23.501792707055,
    146.68718412391));
#281 = CARTESIAN_POINT('',(28.125233334912,23.553325606387,
    146.47945451425));
#282 = CARTESIAN_POINT('',(28.112566221463,23.617010094363,
    146.27370971646));
#283 = CARTESIAN_POINT('',(28.088870207608,23.69290528965,
    146.07085611651));
#284 = CARTESIAN_POINT('',(28.040582932724,23.813526048862,
    145.79917479287));
#285 = CARTESIAN_POINT('',(28.026092988579,23.847487286353,
    145.72695038865));
#286 = CARTESIAN_POINT('',(28.010014198101,23.883117082805,
    145.65530948905));
#287 = CARTESIAN_POINT('',(27.992313032809,23.920424985842,
    145.5843114711));
#288 = CARTESIAN_POINT('',(27.972952362518,23.959421298365,
    145.51402170762));
#289 = CARTESIAN_POINT('',(27.925403705263,24.051299092976,
    145.35709048846));
#290 = CARTESIAN_POINT('',(27.896227368531,24.105167651179,
    145.27090530054));
#291 = CARTESIAN_POINT('',(27.86428024169,24.161746406873,
    145.18609564968));
#292 = CARTESIAN_POINT('',(27.829473124723,24.221055525246,
    145.10282667161));
#293 = CARTESIAN_POINT('',(27.791709831416,24.283110969537,
    145.02128916292));
#294 = CARTESIAN_POINT('',(27.699805758635,24.429024197096,
    144.84210936327));
#295 = CARTESIAN_POINT('',(27.643940395873,24.514431844728,
    144.74558175326));
#296 = CARTESIAN_POINT('',(27.583084849477,24.604176875393,
    144.65252832394));
#297 = CARTESIAN_POINT('',(27.51703599381,24.698239798105,
    144.56347843992));
#298 = CARTESIAN_POINT('',(27.445616799047,24.796532870549,
    144.47906333195));
#299 = CARTESIAN_POINT('',(27.368699290683,24.898881483636,144.4));
#300 = ORIENTED_EDGE('',*,*,#301,.T.);
#301 = EDGE_CURVE('',#180,#24,#302,.T.);
#302 = CIRCLE('',#303,37.);
#303 = AXIS2_PLACEMENT_3D('',#304,#305,#306);
#304 = CARTESIAN_POINT('',(0.,0.,144.4));
#305 = DIRECTION('',(0.,0.,1.));
#306 = DIRECTION('',(1.,0.,0.));
#307 = CONICAL_SURFACE('',#308,37.,0.150371428007);
#308 = AXIS2_PLACEMENT_3D('',#309,#310,#311);
#309 = CARTESIAN_POINT('',(0.,0.,144.4));
#310 = DIRECTION('',(-0.,-0.,-1.));
#311 = DIRECTION('',(1.,0.,0.));
#312 = ADVANCED_FACE('',(#313),#339,.T.);
#313 = FACE_BOUND('',#314,.T.);
#314 = EDGE_LOOP('',(#315,#326,#332,#333));
#315 = ORIENTED_EDGE('',*,*,#316,.F.);
#316 = EDGE_CURVE('',#317,#319,#321,.T.);
#317 = VERTEX_POINT('',#318);
#318 = CARTESIAN_POINT('',(-25.06946335661,-27.53928116366,144.4));
#319 = VERTEX_POINT('',#320);
#320 = CARTESIAN_POINT('',(-27.53928116366,-25.06946335661,144.4));
#321 = CIRCLE('',#322,3.3);
#322 = AXIS2_PLACEMENT_3D('',#323,#324,#325);
#323 = CARTESIAN_POINT('',(-26.30437226014,-26.30437226014,147.2));
#324 = DIRECTION('',(-0.707106781187,-0.707106781187,-0.));
#325 = DIRECTION('',(0.,0.,-1.));
#326 = ORIENTED_EDGE('',*,*,#327,.F.);
#327 = EDGE_CURVE('',#22,#317,#328,.T.);
#328 = LINE('',#329,#330);
#329 = CARTESIAN_POINT('',(-23.79667115048,-26.26648895752,144.4));
#330 = VECTOR('',#331,1.);
#331 = DIRECTION('',(-0.707106781187,-0.707106781187,1.1E-16));
#332 = ORIENTED_EDGE('',*,*,#21,.T.);
#333 = ORIENTED_EDGE('',*,*,#334,.T.);
#334 = EDGE_CURVE('',#24,#319,#335,.T.);
#335 = LINE('',#336,#337);
#336 = CARTESIAN_POINT('',(-26.26648895752,-23.79667115048,144.4));
#337 = VECTOR('',#338,1.);
#338 = DIRECTION('',(-0.707106781187,-0.707106781187,1.1E-16));
#339 = CYLINDRICAL_SURFACE('',#340,3.3);
#340 = AXIS2_PLACEMENT_3D('',#341,#342,#343);
#341 = CARTESIAN_POINT('',(-25.031580054,-25.031580054,147.2));
#342 = DIRECTION('',(-0.707106781187,-0.707106781187,0.));
#343 = DIRECTION('',(0.,0.,-1.));
#344 = ADVANCED_FACE('',(#345),#371,.T.);
#345 = FACE_BOUND('',#346,.T.);
#346 = EDGE_LOOP('',(#347,#358,#364,#365));
#347 = ORIENTED_EDGE('',*,*,#348,.F.);
#348 = EDGE_CURVE('',#349,#351,#353,.T.);
#349 = VERTEX_POINT('',#350);
#350 = CARTESIAN_POINT('',(25.069463356617,27.539281163662,144.4));
#351 = VERTEX_POINT('',#352);
#352 = CARTESIAN_POINT('',(27.539281163662,25.069463356617,144.4));
#353 = CIRCLE('',#354,3.3);
#354 = AXIS2_PLACEMENT_3D('',#355,#356,#357);
#355 = CARTESIAN_POINT('',(26.30437226014,26.30437226014,147.2));
#356 = DIRECTION('',(0.707106781187,0.707106781187,0.));
#357 = DIRECTION('',(0.,0.,-1.));
#358 = ORIENTED_EDGE('',*,*,#359,.F.);
#359 = EDGE_CURVE('',#180,#349,#360,.T.);
#360 = LINE('',#361,#362);
#361 = CARTESIAN_POINT('',(23.796671150481,26.266488957527,144.4));
#362 = VECTOR('',#363,1.);
#363 = DIRECTION('',(0.707106781187,0.707106781187,1.1E-16));
#364 = ORIENTED_EDGE('',*,*,#179,.T.);
#365 = ORIENTED_EDGE('',*,*,#366,.T.);
#366 = EDGE_CURVE('',#171,#351,#367,.T.);
#367 = LINE('',#368,#369);
#368 = CARTESIAN_POINT('',(26.266488957527,23.796671150481,144.4));
#369 = VECTOR('',#370,1.);
#370 = DIRECTION('',(0.707106781187,0.707106781187,1.1E-16));
#371 = CYLINDRICAL_SURFACE('',#372,3.3);
#372 = AXIS2_PLACEMENT_3D('',#373,#374,#375);
#373 = CARTESIAN_POINT('',(25.031580054004,25.031580054004,147.2));
#374 = DIRECTION('',(0.707106781187,0.707106781187,0.));
#375 = DIRECTION('',(0.,0.,-1.));
#376 = ADVANCED_FACE('',(#377),#396,.T.);
#377 = FACE_BOUND('',#378,.T.);
#378 = EDGE_LOOP('',(#379,#380,#388,#395));
#379 = ORIENTED_EDGE('',*,*,#162,.T.);
#380 = ORIENTED_EDGE('',*,*,#381,.T.);
#381 = EDGE_CURVE('',#155,#382,#384,.T.);
#382 = VERTEX_POINT('',#383);
#383 = CARTESIAN_POINT('',(30.,0.,158.));
#384 = LINE('',#385,#386);
#385 = CARTESIAN_POINT('',(36.,0.,151.));
#386 = VECTOR('',#387,1.);
#387 = DIRECTION('',(-0.650791373456,0.,0.759256602365));
#388 = ORIENTED_EDGE('',*,*,#389,.F.);
#389 = EDGE_CURVE('',#382,#382,#390,.T.);
#390 = CIRCLE('',#391,30.);
#391 = AXIS2_PLACEMENT_3D('',#392,#393,#394);
#392 = CARTESIAN_POINT('',(0.,0.,158.));
#393 = DIRECTION('',(0.,0.,1.));
#394 = DIRECTION('',(1.,0.,0.));
#395 = ORIENTED_EDGE('',*,*,#381,.F.);
#396 = CONICAL_SURFACE('',#397,36.,0.708626272128);
#397 = AXIS2_PLACEMENT_3D('',#398,#399,#400);
#398 = CARTESIAN_POINT('',(0.,0.,151.));
#399 = DIRECTION('',(-0.,-0.,-1.));
#400 = DIRECTION('',(1.,0.,0.));
#401 = ADVANCED_FACE('',(#402,#411),#422,.T.);
#402 = FACE_BOUND('',#403,.T.);
#403 = EDGE_LOOP('',(#404,#410));
#404 = ORIENTED_EDGE('',*,*,#405,.F.);
#405 = EDGE_CURVE('',#317,#319,#406,.T.);
#406 = LINE('',#407,#408);
#407 = CARTESIAN_POINT('',(-26.30437226014,-26.30437226014,144.4));
#408 = VECTOR('',#409,1.);
#409 = DIRECTION('',(-0.707106781187,0.707106781187,0.));
#410 = ORIENTED_EDGE('',*,*,#316,.T.);
#411 = FACE_BOUND('',#412,.T.);
#412 = EDGE_LOOP('',(#413));
#413 = ORIENTED_EDGE('',*,*,#414,.F.);
#414 = EDGE_CURVE('',#415,#415,#417,.T.);
#415 = VERTEX_POINT('',#416);
#416 = CARTESIAN_POINT('',(-26.30437226014,-26.30437226014,145.5));
#417 = CIRCLE('',#418,1.7);
#418 = AXIS2_PLACEMENT_3D('',#419,#420,#421);
#419 = CARTESIAN_POINT('',(-26.30437226014,-26.30437226014,147.2));
#420 = DIRECTION('',(-0.707106781187,-0.707106781187,1.1E-16));
#421 = DIRECTION('',(-7.778174593052E-17,-7.778174593052E-17,-1.));
#422 = PLANE('',#423);
#423 = AXIS2_PLACEMENT_3D('',#424,#425,#426);
#424 = CARTESIAN_POINT('',(-26.30437226014,-26.30437226014,147.2));
#425 = DIRECTION('',(-0.707106781187,-0.707106781187,0.));
#426 = DIRECTION('',(0.,0.,-1.));
#427 = ADVANCED_FACE('',(#428,#437),#448,.T.);
#428 = FACE_BOUND('',#429,.T.);
#429 = EDGE_LOOP('',(#430,#436));
#430 = ORIENTED_EDGE('',*,*,#431,.F.);
#431 = EDGE_CURVE('',#349,#351,#432,.T.);
#432 = LINE('',#433,#434);
#433 = CARTESIAN_POINT('',(26.30437226014,26.30437226014,144.4));
#434 = VECTOR('',#435,1.);
#435 = DIRECTION('',(0.707106781187,-0.707106781187,0.));
#436 = ORIENTED_EDGE('',*,*,#348,.T.);
#437 = FACE_BOUND('',#438,.T.);
#438 = EDGE_LOOP('',(#439));
#439 = ORIENTED_EDGE('',*,*,#440,.F.);
#440 = EDGE_CURVE('',#441,#441,#443,.T.);
#441 = VERTEX_POINT('',#442);
#442 = CARTESIAN_POINT('',(26.30437226014,26.30437226014,145.5));
#443 = CIRCLE('',#444,1.7);
#444 = AXIS2_PLACEMENT_3D('',#445,#446,#447);
#445 = CARTESIAN_POINT('',(26.30437226014,26.30437226014,147.2));
#446 = DIRECTION('',(0.707106781187,0.707106781187,1.1E-16));
#447 = DIRECTION('',(7.778174593052E-17,7.778174593052E-17,-1.));
#448 = PLANE('',#449);
#449 = AXIS2_PLACEMENT_3D('',#450,#451,#452);
#450 = CARTESIAN_POINT('',(26.30437226014,26.30437226014,147.2));
#451 = DIRECTION('',(0.707106781187,0.707106781187,0.));
#452 = DIRECTION('',(0.,0.,-1.));
#453 = ADVANCED_FACE('',(#454),#473,.T.);
#454 = FACE_BOUND('',#455,.T.);
#455 = EDGE_LOOP('',(#456,#457,#465,#472));
#456 = ORIENTED_EDGE('',*,*,#389,.T.);
#457 = ORIENTED_EDGE('',*,*,#458,.T.);
#458 = EDGE_CURVE('',#382,#459,#461,.T.);
#459 = VERTEX_POINT('',#460);
#460 = CARTESIAN_POINT('',(24.5,0.,164.));
#461 = LINE('',#462,#463);
#462 = CARTESIAN_POINT('',(30.,0.,158.));
#463 = VECTOR('',#464,1.);
#464 = DIRECTION('',(-0.675724628517,0.,0.737154140201));
#465 = ORIENTED_EDGE('',*,*,#466,.F.);
#466 = EDGE_CURVE('',#459,#459,#467,.T.);
#467 = CIRCLE('',#468,24.5);
#468 = AXIS2_PLACEMENT_3D('',#469,#470,#471);
#469 = CARTESIAN_POINT('',(0.,0.,164.));
#470 = DIRECTION('',(0.,0.,1.));
#471 = DIRECTION('',(1.,0.,0.));
#472 = ORIENTED_EDGE('',*,*,#458,.F.);
#473 = CONICAL_SURFACE('',#474,30.,0.741947268006);
#474 = AXIS2_PLACEMENT_3D('',#475,#476,#477);
#475 = CARTESIAN_POINT('',(0.,0.,158.));
#476 = DIRECTION('',(-0.,-0.,-1.));
#477 = DIRECTION('',(1.,0.,0.));
#478 = ADVANCED_FACE('',(#479),#544,.F.);
#479 = FACE_BOUND('',#480,.F.);
#480 = EDGE_LOOP('',(#481,#482,#490,#543));
#481 = ORIENTED_EDGE('',*,*,#414,.F.);
#482 = ORIENTED_EDGE('',*,*,#483,.F.);
#483 = EDGE_CURVE('',#484,#415,#486,.T.);
#484 = VERTEX_POINT('',#485);
#485 = CARTESIAN_POINT('',(-23.9002092041,-23.9002092041,145.5));
#486 = LINE('',#487,#488);
#487 = CARTESIAN_POINT('',(-19.79898987322,-19.79898987322,145.5));
#488 = VECTOR('',#489,1.);
#489 = DIRECTION('',(-0.707106781187,-0.707106781187,0.));
#490 = ORIENTED_EDGE('',*,*,#491,.T.);
#491 = EDGE_CURVE('',#484,#484,#492,.T.);
#492 = B_SPLINE_CURVE_WITH_KNOTS('',7,(#493,#494,#495,#496,#497,#498,
    #499,#500,#501,#502,#503,#504,#505,#506,#507,#508,#509,#510,#511,
    #512,#513,#514,#515,#516,#517,#518,#519,#520,#521,#522,#523,#524,
    #525,#526,#527,#528,#529,#530,#531,#532,#533,#534,#535,#536,#537,
    #538,#539,#540,#541,#542),.UNSPECIFIED.,.T.,.F.,(8,6,6,6,6,6,6,6,8),
  (0.,0.142506981836,0.277159291514,0.44544909383,0.59197868177,
    0.68703024012,0.791593661326,0.892872651003,1.),.UNSPECIFIED.);
#493 = CARTESIAN_POINT('',(-23.9002092041,-23.9002092041,145.5));
#494 = CARTESIAN_POINT('',(-23.73515717756,-24.06526123065,145.5));
#495 = CARTESIAN_POINT('',(-23.57306243709,-24.22469634517,
    145.53739089226));
#496 = CARTESIAN_POINT('',(-23.41897621706,-24.37371219295,
    145.60867864248));
#497 = CARTESIAN_POINT('',(-23.27735683857,-24.50856405736,
    145.70897955776));
#498 = CARTESIAN_POINT('',(-23.1518060252,-24.62663858717,
    145.83210636934));
#499 = CARTESIAN_POINT('',(-23.04455798645,-24.72656250051,
    145.97070074322));
#500 = CARTESIAN_POINT('',(-22.87239225334,-24.88587268327,
    146.25402821377));
#501 = CARTESIAN_POINT('',(-22.80342207765,-24.94908215151,
    146.40136787794));
#502 = CARTESIAN_POINT('',(-22.74884029387,-24.99876064202,
    146.55536945046));
#503 = CARTESIAN_POINT('',(-22.7082640776,-25.03552891506,
    146.71380484244));
#504 = CARTESIAN_POINT('',(-22.68134681408,-25.05986504465,
    146.87496098726));
#505 = CARTESIAN_POINT('',(-22.66787867303,-25.07204172907,
    147.03744665317));
#506 = CARTESIAN_POINT('',(-22.66787867303,-25.07204172907,
    147.40316079738));
#507 = CARTESIAN_POINT('',(-22.68891552128,-25.05302200962,
    147.60622623324));
#508 = CARTESIAN_POINT('',(-22.73096057467,-25.01500917713,
    147.80673546061));
#509 = CARTESIAN_POINT('',(-22.79452771254,-24.95733407901,
    148.00188743832));
#510 = CARTESIAN_POINT('',(-22.8804177395,-24.87887561474,148.1880005072
    ));
#511 = CARTESIAN_POINT('',(-22.98941186174,-24.77821277882,
    148.35992742411));
#512 = CARTESIAN_POINT('',(-23.23686012974,-24.54614558086,
    148.6404293958));
#513 = CARTESIAN_POINT('',(-23.37372052584,-24.41661173251,
    148.75889884192));
#514 = CARTESIAN_POINT('',(-23.52909674235,-24.26771613419,
    148.85174761462));
#515 = CARTESIAN_POINT('',(-23.6968469923,-24.10431092005,
    148.90964681199));
#516 = CARTESIAN_POINT('',(-23.86914283219,-23.93328195646,
    148.92757746909));
#517 = CARTESIAN_POINT('',(-24.03818886314,-23.76252087109,
    148.9050923097));
#518 = CARTESIAN_POINT('',(-24.30048834827,-23.49357602414,
    148.80864268936));
#519 = CARTESIAN_POINT('',(-24.40038410118,-23.39006937005,
    148.75521532735));
#520 = CARTESIAN_POINT('',(-24.49565604093,-23.2903275831,
    148.68681480929));
#521 = CARTESIAN_POINT('',(-24.58510557047,-23.19576619365,
    148.60424297744));
#522 = CARTESIAN_POINT('',(-24.66765574671,-23.10773667332,
    148.50858579033));
#523 = CARTESIAN_POINT('',(-24.74236849088,-23.02747653019,
    148.40118886738));
#524 = CARTESIAN_POINT('',(-24.88119684733,-22.8774454063,
    148.15428759344));
#525 = CARTESIAN_POINT('',(-24.94351449285,-22.80951651631,
    148.01262491252));
#526 = CARTESIAN_POINT('',(-24.99439982071,-22.75365085502,
    147.86071265031));
#527 = CARTESIAN_POINT('',(-25.03308856166,-22.7109635748,
    147.70089013431));
#528 = CARTESIAN_POINT('',(-25.05905989223,-22.68223722701,
    147.53570676077));
#529 = CARTESIAN_POINT('',(-25.07204172907,-22.66787867303,
    147.36784274925));
#530 = CARTESIAN_POINT('',(-25.07204172907,-22.66787867303,
    147.03742934313));
#531 = CARTESIAN_POINT('',(-25.05986246548,-22.68134966571,
    146.8749413579));
#532 = CARTESIAN_POINT('',(-25.03552514375,-22.70826825229,
    146.71379708101));
#533 = CARTESIAN_POINT('',(-24.99876062396,-22.74884026941,
    146.55538102838));
#534 = CARTESIAN_POINT('',(-24.9490901854,-22.80341317273,
    146.40139397217));
#535 = CARTESIAN_POINT('',(-24.88588574844,-22.87237813387,
    146.25405144971));
#536 = CARTESIAN_POINT('',(-24.72659418703,-23.04452374299,
    145.97075709656));
#537 = CARTESIAN_POINT('',(-24.62666955996,-23.15177312445,
    145.83213114974));
#538 = CARTESIAN_POINT('',(-24.5085623995,-23.27735950666,
    145.70895570062));
#539 = CARTESIAN_POINT('',(-24.37366309466,-23.41902871227,145.608631008
    ));
#540 = CARTESIAN_POINT('',(-24.22461237651,-23.57314880314,
    145.53735716565));
#541 = CARTESIAN_POINT('',(-24.06518677749,-23.73523163072,145.5));
#542 = CARTESIAN_POINT('',(-23.9002092041,-23.9002092041,145.5));
#543 = ORIENTED_EDGE('',*,*,#483,.T.);
#544 = CYLINDRICAL_SURFACE('',#545,1.7);
#545 = AXIS2_PLACEMENT_3D('',#546,#547,#548);
#546 = CARTESIAN_POINT('',(-19.79898987322,-19.79898987322,147.2));
#547 = DIRECTION('',(-0.707106781187,-0.707106781187,0.));
#548 = DIRECTION('',(0.,0.,-1.));
#549 = ADVANCED_FACE('',(#550,#577,#634),#637,.F.);
#550 = FACE_BOUND('',#551,.T.);
#551 = EDGE_LOOP('',(#552,#562,#569,#570));
#552 = ORIENTED_EDGE('',*,*,#553,.F.);
#553 = EDGE_CURVE('',#554,#556,#558,.T.);
#554 = VERTEX_POINT('',#555);
#555 = CARTESIAN_POINT('',(33.8,0.,150.5));
#556 = VERTEX_POINT('',#557);
#557 = CARTESIAN_POINT('',(33.8,0.,144.4));
#558 = LINE('',#559,#560);
#559 = CARTESIAN_POINT('',(33.8,0.,150.5));
#560 = VECTOR('',#561,1.);
#561 = DIRECTION('',(0.,0.,-1.));
#562 = ORIENTED_EDGE('',*,*,#563,.T.);
#563 = EDGE_CURVE('',#554,#554,#564,.T.);
#564 = CIRCLE('',#565,33.8);
#565 = AXIS2_PLACEMENT_3D('',#566,#567,#568);
#566 = CARTESIAN_POINT('',(0.,0.,150.5));
#567 = DIRECTION('',(0.,0.,1.));
#568 = DIRECTION('',(1.,0.,0.));
#569 = ORIENTED_EDGE('',*,*,#553,.T.);
#570 = ORIENTED_EDGE('',*,*,#571,.F.);
#571 = EDGE_CURVE('',#556,#556,#572,.T.);
#572 = CIRCLE('',#573,33.8);
#573 = AXIS2_PLACEMENT_3D('',#574,#575,#576);
#574 = CARTESIAN_POINT('',(0.,0.,144.4));
#575 = DIRECTION('',(0.,0.,1.));
#576 = DIRECTION('',(1.,0.,0.));
#577 = FACE_BOUND('',#578,.T.);
#578 = EDGE_LOOP('',(#579));
#579 = ORIENTED_EDGE('',*,*,#580,.T.);
#580 = EDGE_CURVE('',#581,#581,#583,.T.);
#581 = VERTEX_POINT('',#582);
#582 = CARTESIAN_POINT('',(23.900209204105,23.900209204105,145.5));
#583 = B_SPLINE_CURVE_WITH_KNOTS('',7,(#584,#585,#586,#587,#588,#589,
    #590,#591,#592,#593,#594,#595,#596,#597,#598,#599,#600,#601,#602,
    #603,#604,#605,#606,#607,#608,#609,#610,#611,#612,#613,#614,#615,
    #616,#617,#618,#619,#620,#621,#622,#623,#624,#625,#626,#627,#628,
    #629,#630,#631,#632,#633),.UNSPECIFIED.,.T.,.F.,(8,6,6,6,6,6,6,6,8),
  (0.,0.142506981838,0.277159291519,0.445449093838,0.591978681781,
    0.68703024016,0.791593661331,0.892872651011,1.),.UNSPECIFIED.);
#584 = CARTESIAN_POINT('',(23.900209204105,23.900209204105,145.5));
#585 = CARTESIAN_POINT('',(23.73515717756,24.06526123065,145.5));
#586 = CARTESIAN_POINT('',(23.573062437092,24.224696345172,
    145.53739089226));
#587 = CARTESIAN_POINT('',(23.418976217061,24.37371219295,
    145.60867864248));
#588 = CARTESIAN_POINT('',(23.27735683857,24.508564057365,
    145.70897955776));
#589 = CARTESIAN_POINT('',(23.151806025205,24.626638587176,
    145.83210636934));
#590 = CARTESIAN_POINT('',(23.044557986457,24.726562500518,
    145.97070074322));
#591 = CARTESIAN_POINT('',(22.872392253346,24.88587268327,
    146.25402821377));
#592 = CARTESIAN_POINT('',(22.803422077658,24.949082151513,
    146.40136787794));
#593 = CARTESIAN_POINT('',(22.748840293872,24.998760642028,
    146.55536945046));
#594 = CARTESIAN_POINT('',(22.7082640776,25.035528915067,146.71380484244
    ));
#595 = CARTESIAN_POINT('',(22.681346814082,25.059865044655,
    146.87496098726));
#596 = CARTESIAN_POINT('',(22.667878673039,25.072041729073,
    147.03744665316));
#597 = CARTESIAN_POINT('',(22.667878673039,25.072041729073,
    147.40316079738));
#598 = CARTESIAN_POINT('',(22.688915521282,25.053022009625,
    147.60622623324));
#599 = CARTESIAN_POINT('',(22.730960574675,25.015009177131,
    147.80673546061));
#600 = CARTESIAN_POINT('',(22.794527712544,24.957334079019,
    148.00188743832));
#601 = CARTESIAN_POINT('',(22.880417739507,24.878875614743,
    148.1880005072));
#602 = CARTESIAN_POINT('',(22.989411861748,24.77821277882,
    148.35992742411));
#603 = CARTESIAN_POINT('',(23.236860129741,24.546145580867,
    148.6404293958));
#604 = CARTESIAN_POINT('',(23.373720525841,24.416611732512,
    148.75889884192));
#605 = CARTESIAN_POINT('',(23.529096742351,24.267716134196,
    148.85174761462));
#606 = CARTESIAN_POINT('',(23.696846992307,24.104310920055,
    148.90964681199));
#607 = CARTESIAN_POINT('',(23.869142832195,23.933281956465,
    148.92757746909));
#608 = CARTESIAN_POINT('',(24.038188863147,23.76252087109,148.9050923097
    ));
#609 = CARTESIAN_POINT('',(24.300488348303,23.493576024118,
    148.80864268935));
#610 = CARTESIAN_POINT('',(24.400384101154,23.390069370085,
    148.75521532735));
#611 = CARTESIAN_POINT('',(24.495656040919,23.290327583125,
    148.68681480932));
#612 = CARTESIAN_POINT('',(24.5851055705,23.195766193634,148.60424297743
    ));
#613 = CARTESIAN_POINT('',(24.667655746729,23.107736673304,
    148.50858579029));
#614 = CARTESIAN_POINT('',(24.742368490865,23.027476530213,
    148.40118886742));
#615 = CARTESIAN_POINT('',(24.881196847313,22.87744540633,
    148.15428759348));
#616 = CARTESIAN_POINT('',(24.943514492887,22.809516516277,
    148.01262491249));
#617 = CARTESIAN_POINT('',(24.994399820718,22.753650855023,
    147.86071265026));
#618 = CARTESIAN_POINT('',(25.033088561646,22.710963574827,
    147.70089013434));
#619 = CARTESIAN_POINT('',(25.059059892246,22.682237227011,
    147.53570676084));
#620 = CARTESIAN_POINT('',(25.072041729073,22.667878673039,
    147.36784274919));
#621 = CARTESIAN_POINT('',(25.072041729073,22.667878673039,
    147.03742934313));
#622 = CARTESIAN_POINT('',(25.059862465482,22.681349665711,
    146.8749413579));
#623 = CARTESIAN_POINT('',(25.035525143752,22.708268252299,
    146.71379708101));
#624 = CARTESIAN_POINT('',(24.998760623963,22.748840269415,
    146.55538102838));
#625 = CARTESIAN_POINT('',(24.9490901854,22.803413172735,146.40139397217
    ));
#626 = CARTESIAN_POINT('',(24.885885748443,22.872378133877,
    146.25405144971));
#627 = CARTESIAN_POINT('',(24.726594187043,23.044523742984,
    145.97075709657));
#628 = CARTESIAN_POINT('',(24.626669559968,23.151773124456,
    145.83213114974));
#629 = CARTESIAN_POINT('',(24.508562399498,23.277359506668,
    145.70895570061));
#630 = CARTESIAN_POINT('',(24.37366309465,23.419028712285,145.608631008)
  );
#631 = CARTESIAN_POINT('',(24.224612376516,23.573148803146,
    145.53735716566));
#632 = CARTESIAN_POINT('',(24.0651867775,23.735231630711,145.5));
#633 = CARTESIAN_POINT('',(23.900209204105,23.900209204105,145.5));
#634 = FACE_BOUND('',#635,.T.);
#635 = EDGE_LOOP('',(#636));
#636 = ORIENTED_EDGE('',*,*,#491,.T.);
#637 = CYLINDRICAL_SURFACE('',#638,33.8);
#638 = AXIS2_PLACEMENT_3D('',#639,#640,#641);
#639 = CARTESIAN_POINT('',(0.,0.,150.5));
#640 = DIRECTION('',(-0.,-0.,-1.));
#641 = DIRECTION('',(1.,0.,0.));
#642 = ADVANCED_FACE('',(#643),#662,.F.);
#643 = FACE_BOUND('',#644,.T.);
#644 = EDGE_LOOP('',(#645,#654,#660,#661));
#645 = ORIENTED_EDGE('',*,*,#646,.T.);
#646 = EDGE_CURVE('',#647,#647,#649,.T.);
#647 = VERTEX_POINT('',#648);
#648 = CARTESIAN_POINT('',(28.,0.,156.));
#649 = CIRCLE('',#650,28.);
#650 = AXIS2_PLACEMENT_3D('',#651,#652,#653);
#651 = CARTESIAN_POINT('',(0.,0.,156.));
#652 = DIRECTION('',(0.,0.,1.));
#653 = DIRECTION('',(1.,0.,0.));
#654 = ORIENTED_EDGE('',*,*,#655,.T.);
#655 = EDGE_CURVE('',#647,#554,#656,.T.);
#656 = LINE('',#657,#658);
#657 = CARTESIAN_POINT('',(28.,0.,156.));
#658 = VECTOR('',#659,1.);
#659 = DIRECTION('',(0.725623851173,0.,-0.688091583009));
#660 = ORIENTED_EDGE('',*,*,#563,.F.);
#661 = ORIENTED_EDGE('',*,*,#655,.F.);
#662 = CONICAL_SURFACE('',#663,28.,0.811940601149);
#663 = AXIS2_PLACEMENT_3D('',#664,#665,#666);
#664 = CARTESIAN_POINT('',(0.,0.,156.));
#665 = DIRECTION('',(-0.,-0.,-1.));
#666 = DIRECTION('',(1.,0.,0.));
#667 = ADVANCED_FACE('',(#668),#679,.F.);
#668 = FACE_BOUND('',#669,.F.);
#669 = EDGE_LOOP('',(#670,#671,#677,#678));
#670 = ORIENTED_EDGE('',*,*,#440,.F.);
#671 = ORIENTED_EDGE('',*,*,#672,.F.);
#672 = EDGE_CURVE('',#581,#441,#673,.T.);
#673 = LINE('',#674,#675);
#674 = CARTESIAN_POINT('',(19.798989873223,19.798989873223,145.5));
#675 = VECTOR('',#676,1.);
#676 = DIRECTION('',(0.707106781187,0.707106781187,0.));
#677 = ORIENTED_EDGE('',*,*,#580,.T.);
#678 = ORIENTED_EDGE('',*,*,#672,.T.);
#679 = CYLINDRICAL_SURFACE('',#680,1.7);
#680 = AXIS2_PLACEMENT_3D('',#681,#682,#683);
#681 = CARTESIAN_POINT('',(19.798989873223,19.798989873223,147.2));
#682 = DIRECTION('',(0.707106781187,0.707106781187,0.));
#683 = DIRECTION('',(0.,0.,-1.));
#684 = ADVANCED_FACE('',(#685),#704,.T.);
#685 = FACE_BOUND('',#686,.T.);
#686 = EDGE_LOOP('',(#687,#688,#696,#703));
#687 = ORIENTED_EDGE('',*,*,#466,.T.);
#688 = ORIENTED_EDGE('',*,*,#689,.T.);
#689 = EDGE_CURVE('',#459,#690,#692,.T.);
#690 = VERTEX_POINT('',#691);
#691 = CARTESIAN_POINT('',(24.5,0.,168.));
#692 = LINE('',#693,#694);
#693 = CARTESIAN_POINT('',(24.5,0.,164.));
#694 = VECTOR('',#695,1.);
#695 = DIRECTION('',(0.,0.,1.));
#696 = ORIENTED_EDGE('',*,*,#697,.F.);
#697 = EDGE_CURVE('',#690,#690,#698,.T.);
#698 = CIRCLE('',#699,24.5);
#699 = AXIS2_PLACEMENT_3D('',#700,#701,#702);
#700 = CARTESIAN_POINT('',(0.,0.,168.));
#701 = DIRECTION('',(0.,0.,1.));
#702 = DIRECTION('',(1.,0.,0.));
#703 = ORIENTED_EDGE('',*,*,#689,.F.);
#704 = CYLINDRICAL_SURFACE('',#705,24.5);
#705 = AXIS2_PLACEMENT_3D('',#706,#707,#708);
#706 = CARTESIAN_POINT('',(0.,0.,164.));
#707 = DIRECTION('',(0.,0.,1.));
#708 = DIRECTION('',(1.,0.,0.));
#709 = ADVANCED_FACE('',(#710),#729,.F.);
#710 = FACE_BOUND('',#711,.T.);
#711 = EDGE_LOOP('',(#712,#721,#727,#728));
#712 = ORIENTED_EDGE('',*,*,#713,.T.);
#713 = EDGE_CURVE('',#714,#714,#716,.T.);
#714 = VERTEX_POINT('',#715);
#715 = CARTESIAN_POINT('',(23.3,0.,163.));
#716 = CIRCLE('',#717,23.3);
#717 = AXIS2_PLACEMENT_3D('',#718,#719,#720);
#718 = CARTESIAN_POINT('',(0.,0.,163.));
#719 = DIRECTION('',(0.,0.,1.));
#720 = DIRECTION('',(1.,0.,0.));
#721 = ORIENTED_EDGE('',*,*,#722,.T.);
#722 = EDGE_CURVE('',#714,#647,#723,.T.);
#723 = LINE('',#724,#725);
#724 = CARTESIAN_POINT('',(23.3,0.,163.));
#725 = VECTOR('',#726,1.);
#726 = DIRECTION('',(0.557434187884,0.,-0.830221130891));
#727 = ORIENTED_EDGE('',*,*,#646,.F.);
#728 = ORIENTED_EDGE('',*,*,#722,.F.);
#729 = CONICAL_SURFACE('',#730,23.3,0.591292065367);
#730 = AXIS2_PLACEMENT_3D('',#731,#732,#733);
#731 = CARTESIAN_POINT('',(0.,0.,163.));
#732 = DIRECTION('',(-0.,-0.,-1.));
#733 = DIRECTION('',(1.,0.,0.));
#734 = ADVANCED_FACE('',(#735,#738,#749,#760,#771),#782,.T.);
#735 = FACE_BOUND('',#736,.T.);
#736 = EDGE_LOOP('',(#737));
#737 = ORIENTED_EDGE('',*,*,#697,.T.);
#738 = FACE_BOUND('',#739,.T.);
#739 = EDGE_LOOP('',(#740));
#740 = ORIENTED_EDGE('',*,*,#741,.F.);
#741 = EDGE_CURVE('',#742,#742,#744,.T.);
#742 = VERTEX_POINT('',#743);
#743 = CARTESIAN_POINT('',(1.5,-13.3,168.));
#744 = CIRCLE('',#745,1.5);
#745 = AXIS2_PLACEMENT_3D('',#746,#747,#748);
#746 = CARTESIAN_POINT('',(0.,-13.3,168.));
#747 = DIRECTION('',(0.,0.,1.));
#748 = DIRECTION('',(1.,0.,0.));
#749 = FACE_BOUND('',#750,.T.);
#750 = EDGE_LOOP('',(#751));
#751 = ORIENTED_EDGE('',*,*,#752,.F.);
#752 = EDGE_CURVE('',#753,#753,#755,.T.);
#753 = VERTEX_POINT('',#754);
#754 = CARTESIAN_POINT('',(-10.01813787,6.65,168.));
#755 = CIRCLE('',#756,1.5);
#756 = AXIS2_PLACEMENT_3D('',#757,#758,#759);
#757 = CARTESIAN_POINT('',(-11.51813787,6.65,168.));
#758 = DIRECTION('',(0.,0.,1.));
#759 = DIRECTION('',(1.,0.,0.));
#760 = FACE_BOUND('',#761,.T.);
#761 = EDGE_LOOP('',(#762));
#762 = ORIENTED_EDGE('',*,*,#763,.F.);
#763 = EDGE_CURVE('',#764,#764,#766,.T.);
#764 = VERTEX_POINT('',#765);
#765 = CARTESIAN_POINT('',(8.,0.,168.));
#766 = CIRCLE('',#767,8.);
#767 = AXIS2_PLACEMENT_3D('',#768,#769,#770);
#768 = CARTESIAN_POINT('',(0.,0.,168.));
#769 = DIRECTION('',(0.,0.,1.));
#770 = DIRECTION('',(1.,0.,0.));
#771 = FACE_BOUND('',#772,.T.);
#772 = EDGE_LOOP('',(#773));
#773 = ORIENTED_EDGE('',*,*,#774,.F.);
#774 = EDGE_CURVE('',#775,#775,#777,.T.);
#775 = VERTEX_POINT('',#776);
#776 = CARTESIAN_POINT('',(13.01813787,6.65,168.));
#777 = CIRCLE('',#778,1.5);
#778 = AXIS2_PLACEMENT_3D('',#779,#780,#781);
#779 = CARTESIAN_POINT('',(11.51813787,6.65,168.));
#780 = DIRECTION('',(0.,0.,1.));
#781 = DIRECTION('',(1.,0.,0.));
#782 = PLANE('',#783);
#783 = AXIS2_PLACEMENT_3D('',#784,#785,#786);
#784 = CARTESIAN_POINT('',(0.,0.,168.));
#785 = DIRECTION('',(0.,0.,1.));
#786 = DIRECTION('',(1.,0.,0.));
#787 = ADVANCED_FACE('',(#788),#807,.F.);
#788 = FACE_BOUND('',#789,.T.);
#789 = EDGE_LOOP('',(#790,#799,#805,#806));
#790 = ORIENTED_EDGE('',*,*,#791,.T.);
#791 = EDGE_CURVE('',#792,#792,#794,.T.);
#792 = VERTEX_POINT('',#793);
#793 = CARTESIAN_POINT('',(23.3,0.,164.));
#794 = CIRCLE('',#795,23.3);
#795 = AXIS2_PLACEMENT_3D('',#796,#797,#798);
#796 = CARTESIAN_POINT('',(0.,0.,164.));
#797 = DIRECTION('',(0.,0.,1.));
#798 = DIRECTION('',(1.,0.,0.));
#799 = ORIENTED_EDGE('',*,*,#800,.T.);
#800 = EDGE_CURVE('',#792,#714,#801,.T.);
#801 = LINE('',#802,#803);
#802 = CARTESIAN_POINT('',(23.3,0.,164.));
#803 = VECTOR('',#804,1.);
#804 = DIRECTION('',(0.,0.,-1.));
#805 = ORIENTED_EDGE('',*,*,#713,.F.);
#806 = ORIENTED_EDGE('',*,*,#800,.F.);
#807 = CYLINDRICAL_SURFACE('',#808,23.3);
#808 = AXIS2_PLACEMENT_3D('',#809,#810,#811);
#809 = CARTESIAN_POINT('',(0.,0.,164.));
#810 = DIRECTION('',(-0.,-0.,-1.));
#811 = DIRECTION('',(1.,0.,0.));
#812 = ADVANCED_FACE('',(#813),#832,.F.);
#813 = FACE_BOUND('',#814,.F.);
#814 = EDGE_LOOP('',(#815,#816,#824,#831));
#815 = ORIENTED_EDGE('',*,*,#741,.F.);
#816 = ORIENTED_EDGE('',*,*,#817,.F.);
#817 = EDGE_CURVE('',#818,#742,#820,.T.);
#818 = VERTEX_POINT('',#819);
#819 = CARTESIAN_POINT('',(1.5,-13.3,164.));
#820 = LINE('',#821,#822);
#821 = CARTESIAN_POINT('',(1.5,-13.3,163.9));
#822 = VECTOR('',#823,1.);
#823 = DIRECTION('',(0.,0.,1.));
#824 = ORIENTED_EDGE('',*,*,#825,.T.);
#825 = EDGE_CURVE('',#818,#818,#826,.T.);
#826 = CIRCLE('',#827,1.5);
#827 = AXIS2_PLACEMENT_3D('',#828,#829,#830);
#828 = CARTESIAN_POINT('',(0.,-13.3,164.));
#829 = DIRECTION('',(0.,0.,1.));
#830 = DIRECTION('',(1.,0.,0.));
#831 = ORIENTED_EDGE('',*,*,#817,.T.);
#832 = CYLINDRICAL_SURFACE('',#833,1.5);
#833 = AXIS2_PLACEMENT_3D('',#834,#835,#836);
#834 = CARTESIAN_POINT('',(0.,-13.3,163.9));
#835 = DIRECTION('',(0.,0.,1.));
#836 = DIRECTION('',(1.,0.,0.));
#837 = ADVANCED_FACE('',(#838),#857,.F.);
#838 = FACE_BOUND('',#839,.F.);
#839 = EDGE_LOOP('',(#840,#841,#849,#856));
#840 = ORIENTED_EDGE('',*,*,#752,.F.);
#841 = ORIENTED_EDGE('',*,*,#842,.F.);
#842 = EDGE_CURVE('',#843,#753,#845,.T.);
#843 = VERTEX_POINT('',#844);
#844 = CARTESIAN_POINT('',(-10.01813787,6.65,164.));
#845 = LINE('',#846,#847);
#846 = CARTESIAN_POINT('',(-10.01813787,6.65,163.9));
#847 = VECTOR('',#848,1.);
#848 = DIRECTION('',(0.,0.,1.));
#849 = ORIENTED_EDGE('',*,*,#850,.T.);
#850 = EDGE_CURVE('',#843,#843,#851,.T.);
#851 = CIRCLE('',#852,1.5);
#852 = AXIS2_PLACEMENT_3D('',#853,#854,#855);
#853 = CARTESIAN_POINT('',(-11.51813787,6.65,164.));
#854 = DIRECTION('',(0.,0.,1.));
#855 = DIRECTION('',(1.,0.,0.));
#856 = ORIENTED_EDGE('',*,*,#842,.T.);
#857 = CYLINDRICAL_SURFACE('',#858,1.5);
#858 = AXIS2_PLACEMENT_3D('',#859,#860,#861);
#859 = CARTESIAN_POINT('',(-11.51813787,6.65,163.9));
#860 = DIRECTION('',(0.,0.,1.));
#861 = DIRECTION('',(1.,0.,0.));
#862 = ADVANCED_FACE('',(#863),#882,.F.);
#863 = FACE_BOUND('',#864,.T.);
#864 = EDGE_LOOP('',(#865,#866,#874,#881));
#865 = ORIENTED_EDGE('',*,*,#763,.T.);
#866 = ORIENTED_EDGE('',*,*,#867,.T.);
#867 = EDGE_CURVE('',#764,#868,#870,.T.);
#868 = VERTEX_POINT('',#869);
#869 = CARTESIAN_POINT('',(8.,0.,164.));
#870 = LINE('',#871,#872);
#871 = CARTESIAN_POINT('',(8.,0.,168.));
#872 = VECTOR('',#873,1.);
#873 = DIRECTION('',(0.,0.,-1.));
#874 = ORIENTED_EDGE('',*,*,#875,.F.);
#875 = EDGE_CURVE('',#868,#868,#876,.T.);
#876 = CIRCLE('',#877,8.);
#877 = AXIS2_PLACEMENT_3D('',#878,#879,#880);
#878 = CARTESIAN_POINT('',(0.,0.,164.));
#879 = DIRECTION('',(0.,0.,1.));
#880 = DIRECTION('',(1.,0.,0.));
#881 = ORIENTED_EDGE('',*,*,#867,.F.);
#882 = CYLINDRICAL_SURFACE('',#883,8.);
#883 = AXIS2_PLACEMENT_3D('',#884,#885,#886);
#884 = CARTESIAN_POINT('',(0.,0.,168.));
#885 = DIRECTION('',(-0.,-0.,-1.));
#886 = DIRECTION('',(1.,0.,0.));
#887 = ADVANCED_FACE('',(#888),#907,.F.);
#888 = FACE_BOUND('',#889,.F.);
#889 = EDGE_LOOP('',(#890,#891,#899,#906));
#890 = ORIENTED_EDGE('',*,*,#774,.F.);
#891 = ORIENTED_EDGE('',*,*,#892,.F.);
#892 = EDGE_CURVE('',#893,#775,#895,.T.);
#893 = VERTEX_POINT('',#894);
#894 = CARTESIAN_POINT('',(13.01813787,6.65,164.));
#895 = LINE('',#896,#897);
#896 = CARTESIAN_POINT('',(13.01813787,6.65,163.9));
#897 = VECTOR('',#898,1.);
#898 = DIRECTION('',(0.,0.,1.));
#899 = ORIENTED_EDGE('',*,*,#900,.T.);
#900 = EDGE_CURVE('',#893,#893,#901,.T.);
#901 = CIRCLE('',#902,1.5);
#902 = AXIS2_PLACEMENT_3D('',#903,#904,#905);
#903 = CARTESIAN_POINT('',(11.51813787,6.65,164.));
#904 = DIRECTION('',(0.,0.,1.));
#905 = DIRECTION('',(1.,0.,0.));
#906 = ORIENTED_EDGE('',*,*,#892,.T.);
#907 = CYLINDRICAL_SURFACE('',#908,1.5);
#908 = AXIS2_PLACEMENT_3D('',#909,#910,#911);
#909 = CARTESIAN_POINT('',(11.51813787,6.65,163.9));
#910 = DIRECTION('',(0.,0.,1.));
#911 = DIRECTION('',(1.,0.,0.));
#912 = ADVANCED_FACE('',(#913,#916,#919,#922,#925),#928,.F.);
#913 = FACE_BOUND('',#914,.T.);
#914 = EDGE_LOOP('',(#915));
#915 = ORIENTED_EDGE('',*,*,#791,.F.);
#916 = FACE_BOUND('',#917,.T.);
#917 = EDGE_LOOP('',(#918));
#918 = ORIENTED_EDGE('',*,*,#825,.T.);
#919 = FACE_BOUND('',#920,.T.);
#920 = EDGE_LOOP('',(#921));
#921 = ORIENTED_EDGE('',*,*,#900,.T.);
#922 = FACE_BOUND('',#923,.T.);
#923 = EDGE_LOOP('',(#924));
#924 = ORIENTED_EDGE('',*,*,#875,.T.);
#925 = FACE_BOUND('',#926,.T.);
#926 = EDGE_LOOP('',(#927));
#927 = ORIENTED_EDGE('',*,*,#850,.T.);
#928 = PLANE('',#929);
#929 = AXIS2_PLACEMENT_3D('',#930,#931,#932);
#930 = CARTESIAN_POINT('',(0.,0.,164.));
#931 = DIRECTION('',(0.,0.,1.));
#932 = DIRECTION('',(1.,0.,0.));
#933 = ADVANCED_FACE('',(#934,#945),#948,.T.);
#934 = FACE_BOUND('',#935,.T.);
#935 = EDGE_LOOP('',(#936,#937,#938,#939,#940,#941,#942,#943,#944));
#936 = ORIENTED_EDGE('',*,*,#170,.F.);
#937 = ORIENTED_EDGE('',*,*,#145,.F.);
#938 = ORIENTED_EDGE('',*,*,#327,.T.);
#939 = ORIENTED_EDGE('',*,*,#405,.T.);
#940 = ORIENTED_EDGE('',*,*,#334,.F.);
#941 = ORIENTED_EDGE('',*,*,#301,.F.);
#942 = ORIENTED_EDGE('',*,*,#359,.T.);
#943 = ORIENTED_EDGE('',*,*,#431,.T.);
#944 = ORIENTED_EDGE('',*,*,#366,.F.);
#945 = FACE_BOUND('',#946,.T.);
#946 = EDGE_LOOP('',(#947));
#947 = ORIENTED_EDGE('',*,*,#571,.T.);
#948 = PLANE('',#949);
#949 = AXIS2_PLACEMENT_3D('',#950,#951,#952);
#950 = CARTESIAN_POINT('',(0.719917238734,-0.349997059266,144.4));
#951 = DIRECTION('',(-0.,-0.,-1.));
#952 = DIRECTION('',(-1.,0.,0.));
#953 = ( GEOMETRIC_REPRESENTATION_CONTEXT(3) 
GLOBAL_UNCERTAINTY_ASSIGNED_CONTEXT((#957)) GLOBAL_UNIT_ASSIGNED_CONTEXT
((#954,#955,#956)) REPRESENTATION_CONTEXT('Context #1',
  '3D Context with UNIT and UNCERTAINTY') );
#954 = ( LENGTH_UNIT() NAMED_UNIT(*) SI_UNIT(.MILLI.,.METRE.) );
#955 = ( NAMED_UNIT(*) PLANE_ANGLE_UNIT() SI_UNIT($,.RADIAN.) );
#956 = ( NAMED_UNIT(*) SI_UNIT($,.STERADIAN.) SOLID_ANGLE_UNIT() );
#957 = UNCERTAINTY_MEASURE_WITH_UNIT(LENGTH_MEASURE(1.E-07),#954,
  'distance_accuracy_value','confusion accuracy');
#958 = PRODUCT_RELATED_PRODUCT_CATEGORY('part',$,(#7));
ENDSEC;
END-ISO-10303-21;
