ISO-10303-21;
HEADER;
FILE_DESCRIPTION(('FreeCAD Model'),'2;1');
FILE_NAME('Open CASCADE Shape Model','2026-09-20T16:48:14',('FreeCAD'),(
    'FreeCAD'),'Open CASCADE STEP processor 7.8','FreeCAD','Unknown');
FILE_SCHEMA(('AUTOMOTIVE_DESIGN { 1 0 10303 214 1 1 1 1 }'));
ENDSEC;
DATA;
#1 = APPLICATION_PROTOCOL_DEFINITION('international standard',
  'automotive_design',2000,#2);
#2 = APPLICATION_CONTEXT(
  'core data for automotive mechanical design processes');
#3 = SHAPE_DEFINITION_REPRESENTATION(#4,#10);
#4 = PRODUCT_DEFINITION_SHAPE('','',#5);
#5 = PRODUCT_DEFINITION('design','',#6,#9);
#6 = PRODUCT_DEFINITION_FORMATION('','',#7);
#7 = PRODUCT('Open CASCADE STEP translator 7.8 8',
  'Open CASCADE STEP translator 7.8 8','',(#8));
#8 = PRODUCT_CONTEXT('',#2,'mechanical');
#9 = PRODUCT_DEFINITION_CONTEXT('part definition',#2,'design');
#10 = ADVANCED_BREP_SHAPE_REPRESENTATION('',(#11,#15),#659);
#11 = AXIS2_PLACEMENT_3D('',#12,#13,#14);
#12 = CARTESIAN_POINT('',(0.,0.,0.));
#13 = DIRECTION('',(0.,0.,1.));
#14 = DIRECTION('',(1.,0.,-0.));
#15 = MANIFOLD_SOLID_BREP('',#16);
#16 = CLOSED_SHELL('',(#17,#57,#88,#134,#158,#275,#287,#312,#337,#368,
    #392,#416,#440,#464,#481,#512,#536,#560,#584,#608,#625,#642));
#17 = ADVANCED_FACE('',(#18),#52,.F.);
#18 = FACE_BOUND('',#19,.F.);
#19 = EDGE_LOOP('',(#20,#30,#38,#46));
#20 = ORIENTED_EDGE('',*,*,#21,.F.);
#21 = EDGE_CURVE('',#22,#24,#26,.T.);
#22 = VERTEX_POINT('',#23);
#23 = CARTESIAN_POINT('',(-15.,0.5,115.));
#24 = VERTEX_POINT('',#25);
#25 = CARTESIAN_POINT('',(-15.,0.5,119.));
#26 = LINE('',#27,#28);
#27 = CARTESIAN_POINT('',(-15.,0.5,115.));
#28 = VECTOR('',#29,1.);
#29 = DIRECTION('',(0.,0.,1.));
#30 = ORIENTED_EDGE('',*,*,#31,.T.);
#31 = EDGE_CURVE('',#22,#32,#34,.T.);
#32 = VERTEX_POINT('',#33);
#33 = CARTESIAN_POINT('',(-15.,10.5,115.));
#34 = LINE('',#35,#36);
#35 = CARTESIAN_POINT('',(-15.,0.5,115.));
#36 = VECTOR('',#37,1.);
#37 = DIRECTION('',(0.,1.,0.));
#38 = ORIENTED_EDGE('',*,*,#39,.T.);
#39 = EDGE_CURVE('',#32,#40,#42,.T.);
#40 = VERTEX_POINT('',#41);
#41 = CARTESIAN_POINT('',(-15.,10.5,119.));
#42 = LINE('',#43,#44);
#43 = CARTESIAN_POINT('',(-15.,10.5,115.));
#44 = VECTOR('',#45,1.);
#45 = DIRECTION('',(0.,0.,1.));
#46 = ORIENTED_EDGE('',*,*,#47,.F.);
#47 = EDGE_CURVE('',#24,#40,#48,.T.);
#48 = LINE('',#49,#50);
#49 = CARTESIAN_POINT('',(-15.,0.5,119.));
#50 = VECTOR('',#51,1.);
#51 = DIRECTION('',(0.,1.,0.));
#52 = PLANE('',#53);
#53 = AXIS2_PLACEMENT_3D('',#54,#55,#56);
#54 = CARTESIAN_POINT('',(-15.,0.5,115.));
#55 = DIRECTION('',(1.,0.,0.));
#56 = DIRECTION('',(0.,0.,1.));
#57 = ADVANCED_FACE('',(#58),#83,.F.);
#58 = FACE_BOUND('',#59,.F.);
#59 = EDGE_LOOP('',(#60,#68,#69,#77));
#60 = ORIENTED_EDGE('',*,*,#61,.F.);
#61 = EDGE_CURVE('',#22,#62,#64,.T.);
#62 = VERTEX_POINT('',#63);
#63 = CARTESIAN_POINT('',(15.,0.5,115.));
#64 = LINE('',#65,#66);
#65 = CARTESIAN_POINT('',(-15.,0.5,115.));
#66 = VECTOR('',#67,1.);
#67 = DIRECTION('',(1.,0.,0.));
#68 = ORIENTED_EDGE('',*,*,#21,.T.);
#69 = ORIENTED_EDGE('',*,*,#70,.T.);
#70 = EDGE_CURVE('',#24,#71,#73,.T.);
#71 = VERTEX_POINT('',#72);
#72 = CARTESIAN_POINT('',(15.,0.5,119.));
#73 = LINE('',#74,#75);
#74 = CARTESIAN_POINT('',(-15.,0.5,119.));
#75 = VECTOR('',#76,1.);
#76 = DIRECTION('',(1.,0.,0.));
#77 = ORIENTED_EDGE('',*,*,#78,.F.);
#78 = EDGE_CURVE('',#62,#71,#79,.T.);
#79 = LINE('',#80,#81);
#80 = CARTESIAN_POINT('',(15.,0.5,115.));
#81 = VECTOR('',#82,1.);
#82 = DIRECTION('',(0.,0.,1.));
#83 = PLANE('',#84);
#84 = AXIS2_PLACEMENT_3D('',#85,#86,#87);
#85 = CARTESIAN_POINT('',(-15.,0.5,115.));
#86 = DIRECTION('',(0.,1.,0.));
#87 = DIRECTION('',(0.,0.,1.));
#88 = ADVANCED_FACE('',(#89,#107,#118),#129,.T.);
#89 = FACE_BOUND('',#90,.T.);
#90 = EDGE_LOOP('',(#91,#92,#93,#101));
#91 = ORIENTED_EDGE('',*,*,#47,.F.);
#92 = ORIENTED_EDGE('',*,*,#70,.T.);
#93 = ORIENTED_EDGE('',*,*,#94,.T.);
#94 = EDGE_CURVE('',#71,#95,#97,.T.);
#95 = VERTEX_POINT('',#96);
#96 = CARTESIAN_POINT('',(15.,10.5,119.));
#97 = LINE('',#98,#99);
#98 = CARTESIAN_POINT('',(15.,0.5,119.));
#99 = VECTOR('',#100,1.);
#100 = DIRECTION('',(0.,1.,0.));
#101 = ORIENTED_EDGE('',*,*,#102,.F.);
#102 = EDGE_CURVE('',#40,#95,#103,.T.);
#103 = LINE('',#104,#105);
#104 = CARTESIAN_POINT('',(-15.,10.5,119.));
#105 = VECTOR('',#106,1.);
#106 = DIRECTION('',(1.,0.,0.));
#107 = FACE_BOUND('',#108,.T.);
#108 = EDGE_LOOP('',(#109));
#109 = ORIENTED_EDGE('',*,*,#110,.F.);
#110 = EDGE_CURVE('',#111,#111,#113,.T.);
#111 = VERTEX_POINT('',#112);
#112 = CARTESIAN_POINT('',(-7.85,5.5,119.));
#113 = CIRCLE('',#114,1.4);
#114 = AXIS2_PLACEMENT_3D('',#115,#116,#117);
#115 = CARTESIAN_POINT('',(-9.25,5.5,119.));
#116 = DIRECTION('',(0.,0.,1.));
#117 = DIRECTION('',(1.,0.,0.));
#118 = FACE_BOUND('',#119,.T.);
#119 = EDGE_LOOP('',(#120));
#120 = ORIENTED_EDGE('',*,*,#121,.F.);
#121 = EDGE_CURVE('',#122,#122,#124,.T.);
#122 = VERTEX_POINT('',#123);
#123 = CARTESIAN_POINT('',(10.65,5.5,119.));
#124 = CIRCLE('',#125,1.4);
#125 = AXIS2_PLACEMENT_3D('',#126,#127,#128);
#126 = CARTESIAN_POINT('',(9.25,5.5,119.));
#127 = DIRECTION('',(0.,0.,1.));
#128 = DIRECTION('',(1.,0.,0.));
#129 = PLANE('',#130);
#130 = AXIS2_PLACEMENT_3D('',#131,#132,#133);
#131 = CARTESIAN_POINT('',(-15.,0.5,119.));
#132 = DIRECTION('',(0.,0.,1.));
#133 = DIRECTION('',(1.,0.,0.));
#134 = ADVANCED_FACE('',(#135),#153,.T.);
#135 = FACE_BOUND('',#136,.T.);
#136 = EDGE_LOOP('',(#137,#145,#146,#147));
#137 = ORIENTED_EDGE('',*,*,#138,.F.);
#138 = EDGE_CURVE('',#32,#139,#141,.T.);
#139 = VERTEX_POINT('',#140);
#140 = CARTESIAN_POINT('',(15.,10.5,115.));
#141 = LINE('',#142,#143);
#142 = CARTESIAN_POINT('',(-15.,10.5,115.));
#143 = VECTOR('',#144,1.);
#144 = DIRECTION('',(1.,0.,0.));
#145 = ORIENTED_EDGE('',*,*,#39,.T.);
#146 = ORIENTED_EDGE('',*,*,#102,.T.);
#147 = ORIENTED_EDGE('',*,*,#148,.F.);
#148 = EDGE_CURVE('',#139,#95,#149,.T.);
#149 = LINE('',#150,#151);
#150 = CARTESIAN_POINT('',(15.,10.5,115.));
#151 = VECTOR('',#152,1.);
#152 = DIRECTION('',(0.,0.,1.));
#153 = PLANE('',#154);
#154 = AXIS2_PLACEMENT_3D('',#155,#156,#157);
#155 = CARTESIAN_POINT('',(-15.,10.5,115.));
#156 = DIRECTION('',(0.,1.,0.));
#157 = DIRECTION('',(0.,0.,1.));
#158 = ADVANCED_FACE('',(#159,#170,#220),#270,.F.);
#159 = FACE_BOUND('',#160,.F.);
#160 = EDGE_LOOP('',(#161,#162,#163,#169));
#161 = ORIENTED_EDGE('',*,*,#31,.F.);
#162 = ORIENTED_EDGE('',*,*,#61,.T.);
#163 = ORIENTED_EDGE('',*,*,#164,.T.);
#164 = EDGE_CURVE('',#62,#139,#165,.T.);
#165 = LINE('',#166,#167);
#166 = CARTESIAN_POINT('',(15.,0.5,115.));
#167 = VECTOR('',#168,1.);
#168 = DIRECTION('',(0.,1.,0.));
#169 = ORIENTED_EDGE('',*,*,#138,.F.);
#170 = FACE_BOUND('',#171,.F.);
#171 = EDGE_LOOP('',(#172,#182,#190,#198,#206,#214));
#172 = ORIENTED_EDGE('',*,*,#173,.T.);
#173 = EDGE_CURVE('',#174,#176,#178,.T.);
#174 = VERTEX_POINT('',#175);
#175 = CARTESIAN_POINT('',(-10.75111069989,8.1,115.));
#176 = VERTEX_POINT('',#177);
#177 = CARTESIAN_POINT('',(-7.748889300107,8.1,115.));
#178 = LINE('',#179,#180);
#179 = CARTESIAN_POINT('',(-11.37444465005,8.1,115.));
#180 = VECTOR('',#181,1.);
#181 = DIRECTION('',(1.,0.,0.));
#182 = ORIENTED_EDGE('',*,*,#183,.T.);
#183 = EDGE_CURVE('',#176,#184,#186,.T.);
#184 = VERTEX_POINT('',#185);
#185 = CARTESIAN_POINT('',(-6.247778600214,5.5,115.));
#186 = LINE('',#187,#188);
#187 = CARTESIAN_POINT('',(-6.259274520457,5.51991151794,115.));
#188 = VECTOR('',#189,1.);
#189 = DIRECTION('',(0.5,-0.866025403784,0.));
#190 = ORIENTED_EDGE('',*,*,#191,.T.);
#191 = EDGE_CURVE('',#184,#192,#194,.T.);
#192 = VERTEX_POINT('',#193);
#193 = CARTESIAN_POINT('',(-7.748889300107,2.9,115.));
#194 = LINE('',#195,#196);
#195 = CARTESIAN_POINT('',(-9.174893379864,0.43008848206,115.));
#196 = VECTOR('',#197,1.);
#197 = DIRECTION('',(-0.5,-0.866025403784,0.));
#198 = ORIENTED_EDGE('',*,*,#199,.T.);
#199 = EDGE_CURVE('',#192,#200,#202,.T.);
#200 = VERTEX_POINT('',#201);
#201 = CARTESIAN_POINT('',(-10.75111069989,2.9,115.));
#202 = LINE('',#203,#204);
#203 = CARTESIAN_POINT('',(-12.87555534994,2.9,115.));
#204 = VECTOR('',#205,1.);
#205 = DIRECTION('',(-1.,3.E-16,0.));
#206 = ORIENTED_EDGE('',*,*,#207,.T.);
#207 = EDGE_CURVE('',#200,#208,#210,.T.);
#208 = VERTEX_POINT('',#209);
#209 = CARTESIAN_POINT('',(-12.25222139978,5.5,115.));
#210 = LINE('',#211,#212);
#211 = CARTESIAN_POINT('',(-11.51316197008,4.21991151794,115.));
#212 = VECTOR('',#213,1.);
#213 = DIRECTION('',(-0.5,0.866025403784,0.));
#214 = ORIENTED_EDGE('',*,*,#215,.T.);
#215 = EDGE_CURVE('',#208,#174,#216,.T.);
#216 = LINE('',#217,#218);
#217 = CARTESIAN_POINT('',(-12.92767012959,4.33008848206,115.));
#218 = VECTOR('',#219,1.);
#219 = DIRECTION('',(0.5,0.866025403784,0.));
#220 = FACE_BOUND('',#221,.F.);
#221 = EDGE_LOOP('',(#222,#232,#240,#248,#256,#264));
#222 = ORIENTED_EDGE('',*,*,#223,.T.);
#223 = EDGE_CURVE('',#224,#226,#228,.T.);
#224 = VERTEX_POINT('',#225);
#225 = CARTESIAN_POINT('',(7.748889300107,8.1,115.));
#226 = VERTEX_POINT('',#227);
#227 = CARTESIAN_POINT('',(10.751110699893,8.1,115.));
#228 = LINE('',#229,#230);
#229 = CARTESIAN_POINT('',(-2.124444650053,8.1,115.));
#230 = VECTOR('',#231,1.);
#231 = DIRECTION('',(1.,0.,0.));
#232 = ORIENTED_EDGE('',*,*,#233,.T.);
#233 = EDGE_CURVE('',#226,#234,#236,.T.);
#234 = VERTEX_POINT('',#235);
#235 = CARTESIAN_POINT('',(12.252221399786,5.5,115.));
#236 = LINE('',#237,#238);
#237 = CARTESIAN_POINT('',(9.928225479543,9.525279010443,115.));
#238 = VECTOR('',#239,1.);
#239 = DIRECTION('',(0.5,-0.866025403784,0.));
#240 = ORIENTED_EDGE('',*,*,#241,.T.);
#241 = EDGE_CURVE('',#234,#242,#244,.T.);
#242 = VERTEX_POINT('',#243);
#243 = CARTESIAN_POINT('',(10.751110699893,2.9,115.));
#244 = LINE('',#245,#246);
#245 = CARTESIAN_POINT('',(7.012606620136,-3.575279010443,115.));
#246 = VECTOR('',#247,1.);
#247 = DIRECTION('',(-0.5,-0.866025403784,0.));
#248 = ORIENTED_EDGE('',*,*,#249,.T.);
#249 = EDGE_CURVE('',#242,#250,#252,.T.);
#250 = VERTEX_POINT('',#251);
#251 = CARTESIAN_POINT('',(7.748889300107,2.9,115.));
#252 = LINE('',#253,#254);
#253 = CARTESIAN_POINT('',(-3.625555349947,2.9,115.));
#254 = VECTOR('',#255,1.);
#255 = DIRECTION('',(-1.,3.E-16,0.));
#256 = ORIENTED_EDGE('',*,*,#257,.T.);
#257 = EDGE_CURVE('',#250,#258,#260,.T.);
#258 = VERTEX_POINT('',#259);
#259 = CARTESIAN_POINT('',(6.247778600214,5.5,115.));
#260 = LINE('',#261,#262);
#261 = CARTESIAN_POINT('',(4.674338029918,8.225279010443,115.));
#262 = VECTOR('',#263,1.);
#263 = DIRECTION('',(-0.5,0.866025403784,0.));
#264 = ORIENTED_EDGE('',*,*,#265,.T.);
#265 = EDGE_CURVE('',#258,#224,#266,.T.);
#266 = LINE('',#267,#268);
#267 = CARTESIAN_POINT('',(3.259829870403,0.324720989557,115.));
#268 = VECTOR('',#269,1.);
#269 = DIRECTION('',(0.5,0.866025403784,0.));
#270 = PLANE('',#271);
#271 = AXIS2_PLACEMENT_3D('',#272,#273,#274);
#272 = CARTESIAN_POINT('',(-15.,0.5,115.));
#273 = DIRECTION('',(0.,0.,1.));
#274 = DIRECTION('',(1.,0.,0.));
#275 = ADVANCED_FACE('',(#276),#282,.T.);
#276 = FACE_BOUND('',#277,.T.);
#277 = EDGE_LOOP('',(#278,#279,#280,#281));
#278 = ORIENTED_EDGE('',*,*,#78,.F.);
#279 = ORIENTED_EDGE('',*,*,#164,.T.);
#280 = ORIENTED_EDGE('',*,*,#148,.T.);
#281 = ORIENTED_EDGE('',*,*,#94,.F.);
#282 = PLANE('',#283);
#283 = AXIS2_PLACEMENT_3D('',#284,#285,#286);
#284 = CARTESIAN_POINT('',(15.,0.5,115.));
#285 = DIRECTION('',(1.,0.,0.));
#286 = DIRECTION('',(0.,0.,1.));
#287 = ADVANCED_FACE('',(#288),#307,.F.);
#288 = FACE_BOUND('',#289,.F.);
#289 = EDGE_LOOP('',(#290,#298,#299,#300));
#290 = ORIENTED_EDGE('',*,*,#291,.T.);
#291 = EDGE_CURVE('',#292,#111,#294,.T.);
#292 = VERTEX_POINT('',#293);
#293 = CARTESIAN_POINT('',(-7.85,5.5,117.2));
#294 = LINE('',#295,#296);
#295 = CARTESIAN_POINT('',(-7.85,5.5,114.9));
#296 = VECTOR('',#297,1.);
#297 = DIRECTION('',(0.,0.,1.));
#298 = ORIENTED_EDGE('',*,*,#110,.F.);
#299 = ORIENTED_EDGE('',*,*,#291,.F.);
#300 = ORIENTED_EDGE('',*,*,#301,.T.);
#301 = EDGE_CURVE('',#292,#292,#302,.T.);
#302 = CIRCLE('',#303,1.4);
#303 = AXIS2_PLACEMENT_3D('',#304,#305,#306);
#304 = CARTESIAN_POINT('',(-9.25,5.5,117.2));
#305 = DIRECTION('',(0.,0.,1.));
#306 = DIRECTION('',(1.,0.,0.));
#307 = CYLINDRICAL_SURFACE('',#308,1.4);
#308 = AXIS2_PLACEMENT_3D('',#309,#310,#311);
#309 = CARTESIAN_POINT('',(-9.25,5.5,114.9));
#310 = DIRECTION('',(0.,0.,1.));
#311 = DIRECTION('',(1.,0.,0.));
#312 = ADVANCED_FACE('',(#313),#332,.F.);
#313 = FACE_BOUND('',#314,.F.);
#314 = EDGE_LOOP('',(#315,#323,#324,#325));
#315 = ORIENTED_EDGE('',*,*,#316,.T.);
#316 = EDGE_CURVE('',#317,#122,#319,.T.);
#317 = VERTEX_POINT('',#318);
#318 = CARTESIAN_POINT('',(10.65,5.5,117.2));
#319 = LINE('',#320,#321);
#320 = CARTESIAN_POINT('',(10.65,5.5,114.9));
#321 = VECTOR('',#322,1.);
#322 = DIRECTION('',(0.,0.,1.));
#323 = ORIENTED_EDGE('',*,*,#121,.F.);
#324 = ORIENTED_EDGE('',*,*,#316,.F.);
#325 = ORIENTED_EDGE('',*,*,#326,.T.);
#326 = EDGE_CURVE('',#317,#317,#327,.T.);
#327 = CIRCLE('',#328,1.4);
#328 = AXIS2_PLACEMENT_3D('',#329,#330,#331);
#329 = CARTESIAN_POINT('',(9.25,5.5,117.2));
#330 = DIRECTION('',(0.,0.,1.));
#331 = DIRECTION('',(1.,0.,0.));
#332 = CYLINDRICAL_SURFACE('',#333,1.4);
#333 = AXIS2_PLACEMENT_3D('',#334,#335,#336);
#334 = CARTESIAN_POINT('',(9.25,5.5,114.9));
#335 = DIRECTION('',(0.,0.,1.));
#336 = DIRECTION('',(1.,0.,0.));
#337 = ADVANCED_FACE('',(#338),#363,.T.);
#338 = FACE_BOUND('',#339,.T.);
#339 = EDGE_LOOP('',(#340,#341,#349,#357));
#340 = ORIENTED_EDGE('',*,*,#173,.T.);
#341 = ORIENTED_EDGE('',*,*,#342,.T.);
#342 = EDGE_CURVE('',#176,#343,#345,.T.);
#343 = VERTEX_POINT('',#344);
#344 = CARTESIAN_POINT('',(-7.748889300107,8.1,117.2));
#345 = LINE('',#346,#347);
#346 = CARTESIAN_POINT('',(-7.748889300107,8.1,114.9));
#347 = VECTOR('',#348,1.);
#348 = DIRECTION('',(0.,0.,1.));
#349 = ORIENTED_EDGE('',*,*,#350,.T.);
#350 = EDGE_CURVE('',#343,#351,#353,.T.);
#351 = VERTEX_POINT('',#352);
#352 = CARTESIAN_POINT('',(-10.75111069989,8.1,117.2));
#353 = LINE('',#354,#355);
#354 = CARTESIAN_POINT('',(-7.748889300107,8.1,117.2));
#355 = VECTOR('',#356,1.);
#356 = DIRECTION('',(-1.,0.,0.));
#357 = ORIENTED_EDGE('',*,*,#358,.F.);
#358 = EDGE_CURVE('',#174,#351,#359,.T.);
#359 = LINE('',#360,#361);
#360 = CARTESIAN_POINT('',(-10.75111069989,8.1,114.9));
#361 = VECTOR('',#362,1.);
#362 = DIRECTION('',(0.,0.,1.));
#363 = PLANE('',#364);
#364 = AXIS2_PLACEMENT_3D('',#365,#366,#367);
#365 = CARTESIAN_POINT('',(-7.748889300107,8.1,114.9));
#366 = DIRECTION('',(0.,-1.,0.));
#367 = DIRECTION('',(-1.,0.,0.));
#368 = ADVANCED_FACE('',(#369),#387,.T.);
#369 = FACE_BOUND('',#370,.T.);
#370 = EDGE_LOOP('',(#371,#372,#373,#381));
#371 = ORIENTED_EDGE('',*,*,#215,.T.);
#372 = ORIENTED_EDGE('',*,*,#358,.T.);
#373 = ORIENTED_EDGE('',*,*,#374,.T.);
#374 = EDGE_CURVE('',#351,#375,#377,.T.);
#375 = VERTEX_POINT('',#376);
#376 = CARTESIAN_POINT('',(-12.25222139978,5.5,117.2));
#377 = LINE('',#378,#379);
#378 = CARTESIAN_POINT('',(-10.75111069989,8.1,117.2));
#379 = VECTOR('',#380,1.);
#380 = DIRECTION('',(-0.5,-0.866025403784,0.));
#381 = ORIENTED_EDGE('',*,*,#382,.F.);
#382 = EDGE_CURVE('',#208,#375,#383,.T.);
#383 = LINE('',#384,#385);
#384 = CARTESIAN_POINT('',(-12.25222139978,5.5,114.9));
#385 = VECTOR('',#386,1.);
#386 = DIRECTION('',(0.,0.,1.));
#387 = PLANE('',#388);
#388 = AXIS2_PLACEMENT_3D('',#389,#390,#391);
#389 = CARTESIAN_POINT('',(-10.75111069989,8.1,114.9));
#390 = DIRECTION('',(0.866025403784,-0.5,0.));
#391 = DIRECTION('',(-0.5,-0.866025403784,0.));
#392 = ADVANCED_FACE('',(#393),#411,.T.);
#393 = FACE_BOUND('',#394,.T.);
#394 = EDGE_LOOP('',(#395,#396,#404,#410));
#395 = ORIENTED_EDGE('',*,*,#183,.T.);
#396 = ORIENTED_EDGE('',*,*,#397,.T.);
#397 = EDGE_CURVE('',#184,#398,#400,.T.);
#398 = VERTEX_POINT('',#399);
#399 = CARTESIAN_POINT('',(-6.247778600214,5.5,117.2));
#400 = LINE('',#401,#402);
#401 = CARTESIAN_POINT('',(-6.247778600214,5.5,114.9));
#402 = VECTOR('',#403,1.);
#403 = DIRECTION('',(0.,0.,1.));
#404 = ORIENTED_EDGE('',*,*,#405,.T.);
#405 = EDGE_CURVE('',#398,#343,#406,.T.);
#406 = LINE('',#407,#408);
#407 = CARTESIAN_POINT('',(-6.247778600214,5.5,117.2));
#408 = VECTOR('',#409,1.);
#409 = DIRECTION('',(-0.5,0.866025403784,0.));
#410 = ORIENTED_EDGE('',*,*,#342,.F.);
#411 = PLANE('',#412);
#412 = AXIS2_PLACEMENT_3D('',#413,#414,#415);
#413 = CARTESIAN_POINT('',(-6.247778600214,5.5,114.9));
#414 = DIRECTION('',(-0.866025403784,-0.5,0.));
#415 = DIRECTION('',(-0.5,0.866025403784,0.));
#416 = ADVANCED_FACE('',(#417),#435,.T.);
#417 = FACE_BOUND('',#418,.T.);
#418 = EDGE_LOOP('',(#419,#420,#421,#429));
#419 = ORIENTED_EDGE('',*,*,#207,.T.);
#420 = ORIENTED_EDGE('',*,*,#382,.T.);
#421 = ORIENTED_EDGE('',*,*,#422,.T.);
#422 = EDGE_CURVE('',#375,#423,#425,.T.);
#423 = VERTEX_POINT('',#424);
#424 = CARTESIAN_POINT('',(-10.75111069989,2.9,117.2));
#425 = LINE('',#426,#427);
#426 = CARTESIAN_POINT('',(-12.25222139978,5.5,117.2));
#427 = VECTOR('',#428,1.);
#428 = DIRECTION('',(0.5,-0.866025403784,0.));
#429 = ORIENTED_EDGE('',*,*,#430,.F.);
#430 = EDGE_CURVE('',#200,#423,#431,.T.);
#431 = LINE('',#432,#433);
#432 = CARTESIAN_POINT('',(-10.75111069989,2.9,114.9));
#433 = VECTOR('',#434,1.);
#434 = DIRECTION('',(0.,0.,1.));
#435 = PLANE('',#436);
#436 = AXIS2_PLACEMENT_3D('',#437,#438,#439);
#437 = CARTESIAN_POINT('',(-12.25222139978,5.5,114.9));
#438 = DIRECTION('',(0.866025403784,0.5,0.));
#439 = DIRECTION('',(0.5,-0.866025403784,0.));
#440 = ADVANCED_FACE('',(#441),#459,.T.);
#441 = FACE_BOUND('',#442,.T.);
#442 = EDGE_LOOP('',(#443,#444,#452,#458));
#443 = ORIENTED_EDGE('',*,*,#191,.T.);
#444 = ORIENTED_EDGE('',*,*,#445,.T.);
#445 = EDGE_CURVE('',#192,#446,#448,.T.);
#446 = VERTEX_POINT('',#447);
#447 = CARTESIAN_POINT('',(-7.748889300107,2.9,117.2));
#448 = LINE('',#449,#450);
#449 = CARTESIAN_POINT('',(-7.748889300107,2.9,114.9));
#450 = VECTOR('',#451,1.);
#451 = DIRECTION('',(0.,0.,1.));
#452 = ORIENTED_EDGE('',*,*,#453,.T.);
#453 = EDGE_CURVE('',#446,#398,#454,.T.);
#454 = LINE('',#455,#456);
#455 = CARTESIAN_POINT('',(-7.748889300107,2.9,117.2));
#456 = VECTOR('',#457,1.);
#457 = DIRECTION('',(0.5,0.866025403784,0.));
#458 = ORIENTED_EDGE('',*,*,#397,.F.);
#459 = PLANE('',#460);
#460 = AXIS2_PLACEMENT_3D('',#461,#462,#463);
#461 = CARTESIAN_POINT('',(-7.748889300107,2.9,114.9));
#462 = DIRECTION('',(-0.866025403784,0.5,0.));
#463 = DIRECTION('',(0.5,0.866025403784,0.));
#464 = ADVANCED_FACE('',(#465),#476,.T.);
#465 = FACE_BOUND('',#466,.T.);
#466 = EDGE_LOOP('',(#467,#468,#469,#475));
#467 = ORIENTED_EDGE('',*,*,#199,.T.);
#468 = ORIENTED_EDGE('',*,*,#430,.T.);
#469 = ORIENTED_EDGE('',*,*,#470,.T.);
#470 = EDGE_CURVE('',#423,#446,#471,.T.);
#471 = LINE('',#472,#473);
#472 = CARTESIAN_POINT('',(-10.75111069989,2.9,117.2));
#473 = VECTOR('',#474,1.);
#474 = DIRECTION('',(1.,-3.E-16,0.));
#475 = ORIENTED_EDGE('',*,*,#445,.F.);
#476 = PLANE('',#477);
#477 = AXIS2_PLACEMENT_3D('',#478,#479,#480);
#478 = CARTESIAN_POINT('',(-10.75111069989,2.9,114.9));
#479 = DIRECTION('',(3.E-16,1.,0.));
#480 = DIRECTION('',(1.,-3.E-16,0.));
#481 = ADVANCED_FACE('',(#482),#507,.T.);
#482 = FACE_BOUND('',#483,.T.);
#483 = EDGE_LOOP('',(#484,#485,#493,#501));
#484 = ORIENTED_EDGE('',*,*,#223,.T.);
#485 = ORIENTED_EDGE('',*,*,#486,.T.);
#486 = EDGE_CURVE('',#226,#487,#489,.T.);
#487 = VERTEX_POINT('',#488);
#488 = CARTESIAN_POINT('',(10.751110699893,8.1,117.2));
#489 = LINE('',#490,#491);
#490 = CARTESIAN_POINT('',(10.751110699893,8.1,114.9));
#491 = VECTOR('',#492,1.);
#492 = DIRECTION('',(0.,0.,1.));
#493 = ORIENTED_EDGE('',*,*,#494,.T.);
#494 = EDGE_CURVE('',#487,#495,#497,.T.);
#495 = VERTEX_POINT('',#496);
#496 = CARTESIAN_POINT('',(7.748889300107,8.1,117.2));
#497 = LINE('',#498,#499);
#498 = CARTESIAN_POINT('',(10.751110699893,8.1,117.2));
#499 = VECTOR('',#500,1.);
#500 = DIRECTION('',(-1.,0.,0.));
#501 = ORIENTED_EDGE('',*,*,#502,.F.);
#502 = EDGE_CURVE('',#224,#495,#503,.T.);
#503 = LINE('',#504,#505);
#504 = CARTESIAN_POINT('',(7.748889300107,8.1,114.9));
#505 = VECTOR('',#506,1.);
#506 = DIRECTION('',(0.,0.,1.));
#507 = PLANE('',#508);
#508 = AXIS2_PLACEMENT_3D('',#509,#510,#511);
#509 = CARTESIAN_POINT('',(10.751110699893,8.1,114.9));
#510 = DIRECTION('',(0.,-1.,0.));
#511 = DIRECTION('',(-1.,0.,0.));
#512 = ADVANCED_FACE('',(#513),#531,.T.);
#513 = FACE_BOUND('',#514,.T.);
#514 = EDGE_LOOP('',(#515,#516,#517,#525));
#515 = ORIENTED_EDGE('',*,*,#265,.T.);
#516 = ORIENTED_EDGE('',*,*,#502,.T.);
#517 = ORIENTED_EDGE('',*,*,#518,.T.);
#518 = EDGE_CURVE('',#495,#519,#521,.T.);
#519 = VERTEX_POINT('',#520);
#520 = CARTESIAN_POINT('',(6.247778600214,5.5,117.2));
#521 = LINE('',#522,#523);
#522 = CARTESIAN_POINT('',(7.748889300107,8.1,117.2));
#523 = VECTOR('',#524,1.);
#524 = DIRECTION('',(-0.5,-0.866025403784,0.));
#525 = ORIENTED_EDGE('',*,*,#526,.F.);
#526 = EDGE_CURVE('',#258,#519,#527,.T.);
#527 = LINE('',#528,#529);
#528 = CARTESIAN_POINT('',(6.247778600214,5.5,114.9));
#529 = VECTOR('',#530,1.);
#530 = DIRECTION('',(0.,0.,1.));
#531 = PLANE('',#532);
#532 = AXIS2_PLACEMENT_3D('',#533,#534,#535);
#533 = CARTESIAN_POINT('',(7.748889300107,8.1,114.9));
#534 = DIRECTION('',(0.866025403784,-0.5,0.));
#535 = DIRECTION('',(-0.5,-0.866025403784,0.));
#536 = ADVANCED_FACE('',(#537),#555,.T.);
#537 = FACE_BOUND('',#538,.T.);
#538 = EDGE_LOOP('',(#539,#540,#541,#549));
#539 = ORIENTED_EDGE('',*,*,#257,.T.);
#540 = ORIENTED_EDGE('',*,*,#526,.T.);
#541 = ORIENTED_EDGE('',*,*,#542,.T.);
#542 = EDGE_CURVE('',#519,#543,#545,.T.);
#543 = VERTEX_POINT('',#544);
#544 = CARTESIAN_POINT('',(7.748889300107,2.9,117.2));
#545 = LINE('',#546,#547);
#546 = CARTESIAN_POINT('',(6.247778600214,5.5,117.2));
#547 = VECTOR('',#548,1.);
#548 = DIRECTION('',(0.5,-0.866025403784,0.));
#549 = ORIENTED_EDGE('',*,*,#550,.F.);
#550 = EDGE_CURVE('',#250,#543,#551,.T.);
#551 = LINE('',#552,#553);
#552 = CARTESIAN_POINT('',(7.748889300107,2.9,114.9));
#553 = VECTOR('',#554,1.);
#554 = DIRECTION('',(0.,0.,1.));
#555 = PLANE('',#556);
#556 = AXIS2_PLACEMENT_3D('',#557,#558,#559);
#557 = CARTESIAN_POINT('',(6.247778600214,5.5,114.9));
#558 = DIRECTION('',(0.866025403784,0.5,0.));
#559 = DIRECTION('',(0.5,-0.866025403784,0.));
#560 = ADVANCED_FACE('',(#561),#579,.T.);
#561 = FACE_BOUND('',#562,.T.);
#562 = EDGE_LOOP('',(#563,#564,#565,#573));
#563 = ORIENTED_EDGE('',*,*,#249,.T.);
#564 = ORIENTED_EDGE('',*,*,#550,.T.);
#565 = ORIENTED_EDGE('',*,*,#566,.T.);
#566 = EDGE_CURVE('',#543,#567,#569,.T.);
#567 = VERTEX_POINT('',#568);
#568 = CARTESIAN_POINT('',(10.751110699893,2.9,117.2));
#569 = LINE('',#570,#571);
#570 = CARTESIAN_POINT('',(7.748889300107,2.9,117.2));
#571 = VECTOR('',#572,1.);
#572 = DIRECTION('',(1.,-3.E-16,0.));
#573 = ORIENTED_EDGE('',*,*,#574,.F.);
#574 = EDGE_CURVE('',#242,#567,#575,.T.);
#575 = LINE('',#576,#577);
#576 = CARTESIAN_POINT('',(10.751110699893,2.9,114.9));
#577 = VECTOR('',#578,1.);
#578 = DIRECTION('',(0.,0.,1.));
#579 = PLANE('',#580);
#580 = AXIS2_PLACEMENT_3D('',#581,#582,#583);
#581 = CARTESIAN_POINT('',(7.748889300107,2.9,114.9));
#582 = DIRECTION('',(3.E-16,1.,0.));
#583 = DIRECTION('',(1.,-3.E-16,0.));
#584 = ADVANCED_FACE('',(#585),#603,.T.);
#585 = FACE_BOUND('',#586,.T.);
#586 = EDGE_LOOP('',(#587,#588,#589,#597));
#587 = ORIENTED_EDGE('',*,*,#241,.T.);
#588 = ORIENTED_EDGE('',*,*,#574,.T.);
#589 = ORIENTED_EDGE('',*,*,#590,.T.);
#590 = EDGE_CURVE('',#567,#591,#593,.T.);
#591 = VERTEX_POINT('',#592);
#592 = CARTESIAN_POINT('',(12.252221399786,5.5,117.2));
#593 = LINE('',#594,#595);
#594 = CARTESIAN_POINT('',(10.751110699893,2.9,117.2));
#595 = VECTOR('',#596,1.);
#596 = DIRECTION('',(0.5,0.866025403784,0.));
#597 = ORIENTED_EDGE('',*,*,#598,.F.);
#598 = EDGE_CURVE('',#234,#591,#599,.T.);
#599 = LINE('',#600,#601);
#600 = CARTESIAN_POINT('',(12.252221399786,5.5,114.9));
#601 = VECTOR('',#602,1.);
#602 = DIRECTION('',(0.,0.,1.));
#603 = PLANE('',#604);
#604 = AXIS2_PLACEMENT_3D('',#605,#606,#607);
#605 = CARTESIAN_POINT('',(10.751110699893,2.9,114.9));
#606 = DIRECTION('',(-0.866025403784,0.5,0.));
#607 = DIRECTION('',(0.5,0.866025403784,0.));
#608 = ADVANCED_FACE('',(#609),#620,.T.);
#609 = FACE_BOUND('',#610,.T.);
#610 = EDGE_LOOP('',(#611,#612,#613,#619));
#611 = ORIENTED_EDGE('',*,*,#233,.T.);
#612 = ORIENTED_EDGE('',*,*,#598,.T.);
#613 = ORIENTED_EDGE('',*,*,#614,.T.);
#614 = EDGE_CURVE('',#591,#487,#615,.T.);
#615 = LINE('',#616,#617);
#616 = CARTESIAN_POINT('',(12.252221399786,5.5,117.2));
#617 = VECTOR('',#618,1.);
#618 = DIRECTION('',(-0.5,0.866025403784,0.));
#619 = ORIENTED_EDGE('',*,*,#486,.F.);
#620 = PLANE('',#621);
#621 = AXIS2_PLACEMENT_3D('',#622,#623,#624);
#622 = CARTESIAN_POINT('',(12.252221399786,5.5,114.9));
#623 = DIRECTION('',(-0.866025403784,-0.5,0.));
#624 = DIRECTION('',(-0.5,0.866025403784,0.));
#625 = ADVANCED_FACE('',(#626,#634),#637,.F.);
#626 = FACE_BOUND('',#627,.F.);
#627 = EDGE_LOOP('',(#628,#629,#630,#631,#632,#633));
#628 = ORIENTED_EDGE('',*,*,#405,.T.);
#629 = ORIENTED_EDGE('',*,*,#350,.T.);
#630 = ORIENTED_EDGE('',*,*,#374,.T.);
#631 = ORIENTED_EDGE('',*,*,#422,.T.);
#632 = ORIENTED_EDGE('',*,*,#470,.T.);
#633 = ORIENTED_EDGE('',*,*,#453,.T.);
#634 = FACE_BOUND('',#635,.F.);
#635 = EDGE_LOOP('',(#636));
#636 = ORIENTED_EDGE('',*,*,#301,.F.);
#637 = PLANE('',#638);
#638 = AXIS2_PLACEMENT_3D('',#639,#640,#641);
#639 = CARTESIAN_POINT('',(-9.25,5.5,117.2));
#640 = DIRECTION('',(0.,0.,1.));
#641 = DIRECTION('',(1.,0.,0.));
#642 = ADVANCED_FACE('',(#643,#651),#654,.F.);
#643 = FACE_BOUND('',#644,.F.);
#644 = EDGE_LOOP('',(#645,#646,#647,#648,#649,#650));
#645 = ORIENTED_EDGE('',*,*,#614,.T.);
#646 = ORIENTED_EDGE('',*,*,#494,.T.);
#647 = ORIENTED_EDGE('',*,*,#518,.T.);
#648 = ORIENTED_EDGE('',*,*,#542,.T.);
#649 = ORIENTED_EDGE('',*,*,#566,.T.);
#650 = ORIENTED_EDGE('',*,*,#590,.T.);
#651 = FACE_BOUND('',#652,.F.);
#652 = EDGE_LOOP('',(#653));
#653 = ORIENTED_EDGE('',*,*,#326,.F.);
#654 = PLANE('',#655);
#655 = AXIS2_PLACEMENT_3D('',#656,#657,#658);
#656 = CARTESIAN_POINT('',(9.25,5.5,117.2));
#657 = DIRECTION('',(0.,0.,1.));
#658 = DIRECTION('',(1.,0.,0.));
#659 = ( GEOMETRIC_REPRESENTATION_CONTEXT(3) 
GLOBAL_UNCERTAINTY_ASSIGNED_CONTEXT((#663)) GLOBAL_UNIT_ASSIGNED_CONTEXT
((#660,#661,#662)) REPRESENTATION_CONTEXT('Context #1',
  '3D Context with UNIT and UNCERTAINTY') );
#660 = ( LENGTH_UNIT() NAMED_UNIT(*) SI_UNIT(.MILLI.,.METRE.) );
#661 = ( NAMED_UNIT(*) PLANE_ANGLE_UNIT() SI_UNIT($,.RADIAN.) );
#662 = ( NAMED_UNIT(*) SI_UNIT($,.STERADIAN.) SOLID_ANGLE_UNIT() );
#663 = UNCERTAINTY_MEASURE_WITH_UNIT(LENGTH_MEASURE(1.E-07),#660,
  'distance_accuracy_value','confusion accuracy');
#664 = PRODUCT_RELATED_PRODUCT_CATEGORY('part',$,(#7));
ENDSEC;
END-ISO-10303-21;
