ISO-10303-21;
HEADER;
FILE_DESCRIPTION(('FreeCAD Model'),'2;1');
FILE_NAME('Open CASCADE Shape Model','2026-09-20T16:48:14',('FreeCAD'),(
    'FreeCAD'),'Open CASCADE STEP processor 7.8','FreeCAD','Unknown');
FILE_SCHEMA(('AUTOMOTIVE_DESIGN { 1 0 10303 214 1 1 1 1 }'));
ENDSEC;
DATA;
#1 = APPLICATION_PROTOCOL_DEFINITION('international standard',
  'automotive_design',2000,#2);
#2 = APPLICATION_CONTEXT(
  'core data for automotive mechanical design processes');
#3 = SHAPE_DEFINITION_REPRESENTATION(#4,#10);
#4 = PRODUCT_DEFINITION_SHAPE('','',#5);
#5 = PRODUCT_DEFINITION('design','',#6,#9);
#6 = PRODUCT_DEFINITION_FORMATION('','',#7);
#7 = PRODUCT('Open CASCADE STEP translator 7.8 9',
  'Open CASCADE STEP translator 7.8 9','',(#8));
#8 = PRODUCT_CONTEXT('',#2,'mechanical');
#9 = PRODUCT_DEFINITION_CONTEXT('part definition',#2,'design');
#10 = ADVANCED_BREP_SHAPE_REPRESENTATION('',(#11,#15),#512);
#11 = AXIS2_PLACEMENT_3D('',#12,#13,#14);
#12 = CARTESIAN_POINT('',(0.,0.,0.));
#13 = DIRECTION('',(0.,0.,1.));
#14 = DIRECTION('',(1.,0.,-0.));
#15 = MANIFOLD_SOLID_BREP('',#16);
#16 = CLOSED_SHELL('',(#17,#316,#469,#478,#503));
#17 = ADVANCED_FACE('',(#18),#311,.T.);
#18 = FACE_BOUND('',#19,.T.);
#19 = EDGE_LOOP('',(#20,#30,#170,#171));
#20 = ORIENTED_EDGE('',*,*,#21,.T.);
#21 = EDGE_CURVE('',#22,#24,#26,.T.);
#22 = VERTEX_POINT('',#23);
#23 = CARTESIAN_POINT('',(-1.E-15,35.119318181818,114.9));
#24 = VERTEX_POINT('',#25);
#25 = CARTESIAN_POINT('',(-1.E-15,37.269318181818,114.9));
#26 = LINE('',#27,#28);
#27 = CARTESIAN_POINT('',(-1.2E-15,33.9,114.9));
#28 = VECTOR('',#29,1.);
#29 = DIRECTION('',(0.,1.,0.));
#30 = ORIENTED_EDGE('',*,*,#31,.T.);
#31 = EDGE_CURVE('',#24,#24,#32,.T.);
#32 = B_SPLINE_CURVE_WITH_KNOTS('',6,(#33,#34,#35,#36,#37,#38,#39,#40,
    #41,#42,#43,#44,#45,#46,#47,#48,#49,#50,#51,#52,#53,#54,#55,#56,#57,
    #58,#59,#60,#61,#62,#63,#64,#65,#66,#67,#68,#69,#70,#71,#72,#73,#74,
    #75,#76,#77,#78,#79,#80,#81,#82,#83,#84,#85,#86,#87,#88,#89,#90,#91,
    #92,#93,#94,#95,#96,#97,#98,#99,#100,#101,#102,#103,#104,#105,#106,
    #107,#108,#109,#110,#111,#112,#113,#114,#115,#116,#117,#118,#119,
    #120,#121,#122,#123,#124,#125,#126,#127,#128,#129,#130,#131,#132,
    #133,#134,#135,#136,#137,#138,#139,#140,#141,#142,#143,#144,#145,
    #146,#147,#148,#149,#150,#151,#152,#153,#154,#155,#156,#157,#158,
    #159,#160,#161,#162,#163,#164,#165,#166,#167,#168,#169),
  .UNSPECIFIED.,.T.,.F.,(7,5,5,5,5,5,5,5,5,5,5,5,5,5,5,5,5,5,5,5,5,5,5,5
    ,5,5,5,7),(0.,4.753102836326E-02,7.791374650221E-02,0.118659374166,
    0.151484429382,0.177851921224,0.249355888953,0.321230960806,
    0.34760153167,0.38084653516,0.421588388827,0.452330049951,
    0.468174147706,0.499871741712,0.521786835436,0.531902597874,
    0.547748219795,0.578493861733,0.619241214978,0.652489834751,
    0.678862439303,0.750413634043,0.822193536745,0.848559055169,
    0.881381152653,0.922122592452,0.952502266948,1.),.UNSPECIFIED.);
#33 = CARTESIAN_POINT('',(8.9E-16,37.269318181818,114.9));
#34 = CARTESIAN_POINT('',(-0.29516117312,37.269318181818,114.9));
#35 = CARTESIAN_POINT('',(-0.590471600756,37.266270695991,
    114.87866364897));
#36 = CARTESIAN_POINT('',(-0.881609394853,37.260169492721,
    114.83595616419));
#37 = CARTESIAN_POINT('',(-1.165232325549,37.251298226323,
    114.77320279495));
#38 = CARTESIAN_POINT('',(-1.438764143494,37.240095237137,
    114.69230530506));
#39 = CARTESIAN_POINT('',(-1.867496890663,37.218708797093,
    114.53367762038));
#40 = CARTESIAN_POINT('',(-2.0298759293,37.2096111206,114.46530042833));
#41 = CARTESIAN_POINT('',(-2.187059778431,37.199876313014,114.3909413144
    ));
#42 = CARTESIAN_POINT('',(-2.338805898348,37.189626227631,
    114.31114138887));
#43 = CARTESIAN_POINT('',(-2.484986340011,37.178976707127,
    114.22641231018));
#44 = CARTESIAN_POINT('',(-2.814071902252,37.153350895587,
    114.01756769534));
#45 = CARTESIAN_POINT('',(-2.99247133108,37.138139785883,113.88989234571
    ));
#46 = CARTESIAN_POINT('',(-3.160689160788,37.122644956566,
    113.75524746559));
#47 = CARTESIAN_POINT('',(-3.318803256106,37.107082431386,
    113.61457977887));
#48 = CARTESIAN_POINT('',(-3.466991790129,37.091634577499,113.468688063)
  );
#49 = CARTESIAN_POINT('',(-3.717065783866,37.064213836684,
    113.19696249757));
#50 = CARTESIAN_POINT('',(-3.822341571497,37.052150500155,
    113.07275445423));
#51 = CARTESIAN_POINT('',(-3.921434163998,37.040336224979,
    112.94591125044));
#52 = CARTESIAN_POINT('',(-4.014459197787,37.028838110342,112.8167310609
    ));
#53 = CARTESIAN_POINT('',(-4.101530367106,37.017713319333,
    112.68547319637));
#54 = CARTESIAN_POINT('',(-4.248006815909,36.998412526735,
    112.44543022852));
#55 = CARTESIAN_POINT('',(-4.309483326868,36.990087244507,
    112.33730671944));
#56 = CARTESIAN_POINT('',(-4.367243897184,36.982059290767,
    112.22810363846));
#57 = CARTESIAN_POINT('',(-4.421339894425,36.9743507989,112.11792761493)
  );
#58 = CARTESIAN_POINT('',(-4.471818146181,36.966981019021,
    112.00687580685));
#59 = CARTESIAN_POINT('',(-4.645913009807,36.940943691177,111.5917458848
    ));
#60 = CARTESIAN_POINT('',(-4.746788135283,36.924536322259,
    111.28271764668));
#61 = CARTESIAN_POINT('',(-4.822246677908,36.911066318993,
    110.96961185436));
#62 = CARTESIAN_POINT('',(-4.872771940352,36.900741431826,
    110.65389679711));
#63 = CARTESIAN_POINT('',(-4.898682654217,36.893665932633,
    110.33688872392));
#64 = CARTESIAN_POINT('',(-4.901244462456,36.886035525659,
    109.70094270833));
#65 = CARTESIAN_POINT('',(-4.87763877968,36.885515933778,109.38211017818
    ));
#66 = CARTESIAN_POINT('',(-4.829158607278,36.888318851077,
    109.06441030825));
#67 = CARTESIAN_POINT('',(-4.755473944174,36.894380126037,
    108.74918052408));
#68 = CARTESIAN_POINT('',(-4.656088890442,36.903532801922,
    108.43791401227));
#69 = CARTESIAN_POINT('',(-4.483858698717,36.919885358571,
    108.02017146216));
#70 = CARTESIAN_POINT('',(-4.4340498793,36.924652600952,107.90881195562)
  );
#71 = CARTESIAN_POINT('',(-4.380618959883,36.929783841583,
    107.79830903704));
#72 = CARTESIAN_POINT('',(-4.323519092973,36.935262405777,
    107.68875999019));
#73 = CARTESIAN_POINT('',(-4.262698972656,36.941068922342,
    107.58027151295));
#74 = CARTESIAN_POINT('',(-4.116667402415,36.954887140859,
    107.33767326345));
#75 = CARTESIAN_POINT('',(-4.029233215319,36.96307875996,107.20426133275
    ));
#76 = CARTESIAN_POINT('',(-3.935685519873,36.971711875277,
    107.07295272852));
#77 = CARTESIAN_POINT('',(-3.835906588832,36.980733689565,
    106.94401690153));
#78 = CARTESIAN_POINT('',(-3.729776853967,36.990081787608,
    106.81776389375));
#79 = CARTESIAN_POINT('',(-3.47918339493,37.011449337228,106.54353827016
    ));
#80 = CARTESIAN_POINT('',(-3.33148859345,37.023594232738,106.3971062868)
  );
#81 = CARTESIAN_POINT('',(-3.173858535613,37.035985138292,
    106.25587578554));
#82 = CARTESIAN_POINT('',(-3.006117162037,37.048457638004,
    106.12064528463));
#83 = CARTESIAN_POINT('',(-2.828188246495,37.060816808379,
    105.99235982735));
#84 = CARTESIAN_POINT('',(-2.498245501793,37.081909556669,
    105.78133446829));
#85 = CARTESIAN_POINT('',(-2.350604782548,37.090787512955,
    105.69515372076));
#86 = CARTESIAN_POINT('',(-2.19726233354,37.099376250068,105.61400858736
    ));
#87 = CARTESIAN_POINT('',(-2.038350570651,37.107567306829,105.5384279788
    ));
#88 = CARTESIAN_POINT('',(-1.874120779528,37.11524659635,105.46897116245
    ));
#89 = CARTESIAN_POINT('',(-1.617799434823,37.125936886436,
    105.37383835329));
#90 = CARTESIAN_POINT('',(-1.529319040332,37.12940670484,105.34325783985
    ));
#91 = CARTESIAN_POINT('',(-1.439592243163,37.132695040691,105.3145284512
    ));
#92 = CARTESIAN_POINT('',(-1.348687704064,37.135786611602,
    105.28772578162));
#93 = CARTESIAN_POINT('',(-1.256686576458,37.138666810452,
    105.26292227887));
#94 = CARTESIAN_POINT('',(-0.977623360745,37.146634536995,
    105.19469665191));
#95 = CARTESIAN_POINT('',(-0.787515111562,37.151048208201,105.1574681382
    ));
#96 = CARTESIAN_POINT('',(-0.594185511506,37.154453027391,105.1290584405
    ));
#97 = CARTESIAN_POINT('',(-0.398581092613,37.156763108569,
    105.10988706029));
#98 = CARTESIAN_POINT('',(-0.20177485478,37.157930134993,105.10020256674
    ));
#99 = CARTESIAN_POINT('',(0.131078910532,37.157970906422,105.09986423083
    ));
#100 = CARTESIAN_POINT('',(0.267153663319,37.157441257194,
    105.10425960294));
#101 = CARTESIAN_POINT('',(0.402854541651,37.156364969309,
    105.11318998797));
#102 = CARTESIAN_POINT('',(0.537815023623,37.154752562952,
    105.12660286254));
#103 = CARTESIAN_POINT('',(0.671690535426,37.152623958853,
    105.14439858244));
#104 = CARTESIAN_POINT('',(0.865303363799,37.148799092541,
    105.17660987059));
#105 = CARTESIAN_POINT('',(0.92615024654,37.147487064639,105.18768689136
    ));
#106 = CARTESIAN_POINT('',(0.986667978448,37.146073690472,
    105.19965449805));
#107 = CARTESIAN_POINT('',(1.046827954019,37.14456197409,105.21249769894
    ));
#108 = CARTESIAN_POINT('',(1.106603537609,37.142955184655,
    105.22620020017));
#109 = CARTESIAN_POINT('',(1.258963501042,37.138596546176,
    105.26352686874));
#110 = CARTESIAN_POINT('',(1.350953591103,37.135711586355,
    105.28837486115));
#111 = CARTESIAN_POINT('',(1.441845425503,37.132615439834,
    105.31522133051));
#112 = CARTESIAN_POINT('',(1.531557980272,37.129322729386,
    105.34399375384));
#113 = CARTESIAN_POINT('',(1.620022726054,37.125848749032,
    105.37461648211));
#114 = CARTESIAN_POINT('',(1.8762999404,37.115146634842,105.46987299308)
  );
#115 = CARTESIAN_POINT('',(2.040497376676,37.107460252367,
    105.53940936587));
#116 = CARTESIAN_POINT('',(2.199372571772,37.099262959358,
    105.61506644979));
#117 = CARTESIAN_POINT('',(2.352675027036,37.090668864329,
    105.69628489111));
#118 = CARTESIAN_POINT('',(2.500272980184,37.081786419302,
    105.78253584224));
#119 = CARTESIAN_POINT('',(2.830112111417,37.060685129498,
    105.99371824321));
#120 = CARTESIAN_POINT('',(3.007978363378,37.048322543364,
    106.12208836729));
#121 = CARTESIAN_POINT('',(3.175654157088,37.035848055318,
    106.25739872193));
#122 = CARTESIAN_POINT('',(3.33321645064,37.023456502694,106.39870468543
    ));
#123 = CARTESIAN_POINT('',(3.480841735176,37.01131220545,106.54520817989
    ));
#124 = CARTESIAN_POINT('',(3.731303249985,36.98994810511,106.81955392667
    ));
#125 = CARTESIAN_POINT('',(3.837371409229,36.980602455825,
    106.94585658225));
#126 = CARTESIAN_POINT('',(3.937088214468,36.97158379888,107.07483972981
    ));
#127 = CARTESIAN_POINT('',(4.030573288609,36.962954500768,
    107.20619352239));
#128 = CARTESIAN_POINT('',(4.117944366631,36.954767313907,107.3396486724
    ));
#129 = CARTESIAN_POINT('',(4.263859802611,36.940958267749,107.5823177213
    ));
#130 = CARTESIAN_POINT('',(4.324627330457,36.935156258432,
    107.69083438911));
#131 = CARTESIAN_POINT('',(4.381674505285,36.929682521313,
    107.80041046946));
#132 = CARTESIAN_POINT('',(4.435052608893,36.924556406675,
    107.91093932841));
#133 = CARTESIAN_POINT('',(4.484808458285,36.919794569657,
    108.02232373481));
#134 = CARTESIAN_POINT('',(4.656263810585,36.903517879651,
    108.43875443707));
#135 = CARTESIAN_POINT('',(4.755169484885,36.894411593206,
    108.74862684929));
#136 = CARTESIAN_POINT('',(4.828603159218,36.888368758089,
    109.06242712717));
#137 = CARTESIAN_POINT('',(4.877055203337,36.885554209467,
    109.37868178007));
#138 = CARTESIAN_POINT('',(4.900852045014,36.886031798653,109.6960707524
    ));
#139 = CARTESIAN_POINT('',(4.899108310602,36.893551323768,
    110.33182292933));
#140 = CARTESIAN_POINT('',(4.873410064508,36.900612976069,
    110.65007947979));
#141 = CARTESIAN_POINT('',(4.822908710739,36.910950355393,
    110.96704547642));
#142 = CARTESIAN_POINT('',(4.747282921363,36.924458586542,
    111.28138987198));
#143 = CARTESIAN_POINT('',(4.646045076157,36.940927735493,
    111.59162776049));
#144 = CARTESIAN_POINT('',(4.471354984708,36.96704888546,112.007907473)
  );
#145 = CARTESIAN_POINT('',(4.420851350466,36.974420940213,112.1189471453
    ));
#146 = CARTESIAN_POINT('',(4.366730046321,36.98213155933,112.22911053588
    ));
#147 = CARTESIAN_POINT('',(4.308944229701,36.990161482913,
    112.33830046129));
#148 = CARTESIAN_POINT('',(4.247442521149,36.998488567019,
    112.44641026117));
#149 = CARTESIAN_POINT('',(4.100910836057,37.017792838743,
    112.68641909668));
#150 = CARTESIAN_POINT('',(4.01380983056,37.028919195311,112.81765626904
    ));
#151 = CARTESIAN_POINT('',(3.920755190144,37.04041856503,112.94681484807
    ));
#152 = CARTESIAN_POINT('',(3.821633223755,37.052233762758,
    113.07363544671));
#153 = CARTESIAN_POINT('',(3.716328319921,37.064297665125,
    113.19781979915));
#154 = CARTESIAN_POINT('',(3.466191519253,37.09171862414,113.46948769331
    ));
#155 = CARTESIAN_POINT('',(3.317969712534,37.107165916545,
    113.61534490418));
#156 = CARTESIAN_POINT('',(3.159823185859,37.122727240838,
    113.75597619401));
#157 = CARTESIAN_POINT('',(2.991573974366,37.138220179605,
    113.89058257088));
#158 = CARTESIAN_POINT('',(2.813144568389,37.153428663684,
    114.01821710544));
#159 = CARTESIAN_POINT('',(2.484009728447,37.179048587422,
    114.22698640364));
#160 = CARTESIAN_POINT('',(2.337809084338,37.189695183985,
    114.31168205802));
#161 = CARTESIAN_POINT('',(2.186044069877,37.199941907099,
    114.39144710222));
#162 = CARTESIAN_POINT('',(2.028842940959,37.209672909445,
    114.46576984813));
#163 = CARTESIAN_POINT('',(1.866448606578,37.218766348816,
    114.53410922529));
#164 = CARTESIAN_POINT('',(1.437839887577,37.240133074536,114.6925785163
    ));
#165 = CARTESIAN_POINT('',(1.164465656047,37.25132219967,114.77337239007
    ));
#166 = CARTESIAN_POINT('',(0.881018976554,37.26018186626,114.83604276609
    ));
#167 = CARTESIAN_POINT('',(0.590072240138,37.266274814448,
    114.87869248761));
#168 = CARTESIAN_POINT('',(0.294961652955,37.269318181818,114.9));
#169 = CARTESIAN_POINT('',(8.9E-16,37.269318181818,114.9));
#170 = ORIENTED_EDGE('',*,*,#21,.F.);
#171 = ORIENTED_EDGE('',*,*,#172,.F.);
#172 = EDGE_CURVE('',#22,#22,#173,.T.);
#173 = B_SPLINE_CURVE_WITH_KNOTS('',6,(#174,#175,#176,#177,#178,#179,
    #180,#181,#182,#183,#184,#185,#186,#187,#188,#189,#190,#191,#192,
    #193,#194,#195,#196,#197,#198,#199,#200,#201,#202,#203,#204,#205,
    #206,#207,#208,#209,#210,#211,#212,#213,#214,#215,#216,#217,#218,
    #219,#220,#221,#222,#223,#224,#225,#226,#227,#228,#229,#230,#231,
    #232,#233,#234,#235,#236,#237,#238,#239,#240,#241,#242,#243,#244,
    #245,#246,#247,#248,#249,#250,#251,#252,#253,#254,#255,#256,#257,
    #258,#259,#260,#261,#262,#263,#264,#265,#266,#267,#268,#269,#270,
    #271,#272,#273,#274,#275,#276,#277,#278,#279,#280,#281,#282,#283,
    #284,#285,#286,#287,#288,#289,#290,#291,#292,#293,#294,#295,#296,
    #297,#298,#299,#300,#301,#302,#303,#304,#305,#306,#307,#308,#309,
    #310),.UNSPECIFIED.,.T.,.F.,(7,5,5,5,5,5,5,5,5,5,5,5,5,5,5,5,5,5,5,5
    ,5,5,5,5,5,5,5,7),(0.,4.726680591467E-02,7.764743714294E-02,
    0.118120075324,0.151165960472,0.177359536936,0.249356191316,
    0.321276915442,0.347748890317,0.380952651226,0.421833694238,
    0.452438853563,0.468345777545,0.499964432906,0.521747184139,
    0.531725234874,0.547597243874,0.578125542325,0.618867836621,
    0.652025745315,0.678346860967,0.750620211159,0.822461495164,
    0.848813134835,0.881711451456,0.922321867871,0.952599233136,1.),
  .UNSPECIFIED.);
#174 = CARTESIAN_POINT('',(8.9E-16,35.119318181818,114.9));
#175 = CARTESIAN_POINT('',(-0.293565823583,35.119318181818,114.9));
#176 = CARTESIAN_POINT('',(-0.58727772754,35.116133676223,114.8788936966
    ));
#177 = CARTESIAN_POINT('',(-0.87687740988,35.109758257517,
    114.83664715657));
#178 = CARTESIAN_POINT('',(-1.159066330604,35.100485805046,
    114.77456068928));
#179 = CARTESIAN_POINT('',(-1.431298372856,35.088771327432,
    114.69450413276));
#180 = CARTESIAN_POINT('',(-1.859069562201,35.066349341527,
    114.53714275546));
#181 = CARTESIAN_POINT('',(-2.021642960484,35.056772358852,
    114.46903848637));
#182 = CARTESIAN_POINT('',(-2.179026956049,35.046519060674,
    114.39493803587));
#183 = CARTESIAN_POINT('',(-2.33097711488,35.035718425862,
    114.31538331255));
#184 = CARTESIAN_POINT('',(-2.477364389885,35.024493149579,
    114.23088682636));
#185 = CARTESIAN_POINT('',(-2.805687447379,34.997577365529,
    114.02334990751));
#186 = CARTESIAN_POINT('',(-2.983253524515,34.981644338896,
    113.89684621854));
#187 = CARTESIAN_POINT('',(-3.150775525042,34.965410375173,
    113.76343817398));
#188 = CARTESIAN_POINT('',(-3.3083281722,34.949100248135,113.62405599481
    ));
#189 = CARTESIAN_POINT('',(-3.456085034917,34.932904072651,
    113.47948513478));
#190 = CARTESIAN_POINT('',(-3.707109608731,34.903969267808,
    113.20856649003));
#191 = CARTESIAN_POINT('',(-3.813554534726,34.891142968707,
    113.08375511683));
#192 = CARTESIAN_POINT('',(-3.913730022126,34.878581206068,
    112.95625300351));
#193 = CARTESIAN_POINT('',(-4.007753856433,34.866356958939,
    112.82636543246));
#194 = CARTESIAN_POINT('',(-4.095741837073,34.854532400251,
    112.6943576938));
#195 = CARTESIAN_POINT('',(-4.242855035198,34.834145794855,
    112.45431812691));
#196 = CARTESIAN_POINT('',(-4.304180323334,34.82541595603,
    112.34699337194));
#197 = CARTESIAN_POINT('',(-4.361837370941,34.816996656924,
    112.23859485264));
#198 = CARTESIAN_POINT('',(-4.415876438315,34.80891106728,112.1292274058
    ));
#199 = CARTESIAN_POINT('',(-4.466343366998,34.80117937763,
    112.01898664706));
#200 = CARTESIAN_POINT('',(-4.642290228396,34.773587235439,
    111.60278410352));
#201 = CARTESIAN_POINT('',(-4.744602320267,34.756163771498,
    111.29172325088));
#202 = CARTESIAN_POINT('',(-4.821135740987,34.741900928424,
    110.97647881239));
#203 = CARTESIAN_POINT('',(-4.872380821508,34.731026226349,
    110.65855586459));
#204 = CARTESIAN_POINT('',(-4.89866204232,34.723653543162,
    110.33930440464));
#205 = CARTESIAN_POINT('',(-4.90125572512,34.715960368013,109.7008436326
    ));
#206 = CARTESIAN_POINT('',(-4.877620441122,34.715633733418,
    109.38174129133));
#207 = CARTESIAN_POINT('',(-4.82906823642,34.718842686765,
    109.06377768347));
#208 = CARTESIAN_POINT('',(-4.755270691413,34.725517396813,
    108.7482988586));
#209 = CARTESIAN_POINT('',(-4.655734867255,34.735477696421,
    108.43680538461));
#210 = CARTESIAN_POINT('',(-4.483103026633,34.753186240708,
    108.01843131852));
#211 = CARTESIAN_POINT('',(-4.43305006884,34.758354468686,
    107.90664773732));
#212 = CARTESIAN_POINT('',(-4.379347108739,34.763911376928,
    107.79573065366));
#213 = CARTESIAN_POINT('',(-4.32194699395,34.769838883723,107.6857785792
    ));
#214 = CARTESIAN_POINT('',(-4.260798041931,34.776115994058,
    107.57689953142));
#215 = CARTESIAN_POINT('',(-4.114372326566,34.79100068934,
    107.33413750216));
#216 = CARTESIAN_POINT('',(-4.026916807638,34.799794612922,
    107.20094136588));
#217 = CARTESIAN_POINT('',(-3.933363562659,34.809053296253,
    107.06985080622));
#218 = CARTESIAN_POINT('',(-3.833595677036,34.818720476114,
    106.94113429257));
#219 = CARTESIAN_POINT('',(-3.727494275803,34.828729728277,
    106.81510055397));
#220 = CARTESIAN_POINT('',(-3.476360246926,34.85165228889,
    106.54065636356));
#221 = CARTESIAN_POINT('',(-3.328015441103,34.864700197019,
    106.3938288805));
#222 = CARTESIAN_POINT('',(-3.169669210449,34.878004222901,
    106.2522487604));
#223 = CARTESIAN_POINT('',(-3.001143420417,34.891387168849,
    106.11672268592));
#224 = CARTESIAN_POINT('',(-2.822361337157,34.904638972587,
    105.98820627189));
#225 = CARTESIAN_POINT('',(-2.491920769121,34.927160172647,
    105.7776223536));
#226 = CARTESIAN_POINT('',(-2.344754640703,34.936592322977,
    105.69200892674));
#227 = CARTESIAN_POINT('',(-2.191939128732,34.945713483418,
    105.61139753971));
#228 = CARTESIAN_POINT('',(-2.033605640236,34.954409630107,
    105.53631063301));
#229 = CARTESIAN_POINT('',(-1.870002934057,34.962560891872,
    105.46730055904));
#230 = CARTESIAN_POINT('',(-1.613965791173,34.973940182279,
    105.37249169311));
#231 = CARTESIAN_POINT('',(-1.525088069556,34.977652535032,
    105.34185775218));
#232 = CARTESIAN_POINT('',(-1.434954538255,34.981168910487,
    105.31309145964));
#233 = CARTESIAN_POINT('',(-1.34363488277,34.984472848653,
    105.28626938562));
#234 = CARTESIAN_POINT('',(-1.251211540383,34.987548626194,
    105.26146487963));
#235 = CARTESIAN_POINT('',(-0.972066766328,34.996013350109,
    105.19358601261));
#236 = CARTESIAN_POINT('',(-0.782334278468,35.000687516997,
    105.15665586874));
#237 = CARTESIAN_POINT('',(-0.589407759444,35.004288076142,
    105.12850990254));
#238 = CARTESIAN_POINT('',(-0.394230347881,35.006724644395,
    105.10956351298));
#239 = CARTESIAN_POINT('',(-0.197870415467,35.007946601084,
    105.10006177364));
#240 = CARTESIAN_POINT('',(0.133723377407,35.007959966227,
    105.09995784929));
#241 = CARTESIAN_POINT('',(0.268991092327,35.007389225543,
    105.10439594282));
#242 = CARTESIAN_POINT('',(0.403884650939,35.006242094793,105.1133151797
    ));
#243 = CARTESIAN_POINT('',(0.538043438259,35.004529657814,
    105.12666348551));
#244 = CARTESIAN_POINT('',(0.671128468602,35.002272778343,
    105.14434266833));
#245 = CARTESIAN_POINT('',(0.863146776387,34.998230742685,
    105.17623413472));
#246 = CARTESIAN_POINT('',(0.923181098889,34.99685271939,105.18713335716
    ));
#247 = CARTESIAN_POINT('',(0.982895404751,34.995369326103,
    105.19889954677));
#248 = CARTESIAN_POINT('',(1.042262166356,34.993783628733,
    105.21151830973));
#249 = CARTESIAN_POINT('',(1.101255729378,34.992098961537,
    105.22497401308));
#250 = CARTESIAN_POINT('',(1.253061449888,34.987487439986,
    105.26195814542));
#251 = CARTESIAN_POINT('',(1.345266463022,34.984414602486,
    105.28674176158));
#252 = CARTESIAN_POINT('',(1.436371515014,34.981114789021,
    105.31353328726));
#253 = CARTESIAN_POINT('',(1.526294817091,34.977603628114,
    105.34225981688));
#254 = CARTESIAN_POINT('',(1.61496722008,34.973897475581,105.37284526642
    ));
#255 = CARTESIAN_POINT('',(1.870366346232,34.962541252659,
    105.46746853774));
#256 = CARTESIAN_POINT('',(2.033553958333,34.95440964805,105.53631511923
    ));
#257 = CARTESIAN_POINT('',(2.191498578584,34.945735947462,105.6112079758
    ));
#258 = CARTESIAN_POINT('',(2.343953229805,34.936639121976,105.691598903)
  );
#259 = CARTESIAN_POINT('',(2.490787176718,34.9272323566,105.77696929987)
  );
#260 = CARTESIAN_POINT('',(2.820351859487,34.904782643118,
    105.98683391533));
#261 = CARTESIAN_POINT('',(2.99863095107,34.891577852512,106.11484480719
    ));
#262 = CARTESIAN_POINT('',(3.166722580093,34.878240890042,106.2498267865
    ));
#263 = CARTESIAN_POINT('',(3.324701709504,34.864979956579,106.3908327296
    ));
#264 = CARTESIAN_POINT('',(3.472743936699,34.851970807982,
    106.53706259551));
#265 = CARTESIAN_POINT('',(3.723668433181,34.829088059612,
    106.81063701248));
#266 = CARTESIAN_POINT('',(3.82981606508,34.819082728261,106.93641738782
    ));
#267 = CARTESIAN_POINT('',(3.929644431137,34.809416860308,
    107.06488098583));
#268 = CARTESIAN_POINT('',(4.023271907577,34.80015681108,107.19571951684
    ));
#269 = CARTESIAN_POINT('',(4.110815039759,34.791358804878,
    107.32866487262));
#270 = CARTESIAN_POINT('',(4.25714059107,34.776490431705,107.57051418854
    ));
#271 = CARTESIAN_POINT('',(4.318129752284,34.770231925294,
    107.67872047718));
#272 = CARTESIAN_POINT('',(4.375410320289,34.764318173111,107.7879921708
    ));
#273 = CARTESIAN_POINT('',(4.429033237883,34.758769911641,
    107.89822275339));
#274 = CARTESIAN_POINT('',(4.479045035877,34.753605020146,
    108.00931505588));
#275 = CARTESIAN_POINT('',(4.653011931692,34.735750515953,
    108.42834699971));
#276 = CARTESIAN_POINT('',(4.753603351936,34.725669221714,
    108.74128768803));
#277 = CARTESIAN_POINT('',(4.828193509003,34.718902965405,
    109.05827812014));
#278 = CARTESIAN_POINT('',(4.877284652387,34.715635818037,
    109.37779300612));
#279 = CARTESIAN_POINT('',(4.90121262469,34.715939158876,109.69846553667
    ));
#280 = CARTESIAN_POINT('',(4.89872039342,34.723628253166,110.33781827276
    ));
#281 = CARTESIAN_POINT('',(4.872600738101,34.730970368773,
    110.65639203731));
#282 = CARTESIAN_POINT('',(4.821623760622,34.74179980079,110.97364744433
    ));
#283 = CARTESIAN_POINT('',(4.745468340056,34.756003692769,111.2882435113
    ));
#284 = CARTESIAN_POINT('',(4.643648313584,34.773356600277,
    111.59868596091));
#285 = CARTESIAN_POINT('',(4.468156271236,34.800901369903,
    112.01501384034));
#286 = CARTESIAN_POINT('',(4.41748770555,34.808669565602,112.12594807478
    ));
#287 = CARTESIAN_POINT('',(4.363204589799,34.816796409688,
    112.23600049828));
#288 = CARTESIAN_POINT('',(4.305260314372,34.825261385278,
    112.34507387439));
#289 = CARTESIAN_POINT('',(4.243603737423,34.834040926972,
    112.45306153847));
#290 = CARTESIAN_POINT('',(4.096500865355,34.854428600104,
    112.69316263148));
#291 = CARTESIAN_POINT('',(4.008952329279,34.866197119222,
    112.82460050026));
#292 = CARTESIAN_POINT('',(3.915422271588,34.878362193273,
    112.95393871792));
#293 = CARTESIAN_POINT('',(3.815796468051,34.890862537604,113.080915756)
  );
#294 = CARTESIAN_POINT('',(3.709958687433,34.903626264799,
    113.20523086388));
#295 = CARTESIAN_POINT('',(3.459330051624,34.932547547739,
    113.47629584226));
#296 = CARTESIAN_POINT('',(3.311240887597,34.94879711767,113.62145472));
#297 = CARTESIAN_POINT('',(3.15329102339,34.965163964331,113.76139974144
    ));
#298 = CARTESIAN_POINT('',(2.985304437002,34.981456331822,
    113.89533862692));
#299 = CARTESIAN_POINT('',(2.80720481031,34.997447348596,114.02233246167
    ));
#300 = CARTESIAN_POINT('',(2.478784188935,35.02438092439,114.23003257562
    ));
#301 = CARTESIAN_POINT('',(2.332939642851,35.035571571354,
    114.31428531665));
#302 = CARTESIAN_POINT('',(2.181569087559,35.046341304218,
    114.39363317967));
#303 = CARTESIAN_POINT('',(2.024799659039,35.056568750614,114.4675692049
    ));
#304 = CARTESIAN_POINT('',(1.862872106368,35.06612629804,114.53555725653
    ));
#305 = CARTESIAN_POINT('',(1.435193999515,35.088603479258,
    114.69335699405));
#306 = CARTESIAN_POINT('',(1.162297126403,35.10037948411,114.77384870477
    ));
#307 = CARTESIAN_POINT('',(0.879365104705,35.109703390207,
    114.83628362519));
#308 = CARTESIAN_POINT('',(0.588960272537,35.116115413576,
    114.87877263845));
#309 = CARTESIAN_POINT('',(0.294406430875,35.119318181818,114.9));
#310 = CARTESIAN_POINT('',(8.9E-16,35.119318181818,114.9));
#311 = CYLINDRICAL_SURFACE('',#312,4.9);
#312 = AXIS2_PLACEMENT_3D('',#313,#314,#315);
#313 = CARTESIAN_POINT('',(0.,33.9,110.));
#314 = DIRECTION('',(0.,1.,0.));
#315 = DIRECTION('',(0.,0.,1.));
#316 = ADVANCED_FACE('',(#317,#461),#464,.T.);
#317 = FACE_BOUND('',#318,.T.);
#318 = EDGE_LOOP('',(#319));
#319 = ORIENTED_EDGE('',*,*,#320,.F.);
#320 = EDGE_CURVE('',#321,#321,#323,.T.);
#321 = VERTEX_POINT('',#322);
#322 = CARTESIAN_POINT('',(-2.E-15,35.1375,116.5));
#323 = B_SPLINE_CURVE_WITH_KNOTS('',6,(#324,#325,#326,#327,#328,#329,
    #330,#331,#332,#333,#334,#335,#336,#337,#338,#339,#340,#341,#342,
    #343,#344,#345,#346,#347,#348,#349,#350,#351,#352,#353,#354,#355,
    #356,#357,#358,#359,#360,#361,#362,#363,#364,#365,#366,#367,#368,
    #369,#370,#371,#372,#373,#374,#375,#376,#377,#378,#379,#380,#381,
    #382,#383,#384,#385,#386,#387,#388,#389,#390,#391,#392,#393,#394,
    #395,#396,#397,#398,#399,#400,#401,#402,#403,#404,#405,#406,#407,
    #408,#409,#410,#411,#412,#413,#414,#415,#416,#417,#418,#419,#420,
    #421,#422,#423,#424,#425,#426,#427,#428,#429,#430,#431,#432,#433,
    #434,#435,#436,#437,#438,#439,#440,#441,#442,#443,#444,#445,#446,
    #447,#448,#449,#450,#451,#452,#453,#454,#455,#456,#457,#458,#459,
    #460),.UNSPECIFIED.,.T.,.F.,(7,5,5,5,5,5,5,5,5,5,5,5,5,5,5,5,5,5,5,5
    ,5,5,5,5,5,5,5,7),(0.,4.563881246073E-02,7.513821142436E-02,
    0.114822226826,0.147659157743,0.174366102272,0.24885723543,
    0.324256979465,0.350988441117,0.384096040332,0.424238514155,
    0.453747100362,0.469178517375,0.478914730221,0.500077815908,
    0.530642601604,0.546069443022,0.575939243585,0.616100039121,
    0.649220416681,0.675959925456,0.750931912717,0.82585502533,
    0.852573404965,0.885091920737,0.924678516544,0.954187799998,1.),
  .UNSPECIFIED.);
#324 = CARTESIAN_POINT('',(0.,35.1375,116.5));
#325 = CARTESIAN_POINT('',(-0.37750717513,35.1375,116.5));
#326 = CARTESIAN_POINT('',(-0.755197601093,35.132334119368,
    116.47368924145));
#327 = CARTESIAN_POINT('',(-1.12779747426,35.121992311414,
    116.42102619821));
#328 = CARTESIAN_POINT('',(-1.491222379346,35.10693400649,
    116.34359196712));
#329 = CARTESIAN_POINT('',(-1.84231327998,35.087872072871,
    116.24366759523));
#330 = CARTESIAN_POINT('',(-2.396182881975,35.05121494247,116.0466169994
    ));
#331 = CARTESIAN_POINT('',(-2.607615749968,35.035477264576,
    115.9609565999));
#332 = CARTESIAN_POINT('',(-2.812535064057,35.01859845279,
    115.86766725812));
#333 = CARTESIAN_POINT('',(-3.010630120254,35.000786113388,
    115.76742347473));
#334 = CARTESIAN_POINT('',(-3.201736145072,34.982238446612,
    115.66086370171));
#335 = CARTESIAN_POINT('',(-3.633399210916,34.937429371978,
    115.39745743514));
#336 = CARTESIAN_POINT('',(-3.868215647913,34.910719239432,
    115.23597297939));
#337 = CARTESIAN_POINT('',(-4.090157924524,34.883431289621,
    115.06544272267));
#338 = CARTESIAN_POINT('',(-4.2993212281,34.855942971722,114.88705936788
    ));
#339 = CARTESIAN_POINT('',(-4.495929030236,34.828575515093,
    114.70182929777));
#340 = CARTESIAN_POINT('',(-4.832823164759,34.779260249824,
    114.35225726885));
#341 = CARTESIAN_POINT('',(-4.976958574523,34.757194570168,
    114.18984202279));
#342 = CARTESIAN_POINT('',(-5.112846337727,34.735543131369,
    114.02375482276));
#343 = CARTESIAN_POINT('',(-5.240644003083,34.714435951024,
    113.8544017329));
#344 = CARTESIAN_POINT('',(-5.360506082005,34.693984528338,
    113.68213516202));
#345 = CARTESIAN_POINT('',(-5.563738343875,34.658260529917,
    113.36501939065));
#346 = CARTESIAN_POINT('',(-5.649741254409,34.642734451467,
    113.22105932151));
#347 = CARTESIAN_POINT('',(-5.73067089673,34.627756462615,
    113.07553722274));
#348 = CARTESIAN_POINT('',(-5.806599339656,34.613371933823,
    112.92860324446));
#349 = CARTESIAN_POINT('',(-5.877592054453,34.599620561027,
    112.78039414671));
#350 = CARTESIAN_POINT('',(-6.12811857827,34.550041867389,
    112.21443533397));
#351 = CARTESIAN_POINT('',(-6.274551810289,34.518746351052,
    111.78896587077));
#352 = CARTESIAN_POINT('',(-6.384380181518,34.493377922983,
    111.35716600909));
#353 = CARTESIAN_POINT('',(-6.458305178332,34.474411846202,
    110.92128268201));
#354 = CARTESIAN_POINT('',(-6.496802693205,34.462085957509,
    110.48333780507));
#355 = CARTESIAN_POINT('',(-6.502921454138,34.450734315776,
    109.60151894434));
#356 = CARTESIAN_POINT('',(-6.469671295777,34.451874809232,
    109.15780705689));
#357 = CARTESIAN_POINT('',(-6.40012084811,34.459902371392,
    108.71580055893));
#358 = CARTESIAN_POINT('',(-6.293764746855,34.474657110681,
    108.27759799515));
#359 = CARTESIAN_POINT('',(-6.149868677519,34.495732238685,
    107.84553480172));
#360 = CARTESIAN_POINT('',(-5.902182137836,34.531931518291,
    107.27218610539));
#361 = CARTESIAN_POINT('',(-5.832461126778,34.542115442784,
    107.12323513342));
#362 = CARTESIAN_POINT('',(-5.757788700958,34.552978404428,
    106.97552355855));
#363 = CARTESIAN_POINT('',(-5.678099433897,34.564484714378,
    106.82918874753));
#364 = CARTESIAN_POINT('',(-5.593321477866,34.576593210474,
    106.6843813309));
#365 = CARTESIAN_POINT('',(-5.39197748658,34.604942003207,
    106.36401221677));
#366 = CARTESIAN_POINT('',(-5.272656263564,34.621478215867,
    106.18935970413));
#367 = CARTESIAN_POINT('',(-5.14525954604,34.63877724284,106.01761372962
    ));
#368 = CARTESIAN_POINT('',(-5.009630351873,34.656734278825,
    105.84913483834));
#369 = CARTESIAN_POINT('',(-4.865608747885,34.675226457394,
    105.68433807465));
#370 = CARTESIAN_POINT('',(-4.528036129729,34.717008101681,
    105.32891322742));
#371 = CARTESIAN_POINT('',(-4.330486643344,34.740478791026,
    105.14026174943));
#372 = CARTESIAN_POINT('',(-4.120078249854,34.764272516505,
    104.95855142613));
#373 = CARTESIAN_POINT('',(-3.896582090441,34.78808052724,
    104.78481997431));
#374 = CARTESIAN_POINT('',(-3.659901363963,34.811539238643,
    104.62029717738));
#375 = CARTESIAN_POINT('',(-3.226517769563,34.850916238236,
    104.35322232691));
#376 = CARTESIAN_POINT('',(-3.035852432948,34.867184088323,
    104.2458114267));
#377 = CARTESIAN_POINT('',(-2.838189254947,34.882872304481,
    104.14469878585));
#378 = CARTESIAN_POINT('',(-2.633691704995,34.897796143879,
    104.05052015177));
#379 = CARTESIAN_POINT('',(-2.422666592536,34.911762073451,
    103.96394713095));
#380 = CARTESIAN_POINT('',(-2.092089984346,34.931281297162,
    103.84469973878));
#381 = CARTESIAN_POINT('',(-1.976927819823,34.93766943073,
    103.80601572852));
#382 = CARTESIAN_POINT('',(-1.860189253877,34.943715874247,
    103.76969049009));
#383 = CARTESIAN_POINT('',(-1.741961422622,34.949393640082,
    103.73581886617));
#384 = CARTESIAN_POINT('',(-1.622347415969,34.954676961745,
    103.70449173651));
#385 = CARTESIAN_POINT('',(-1.425201109258,34.962611772749,
    103.65768604456));
#386 = CARTESIAN_POINT('',(-1.348430270937,34.96551497082,
    103.64062525373));
#387 = CARTESIAN_POINT('',(-1.271185856465,34.968245748296,
    103.62463192953));
#388 = CARTESIAN_POINT('',(-1.193500575857,34.970798555313,
    103.60972576342));
#389 = CARTESIAN_POINT('',(-1.1154095384,34.973168292835,103.59592487711
    ));
#390 = CARTESIAN_POINT('',(-0.866407495052,34.980093252564,
    103.55568603912));
#391 = CARTESIAN_POINT('',(-0.69411642417,34.9839496109,103.53342502451)
  );
#392 = CARTESIAN_POINT('',(-0.520477507318,34.986871587428,
    103.51663376576));
#393 = CARTESIAN_POINT('',(-0.345917489977,34.988825028558,
    103.50543406336));
#394 = CARTESIAN_POINT('',(-0.170890271075,34.989791856648,
    103.49989031629));
#395 = CARTESIAN_POINT('',(0.256884007811,34.989744542457,
    103.50016160564));
#396 = CARTESIAN_POINT('',(0.509669237353,34.987659518418,103.5121167731
    ));
#397 = CARTESIAN_POINT('',(0.760980689983,34.983516833462,103.5358709716
    ));
#398 = CARTESIAN_POINT('',(1.009494160469,34.977398265688,
    103.57112457819));
#399 = CARTESIAN_POINT('',(1.254039861146,34.969449438596,
    103.61736973567));
#400 = CARTESIAN_POINT('',(1.614503055946,34.955017323576,
    103.70247557961));
#401 = CARTESIAN_POINT('',(1.734152896733,34.949757515064,
    103.73365276964));
#402 = CARTESIAN_POINT('',(1.852422176704,34.944102411976,
    103.76737672049));
#403 = CARTESIAN_POINT('',(1.969207367499,34.938077706378,
    103.80355680427));
#404 = CARTESIAN_POINT('',(2.084420887943,34.93171033023,103.84209836147
    ));
#405 = CARTESIAN_POINT('',(2.417883119896,34.912088327291,
    103.96191773793));
#406 = CARTESIAN_POINT('',(2.631601496804,34.897967067323,
    104.04942164443));
#407 = CARTESIAN_POINT('',(2.838634283479,34.882862114167,104.1447258717
    ));
#408 = CARTESIAN_POINT('',(3.038662736366,34.866974293401,104.2471334705
    ));
#409 = CARTESIAN_POINT('',(3.231518472142,34.850495217107,
    104.35598506829));
#410 = CARTESIAN_POINT('',(3.666719036224,34.810873456301,
    104.62494186219));
#411 = CARTESIAN_POINT('',(3.903187219241,34.787394263754,
    104.78976201524));
#412 = CARTESIAN_POINT('',(4.126460645554,34.763572732496,
    104.96377435192));
#413 = CARTESIAN_POINT('',(4.336638696661,34.739772054398,
    105.14575056805));
#414 = CARTESIAN_POINT('',(4.533951731038,34.716300538635,
    105.33465448368));
#415 = CARTESIAN_POINT('',(4.871072478323,34.674529205815,
    105.69050638306));
#416 = CARTESIAN_POINT('',(5.014881587768,34.656046268673,
    105.85548106771));
#417 = CARTESIAN_POINT('',(5.150296309106,34.638102079303,
    106.02412977641));
#418 = CARTESIAN_POINT('',(5.277476761777,34.620819271418,
    106.19603815148));
#419 = CARTESIAN_POINT('',(5.396579947181,34.604302436079,
    106.37084621542));
#420 = CARTESIAN_POINT('',(5.597518845357,34.57599510166,106.69147271307
    ));
#421 = CARTESIAN_POINT('',(5.682111287501,34.563907557623,
    106.83638391657));
#422 = CARTESIAN_POINT('',(5.761614638051,34.552423923777,106.9828183232
    ));
#423 = CARTESIAN_POINT('',(5.836100653638,34.541585255085,
    107.13062553213));
#424 = CARTESIAN_POINT('',(5.905634647991,34.53142713967,107.27966836305
    ));
#425 = CARTESIAN_POINT('',(6.151514892,34.495491051539,107.85082463463)
  );
#426 = CARTESIAN_POINT('',(6.294251323767,34.474595670584,
    108.28047546264));
#427 = CARTESIAN_POINT('',(6.399876957133,34.459950658475,
    108.71618213431));
#428 = CARTESIAN_POINT('',(6.469114253707,34.4519551392,109.155649811));
#429 = CARTESIAN_POINT('',(6.502459564941,34.450767047014,
    109.59681533836));
#430 = CARTESIAN_POINT('',(6.497321439758,34.461933813167,
    110.47864267995));
#431 = CARTESIAN_POINT('',(6.458885746739,34.47427772119,110.9191374828)
  );
#432 = CARTESIAN_POINT('',(6.38461637142,34.493340563775,111.35755867271
    ));
#433 = CARTESIAN_POINT('',(6.274028734313,34.518881107401,
    111.79184937276));
#434 = CARTESIAN_POINT('',(6.12640977044,34.550415038609,112.21972260516
    ));
#435 = CARTESIAN_POINT('',(5.874008992095,34.600316728148,
    112.78796208443));
#436 = CARTESIAN_POINT('',(5.802777937335,34.614100874027,
    112.93617759934));
#437 = CARTESIAN_POINT('',(5.726604989488,34.628517382313,
    113.08311241956));
#438 = CARTESIAN_POINT('',(5.645424421534,34.643526369847,
    113.22862930594));
#439 = CARTESIAN_POINT('',(5.559163913781,34.659082255288,
    113.37257754556));
#440 = CARTESIAN_POINT('',(5.356479501947,34.694669789659,
    113.68788106533));
#441 = CARTESIAN_POINT('',(5.237576250878,34.714939150645,
    113.85839648238));
#442 = CARTESIAN_POINT('',(5.110888072764,34.735849456457,
    114.02604806189));
#443 = CARTESIAN_POINT('',(4.976264835817,34.757292218158,
    114.19049301436));
#444 = CARTESIAN_POINT('',(4.833553539265,34.779141121534,
    114.35133688571));
#445 = CARTESIAN_POINT('',(4.498833316634,34.828165042627,
    114.69901082097));
#446 = CARTESIAN_POINT('',(4.302873818193,34.855461913479,
    114.88386674377));
#447 = CARTESIAN_POINT('',(4.094423831253,34.882882195633,115.0619195393
    ));
#448 = CARTESIAN_POINT('',(3.873260956612,34.910107562535,
    115.23217201227));
#449 = CARTESIAN_POINT('',(3.639288948682,34.936764050756,
    115.39344264566));
#450 = CARTESIAN_POINT('',(3.208691219036,34.981555395352,
    115.65692333084));
#451 = CARTESIAN_POINT('',(3.017739360397,35.0001301451,115.76370522916)
  );
#452 = CARTESIAN_POINT('',(2.819790832022,35.017973765355,
    115.86418215684));
#453 = CARTESIAN_POINT('',(2.615008232082,35.034888144508,
    115.95771605394));
#454 = CARTESIAN_POINT('',(2.40369959472,35.050665622045,116.04363234494
    ));
#455 = CARTESIAN_POINT('',(1.848941980761,35.087511554857,
    116.24177756993));
#456 = CARTESIAN_POINT('',(1.496712342595,35.106706082999,
    116.34241978339));
#457 = CARTESIAN_POINT('',(1.132020600217,35.121874824172,
    116.42042799307));
#458 = CARTESIAN_POINT('',(0.758052384951,35.132295012246,
    116.47349003628));
#459 = CARTESIAN_POINT('',(0.378933445651,35.1375,116.5));
#460 = CARTESIAN_POINT('',(0.,35.1375,116.5));
#461 = FACE_BOUND('',#462,.T.);
#462 = EDGE_LOOP('',(#463));
#463 = ORIENTED_EDGE('',*,*,#172,.T.);
#464 = CONICAL_SURFACE('',#465,34.95,1.136314726429E-02);
#465 = AXIS2_PLACEMENT_3D('',#466,#467,#468);
#466 = CARTESIAN_POINT('',(0.,0.,100.));
#467 = DIRECTION('',(0.,0.,1.));
#468 = DIRECTION('',(1.,0.,0.));
#469 = ADVANCED_FACE('',(#470),#473,.T.);
#470 = FACE_BOUND('',#471,.T.);
#471 = EDGE_LOOP('',(#472));
#472 = ORIENTED_EDGE('',*,*,#31,.F.);
#473 = CONICAL_SURFACE('',#474,37.1,1.136314726429E-02);
#474 = AXIS2_PLACEMENT_3D('',#475,#476,#477);
#475 = CARTESIAN_POINT('',(0.,0.,100.));
#476 = DIRECTION('',(0.,0.,1.));
#477 = DIRECTION('',(1.,0.,0.));
#478 = ADVANCED_FACE('',(#479),#498,.T.);
#479 = FACE_BOUND('',#480,.T.);
#480 = EDGE_LOOP('',(#481,#482,#490,#497));
#481 = ORIENTED_EDGE('',*,*,#320,.T.);
#482 = ORIENTED_EDGE('',*,*,#483,.F.);
#483 = EDGE_CURVE('',#484,#321,#486,.T.);
#484 = VERTEX_POINT('',#485);
#485 = CARTESIAN_POINT('',(-2.E-15,33.9,116.5));
#486 = LINE('',#487,#488);
#487 = CARTESIAN_POINT('',(-1.59E-15,33.9,116.5));
#488 = VECTOR('',#489,1.);
#489 = DIRECTION('',(0.,1.,0.));
#490 = ORIENTED_EDGE('',*,*,#491,.T.);
#491 = EDGE_CURVE('',#484,#484,#492,.T.);
#492 = CIRCLE('',#493,6.5);
#493 = AXIS2_PLACEMENT_3D('',#494,#495,#496);
#494 = CARTESIAN_POINT('',(0.,33.9,110.));
#495 = DIRECTION('',(0.,1.,0.));
#496 = DIRECTION('',(0.,0.,1.));
#497 = ORIENTED_EDGE('',*,*,#483,.T.);
#498 = CYLINDRICAL_SURFACE('',#499,6.5);
#499 = AXIS2_PLACEMENT_3D('',#500,#501,#502);
#500 = CARTESIAN_POINT('',(0.,33.9,110.));
#501 = DIRECTION('',(0.,1.,0.));
#502 = DIRECTION('',(0.,0.,1.));
#503 = ADVANCED_FACE('',(#504),#507,.F.);
#504 = FACE_BOUND('',#505,.T.);
#505 = EDGE_LOOP('',(#506));
#506 = ORIENTED_EDGE('',*,*,#491,.F.);
#507 = PLANE('',#508);
#508 = AXIS2_PLACEMENT_3D('',#509,#510,#511);
#509 = CARTESIAN_POINT('',(0.,33.9,110.));
#510 = DIRECTION('',(0.,1.,0.));
#511 = DIRECTION('',(0.,0.,1.));
#512 = ( GEOMETRIC_REPRESENTATION_CONTEXT(3) 
GLOBAL_UNCERTAINTY_ASSIGNED_CONTEXT((#516)) GLOBAL_UNIT_ASSIGNED_CONTEXT
((#513,#514,#515)) REPRESENTATION_CONTEXT('Context #1',
  '3D Context with UNIT and UNCERTAINTY') );
#513 = ( LENGTH_UNIT() NAMED_UNIT(*) SI_UNIT(.MILLI.,.METRE.) );
#514 = ( NAMED_UNIT(*) PLANE_ANGLE_UNIT() SI_UNIT($,.RADIAN.) );
#515 = ( NAMED_UNIT(*) SI_UNIT($,.STERADIAN.) SOLID_ANGLE_UNIT() );
#516 = UNCERTAINTY_MEASURE_WITH_UNIT(LENGTH_MEASURE(2.E-07),#513,
  'distance_accuracy_value','confusion accuracy');
#517 = PRODUCT_RELATED_PRODUCT_CATEGORY('part',$,(#7));
ENDSEC;
END-ISO-10303-21;
