ISO-10303-21;
HEADER;
FILE_DESCRIPTION(('FreeCAD Model'),'2;1');
FILE_NAME('Open CASCADE Shape Model','2026-09-20T16:48:14',('FreeCAD'),(
    'FreeCAD'),'Open CASCADE STEP processor 7.8','FreeCAD','Unknown');
FILE_SCHEMA(('AUTOMOTIVE_DESIGN { 1 0 10303 214 1 1 1 1 }'));
ENDSEC;
DATA;
#1 = APPLICATION_PROTOCOL_DEFINITION('international standard',
  'automotive_design',2000,#2);
#2 = APPLICATION_CONTEXT(
  'core data for automotive mechanical design processes');
#3 = SHAPE_DEFINITION_REPRESENTATION(#4,#10);
#4 = PRODUCT_DEFINITION_SHAPE('','',#5);
#5 = PRODUCT_DEFINITION('design','',#6,#9);
#6 = PRODUCT_DEFINITION_FORMATION('','',#7);
#7 = PRODUCT('Open CASCADE STEP translator 7.8 11',
  'Open CASCADE STEP translator 7.8 11','',(#8));
#8 = PRODUCT_CONTEXT('',#2,'mechanical');
#9 = PRODUCT_DEFINITION_CONTEXT('part definition',#2,'design');
#10 = ADVANCED_BREP_SHAPE_REPRESENTATION('',(#11,#15),#226);
#11 = AXIS2_PLACEMENT_3D('',#12,#13,#14);
#12 = CARTESIAN_POINT('',(0.,0.,0.));
#13 = DIRECTION('',(0.,0.,1.));
#14 = DIRECTION('',(1.,0.,-0.));
#15 = MANIFOLD_SOLID_BREP('',#16);
#16 = CLOSED_SHELL('',(#17,#163,#172,#192,#217));
#17 = ADVANCED_FACE('',(#18),#158,.T.);
#18 = FACE_BOUND('',#19,.T.);
#19 = EDGE_LOOP('',(#20,#142,#150,#157));
#20 = ORIENTED_EDGE('',*,*,#21,.T.);
#21 = EDGE_CURVE('',#22,#22,#24,.T.);
#22 = VERTEX_POINT('',#23);
#23 = CARTESIAN_POINT('',(-4.,37.140678296142,122.48));
#24 = B_SPLINE_CURVE_WITH_KNOTS('',6,(#25,#26,#27,#28,#29,#30,#31,#32,
    #33,#34,#35,#36,#37,#38,#39,#40,#41,#42,#43,#44,#45,#46,#47,#48,#49,
    #50,#51,#52,#53,#54,#55,#56,#57,#58,#59,#60,#61,#62,#63,#64,#65,#66,
    #67,#68,#69,#70,#71,#72,#73,#74,#75,#76,#77,#78,#79,#80,#81,#82,#83,
    #84,#85,#86,#87,#88,#89,#90,#91,#92,#93,#94,#95,#96,#97,#98,#99,#100
    ,#101,#102,#103,#104,#105,#106,#107,#108,#109,#110,#111,#112,#113,
    #114,#115,#116,#117,#118,#119,#120,#121,#122,#123,#124,#125,#126,
    #127,#128,#129,#130,#131,#132,#133,#134,#135,#136,#137,#138,#139,
    #140,#141),.UNSPECIFIED.,.T.,.F.,(7,5,5,5,5,5,5,5,5,5,5,5,5,5,5,5,5,
    5,5,5,5,5,5,7),(0.,5.429527115111E-02,8.84045994977E-02,
    0.131491504889,0.163894285888,0.248714564402,0.311310002502,
    0.335600500264,0.368002720483,0.411092478698,0.445572822834,
    0.463944588107,0.501321299622,0.53915694844,0.557546706916,
    0.591693187879,0.634025141966,0.666028451459,0.75073554175,
    0.83429645624,0.866286961192,0.908595423816,0.942720102875,1.),
  .UNSPECIFIED.);
#25 = CARTESIAN_POINT('',(-4.,37.140678296142,122.48));
#26 = CARTESIAN_POINT('',(-4.096696403679,37.130264226382,122.48));
#27 = CARTESIAN_POINT('',(-4.193371490169,37.119460210227,
    122.47241860501));
#28 = CARTESIAN_POINT('',(-4.288681408976,37.108410728214,
    122.45726318347));
#29 = CARTESIAN_POINT('',(-4.381517924208,37.097268234083,122.4349471391
    ));
#30 = CARTESIAN_POINT('',(-4.471003860541,37.086180403539,
    122.40608085328));
#31 = CARTESIAN_POINT('',(-4.610168501456,37.068430839014,
    122.34961185606));
#32 = CARTESIAN_POINT('',(-4.662298028393,37.06165356747,122.32552097731
    ));
#33 = CARTESIAN_POINT('',(-4.712720427229,37.054977134687,
    122.29929616037));
#34 = CARTESIAN_POINT('',(-4.761335649259,37.048427180885,
    122.27111153718));
#35 = CARTESIAN_POINT('',(-4.808077743427,37.042025270255,
    122.24113627791));
#36 = CARTESIAN_POINT('',(-4.909534249051,37.027911193806,122.1695933798
    ));
#37 = CARTESIAN_POINT('',(-4.963105049832,37.020298197413,
    122.12705397576));
#38 = CARTESIAN_POINT('',(-5.013545572147,37.012984483019,
    122.08221548003));
#39 = CARTESIAN_POINT('',(-5.060829152391,37.005996928066,122.0353611376
    ));
#40 = CARTESIAN_POINT('',(-5.104961877617,36.999355806245,
    121.98674128477));
#41 = CARTESIAN_POINT('',(-5.176807088861,36.98835310503,121.89883252096
    ));
#42 = CARTESIAN_POINT('',(-5.205875967326,36.983834886738,
    121.86022118655));
#43 = CARTESIAN_POINT('',(-5.233185913074,36.979527503229,
    121.82082276995));
#44 = CARTESIAN_POINT('',(-5.258749250525,36.975436240721,
    121.78072015923));
#45 = CARTESIAN_POINT('',(-5.282579993321,36.971565357985,
    121.73998835638));
#46 = CARTESIAN_POINT('',(-5.362580943624,36.95837067759,121.5906001033)
  );
#47 = CARTESIAN_POINT('',(-5.408681735123,36.950359084913,
    121.47869219856));
#48 = CARTESIAN_POINT('',(-5.443312203335,36.94393589911,121.36411610636
    ));
#49 = CARTESIAN_POINT('',(-5.466658003081,36.939138193935,
    121.24784177944));
#50 = CARTESIAN_POINT('',(-5.478870242455,36.935980823609,
    121.13071941855));
#51 = CARTESIAN_POINT('',(-5.480726942367,36.933364676059,
    120.92697081106));
#52 = CARTESIAN_POINT('',(-5.475446557394,36.933153810536,
    120.84041976437));
#53 = CARTESIAN_POINT('',(-5.464097311507,36.933847151356,
    120.75414439777));
#54 = CARTESIAN_POINT('',(-5.446644953233,36.935446816493,
    120.66847580987));
#55 = CARTESIAN_POINT('',(-5.423022946884,36.937952034388,
    120.58377175543));
#56 = CARTESIAN_POINT('',(-5.381535922714,36.94268018042,120.46807976606
    ));
#57 = CARTESIAN_POINT('',(-5.368994158942,36.9441376695,120.43594130936)
  );
#58 = CARTESIAN_POINT('',(-5.355503546983,36.945730536985,
    120.40403166794));
#59 = CARTESIAN_POINT('',(-5.341058264672,36.947458365598,120.372376018)
  );
#60 = CARTESIAN_POINT('',(-5.325652182348,36.94932059474,120.34100117871
    ));
#61 = CARTESIAN_POINT('',(-5.287437733496,36.953978978301,
    120.26849581396));
#62 = CARTESIAN_POINT('',(-5.263876075148,36.956879254522,
    120.22760695863));
#63 = CARTESIAN_POINT('',(-5.238577820284,36.960015783,120.18733614904)
  );
#64 = CARTESIAN_POINT('',(-5.211528566649,36.96338614513,120.14775836766
    ));
#65 = CARTESIAN_POINT('',(-5.182715577259,36.96698706985,120.10895647666
    ));
#66 = CARTESIAN_POINT('',(-5.111450914382,36.975904213885,
    120.02057340544));
#67 = CARTESIAN_POINT('',(-5.06763825917,36.981394053817,119.97166142785
    ));
#68 = CARTESIAN_POINT('',(-5.020663932892,36.987274286145,
    119.92449536851));
#69 = CARTESIAN_POINT('',(-4.970520632958,36.993530612146,119.8793255206
    ));
#70 = CARTESIAN_POINT('',(-4.91723356868,37.000142854973,119.83643513991
    ));
#71 = CARTESIAN_POINT('',(-4.815775887359,37.012637774569,
    119.76388365852));
#72 = CARTESIAN_POINT('',(-4.768712705829,37.018401954144,
    119.73329335166));
#73 = CARTESIAN_POINT('',(-4.719725438923,37.024361889694,
    119.70452193622));
#74 = CARTESIAN_POINT('',(-4.668881381741,37.030499344651,
    119.67774448777));
#75 = CARTESIAN_POINT('',(-4.616283322271,37.036791922092,
    119.65314133498));
#76 = CARTESIAN_POINT('',(-4.533196905418,37.046633930269,
    119.61903085256));
#77 = CARTESIAN_POINT('',(-4.503859559086,37.050091479913,
    119.60784079484));
#78 = CARTESIAN_POINT('',(-4.474088853457,37.053581307095,
    119.59734476624));
#79 = CARTESIAN_POINT('',(-4.443911126822,37.05709897263,119.5875684522)
  );
#80 = CARTESIAN_POINT('',(-4.413356492096,37.060639718935,
    119.57853618053));
#81 = CARTESIAN_POINT('',(-4.319598641805,37.071438624192,
    119.55345554189));
#82 = CARTESIAN_POINT('',(-4.255326552722,37.078752443375,
    119.53981646735));
#83 = CARTESIAN_POINT('',(-4.189920739098,37.086098287677,
    119.52953849213));
#84 = CARTESIAN_POINT('',(-4.123718759556,37.09343060548,119.52277285145
    ));
#85 = CARTESIAN_POINT('',(-4.057117921468,37.100701499414,
    119.51960626935));
#86 = CARTESIAN_POINT('',(-3.923216307286,37.115111010421,
    119.52045894673));
#87 = CARTESIAN_POINT('',(-3.855871288181,37.122251824853,
    119.52456710096));
#88 = CARTESIAN_POINT('',(-3.788980345734,37.129237574551,
    119.53235252163));
#89 = CARTESIAN_POINT('',(-3.722943425664,37.136031013623,
    119.54372511703));
#90 = CARTESIAN_POINT('',(-3.658117913795,37.14260372412,119.55852559425
    ));
#91 = CARTESIAN_POINT('',(-3.564048378325,37.152012316204,119.5853023204
    ));
#92 = CARTESIAN_POINT('',(-3.533638277475,37.155032810206,
    119.59482136502));
#93 = CARTESIAN_POINT('',(-3.503619099945,37.157994388277,
    119.60507779827));
#94 = CARTESIAN_POINT('',(-3.474020524573,37.160895417532,
    119.61604659896));
#95 = CARTESIAN_POINT('',(-3.444868399427,37.163734754759,
    119.62770146231));
#96 = CARTESIAN_POINT('',(-3.362924337628,37.171668121541,
    119.66287845805));
#97 = CARTESIAN_POINT('',(-3.311280063512,37.176609403919,
    119.68801268327));
#98 = CARTESIAN_POINT('',(-3.261390873192,37.181331456637,119.71524421)
  );
#99 = CARTESIAN_POINT('',(-3.213352896647,37.185834931669,
    119.74439595733));
#100 = CARTESIAN_POINT('',(-3.16722799434,37.190123745735,
    119.77529671185));
#101 = CARTESIAN_POINT('',(-3.068286990802,37.199261364241,
    119.84807427901));
#102 = CARTESIAN_POINT('',(-3.016521007966,37.203997622329,
    119.8908038267));
#103 = CARTESIAN_POINT('',(-2.967816302886,37.208423936015,
    119.93568538165));
#104 = CARTESIAN_POINT('',(-2.922191558171,37.212554444441,
    119.98245009503));
#105 = CARTESIAN_POINT('',(-2.879635316539,37.216404242185,
    120.03086100276));
#106 = CARTESIAN_POINT('',(-2.810244508453,37.222697001557,
    120.1184132672));
#107 = CARTESIAN_POINT('',(-2.782109017346,37.225253906657,
    120.15693255281));
#108 = CARTESIAN_POINT('',(-2.755700232721,37.227664790267,
    120.19619046179));
#109 = CARTESIAN_POINT('',(-2.731004330905,37.229935443615,
    120.2361076535));
#110 = CARTESIAN_POINT('',(-2.708006056766,37.232071175342,
    120.2766125287));
#111 = CARTESIAN_POINT('',(-2.630265519842,37.23938537511,
    120.42623693186));
#112 = CARTESIAN_POINT('',(-2.585640198033,37.243780551179,
    120.53846309578));
#113 = CARTESIAN_POINT('',(-2.552468256579,37.247355388587,
    120.65319683433));
#114 = CARTESIAN_POINT('',(-2.530547862397,37.250162487013,
    120.76949259615));
#115 = CARTESIAN_POINT('',(-2.519720791533,37.252227847978,
    120.8865259465));
#116 = CARTESIAN_POINT('',(-2.520284055546,37.254838218062,
    121.11906006595));
#117 = CARTESIAN_POINT('',(-2.531375588873,37.255402674353,
    121.23449364877));
#118 = CARTESIAN_POINT('',(-2.55327158031,37.255227747696,
    121.34920083909));
#119 = CARTESIAN_POINT('',(-2.586129596064,37.254269858679,
    121.46238793519));
#120 = CARTESIAN_POINT('',(-2.630149838865,37.25245738685,
    121.57314413457));
#121 = CARTESIAN_POINT('',(-2.70692151902,37.248611852136,121.7214468268
    ));
#122 = CARTESIAN_POINT('',(-2.729857896179,37.247405424224,
    121.76198445348));
#123 = CARTESIAN_POINT('',(-2.754493319514,37.246050932948,
    121.80193813904));
#124 = CARTESIAN_POINT('',(-2.780843337011,37.244541440661,
    121.8412362583));
#125 = CARTESIAN_POINT('',(-2.808922073201,37.242869346954,
    121.87979940708));
#126 = CARTESIAN_POINT('',(-2.878180336065,37.238589017549,
    121.96745407139));
#127 = CARTESIAN_POINT('',(-2.920661572781,37.235852940108,
    122.01592660058));
#128 = CARTESIAN_POINT('',(-2.966215107929,37.232799160009,
    122.0627594515));
#129 = CARTESIAN_POINT('',(-3.014853061789,37.229407166372,
    122.10771530866));
#130 = CARTESIAN_POINT('',(-3.066557254315,37.225656668706,
    122.15052478734));
#131 = CARTESIAN_POINT('',(-3.165392273856,37.218200351382,
    122.22345299026));
#132 = CARTESIAN_POINT('',(-3.211470850439,37.214626392854,122.254422979
    ));
#133 = CARTESIAN_POINT('',(-3.259465602553,37.210798243435,
    122.28364709753));
#134 = CARTESIAN_POINT('',(-3.309314599223,37.206708074809,
    122.31095371974));
#135 = CARTESIAN_POINT('',(-3.360921421741,37.202351196643,
    122.33616535908));
#136 = CARTESIAN_POINT('',(-3.503487396962,37.189967235709,
    122.39761944936));
#137 = CARTESIAN_POINT('',(-3.597454273351,37.181450016694,
    122.42976787153));
#138 = CARTESIAN_POINT('',(-3.695269548042,37.172186731511,
    122.45466021229));
#139 = CARTESIAN_POINT('',(-3.795893125145,37.162223917185,
    122.47156476987));
#140 = CARTESIAN_POINT('',(-3.898004114336,37.151663112828,122.48));
#141 = CARTESIAN_POINT('',(-4.,37.140678296142,122.48));
#142 = ORIENTED_EDGE('',*,*,#143,.F.);
#143 = EDGE_CURVE('',#144,#22,#146,.T.);
#144 = VERTEX_POINT('',#145);
#145 = CARTESIAN_POINT('',(-4.,34.15,122.48));
#146 = LINE('',#147,#148);
#147 = CARTESIAN_POINT('',(-4.,34.15,122.48));
#148 = VECTOR('',#149,1.);
#149 = DIRECTION('',(0.,1.,0.));
#150 = ORIENTED_EDGE('',*,*,#151,.T.);
#151 = EDGE_CURVE('',#144,#144,#152,.T.);
#152 = CIRCLE('',#153,1.48);
#153 = AXIS2_PLACEMENT_3D('',#154,#155,#156);
#154 = CARTESIAN_POINT('',(-4.,34.15,121.));
#155 = DIRECTION('',(0.,1.,0.));
#156 = DIRECTION('',(0.,0.,1.));
#157 = ORIENTED_EDGE('',*,*,#143,.T.);
#158 = CYLINDRICAL_SURFACE('',#159,1.48);
#159 = AXIS2_PLACEMENT_3D('',#160,#161,#162);
#160 = CARTESIAN_POINT('',(-4.,34.15,121.));
#161 = DIRECTION('',(0.,1.,0.));
#162 = DIRECTION('',(0.,0.,1.));
#163 = ADVANCED_FACE('',(#164),#167,.T.);
#164 = FACE_BOUND('',#165,.T.);
#165 = EDGE_LOOP('',(#166));
#166 = ORIENTED_EDGE('',*,*,#21,.F.);
#167 = CONICAL_SURFACE('',#168,37.1,1.136314726429E-02);
#168 = AXIS2_PLACEMENT_3D('',#169,#170,#171);
#169 = CARTESIAN_POINT('',(0.,0.,100.));
#170 = DIRECTION('',(0.,0.,1.));
#171 = DIRECTION('',(1.,0.,0.));
#172 = ADVANCED_FACE('',(#173,#184),#187,.T.);
#173 = FACE_BOUND('',#174,.T.);
#174 = EDGE_LOOP('',(#175));
#175 = ORIENTED_EDGE('',*,*,#176,.T.);
#176 = EDGE_CURVE('',#177,#177,#179,.T.);
#177 = VERTEX_POINT('',#178);
#178 = CARTESIAN_POINT('',(-4.,34.15,123.75));
#179 = CIRCLE('',#180,2.75);
#180 = AXIS2_PLACEMENT_3D('',#181,#182,#183);
#181 = CARTESIAN_POINT('',(-4.,34.15,121.));
#182 = DIRECTION('',(0.,1.,0.));
#183 = DIRECTION('',(0.,0.,1.));
#184 = FACE_BOUND('',#185,.T.);
#185 = EDGE_LOOP('',(#186));
#186 = ORIENTED_EDGE('',*,*,#151,.F.);
#187 = PLANE('',#188);
#188 = AXIS2_PLACEMENT_3D('',#189,#190,#191);
#189 = CARTESIAN_POINT('',(-4.,34.15,121.));
#190 = DIRECTION('',(0.,1.,0.));
#191 = DIRECTION('',(0.,0.,1.));
#192 = ADVANCED_FACE('',(#193),#212,.T.);
#193 = FACE_BOUND('',#194,.T.);
#194 = EDGE_LOOP('',(#195,#196,#204,#211));
#195 = ORIENTED_EDGE('',*,*,#176,.F.);
#196 = ORIENTED_EDGE('',*,*,#197,.F.);
#197 = EDGE_CURVE('',#198,#177,#200,.T.);
#198 = VERTEX_POINT('',#199);
#199 = CARTESIAN_POINT('',(-4.,33.7,123.75));
#200 = LINE('',#201,#202);
#201 = CARTESIAN_POINT('',(-4.,33.7,123.75));
#202 = VECTOR('',#203,1.);
#203 = DIRECTION('',(0.,1.,0.));
#204 = ORIENTED_EDGE('',*,*,#205,.T.);
#205 = EDGE_CURVE('',#198,#198,#206,.T.);
#206 = CIRCLE('',#207,2.75);
#207 = AXIS2_PLACEMENT_3D('',#208,#209,#210);
#208 = CARTESIAN_POINT('',(-4.,33.7,121.));
#209 = DIRECTION('',(0.,1.,0.));
#210 = DIRECTION('',(0.,0.,1.));
#211 = ORIENTED_EDGE('',*,*,#197,.T.);
#212 = CYLINDRICAL_SURFACE('',#213,2.75);
#213 = AXIS2_PLACEMENT_3D('',#214,#215,#216);
#214 = CARTESIAN_POINT('',(-4.,33.7,121.));
#215 = DIRECTION('',(0.,1.,0.));
#216 = DIRECTION('',(0.,0.,1.));
#217 = ADVANCED_FACE('',(#218),#221,.F.);
#218 = FACE_BOUND('',#219,.T.);
#219 = EDGE_LOOP('',(#220));
#220 = ORIENTED_EDGE('',*,*,#205,.F.);
#221 = PLANE('',#222);
#222 = AXIS2_PLACEMENT_3D('',#223,#224,#225);
#223 = CARTESIAN_POINT('',(-4.,33.7,121.));
#224 = DIRECTION('',(0.,1.,0.));
#225 = DIRECTION('',(0.,0.,1.));
#226 = ( GEOMETRIC_REPRESENTATION_CONTEXT(3) 
GLOBAL_UNCERTAINTY_ASSIGNED_CONTEXT((#230)) GLOBAL_UNIT_ASSIGNED_CONTEXT
((#227,#228,#229)) REPRESENTATION_CONTEXT('Context #1',
  '3D Context with UNIT and UNCERTAINTY') );
#227 = ( LENGTH_UNIT() NAMED_UNIT(*) SI_UNIT(.MILLI.,.METRE.) );
#228 = ( NAMED_UNIT(*) PLANE_ANGLE_UNIT() SI_UNIT($,.RADIAN.) );
#229 = ( NAMED_UNIT(*) SI_UNIT($,.STERADIAN.) SOLID_ANGLE_UNIT() );
#230 = UNCERTAINTY_MEASURE_WITH_UNIT(LENGTH_MEASURE(1.E-07),#227,
  'distance_accuracy_value','confusion accuracy');
#231 = PRODUCT_RELATED_PRODUCT_CATEGORY('part',$,(#7));
ENDSEC;
END-ISO-10303-21;
