ISO-10303-21;
HEADER;
FILE_DESCRIPTION(('FreeCAD Model'),'2;1');
FILE_NAME('Open CASCADE Shape Model','2026-09-20T16:48:14',('FreeCAD'),(
    'FreeCAD'),'Open CASCADE STEP processor 7.8','FreeCAD','Unknown');
FILE_SCHEMA(('AUTOMOTIVE_DESIGN { 1 0 10303 214 1 1 1 1 }'));
ENDSEC;
DATA;
#1 = APPLICATION_PROTOCOL_DEFINITION('international standard',
  'automotive_design',2000,#2);
#2 = APPLICATION_CONTEXT(
  'core data for automotive mechanical design processes');
#3 = SHAPE_DEFINITION_REPRESENTATION(#4,#10);
#4 = PRODUCT_DEFINITION_SHAPE('','',#5);
#5 = PRODUCT_DEFINITION('design','',#6,#9);
#6 = PRODUCT_DEFINITION_FORMATION('','',#7);
#7 = PRODUCT('Open CASCADE STEP translator 7.8 12',
  'Open CASCADE STEP translator 7.8 12','',(#8));
#8 = PRODUCT_CONTEXT('',#2,'mechanical');
#9 = PRODUCT_DEFINITION_CONTEXT('part definition',#2,'design');
#10 = ADVANCED_BREP_SHAPE_REPRESENTATION('',(#11,#15),#226);
#11 = AXIS2_PLACEMENT_3D('',#12,#13,#14);
#12 = CARTESIAN_POINT('',(0.,0.,0.));
#13 = DIRECTION('',(0.,0.,1.));
#14 = DIRECTION('',(1.,0.,-0.));
#15 = MANIFOLD_SOLID_BREP('',#16);
#16 = CLOSED_SHELL('',(#17,#163,#172,#192,#217));
#17 = ADVANCED_FACE('',(#18),#158,.T.);
#18 = FACE_BOUND('',#19,.T.);
#19 = EDGE_LOOP('',(#20,#142,#150,#157));
#20 = ORIENTED_EDGE('',*,*,#21,.T.);
#21 = EDGE_CURVE('',#22,#22,#24,.T.);
#22 = VERTEX_POINT('',#23);
#23 = CARTESIAN_POINT('',(4.,37.140678296142,122.48));
#24 = B_SPLINE_CURVE_WITH_KNOTS('',6,(#25,#26,#27,#28,#29,#30,#31,#32,
    #33,#34,#35,#36,#37,#38,#39,#40,#41,#42,#43,#44,#45,#46,#47,#48,#49,
    #50,#51,#52,#53,#54,#55,#56,#57,#58,#59,#60,#61,#62,#63,#64,#65,#66,
    #67,#68,#69,#70,#71,#72,#73,#74,#75,#76,#77,#78,#79,#80,#81,#82,#83,
    #84,#85,#86,#87,#88,#89,#90,#91,#92,#93,#94,#95,#96,#97,#98,#99,#100
    ,#101,#102,#103,#104,#105,#106,#107,#108,#109,#110,#111,#112,#113,
    #114,#115,#116,#117,#118,#119,#120,#121,#122,#123,#124,#125,#126,
    #127,#128,#129,#130,#131,#132,#133,#134,#135,#136,#137,#138,#139,
    #140,#141),.UNSPECIFIED.,.T.,.F.,(7,5,5,5,5,5,5,5,5,5,5,5,5,5,5,5,5,
    5,5,5,5,5,5,7),(0.,5.753314714914E-02,9.166850637554E-02,
    0.133990748453,0.165560258409,0.250237895238,0.334236492675,
    0.365811486718,0.408531591538,0.442658908,0.461040032697,
    0.498702119756,0.536251084079,0.55463120979,0.58913037443,
    0.632244160861,0.664661981518,0.750232430304,0.812145191919,
    0.836432122479,0.868825504255,0.911510693755,0.945628237745,1.),
  .UNSPECIFIED.);
#25 = CARTESIAN_POINT('',(4.,37.140678296142,122.48));
#26 = CARTESIAN_POINT('',(3.89753978967,37.151713119956,122.48));
#27 = CARTESIAN_POINT('',(3.79496407151,37.162319991195,122.47148781133)
  );
#28 = CARTESIAN_POINT('',(3.693895290028,37.172322782754,122.45442899991
    ));
#29 = CARTESIAN_POINT('',(3.595670954026,37.181618860424,122.42931327732
    ));
#30 = CARTESIAN_POINT('',(3.50134418986,37.190161414327,122.39688442295)
  );
#31 = CARTESIAN_POINT('',(3.358515555059,37.202555253182,122.33501210647
    ));
#32 = CARTESIAN_POINT('',(3.306953300865,37.206903696131,122.3097069785)
  );
#33 = CARTESIAN_POINT('',(3.257153743098,37.210985306977,122.28231055813
    ));
#34 = CARTESIAN_POINT('',(3.209212527497,37.214804868893,122.2530004662)
  );
#35 = CARTESIAN_POINT('',(3.163190916032,37.218370278442,122.22194831022
    ));
#36 = CARTESIAN_POINT('',(3.064489218657,37.225807694788,122.14884380803
    ));
#37 = CARTESIAN_POINT('',(3.012863014422,37.229547877016,122.10594213653
    ));
#38 = CARTESIAN_POINT('',(2.964306536608,37.232929766661,122.06089950897
    ));
#39 = CARTESIAN_POINT('',(2.918837255204,37.235973696277,122.01398498534
    ));
#40 = CARTESIAN_POINT('',(2.87644257916,37.238700187647,121.96543551293)
  );
#41 = CARTESIAN_POINT('',(2.80774097383,37.242939386866,121.87816298471)
  );
#42 = CARTESIAN_POINT('',(2.78008477977,37.244584399167,121.84007896697)
  );
#43 = CARTESIAN_POINT('',(2.754112190452,37.246071196421,121.80128083916
    ));
#44 = CARTESIAN_POINT('',(2.729809593617,37.24740707705,121.76184482266)
  );
#45 = CARTESIAN_POINT('',(2.707162037784,37.248598709905,121.7218397649)
  );
#46 = CARTESIAN_POINT('',(2.629802151462,37.252477692369,121.57266174053
    ));
#47 = CARTESIAN_POINT('',(2.585262803617,37.254307827678,121.46038402815
    ));
#48 = CARTESIAN_POINT('',(2.552185039,37.255261293946,121.34561826379));
#49 = CARTESIAN_POINT('',(2.530362393097,37.255412169097,121.22931050244
    ));
#50 = CARTESIAN_POINT('',(2.51963221013,37.254805146156,121.11228494913)
  );
#51 = CARTESIAN_POINT('',(2.520380007516,37.252099346723,120.87915881936
    ));
#52 = CARTESIAN_POINT('',(2.531680368719,37.250013359099,120.76312616412
    ));
#53 = CARTESIAN_POINT('',(2.553896937186,37.247196950137,120.6478501179)
  );
#54 = CARTESIAN_POINT('',(2.587186574498,37.243623947384,120.53413734392
    ));
#55 = CARTESIAN_POINT('',(2.631748587099,37.239242352123,120.42291386205
    ));
#56 = CARTESIAN_POINT('',(2.70903305462,37.231975915276,120.27481922428)
  );
#57 = CARTESIAN_POINT('',(2.731784620031,37.229863859337,120.2348718364)
  );
#58 = CARTESIAN_POINT('',(2.756189456964,37.227620304545,120.19549843299
    ));
#59 = CARTESIAN_POINT('',(2.782262212428,37.22524014261,120.15676790978)
  );
#60 = CARTESIAN_POINT('',(2.810016164649,37.222717808572,120.11875651104
    ));
#61 = CARTESIAN_POINT('',(2.879304289092,37.216434129643,120.03120549945
    ));
#62 = CARTESIAN_POINT('',(2.922241836297,37.212549930447,119.98233574552
    ));
#63 = CARTESIAN_POINT('',(2.968305306008,37.208379808451,119.93514221922
    ));
#64 = CARTESIAN_POINT('',(3.017506538801,37.203908232935,119.88986865143
    ));
#65 = CARTESIAN_POINT('',(3.069826014927,37.19912067463,119.84679184812)
  );
#66 = CARTESIAN_POINT('',(3.169434347122,37.189918773441,119.77379927722
    ));
#67 = CARTESIAN_POINT('',(3.215615937302,37.185623278808,119.74298088609
    ));
#68 = CARTESIAN_POINT('',(3.263707161648,37.181113173425,119.71391529308
    ));
#69 = CARTESIAN_POINT('',(3.313645493336,37.17638460954,119.68677372717)
  );
#70 = CARTESIAN_POINT('',(3.365334033274,37.171437025175,119.6617331324)
  );
#71 = CARTESIAN_POINT('',(3.447340000965,37.163494205381,119.62670418982
    ));
#72 = CARTESIAN_POINT('',(3.476513934256,37.160651475281,119.61510150344
    ));
#73 = CARTESIAN_POINT('',(3.506132602925,37.157747153106,119.60418591663
    ));
#74 = CARTESIAN_POINT('',(3.536170022035,37.154782401026,119.59398366508
    ));
#75 = CARTESIAN_POINT('',(3.566596379673,37.151758871844,119.58451967912
    ));
#76 = CARTESIAN_POINT('',(3.660448250309,37.142367595661,119.55798738666
    ));
#77 = CARTESIAN_POINT('',(3.725004976766,37.135819284273,119.54335667139
    ));
#78 = CARTESIAN_POINT('',(3.790759583712,37.129052411401,119.53212222303
    ));
#79 = CARTESIAN_POINT('',(3.857367256268,37.122094164547,119.52444261391
    ));
#80 = CARTESIAN_POINT('',(3.924427113448,37.114981892155,119.52041043222
    ));
#81 = CARTESIAN_POINT('',(4.058336126544,37.100569212787,119.51963974815
    ));
#82 = CARTESIAN_POINT('',(4.12521797253,37.09326591988,119.52287906942)
  );
#83 = CARTESIAN_POINT('',(4.191698416596,37.085900680899,119.52974541155
    ));
#84 = CARTESIAN_POINT('',(4.2573861489,37.078520702,119.54015592498));
#85 = CARTESIAN_POINT('',(4.321930595542,37.071173007261,119.55396040457
    ));
#86 = CARTESIAN_POINT('',(4.415908838916,37.060344195073,119.57928084406
    ));
#87 = CARTESIAN_POINT('',(4.446448027,37.056803790548,119.58836825134));
#88 = CARTESIAN_POINT('',(4.476608322019,37.053286752469,119.59819885901
    ));
#89 = CARTESIAN_POINT('',(4.506359741533,37.049797830278,119.6087482474)
  );
#90 = CARTESIAN_POINT('',(4.535676081565,37.046341453261,119.61999066064
    ));
#91 = CARTESIAN_POINT('',(4.618702429777,37.03650297266,119.65425075752)
  );
#92 = CARTESIAN_POINT('',(4.67125712435,37.030213421635,119.67894892862)
  );
#93 = CARTESIAN_POINT('',(4.72205281084,37.024079850225,119.70581774015)
  );
#94 = CARTESIAN_POINT('',(4.770987481066,37.018124581032,119.73467671114
    ));
#95 = CARTESIAN_POINT('',(4.817994515838,37.012365776962,119.76535077032
    ));
#96 = CARTESIAN_POINT('',(4.919319837339,36.999884310472,119.83808283277
    ));
#97 = CARTESIAN_POINT('',(4.972528926273,36.993280514944,119.88106800591
    ));
#98 = CARTESIAN_POINT('',(5.02259055377,36.987033520599,119.92632710016)
  );
#99 = CARTESIAN_POINT('',(5.069480246922,36.981163399442,119.973577176)
  );
#100 = CARTESIAN_POINT('',(5.113205798294,36.975684366287,
    120.02256830442));
#101 = CARTESIAN_POINT('',(5.184311746857,36.96678755379,120.11107920487
    ));
#102 = CARTESIAN_POINT('',(5.213054339036,36.963195844169,
    120.14993160968));
#103 = CARTESIAN_POINT('',(5.240032367018,36.959834992343,
    120.18955736288));
#104 = CARTESIAN_POINT('',(5.265258649542,36.956708246414,
    120.22987374413));
#105 = CARTESIAN_POINT('',(5.288747632223,36.953818006448,
    120.27080589505));
#106 = CARTESIAN_POINT('',(5.367973802553,36.944165094723,
    120.42178033937));
#107 = CARTESIAN_POINT('',(5.413417488217,36.938825782465,
    120.53505814739));
#108 = CARTESIAN_POINT('',(5.447177389338,36.935172315677,
    120.65094908641));
#109 = CARTESIAN_POINT('',(5.469448468237,36.93321709639,120.76846123864
    ));
#110 = CARTESIAN_POINT('',(5.480389847087,36.932952341652,
    120.88672477032));
#111 = CARTESIAN_POINT('',(5.479703470849,36.935395706882,
    121.09054786902));
#112 = CARTESIAN_POINT('',(5.473479698052,36.937301801333,
    121.17608522565));
#113 = CARTESIAN_POINT('',(5.461320748448,36.940084347489,
    121.26129453468));
#114 = CARTESIAN_POINT('',(5.443194670477,36.943736926384,
    121.34585479594));
#115 = CARTESIAN_POINT('',(5.419038770735,36.948249754305,
    121.42941894536));
#116 = CARTESIAN_POINT('',(5.376884130441,36.955711038997,
    121.54384796988));
#117 = CARTESIAN_POINT('',(5.36406532179,36.957943422142,121.57587577703
    ));
#118 = CARTESIAN_POINT('',(5.350299471323,36.960305081358,
    121.60766721933));
#119 = CARTESIAN_POINT('',(5.335580896282,36.962794960115,
    121.63919707225));
#120 = CARTESIAN_POINT('',(5.319903616025,36.965411820993,
    121.67043845903));
#121 = CARTESIAN_POINT('',(5.281064260891,36.971812032299,
    121.74260913422));
#122 = CARTESIAN_POINT('',(5.257151092318,36.975693094834,121.7832908753
    ));
#123 = CARTESIAN_POINT('',(5.231506149937,36.979794183285,
    121.82334083625));
#124 = CARTESIAN_POINT('',(5.204115470857,36.984111014717,
    121.86268387327));
#125 = CARTESIAN_POINT('',(5.174966825681,36.988638273249,
    121.90123693649));
#126 = CARTESIAN_POINT('',(5.103309835646,36.999604155429,
    121.98855014062));
#127 = CARTESIAN_POINT('',(5.059502115922,37.006192600955,
    122.03665848695));
#128 = CARTESIAN_POINT('',(5.012602731113,37.013120521497,
    122.08302915269));
#129 = CARTESIAN_POINT('',(4.962606175646,37.020368128265,
    122.12741842636));
#130 = CARTESIAN_POINT('',(4.909538611141,37.027909259583,
    122.16955089528));
#131 = CARTESIAN_POINT('',(4.808657494179,37.041945667484,
    122.24075860521));
#132 = CARTESIAN_POINT('',(4.761929699636,37.048346722729,
    122.27075551706));
#133 = CARTESIAN_POINT('',(4.713327866237,37.054896023837,
    122.29896275561));
#134 = CARTESIAN_POINT('',(4.662917774178,37.061572025006,
    122.32521115082));
#135 = CARTESIAN_POINT('',(4.610799275389,37.068349103662,
    122.34932653159));
#136 = CARTESIAN_POINT('',(4.471559547038,37.086111556017,
    122.40590173324));
#137 = CARTESIAN_POINT('',(4.381989876781,37.097211502062,
    122.43483171039));
#138 = CARTESIAN_POINT('',(4.289056437931,37.108367169591,
    122.45720222169));
#139 = CARTESIAN_POINT('',(4.193629699839,37.119431378773,
    122.47239869729));
#140 = CARTESIAN_POINT('',(4.096822872967,37.130250605813,122.48));
#141 = CARTESIAN_POINT('',(4.,37.140678296142,122.48));
#142 = ORIENTED_EDGE('',*,*,#143,.F.);
#143 = EDGE_CURVE('',#144,#22,#146,.T.);
#144 = VERTEX_POINT('',#145);
#145 = CARTESIAN_POINT('',(4.,34.15,122.48));
#146 = LINE('',#147,#148);
#147 = CARTESIAN_POINT('',(4.,34.15,122.48));
#148 = VECTOR('',#149,1.);
#149 = DIRECTION('',(0.,1.,0.));
#150 = ORIENTED_EDGE('',*,*,#151,.T.);
#151 = EDGE_CURVE('',#144,#144,#152,.T.);
#152 = CIRCLE('',#153,1.48);
#153 = AXIS2_PLACEMENT_3D('',#154,#155,#156);
#154 = CARTESIAN_POINT('',(4.,34.15,121.));
#155 = DIRECTION('',(0.,1.,0.));
#156 = DIRECTION('',(0.,0.,1.));
#157 = ORIENTED_EDGE('',*,*,#143,.T.);
#158 = CYLINDRICAL_SURFACE('',#159,1.48);
#159 = AXIS2_PLACEMENT_3D('',#160,#161,#162);
#160 = CARTESIAN_POINT('',(4.,34.15,121.));
#161 = DIRECTION('',(0.,1.,0.));
#162 = DIRECTION('',(0.,0.,1.));
#163 = ADVANCED_FACE('',(#164),#167,.T.);
#164 = FACE_BOUND('',#165,.T.);
#165 = EDGE_LOOP('',(#166));
#166 = ORIENTED_EDGE('',*,*,#21,.F.);
#167 = CONICAL_SURFACE('',#168,37.1,1.136314726429E-02);
#168 = AXIS2_PLACEMENT_3D('',#169,#170,#171);
#169 = CARTESIAN_POINT('',(0.,0.,100.));
#170 = DIRECTION('',(0.,0.,1.));
#171 = DIRECTION('',(1.,0.,0.));
#172 = ADVANCED_FACE('',(#173,#184),#187,.T.);
#173 = FACE_BOUND('',#174,.T.);
#174 = EDGE_LOOP('',(#175));
#175 = ORIENTED_EDGE('',*,*,#176,.T.);
#176 = EDGE_CURVE('',#177,#177,#179,.T.);
#177 = VERTEX_POINT('',#178);
#178 = CARTESIAN_POINT('',(4.,34.15,123.75));
#179 = CIRCLE('',#180,2.75);
#180 = AXIS2_PLACEMENT_3D('',#181,#182,#183);
#181 = CARTESIAN_POINT('',(4.,34.15,121.));
#182 = DIRECTION('',(0.,1.,0.));
#183 = DIRECTION('',(0.,0.,1.));
#184 = FACE_BOUND('',#185,.T.);
#185 = EDGE_LOOP('',(#186));
#186 = ORIENTED_EDGE('',*,*,#151,.F.);
#187 = PLANE('',#188);
#188 = AXIS2_PLACEMENT_3D('',#189,#190,#191);
#189 = CARTESIAN_POINT('',(4.,34.15,121.));
#190 = DIRECTION('',(0.,1.,0.));
#191 = DIRECTION('',(0.,0.,1.));
#192 = ADVANCED_FACE('',(#193),#212,.T.);
#193 = FACE_BOUND('',#194,.T.);
#194 = EDGE_LOOP('',(#195,#196,#204,#211));
#195 = ORIENTED_EDGE('',*,*,#176,.F.);
#196 = ORIENTED_EDGE('',*,*,#197,.F.);
#197 = EDGE_CURVE('',#198,#177,#200,.T.);
#198 = VERTEX_POINT('',#199);
#199 = CARTESIAN_POINT('',(4.,33.7,123.75));
#200 = LINE('',#201,#202);
#201 = CARTESIAN_POINT('',(4.,33.7,123.75));
#202 = VECTOR('',#203,1.);
#203 = DIRECTION('',(0.,1.,0.));
#204 = ORIENTED_EDGE('',*,*,#205,.T.);
#205 = EDGE_CURVE('',#198,#198,#206,.T.);
#206 = CIRCLE('',#207,2.75);
#207 = AXIS2_PLACEMENT_3D('',#208,#209,#210);
#208 = CARTESIAN_POINT('',(4.,33.7,121.));
#209 = DIRECTION('',(0.,1.,0.));
#210 = DIRECTION('',(0.,0.,1.));
#211 = ORIENTED_EDGE('',*,*,#197,.T.);
#212 = CYLINDRICAL_SURFACE('',#213,2.75);
#213 = AXIS2_PLACEMENT_3D('',#214,#215,#216);
#214 = CARTESIAN_POINT('',(4.,33.7,121.));
#215 = DIRECTION('',(0.,1.,0.));
#216 = DIRECTION('',(0.,0.,1.));
#217 = ADVANCED_FACE('',(#218),#221,.F.);
#218 = FACE_BOUND('',#219,.T.);
#219 = EDGE_LOOP('',(#220));
#220 = ORIENTED_EDGE('',*,*,#205,.F.);
#221 = PLANE('',#222);
#222 = AXIS2_PLACEMENT_3D('',#223,#224,#225);
#223 = CARTESIAN_POINT('',(4.,33.7,121.));
#224 = DIRECTION('',(0.,1.,0.));
#225 = DIRECTION('',(0.,0.,1.));
#226 = ( GEOMETRIC_REPRESENTATION_CONTEXT(3) 
GLOBAL_UNCERTAINTY_ASSIGNED_CONTEXT((#230)) GLOBAL_UNIT_ASSIGNED_CONTEXT
((#227,#228,#229)) REPRESENTATION_CONTEXT('Context #1',
  '3D Context with UNIT and UNCERTAINTY') );
#227 = ( LENGTH_UNIT() NAMED_UNIT(*) SI_UNIT(.MILLI.,.METRE.) );
#228 = ( NAMED_UNIT(*) PLANE_ANGLE_UNIT() SI_UNIT($,.RADIAN.) );
#229 = ( NAMED_UNIT(*) SI_UNIT($,.STERADIAN.) SOLID_ANGLE_UNIT() );
#230 = UNCERTAINTY_MEASURE_WITH_UNIT(LENGTH_MEASURE(1.E-07),#227,
  'distance_accuracy_value','confusion accuracy');
#231 = PRODUCT_RELATED_PRODUCT_CATEGORY('part',$,(#7));
ENDSEC;
END-ISO-10303-21;
