ISO-10303-21;
HEADER;
FILE_DESCRIPTION(('FreeCAD Model'),'2;1');
FILE_NAME('Open CASCADE Shape Model','2026-09-28T16:00:14',('FreeCAD'),(
    'FreeCAD'),'Open CASCADE STEP processor 7.8','FreeCAD','Unknown');
FILE_SCHEMA(('AUTOMOTIVE_DESIGN { 1 0 10303 214 1 1 1 1 }'));
ENDSEC;
DATA;
#1 = APPLICATION_PROTOCOL_DEFINITION('international standard',
  'automotive_design',2000,#2);
#2 = APPLICATION_CONTEXT(
  'core data for automotive mechanical design processes');
#3 = SHAPE_DEFINITION_REPRESENTATION(#4,#10);
#4 = PRODUCT_DEFINITION_SHAPE('','',#5);
#5 = PRODUCT_DEFINITION('design','',#6,#9);
#6 = PRODUCT_DEFINITION_FORMATION('','',#7);
#7 = PRODUCT('Open CASCADE STEP translator 7.8 3',
  'Open CASCADE STEP translator 7.8 3','',(#8));
#8 = PRODUCT_CONTEXT('',#2,'mechanical');
#9 = PRODUCT_DEFINITION_CONTEXT('part definition',#2,'design');
#10 = ADVANCED_BREP_SHAPE_REPRESENTATION('',(#11,#15),#1006);
#11 = AXIS2_PLACEMENT_3D('',#12,#13,#14);
#12 = CARTESIAN_POINT('',(0.,0.,0.));
#13 = DIRECTION('',(0.,0.,1.));
#14 = DIRECTION('',(1.,0.,-0.));
#15 = MANIFOLD_SOLID_BREP('',#16);
#16 = CLOSED_SHELL('',(#17,#50,#70,#90,#115,#299,#352,#372,#403,#428,
    #453,#470,#501,#526,#551,#568,#599,#624,#649,#666,#691,#716,#741,
    #766,#791,#816,#828,#840,#852,#861,#890,#972,#997));
#17 = ADVANCED_FACE('',(#18),#45,.T.);
#18 = FACE_BOUND('',#19,.T.);
#19 = EDGE_LOOP('',(#20,#29,#37,#44));
#20 = ORIENTED_EDGE('',*,*,#21,.F.);
#21 = EDGE_CURVE('',#22,#22,#24,.T.);
#22 = VERTEX_POINT('',#23);
#23 = CARTESIAN_POINT('',(27.,-7.E-15,149.40625));
#24 = CIRCLE('',#25,27.);
#25 = AXIS2_PLACEMENT_3D('',#26,#27,#28);
#26 = CARTESIAN_POINT('',(0.,0.,149.40625));
#27 = DIRECTION('',(0.,0.,1.));
#28 = DIRECTION('',(1.,0.,0.));
#29 = ORIENTED_EDGE('',*,*,#30,.F.);
#30 = EDGE_CURVE('',#31,#22,#33,.T.);
#31 = VERTEX_POINT('',#32);
#32 = CARTESIAN_POINT('',(27.,-7.E-15,145.60625));
#33 = LINE('',#34,#35);
#34 = CARTESIAN_POINT('',(27.,-6.61E-15,145.60625));
#35 = VECTOR('',#36,1.);
#36 = DIRECTION('',(0.,0.,1.));
#37 = ORIENTED_EDGE('',*,*,#38,.T.);
#38 = EDGE_CURVE('',#31,#31,#39,.T.);
#39 = CIRCLE('',#40,27.);
#40 = AXIS2_PLACEMENT_3D('',#41,#42,#43);
#41 = CARTESIAN_POINT('',(0.,0.,145.60625));
#42 = DIRECTION('',(0.,0.,1.));
#43 = DIRECTION('',(1.,0.,0.));
#44 = ORIENTED_EDGE('',*,*,#30,.T.);
#45 = CYLINDRICAL_SURFACE('',#46,27.);
#46 = AXIS2_PLACEMENT_3D('',#47,#48,#49);
#47 = CARTESIAN_POINT('',(0.,0.,145.60625));
#48 = DIRECTION('',(0.,0.,1.));
#49 = DIRECTION('',(1.,0.,0.));
#50 = ADVANCED_FACE('',(#51,#54),#65,.T.);
#51 = FACE_BOUND('',#52,.T.);
#52 = EDGE_LOOP('',(#53));
#53 = ORIENTED_EDGE('',*,*,#21,.T.);
#54 = FACE_BOUND('',#55,.T.);
#55 = EDGE_LOOP('',(#56));
#56 = ORIENTED_EDGE('',*,*,#57,.F.);
#57 = EDGE_CURVE('',#58,#58,#60,.T.);
#58 = VERTEX_POINT('',#59);
#59 = CARTESIAN_POINT('',(25.8,-6.E-15,149.40625));
#60 = CIRCLE('',#61,25.8);
#61 = AXIS2_PLACEMENT_3D('',#62,#63,#64);
#62 = CARTESIAN_POINT('',(0.,0.,149.40625));
#63 = DIRECTION('',(0.,0.,1.));
#64 = DIRECTION('',(1.,0.,0.));
#65 = PLANE('',#66);
#66 = AXIS2_PLACEMENT_3D('',#67,#68,#69);
#67 = CARTESIAN_POINT('',(0.,0.,149.40625));
#68 = DIRECTION('',(0.,0.,1.));
#69 = DIRECTION('',(1.,0.,0.));
#70 = ADVANCED_FACE('',(#71,#74),#85,.F.);
#71 = FACE_BOUND('',#72,.F.);
#72 = EDGE_LOOP('',(#73));
#73 = ORIENTED_EDGE('',*,*,#38,.T.);
#74 = FACE_BOUND('',#75,.F.);
#75 = EDGE_LOOP('',(#76));
#76 = ORIENTED_EDGE('',*,*,#77,.F.);
#77 = EDGE_CURVE('',#78,#78,#80,.T.);
#78 = VERTEX_POINT('',#79);
#79 = CARTESIAN_POINT('',(20.65,-5.E-15,145.60625));
#80 = CIRCLE('',#81,20.65);
#81 = AXIS2_PLACEMENT_3D('',#82,#83,#84);
#82 = CARTESIAN_POINT('',(0.,0.,145.60625));
#83 = DIRECTION('',(0.,0.,1.));
#84 = DIRECTION('',(1.,0.,0.));
#85 = PLANE('',#86);
#86 = AXIS2_PLACEMENT_3D('',#87,#88,#89);
#87 = CARTESIAN_POINT('',(0.,0.,145.60625));
#88 = DIRECTION('',(0.,0.,1.));
#89 = DIRECTION('',(1.,0.,0.));
#90 = ADVANCED_FACE('',(#91),#110,.T.);
#91 = FACE_BOUND('',#92,.T.);
#92 = EDGE_LOOP('',(#93,#102,#108,#109));
#93 = ORIENTED_EDGE('',*,*,#94,.F.);
#94 = EDGE_CURVE('',#95,#95,#97,.T.);
#95 = VERTEX_POINT('',#96);
#96 = CARTESIAN_POINT('',(25.8,-6.E-15,150.60625));
#97 = CIRCLE('',#98,25.8);
#98 = AXIS2_PLACEMENT_3D('',#99,#100,#101);
#99 = CARTESIAN_POINT('',(0.,0.,150.60625));
#100 = DIRECTION('',(0.,0.,1.));
#101 = DIRECTION('',(1.,0.,0.));
#102 = ORIENTED_EDGE('',*,*,#103,.F.);
#103 = EDGE_CURVE('',#58,#95,#104,.T.);
#104 = LINE('',#105,#106);
#105 = CARTESIAN_POINT('',(25.8,-6.32E-15,148.40625));
#106 = VECTOR('',#107,1.);
#107 = DIRECTION('',(0.,0.,1.));
#108 = ORIENTED_EDGE('',*,*,#57,.T.);
#109 = ORIENTED_EDGE('',*,*,#103,.T.);
#110 = CYLINDRICAL_SURFACE('',#111,25.8);
#111 = AXIS2_PLACEMENT_3D('',#112,#113,#114);
#112 = CARTESIAN_POINT('',(0.,0.,148.40625));
#113 = DIRECTION('',(0.,0.,1.));
#114 = DIRECTION('',(1.,0.,0.));
#115 = ADVANCED_FACE('',(#116,#135,#171,#207,#243),#294,.T.);
#116 = FACE_BOUND('',#117,.T.);
#117 = EDGE_LOOP('',(#118,#127,#133,#134));
#118 = ORIENTED_EDGE('',*,*,#119,.T.);
#119 = EDGE_CURVE('',#120,#120,#122,.T.);
#120 = VERTEX_POINT('',#121);
#121 = CARTESIAN_POINT('',(20.65,-5.E-15,113.60625));
#122 = CIRCLE('',#123,20.65);
#123 = AXIS2_PLACEMENT_3D('',#124,#125,#126);
#124 = CARTESIAN_POINT('',(0.,0.,113.60625));
#125 = DIRECTION('',(0.,0.,1.));
#126 = DIRECTION('',(1.,0.,0.));
#127 = ORIENTED_EDGE('',*,*,#128,.T.);
#128 = EDGE_CURVE('',#120,#78,#129,.T.);
#129 = LINE('',#130,#131);
#130 = CARTESIAN_POINT('',(20.65,-5.06E-15,113.60625));
#131 = VECTOR('',#132,1.);
#132 = DIRECTION('',(0.,0.,1.));
#133 = ORIENTED_EDGE('',*,*,#77,.F.);
#134 = ORIENTED_EDGE('',*,*,#128,.F.);
#135 = FACE_BOUND('',#136,.T.);
#136 = EDGE_LOOP('',(#137,#147,#156,#164));
#137 = ORIENTED_EDGE('',*,*,#138,.T.);
#138 = EDGE_CURVE('',#139,#141,#143,.T.);
#139 = VERTEX_POINT('',#140);
#140 = CARTESIAN_POINT('',(3.479305688017,20.354776636685,137.60625));
#141 = VERTEX_POINT('',#142);
#142 = CARTESIAN_POINT('',(3.479305688017,20.354776636685,140.10625));
#143 = LINE('',#144,#145);
#144 = CARTESIAN_POINT('',(3.479305688017,20.354776636685,113.60625));
#145 = VECTOR('',#146,1.);
#146 = DIRECTION('',(0.,0.,1.));
#147 = ORIENTED_EDGE('',*,*,#148,.T.);
#148 = EDGE_CURVE('',#141,#149,#151,.T.);
#149 = VERTEX_POINT('',#150);
#150 = CARTESIAN_POINT('',(-4.399077476578,20.175991112088,140.10625));
#151 = CIRCLE('',#152,20.65);
#152 = AXIS2_PLACEMENT_3D('',#153,#154,#155);
#153 = CARTESIAN_POINT('',(0.,0.,140.10625));
#154 = DIRECTION('',(0.,0.,1.));
#155 = DIRECTION('',(1.,0.,0.));
#156 = ORIENTED_EDGE('',*,*,#157,.F.);
#157 = EDGE_CURVE('',#158,#149,#160,.T.);
#158 = VERTEX_POINT('',#159);
#159 = CARTESIAN_POINT('',(-4.399077476578,20.175991112088,137.60625));
#160 = LINE('',#161,#162);
#161 = CARTESIAN_POINT('',(-4.399077476578,20.175991112088,113.60625));
#162 = VECTOR('',#163,1.);
#163 = DIRECTION('',(0.,0.,1.));
#164 = ORIENTED_EDGE('',*,*,#165,.F.);
#165 = EDGE_CURVE('',#139,#158,#166,.T.);
#166 = CIRCLE('',#167,20.65);
#167 = AXIS2_PLACEMENT_3D('',#168,#169,#170);
#168 = CARTESIAN_POINT('',(0.,0.,137.60625));
#169 = DIRECTION('',(0.,0.,1.));
#170 = DIRECTION('',(1.,0.,0.));
#171 = FACE_BOUND('',#172,.T.);
#172 = EDGE_LOOP('',(#173,#183,#192,#200));
#173 = ORIENTED_EDGE('',*,*,#174,.T.);
#174 = EDGE_CURVE('',#175,#177,#179,.T.);
#175 = VERTEX_POINT('',#176);
#176 = CARTESIAN_POINT('',(-19.36740649973,-7.164221204988,137.60625));
#177 = VERTEX_POINT('',#178);
#178 = CARTESIAN_POINT('',(-19.36740649973,-7.164221204988,140.10625));
#179 = LINE('',#180,#181);
#180 = CARTESIAN_POINT('',(-19.36740649973,-7.164221204988,113.60625));
#181 = VECTOR('',#182,1.);
#182 = DIRECTION('',(0.,0.,1.));
#183 = ORIENTED_EDGE('',*,*,#184,.T.);
#184 = EDGE_CURVE('',#177,#185,#187,.T.);
#185 = VERTEX_POINT('',#186);
#186 = CARTESIAN_POINT('',(-15.2733821113,-13.89770840397,140.10625));
#187 = CIRCLE('',#188,20.65);
#188 = AXIS2_PLACEMENT_3D('',#189,#190,#191);
#189 = CARTESIAN_POINT('',(0.,0.,140.10625));
#190 = DIRECTION('',(0.,0.,1.));
#191 = DIRECTION('',(1.,0.,0.));
#192 = ORIENTED_EDGE('',*,*,#193,.F.);
#193 = EDGE_CURVE('',#194,#185,#196,.T.);
#194 = VERTEX_POINT('',#195);
#195 = CARTESIAN_POINT('',(-15.2733821113,-13.89770840397,137.60625));
#196 = LINE('',#197,#198);
#197 = CARTESIAN_POINT('',(-15.2733821113,-13.89770840397,113.60625));
#198 = VECTOR('',#199,1.);
#199 = DIRECTION('',(0.,0.,1.));
#200 = ORIENTED_EDGE('',*,*,#201,.F.);
#201 = EDGE_CURVE('',#175,#194,#202,.T.);
#202 = CIRCLE('',#203,20.65);
#203 = AXIS2_PLACEMENT_3D('',#204,#205,#206);
#204 = CARTESIAN_POINT('',(0.,0.,137.60625));
#205 = DIRECTION('',(0.,0.,1.));
#206 = DIRECTION('',(1.,0.,0.));
#207 = FACE_BOUND('',#208,.T.);
#208 = EDGE_LOOP('',(#209,#219,#228,#236));
#209 = ORIENTED_EDGE('',*,*,#210,.T.);
#210 = EDGE_CURVE('',#211,#213,#215,.T.);
#211 = VERTEX_POINT('',#212);
#212 = CARTESIAN_POINT('',(15.888100811718,-13.19055543169,137.60625));
#213 = VERTEX_POINT('',#214);
#214 = CARTESIAN_POINT('',(15.888100811718,-13.19055543169,140.10625));
#215 = LINE('',#216,#217);
#216 = CARTESIAN_POINT('',(15.888100811718,-13.19055543169,113.60625));
#217 = VECTOR('',#218,1.);
#218 = DIRECTION('',(0.,0.,1.));
#219 = ORIENTED_EDGE('',*,*,#220,.T.);
#220 = EDGE_CURVE('',#213,#221,#223,.T.);
#221 = VERTEX_POINT('',#222);
#222 = CARTESIAN_POINT('',(19.672459587887,-6.278282708111,140.10625));
#223 = CIRCLE('',#224,20.65);
#224 = AXIS2_PLACEMENT_3D('',#225,#226,#227);
#225 = CARTESIAN_POINT('',(0.,0.,140.10625));
#226 = DIRECTION('',(0.,0.,1.));
#227 = DIRECTION('',(1.,0.,0.));
#228 = ORIENTED_EDGE('',*,*,#229,.F.);
#229 = EDGE_CURVE('',#230,#221,#232,.T.);
#230 = VERTEX_POINT('',#231);
#231 = CARTESIAN_POINT('',(19.672459587887,-6.278282708111,137.60625));
#232 = LINE('',#233,#234);
#233 = CARTESIAN_POINT('',(19.672459587887,-6.278282708111,113.60625));
#234 = VECTOR('',#235,1.);
#235 = DIRECTION('',(0.,0.,1.));
#236 = ORIENTED_EDGE('',*,*,#237,.F.);
#237 = EDGE_CURVE('',#211,#230,#238,.T.);
#238 = CIRCLE('',#239,20.65);
#239 = AXIS2_PLACEMENT_3D('',#240,#241,#242);
#240 = CARTESIAN_POINT('',(0.,0.,137.60625));
#241 = DIRECTION('',(0.,0.,1.));
#242 = DIRECTION('',(1.,0.,0.));
#243 = FACE_BOUND('',#244,.T.);
#244 = EDGE_LOOP('',(#245));
#245 = ORIENTED_EDGE('',*,*,#246,.T.);
#246 = EDGE_CURVE('',#247,#247,#249,.T.);
#247 = VERTEX_POINT('',#248);
#248 = CARTESIAN_POINT('',(-20.36503355083,-3.41875832335,140.60625));
#249 = B_SPLINE_CURVE_WITH_KNOTS('',7,(#250,#251,#252,#253,#254,#255,
    #256,#257,#258,#259,#260,#261,#262,#263,#264,#265,#266,#267,#268,
    #269,#270,#271,#272,#273,#274,#275,#276,#277,#278,#279,#280,#281,
    #282,#283,#284,#285,#286,#287,#288,#289,#290,#291,#292,#293),
  .UNSPECIFIED.,.T.,.F.,(8,6,6,6,6,6,6,8),(0.,0.151246856161,
    0.287079475336,0.42438925761,0.587287310551,0.713795246998,
    0.839626194025,1.),.UNSPECIFIED.);
#250 = CARTESIAN_POINT('',(-20.36503355083,-3.41875832335,140.60625));
#251 = CARTESIAN_POINT('',(-20.36503355083,-3.41875832335,
    140.75646492693));
#252 = CARTESIAN_POINT('',(-20.36154049991,-3.439565589231,
    140.90675715759));
#253 = CARTESIAN_POINT('',(-20.3545477265,-3.481222141272,
    141.05497720889));
#254 = CARTESIAN_POINT('',(-20.34384602486,-3.544146043299,
    141.19875366849));
#255 = CARTESIAN_POINT('',(-20.32906708655,-3.628899272658,
    141.33517300127));
#256 = CARTESIAN_POINT('',(-20.30965733274,-3.735997566585,
    141.46047735315));
#257 = CARTESIAN_POINT('',(-20.26284585734,-3.981655262336,
    141.66720582524));
#258 = CARTESIAN_POINT('',(-20.23588551313,-4.118910327369,
    141.75433815461));
#259 = CARTESIAN_POINT('',(-20.2041463432,-4.274259284228,
    141.82184663628));
#260 = CARTESIAN_POINT('',(-20.16814600258,-4.442025988705,
    141.86358223002));
#261 = CARTESIAN_POINT('',(-20.12898680357,-4.615043132262,
    141.87629762058));
#262 = CARTESIAN_POINT('',(-20.08846754516,-4.785786518688,
    141.85976924574));
#263 = CARTESIAN_POINT('',(-20.00816421748,-5.111189008007,
    141.77372331786));
#264 = CARTESIAN_POINT('',(-19.96954350295,-5.260992363302,
    141.70486382571));
#265 = CARTESIAN_POINT('',(-19.93386432499,-5.394155876806,
    141.61541595687));
#266 = CARTESIAN_POINT('',(-19.90212220957,-5.509100623818,
    141.50990663496));
#267 = CARTESIAN_POINT('',(-19.87504036445,-5.605038199436,
    141.39259769563));
#268 = CARTESIAN_POINT('',(-19.85301759202,-5.681891519503,
    141.26752353295));
#269 = CARTESIAN_POINT('',(-19.81605491736,-5.809619029354,
    140.98537577974));
#270 = CARTESIAN_POINT('',(-19.80261070192,-5.855018622553,
    140.82218584944));
#271 = CARTESIAN_POINT('',(-19.7964563069,-5.875478722578,
    140.65325986893));
#272 = CARTESIAN_POINT('',(-19.79791993834,-5.870604412413,
    140.48286667001));
#273 = CARTESIAN_POINT('',(-19.80694961865,-5.840455837326,
    140.31514019458));
#274 = CARTESIAN_POINT('',(-19.8231791204,-5.785403555074,
    140.15411692515));
#275 = CARTESIAN_POINT('',(-19.86373434642,-5.644348850735,
    139.88752086876));
#276 = CARTESIAN_POINT('',(-19.88580076273,-5.566758236452,
    139.77523523181));
#277 = CARTESIAN_POINT('',(-19.91209706567,-5.472834739055,
    139.67045128499));
#278 = CARTESIAN_POINT('',(-19.94224035093,-5.362800195224,
    139.57654190307));
#279 = CARTESIAN_POINT('',(-19.97559965408,-5.237466731026,
    139.49698153145));
#280 = CARTESIAN_POINT('',(-20.01134989355,-5.098280116749,
    139.43536319403));
#281 = CARTESIAN_POINT('',(-20.08551717184,-4.797741923899,
    139.35589211278));
#282 = CARTESIAN_POINT('',(-20.12311711307,-4.639760880052,
    139.33866564536));
#283 = CARTESIAN_POINT('',(-20.15972586398,-4.479133426389,
    139.3465328354));
#284 = CARTESIAN_POINT('',(-20.1938284178,-4.322073487454,
    139.37961154228));
#285 = CARTESIAN_POINT('',(-20.22441460719,-4.174607330788,
    139.43556688561));
#286 = CARTESIAN_POINT('',(-20.25094641371,-4.041715780324,
    139.50969233826));
#287 = CARTESIAN_POINT('',(-20.30174568743,-3.779422442488,
    139.70367783225));
#288 = CARTESIAN_POINT('',(-20.32405866209,-3.657553219238,
    139.83305113954));
#289 = CARTESIAN_POINT('',(-20.34095371706,-3.561137835578,
    139.97625768927));
#290 = CARTESIAN_POINT('',(-20.35313629431,-3.489631009221,
    140.12851807632));
#291 = CARTESIAN_POINT('',(-20.36107221678,-3.442354799886,
    140.28616874208));
#292 = CARTESIAN_POINT('',(-20.36503355083,-3.41875832335,
    140.44628281234));
#293 = CARTESIAN_POINT('',(-20.36503355083,-3.41875832335,140.60625));
#294 = CYLINDRICAL_SURFACE('',#295,20.65);
#295 = AXIS2_PLACEMENT_3D('',#296,#297,#298);
#296 = CARTESIAN_POINT('',(0.,0.,113.60625));
#297 = DIRECTION('',(0.,0.,1.));
#298 = DIRECTION('',(1.,0.,0.));
#299 = ADVANCED_FACE('',(#300,#303,#314,#325,#336),#347,.T.);
#300 = FACE_BOUND('',#301,.T.);
#301 = EDGE_LOOP('',(#302));
#302 = ORIENTED_EDGE('',*,*,#94,.T.);
#303 = FACE_BOUND('',#304,.T.);
#304 = EDGE_LOOP('',(#305));
#305 = ORIENTED_EDGE('',*,*,#306,.F.);
#306 = EDGE_CURVE('',#307,#307,#309,.T.);
#307 = VERTEX_POINT('',#308);
#308 = CARTESIAN_POINT('',(-5.2,-11.51813787033,150.60625));
#309 = CIRCLE('',#310,1.45);
#310 = AXIS2_PLACEMENT_3D('',#311,#312,#313);
#311 = CARTESIAN_POINT('',(-6.65,-11.51813787033,150.60625));
#312 = DIRECTION('',(0.,0.,1.));
#313 = DIRECTION('',(1.,0.,0.));
#314 = FACE_BOUND('',#315,.T.);
#315 = EDGE_LOOP('',(#316));
#316 = ORIENTED_EDGE('',*,*,#317,.F.);
#317 = EDGE_CURVE('',#318,#318,#320,.T.);
#318 = VERTEX_POINT('',#319);
#319 = CARTESIAN_POINT('',(6.,-1.E-15,150.60625));
#320 = CIRCLE('',#321,6.);
#321 = AXIS2_PLACEMENT_3D('',#322,#323,#324);
#322 = CARTESIAN_POINT('',(0.,0.,150.60625));
#323 = DIRECTION('',(0.,0.,1.));
#324 = DIRECTION('',(1.,0.,0.));
#325 = FACE_BOUND('',#326,.T.);
#326 = EDGE_LOOP('',(#327));
#327 = ORIENTED_EDGE('',*,*,#328,.F.);
#328 = EDGE_CURVE('',#329,#329,#331,.T.);
#329 = VERTEX_POINT('',#330);
#330 = CARTESIAN_POINT('',(14.75,-4.E-15,150.60625));
#331 = CIRCLE('',#332,1.45);
#332 = AXIS2_PLACEMENT_3D('',#333,#334,#335);
#333 = CARTESIAN_POINT('',(13.3,-3.26E-15,150.60625));
#334 = DIRECTION('',(0.,0.,1.));
#335 = DIRECTION('',(1.,0.,0.));
#336 = FACE_BOUND('',#337,.T.);
#337 = EDGE_LOOP('',(#338));
#338 = ORIENTED_EDGE('',*,*,#339,.F.);
#339 = EDGE_CURVE('',#340,#340,#342,.T.);
#340 = VERTEX_POINT('',#341);
#341 = CARTESIAN_POINT('',(-5.2,11.518137870333,150.60625));
#342 = CIRCLE('',#343,1.45);
#343 = AXIS2_PLACEMENT_3D('',#344,#345,#346);
#344 = CARTESIAN_POINT('',(-6.65,11.518137870333,150.60625));
#345 = DIRECTION('',(0.,0.,1.));
#346 = DIRECTION('',(1.,0.,0.));
#347 = PLANE('',#348);
#348 = AXIS2_PLACEMENT_3D('',#349,#350,#351);
#349 = CARTESIAN_POINT('',(0.,0.,150.60625));
#350 = DIRECTION('',(0.,0.,1.));
#351 = DIRECTION('',(1.,0.,0.));
#352 = ADVANCED_FACE('',(#353,#356),#367,.F.);
#353 = FACE_BOUND('',#354,.F.);
#354 = EDGE_LOOP('',(#355));
#355 = ORIENTED_EDGE('',*,*,#119,.T.);
#356 = FACE_BOUND('',#357,.F.);
#357 = EDGE_LOOP('',(#358));
#358 = ORIENTED_EDGE('',*,*,#359,.F.);
#359 = EDGE_CURVE('',#360,#360,#362,.T.);
#360 = VERTEX_POINT('',#361);
#361 = CARTESIAN_POINT('',(19.64,-5.E-15,113.60625));
#362 = CIRCLE('',#363,19.64);
#363 = AXIS2_PLACEMENT_3D('',#364,#365,#366);
#364 = CARTESIAN_POINT('',(0.,0.,113.60625));
#365 = DIRECTION('',(0.,0.,1.));
#366 = DIRECTION('',(1.,0.,0.));
#367 = PLANE('',#368);
#368 = AXIS2_PLACEMENT_3D('',#369,#370,#371);
#369 = CARTESIAN_POINT('',(0.,0.,113.60625));
#370 = DIRECTION('',(0.,0.,1.));
#371 = DIRECTION('',(1.,0.,0.));
#372 = ADVANCED_FACE('',(#373),#398,.T.);
#373 = FACE_BOUND('',#374,.T.);
#374 = EDGE_LOOP('',(#375,#376,#384,#392));
#375 = ORIENTED_EDGE('',*,*,#138,.F.);
#376 = ORIENTED_EDGE('',*,*,#377,.T.);
#377 = EDGE_CURVE('',#139,#378,#380,.T.);
#378 = VERTEX_POINT('',#379);
#379 = CARTESIAN_POINT('',(3.90052913693,22.819035309407,137.60625));
#380 = LINE('',#381,#382);
#381 = CARTESIAN_POINT('',(0.,0.,137.60625));
#382 = VECTOR('',#383,1.);
#383 = DIRECTION('',(0.168489379565,0.985703469089,0.));
#384 = ORIENTED_EDGE('',*,*,#385,.T.);
#385 = EDGE_CURVE('',#378,#386,#388,.T.);
#386 = VERTEX_POINT('',#387);
#387 = CARTESIAN_POINT('',(3.90052913693,22.819035309407,140.10625));
#388 = LINE('',#389,#390);
#389 = CARTESIAN_POINT('',(3.90052913693,22.819035309407,137.60625));
#390 = VECTOR('',#391,1.);
#391 = DIRECTION('',(0.,0.,1.));
#392 = ORIENTED_EDGE('',*,*,#393,.F.);
#393 = EDGE_CURVE('',#141,#386,#394,.T.);
#394 = LINE('',#395,#396);
#395 = CARTESIAN_POINT('',(0.,0.,140.10625));
#396 = VECTOR('',#397,1.);
#397 = DIRECTION('',(0.168489379565,0.985703469089,0.));
#398 = PLANE('',#399);
#399 = AXIS2_PLACEMENT_3D('',#400,#401,#402);
#400 = CARTESIAN_POINT('',(0.,0.,137.60625));
#401 = DIRECTION('',(0.985703469089,-0.168489379565,0.));
#402 = DIRECTION('',(0.168489379565,0.985703469089,0.));
#403 = ADVANCED_FACE('',(#404),#423,.F.);
#404 = FACE_BOUND('',#405,.F.);
#405 = EDGE_LOOP('',(#406,#415,#421,#422));
#406 = ORIENTED_EDGE('',*,*,#407,.T.);
#407 = EDGE_CURVE('',#378,#408,#410,.T.);
#408 = VERTEX_POINT('',#409);
#409 = CARTESIAN_POINT('',(-4.931653442266,22.618605048176,137.60625));
#410 = CIRCLE('',#411,23.15);
#411 = AXIS2_PLACEMENT_3D('',#412,#413,#414);
#412 = CARTESIAN_POINT('',(0.,0.,137.60625));
#413 = DIRECTION('',(0.,-0.,1.));
#414 = DIRECTION('',(0.168489379565,0.985703469089,0.));
#415 = ORIENTED_EDGE('',*,*,#416,.F.);
#416 = EDGE_CURVE('',#158,#408,#417,.T.);
#417 = LINE('',#418,#419);
#418 = CARTESIAN_POINT('',(0.,0.,137.60625));
#419 = VECTOR('',#420,1.);
#420 = DIRECTION('',(-0.213030386275,0.977045574435,0.));
#421 = ORIENTED_EDGE('',*,*,#165,.F.);
#422 = ORIENTED_EDGE('',*,*,#377,.T.);
#423 = PLANE('',#424);
#424 = AXIS2_PLACEMENT_3D('',#425,#426,#427);
#425 = CARTESIAN_POINT('',(0.,0.,137.60625));
#426 = DIRECTION('',(0.,0.,1.));
#427 = DIRECTION('',(0.168489379565,0.985703469089,0.));
#428 = ADVANCED_FACE('',(#429),#448,.T.);
#429 = FACE_BOUND('',#430,.T.);
#430 = EDGE_LOOP('',(#431,#440,#446,#447));
#431 = ORIENTED_EDGE('',*,*,#432,.T.);
#432 = EDGE_CURVE('',#386,#433,#435,.T.);
#433 = VERTEX_POINT('',#434);
#434 = CARTESIAN_POINT('',(-4.931653442266,22.618605048176,140.10625));
#435 = CIRCLE('',#436,23.15);
#436 = AXIS2_PLACEMENT_3D('',#437,#438,#439);
#437 = CARTESIAN_POINT('',(0.,0.,140.10625));
#438 = DIRECTION('',(0.,-0.,1.));
#439 = DIRECTION('',(0.168489379565,0.985703469089,0.));
#440 = ORIENTED_EDGE('',*,*,#441,.F.);
#441 = EDGE_CURVE('',#149,#433,#442,.T.);
#442 = LINE('',#443,#444);
#443 = CARTESIAN_POINT('',(0.,0.,140.10625));
#444 = VECTOR('',#445,1.);
#445 = DIRECTION('',(-0.213030386275,0.977045574435,0.));
#446 = ORIENTED_EDGE('',*,*,#148,.F.);
#447 = ORIENTED_EDGE('',*,*,#393,.T.);
#448 = PLANE('',#449);
#449 = AXIS2_PLACEMENT_3D('',#450,#451,#452);
#450 = CARTESIAN_POINT('',(0.,0.,140.10625));
#451 = DIRECTION('',(0.,0.,1.));
#452 = DIRECTION('',(0.168489379565,0.985703469089,0.));
#453 = ADVANCED_FACE('',(#454),#465,.F.);
#454 = FACE_BOUND('',#455,.F.);
#455 = EDGE_LOOP('',(#456,#457,#458,#459));
#456 = ORIENTED_EDGE('',*,*,#441,.F.);
#457 = ORIENTED_EDGE('',*,*,#157,.F.);
#458 = ORIENTED_EDGE('',*,*,#416,.T.);
#459 = ORIENTED_EDGE('',*,*,#460,.T.);
#460 = EDGE_CURVE('',#408,#433,#461,.T.);
#461 = LINE('',#462,#463);
#462 = CARTESIAN_POINT('',(-4.931653442266,22.618605048176,137.60625));
#463 = VECTOR('',#464,1.);
#464 = DIRECTION('',(0.,0.,1.));
#465 = PLANE('',#466);
#466 = AXIS2_PLACEMENT_3D('',#467,#468,#469);
#467 = CARTESIAN_POINT('',(0.,0.,137.60625));
#468 = DIRECTION('',(0.977045574435,0.213030386275,0.));
#469 = DIRECTION('',(-0.213030386275,0.977045574435,0.));
#470 = ADVANCED_FACE('',(#471),#496,.T.);
#471 = FACE_BOUND('',#472,.T.);
#472 = EDGE_LOOP('',(#473,#474,#482,#490));
#473 = ORIENTED_EDGE('',*,*,#174,.F.);
#474 = ORIENTED_EDGE('',*,*,#475,.T.);
#475 = EDGE_CURVE('',#175,#476,#478,.T.);
#476 = VERTEX_POINT('',#477);
#477 = CARTESIAN_POINT('',(-21.71212883626,-8.031560333921,137.60625));
#478 = LINE('',#479,#480);
#479 = CARTESIAN_POINT('',(0.,0.,137.60625));
#480 = VECTOR('',#481,1.);
#481 = DIRECTION('',(-0.937888934612,-0.346935651573,0.));
#482 = ORIENTED_EDGE('',*,*,#483,.T.);
#483 = EDGE_CURVE('',#476,#484,#486,.T.);
#484 = VERTEX_POINT('',#485);
#485 = CARTESIAN_POINT('',(-21.71212883626,-8.031560333921,140.10625));
#486 = LINE('',#487,#488);
#487 = CARTESIAN_POINT('',(-21.71212883626,-8.031560333921,137.60625));
#488 = VECTOR('',#489,1.);
#489 = DIRECTION('',(0.,0.,1.));
#490 = ORIENTED_EDGE('',*,*,#491,.F.);
#491 = EDGE_CURVE('',#177,#484,#492,.T.);
#492 = LINE('',#493,#494);
#493 = CARTESIAN_POINT('',(0.,0.,140.10625));
#494 = VECTOR('',#495,1.);
#495 = DIRECTION('',(-0.937888934612,-0.346935651573,0.));
#496 = PLANE('',#497);
#497 = AXIS2_PLACEMENT_3D('',#498,#499,#500);
#498 = CARTESIAN_POINT('',(0.,0.,137.60625));
#499 = DIRECTION('',(-0.346935651573,0.937888934612,0.));
#500 = DIRECTION('',(-0.937888934612,-0.346935651573,0.));
#501 = ADVANCED_FACE('',(#502),#521,.F.);
#502 = FACE_BOUND('',#503,.F.);
#503 = EDGE_LOOP('',(#504,#513,#519,#520));
#504 = ORIENTED_EDGE('',*,*,#505,.T.);
#505 = EDGE_CURVE('',#476,#506,#508,.T.);
#506 = VERTEX_POINT('',#507);
#507 = CARTESIAN_POINT('',(-17.12245984875,-15.58023968775,137.60625));
#508 = CIRCLE('',#509,23.15);
#509 = AXIS2_PLACEMENT_3D('',#510,#511,#512);
#510 = CARTESIAN_POINT('',(0.,0.,137.60625));
#511 = DIRECTION('',(0.,0.,1.));
#512 = DIRECTION('',(-0.937888934612,-0.346935651573,0.));
#513 = ORIENTED_EDGE('',*,*,#514,.F.);
#514 = EDGE_CURVE('',#194,#506,#515,.T.);
#515 = LINE('',#516,#517);
#516 = CARTESIAN_POINT('',(0.,0.,137.60625));
#517 = VECTOR('',#518,1.);
#518 = DIRECTION('',(-0.739631094979,-0.67301251351,0.));
#519 = ORIENTED_EDGE('',*,*,#201,.F.);
#520 = ORIENTED_EDGE('',*,*,#475,.T.);
#521 = PLANE('',#522);
#522 = AXIS2_PLACEMENT_3D('',#523,#524,#525);
#523 = CARTESIAN_POINT('',(0.,0.,137.60625));
#524 = DIRECTION('',(0.,0.,1.));
#525 = DIRECTION('',(-0.937888934612,-0.346935651573,0.));
#526 = ADVANCED_FACE('',(#527),#546,.T.);
#527 = FACE_BOUND('',#528,.T.);
#528 = EDGE_LOOP('',(#529,#538,#544,#545));
#529 = ORIENTED_EDGE('',*,*,#530,.T.);
#530 = EDGE_CURVE('',#484,#531,#533,.T.);
#531 = VERTEX_POINT('',#532);
#532 = CARTESIAN_POINT('',(-17.12245984875,-15.58023968775,140.10625));
#533 = CIRCLE('',#534,23.15);
#534 = AXIS2_PLACEMENT_3D('',#535,#536,#537);
#535 = CARTESIAN_POINT('',(0.,0.,140.10625));
#536 = DIRECTION('',(0.,0.,1.));
#537 = DIRECTION('',(-0.937888934612,-0.346935651573,0.));
#538 = ORIENTED_EDGE('',*,*,#539,.F.);
#539 = EDGE_CURVE('',#185,#531,#540,.T.);
#540 = LINE('',#541,#542);
#541 = CARTESIAN_POINT('',(0.,0.,140.10625));
#542 = VECTOR('',#543,1.);
#543 = DIRECTION('',(-0.739631094979,-0.67301251351,0.));
#544 = ORIENTED_EDGE('',*,*,#184,.F.);
#545 = ORIENTED_EDGE('',*,*,#491,.T.);
#546 = PLANE('',#547);
#547 = AXIS2_PLACEMENT_3D('',#548,#549,#550);
#548 = CARTESIAN_POINT('',(0.,0.,140.10625));
#549 = DIRECTION('',(0.,0.,1.));
#550 = DIRECTION('',(-0.937888934612,-0.346935651573,0.));
#551 = ADVANCED_FACE('',(#552),#563,.F.);
#552 = FACE_BOUND('',#553,.F.);
#553 = EDGE_LOOP('',(#554,#555,#556,#557));
#554 = ORIENTED_EDGE('',*,*,#539,.F.);
#555 = ORIENTED_EDGE('',*,*,#193,.F.);
#556 = ORIENTED_EDGE('',*,*,#514,.T.);
#557 = ORIENTED_EDGE('',*,*,#558,.T.);
#558 = EDGE_CURVE('',#506,#531,#559,.T.);
#559 = LINE('',#560,#561);
#560 = CARTESIAN_POINT('',(-17.12245984875,-15.58023968775,137.60625));
#561 = VECTOR('',#562,1.);
#562 = DIRECTION('',(0.,0.,1.));
#563 = PLANE('',#564);
#564 = AXIS2_PLACEMENT_3D('',#565,#566,#567);
#565 = CARTESIAN_POINT('',(0.,0.,137.60625));
#566 = DIRECTION('',(-0.67301251351,0.739631094979,0.));
#567 = DIRECTION('',(-0.739631094979,-0.67301251351,0.));
#568 = ADVANCED_FACE('',(#569),#594,.T.);
#569 = FACE_BOUND('',#570,.T.);
#570 = EDGE_LOOP('',(#571,#572,#580,#588));
#571 = ORIENTED_EDGE('',*,*,#210,.F.);
#572 = ORIENTED_EDGE('',*,*,#573,.T.);
#573 = EDGE_CURVE('',#211,#574,#576,.T.);
#574 = VERTEX_POINT('',#575);
#575 = CARTESIAN_POINT('',(17.811599699336,-14.78747497548,137.60625));
#576 = LINE('',#577,#578);
#577 = CARTESIAN_POINT('',(0.,0.,137.60625));
#578 = VECTOR('',#579,1.);
#579 = DIRECTION('',(0.769399555047,-0.638767817516,0.));
#580 = ORIENTED_EDGE('',*,*,#581,.T.);
#581 = EDGE_CURVE('',#574,#582,#584,.T.);
#582 = VERTEX_POINT('',#583);
#583 = CARTESIAN_POINT('',(17.811599699336,-14.78747497548,140.10625));
#584 = LINE('',#585,#586);
#585 = CARTESIAN_POINT('',(17.811599699336,-14.78747497548,137.60625));
#586 = VECTOR('',#587,1.);
#587 = DIRECTION('',(0.,0.,1.));
#588 = ORIENTED_EDGE('',*,*,#589,.F.);
#589 = EDGE_CURVE('',#213,#582,#590,.T.);
#590 = LINE('',#591,#592);
#591 = CARTESIAN_POINT('',(0.,0.,140.10625));
#592 = VECTOR('',#593,1.);
#593 = DIRECTION('',(0.769399555047,-0.638767817516,0.));
#594 = PLANE('',#595);
#595 = AXIS2_PLACEMENT_3D('',#596,#597,#598);
#596 = CARTESIAN_POINT('',(0.,0.,137.60625));
#597 = DIRECTION('',(-0.638767817516,-0.769399555047,0.));
#598 = DIRECTION('',(0.769399555047,-0.638767817516,0.));
#599 = ADVANCED_FACE('',(#600),#619,.F.);
#600 = FACE_BOUND('',#601,.F.);
#601 = EDGE_LOOP('',(#602,#611,#617,#618));
#602 = ORIENTED_EDGE('',*,*,#603,.T.);
#603 = EDGE_CURVE('',#574,#604,#606,.T.);
#604 = VERTEX_POINT('',#605);
#605 = CARTESIAN_POINT('',(22.054113291021,-7.038365360425,137.60625));
#606 = CIRCLE('',#607,23.15);
#607 = AXIS2_PLACEMENT_3D('',#608,#609,#610);
#608 = CARTESIAN_POINT('',(0.,0.,137.60625));
#609 = DIRECTION('',(-0.,0.,1.));
#610 = DIRECTION('',(0.769399555047,-0.638767817516,0.));
#611 = ORIENTED_EDGE('',*,*,#612,.F.);
#612 = EDGE_CURVE('',#230,#604,#613,.T.);
#613 = LINE('',#614,#615);
#614 = CARTESIAN_POINT('',(0.,0.,137.60625));
#615 = VECTOR('',#616,1.);
#616 = DIRECTION('',(0.952661481254,-0.304033060925,0.));
#617 = ORIENTED_EDGE('',*,*,#237,.F.);
#618 = ORIENTED_EDGE('',*,*,#573,.T.);
#619 = PLANE('',#620);
#620 = AXIS2_PLACEMENT_3D('',#621,#622,#623);
#621 = CARTESIAN_POINT('',(0.,0.,137.60625));
#622 = DIRECTION('',(0.,0.,1.));
#623 = DIRECTION('',(0.769399555047,-0.638767817516,0.));
#624 = ADVANCED_FACE('',(#625),#644,.T.);
#625 = FACE_BOUND('',#626,.T.);
#626 = EDGE_LOOP('',(#627,#636,#642,#643));
#627 = ORIENTED_EDGE('',*,*,#628,.T.);
#628 = EDGE_CURVE('',#582,#629,#631,.T.);
#629 = VERTEX_POINT('',#630);
#630 = CARTESIAN_POINT('',(22.054113291021,-7.038365360425,140.10625));
#631 = CIRCLE('',#632,23.15);
#632 = AXIS2_PLACEMENT_3D('',#633,#634,#635);
#633 = CARTESIAN_POINT('',(0.,0.,140.10625));
#634 = DIRECTION('',(-0.,0.,1.));
#635 = DIRECTION('',(0.769399555047,-0.638767817516,0.));
#636 = ORIENTED_EDGE('',*,*,#637,.F.);
#637 = EDGE_CURVE('',#221,#629,#638,.T.);
#638 = LINE('',#639,#640);
#639 = CARTESIAN_POINT('',(0.,0.,140.10625));
#640 = VECTOR('',#641,1.);
#641 = DIRECTION('',(0.952661481254,-0.304033060925,0.));
#642 = ORIENTED_EDGE('',*,*,#220,.F.);
#643 = ORIENTED_EDGE('',*,*,#589,.T.);
#644 = PLANE('',#645);
#645 = AXIS2_PLACEMENT_3D('',#646,#647,#648);
#646 = CARTESIAN_POINT('',(0.,0.,140.10625));
#647 = DIRECTION('',(0.,0.,1.));
#648 = DIRECTION('',(0.769399555047,-0.638767817516,0.));
#649 = ADVANCED_FACE('',(#650),#661,.F.);
#650 = FACE_BOUND('',#651,.F.);
#651 = EDGE_LOOP('',(#652,#653,#654,#655));
#652 = ORIENTED_EDGE('',*,*,#637,.F.);
#653 = ORIENTED_EDGE('',*,*,#229,.F.);
#654 = ORIENTED_EDGE('',*,*,#612,.T.);
#655 = ORIENTED_EDGE('',*,*,#656,.T.);
#656 = EDGE_CURVE('',#604,#629,#657,.T.);
#657 = LINE('',#658,#659);
#658 = CARTESIAN_POINT('',(22.054113291021,-7.038365360425,137.60625));
#659 = VECTOR('',#660,1.);
#660 = DIRECTION('',(0.,0.,1.));
#661 = PLANE('',#662);
#662 = AXIS2_PLACEMENT_3D('',#663,#664,#665);
#663 = CARTESIAN_POINT('',(0.,0.,137.60625));
#664 = DIRECTION('',(-0.304033060925,-0.952661481254,0.));
#665 = DIRECTION('',(0.952661481254,-0.304033060925,0.));
#666 = ADVANCED_FACE('',(#667),#686,.F.);
#667 = FACE_BOUND('',#668,.F.);
#668 = EDGE_LOOP('',(#669,#677,#684,#685));
#669 = ORIENTED_EDGE('',*,*,#670,.T.);
#670 = EDGE_CURVE('',#247,#671,#673,.T.);
#671 = VERTEX_POINT('',#672);
#672 = CARTESIAN_POINT('',(-12.6556886407,-1.638915809186,140.60625));
#673 = LINE('',#674,#675);
#674 = CARTESIAN_POINT('',(-28.5379206967,-5.305617994991,140.60625));
#675 = VECTOR('',#676,1.);
#676 = DIRECTION('',(0.974370064785,0.224951054344,0.));
#677 = ORIENTED_EDGE('',*,*,#678,.F.);
#678 = EDGE_CURVE('',#671,#671,#679,.T.);
#679 = CIRCLE('',#680,1.25);
#680 = AXIS2_PLACEMENT_3D('',#681,#682,#683);
#681 = CARTESIAN_POINT('',(-12.37449982277,-2.856878390167,140.60625));
#682 = DIRECTION('',(0.974370064785,0.224951054344,-0.));
#683 = DIRECTION('',(-0.224951054344,0.974370064785,0.));
#684 = ORIENTED_EDGE('',*,*,#670,.F.);
#685 = ORIENTED_EDGE('',*,*,#246,.T.);
#686 = CYLINDRICAL_SURFACE('',#687,1.25);
#687 = AXIS2_PLACEMENT_3D('',#688,#689,#690);
#688 = CARTESIAN_POINT('',(-28.25673187877,-6.523580575972,140.60625));
#689 = DIRECTION('',(0.974370064785,0.224951054344,0.));
#690 = DIRECTION('',(-0.224951054344,0.974370064785,0.));
#691 = ADVANCED_FACE('',(#692),#711,.F.);
#692 = FACE_BOUND('',#693,.F.);
#693 = EDGE_LOOP('',(#694,#695,#703,#710));
#694 = ORIENTED_EDGE('',*,*,#306,.F.);
#695 = ORIENTED_EDGE('',*,*,#696,.F.);
#696 = EDGE_CURVE('',#697,#307,#699,.T.);
#697 = VERTEX_POINT('',#698);
#698 = CARTESIAN_POINT('',(-5.2,-11.51813787033,145.60625));
#699 = LINE('',#700,#701);
#700 = CARTESIAN_POINT('',(-5.2,-11.51813787033,144.60625));
#701 = VECTOR('',#702,1.);
#702 = DIRECTION('',(0.,0.,1.));
#703 = ORIENTED_EDGE('',*,*,#704,.T.);
#704 = EDGE_CURVE('',#697,#697,#705,.T.);
#705 = CIRCLE('',#706,1.45);
#706 = AXIS2_PLACEMENT_3D('',#707,#708,#709);
#707 = CARTESIAN_POINT('',(-6.65,-11.51813787033,145.60625));
#708 = DIRECTION('',(0.,0.,1.));
#709 = DIRECTION('',(1.,0.,0.));
#710 = ORIENTED_EDGE('',*,*,#696,.T.);
#711 = CYLINDRICAL_SURFACE('',#712,1.45);
#712 = AXIS2_PLACEMENT_3D('',#713,#714,#715);
#713 = CARTESIAN_POINT('',(-6.65,-11.51813787033,144.60625));
#714 = DIRECTION('',(0.,0.,1.));
#715 = DIRECTION('',(1.,0.,0.));
#716 = ADVANCED_FACE('',(#717),#736,.F.);
#717 = FACE_BOUND('',#718,.F.);
#718 = EDGE_LOOP('',(#719,#720,#728,#735));
#719 = ORIENTED_EDGE('',*,*,#317,.F.);
#720 = ORIENTED_EDGE('',*,*,#721,.F.);
#721 = EDGE_CURVE('',#722,#318,#724,.T.);
#722 = VERTEX_POINT('',#723);
#723 = CARTESIAN_POINT('',(6.,-1.E-15,145.60625));
#724 = LINE('',#725,#726);
#725 = CARTESIAN_POINT('',(6.,-1.47E-15,112.60625));
#726 = VECTOR('',#727,1.);
#727 = DIRECTION('',(0.,0.,1.));
#728 = ORIENTED_EDGE('',*,*,#729,.T.);
#729 = EDGE_CURVE('',#722,#722,#730,.T.);
#730 = CIRCLE('',#731,6.);
#731 = AXIS2_PLACEMENT_3D('',#732,#733,#734);
#732 = CARTESIAN_POINT('',(0.,0.,145.60625));
#733 = DIRECTION('',(0.,0.,1.));
#734 = DIRECTION('',(1.,0.,0.));
#735 = ORIENTED_EDGE('',*,*,#721,.T.);
#736 = CYLINDRICAL_SURFACE('',#737,6.);
#737 = AXIS2_PLACEMENT_3D('',#738,#739,#740);
#738 = CARTESIAN_POINT('',(0.,0.,112.60625));
#739 = DIRECTION('',(0.,0.,1.));
#740 = DIRECTION('',(1.,0.,0.));
#741 = ADVANCED_FACE('',(#742),#761,.F.);
#742 = FACE_BOUND('',#743,.F.);
#743 = EDGE_LOOP('',(#744,#745,#753,#760));
#744 = ORIENTED_EDGE('',*,*,#328,.F.);
#745 = ORIENTED_EDGE('',*,*,#746,.F.);
#746 = EDGE_CURVE('',#747,#329,#749,.T.);
#747 = VERTEX_POINT('',#748);
#748 = CARTESIAN_POINT('',(14.75,-4.E-15,145.60625));
#749 = LINE('',#750,#751);
#750 = CARTESIAN_POINT('',(14.75,-3.61E-15,144.60625));
#751 = VECTOR('',#752,1.);
#752 = DIRECTION('',(0.,0.,1.));
#753 = ORIENTED_EDGE('',*,*,#754,.T.);
#754 = EDGE_CURVE('',#747,#747,#755,.T.);
#755 = CIRCLE('',#756,1.45);
#756 = AXIS2_PLACEMENT_3D('',#757,#758,#759);
#757 = CARTESIAN_POINT('',(13.3,-3.26E-15,145.60625));
#758 = DIRECTION('',(0.,0.,1.));
#759 = DIRECTION('',(1.,0.,0.));
#760 = ORIENTED_EDGE('',*,*,#746,.T.);
#761 = CYLINDRICAL_SURFACE('',#762,1.45);
#762 = AXIS2_PLACEMENT_3D('',#763,#764,#765);
#763 = CARTESIAN_POINT('',(13.3,-3.26E-15,144.60625));
#764 = DIRECTION('',(0.,0.,1.));
#765 = DIRECTION('',(1.,0.,0.));
#766 = ADVANCED_FACE('',(#767),#786,.F.);
#767 = FACE_BOUND('',#768,.F.);
#768 = EDGE_LOOP('',(#769,#770,#778,#785));
#769 = ORIENTED_EDGE('',*,*,#339,.F.);
#770 = ORIENTED_EDGE('',*,*,#771,.F.);
#771 = EDGE_CURVE('',#772,#340,#774,.T.);
#772 = VERTEX_POINT('',#773);
#773 = CARTESIAN_POINT('',(-5.2,11.518137870333,145.60625));
#774 = LINE('',#775,#776);
#775 = CARTESIAN_POINT('',(-5.2,11.518137870333,144.60625));
#776 = VECTOR('',#777,1.);
#777 = DIRECTION('',(0.,0.,1.));
#778 = ORIENTED_EDGE('',*,*,#779,.T.);
#779 = EDGE_CURVE('',#772,#772,#780,.T.);
#780 = CIRCLE('',#781,1.45);
#781 = AXIS2_PLACEMENT_3D('',#782,#783,#784);
#782 = CARTESIAN_POINT('',(-6.65,11.518137870333,145.60625));
#783 = DIRECTION('',(0.,0.,1.));
#784 = DIRECTION('',(1.,0.,0.));
#785 = ORIENTED_EDGE('',*,*,#771,.T.);
#786 = CYLINDRICAL_SURFACE('',#787,1.45);
#787 = AXIS2_PLACEMENT_3D('',#788,#789,#790);
#788 = CARTESIAN_POINT('',(-6.65,11.518137870333,144.60625));
#789 = DIRECTION('',(0.,0.,1.));
#790 = DIRECTION('',(1.,0.,0.));
#791 = ADVANCED_FACE('',(#792),#811,.F.);
#792 = FACE_BOUND('',#793,.F.);
#793 = EDGE_LOOP('',(#794,#802,#809,#810));
#794 = ORIENTED_EDGE('',*,*,#795,.T.);
#795 = EDGE_CURVE('',#360,#796,#798,.T.);
#796 = VERTEX_POINT('',#797);
#797 = CARTESIAN_POINT('',(18.15,-4.E-15,115.09625));
#798 = LINE('',#799,#800);
#799 = CARTESIAN_POINT('',(19.65,-4.81E-15,113.59625));
#800 = VECTOR('',#801,1.);
#801 = DIRECTION('',(-0.707106781187,1.7E-16,0.707106781187));
#802 = ORIENTED_EDGE('',*,*,#803,.F.);
#803 = EDGE_CURVE('',#796,#796,#804,.T.);
#804 = CIRCLE('',#805,18.15);
#805 = AXIS2_PLACEMENT_3D('',#806,#807,#808);
#806 = CARTESIAN_POINT('',(0.,0.,115.09625));
#807 = DIRECTION('',(0.,0.,1.));
#808 = DIRECTION('',(1.,0.,0.));
#809 = ORIENTED_EDGE('',*,*,#795,.F.);
#810 = ORIENTED_EDGE('',*,*,#359,.T.);
#811 = CONICAL_SURFACE('',#812,19.65,0.785398163397);
#812 = AXIS2_PLACEMENT_3D('',#813,#814,#815);
#813 = CARTESIAN_POINT('',(0.,0.,113.59625));
#814 = DIRECTION('',(-0.,-0.,-1.));
#815 = DIRECTION('',(1.,0.,0.));
#816 = ADVANCED_FACE('',(#817),#823,.T.);
#817 = FACE_BOUND('',#818,.T.);
#818 = EDGE_LOOP('',(#819,#820,#821,#822));
#819 = ORIENTED_EDGE('',*,*,#432,.F.);
#820 = ORIENTED_EDGE('',*,*,#385,.F.);
#821 = ORIENTED_EDGE('',*,*,#407,.T.);
#822 = ORIENTED_EDGE('',*,*,#460,.T.);
#823 = CYLINDRICAL_SURFACE('',#824,23.15);
#824 = AXIS2_PLACEMENT_3D('',#825,#826,#827);
#825 = CARTESIAN_POINT('',(0.,0.,137.60625));
#826 = DIRECTION('',(0.,0.,1.));
#827 = DIRECTION('',(0.168489379565,0.985703469089,0.));
#828 = ADVANCED_FACE('',(#829),#835,.T.);
#829 = FACE_BOUND('',#830,.T.);
#830 = EDGE_LOOP('',(#831,#832,#833,#834));
#831 = ORIENTED_EDGE('',*,*,#530,.F.);
#832 = ORIENTED_EDGE('',*,*,#483,.F.);
#833 = ORIENTED_EDGE('',*,*,#505,.T.);
#834 = ORIENTED_EDGE('',*,*,#558,.T.);
#835 = CYLINDRICAL_SURFACE('',#836,23.15);
#836 = AXIS2_PLACEMENT_3D('',#837,#838,#839);
#837 = CARTESIAN_POINT('',(0.,0.,137.60625));
#838 = DIRECTION('',(0.,0.,1.));
#839 = DIRECTION('',(-0.937888934612,-0.346935651573,0.));
#840 = ADVANCED_FACE('',(#841),#847,.T.);
#841 = FACE_BOUND('',#842,.T.);
#842 = EDGE_LOOP('',(#843,#844,#845,#846));
#843 = ORIENTED_EDGE('',*,*,#628,.F.);
#844 = ORIENTED_EDGE('',*,*,#581,.F.);
#845 = ORIENTED_EDGE('',*,*,#603,.T.);
#846 = ORIENTED_EDGE('',*,*,#656,.T.);
#847 = CYLINDRICAL_SURFACE('',#848,23.15);
#848 = AXIS2_PLACEMENT_3D('',#849,#850,#851);
#849 = CARTESIAN_POINT('',(0.,0.,137.60625));
#850 = DIRECTION('',(0.,0.,1.));
#851 = DIRECTION('',(0.769399555047,-0.638767817516,0.));
#852 = ADVANCED_FACE('',(#853),#856,.F.);
#853 = FACE_BOUND('',#854,.F.);
#854 = EDGE_LOOP('',(#855));
#855 = ORIENTED_EDGE('',*,*,#678,.T.);
#856 = PLANE('',#857);
#857 = AXIS2_PLACEMENT_3D('',#858,#859,#860);
#858 = CARTESIAN_POINT('',(-12.37449982277,-2.856878390167,140.60625));
#859 = DIRECTION('',(0.974370064785,0.224951054344,0.));
#860 = DIRECTION('',(-0.224951054344,0.974370064785,0.));
#861 = ADVANCED_FACE('',(#862,#873,#876,#879,#882),#885,.F.);
#862 = FACE_BOUND('',#863,.F.);
#863 = EDGE_LOOP('',(#864));
#864 = ORIENTED_EDGE('',*,*,#865,.T.);
#865 = EDGE_CURVE('',#866,#866,#868,.T.);
#866 = VERTEX_POINT('',#867);
#867 = CARTESIAN_POINT('',(18.15,-4.E-15,145.60625));
#868 = CIRCLE('',#869,18.15);
#869 = AXIS2_PLACEMENT_3D('',#870,#871,#872);
#870 = CARTESIAN_POINT('',(0.,0.,145.60625));
#871 = DIRECTION('',(0.,0.,1.));
#872 = DIRECTION('',(1.,0.,0.));
#873 = FACE_BOUND('',#874,.F.);
#874 = EDGE_LOOP('',(#875));
#875 = ORIENTED_EDGE('',*,*,#704,.F.);
#876 = FACE_BOUND('',#877,.F.);
#877 = EDGE_LOOP('',(#878));
#878 = ORIENTED_EDGE('',*,*,#729,.F.);
#879 = FACE_BOUND('',#880,.F.);
#880 = EDGE_LOOP('',(#881));
#881 = ORIENTED_EDGE('',*,*,#754,.F.);
#882 = FACE_BOUND('',#883,.F.);
#883 = EDGE_LOOP('',(#884));
#884 = ORIENTED_EDGE('',*,*,#779,.F.);
#885 = PLANE('',#886);
#886 = AXIS2_PLACEMENT_3D('',#887,#888,#889);
#887 = CARTESIAN_POINT('',(0.,0.,145.60625));
#888 = DIRECTION('',(0.,0.,1.));
#889 = DIRECTION('',(1.,0.,0.));
#890 = ADVANCED_FACE('',(#891,#902),#967,.F.);
#891 = FACE_BOUND('',#892,.F.);
#892 = EDGE_LOOP('',(#893,#894,#900,#901));
#893 = ORIENTED_EDGE('',*,*,#803,.T.);
#894 = ORIENTED_EDGE('',*,*,#895,.T.);
#895 = EDGE_CURVE('',#796,#866,#896,.T.);
#896 = LINE('',#897,#898);
#897 = CARTESIAN_POINT('',(18.15,-4.45E-15,112.60625));
#898 = VECTOR('',#899,1.);
#899 = DIRECTION('',(0.,0.,1.));
#900 = ORIENTED_EDGE('',*,*,#865,.F.);
#901 = ORIENTED_EDGE('',*,*,#895,.F.);
#902 = FACE_BOUND('',#903,.F.);
#903 = EDGE_LOOP('',(#904));
#904 = ORIENTED_EDGE('',*,*,#905,.T.);
#905 = EDGE_CURVE('',#906,#906,#908,.T.);
#906 = VERTEX_POINT('',#907);
#907 = CARTESIAN_POINT('',(-18.14021396398,-0.595934007218,140.60625));
#908 = B_SPLINE_CURVE_WITH_KNOTS('',8,(#909,#910,#911,#912,#913,#914,
    #915,#916,#917,#918,#919,#920,#921,#922,#923,#924,#925,#926,#927,
    #928,#929,#930,#931,#932,#933,#934,#935,#936,#937,#938,#939,#940,
    #941,#942,#943,#944,#945,#946,#947,#948,#949,#950,#951,#952,#953,
    #954,#955,#956,#957,#958,#959,#960,#961,#962,#963,#964,#965,#966),
  .UNSPECIFIED.,.T.,.F.,(9,7,7,7,7,7,7,7,9),(0.,0.105885838456,
    0.204579643921,0.283384917463,0.370363448668,0.580287448079,
    0.755629324734,0.8611760921,1.),.UNSPECIFIED.);
#909 = CARTESIAN_POINT('',(-18.14021396398,-0.595934007218,140.60625));
#910 = CARTESIAN_POINT('',(-18.14021396398,-0.595934007218,
    140.85536849307));
#911 = CARTESIAN_POINT('',(-18.13953600792,-0.616574774032,
    141.10436731262));
#912 = CARTESIAN_POINT('',(-18.13818061783,-0.6578228977,141.35227630821
    ));
#913 = CARTESIAN_POINT('',(-18.13601215332,-0.719829312539,
    141.59808262619));
#914 = CARTESIAN_POINT('',(-18.1327575281,-0.802906685752,
    141.84066572248));
#915 = CARTESIAN_POINT('',(-18.12799477514,-0.907501687259,
    142.07871449254));
#916 = CARTESIAN_POINT('',(-18.12113146052,-1.034162140741,
    142.31062651875));
#917 = CARTESIAN_POINT('',(-18.10227725414,-1.322692631429,
    142.74295381022));
#918 = CARTESIAN_POINT('',(-18.09063564258,-1.482056841786,
    142.94514287908));
#919 = CARTESIAN_POINT('',(-18.0757908522,-1.662087290831,
    143.13889176008));
#920 = CARTESIAN_POINT('',(-18.05694002934,-1.863128191156,
    143.32180383828));
#921 = CARTESIAN_POINT('',(-18.03313451518,-2.085318767255,
    143.49111828795));
#922 = CARTESIAN_POINT('',(-18.00328799853,-2.328513423303,
    143.64365720663));
#923 = CARTESIAN_POINT('',(-17.9662273408,-2.592168243946,
    143.77574242384));
#924 = CARTESIAN_POINT('',(-17.88456372244,-3.101171430057,143.96877287)
  );
#925 = CARTESIAN_POINT('',(-17.84290318375,-3.340012873015,
    144.03888410815));
#926 = CARTESIAN_POINT('',(-17.79568797448,-3.58835353728,
    144.08998889497));
#927 = CARTESIAN_POINT('',(-17.7430308231,-3.842439501732,
    144.11978867739));
#928 = CARTESIAN_POINT('',(-17.68541719569,-4.098315238869,
    144.12708468614));
#929 = CARTESIAN_POINT('',(-17.62373429118,-4.352010302918,
    144.11177468037));
#930 = CARTESIAN_POINT('',(-17.55921981505,-4.599717579461,
    144.0748649667));
#931 = CARTESIAN_POINT('',(-17.42060756656,-5.100918152929,
    143.95628430911));
#932 = CARTESIAN_POINT('',(-17.34680415048,-5.35019622604,
    143.87087680788));
#933 = CARTESIAN_POINT('',(-17.27309989768,-5.584442520966,
    143.76512505324));
#934 = CARTESIAN_POINT('',(-17.20066192262,-5.802708864708,
    143.64177084126));
#935 = CARTESIAN_POINT('',(-17.13057818571,-6.00438308419,
    143.50348215363));
#936 = CARTESIAN_POINT('',(-17.06380397255,-6.189142072069,
    143.35287555801));
#937 = CARTESIAN_POINT('',(-17.00112150646,-6.356928540404,
    143.19252675497));
#938 = CARTESIAN_POINT('',(-16.803107549,-6.872447565967,142.62056675299
    ));
#939 = CARTESIAN_POINT('',(-16.68810505226,-7.14507583911,
    142.16776011214));
#940 = CARTESIAN_POINT('',(-16.60371923332,-7.333965629683,
    141.68802649766));
#941 = CARTESIAN_POINT('',(-16.55231241561,-7.445708882964,
    141.19357111954));
#942 = CARTESIAN_POINT('',(-16.53460754493,-7.484181414342,
    140.69323894205));
#943 = CARTESIAN_POINT('',(-16.55058055007,-7.450464884797,
    140.19403164647));
#944 = CARTESIAN_POINT('',(-16.59975489541,-7.3425273126,139.70293556734
    ));
#945 = CARTESIAN_POINT('',(-16.7481289718,-6.996572494409,138.8361897916
    ));
#946 = CARTESIAN_POINT('',(-16.83968374842,-6.778414113197,
    138.4435767918));
#947 = CARTESIAN_POINT('',(-16.95518575512,-6.493457753686,
    138.06852298707));
#948 = CARTESIAN_POINT('',(-17.09147266842,-6.138729245029,
    137.72813078681));
#949 = CARTESIAN_POINT('',(-17.24203443255,-5.714071917744,
    137.44071943767));
#950 = CARTESIAN_POINT('',(-17.3978305524,-5.223080206996,
    137.22622683378));
#951 = CARTESIAN_POINT('',(-17.5484598162,-4.673488084187,137.10625));
#952 = CARTESIAN_POINT('',(-17.76689647343,-3.72733497334,137.10625));
#953 = CARTESIAN_POINT('',(-17.83906959511,-3.377451104913,
    137.14972266109));
#954 = CARTESIAN_POINT('',(-17.90056750519,-3.039305910848,
    137.23344838022));
#955 = CARTESIAN_POINT('',(-17.95150464101,-2.718470147249,
    137.35324007436));
#956 = CARTESIAN_POINT('',(-17.99271742297,-2.419816614204,
    137.50396314312));
#957 = CARTESIAN_POINT('',(-18.02547658496,-2.147265314172,
    137.67954878612));
#958 = CARTESIAN_POINT('',(-18.05118518513,-1.903501046153,
    137.87300979965));
#959 = CARTESIAN_POINT('',(-18.09746647691,-1.408532438302,
    138.34407313329));
#960 = CARTESIAN_POINT('',(-18.11459324259,-1.171418246214,
    138.63639314806));
#961 = CARTESIAN_POINT('',(-18.12548251657,-0.976990970487,
    138.94589072971));
#962 = CARTESIAN_POINT('',(-18.13229076354,-0.823554101397,
    139.26729347922));
#963 = CARTESIAN_POINT('',(-18.13648154173,-0.709565382654,
    139.59672140002));
#964 = CARTESIAN_POINT('',(-18.13896706894,-0.633883480729,
    139.93122506075));
#965 = CARTESIAN_POINT('',(-18.14021396398,-0.595934007218,
    140.26846337968));
#966 = CARTESIAN_POINT('',(-18.14021396398,-0.595934007218,140.60625));
#967 = CYLINDRICAL_SURFACE('',#968,18.15);
#968 = AXIS2_PLACEMENT_3D('',#969,#970,#971);
#969 = CARTESIAN_POINT('',(0.,0.,112.60625));
#970 = DIRECTION('',(0.,0.,1.));
#971 = DIRECTION('',(1.,0.,0.));
#972 = ADVANCED_FACE('',(#973),#992,.T.);
#973 = FACE_BOUND('',#974,.T.);
#974 = EDGE_LOOP('',(#975,#983,#990,#991));
#975 = ORIENTED_EDGE('',*,*,#976,.T.);
#976 = EDGE_CURVE('',#906,#977,#979,.T.);
#977 = VERTEX_POINT('',#978);
#978 = CARTESIAN_POINT('',(-11.94386593199,0.834605654511,140.60625));
#979 = LINE('',#980,#981);
#980 = CARTESIAN_POINT('',(-20.12857447619,-1.054983201977,140.60625));
#981 = VECTOR('',#982,1.);
#982 = DIRECTION('',(0.974370064785,0.224951054344,0.));
#983 = ORIENTED_EDGE('',*,*,#984,.F.);
#984 = EDGE_CURVE('',#977,#977,#985,.T.);
#985 = CIRCLE('',#986,3.5);
#986 = AXIS2_PLACEMENT_3D('',#987,#988,#989);
#987 = CARTESIAN_POINT('',(-11.15653724179,-2.575689572237,140.60625));
#988 = DIRECTION('',(0.974370064785,0.224951054344,-0.));
#989 = DIRECTION('',(-0.224951054344,0.974370064785,0.));
#990 = ORIENTED_EDGE('',*,*,#976,.F.);
#991 = ORIENTED_EDGE('',*,*,#905,.T.);
#992 = CYLINDRICAL_SURFACE('',#993,3.5);
#993 = AXIS2_PLACEMENT_3D('',#994,#995,#996);
#994 = CARTESIAN_POINT('',(-19.34124578598,-4.465278428726,140.60625));
#995 = DIRECTION('',(0.974370064785,0.224951054344,0.));
#996 = DIRECTION('',(-0.224951054344,0.974370064785,0.));
#997 = ADVANCED_FACE('',(#998),#1001,.T.);
#998 = FACE_BOUND('',#999,.T.);
#999 = EDGE_LOOP('',(#1000));
#1000 = ORIENTED_EDGE('',*,*,#984,.T.);
#1001 = PLANE('',#1002);
#1002 = AXIS2_PLACEMENT_3D('',#1003,#1004,#1005);
#1003 = CARTESIAN_POINT('',(-11.15653724179,-2.575689572237,140.60625));
#1004 = DIRECTION('',(0.974370064785,0.224951054344,0.));
#1005 = DIRECTION('',(-0.224951054344,0.974370064785,0.));
#1006 = ( GEOMETRIC_REPRESENTATION_CONTEXT(3) 
GLOBAL_UNCERTAINTY_ASSIGNED_CONTEXT((#1010)) 
GLOBAL_UNIT_ASSIGNED_CONTEXT((#1007,#1008,#1009)) REPRESENTATION_CONTEXT
('Context #1','3D Context with UNIT and UNCERTAINTY') );
#1007 = ( LENGTH_UNIT() NAMED_UNIT(*) SI_UNIT(.MILLI.,.METRE.) );
#1008 = ( NAMED_UNIT(*) PLANE_ANGLE_UNIT() SI_UNIT($,.RADIAN.) );
#1009 = ( NAMED_UNIT(*) SI_UNIT($,.STERADIAN.) SOLID_ANGLE_UNIT() );
#1010 = UNCERTAINTY_MEASURE_WITH_UNIT(LENGTH_MEASURE(1.E-07),#1007,
  'distance_accuracy_value','confusion accuracy');
#1011 = PRODUCT_RELATED_PRODUCT_CATEGORY('part',$,(#7));
ENDSEC;
END-ISO-10303-21;
