ISO-10303-21;
HEADER;
FILE_DESCRIPTION(('FreeCAD Model'),'2;1');
FILE_NAME('Open CASCADE Shape Model','2026-09-19T17:18:18',('FreeCAD'),(
    'FreeCAD'),'Open CASCADE STEP processor 7.8','FreeCAD','Unknown');
FILE_SCHEMA(('AUTOMOTIVE_DESIGN { 1 0 10303 214 1 1 1 1 }'));
ENDSEC;
DATA;
#1 = APPLICATION_PROTOCOL_DEFINITION('international standard',
  'automotive_design',2000,#2);
#2 = APPLICATION_CONTEXT(
  'core data for automotive mechanical design processes');
#3 = SHAPE_DEFINITION_REPRESENTATION(#4,#10);
#4 = PRODUCT_DEFINITION_SHAPE('','',#5);
#5 = PRODUCT_DEFINITION('design','',#6,#9);
#6 = PRODUCT_DEFINITION_FORMATION('','',#7);
#7 = PRODUCT('Open CASCADE STEP translator 7.8 3',
  'Open CASCADE STEP translator 7.8 3','',(#8));
#8 = PRODUCT_CONTEXT('',#2,'mechanical');
#9 = PRODUCT_DEFINITION_CONTEXT('part definition',#2,'design');
#10 = ADVANCED_BREP_SHAPE_REPRESENTATION('',(#11,#15),#1552);
#11 = AXIS2_PLACEMENT_3D('',#12,#13,#14);
#12 = CARTESIAN_POINT('',(0.,0.,0.));
#13 = DIRECTION('',(0.,0.,1.));
#14 = DIRECTION('',(1.,0.,-0.));
#15 = MANIFOLD_SOLID_BREP('',#16);
#16 = CLOSED_SHELL('',(#17,#124,#207,#297,#373,#449,#533,#624,#693,#711,
    #780,#834,#917,#929,#949,#966,#1035,#1047,#1067,#1084,#1128,#1148,
    #1168,#1185,#1210,#1235,#1260,#1313,#1391,#1470,#1488,#1504,#1520,
    #1536));
#17 = ADVANCED_FACE('',(#18),#119,.T.);
#18 = FACE_BOUND('',#19,.T.);
#19 = EDGE_LOOP('',(#20,#31,#40,#49,#58,#67,#76,#85,#94,#103,#112));
#20 = ORIENTED_EDGE('',*,*,#21,.F.);
#21 = EDGE_CURVE('',#22,#24,#26,.T.);
#22 = VERTEX_POINT('',#23);
#23 = CARTESIAN_POINT('',(-21.854359824,-14.98789367065,4.));
#24 = VERTEX_POINT('',#25);
#25 = CARTESIAN_POINT('',(-19.8,-12.,4.));
#26 = CIRCLE('',#27,3.2);
#27 = AXIS2_PLACEMENT_3D('',#28,#29,#30);
#28 = CARTESIAN_POINT('',(-23.,-12.,4.));
#29 = DIRECTION('',(0.,0.,1.));
#30 = DIRECTION('',(1.,0.,0.));
#31 = ORIENTED_EDGE('',*,*,#32,.T.);
#32 = EDGE_CURVE('',#22,#33,#35,.T.);
#33 = VERTEX_POINT('',#34);
#34 = CARTESIAN_POINT('',(21.854359824005,-14.98789367065,4.));
#35 = CIRCLE('',#36,26.5);
#36 = AXIS2_PLACEMENT_3D('',#37,#38,#39);
#37 = CARTESIAN_POINT('',(0.,0.,4.));
#38 = DIRECTION('',(0.,0.,1.));
#39 = DIRECTION('',(1.,0.,0.));
#40 = ORIENTED_EDGE('',*,*,#41,.F.);
#41 = EDGE_CURVE('',#42,#33,#44,.T.);
#42 = VERTEX_POINT('',#43);
#43 = CARTESIAN_POINT('',(24.795313281492,-9.351066210473,4.));
#44 = CIRCLE('',#45,3.2);
#45 = AXIS2_PLACEMENT_3D('',#46,#47,#48);
#46 = CARTESIAN_POINT('',(23.,-12.,4.));
#47 = DIRECTION('',(0.,0.,1.));
#48 = DIRECTION('',(1.,0.,0.));
#49 = ORIENTED_EDGE('',*,*,#50,.T.);
#50 = EDGE_CURVE('',#42,#51,#53,.T.);
#51 = VERTEX_POINT('',#52);
#52 = CARTESIAN_POINT('',(26.5,-6.490628035481E-15,4.));
#53 = CIRCLE('',#54,26.5);
#54 = AXIS2_PLACEMENT_3D('',#55,#56,#57);
#55 = CARTESIAN_POINT('',(0.,0.,4.));
#56 = DIRECTION('',(0.,0.,1.));
#57 = DIRECTION('',(1.,0.,0.));
#58 = ORIENTED_EDGE('',*,*,#59,.T.);
#59 = EDGE_CURVE('',#51,#60,#62,.T.);
#60 = VERTEX_POINT('',#61);
#61 = CARTESIAN_POINT('',(24.795313281492,9.351066210473,4.));
#62 = CIRCLE('',#63,26.5);
#63 = AXIS2_PLACEMENT_3D('',#64,#65,#66);
#64 = CARTESIAN_POINT('',(0.,0.,4.));
#65 = DIRECTION('',(0.,0.,1.));
#66 = DIRECTION('',(1.,0.,0.));
#67 = ORIENTED_EDGE('',*,*,#68,.F.);
#68 = EDGE_CURVE('',#69,#60,#71,.T.);
#69 = VERTEX_POINT('',#70);
#70 = CARTESIAN_POINT('',(21.854359824005,14.987893670656,4.));
#71 = CIRCLE('',#72,3.2);
#72 = AXIS2_PLACEMENT_3D('',#73,#74,#75);
#73 = CARTESIAN_POINT('',(23.,12.,4.));
#74 = DIRECTION('',(0.,0.,1.));
#75 = DIRECTION('',(1.,0.,0.));
#76 = ORIENTED_EDGE('',*,*,#77,.T.);
#77 = EDGE_CURVE('',#69,#78,#80,.T.);
#78 = VERTEX_POINT('',#79);
#79 = CARTESIAN_POINT('',(-21.854359824,14.987893670656,4.));
#80 = CIRCLE('',#81,26.5);
#81 = AXIS2_PLACEMENT_3D('',#82,#83,#84);
#82 = CARTESIAN_POINT('',(0.,0.,4.));
#83 = DIRECTION('',(0.,0.,1.));
#84 = DIRECTION('',(1.,0.,0.));
#85 = ORIENTED_EDGE('',*,*,#86,.F.);
#86 = EDGE_CURVE('',#87,#78,#89,.T.);
#87 = VERTEX_POINT('',#88);
#88 = CARTESIAN_POINT('',(-19.8,12.,4.));
#89 = CIRCLE('',#90,3.2);
#90 = AXIS2_PLACEMENT_3D('',#91,#92,#93);
#91 = CARTESIAN_POINT('',(-23.,12.,4.));
#92 = DIRECTION('',(0.,0.,1.));
#93 = DIRECTION('',(1.,0.,0.));
#94 = ORIENTED_EDGE('',*,*,#95,.F.);
#95 = EDGE_CURVE('',#96,#87,#98,.T.);
#96 = VERTEX_POINT('',#97);
#97 = CARTESIAN_POINT('',(-24.79531328149,9.351066210473,4.));
#98 = CIRCLE('',#99,3.2);
#99 = AXIS2_PLACEMENT_3D('',#100,#101,#102);
#100 = CARTESIAN_POINT('',(-23.,12.,4.));
#101 = DIRECTION('',(0.,0.,1.));
#102 = DIRECTION('',(1.,0.,0.));
#103 = ORIENTED_EDGE('',*,*,#104,.T.);
#104 = EDGE_CURVE('',#96,#105,#107,.T.);
#105 = VERTEX_POINT('',#106);
#106 = CARTESIAN_POINT('',(-24.79531328149,-9.351066210473,4.));
#107 = CIRCLE('',#108,26.5);
#108 = AXIS2_PLACEMENT_3D('',#109,#110,#111);
#109 = CARTESIAN_POINT('',(0.,0.,4.));
#110 = DIRECTION('',(0.,0.,1.));
#111 = DIRECTION('',(1.,0.,0.));
#112 = ORIENTED_EDGE('',*,*,#113,.F.);
#113 = EDGE_CURVE('',#24,#105,#114,.T.);
#114 = CIRCLE('',#115,3.2);
#115 = AXIS2_PLACEMENT_3D('',#116,#117,#118);
#116 = CARTESIAN_POINT('',(-23.,-12.,4.));
#117 = DIRECTION('',(0.,0.,1.));
#118 = DIRECTION('',(1.,0.,0.));
#119 = PLANE('',#120);
#120 = AXIS2_PLACEMENT_3D('',#121,#122,#123);
#121 = CARTESIAN_POINT('',(0.,0.,4.));
#122 = DIRECTION('',(0.,0.,1.));
#123 = DIRECTION('',(1.,0.,0.));
#124 = ADVANCED_FACE('',(#125),#202,.T.);
#125 = FACE_BOUND('',#126,.T.);
#126 = EDGE_LOOP('',(#127,#135,#142,#143,#144,#152,#161,#169,#178,#186,
    #195,#201));
#127 = ORIENTED_EDGE('',*,*,#128,.T.);
#128 = EDGE_CURVE('',#24,#129,#131,.T.);
#129 = VERTEX_POINT('',#130);
#130 = CARTESIAN_POINT('',(-19.8,-12.,21.8));
#131 = LINE('',#132,#133);
#132 = CARTESIAN_POINT('',(-19.8,-12.,3.));
#133 = VECTOR('',#134,1.);
#134 = DIRECTION('',(0.,0.,1.));
#135 = ORIENTED_EDGE('',*,*,#136,.F.);
#136 = EDGE_CURVE('',#129,#129,#137,.T.);
#137 = CIRCLE('',#138,3.2);
#138 = AXIS2_PLACEMENT_3D('',#139,#140,#141);
#139 = CARTESIAN_POINT('',(-23.,-12.,21.8));
#140 = DIRECTION('',(0.,0.,1.));
#141 = DIRECTION('',(1.,0.,0.));
#142 = ORIENTED_EDGE('',*,*,#128,.F.);
#143 = ORIENTED_EDGE('',*,*,#113,.T.);
#144 = ORIENTED_EDGE('',*,*,#145,.T.);
#145 = EDGE_CURVE('',#105,#146,#148,.T.);
#146 = VERTEX_POINT('',#147);
#147 = CARTESIAN_POINT('',(-24.79531328149,-9.351066210473,18.));
#148 = LINE('',#149,#150);
#149 = CARTESIAN_POINT('',(-24.79531328149,-9.351066210473,9.5));
#150 = VECTOR('',#151,1.);
#151 = DIRECTION('',(0.,0.,1.));
#152 = ORIENTED_EDGE('',*,*,#153,.T.);
#153 = EDGE_CURVE('',#146,#154,#156,.T.);
#154 = VERTEX_POINT('',#155);
#155 = CARTESIAN_POINT('',(-26.19899051022,-12.0803723554,18.));
#156 = CIRCLE('',#157,3.2);
#157 = AXIS2_PLACEMENT_3D('',#158,#159,#160);
#158 = CARTESIAN_POINT('',(-23.,-12.,18.));
#159 = DIRECTION('',(0.,0.,1.));
#160 = DIRECTION('',(1.,0.,0.));
#161 = ORIENTED_EDGE('',*,*,#162,.F.);
#162 = EDGE_CURVE('',#163,#154,#165,.T.);
#163 = VERTEX_POINT('',#164);
#164 = CARTESIAN_POINT('',(-26.19899051022,-12.0803723554,11.6));
#165 = LINE('',#166,#167);
#166 = CARTESIAN_POINT('',(-26.19899051022,-12.0803723554,10.5));
#167 = VECTOR('',#168,1.);
#168 = DIRECTION('',(0.,0.,1.));
#169 = ORIENTED_EDGE('',*,*,#170,.T.);
#170 = EDGE_CURVE('',#163,#171,#173,.T.);
#171 = VERTEX_POINT('',#172);
#172 = CARTESIAN_POINT('',(-24.89595376912,-14.57785944251,11.6));
#173 = CIRCLE('',#174,3.2);
#174 = AXIS2_PLACEMENT_3D('',#175,#176,#177);
#175 = CARTESIAN_POINT('',(-23.,-12.,11.6));
#176 = DIRECTION('',(0.,0.,1.));
#177 = DIRECTION('',(1.,0.,0.));
#178 = ORIENTED_EDGE('',*,*,#179,.T.);
#179 = EDGE_CURVE('',#171,#180,#182,.T.);
#180 = VERTEX_POINT('',#181);
#181 = CARTESIAN_POINT('',(-24.89595376912,-14.57785944251,18.));
#182 = LINE('',#183,#184);
#183 = CARTESIAN_POINT('',(-24.89595376912,-14.57785944251,10.5));
#184 = VECTOR('',#185,1.);
#185 = DIRECTION('',(0.,0.,1.));
#186 = ORIENTED_EDGE('',*,*,#187,.T.);
#187 = EDGE_CURVE('',#180,#188,#190,.T.);
#188 = VERTEX_POINT('',#189);
#189 = CARTESIAN_POINT('',(-21.854359824,-14.98789367065,18.));
#190 = CIRCLE('',#191,3.2);
#191 = AXIS2_PLACEMENT_3D('',#192,#193,#194);
#192 = CARTESIAN_POINT('',(-23.,-12.,18.));
#193 = DIRECTION('',(0.,0.,1.));
#194 = DIRECTION('',(1.,0.,0.));
#195 = ORIENTED_EDGE('',*,*,#196,.F.);
#196 = EDGE_CURVE('',#22,#188,#197,.T.);
#197 = LINE('',#198,#199);
#198 = CARTESIAN_POINT('',(-21.854359824,-14.98789367065,9.5));
#199 = VECTOR('',#200,1.);
#200 = DIRECTION('',(0.,0.,1.));
#201 = ORIENTED_EDGE('',*,*,#21,.T.);
#202 = CYLINDRICAL_SURFACE('',#203,3.2);
#203 = AXIS2_PLACEMENT_3D('',#204,#205,#206);
#204 = CARTESIAN_POINT('',(-23.,-12.,3.));
#205 = DIRECTION('',(0.,0.,1.));
#206 = DIRECTION('',(1.,0.,0.));
#207 = ADVANCED_FACE('',(#208,#227),#292,.F.);
#208 = FACE_BOUND('',#209,.F.);
#209 = EDGE_LOOP('',(#210,#218,#219,#220));
#210 = ORIENTED_EDGE('',*,*,#211,.F.);
#211 = EDGE_CURVE('',#96,#212,#214,.T.);
#212 = VERTEX_POINT('',#213);
#213 = CARTESIAN_POINT('',(-24.79531328149,9.351066210473,18.));
#214 = LINE('',#215,#216);
#215 = CARTESIAN_POINT('',(-24.79531328149,9.351066210473,9.5));
#216 = VECTOR('',#217,1.);
#217 = DIRECTION('',(0.,0.,1.));
#218 = ORIENTED_EDGE('',*,*,#104,.T.);
#219 = ORIENTED_EDGE('',*,*,#145,.T.);
#220 = ORIENTED_EDGE('',*,*,#221,.F.);
#221 = EDGE_CURVE('',#212,#146,#222,.T.);
#222 = CIRCLE('',#223,26.5);
#223 = AXIS2_PLACEMENT_3D('',#224,#225,#226);
#224 = CARTESIAN_POINT('',(0.,0.,18.));
#225 = DIRECTION('',(0.,0.,1.));
#226 = DIRECTION('',(1.,0.,0.));
#227 = FACE_BOUND('',#228,.F.);
#228 = EDGE_LOOP('',(#229));
#229 = ORIENTED_EDGE('',*,*,#230,.F.);
#230 = EDGE_CURVE('',#231,#231,#233,.T.);
#231 = VERTEX_POINT('',#232);
#232 = CARTESIAN_POINT('',(-26.4454154817,-1.7,15.));
#233 = B_SPLINE_CURVE_WITH_KNOTS('',8,(#234,#235,#236,#237,#238,#239,
    #240,#241,#242,#243,#244,#245,#246,#247,#248,#249,#250,#251,#252,
    #253,#254,#255,#256,#257,#258,#259,#260,#261,#262,#263,#264,#265,
    #266,#267,#268,#269,#270,#271,#272,#273,#274,#275,#276,#277,#278,
    #279,#280,#281,#282,#283,#284,#285,#286,#287,#288,#289,#290,#291),
  .UNSPECIFIED.,.T.,.F.,(9,7,7,7,7,7,7,7,9),(0.,0.119782900824,
    0.213587888463,0.33179682231,0.435751699368,0.587287537929,
    0.713684948075,0.832728343158,1.),.UNSPECIFIED.);
#234 = CARTESIAN_POINT('',(-26.4454154817,-1.7,15.));
#235 = CARTESIAN_POINT('',(-26.4454154817,-1.7,15.142265900769));
#236 = CARTESIAN_POINT('',(-26.44629013363,-1.686393726462,
    15.284468882545));
#237 = CARTESIAN_POINT('',(-26.44803817974,-1.659201203545,
    15.425816764948));
#238 = CARTESIAN_POINT('',(-26.45063058048,-1.618260667779,
    15.565457128145));
#239 = CARTESIAN_POINT('',(-26.45400827137,-1.563272065379,
    15.702405522838));
#240 = CARTESIAN_POINT('',(-26.45807305662,-1.493838778012,
    15.835471745166));
#241 = CARTESIAN_POINT('',(-26.46267594816,-1.409515790345,
    15.963172750809));
#242 = CARTESIAN_POINT('',(-26.47146909139,-1.231839368074,
    16.177946650898));
#243 = CARTESIAN_POINT('',(-26.47555507245,-1.14395097928,
    16.268379295506));
#244 = CARTESIAN_POINT('',(-26.47974932015,-1.046198920299,
    16.353447304772));
#245 = CARTESIAN_POINT('',(-26.48390562105,-0.938768543078,
    16.431676981245));
#246 = CARTESIAN_POINT('',(-26.48785347767,-0.822035993516,
    16.501592370255));
#247 = CARTESIAN_POINT('',(-26.49140855776,-0.696571898634,
    16.561712837295));
#248 = CARTESIAN_POINT('',(-26.49438754513,-0.56315172497,
    16.610548194171));
#249 = CARTESIAN_POINT('',(-26.49944994893,-0.245873450205,
    16.692011409224));
#250 = CARTESIAN_POINT('',(-26.5010533128,-6.075073914449E-02,
    16.716391452552));
#251 = CARTESIAN_POINT('',(-26.50114648411,0.127969089735,
    16.717329056823));
#252 = CARTESIAN_POINT('',(-26.49960663283,0.31516617881,16.694171717377
    ));
#253 = CARTESIAN_POINT('',(-26.49658091045,0.495717898354,
    16.647961594465));
#254 = CARTESIAN_POINT('',(-26.49244674919,0.66495343829,16.581392874749
    ));
#255 = CARTESIAN_POINT('',(-26.48769082353,0.819074161951,
    16.498780248135));
#256 = CARTESIAN_POINT('',(-26.47843662496,1.075553572937,
    16.324477020421));
#257 = CARTESIAN_POINT('',(-26.47390007175,1.184031444834,
    16.233641795096));
#258 = CARTESIAN_POINT('',(-26.46936687943,1.280971907393,
    16.135318609485));
#259 = CARTESIAN_POINT('',(-26.46501196229,1.36651605615,16.03099316907)
  );
#260 = CARTESIAN_POINT('',(-26.46097467008,1.440887417402,
    15.921909930995));
#261 = CARTESIAN_POINT('',(-26.45736058515,1.504342876738,
    15.809119878162));
#262 = CARTESIAN_POINT('',(-26.45424590561,1.557136651505,
    15.693515712074));
#263 = CARTESIAN_POINT('',(-26.44795050882,1.66124676687,15.404338742075
    ));
#264 = CARTESIAN_POINT('',(-26.4453892296,1.700869756364,15.22833375211)
  );
#265 = CARTESIAN_POINT('',(-26.4441622247,1.719119363835,15.049873930878
    ));
#266 = CARTESIAN_POINT('',(-26.44434192693,1.716327128805,
    14.870629315638));
#267 = CARTESIAN_POINT('',(-26.44593420928,1.692460042467,
    14.692187710453));
#268 = CARTESIAN_POINT('',(-26.44887642827,1.647173522983,
    14.516278079853));
#269 = CARTESIAN_POINT('',(-26.45301839978,1.579863576686,
    14.344986844615));
#270 = CARTESIAN_POINT('',(-26.46232733248,1.414532916572,
    14.044251490297));
#271 = CARTESIAN_POINT('',(-26.46724904076,1.322770032277,
    13.911326513435));
#272 = CARTESIAN_POINT('',(-26.47269957635,1.21391270633,13.784820101128
    ));
#273 = CARTESIAN_POINT('',(-26.47843055346,1.087810805206,
    13.667506140111));
#274 = CARTESIAN_POINT('',(-26.48410722511,0.944698382819,
    13.562359362389));
#275 = CARTESIAN_POINT('',(-26.4893217254,0.785235410371,13.47257744228)
  );
#276 = CARTESIAN_POINT('',(-26.49363023713,0.610614824735,
    13.401638258576));
#277 = CARTESIAN_POINT('',(-26.4994501674,0.245859757792,13.307985075162
    ));
#278 = CARTESIAN_POINT('',(-26.50105370303,6.07148966652E-02,
    13.283602980466));
#279 = CARTESIAN_POINT('',(-26.50114635953,-0.128017396079,
    13.28267280141));
#280 = CARTESIAN_POINT('',(-26.49960582706,-0.315207420439,
    13.305839971543));
#281 = CARTESIAN_POINT('',(-26.49658013789,-0.495734598714,
    13.352051139902));
#282 = CARTESIAN_POINT('',(-26.49244689294,-0.664941449073,
    13.418606915092));
#283 = CARTESIAN_POINT('',(-26.48769170352,-0.819049773277,
    13.501203177339));
#284 = CARTESIAN_POINT('',(-26.47584677944,-1.147330944901,
    13.724302831195));
#285 = CARTESIAN_POINT('',(-26.4684099536,-1.309389880017,
    13.878144263905));
#286 = CARTESIAN_POINT('',(-26.46130653072,-1.442019668013,
    14.048188541167));
#287 = CARTESIAN_POINT('',(-26.45515683699,-1.546315945385,
    14.229309913415));
#288 = CARTESIAN_POINT('',(-26.45033529932,-1.623463696348,
    14.417674031081));
#289 = CARTESIAN_POINT('',(-26.44705602214,-1.674480155515,
    14.610379601439));
#290 = CARTESIAN_POINT('',(-26.4454154817,-1.7,14.805165130261));
#291 = CARTESIAN_POINT('',(-26.4454154817,-1.7,15.));
#292 = CYLINDRICAL_SURFACE('',#293,26.5);
#293 = AXIS2_PLACEMENT_3D('',#294,#295,#296);
#294 = CARTESIAN_POINT('',(0.,0.,9.5));
#295 = DIRECTION('',(0.,0.,1.));
#296 = DIRECTION('',(1.,0.,0.));
#297 = ADVANCED_FACE('',(#298),#368,.T.);
#298 = FACE_BOUND('',#299,.T.);
#299 = EDGE_LOOP('',(#300,#308,#315,#316,#317,#325,#334,#342,#351,#359,
    #366,#367));
#300 = ORIENTED_EDGE('',*,*,#301,.T.);
#301 = EDGE_CURVE('',#87,#302,#304,.T.);
#302 = VERTEX_POINT('',#303);
#303 = CARTESIAN_POINT('',(-19.8,12.,21.8));
#304 = LINE('',#305,#306);
#305 = CARTESIAN_POINT('',(-19.8,12.,3.));
#306 = VECTOR('',#307,1.);
#307 = DIRECTION('',(0.,0.,1.));
#308 = ORIENTED_EDGE('',*,*,#309,.F.);
#309 = EDGE_CURVE('',#302,#302,#310,.T.);
#310 = CIRCLE('',#311,3.2);
#311 = AXIS2_PLACEMENT_3D('',#312,#313,#314);
#312 = CARTESIAN_POINT('',(-23.,12.,21.8));
#313 = DIRECTION('',(0.,0.,1.));
#314 = DIRECTION('',(1.,0.,0.));
#315 = ORIENTED_EDGE('',*,*,#301,.F.);
#316 = ORIENTED_EDGE('',*,*,#86,.T.);
#317 = ORIENTED_EDGE('',*,*,#318,.T.);
#318 = EDGE_CURVE('',#78,#319,#321,.T.);
#319 = VERTEX_POINT('',#320);
#320 = CARTESIAN_POINT('',(-21.854359824,14.987893670656,18.));
#321 = LINE('',#322,#323);
#322 = CARTESIAN_POINT('',(-21.854359824,14.987893670656,9.5));
#323 = VECTOR('',#324,1.);
#324 = DIRECTION('',(0.,0.,1.));
#325 = ORIENTED_EDGE('',*,*,#326,.T.);
#326 = EDGE_CURVE('',#319,#327,#329,.T.);
#327 = VERTEX_POINT('',#328);
#328 = CARTESIAN_POINT('',(-24.89595376912,14.577859442511,18.));
#329 = CIRCLE('',#330,3.2);
#330 = AXIS2_PLACEMENT_3D('',#331,#332,#333);
#331 = CARTESIAN_POINT('',(-23.,12.,18.));
#332 = DIRECTION('',(0.,0.,1.));
#333 = DIRECTION('',(1.,0.,0.));
#334 = ORIENTED_EDGE('',*,*,#335,.F.);
#335 = EDGE_CURVE('',#336,#327,#338,.T.);
#336 = VERTEX_POINT('',#337);
#337 = CARTESIAN_POINT('',(-24.89595376912,14.577859442511,11.6));
#338 = LINE('',#339,#340);
#339 = CARTESIAN_POINT('',(-24.89595376912,14.577859442511,10.5));
#340 = VECTOR('',#341,1.);
#341 = DIRECTION('',(0.,0.,1.));
#342 = ORIENTED_EDGE('',*,*,#343,.T.);
#343 = EDGE_CURVE('',#336,#344,#346,.T.);
#344 = VERTEX_POINT('',#345);
#345 = CARTESIAN_POINT('',(-26.19899051022,12.080372355409,11.6));
#346 = CIRCLE('',#347,3.2);
#347 = AXIS2_PLACEMENT_3D('',#348,#349,#350);
#348 = CARTESIAN_POINT('',(-23.,12.,11.6));
#349 = DIRECTION('',(0.,0.,1.));
#350 = DIRECTION('',(1.,0.,0.));
#351 = ORIENTED_EDGE('',*,*,#352,.T.);
#352 = EDGE_CURVE('',#344,#353,#355,.T.);
#353 = VERTEX_POINT('',#354);
#354 = CARTESIAN_POINT('',(-26.19899051022,12.080372355409,18.));
#355 = LINE('',#356,#357);
#356 = CARTESIAN_POINT('',(-26.19899051022,12.080372355409,10.5));
#357 = VECTOR('',#358,1.);
#358 = DIRECTION('',(0.,0.,1.));
#359 = ORIENTED_EDGE('',*,*,#360,.T.);
#360 = EDGE_CURVE('',#353,#212,#361,.T.);
#361 = CIRCLE('',#362,3.2);
#362 = AXIS2_PLACEMENT_3D('',#363,#364,#365);
#363 = CARTESIAN_POINT('',(-23.,12.,18.));
#364 = DIRECTION('',(0.,0.,1.));
#365 = DIRECTION('',(1.,0.,0.));
#366 = ORIENTED_EDGE('',*,*,#211,.F.);
#367 = ORIENTED_EDGE('',*,*,#95,.T.);
#368 = CYLINDRICAL_SURFACE('',#369,3.2);
#369 = AXIS2_PLACEMENT_3D('',#370,#371,#372);
#370 = CARTESIAN_POINT('',(-23.,12.,3.));
#371 = DIRECTION('',(0.,0.,1.));
#372 = DIRECTION('',(1.,0.,0.));
#373 = ADVANCED_FACE('',(#374,#393),#444,.F.);
#374 = FACE_BOUND('',#375,.F.);
#375 = EDGE_LOOP('',(#376,#384,#385,#386));
#376 = ORIENTED_EDGE('',*,*,#377,.F.);
#377 = EDGE_CURVE('',#69,#378,#380,.T.);
#378 = VERTEX_POINT('',#379);
#379 = CARTESIAN_POINT('',(21.854359824005,14.987893670656,18.));
#380 = LINE('',#381,#382);
#381 = CARTESIAN_POINT('',(21.854359824005,14.987893670656,9.5));
#382 = VECTOR('',#383,1.);
#383 = DIRECTION('',(0.,0.,1.));
#384 = ORIENTED_EDGE('',*,*,#77,.T.);
#385 = ORIENTED_EDGE('',*,*,#318,.T.);
#386 = ORIENTED_EDGE('',*,*,#387,.F.);
#387 = EDGE_CURVE('',#378,#319,#388,.T.);
#388 = CIRCLE('',#389,26.5);
#389 = AXIS2_PLACEMENT_3D('',#390,#391,#392);
#390 = CARTESIAN_POINT('',(0.,0.,18.));
#391 = DIRECTION('',(0.,0.,1.));
#392 = DIRECTION('',(1.,0.,0.));
#393 = FACE_BOUND('',#394,.F.);
#394 = EDGE_LOOP('',(#395));
#395 = ORIENTED_EDGE('',*,*,#396,.F.);
#396 = EDGE_CURVE('',#397,#397,#399,.T.);
#397 = VERTEX_POINT('',#398);
#398 = CARTESIAN_POINT('',(1.7,26.445415481705,15.));
#399 = B_SPLINE_CURVE_WITH_KNOTS('',7,(#400,#401,#402,#403,#404,#405,
    #406,#407,#408,#409,#410,#411,#412,#413,#414,#415,#416,#417,#418,
    #419,#420,#421,#422,#423,#424,#425,#426,#427,#428,#429,#430,#431,
    #432,#433,#434,#435,#436,#437,#438,#439,#440,#441,#442,#443),
  .UNSPECIFIED.,.T.,.F.,(8,6,6,6,6,6,6,8),(0.,0.152738533048,
    0.285736099115,0.421939566741,0.588697615627,0.714475723789,
    0.837888273507,1.),.UNSPECIFIED.);
#400 = CARTESIAN_POINT('',(1.7,26.445415481705,15.));
#401 = CARTESIAN_POINT('',(1.7,26.445415481705,14.796810989526));
#402 = CARTESIAN_POINT('',(1.67166785411,26.447236674607,14.593717653918
    ));
#403 = CARTESIAN_POINT('',(1.615042847006,26.450877199755,
    14.393190825201));
#404 = CARTESIAN_POINT('',(1.529295416607,26.456196074182,
    14.198038347491));
#405 = CARTESIAN_POINT('',(1.413076853058,26.462902658379,
    14.011942321959));
#406 = CARTESIAN_POINT('',(1.26483848224,26.47041893269,13.84004380633)
  );
#407 = CARTESIAN_POINT('',(0.925824891103,26.484293260699,
    13.559587373079));
#408 = CARTESIAN_POINT('',(0.737463364511,26.490902428813,13.44111462472
    ));
#409 = CARTESIAN_POINT('',(0.522311300354,26.496747992861,
    13.348260808719));
#410 = CARTESIAN_POINT('',(0.28814864745,26.50066652603,13.290357639032)
  );
#411 = CARTESIAN_POINT('',(4.537820072876E-02,26.501809589678,
    13.27242137163));
#412 = CARTESIAN_POINT('',(-0.194911412366,26.50026308502,
    13.294903763424));
#413 = CARTESIAN_POINT('',(-0.656126794765,26.492904060813,
    13.413323746354));
#414 = CARTESIAN_POINT('',(-0.868298565139,26.487120366015,
    13.508925290404));
#415 = CARTESIAN_POINT('',(-1.055556273078,26.480118702048,
    13.632109212417));
#416 = CARTESIAN_POINT('',(-1.216243760043,26.472829032197,
    13.776081878045));
#417 = CARTESIAN_POINT('',(-1.349850267454,26.465977509848,
    13.934857925067));
#418 = CARTESIAN_POINT('',(-1.456771848274,26.460054227465,
    14.103118845901));
#419 = CARTESIAN_POINT('',(-1.637908285242,26.449522313318,
    14.488053368557));
#420 = CARTESIAN_POINT('',(-1.700752348757,26.445428504476,
    14.709983355845));
#421 = CARTESIAN_POINT('',(-1.728607431745,26.443514039748,
    14.936977905771));
#422 = CARTESIAN_POINT('',(-1.72204478565,26.443958697154,
    15.165539206442));
#423 = CARTESIAN_POINT('',(-1.680706030348,26.446766398406,
    15.39192233921));
#424 = CARTESIAN_POINT('',(-1.603642877529,26.451679507703,
    15.611758767727));
#425 = CARTESIAN_POINT('',(-1.40379546798,26.462931903874,
    15.975279856184));
#426 = CARTESIAN_POINT('',(-1.295771572379,26.468687550398,
    16.126457076979));
#427 = CARTESIAN_POINT('',(-1.16481679591,26.475105833986,16.26839211232
    ));
#428 = CARTESIAN_POINT('',(-1.010836736129,26.481753875927,
    16.396568439008));
#429 = CARTESIAN_POINT('',(-0.834515575426,26.488027744934,
    16.506064003022));
#430 = CARTESIAN_POINT('',(-0.637462148623,26.493201868709,
    16.591468520257));
#431 = CARTESIAN_POINT('',(-0.212121214763,26.499988490206,
    16.70067751035));
#432 = CARTESIAN_POINT('',(9.998091973412E-03,26.50157769982,
    16.724194467943));
#433 = CARTESIAN_POINT('',(0.235370977514,26.500886078903,
    16.713091723168));
#434 = CARTESIAN_POINT('',(0.454773696067,26.497794589488,
    16.667251331116));
#435 = CARTESIAN_POINT('',(0.659372072921,26.492890150624,
    16.590295215599));
#436 = CARTESIAN_POINT('',(0.842203625714,26.48707962372,16.489418810428
    ));
#437 = CARTESIAN_POINT('',(1.205507433035,26.473370785696,
    16.225463143823));
#438 = CARTESIAN_POINT('',(1.37435177431,26.465122167908,16.047645856488
    ));
#439 = CARTESIAN_POINT('',(1.506475273508,26.457607749271,
    15.852141999952));
#440 = CARTESIAN_POINT('',(1.603778497593,26.451601803414,
    15.645480172628));
#441 = CARTESIAN_POINT('',(1.667910107227,26.447478109861,
    15.432393092585));
#442 = CARTESIAN_POINT('',(1.7,26.445415481705,15.216237901505));
#443 = CARTESIAN_POINT('',(1.7,26.445415481705,15.));
#444 = CYLINDRICAL_SURFACE('',#445,26.5);
#445 = AXIS2_PLACEMENT_3D('',#446,#447,#448);
#446 = CARTESIAN_POINT('',(0.,0.,9.5));
#447 = DIRECTION('',(0.,0.,1.));
#448 = DIRECTION('',(1.,0.,0.));
#449 = ADVANCED_FACE('',(#450),#528,.T.);
#450 = FACE_BOUND('',#451,.T.);
#451 = EDGE_LOOP('',(#452,#462,#469,#470,#479,#487,#496,#504,#511,#512,
    #513,#521));
#452 = ORIENTED_EDGE('',*,*,#453,.T.);
#453 = EDGE_CURVE('',#454,#456,#458,.T.);
#454 = VERTEX_POINT('',#455);
#455 = CARTESIAN_POINT('',(26.2,12.,18.));
#456 = VERTEX_POINT('',#457);
#457 = CARTESIAN_POINT('',(26.2,12.,21.8));
#458 = LINE('',#459,#460);
#459 = CARTESIAN_POINT('',(26.2,12.,3.));
#460 = VECTOR('',#461,1.);
#461 = DIRECTION('',(0.,0.,1.));
#462 = ORIENTED_EDGE('',*,*,#463,.F.);
#463 = EDGE_CURVE('',#456,#456,#464,.T.);
#464 = CIRCLE('',#465,3.2);
#465 = AXIS2_PLACEMENT_3D('',#466,#467,#468);
#466 = CARTESIAN_POINT('',(23.,12.,21.8));
#467 = DIRECTION('',(0.,0.,1.));
#468 = DIRECTION('',(1.,0.,0.));
#469 = ORIENTED_EDGE('',*,*,#453,.F.);
#470 = ORIENTED_EDGE('',*,*,#471,.T.);
#471 = EDGE_CURVE('',#454,#472,#474,.T.);
#472 = VERTEX_POINT('',#473);
#473 = CARTESIAN_POINT('',(26.198990510221,12.080372355409,18.));
#474 = CIRCLE('',#475,3.2);
#475 = AXIS2_PLACEMENT_3D('',#476,#477,#478);
#476 = CARTESIAN_POINT('',(23.,12.,18.));
#477 = DIRECTION('',(0.,0.,1.));
#478 = DIRECTION('',(1.,0.,0.));
#479 = ORIENTED_EDGE('',*,*,#480,.F.);
#480 = EDGE_CURVE('',#481,#472,#483,.T.);
#481 = VERTEX_POINT('',#482);
#482 = CARTESIAN_POINT('',(26.198990510221,12.080372355409,11.6));
#483 = LINE('',#484,#485);
#484 = CARTESIAN_POINT('',(26.198990510221,12.080372355409,10.5));
#485 = VECTOR('',#486,1.);
#486 = DIRECTION('',(0.,0.,1.));
#487 = ORIENTED_EDGE('',*,*,#488,.T.);
#488 = EDGE_CURVE('',#481,#489,#491,.T.);
#489 = VERTEX_POINT('',#490);
#490 = CARTESIAN_POINT('',(24.895953769125,14.577859442511,11.6));
#491 = CIRCLE('',#492,3.2);
#492 = AXIS2_PLACEMENT_3D('',#493,#494,#495);
#493 = CARTESIAN_POINT('',(23.,12.,11.6));
#494 = DIRECTION('',(0.,0.,1.));
#495 = DIRECTION('',(1.,0.,0.));
#496 = ORIENTED_EDGE('',*,*,#497,.T.);
#497 = EDGE_CURVE('',#489,#498,#500,.T.);
#498 = VERTEX_POINT('',#499);
#499 = CARTESIAN_POINT('',(24.895953769125,14.577859442511,18.));
#500 = LINE('',#501,#502);
#501 = CARTESIAN_POINT('',(24.895953769125,14.577859442511,10.5));
#502 = VECTOR('',#503,1.);
#503 = DIRECTION('',(0.,0.,1.));
#504 = ORIENTED_EDGE('',*,*,#505,.T.);
#505 = EDGE_CURVE('',#498,#378,#506,.T.);
#506 = CIRCLE('',#507,3.2);
#507 = AXIS2_PLACEMENT_3D('',#508,#509,#510);
#508 = CARTESIAN_POINT('',(23.,12.,18.));
#509 = DIRECTION('',(0.,0.,1.));
#510 = DIRECTION('',(1.,0.,0.));
#511 = ORIENTED_EDGE('',*,*,#377,.F.);
#512 = ORIENTED_EDGE('',*,*,#68,.T.);
#513 = ORIENTED_EDGE('',*,*,#514,.T.);
#514 = EDGE_CURVE('',#60,#515,#517,.T.);
#515 = VERTEX_POINT('',#516);
#516 = CARTESIAN_POINT('',(24.795313281492,9.351066210473,18.));
#517 = LINE('',#518,#519);
#518 = CARTESIAN_POINT('',(24.795313281492,9.351066210473,9.5));
#519 = VECTOR('',#520,1.);
#520 = DIRECTION('',(0.,0.,1.));
#521 = ORIENTED_EDGE('',*,*,#522,.T.);
#522 = EDGE_CURVE('',#515,#454,#523,.T.);
#523 = CIRCLE('',#524,3.2);
#524 = AXIS2_PLACEMENT_3D('',#525,#526,#527);
#525 = CARTESIAN_POINT('',(23.,12.,18.));
#526 = DIRECTION('',(0.,0.,1.));
#527 = DIRECTION('',(1.,0.,0.));
#528 = CYLINDRICAL_SURFACE('',#529,3.2);
#529 = AXIS2_PLACEMENT_3D('',#530,#531,#532);
#530 = CARTESIAN_POINT('',(23.,12.,3.));
#531 = DIRECTION('',(0.,0.,1.));
#532 = DIRECTION('',(1.,0.,0.));
#533 = ADVANCED_FACE('',(#534),#619,.T.);
#534 = FACE_BOUND('',#535,.T.);
#535 = EDGE_LOOP('',(#536,#546,#553,#554,#563,#569,#570,#578,#587,#595,
    #604,#612));
#536 = ORIENTED_EDGE('',*,*,#537,.T.);
#537 = EDGE_CURVE('',#538,#540,#542,.T.);
#538 = VERTEX_POINT('',#539);
#539 = CARTESIAN_POINT('',(26.2,-12.,18.));
#540 = VERTEX_POINT('',#541);
#541 = CARTESIAN_POINT('',(26.2,-12.,21.8));
#542 = LINE('',#543,#544);
#543 = CARTESIAN_POINT('',(26.2,-12.,3.));
#544 = VECTOR('',#545,1.);
#545 = DIRECTION('',(0.,0.,1.));
#546 = ORIENTED_EDGE('',*,*,#547,.F.);
#547 = EDGE_CURVE('',#540,#540,#548,.T.);
#548 = CIRCLE('',#549,3.2);
#549 = AXIS2_PLACEMENT_3D('',#550,#551,#552);
#550 = CARTESIAN_POINT('',(23.,-12.,21.8));
#551 = DIRECTION('',(0.,0.,1.));
#552 = DIRECTION('',(1.,0.,0.));
#553 = ORIENTED_EDGE('',*,*,#537,.F.);
#554 = ORIENTED_EDGE('',*,*,#555,.T.);
#555 = EDGE_CURVE('',#538,#556,#558,.T.);
#556 = VERTEX_POINT('',#557);
#557 = CARTESIAN_POINT('',(24.795313281492,-9.351066210473,18.));
#558 = CIRCLE('',#559,3.2);
#559 = AXIS2_PLACEMENT_3D('',#560,#561,#562);
#560 = CARTESIAN_POINT('',(23.,-12.,18.));
#561 = DIRECTION('',(0.,0.,1.));
#562 = DIRECTION('',(1.,0.,0.));
#563 = ORIENTED_EDGE('',*,*,#564,.F.);
#564 = EDGE_CURVE('',#42,#556,#565,.T.);
#565 = LINE('',#566,#567);
#566 = CARTESIAN_POINT('',(24.795313281492,-9.351066210473,9.5));
#567 = VECTOR('',#568,1.);
#568 = DIRECTION('',(0.,0.,1.));
#569 = ORIENTED_EDGE('',*,*,#41,.T.);
#570 = ORIENTED_EDGE('',*,*,#571,.T.);
#571 = EDGE_CURVE('',#33,#572,#574,.T.);
#572 = VERTEX_POINT('',#573);
#573 = CARTESIAN_POINT('',(21.854359824005,-14.98789367065,18.));
#574 = LINE('',#575,#576);
#575 = CARTESIAN_POINT('',(21.854359824005,-14.98789367065,9.5));
#576 = VECTOR('',#577,1.);
#577 = DIRECTION('',(0.,0.,1.));
#578 = ORIENTED_EDGE('',*,*,#579,.T.);
#579 = EDGE_CURVE('',#572,#580,#582,.T.);
#580 = VERTEX_POINT('',#581);
#581 = CARTESIAN_POINT('',(24.895953769125,-14.57785944251,18.));
#582 = CIRCLE('',#583,3.2);
#583 = AXIS2_PLACEMENT_3D('',#584,#585,#586);
#584 = CARTESIAN_POINT('',(23.,-12.,18.));
#585 = DIRECTION('',(0.,0.,1.));
#586 = DIRECTION('',(1.,0.,0.));
#587 = ORIENTED_EDGE('',*,*,#588,.F.);
#588 = EDGE_CURVE('',#589,#580,#591,.T.);
#589 = VERTEX_POINT('',#590);
#590 = CARTESIAN_POINT('',(24.895953769125,-14.57785944251,11.6));
#591 = LINE('',#592,#593);
#592 = CARTESIAN_POINT('',(24.895953769125,-14.57785944251,10.5));
#593 = VECTOR('',#594,1.);
#594 = DIRECTION('',(0.,0.,1.));
#595 = ORIENTED_EDGE('',*,*,#596,.T.);
#596 = EDGE_CURVE('',#589,#597,#599,.T.);
#597 = VERTEX_POINT('',#598);
#598 = CARTESIAN_POINT('',(26.198990510221,-12.0803723554,11.6));
#599 = CIRCLE('',#600,3.2);
#600 = AXIS2_PLACEMENT_3D('',#601,#602,#603);
#601 = CARTESIAN_POINT('',(23.,-12.,11.6));
#602 = DIRECTION('',(0.,0.,1.));
#603 = DIRECTION('',(1.,0.,0.));
#604 = ORIENTED_EDGE('',*,*,#605,.T.);
#605 = EDGE_CURVE('',#597,#606,#608,.T.);
#606 = VERTEX_POINT('',#607);
#607 = CARTESIAN_POINT('',(26.198990510221,-12.0803723554,18.));
#608 = LINE('',#609,#610);
#609 = CARTESIAN_POINT('',(26.198990510221,-12.0803723554,10.5));
#610 = VECTOR('',#611,1.);
#611 = DIRECTION('',(0.,0.,1.));
#612 = ORIENTED_EDGE('',*,*,#613,.T.);
#613 = EDGE_CURVE('',#606,#538,#614,.T.);
#614 = CIRCLE('',#615,3.2);
#615 = AXIS2_PLACEMENT_3D('',#616,#617,#618);
#616 = CARTESIAN_POINT('',(23.,-12.,18.));
#617 = DIRECTION('',(0.,0.,1.));
#618 = DIRECTION('',(1.,0.,0.));
#619 = CYLINDRICAL_SURFACE('',#620,3.2);
#620 = AXIS2_PLACEMENT_3D('',#621,#622,#623);
#621 = CARTESIAN_POINT('',(23.,-12.,3.));
#622 = DIRECTION('',(0.,0.,1.));
#623 = DIRECTION('',(1.,0.,0.));
#624 = ADVANCED_FACE('',(#625,#637),#688,.F.);
#625 = FACE_BOUND('',#626,.F.);
#626 = EDGE_LOOP('',(#627,#628,#629,#630));
#627 = ORIENTED_EDGE('',*,*,#196,.F.);
#628 = ORIENTED_EDGE('',*,*,#32,.T.);
#629 = ORIENTED_EDGE('',*,*,#571,.T.);
#630 = ORIENTED_EDGE('',*,*,#631,.F.);
#631 = EDGE_CURVE('',#188,#572,#632,.T.);
#632 = CIRCLE('',#633,26.5);
#633 = AXIS2_PLACEMENT_3D('',#634,#635,#636);
#634 = CARTESIAN_POINT('',(0.,0.,18.));
#635 = DIRECTION('',(0.,0.,1.));
#636 = DIRECTION('',(1.,0.,0.));
#637 = FACE_BOUND('',#638,.F.);
#638 = EDGE_LOOP('',(#639));
#639 = ORIENTED_EDGE('',*,*,#640,.F.);
#640 = EDGE_CURVE('',#641,#641,#643,.T.);
#641 = VERTEX_POINT('',#642);
#642 = CARTESIAN_POINT('',(-1.7,-26.4454154817,15.));
#643 = B_SPLINE_CURVE_WITH_KNOTS('',7,(#644,#645,#646,#647,#648,#649,
    #650,#651,#652,#653,#654,#655,#656,#657,#658,#659,#660,#661,#662,
    #663,#664,#665,#666,#667,#668,#669,#670,#671,#672,#673,#674,#675,
    #676,#677,#678,#679,#680,#681,#682,#683,#684,#685,#686,#687),
  .UNSPECIFIED.,.T.,.F.,(8,6,6,6,6,6,6,8),(0.,0.152738533064,
    0.285736099145,0.421939566784,0.588697615688,0.714475723842,
    0.837888273537,1.),.UNSPECIFIED.);
#644 = CARTESIAN_POINT('',(-1.7,-26.4454154817,15.));
#645 = CARTESIAN_POINT('',(-1.7,-26.4454154817,14.796810989526));
#646 = CARTESIAN_POINT('',(-1.67166785411,-26.4472366746,14.593717653918
    ));
#647 = CARTESIAN_POINT('',(-1.615042847007,-26.45087719975,
    14.393190825201));
#648 = CARTESIAN_POINT('',(-1.529295416607,-26.45619607418,
    14.198038347491));
#649 = CARTESIAN_POINT('',(-1.413076853058,-26.46290265837,
    14.011942321959));
#650 = CARTESIAN_POINT('',(-1.26483848224,-26.47041893269,
    13.840043806329));
#651 = CARTESIAN_POINT('',(-0.925824891103,-26.48429326069,
    13.559587373079));
#652 = CARTESIAN_POINT('',(-0.737463364511,-26.49090242881,
    13.44111462472));
#653 = CARTESIAN_POINT('',(-0.522311300355,-26.49674799286,
    13.348260808719));
#654 = CARTESIAN_POINT('',(-0.288148647449,-26.50066652603,
    13.290357639032));
#655 = CARTESIAN_POINT('',(-4.537820072913E-02,-26.50180958967,
    13.27242137163));
#656 = CARTESIAN_POINT('',(0.194911412366,-26.50026308502,
    13.294903763424));
#657 = CARTESIAN_POINT('',(0.656126794765,-26.49290406081,
    13.413323746354));
#658 = CARTESIAN_POINT('',(0.868298565139,-26.48712036601,
    13.508925290404));
#659 = CARTESIAN_POINT('',(1.055556273079,-26.48011870204,
    13.632109212418));
#660 = CARTESIAN_POINT('',(1.216243760042,-26.47282903219,
    13.776081878045));
#661 = CARTESIAN_POINT('',(1.349850267454,-26.46597750984,
    13.934857925067));
#662 = CARTESIAN_POINT('',(1.456771848274,-26.46005422746,
    14.103118845901));
#663 = CARTESIAN_POINT('',(1.637908285242,-26.44952231331,
    14.488053368557));
#664 = CARTESIAN_POINT('',(1.700752348757,-26.44542850447,
    14.709983355845));
#665 = CARTESIAN_POINT('',(1.728607431745,-26.44351403974,
    14.936977905771));
#666 = CARTESIAN_POINT('',(1.72204478565,-26.44395869715,15.165539206442
    ));
#667 = CARTESIAN_POINT('',(1.680706030348,-26.4467663984,15.39192233921)
  );
#668 = CARTESIAN_POINT('',(1.603642877529,-26.4516795077,15.611758767726
    ));
#669 = CARTESIAN_POINT('',(1.403795467994,-26.46293190387,
    15.975279856159));
#670 = CARTESIAN_POINT('',(1.295771572385,-26.46868755039,
    16.126457076982));
#671 = CARTESIAN_POINT('',(1.164816795894,-26.47510583398,
    16.268392112341));
#672 = CARTESIAN_POINT('',(1.010836736109,-26.48175387592,
    16.396568439016));
#673 = CARTESIAN_POINT('',(0.834515575428,-26.48802774493,
    16.506064003013));
#674 = CARTESIAN_POINT('',(0.63746214865,-26.4932018687,16.59146852025)
  );
#675 = CARTESIAN_POINT('',(0.212121214763,-26.4999884902,16.70067751035)
  );
#676 = CARTESIAN_POINT('',(-9.99809197282E-03,-26.50157769982,
    16.724194467943));
#677 = CARTESIAN_POINT('',(-0.235370977514,-26.5008860789,
    16.713091723168));
#678 = CARTESIAN_POINT('',(-0.454773696067,-26.49779458948,
    16.667251331116));
#679 = CARTESIAN_POINT('',(-0.659372072921,-26.49289015062,
    16.590295215598));
#680 = CARTESIAN_POINT('',(-0.842203625714,-26.48707962372,
    16.489418810428));
#681 = CARTESIAN_POINT('',(-1.205507433035,-26.47337078569,
    16.225463143823));
#682 = CARTESIAN_POINT('',(-1.37435177431,-26.4651221679,16.047645856489
    ));
#683 = CARTESIAN_POINT('',(-1.506475273508,-26.45760774927,
    15.852141999951));
#684 = CARTESIAN_POINT('',(-1.603778497593,-26.45160180341,
    15.645480172628));
#685 = CARTESIAN_POINT('',(-1.667910107227,-26.44747810986,
    15.432393092585));
#686 = CARTESIAN_POINT('',(-1.7,-26.4454154817,15.216237901505));
#687 = CARTESIAN_POINT('',(-1.7,-26.4454154817,15.));
#688 = CYLINDRICAL_SURFACE('',#689,26.5);
#689 = AXIS2_PLACEMENT_3D('',#690,#691,#692);
#690 = CARTESIAN_POINT('',(0.,0.,9.5));
#691 = DIRECTION('',(0.,0.,1.));
#692 = DIRECTION('',(1.,0.,0.));
#693 = ADVANCED_FACE('',(#694),#706,.T.);
#694 = FACE_BOUND('',#695,.T.);
#695 = EDGE_LOOP('',(#696,#697,#704,#705));
#696 = ORIENTED_EDGE('',*,*,#187,.F.);
#697 = ORIENTED_EDGE('',*,*,#698,.T.);
#698 = EDGE_CURVE('',#180,#580,#699,.T.);
#699 = CIRCLE('',#700,28.85);
#700 = AXIS2_PLACEMENT_3D('',#701,#702,#703);
#701 = CARTESIAN_POINT('',(0.,0.,18.));
#702 = DIRECTION('',(0.,0.,1.));
#703 = DIRECTION('',(1.,0.,0.));
#704 = ORIENTED_EDGE('',*,*,#579,.F.);
#705 = ORIENTED_EDGE('',*,*,#631,.F.);
#706 = PLANE('',#707);
#707 = AXIS2_PLACEMENT_3D('',#708,#709,#710);
#708 = CARTESIAN_POINT('',(0.,0.,18.));
#709 = DIRECTION('',(0.,0.,1.));
#710 = DIRECTION('',(1.,0.,0.));
#711 = ADVANCED_FACE('',(#712,#724),#775,.T.);
#712 = FACE_BOUND('',#713,.T.);
#713 = EDGE_LOOP('',(#714,#715,#716,#717));
#714 = ORIENTED_EDGE('',*,*,#588,.T.);
#715 = ORIENTED_EDGE('',*,*,#698,.F.);
#716 = ORIENTED_EDGE('',*,*,#179,.F.);
#717 = ORIENTED_EDGE('',*,*,#718,.T.);
#718 = EDGE_CURVE('',#171,#589,#719,.T.);
#719 = CIRCLE('',#720,28.85);
#720 = AXIS2_PLACEMENT_3D('',#721,#722,#723);
#721 = CARTESIAN_POINT('',(0.,0.,11.6));
#722 = DIRECTION('',(0.,0.,1.));
#723 = DIRECTION('',(1.,0.,0.));
#724 = FACE_BOUND('',#725,.T.);
#725 = EDGE_LOOP('',(#726));
#726 = ORIENTED_EDGE('',*,*,#727,.F.);
#727 = EDGE_CURVE('',#728,#728,#730,.T.);
#728 = VERTEX_POINT('',#729);
#729 = CARTESIAN_POINT('',(-1.7,-28.79986979137,15.));
#730 = B_SPLINE_CURVE_WITH_KNOTS('',7,(#731,#732,#733,#734,#735,#736,
    #737,#738,#739,#740,#741,#742,#743,#744,#745,#746,#747,#748,#749,
    #750,#751,#752,#753,#754,#755,#756,#757,#758,#759,#760,#761,#762,
    #763,#764,#765,#766,#767,#768,#769,#770,#771,#772,#773,#774),
  .UNSPECIFIED.,.T.,.F.,(8,6,6,6,6,6,6,8),(0.,0.152736358422,
    0.285728609706,0.421930050875,0.588699879204,0.714476956302,
    0.837887134236,1.),.UNSPECIFIED.);
#731 = CARTESIAN_POINT('',(-1.7,-28.79986979137,15.));
#732 = CARTESIAN_POINT('',(-1.7,-28.79986979137,14.796822433602));
#733 = CARTESIAN_POINT('',(-1.671671048673,-28.80154190864,
    14.593740421042));
#734 = CARTESIAN_POINT('',(-1.61505234558,-28.80488444276,14.39322073525
    ));
#735 = CARTESIAN_POINT('',(-1.52931149773,-28.80976824655,
    14.198068458706));
#736 = CARTESIAN_POINT('',(-1.413095622892,-28.8159270136,
    14.011965515773));
#737 = CARTESIAN_POINT('',(-1.264852589306,-28.82283017501,
    13.84005547671));
#738 = CARTESIAN_POINT('',(-0.925816666836,-28.83557353027,
    13.559580569373));
#739 = CARTESIAN_POINT('',(-0.737452033837,-28.84164382405,
    13.44110915859));
#740 = CARTESIAN_POINT('',(-0.522299723059,-28.84701296148,
    13.348257388633));
#741 = CARTESIAN_POINT('',(-0.288137226236,-28.85061239331,
    13.290355834391));
#742 = CARTESIAN_POINT('',(-4.536806284568E-02,-28.851662171,
    13.272421842436));
#743 = CARTESIAN_POINT('',(0.194917614909,-28.85024152869,
    13.294905355966));
#744 = CARTESIAN_POINT('',(0.656126296086,-28.8434821724,13.413323618315
    ));
#745 = CARTESIAN_POINT('',(0.868301767801,-28.83816974224,
    13.508925937846));
#746 = CARTESIAN_POINT('',(1.055564184837,-28.83173868403,
    13.632113364448));
#747 = CARTESIAN_POINT('',(1.216254414416,-28.82504353379,
    13.776091069741));
#748 = CARTESIAN_POINT('',(1.349860081138,-28.81875132335,
    13.934870920724));
#749 = CARTESIAN_POINT('',(1.456777275838,-28.81331201904,
    14.103130380061));
#750 = CARTESIAN_POINT('',(1.637910165818,-28.80364073431,
    14.488057364985));
#751 = CARTESIAN_POINT('',(1.700752111685,-28.79988169355,
    14.709986176723));
#752 = CARTESIAN_POINT('',(1.728605865068,-28.79812395014,14.93697577885
    ));
#753 = CARTESIAN_POINT('',(1.722044606174,-28.79853213341,
    15.165532351232));
#754 = CARTESIAN_POINT('',(1.680708234157,-28.80111004429,
    15.391914439563));
#755 = CARTESIAN_POINT('',(1.603645665804,-28.80562156985,
    15.611753695875));
#756 = CARTESIAN_POINT('',(1.403800138599,-28.81595473628,
    15.975271360359));
#757 = CARTESIAN_POINT('',(1.295779287255,-28.82124026685,
    16.126447969998));
#758 = CARTESIAN_POINT('',(1.164824437769,-28.82713474443,
    16.268386261223));
#759 = CARTESIAN_POINT('',(1.010841509152,-28.83324067151,
    16.396566473962));
#760 = CARTESIAN_POINT('',(0.834516315144,-28.83900323749,
    16.506064393474));
#761 = CARTESIAN_POINT('',(0.637460356438,-28.84375573563,
    16.591468980412));
#762 = CARTESIAN_POINT('',(0.212125294802,-28.84998933734,
    16.700676462774));
#763 = CARTESIAN_POINT('',(-9.990470849725E-03,-28.85144915459,
    16.724193807076));
#764 = CARTESIAN_POINT('',(-0.23536120128,-28.85081399997,
    16.713092664427));
#765 = CARTESIAN_POINT('',(-0.454762748398,-28.84797430482,
    16.667253930714));
#766 = CARTESIAN_POINT('',(-0.659360890494,-28.84346955581,
    16.590299954618));
#767 = CARTESIAN_POINT('',(-0.842195329497,-28.83813270797,
    16.489424837983));
#768 = CARTESIAN_POINT('',(-1.20552374497,-28.82554108229,
    16.225451292509));
#769 = CARTESIAN_POINT('',(-1.374373798859,-28.81796511701,
    16.047621135719));
#770 = CARTESIAN_POINT('',(-1.506494481082,-28.81106437508,
    15.852108926111));
#771 = CARTESIAN_POINT('',(-1.603790130951,-28.80554968427,
    15.645446415039));
#772 = CARTESIAN_POINT('',(-1.667914161572,-28.80176355481,
    15.432366751247));
#773 = CARTESIAN_POINT('',(-1.7,-28.79986979137,15.216224244667));
#774 = CARTESIAN_POINT('',(-1.7,-28.79986979137,15.));
#775 = CYLINDRICAL_SURFACE('',#776,28.85);
#776 = AXIS2_PLACEMENT_3D('',#777,#778,#779);
#777 = CARTESIAN_POINT('',(0.,0.,10.5));
#778 = DIRECTION('',(0.,0.,1.));
#779 = DIRECTION('',(1.,0.,0.));
#780 = ADVANCED_FACE('',(#781,#792),#829,.T.);
#781 = FACE_BOUND('',#782,.T.);
#782 = EDGE_LOOP('',(#783));
#783 = ORIENTED_EDGE('',*,*,#784,.T.);
#784 = EDGE_CURVE('',#785,#785,#787,.T.);
#785 = VERTEX_POINT('',#786);
#786 = CARTESIAN_POINT('',(32.18,0.,11.6));
#787 = CIRCLE('',#788,32.18);
#788 = AXIS2_PLACEMENT_3D('',#789,#790,#791);
#789 = CARTESIAN_POINT('',(0.,0.,11.6));
#790 = DIRECTION('',(0.,0.,1.));
#791 = DIRECTION('',(1.,0.,0.));
#792 = FACE_BOUND('',#793,.T.);
#793 = EDGE_LOOP('',(#794,#803,#810,#811,#812,#813,#820,#821,#828));
#794 = ORIENTED_EDGE('',*,*,#795,.F.);
#795 = EDGE_CURVE('',#796,#481,#798,.T.);
#796 = VERTEX_POINT('',#797);
#797 = CARTESIAN_POINT('',(28.85,-7.06621203108E-15,11.6));
#798 = CIRCLE('',#799,28.85);
#799 = AXIS2_PLACEMENT_3D('',#800,#801,#802);
#800 = CARTESIAN_POINT('',(0.,0.,11.6));
#801 = DIRECTION('',(0.,0.,1.));
#802 = DIRECTION('',(1.,0.,0.));
#803 = ORIENTED_EDGE('',*,*,#804,.F.);
#804 = EDGE_CURVE('',#597,#796,#805,.T.);
#805 = CIRCLE('',#806,28.85);
#806 = AXIS2_PLACEMENT_3D('',#807,#808,#809);
#807 = CARTESIAN_POINT('',(0.,0.,11.6));
#808 = DIRECTION('',(0.,0.,1.));
#809 = DIRECTION('',(1.,0.,0.));
#810 = ORIENTED_EDGE('',*,*,#596,.F.);
#811 = ORIENTED_EDGE('',*,*,#718,.F.);
#812 = ORIENTED_EDGE('',*,*,#170,.F.);
#813 = ORIENTED_EDGE('',*,*,#814,.F.);
#814 = EDGE_CURVE('',#344,#163,#815,.T.);
#815 = CIRCLE('',#816,28.85);
#816 = AXIS2_PLACEMENT_3D('',#817,#818,#819);
#817 = CARTESIAN_POINT('',(0.,0.,11.6));
#818 = DIRECTION('',(0.,0.,1.));
#819 = DIRECTION('',(1.,0.,0.));
#820 = ORIENTED_EDGE('',*,*,#343,.F.);
#821 = ORIENTED_EDGE('',*,*,#822,.F.);
#822 = EDGE_CURVE('',#489,#336,#823,.T.);
#823 = CIRCLE('',#824,28.85);
#824 = AXIS2_PLACEMENT_3D('',#825,#826,#827);
#825 = CARTESIAN_POINT('',(0.,0.,11.6));
#826 = DIRECTION('',(0.,0.,1.));
#827 = DIRECTION('',(1.,0.,0.));
#828 = ORIENTED_EDGE('',*,*,#488,.F.);
#829 = PLANE('',#830);
#830 = AXIS2_PLACEMENT_3D('',#831,#832,#833);
#831 = CARTESIAN_POINT('',(0.,0.,11.6));
#832 = DIRECTION('',(0.,0.,1.));
#833 = DIRECTION('',(1.,0.,0.));
#834 = ADVANCED_FACE('',(#835,#847),#912,.T.);
#835 = FACE_BOUND('',#836,.T.);
#836 = EDGE_LOOP('',(#837,#844,#845,#846));
#837 = ORIENTED_EDGE('',*,*,#838,.F.);
#838 = EDGE_CURVE('',#353,#154,#839,.T.);
#839 = CIRCLE('',#840,28.85);
#840 = AXIS2_PLACEMENT_3D('',#841,#842,#843);
#841 = CARTESIAN_POINT('',(0.,0.,18.));
#842 = DIRECTION('',(0.,0.,1.));
#843 = DIRECTION('',(1.,0.,0.));
#844 = ORIENTED_EDGE('',*,*,#352,.F.);
#845 = ORIENTED_EDGE('',*,*,#814,.T.);
#846 = ORIENTED_EDGE('',*,*,#162,.T.);
#847 = FACE_BOUND('',#848,.T.);
#848 = EDGE_LOOP('',(#849));
#849 = ORIENTED_EDGE('',*,*,#850,.F.);
#850 = EDGE_CURVE('',#851,#851,#853,.T.);
#851 = VERTEX_POINT('',#852);
#852 = CARTESIAN_POINT('',(-28.79986979137,-1.7,15.));
#853 = B_SPLINE_CURVE_WITH_KNOTS('',8,(#854,#855,#856,#857,#858,#859,
    #860,#861,#862,#863,#864,#865,#866,#867,#868,#869,#870,#871,#872,
    #873,#874,#875,#876,#877,#878,#879,#880,#881,#882,#883,#884,#885,
    #886,#887,#888,#889,#890,#891,#892,#893,#894,#895,#896,#897,#898,
    #899,#900,#901,#902,#903,#904,#905,#906,#907,#908,#909,#910,#911),
  .UNSPECIFIED.,.T.,.F.,(9,7,7,7,7,7,7,7,9),(0.,0.119788420872,
    0.213591130872,0.331797919067,0.435749926988,0.587290393069,
    0.713684401244,0.832723794094,1.),.UNSPECIFIED.);
#854 = CARTESIAN_POINT('',(-28.79986979137,-1.7,15.));
#855 = CARTESIAN_POINT('',(-28.79986979137,-1.7,15.142259264697));
#856 = CARTESIAN_POINT('',(-28.80067286357,-1.686394995984,
    15.284455927202));
#857 = CARTESIAN_POINT('',(-28.80227785958,-1.659204903826,
    15.42579943018));
#858 = CARTESIAN_POINT('',(-28.80465819547,-1.618267081835,
    15.565438401121));
#859 = CARTESIAN_POINT('',(-28.80775976533,-1.56328027152,
    15.702388643459));
#860 = CARTESIAN_POINT('',(-28.81149251668,-1.493846768849,
    15.835459401533));
#861 = CARTESIAN_POINT('',(-28.81571968451,-1.409520979639,
    15.96316647803));
#862 = CARTESIAN_POINT('',(-28.82379520088,-1.231840794991,
    16.177944926051));
#863 = CARTESIAN_POINT('',(-28.82754772365,-1.143952730314,
    16.26837775748));
#864 = CARTESIAN_POINT('',(-28.83139983409,-1.04619992618,
    16.353446866401));
#865 = CARTESIAN_POINT('',(-28.83521723117,-0.938768046053,
    16.431677746278));
#866 = CARTESIAN_POINT('',(-28.83884327967,-0.822033802041,
    16.501593860256));
#867 = CARTESIAN_POINT('',(-28.84210861867,-0.696568598449,
    16.561714285837));
#868 = CARTESIAN_POINT('',(-28.84484482639,-0.563148826206,
    16.610548938447));
#869 = CARTESIAN_POINT('',(-28.84949469538,-0.24587601884,16.69201074971
    ));
#870 = CARTESIAN_POINT('',(-28.85096746944,-6.075612475286E-02,
    16.716390742029));
#871 = CARTESIAN_POINT('',(-28.85105312595,0.127961347885,
    16.717329141852));
#872 = CARTESIAN_POINT('',(-28.84963874115,0.315156682348,
    16.694173068306));
#873 = CARTESIAN_POINT('',(-28.84685954091,0.495707380427,16.64796453731
    ));
#874 = CARTESIAN_POINT('',(-28.843062315,0.664943268539,16.581397463731)
  );
#875 = CARTESIAN_POINT('',(-28.83869405916,0.819067011224,
    16.498785107764));
#876 = CARTESIAN_POINT('',(-28.83019412559,1.075558727392,
    16.324473517456));
#877 = CARTESIAN_POINT('',(-28.82602748396,1.184039849122,
    16.233634614136));
#878 = CARTESIAN_POINT('',(-28.82186411786,1.28098172505,16.135308212141
    ));
#879 = CARTESIAN_POINT('',(-28.81786468757,1.366525628282,
    16.030980629266));
#880 = CARTESIAN_POINT('',(-28.8141571468,1.44089538831,15.9218968951));
#881 = CARTESIAN_POINT('',(-28.81083840355,1.504348325396,
    15.809108504079));
#882 = CARTESIAN_POINT('',(-28.80797836006,1.557139218569,
    15.693508581778));
#883 = CARTESIAN_POINT('',(-28.80219756231,1.661246614668,15.40433916483
    ));
#884 = CARTESIAN_POINT('',(-28.79984571377,1.700868873407,
    15.228336507134));
#885 = CARTESIAN_POINT('',(-28.79871905004,1.719118703606,15.04987922567
    ));
#886 = CARTESIAN_POINT('',(-28.79888399083,1.716327561367,
    14.870635873482));
#887 = CARTESIAN_POINT('',(-28.80034599511,1.692461526059,
    14.692193349595));
#888 = CARTESIAN_POINT('',(-28.80304768028,1.647175008905,
    14.516281066451));
#889 = CARTESIAN_POINT('',(-28.80685122634,1.579863860646,
    14.344987361135));
#890 = CARTESIAN_POINT('',(-28.81539957865,1.414536999352,
    14.044258916848));
#891 = CARTESIAN_POINT('',(-28.81991925365,1.322776980269,
    13.911335460572));
#892 = CARTESIAN_POINT('',(-28.82492486534,1.213920371417,
    13.784827170389));
#893 = CARTESIAN_POINT('',(-28.83018834946,1.087817012474,
    13.667510049813));
#894 = CARTESIAN_POINT('',(-28.83540222901,0.944701647958,13.56236044819
    ));
#895 = CARTESIAN_POINT('',(-28.8401917747,0.785235525013,13.47257703833)
  );
#896 = CARTESIAN_POINT('',(-28.84414919976,0.610613263193,13.40163785764
    ));
#897 = CARTESIAN_POINT('',(-28.84949489475,0.245862414718,
    13.307985757345));
#898 = CARTESIAN_POINT('',(-28.85096782781,6.072037971459E-02,
    13.283603692859));
#899 = CARTESIAN_POINT('',(-28.85105301227,-0.128009583113,
    13.282672703155));
#900 = CARTESIAN_POINT('',(-28.84963800188,-0.315197885347,
    13.305838605907));
#901 = CARTESIAN_POINT('',(-28.84685883183,-0.495724068163,
    13.352048187876));
#902 = CARTESIAN_POINT('',(-28.84306244704,-0.664931284845,
    13.418602325537));
#903 = CARTESIAN_POINT('',(-28.83869486689,-0.819042637299,
    13.501198327734));
#904 = CARTESIAN_POINT('',(-28.82781493195,-1.147352636669,
    13.724317572906));
#905 = CARTESIAN_POINT('',(-28.82098444791,-1.30941434552,
    13.878170773614));
#906 = CARTESIAN_POINT('',(-28.81446107669,-1.442039135935,
    14.048219181257));
#907 = CARTESIAN_POINT('',(-28.80881411359,-1.546328968964,
    14.229339342202));
#908 = CARTESIAN_POINT('',(-28.80438697562,-1.623470882502,
    14.417699160457));
#909 = CARTESIAN_POINT('',(-28.8013760634,-1.674482724883,
    14.610398061787));
#910 = CARTESIAN_POINT('',(-28.79986979137,-1.7,14.805174953403));
#911 = CARTESIAN_POINT('',(-28.79986979137,-1.7,15.));
#912 = CYLINDRICAL_SURFACE('',#913,28.85);
#913 = AXIS2_PLACEMENT_3D('',#914,#915,#916);
#914 = CARTESIAN_POINT('',(0.,0.,10.5));
#915 = DIRECTION('',(0.,0.,1.));
#916 = DIRECTION('',(1.,0.,0.));
#917 = ADVANCED_FACE('',(#918),#924,.T.);
#918 = FACE_BOUND('',#919,.T.);
#919 = EDGE_LOOP('',(#920,#921,#922,#923));
#920 = ORIENTED_EDGE('',*,*,#360,.F.);
#921 = ORIENTED_EDGE('',*,*,#838,.T.);
#922 = ORIENTED_EDGE('',*,*,#153,.F.);
#923 = ORIENTED_EDGE('',*,*,#221,.F.);
#924 = PLANE('',#925);
#925 = AXIS2_PLACEMENT_3D('',#926,#927,#928);
#926 = CARTESIAN_POINT('',(0.,0.,18.));
#927 = DIRECTION('',(0.,0.,1.));
#928 = DIRECTION('',(1.,0.,0.));
#929 = ADVANCED_FACE('',(#930,#933),#944,.T.);
#930 = FACE_BOUND('',#931,.T.);
#931 = EDGE_LOOP('',(#932));
#932 = ORIENTED_EDGE('',*,*,#136,.T.);
#933 = FACE_BOUND('',#934,.T.);
#934 = EDGE_LOOP('',(#935));
#935 = ORIENTED_EDGE('',*,*,#936,.F.);
#936 = EDGE_CURVE('',#937,#937,#939,.T.);
#937 = VERTEX_POINT('',#938);
#938 = CARTESIAN_POINT('',(-21.3,-12.,21.8));
#939 = CIRCLE('',#940,1.7);
#940 = AXIS2_PLACEMENT_3D('',#941,#942,#943);
#941 = CARTESIAN_POINT('',(-23.,-12.,21.8));
#942 = DIRECTION('',(0.,0.,1.));
#943 = DIRECTION('',(1.,0.,0.));
#944 = PLANE('',#945);
#945 = AXIS2_PLACEMENT_3D('',#946,#947,#948);
#946 = CARTESIAN_POINT('',(-23.,-12.,21.8));
#947 = DIRECTION('',(0.,0.,1.));
#948 = DIRECTION('',(1.,0.,0.));
#949 = ADVANCED_FACE('',(#950),#961,.F.);
#950 = FACE_BOUND('',#951,.F.);
#951 = EDGE_LOOP('',(#952,#953,#959,#960));
#952 = ORIENTED_EDGE('',*,*,#850,.F.);
#953 = ORIENTED_EDGE('',*,*,#954,.F.);
#954 = EDGE_CURVE('',#231,#851,#955,.T.);
#955 = LINE('',#956,#957);
#956 = CARTESIAN_POINT('',(-24.,-1.7,15.));
#957 = VECTOR('',#958,1.);
#958 = DIRECTION('',(-1.,1.224646799147E-16,0.));
#959 = ORIENTED_EDGE('',*,*,#230,.T.);
#960 = ORIENTED_EDGE('',*,*,#954,.T.);
#961 = CYLINDRICAL_SURFACE('',#962,1.7);
#962 = AXIS2_PLACEMENT_3D('',#963,#964,#965);
#963 = CARTESIAN_POINT('',(-24.,2.939152317954E-15,15.));
#964 = DIRECTION('',(-1.,1.224646799147E-16,0.));
#965 = DIRECTION('',(-1.224646799147E-16,-1.,0.));
#966 = ADVANCED_FACE('',(#967,#979),#1030,.T.);
#967 = FACE_BOUND('',#968,.T.);
#968 = EDGE_LOOP('',(#969,#976,#977,#978));
#969 = ORIENTED_EDGE('',*,*,#970,.F.);
#970 = EDGE_CURVE('',#498,#327,#971,.T.);
#971 = CIRCLE('',#972,28.85);
#972 = AXIS2_PLACEMENT_3D('',#973,#974,#975);
#973 = CARTESIAN_POINT('',(0.,0.,18.));
#974 = DIRECTION('',(0.,0.,1.));
#975 = DIRECTION('',(1.,0.,0.));
#976 = ORIENTED_EDGE('',*,*,#497,.F.);
#977 = ORIENTED_EDGE('',*,*,#822,.T.);
#978 = ORIENTED_EDGE('',*,*,#335,.T.);
#979 = FACE_BOUND('',#980,.T.);
#980 = EDGE_LOOP('',(#981));
#981 = ORIENTED_EDGE('',*,*,#982,.F.);
#982 = EDGE_CURVE('',#983,#983,#985,.T.);
#983 = VERTEX_POINT('',#984);
#984 = CARTESIAN_POINT('',(1.7,28.799869791372,15.));
#985 = B_SPLINE_CURVE_WITH_KNOTS('',7,(#986,#987,#988,#989,#990,#991,
    #992,#993,#994,#995,#996,#997,#998,#999,#1000,#1001,#1002,#1003,
    #1004,#1005,#1006,#1007,#1008,#1009,#1010,#1011,#1012,#1013,#1014,
    #1015,#1016,#1017,#1018,#1019,#1020,#1021,#1022,#1023,#1024,#1025,
    #1026,#1027,#1028,#1029),.UNSPECIFIED.,.T.,.F.,(8,6,6,6,6,6,6,8),(0.
    ,0.152736358893,0.285728610587,0.421930052176,0.58869987811,
    0.714476955551,0.83788713381,1.),.UNSPECIFIED.);
#986 = CARTESIAN_POINT('',(1.7,28.799869791372,15.));
#987 = CARTESIAN_POINT('',(1.7,28.799869791372,14.796822433602));
#988 = CARTESIAN_POINT('',(1.671671048673,28.801541908643,
    14.593740421042));
#989 = CARTESIAN_POINT('',(1.61505234558,28.804884442761,14.39322073525)
  );
#990 = CARTESIAN_POINT('',(1.52931149773,28.809768246555,14.198068458706
    ));
#991 = CARTESIAN_POINT('',(1.413095622892,28.815927013609,
    14.011965515773));
#992 = CARTESIAN_POINT('',(1.264852589306,28.822830175019,13.84005547671
    ));
#993 = CARTESIAN_POINT('',(0.925816666836,28.835573530272,
    13.559580569374));
#994 = CARTESIAN_POINT('',(0.737452033837,28.841643824054,13.44110915859
    ));
#995 = CARTESIAN_POINT('',(0.522299723059,28.84701296148,13.348257388633
    ));
#996 = CARTESIAN_POINT('',(0.288137226236,28.850612393318,
    13.290355834391));
#997 = CARTESIAN_POINT('',(4.536806284533E-02,28.851662171001,
    13.272421842436));
#998 = CARTESIAN_POINT('',(-0.194917614909,28.850241528694,
    13.294905355966));
#999 = CARTESIAN_POINT('',(-0.656126296086,28.843482172409,
    13.413323618315));
#1000 = CARTESIAN_POINT('',(-0.8683017678,28.838169742247,
    13.508925937846));
#1001 = CARTESIAN_POINT('',(-1.055564184838,28.831738684038,
    13.632113364448));
#1002 = CARTESIAN_POINT('',(-1.216254414415,28.825043533793,
    13.776091069741));
#1003 = CARTESIAN_POINT('',(-1.349860081138,28.818751323359,
    13.934870920724));
#1004 = CARTESIAN_POINT('',(-1.456777275838,28.813312019046,
    14.103130380061));
#1005 = CARTESIAN_POINT('',(-1.637910164079,28.803640734409,
    14.48805736129));
#1006 = CARTESIAN_POINT('',(-1.700752115155,28.799881693362,
    14.709986191212));
#1007 = CARTESIAN_POINT('',(-1.728605863635,28.798123950229,
    14.936975752757));
#1008 = CARTESIAN_POINT('',(-1.722044603096,28.798532133569,
    15.165532377161));
#1009 = CARTESIAN_POINT('',(-1.680708238525,28.801110044065,
    15.391914425355));
#1010 = CARTESIAN_POINT('',(-1.603645663843,28.805621569951,
    15.611753699441));
#1011 = CARTESIAN_POINT('',(-1.40380013861,28.81595473628,
    15.975271360339));
#1012 = CARTESIAN_POINT('',(-1.29577928726,28.82124026685,
    16.126447970001));
#1013 = CARTESIAN_POINT('',(-1.164824437757,28.827134744438,
    16.268386261238));
#1014 = CARTESIAN_POINT('',(-1.010841509136,28.833240671514,
    16.396566473969));
#1015 = CARTESIAN_POINT('',(-0.834516315146,28.839003237496,
    16.506064393467));
#1016 = CARTESIAN_POINT('',(-0.637460356459,28.843755735639,
    16.591468980406));
#1017 = CARTESIAN_POINT('',(-0.212125294802,28.849989337346,
    16.700676462774));
#1018 = CARTESIAN_POINT('',(9.990470849816E-03,28.851449154591,
    16.724193807076));
#1019 = CARTESIAN_POINT('',(0.235361201281,28.850813999973,
    16.713092664427));
#1020 = CARTESIAN_POINT('',(0.454762748397,28.847974304823,
    16.667253930715));
#1021 = CARTESIAN_POINT('',(0.659360890495,28.843469555811,
    16.590299954617));
#1022 = CARTESIAN_POINT('',(0.842195329496,28.838132707972,
    16.489424837983));
#1023 = CARTESIAN_POINT('',(1.20552374497,28.825541082297,
    16.225451292509));
#1024 = CARTESIAN_POINT('',(1.374373798858,28.817965117016,
    16.04762113572));
#1025 = CARTESIAN_POINT('',(1.506494481083,28.811064375087,
    15.852108926111));
#1026 = CARTESIAN_POINT('',(1.603790130951,28.805549684275,
    15.64544641504));
#1027 = CARTESIAN_POINT('',(1.667914161572,28.801763554816,
    15.432366751247));
#1028 = CARTESIAN_POINT('',(1.7,28.799869791372,15.216224244667));
#1029 = CARTESIAN_POINT('',(1.7,28.799869791372,15.));
#1030 = CYLINDRICAL_SURFACE('',#1031,28.85);
#1031 = AXIS2_PLACEMENT_3D('',#1032,#1033,#1034);
#1032 = CARTESIAN_POINT('',(0.,0.,10.5));
#1033 = DIRECTION('',(0.,0.,1.));
#1034 = DIRECTION('',(1.,0.,0.));
#1035 = ADVANCED_FACE('',(#1036),#1042,.T.);
#1036 = FACE_BOUND('',#1037,.T.);
#1037 = EDGE_LOOP('',(#1038,#1039,#1040,#1041));
#1038 = ORIENTED_EDGE('',*,*,#505,.F.);
#1039 = ORIENTED_EDGE('',*,*,#970,.T.);
#1040 = ORIENTED_EDGE('',*,*,#326,.F.);
#1041 = ORIENTED_EDGE('',*,*,#387,.F.);
#1042 = PLANE('',#1043);
#1043 = AXIS2_PLACEMENT_3D('',#1044,#1045,#1046);
#1044 = CARTESIAN_POINT('',(0.,0.,18.));
#1045 = DIRECTION('',(0.,0.,1.));
#1046 = DIRECTION('',(1.,0.,0.));
#1047 = ADVANCED_FACE('',(#1048,#1051),#1062,.T.);
#1048 = FACE_BOUND('',#1049,.T.);
#1049 = EDGE_LOOP('',(#1050));
#1050 = ORIENTED_EDGE('',*,*,#309,.T.);
#1051 = FACE_BOUND('',#1052,.T.);
#1052 = EDGE_LOOP('',(#1053));
#1053 = ORIENTED_EDGE('',*,*,#1054,.F.);
#1054 = EDGE_CURVE('',#1055,#1055,#1057,.T.);
#1055 = VERTEX_POINT('',#1056);
#1056 = CARTESIAN_POINT('',(-21.3,12.,21.8));
#1057 = CIRCLE('',#1058,1.7);
#1058 = AXIS2_PLACEMENT_3D('',#1059,#1060,#1061);
#1059 = CARTESIAN_POINT('',(-23.,12.,21.8));
#1060 = DIRECTION('',(0.,0.,1.));
#1061 = DIRECTION('',(1.,0.,0.));
#1062 = PLANE('',#1063);
#1063 = AXIS2_PLACEMENT_3D('',#1064,#1065,#1066);
#1064 = CARTESIAN_POINT('',(-23.,12.,21.8));
#1065 = DIRECTION('',(0.,0.,1.));
#1066 = DIRECTION('',(1.,0.,0.));
#1067 = ADVANCED_FACE('',(#1068),#1079,.F.);
#1068 = FACE_BOUND('',#1069,.F.);
#1069 = EDGE_LOOP('',(#1070,#1071,#1077,#1078));
#1070 = ORIENTED_EDGE('',*,*,#982,.F.);
#1071 = ORIENTED_EDGE('',*,*,#1072,.F.);
#1072 = EDGE_CURVE('',#397,#983,#1073,.T.);
#1073 = LINE('',#1074,#1075);
#1074 = CARTESIAN_POINT('',(1.7,24.,15.));
#1075 = VECTOR('',#1076,1.);
#1076 = DIRECTION('',(6.123233995737E-17,1.,6.016155777704E-49));
#1077 = ORIENTED_EDGE('',*,*,#396,.T.);
#1078 = ORIENTED_EDGE('',*,*,#1072,.T.);
#1079 = CYLINDRICAL_SURFACE('',#1080,1.7);
#1080 = AXIS2_PLACEMENT_3D('',#1081,#1082,#1083);
#1081 = CARTESIAN_POINT('',(1.469576158977E-15,24.,15.));
#1082 = DIRECTION('',(6.123233995737E-17,1.,0.));
#1083 = DIRECTION('',(1.,-6.123233995737E-17,0.));
#1084 = ADVANCED_FACE('',(#1085),#1123,.T.);
#1085 = FACE_BOUND('',#1086,.T.);
#1086 = EDGE_LOOP('',(#1087,#1088,#1097,#1104,#1105,#1106,#1115,#1122));
#1087 = ORIENTED_EDGE('',*,*,#613,.F.);
#1088 = ORIENTED_EDGE('',*,*,#1089,.T.);
#1089 = EDGE_CURVE('',#606,#1090,#1092,.T.);
#1090 = VERTEX_POINT('',#1091);
#1091 = CARTESIAN_POINT('',(28.85,-7.06621203108E-15,18.));
#1092 = CIRCLE('',#1093,28.85);
#1093 = AXIS2_PLACEMENT_3D('',#1094,#1095,#1096);
#1094 = CARTESIAN_POINT('',(0.,0.,18.));
#1095 = DIRECTION('',(0.,0.,1.));
#1096 = DIRECTION('',(1.,0.,0.));
#1097 = ORIENTED_EDGE('',*,*,#1098,.T.);
#1098 = EDGE_CURVE('',#1090,#472,#1099,.T.);
#1099 = CIRCLE('',#1100,28.85);
#1100 = AXIS2_PLACEMENT_3D('',#1101,#1102,#1103);
#1101 = CARTESIAN_POINT('',(0.,0.,18.));
#1102 = DIRECTION('',(0.,0.,1.));
#1103 = DIRECTION('',(1.,0.,0.));
#1104 = ORIENTED_EDGE('',*,*,#471,.F.);
#1105 = ORIENTED_EDGE('',*,*,#522,.F.);
#1106 = ORIENTED_EDGE('',*,*,#1107,.F.);
#1107 = EDGE_CURVE('',#1108,#515,#1110,.T.);
#1108 = VERTEX_POINT('',#1109);
#1109 = CARTESIAN_POINT('',(26.5,-6.490628035481E-15,18.));
#1110 = CIRCLE('',#1111,26.5);
#1111 = AXIS2_PLACEMENT_3D('',#1112,#1113,#1114);
#1112 = CARTESIAN_POINT('',(0.,0.,18.));
#1113 = DIRECTION('',(0.,0.,1.));
#1114 = DIRECTION('',(1.,0.,0.));
#1115 = ORIENTED_EDGE('',*,*,#1116,.F.);
#1116 = EDGE_CURVE('',#556,#1108,#1117,.T.);
#1117 = CIRCLE('',#1118,26.5);
#1118 = AXIS2_PLACEMENT_3D('',#1119,#1120,#1121);
#1119 = CARTESIAN_POINT('',(0.,0.,18.));
#1120 = DIRECTION('',(0.,0.,1.));
#1121 = DIRECTION('',(1.,0.,0.));
#1122 = ORIENTED_EDGE('',*,*,#555,.F.);
#1123 = PLANE('',#1124);
#1124 = AXIS2_PLACEMENT_3D('',#1125,#1126,#1127);
#1125 = CARTESIAN_POINT('',(0.,0.,18.));
#1126 = DIRECTION('',(0.,0.,1.));
#1127 = DIRECTION('',(1.,0.,0.));
#1128 = ADVANCED_FACE('',(#1129,#1132),#1143,.T.);
#1129 = FACE_BOUND('',#1130,.T.);
#1130 = EDGE_LOOP('',(#1131));
#1131 = ORIENTED_EDGE('',*,*,#463,.T.);
#1132 = FACE_BOUND('',#1133,.T.);
#1133 = EDGE_LOOP('',(#1134));
#1134 = ORIENTED_EDGE('',*,*,#1135,.F.);
#1135 = EDGE_CURVE('',#1136,#1136,#1138,.T.);
#1136 = VERTEX_POINT('',#1137);
#1137 = CARTESIAN_POINT('',(24.7,12.,21.8));
#1138 = CIRCLE('',#1139,1.7);
#1139 = AXIS2_PLACEMENT_3D('',#1140,#1141,#1142);
#1140 = CARTESIAN_POINT('',(23.,12.,21.8));
#1141 = DIRECTION('',(0.,0.,1.));
#1142 = DIRECTION('',(1.,0.,0.));
#1143 = PLANE('',#1144);
#1144 = AXIS2_PLACEMENT_3D('',#1145,#1146,#1147);
#1145 = CARTESIAN_POINT('',(23.,12.,21.8));
#1146 = DIRECTION('',(0.,0.,1.));
#1147 = DIRECTION('',(1.,0.,0.));
#1148 = ADVANCED_FACE('',(#1149,#1152),#1163,.T.);
#1149 = FACE_BOUND('',#1150,.T.);
#1150 = EDGE_LOOP('',(#1151));
#1151 = ORIENTED_EDGE('',*,*,#547,.T.);
#1152 = FACE_BOUND('',#1153,.T.);
#1153 = EDGE_LOOP('',(#1154));
#1154 = ORIENTED_EDGE('',*,*,#1155,.F.);
#1155 = EDGE_CURVE('',#1156,#1156,#1158,.T.);
#1156 = VERTEX_POINT('',#1157);
#1157 = CARTESIAN_POINT('',(24.7,-12.,21.8));
#1158 = CIRCLE('',#1159,1.7);
#1159 = AXIS2_PLACEMENT_3D('',#1160,#1161,#1162);
#1160 = CARTESIAN_POINT('',(23.,-12.,21.8));
#1161 = DIRECTION('',(0.,0.,1.));
#1162 = DIRECTION('',(1.,0.,0.));
#1163 = PLANE('',#1164);
#1164 = AXIS2_PLACEMENT_3D('',#1165,#1166,#1167);
#1165 = CARTESIAN_POINT('',(23.,-12.,21.8));
#1166 = DIRECTION('',(0.,0.,1.));
#1167 = DIRECTION('',(1.,0.,0.));
#1168 = ADVANCED_FACE('',(#1169),#1180,.F.);
#1169 = FACE_BOUND('',#1170,.F.);
#1170 = EDGE_LOOP('',(#1171,#1172,#1178,#1179));
#1171 = ORIENTED_EDGE('',*,*,#727,.F.);
#1172 = ORIENTED_EDGE('',*,*,#1173,.F.);
#1173 = EDGE_CURVE('',#641,#728,#1174,.T.);
#1174 = LINE('',#1175,#1176);
#1175 = CARTESIAN_POINT('',(-1.7,-24.,15.));
#1176 = VECTOR('',#1177,1.);
#1177 = DIRECTION('',(-1.836970198721E-16,-1.,-1.214140712162E-48));
#1178 = ORIENTED_EDGE('',*,*,#640,.T.);
#1179 = ORIENTED_EDGE('',*,*,#1173,.T.);
#1180 = CYLINDRICAL_SURFACE('',#1181,1.7);
#1181 = AXIS2_PLACEMENT_3D('',#1182,#1183,#1184);
#1182 = CARTESIAN_POINT('',(-4.40872847693E-15,-24.,15.));
#1183 = DIRECTION('',(-1.836970198721E-16,-1.,0.));
#1184 = DIRECTION('',(-1.,1.836970198721E-16,0.));
#1185 = ADVANCED_FACE('',(#1186),#1205,.T.);
#1186 = FACE_BOUND('',#1187,.T.);
#1187 = EDGE_LOOP('',(#1188,#1197,#1203,#1204));
#1188 = ORIENTED_EDGE('',*,*,#1189,.T.);
#1189 = EDGE_CURVE('',#1190,#1190,#1192,.T.);
#1190 = VERTEX_POINT('',#1191);
#1191 = CARTESIAN_POINT('',(32.,0.,8.));
#1192 = CIRCLE('',#1193,32.);
#1193 = AXIS2_PLACEMENT_3D('',#1194,#1195,#1196);
#1194 = CARTESIAN_POINT('',(0.,0.,8.));
#1195 = DIRECTION('',(0.,0.,1.));
#1196 = DIRECTION('',(1.,0.,0.));
#1197 = ORIENTED_EDGE('',*,*,#1198,.T.);
#1198 = EDGE_CURVE('',#1190,#785,#1199,.T.);
#1199 = LINE('',#1200,#1201);
#1200 = CARTESIAN_POINT('',(32.,0.,8.));
#1201 = VECTOR('',#1202,1.);
#1202 = DIRECTION('',(4.993761694389E-02,0.,0.998752338878));
#1203 = ORIENTED_EDGE('',*,*,#784,.F.);
#1204 = ORIENTED_EDGE('',*,*,#1198,.F.);
#1205 = CONICAL_SURFACE('',#1206,32.,4.995839572194E-02);
#1206 = AXIS2_PLACEMENT_3D('',#1207,#1208,#1209);
#1207 = CARTESIAN_POINT('',(0.,0.,8.));
#1208 = DIRECTION('',(0.,0.,1.));
#1209 = DIRECTION('',(1.,0.,0.));
#1210 = ADVANCED_FACE('',(#1211),#1230,.T.);
#1211 = FACE_BOUND('',#1212,.T.);
#1212 = EDGE_LOOP('',(#1213,#1222,#1228,#1229));
#1213 = ORIENTED_EDGE('',*,*,#1214,.T.);
#1214 = EDGE_CURVE('',#1215,#1215,#1217,.T.);
#1215 = VERTEX_POINT('',#1216);
#1216 = CARTESIAN_POINT('',(31.8,0.,2.));
#1217 = CIRCLE('',#1218,31.8);
#1218 = AXIS2_PLACEMENT_3D('',#1219,#1220,#1221);
#1219 = CARTESIAN_POINT('',(0.,0.,2.));
#1220 = DIRECTION('',(0.,0.,1.));
#1221 = DIRECTION('',(1.,0.,0.));
#1222 = ORIENTED_EDGE('',*,*,#1223,.T.);
#1223 = EDGE_CURVE('',#1215,#1190,#1224,.T.);
#1224 = LINE('',#1225,#1226);
#1225 = CARTESIAN_POINT('',(31.8,0.,2.));
#1226 = VECTOR('',#1227,1.);
#1227 = DIRECTION('',(3.331483023264E-02,0.,0.999444906979));
#1228 = ORIENTED_EDGE('',*,*,#1189,.F.);
#1229 = ORIENTED_EDGE('',*,*,#1223,.F.);
#1230 = CONICAL_SURFACE('',#1231,31.8,3.332099587825E-02);
#1231 = AXIS2_PLACEMENT_3D('',#1232,#1233,#1234);
#1232 = CARTESIAN_POINT('',(0.,0.,2.));
#1233 = DIRECTION('',(0.,0.,1.));
#1234 = DIRECTION('',(1.,0.,0.));
#1235 = ADVANCED_FACE('',(#1236),#1255,.T.);
#1236 = FACE_BOUND('',#1237,.T.);
#1237 = EDGE_LOOP('',(#1238,#1247,#1253,#1254));
#1238 = ORIENTED_EDGE('',*,*,#1239,.T.);
#1239 = EDGE_CURVE('',#1240,#1240,#1242,.T.);
#1240 = VERTEX_POINT('',#1241);
#1241 = CARTESIAN_POINT('',(31.,0.,0.));
#1242 = CIRCLE('',#1243,31.);
#1243 = AXIS2_PLACEMENT_3D('',#1244,#1245,#1246);
#1244 = CARTESIAN_POINT('',(0.,0.,0.));
#1245 = DIRECTION('',(0.,0.,1.));
#1246 = DIRECTION('',(1.,0.,0.));
#1247 = ORIENTED_EDGE('',*,*,#1248,.T.);
#1248 = EDGE_CURVE('',#1240,#1215,#1249,.T.);
#1249 = LINE('',#1250,#1251);
#1250 = CARTESIAN_POINT('',(31.,0.,0.));
#1251 = VECTOR('',#1252,1.);
#1252 = DIRECTION('',(0.371390676354,0.,0.928476690885));
#1253 = ORIENTED_EDGE('',*,*,#1214,.F.);
#1254 = ORIENTED_EDGE('',*,*,#1248,.F.);
#1255 = CONICAL_SURFACE('',#1256,31.,0.380506377112);
#1256 = AXIS2_PLACEMENT_3D('',#1257,#1258,#1259);
#1257 = CARTESIAN_POINT('',(0.,0.,0.));
#1258 = DIRECTION('',(0.,0.,1.));
#1259 = DIRECTION('',(1.,0.,0.));
#1260 = ADVANCED_FACE('',(#1261,#1264,#1275,#1286,#1297),#1308,.F.);
#1261 = FACE_BOUND('',#1262,.T.);
#1262 = EDGE_LOOP('',(#1263));
#1263 = ORIENTED_EDGE('',*,*,#1239,.F.);
#1264 = FACE_BOUND('',#1265,.T.);
#1265 = EDGE_LOOP('',(#1266));
#1266 = ORIENTED_EDGE('',*,*,#1267,.T.);
#1267 = EDGE_CURVE('',#1268,#1268,#1270,.T.);
#1268 = VERTEX_POINT('',#1269);
#1269 = CARTESIAN_POINT('',(24.7,-12.,0.));
#1270 = CIRCLE('',#1271,1.7);
#1271 = AXIS2_PLACEMENT_3D('',#1272,#1273,#1274);
#1272 = CARTESIAN_POINT('',(23.,-12.,0.));
#1273 = DIRECTION('',(0.,0.,1.));
#1274 = DIRECTION('',(1.,0.,0.));
#1275 = FACE_BOUND('',#1276,.T.);
#1276 = EDGE_LOOP('',(#1277));
#1277 = ORIENTED_EDGE('',*,*,#1278,.T.);
#1278 = EDGE_CURVE('',#1279,#1279,#1281,.T.);
#1279 = VERTEX_POINT('',#1280);
#1280 = CARTESIAN_POINT('',(-21.3,-12.,0.));
#1281 = CIRCLE('',#1282,1.7);
#1282 = AXIS2_PLACEMENT_3D('',#1283,#1284,#1285);
#1283 = CARTESIAN_POINT('',(-23.,-12.,0.));
#1284 = DIRECTION('',(0.,0.,1.));
#1285 = DIRECTION('',(1.,0.,0.));
#1286 = FACE_BOUND('',#1287,.T.);
#1287 = EDGE_LOOP('',(#1288));
#1288 = ORIENTED_EDGE('',*,*,#1289,.T.);
#1289 = EDGE_CURVE('',#1290,#1290,#1292,.T.);
#1290 = VERTEX_POINT('',#1291);
#1291 = CARTESIAN_POINT('',(24.7,12.,0.));
#1292 = CIRCLE('',#1293,1.7);
#1293 = AXIS2_PLACEMENT_3D('',#1294,#1295,#1296);
#1294 = CARTESIAN_POINT('',(23.,12.,0.));
#1295 = DIRECTION('',(0.,0.,1.));
#1296 = DIRECTION('',(1.,0.,0.));
#1297 = FACE_BOUND('',#1298,.T.);
#1298 = EDGE_LOOP('',(#1299));
#1299 = ORIENTED_EDGE('',*,*,#1300,.T.);
#1300 = EDGE_CURVE('',#1301,#1301,#1303,.T.);
#1301 = VERTEX_POINT('',#1302);
#1302 = CARTESIAN_POINT('',(-21.3,12.,0.));
#1303 = CIRCLE('',#1304,1.7);
#1304 = AXIS2_PLACEMENT_3D('',#1305,#1306,#1307);
#1305 = CARTESIAN_POINT('',(-23.,12.,0.));
#1306 = DIRECTION('',(0.,0.,1.));
#1307 = DIRECTION('',(1.,0.,0.));
#1308 = PLANE('',#1309);
#1309 = AXIS2_PLACEMENT_3D('',#1310,#1311,#1312);
#1310 = CARTESIAN_POINT('',(0.,0.,0.));
#1311 = DIRECTION('',(0.,0.,1.));
#1312 = DIRECTION('',(1.,0.,0.));
#1313 = ADVANCED_FACE('',(#1314,#1322),#1386,.F.);
#1314 = FACE_BOUND('',#1315,.F.);
#1315 = EDGE_LOOP('',(#1316,#1317,#1318,#1319,#1320,#1321));
#1316 = ORIENTED_EDGE('',*,*,#59,.T.);
#1317 = ORIENTED_EDGE('',*,*,#514,.T.);
#1318 = ORIENTED_EDGE('',*,*,#1107,.F.);
#1319 = ORIENTED_EDGE('',*,*,#1116,.F.);
#1320 = ORIENTED_EDGE('',*,*,#564,.F.);
#1321 = ORIENTED_EDGE('',*,*,#50,.T.);
#1322 = FACE_BOUND('',#1323,.F.);
#1323 = EDGE_LOOP('',(#1324,#1357));
#1324 = ORIENTED_EDGE('',*,*,#1325,.F.);
#1325 = EDGE_CURVE('',#1326,#1328,#1330,.T.);
#1326 = VERTEX_POINT('',#1327);
#1327 = CARTESIAN_POINT('',(26.5,0.,13.3));
#1328 = VERTEX_POINT('',#1329);
#1329 = CARTESIAN_POINT('',(26.5,2.08189955855E-16,16.7));
#1330 = B_SPLINE_CURVE_WITH_KNOTS('',7,(#1331,#1332,#1333,#1334,#1335,
    #1336,#1337,#1338,#1339,#1340,#1341,#1342,#1343,#1344,#1345,#1346,
    #1347,#1348,#1349,#1350,#1351,#1352,#1353,#1354,#1355,#1356),
  .UNSPECIFIED.,.F.,.F.,(8,6,6,6,8),(0.,0.257169599881,0.500029452517,
    0.742983327128,1.),.UNSPECIFIED.);
#1331 = CARTESIAN_POINT('',(26.5,1.405808335563E-15,13.3));
#1332 = CARTESIAN_POINT('',(26.5,0.233446391187,13.3));
#1333 = CARTESIAN_POINT('',(26.497600726401,0.46080721438,
    13.337399722423));
#1334 = CARTESIAN_POINT('',(26.493027539381,0.675123737268,
    13.408691672194));
#1335 = CARTESIAN_POINT('',(26.486923710193,0.870606428403,13.5089896378
    ));
#1336 = CARTESIAN_POINT('',(26.480179481968,1.04286705449,
    13.632110314962));
#1337 = CARTESIAN_POINT('',(26.473571568854,1.189356189657,
    13.770700008011));
#1338 = CARTESIAN_POINT('',(26.461974822015,1.423682918274,
    14.05395236506));
#1339 = CARTESIAN_POINT('',(26.456776158538,1.517163260406,
    14.20127260993));
#1340 = CARTESIAN_POINT('',(26.452348920618,1.590918952386,
    14.355304203659));
#1341 = CARTESIAN_POINT('',(26.448910634948,1.645629327296,
    14.513788347238));
#1342 = CARTESIAN_POINT('',(26.44658078271,1.681872336457,
    14.674981344032));
#1343 = CARTESIAN_POINT('',(26.445415481705,1.7,14.837473318129));
#1344 = CARTESIAN_POINT('',(26.445415481705,1.7,15.162589603261));
#1345 = CARTESIAN_POINT('',(26.446581684306,1.681858301375,
    15.325095303883));
#1346 = CARTESIAN_POINT('',(26.448912076898,1.645606947257,
    15.486249642342));
#1347 = CARTESIAN_POINT('',(26.452349084202,1.590914385814,
    15.644664620433));
#1348 = CARTESIAN_POINT('',(26.456773583517,1.517201527343,
    15.798640358951));
#1349 = CARTESIAN_POINT('',(26.461971475318,1.423750542462,
    15.945965891339));
#1350 = CARTESIAN_POINT('',(26.473569255777,1.189402928257,
    16.229243494728));
#1351 = CARTESIAN_POINT('',(26.480177739004,1.0429123212,16.36786485854)
  );
#1352 = CARTESIAN_POINT('',(26.486924625739,0.870603335709,
    16.491034293155));
#1353 = CARTESIAN_POINT('',(26.49303061057,0.67505170389,16.591356082744
    ));
#1354 = CARTESIAN_POINT('',(26.497602894596,0.460686462722,
    16.662634096227));
#1355 = CARTESIAN_POINT('',(26.5,0.233340823094,16.7));
#1356 = CARTESIAN_POINT('',(26.5,1.718093269345E-15,16.7));
#1357 = ORIENTED_EDGE('',*,*,#1358,.F.);
#1358 = EDGE_CURVE('',#1328,#1326,#1359,.T.);
#1359 = B_SPLINE_CURVE_WITH_KNOTS('',7,(#1360,#1361,#1362,#1363,#1364,
    #1365,#1366,#1367,#1368,#1369,#1370,#1371,#1372,#1373,#1374,#1375,
    #1376,#1377,#1378,#1379,#1380,#1381,#1382,#1383,#1384,#1385),
  .UNSPECIFIED.,.F.,.F.,(8,6,6,6,8),(0.,0.257103860325,0.500017447635,
    0.742949755986,1.),.UNSPECIFIED.);
#1360 = CARTESIAN_POINT('',(26.5,-1.554312234475E-15,16.7));
#1361 = CARTESIAN_POINT('',(26.5,-0.233446391187,16.7));
#1362 = CARTESIAN_POINT('',(26.497600726401,-0.46080721438,
    16.662600277577));
#1363 = CARTESIAN_POINT('',(26.493027539381,-0.675123737269,
    16.591308327806));
#1364 = CARTESIAN_POINT('',(26.486923710193,-0.870606428402,
    16.4910103622));
#1365 = CARTESIAN_POINT('',(26.480179481968,-1.04286705449,
    16.367889685038));
#1366 = CARTESIAN_POINT('',(26.473571568854,-1.189356189657,
    16.229299991989));
#1367 = CARTESIAN_POINT('',(26.461972135303,-1.423737206649,
    15.945982011568));
#1368 = CARTESIAN_POINT('',(26.456774130459,-1.517193184661,
    15.798658508169));
#1369 = CARTESIAN_POINT('',(26.452349107595,-1.590914463668,
    15.644672573026));
#1370 = CARTESIAN_POINT('',(26.448911813579,-1.645611001373,
    15.486243922486));
#1371 = CARTESIAN_POINT('',(26.446581506803,-1.681861076462,
    15.325081160191));
#1372 = CARTESIAN_POINT('',(26.445415481705,-1.7,15.16257707127));
#1373 = CARTESIAN_POINT('',(26.445415481705,-1.7,14.837410399121));
#1374 = CARTESIAN_POINT('',(26.446581684282,-1.681858301949,
    14.674904690232));
#1375 = CARTESIAN_POINT('',(26.448912077028,-1.645606944502,
    14.513750361944));
#1376 = CARTESIAN_POINT('',(26.452349083943,-1.590914391055,
    14.355335381767));
#1377 = CARTESIAN_POINT('',(26.456773583755,-1.517201522586,
    14.201359636155));
#1378 = CARTESIAN_POINT('',(26.461971475228,-1.423750544292,
    14.054034110872));
#1379 = CARTESIAN_POINT('',(26.473570563965,-1.189376494704,
    13.770724552596));
#1380 = CARTESIAN_POINT('',(26.480178592406,-1.042889434157,
    13.632124364959));
#1381 = CARTESIAN_POINT('',(26.486923894596,-0.870610273328,13.508982455
    ));
#1382 = CARTESIAN_POINT('',(26.493028833078,-0.675096666969,
    13.408671456733));
#1383 = CARTESIAN_POINT('',(26.497601745769,-0.460754310975,
    13.337383849447));
#1384 = CARTESIAN_POINT('',(26.5,-0.233396861549,13.3));
#1385 = CARTESIAN_POINT('',(26.5,-1.7763568394E-15,13.3));
#1386 = CYLINDRICAL_SURFACE('',#1387,26.5);
#1387 = AXIS2_PLACEMENT_3D('',#1388,#1389,#1390);
#1388 = CARTESIAN_POINT('',(0.,0.,9.5));
#1389 = DIRECTION('',(0.,0.,1.));
#1390 = DIRECTION('',(1.,0.,0.));
#1391 = ADVANCED_FACE('',(#1392),#1465,.F.);
#1392 = FACE_BOUND('',#1393,.F.);
#1393 = EDGE_LOOP('',(#1394,#1427,#1433,#1434,#1435,#1436));
#1394 = ORIENTED_EDGE('',*,*,#1395,.F.);
#1395 = EDGE_CURVE('',#1396,#1398,#1400,.T.);
#1396 = VERTEX_POINT('',#1397);
#1397 = CARTESIAN_POINT('',(28.85,-3.324916059685E-15,16.7));
#1398 = VERTEX_POINT('',#1399);
#1399 = CARTESIAN_POINT('',(28.85,-7.06621203108E-15,13.3));
#1400 = B_SPLINE_CURVE_WITH_KNOTS('',7,(#1401,#1402,#1403,#1404,#1405,
    #1406,#1407,#1408,#1409,#1410,#1411,#1412,#1413,#1414,#1415,#1416,
    #1417,#1418,#1419,#1420,#1421,#1422,#1423,#1424,#1425,#1426),
  .UNSPECIFIED.,.F.,.F.,(8,6,6,6,8),(0.,0.257099302903,0.500017257429,
    0.74295639505,1.),.UNSPECIFIED.);
#1401 = CARTESIAN_POINT('',(28.85,-1.7763568394E-15,16.7));
#1402 = CARTESIAN_POINT('',(28.85,-0.233435204109,16.7));
#1403 = CARTESIAN_POINT('',(28.847796373969,-0.460794041258,
    16.662603859839));
#1404 = CARTESIAN_POINT('',(28.843595791169,-0.675114211494,
    16.591313616697));
#1405 = CARTESIAN_POINT('',(28.837989245476,-0.87060176942,
    16.491014458618));
#1406 = CARTESIAN_POINT('',(28.831794898262,-1.042865849224,
    16.367891293616));
#1407 = CARTESIAN_POINT('',(28.825726103712,-1.189356431747,
    16.229299699353));
#1408 = CARTESIAN_POINT('',(28.815073386461,-1.423741043464,
    15.945977373656));
#1409 = CARTESIAN_POINT('',(28.810299706893,-1.517200579764,
    15.798647253054));
#1410 = CARTESIAN_POINT('',(28.806236174138,-1.59092236823,
    15.644655272146));
#1411 = CARTESIAN_POINT('',(28.803079968272,-1.645616456361,
    15.486224299768));
#1412 = CARTESIAN_POINT('',(28.800940369692,-1.681863136248,
    15.325064496586));
#1413 = CARTESIAN_POINT('',(28.799869791372,-1.7,15.162567840445));
#1414 = CARTESIAN_POINT('',(28.799869791372,-1.7,14.837417983204));
#1415 = CARTESIAN_POINT('',(28.80094055431,-1.681859994645,
    14.674919435995));
#1416 = CARTESIAN_POINT('',(28.803080242743,-1.645611849334,
    14.513769250116));
#1417 = CARTESIAN_POINT('',(28.806236148209,-1.590922314335,
    14.355353947643));
#1418 = CARTESIAN_POINT('',(28.810299127204,-1.517210200162,
    14.201373704703));
#1419 = CARTESIAN_POINT('',(28.815072685106,-1.423756474913,
    14.054041279762));
#1420 = CARTESIAN_POINT('',(28.825725181657,-1.189376719102,
    13.770724823846));
#1421 = CARTESIAN_POINT('',(28.831794082091,-1.042888206768,
    13.632122741115));
#1422 = CARTESIAN_POINT('',(28.837989414497,-0.87060561058,
    13.508978366508));
#1423 = CARTESIAN_POINT('',(28.843596978202,-0.675087170919,
    13.408666190096));
#1424 = CARTESIAN_POINT('',(28.847797309378,-0.460741193506,
    13.337380282588));
#1425 = CARTESIAN_POINT('',(28.85,-0.233385720054,13.3));
#1426 = CARTESIAN_POINT('',(28.85,-2.22044604925E-15,13.3));
#1427 = ORIENTED_EDGE('',*,*,#1428,.F.);
#1428 = EDGE_CURVE('',#1328,#1396,#1429,.T.);
#1429 = LINE('',#1430,#1431);
#1430 = CARTESIAN_POINT('',(24.,4.163799117101E-16,16.7));
#1431 = VECTOR('',#1432,1.);
#1432 = DIRECTION('',(1.,0.,0.));
#1433 = ORIENTED_EDGE('',*,*,#1358,.T.);
#1434 = ORIENTED_EDGE('',*,*,#1325,.T.);
#1435 = ORIENTED_EDGE('',*,*,#1428,.T.);
#1436 = ORIENTED_EDGE('',*,*,#1437,.F.);
#1437 = EDGE_CURVE('',#1398,#1396,#1438,.T.);
#1438 = B_SPLINE_CURVE_WITH_KNOTS('',7,(#1439,#1440,#1441,#1442,#1443,
    #1444,#1445,#1446,#1447,#1448,#1449,#1450,#1451,#1452,#1453,#1454,
    #1455,#1456,#1457,#1458,#1459,#1460,#1461,#1462,#1463,#1464),
  .UNSPECIFIED.,.F.,.F.,(8,6,6,6,8),(0.,0.257175209833,0.500018827065,
    0.742984570207,1.),.UNSPECIFIED.);
#1439 = CARTESIAN_POINT('',(28.85,1.405808335563E-15,13.3));
#1440 = CARTESIAN_POINT('',(28.85,0.233435204109,13.3));
#1441 = CARTESIAN_POINT('',(28.847796373969,0.460794041259,
    13.337396140161));
#1442 = CARTESIAN_POINT('',(28.843595791169,0.675114211494,
    13.408686383303));
#1443 = CARTESIAN_POINT('',(28.837989245476,0.87060176942,
    13.508985541383));
#1444 = CARTESIAN_POINT('',(28.831794898262,1.042865849224,
    13.632108706384));
#1445 = CARTESIAN_POINT('',(28.825726103712,1.189356431747,
    13.770700300647));
#1446 = CARTESIAN_POINT('',(28.815076497249,1.423672598881,
    14.053939891056));
#1447 = CARTESIAN_POINT('',(28.81030210569,1.517161731206,
    14.201264543174));
#1448 = CARTESIAN_POINT('',(28.806236016698,1.590927142967,
    14.355313176228));
#1449 = CARTESIAN_POINT('',(28.803078585317,1.645639869873,
    14.513815382602));
#1450 = CARTESIAN_POINT('',(28.800939479206,1.681878219514,
    14.675016380948));
#1451 = CARTESIAN_POINT('',(28.799869791372,1.7,14.83749970217));
#1452 = CARTESIAN_POINT('',(28.799869791372,1.7,15.162582019133));
#1453 = CARTESIAN_POINT('',(28.800940554332,1.681859994082,
    15.325080558229));
#1454 = CARTESIAN_POINT('',(28.803080242625,1.645611852039,
    15.486230754094));
#1455 = CARTESIAN_POINT('',(28.806236148442,1.590922309187,
    15.644646054516));
#1456 = CARTESIAN_POINT('',(28.81029912699,1.517210204837,
    15.798626290488));
#1457 = CARTESIAN_POINT('',(28.815072685187,1.423756473114,
    15.945958722412));
#1458 = CARTESIAN_POINT('',(28.82572398165,1.189403122059,
    16.229243260461));
#1459 = CARTESIAN_POINT('',(28.831793298818,1.042911074858,
    16.367866485805));
#1460 = CARTESIAN_POINT('',(28.837990084797,0.870598690422,
    16.491038359649));
#1461 = CARTESIAN_POINT('',(28.84359860939,0.675042257548,
    16.591361322794));
#1462 = CARTESIAN_POINT('',(28.847798363321,0.460673413988,
    16.662637641176));
#1463 = CARTESIAN_POINT('',(28.85,0.233329747664,16.7));
#1464 = CARTESIAN_POINT('',(28.85,1.718093269345E-15,16.7));
#1465 = CYLINDRICAL_SURFACE('',#1466,1.7);
#1466 = AXIS2_PLACEMENT_3D('',#1467,#1468,#1469);
#1467 = CARTESIAN_POINT('',(24.,0.,15.));
#1468 = DIRECTION('',(1.,0.,0.));
#1469 = DIRECTION('',(0.,0.,1.));
#1470 = ADVANCED_FACE('',(#1471,#1479),#1483,.T.);
#1471 = FACE_BOUND('',#1472,.T.);
#1472 = EDGE_LOOP('',(#1473,#1474,#1475,#1476,#1477,#1478));
#1473 = ORIENTED_EDGE('',*,*,#1089,.F.);
#1474 = ORIENTED_EDGE('',*,*,#605,.F.);
#1475 = ORIENTED_EDGE('',*,*,#804,.T.);
#1476 = ORIENTED_EDGE('',*,*,#795,.T.);
#1477 = ORIENTED_EDGE('',*,*,#480,.T.);
#1478 = ORIENTED_EDGE('',*,*,#1098,.F.);
#1479 = FACE_BOUND('',#1480,.T.);
#1480 = EDGE_LOOP('',(#1481,#1482));
#1481 = ORIENTED_EDGE('',*,*,#1395,.F.);
#1482 = ORIENTED_EDGE('',*,*,#1437,.F.);
#1483 = CYLINDRICAL_SURFACE('',#1484,28.85);
#1484 = AXIS2_PLACEMENT_3D('',#1485,#1486,#1487);
#1485 = CARTESIAN_POINT('',(0.,0.,10.5));
#1486 = DIRECTION('',(0.,0.,1.));
#1487 = DIRECTION('',(1.,0.,0.));
#1488 = ADVANCED_FACE('',(#1489),#1499,.F.);
#1489 = FACE_BOUND('',#1490,.F.);
#1490 = EDGE_LOOP('',(#1491,#1492,#1497,#1498));
#1491 = ORIENTED_EDGE('',*,*,#1278,.T.);
#1492 = ORIENTED_EDGE('',*,*,#1493,.T.);
#1493 = EDGE_CURVE('',#1279,#937,#1494,.T.);
#1494 = B_SPLINE_CURVE_WITH_KNOTS('',1,(#1495,#1496),.UNSPECIFIED.,.F.,
  .F.,(2,2),(0.5,22.3),.PIECEWISE_BEZIER_KNOTS.);
#1495 = CARTESIAN_POINT('',(-21.3,-12.,0.));
#1496 = CARTESIAN_POINT('',(-21.3,-12.,21.8));
#1497 = ORIENTED_EDGE('',*,*,#936,.F.);
#1498 = ORIENTED_EDGE('',*,*,#1493,.F.);
#1499 = CYLINDRICAL_SURFACE('',#1500,1.7);
#1500 = AXIS2_PLACEMENT_3D('',#1501,#1502,#1503);
#1501 = CARTESIAN_POINT('',(-23.,-12.,-0.5));
#1502 = DIRECTION('',(0.,0.,1.));
#1503 = DIRECTION('',(1.,0.,0.));
#1504 = ADVANCED_FACE('',(#1505),#1515,.F.);
#1505 = FACE_BOUND('',#1506,.F.);
#1506 = EDGE_LOOP('',(#1507,#1508,#1513,#1514));
#1507 = ORIENTED_EDGE('',*,*,#1300,.T.);
#1508 = ORIENTED_EDGE('',*,*,#1509,.T.);
#1509 = EDGE_CURVE('',#1301,#1055,#1510,.T.);
#1510 = B_SPLINE_CURVE_WITH_KNOTS('',1,(#1511,#1512),.UNSPECIFIED.,.F.,
  .F.,(2,2),(0.5,22.3),.PIECEWISE_BEZIER_KNOTS.);
#1511 = CARTESIAN_POINT('',(-21.3,12.,0.));
#1512 = CARTESIAN_POINT('',(-21.3,12.,21.8));
#1513 = ORIENTED_EDGE('',*,*,#1054,.F.);
#1514 = ORIENTED_EDGE('',*,*,#1509,.F.);
#1515 = CYLINDRICAL_SURFACE('',#1516,1.7);
#1516 = AXIS2_PLACEMENT_3D('',#1517,#1518,#1519);
#1517 = CARTESIAN_POINT('',(-23.,12.,-0.5));
#1518 = DIRECTION('',(0.,0.,1.));
#1519 = DIRECTION('',(1.,0.,0.));
#1520 = ADVANCED_FACE('',(#1521),#1531,.F.);
#1521 = FACE_BOUND('',#1522,.F.);
#1522 = EDGE_LOOP('',(#1523,#1524,#1529,#1530));
#1523 = ORIENTED_EDGE('',*,*,#1289,.T.);
#1524 = ORIENTED_EDGE('',*,*,#1525,.T.);
#1525 = EDGE_CURVE('',#1290,#1136,#1526,.T.);
#1526 = B_SPLINE_CURVE_WITH_KNOTS('',1,(#1527,#1528),.UNSPECIFIED.,.F.,
  .F.,(2,2),(0.5,22.3),.PIECEWISE_BEZIER_KNOTS.);
#1527 = CARTESIAN_POINT('',(24.7,12.,0.));
#1528 = CARTESIAN_POINT('',(24.7,12.,21.8));
#1529 = ORIENTED_EDGE('',*,*,#1135,.F.);
#1530 = ORIENTED_EDGE('',*,*,#1525,.F.);
#1531 = CYLINDRICAL_SURFACE('',#1532,1.7);
#1532 = AXIS2_PLACEMENT_3D('',#1533,#1534,#1535);
#1533 = CARTESIAN_POINT('',(23.,12.,-0.5));
#1534 = DIRECTION('',(0.,0.,1.));
#1535 = DIRECTION('',(1.,0.,0.));
#1536 = ADVANCED_FACE('',(#1537),#1547,.F.);
#1537 = FACE_BOUND('',#1538,.F.);
#1538 = EDGE_LOOP('',(#1539,#1540,#1545,#1546));
#1539 = ORIENTED_EDGE('',*,*,#1267,.T.);
#1540 = ORIENTED_EDGE('',*,*,#1541,.T.);
#1541 = EDGE_CURVE('',#1268,#1156,#1542,.T.);
#1542 = B_SPLINE_CURVE_WITH_KNOTS('',1,(#1543,#1544),.UNSPECIFIED.,.F.,
  .F.,(2,2),(0.5,22.3),.PIECEWISE_BEZIER_KNOTS.);
#1543 = CARTESIAN_POINT('',(24.7,-12.,0.));
#1544 = CARTESIAN_POINT('',(24.7,-12.,21.8));
#1545 = ORIENTED_EDGE('',*,*,#1155,.F.);
#1546 = ORIENTED_EDGE('',*,*,#1541,.F.);
#1547 = CYLINDRICAL_SURFACE('',#1548,1.7);
#1548 = AXIS2_PLACEMENT_3D('',#1549,#1550,#1551);
#1549 = CARTESIAN_POINT('',(23.,-12.,-0.5));
#1550 = DIRECTION('',(0.,0.,1.));
#1551 = DIRECTION('',(1.,0.,0.));
#1552 = ( GEOMETRIC_REPRESENTATION_CONTEXT(3) 
GLOBAL_UNCERTAINTY_ASSIGNED_CONTEXT((#1556)) 
GLOBAL_UNIT_ASSIGNED_CONTEXT((#1553,#1554,#1555)) REPRESENTATION_CONTEXT
('Context #1','3D Context with UNIT and UNCERTAINTY') );
#1553 = ( LENGTH_UNIT() NAMED_UNIT(*) SI_UNIT(.MILLI.,.METRE.) );
#1554 = ( NAMED_UNIT(*) PLANE_ANGLE_UNIT() SI_UNIT($,.RADIAN.) );
#1555 = ( NAMED_UNIT(*) SI_UNIT($,.STERADIAN.) SOLID_ANGLE_UNIT() );
#1556 = UNCERTAINTY_MEASURE_WITH_UNIT(LENGTH_MEASURE(1.E-06),#1553,
  'distance_accuracy_value','confusion accuracy');
#1557 = PRODUCT_RELATED_PRODUCT_CATEGORY('part',$,(#7));
ENDSEC;
END-ISO-10303-21;
