ISO-10303-21;
HEADER;
FILE_DESCRIPTION(('FreeCAD Model'),'2;1');
FILE_NAME('Open CASCADE Shape Model','2026-09-19T17:18:18',('FreeCAD'),(
    'FreeCAD'),'Open CASCADE STEP processor 7.8','FreeCAD','Unknown');
FILE_SCHEMA(('AUTOMOTIVE_DESIGN { 1 0 10303 214 1 1 1 1 }'));
ENDSEC;
DATA;
#1 = APPLICATION_PROTOCOL_DEFINITION('international standard',
  'automotive_design',2000,#2);
#2 = APPLICATION_CONTEXT(
  'core data for automotive mechanical design processes');
#3 = SHAPE_DEFINITION_REPRESENTATION(#4,#10);
#4 = PRODUCT_DEFINITION_SHAPE('','',#5);
#5 = PRODUCT_DEFINITION('design','',#6,#9);
#6 = PRODUCT_DEFINITION_FORMATION('','',#7);
#7 = PRODUCT('Open CASCADE STEP translator 7.8 4',
  'Open CASCADE STEP translator 7.8 4','',(#8));
#8 = PRODUCT_CONTEXT('',#2,'mechanical');
#9 = PRODUCT_DEFINITION_CONTEXT('part definition',#2,'design');
#10 = ADVANCED_BREP_SHAPE_REPRESENTATION('',(#11,#15),#1302);
#11 = AXIS2_PLACEMENT_3D('',#12,#13,#14);
#12 = CARTESIAN_POINT('',(0.,0.,0.));
#13 = DIRECTION('',(0.,0.,1.));
#14 = DIRECTION('',(1.,0.,-0.));
#15 = MANIFOLD_SOLID_BREP('',#16);
#16 = CLOSED_SHELL('',(#17,#269,#548,#591,#634,#687,#740,#758,#906,#957,
    #982,#1028,#1060,#1085,#1103,#1251,#1274,#1291));
#17 = ADVANCED_FACE('',(#18,#130),#264,.T.);
#18 = FACE_BOUND('',#19,.T.);
#19 = EDGE_LOOP('',(#20,#31,#40,#77,#86,#123));
#20 = ORIENTED_EDGE('',*,*,#21,.F.);
#21 = EDGE_CURVE('',#22,#24,#26,.T.);
#22 = VERTEX_POINT('',#23);
#23 = CARTESIAN_POINT('',(14.,34.357095337062,100.));
#24 = VERTEX_POINT('',#25);
#25 = CARTESIAN_POINT('',(-14.,34.357095337062,100.));
#26 = CIRCLE('',#27,37.1);
#27 = AXIS2_PLACEMENT_3D('',#28,#29,#30);
#28 = CARTESIAN_POINT('',(0.,0.,100.));
#29 = DIRECTION('',(0.,0.,1.));
#30 = DIRECTION('',(1.,0.,0.));
#31 = ORIENTED_EDGE('',*,*,#32,.T.);
#32 = EDGE_CURVE('',#22,#33,#35,.T.);
#33 = VERTEX_POINT('',#34);
#34 = CARTESIAN_POINT('',(14.,34.062413545269,94.));
#35 = HYPERBOLA('',#36,307.99999999999,14.);
#36 = AXIS2_PLACEMENT_3D('',#37,#38,#39);
#37 = CARTESIAN_POINT('',(14.,0.,-716.1999999999));
#38 = DIRECTION('',(1.,0.,-0.));
#39 = DIRECTION('',(0.,0.,1.));
#40 = ORIENTED_EDGE('',*,*,#41,.T.);
#41 = EDGE_CURVE('',#33,#42,#44,.T.);
#42 = VERTEX_POINT('',#43);
#43 = CARTESIAN_POINT('',(9.,35.476189197827,89.));
#44 = B_SPLINE_CURVE_WITH_KNOTS('',7,(#45,#46,#47,#48,#49,#50,#51,#52,
    #53,#54,#55,#56,#57,#58,#59,#60,#61,#62,#63,#64,#65,#66,#67,#68,#69,
    #70,#71,#72,#73,#74,#75,#76),.UNSPECIFIED.,.F.,.F.,(8,6,6,6,6,8),(0.
    ,0.376280784859,0.519311195998,0.694028182471,0.824221658213,1.),
  .UNSPECIFIED.);
#45 = CARTESIAN_POINT('',(14.,34.062413545269,94.));
#46 = CARTESIAN_POINT('',(14.,34.044004522874,93.625407337516));
#47 = CARTESIAN_POINT('',(13.967259140543,34.03902414779,93.25027379423)
  );
#48 = CARTESIAN_POINT('',(13.901604371832,34.047678167868,
    92.876728968729));
#49 = CARTESIAN_POINT('',(13.802641311464,34.070047438689,
    92.507161530359));
#50 = CARTESIAN_POINT('',(13.669902141897,34.10600782506,92.144214393064
    ));
#51 = CARTESIAN_POINT('',(13.502912741303,34.15519731846,91.790772191422
    ));
#52 = CARTESIAN_POINT('',(13.224104573111,34.24064256385,91.320520141644
    ));
#53 = CARTESIAN_POINT('',(13.142264359765,34.266010901757,
    91.192856971609));
#54 = CARTESIAN_POINT('',(13.055338717243,34.293183792844,
    91.067232696683));
#55 = CARTESIAN_POINT('',(12.963294511084,34.322125134817,90.94384736861
    ));
#56 = CARTESIAN_POINT('',(12.866101713825,34.352792690135,
    90.822917202269));
#57 = CARTESIAN_POINT('',(12.763734160687,34.385137881084,
    90.704674373757));
#58 = CARTESIAN_POINT('',(12.524777040553,34.460598402987,
    90.448514335322));
#59 = CARTESIAN_POINT('',(12.385640261932,34.504508880712,
    90.312052864765));
#60 = CARTESIAN_POINT('',(12.238715681173,34.550738974504,
    90.180426075457));
#61 = CARTESIAN_POINT('',(12.08399209522,34.599167639103,90.054143266167
    ));
#62 = CARTESIAN_POINT('',(11.921504486472,34.649649647208,
    89.933770993126));
#63 = CARTESIAN_POINT('',(11.751347123067,34.702014409193,
    89.819924697371));
#64 = CARTESIAN_POINT('',(11.441299798761,34.79634139929,89.63377747965)
  );
#65 = CARTESIAN_POINT('',(11.304755178359,34.837551428866,
    89.558287929823));
#66 = CARTESIAN_POINT('',(11.164131365519,34.879611069572,
    89.487066095574));
#67 = CARTESIAN_POINT('',(11.019542838604,34.922424238583,
    89.420406428558));
#68 = CARTESIAN_POINT('',(10.871147999185,34.96588279345,89.358614225552
    ));
#69 = CARTESIAN_POINT('',(10.719157184435,35.009866743314,
    89.301996434892));
#70 = CARTESIAN_POINT('',(10.354142939094,35.114160223406,
    89.181801363878));
#71 = CARTESIAN_POINT('',(10.138324631031,35.174810535543,
    89.122708279431));
#72 = CARTESIAN_POINT('',(9.917144389387,35.23584457993,89.074351170084)
  );
#73 = CARTESIAN_POINT('',(9.691522028643,35.296887873637,89.037424807753
    ));
#74 = CARTESIAN_POINT('',(9.462554449363,35.357553319763,89.012509242964
    ));
#75 = CARTESIAN_POINT('',(9.231538386443,35.417449927203,89.));
#76 = CARTESIAN_POINT('',(9.,35.476189197827,89.));
#77 = ORIENTED_EDGE('',*,*,#78,.T.);
#78 = EDGE_CURVE('',#42,#79,#81,.T.);
#79 = VERTEX_POINT('',#80);
#80 = CARTESIAN_POINT('',(-9.,35.476189197827,89.));
#81 = CIRCLE('',#82,36.6);
#82 = AXIS2_PLACEMENT_3D('',#83,#84,#85);
#83 = CARTESIAN_POINT('',(0.,0.,89.));
#84 = DIRECTION('',(0.,0.,1.));
#85 = DIRECTION('',(1.,0.,0.));
#86 = ORIENTED_EDGE('',*,*,#87,.T.);
#87 = EDGE_CURVE('',#79,#88,#90,.T.);
#88 = VERTEX_POINT('',#89);
#89 = CARTESIAN_POINT('',(-14.,34.062413545269,94.));
#90 = B_SPLINE_CURVE_WITH_KNOTS('',7,(#91,#92,#93,#94,#95,#96,#97,#98,
    #99,#100,#101,#102,#103,#104,#105,#106,#107,#108,#109,#110,#111,#112
    ,#113,#114,#115,#116,#117,#118,#119,#120,#121,#122),.UNSPECIFIED.,
  .F.,.F.,(8,6,6,6,6,8),(0.,0.176227134465,0.306447179526,0.480177337062
    ,0.623719148678,1.),.UNSPECIFIED.);
#91 = CARTESIAN_POINT('',(-9.,35.476189197827,89.));
#92 = CARTESIAN_POINT('',(-9.232129683541,35.417299920283,89.));
#93 = CARTESIAN_POINT('',(-9.463734485467,35.357247358897,89.01257321933
    ));
#94 = CARTESIAN_POINT('',(-9.693276248798,35.296423061523,
    89.037615953848));
#95 = CARTESIAN_POINT('',(-9.91944885713,35.235221041426,89.074728845081
    ));
#96 = CARTESIAN_POINT('',(-10.14114818471,35.174031305792,
    89.123326414108));
#97 = CARTESIAN_POINT('',(-10.35744901208,35.113231027634,
    89.182707749876));
#98 = CARTESIAN_POINT('',(-10.72286821036,35.008794769429,
    89.303355968336));
#99 = CARTESIAN_POINT('',(-10.87481571382,34.964812397574,
    89.360094457058));
#100 = CARTESIAN_POINT('',(-11.02316187791,34.921357779273,
    89.422004105211));
#101 = CARTESIAN_POINT('',(-11.16769703124,34.878550800804,
    89.488777788307));
#102 = CARTESIAN_POINT('',(-11.30826336289,34.836499493687,
    89.560110140043));
#103 = CARTESIAN_POINT('',(-11.44474691463,34.795299827404,
    89.635706722066));
#104 = CARTESIAN_POINT('',(-11.75360488516,34.701317754005,
    89.821471703019));
#105 = CARTESIAN_POINT('',(-11.92271930114,34.649269306761,
    89.934742395396));
#106 = CARTESIAN_POINT('',(-12.08424976733,34.599083688325,
    90.054460794179));
#107 = CARTESIAN_POINT('',(-12.23810389987,34.550928481461,
    90.180022108278));
#108 = CARTESIAN_POINT('',(-12.38424724647,34.50494647237,
    90.310869374414));
#109 = CARTESIAN_POINT('',(-12.5226905481,34.461256799328,
    90.446501599324));
#110 = CARTESIAN_POINT('',(-12.76153725111,34.385832048827,
    90.702138426519));
#111 = CARTESIAN_POINT('',(-12.86436363179,34.353341125868,
    90.820755761868));
#112 = CARTESIAN_POINT('',(-12.96197781967,34.32253915289,90.94208304072
    ));
#113 = CARTESIAN_POINT('',(-13.05440620288,34.293475304363,
    91.065885393866));
#114 = CARTESIAN_POINT('',(-13.14167910782,34.266192317857,
    91.191944156933));
#115 = CARTESIAN_POINT('',(-13.22383002638,34.24072670311,91.32005707715
    ));
#116 = CARTESIAN_POINT('',(-13.50291273943,34.155197319031,
    91.790772188277));
#117 = CARTESIAN_POINT('',(-13.66990213979,34.106007825667,
    92.144214388196));
#118 = CARTESIAN_POINT('',(-13.80264130983,34.070047439093,
    92.507161525023));
#119 = CARTESIAN_POINT('',(-13.90160437089,34.047678168017,
    92.876728963872));
#120 = CARTESIAN_POINT('',(-13.9672591402,34.039024147751,
    93.250273790608));
#121 = CARTESIAN_POINT('',(-14.,34.044004522779,93.625407335582));
#122 = CARTESIAN_POINT('',(-14.,34.062413545269,94.));
#123 = ORIENTED_EDGE('',*,*,#124,.F.);
#124 = EDGE_CURVE('',#24,#88,#125,.T.);
#125 = HYPERBOLA('',#126,307.99999999999,14.);
#126 = AXIS2_PLACEMENT_3D('',#127,#128,#129);
#127 = CARTESIAN_POINT('',(-14.,0.,-716.1999999999));
#128 = DIRECTION('',(1.,0.,-0.));
#129 = DIRECTION('',(0.,0.,1.));
#130 = FACE_BOUND('',#131,.T.);
#131 = EDGE_LOOP('',(#132));
#132 = ORIENTED_EDGE('',*,*,#133,.F.);
#133 = EDGE_CURVE('',#134,#134,#136,.T.);
#134 = VERTEX_POINT('',#135);
#135 = CARTESIAN_POINT('',(-3.918869757272E-16,36.990909090909,97.6));
#136 = B_SPLINE_CURVE_WITH_KNOTS('',6,(#137,#138,#139,#140,#141,#142,
    #143,#144,#145,#146,#147,#148,#149,#150,#151,#152,#153,#154,#155,
    #156,#157,#158,#159,#160,#161,#162,#163,#164,#165,#166,#167,#168,
    #169,#170,#171,#172,#173,#174,#175,#176,#177,#178,#179,#180,#181,
    #182,#183,#184,#185,#186,#187,#188,#189,#190,#191,#192,#193,#194,
    #195,#196,#197,#198,#199,#200,#201,#202,#203,#204,#205,#206,#207,
    #208,#209,#210,#211,#212,#213,#214,#215,#216,#217,#218,#219,#220,
    #221,#222,#223,#224,#225,#226,#227,#228,#229,#230,#231,#232,#233,
    #234,#235,#236,#237,#238,#239,#240,#241,#242,#243,#244,#245,#246,
    #247,#248,#249,#250,#251,#252,#253,#254,#255,#256,#257,#258,#259,
    #260,#261,#262,#263),.UNSPECIFIED.,.T.,.F.,(7,5,5,5,5,5,5,5,5,5,5,5,
    5,5,5,5,5,5,5,5,5,5,5,5,5,7),(0.,5.41241795784E-02,
    8.733466557335E-02,0.129830166551,0.162128873909,0.186755958073,
    0.249244418204,0.336925354091,0.36922256097,0.411729112735,
    0.445416005159,0.463360274932,0.4748071186,0.499995391016,
    0.536629549244,0.554574188902,0.588261775713,0.630769203665,
    0.663067076287,0.75074981954,0.813239567745,0.837867159547,
    0.870166532678,0.912662909615,0.945874080177,1.),.UNSPECIFIED.);
#137 = CARTESIAN_POINT('',(-4.440892098501E-16,36.990909090909,97.6));
#138 = CARTESIAN_POINT('',(0.105375588194,36.990909090909,97.6));
#139 = CARTESIAN_POINT('',(0.210793656441,36.990170332738,
    97.591671769799));
#140 = CARTESIAN_POINT('',(0.314689987431,36.988691654143,
    97.575004257486));
#141 = CARTESIAN_POINT('',(0.415792045444,36.986530350958,
    97.550478355468));
#142 = CARTESIAN_POINT('',(0.513101259595,36.983775795401,
    97.518806695917));
#143 = CARTESIAN_POINT('',(0.662793124936,36.978539110264,
    97.457562305361));
#144 = CARTESIAN_POINT('',(0.718032643217,36.97636205985,97.4318964692)
  );
#145 = CARTESIAN_POINT('',(0.771444327571,36.974021663757,
    97.404036751364));
#146 = CARTESIAN_POINT('',(0.822929950345,36.971540712042,
    97.374169436376));
#147 = CARTESIAN_POINT('',(0.87242815531,36.968941142966,97.342473901787
    ));
#148 = CARTESIAN_POINT('',(0.980655624179,36.962789978354,
    97.266423124574));
#149 = CARTESIAN_POINT('',(1.038091719389,36.959175695556,
    97.221009555102));
#150 = CARTESIAN_POINT('',(1.092151507443,36.9554413336,97.17320773416)
  );
#151 = CARTESIAN_POINT('',(1.142822838104,36.951623915921,
    97.123322705412));
#152 = CARTESIAN_POINT('',(1.190127967108,36.947755432172,
    97.071620536356));
#153 = CARTESIAN_POINT('',(1.267535487311,36.940903140524,
    96.977809940356));
#154 = CARTESIAN_POINT('',(1.299039968406,36.937929979809,
    96.936378606275));
#155 = CARTESIAN_POINT('',(1.328639662882,36.934954388025,
    96.894124678235));
#156 = CARTESIAN_POINT('',(1.356353741861,36.931986734835,
    96.851136970471));
#157 = CARTESIAN_POINT('',(1.382202590136,36.929036084737,96.80749500785
    ));
#158 = CARTESIAN_POINT('',(1.424511277872,36.923879269339,
    96.729547645979));
#159 = CARTESIAN_POINT('',(1.441742517965,36.921662780826,
    96.695487190715));
#160 = CARTESIAN_POINT('',(1.457910702922,36.919464199635,
    96.661119063609));
#161 = CARTESIAN_POINT('',(1.473024445094,36.917286670897,
    96.626472650427));
#162 = CARTESIAN_POINT('',(1.487091792719,36.915133016774,
    96.591575319166));
#163 = CARTESIAN_POINT('',(1.533178426063,36.907608001547,
    96.467332008297));
#164 = CARTESIAN_POINT('',(1.559544503698,36.902380615634,
    96.376767946114));
#165 = CARTESIAN_POINT('',(1.579347047576,36.89736371675,96.285161583924
    ));
#166 = CARTESIAN_POINT('',(1.592663844927,36.892587805995,
    96.192875773273));
#167 = CARTESIAN_POINT('',(1.599543174754,36.888074940941,
    96.100244762657));
#168 = CARTESIAN_POINT('',(1.6005978734,36.877897248551,95.87755149394)
  );
#169 = CARTESIAN_POINT('',(1.588533062454,36.872504255681,
    95.747514723919));
#170 = CARTESIAN_POINT('',(1.563802634522,36.867698073403,95.6182700681)
  );
#171 = CARTESIAN_POINT('',(1.526187665604,36.863499987714,
    95.490767545478));
#172 = CARTESIAN_POINT('',(1.47541472678,36.85990771749,95.366109631572)
  );
#173 = CARTESIAN_POINT('',(1.387272332556,36.855782796272,
    95.201245940343));
#174 = CARTESIAN_POINT('',(1.361697975741,36.854750945863,
    95.157439211191));
#175 = CARTESIAN_POINT('',(1.334254801768,36.853796354336,
    95.114276247766));
#176 = CARTESIAN_POINT('',(1.304922348047,36.852917256948,
    95.071836717504));
#177 = CARTESIAN_POINT('',(1.273681414364,36.852111412447,
    95.030209516804));
#178 = CARTESIAN_POINT('',(1.19686230845,36.850408357918,94.93590521254)
  );
#179 = CARTESIAN_POINT('',(1.149877213677,36.849562815907,94.88389859291
    ));
#180 = CARTESIAN_POINT('',(1.099517542464,36.848833185023,
    94.833692631655));
#181 = CARTESIAN_POINT('',(1.045760992815,36.848211682532,
    94.785553216734));
#182 = CARTESIAN_POINT('',(0.988619310705,36.847688967755,
    94.739784814095));
#183 = CARTESIAN_POINT('',(0.880233532522,36.846909417602,
    94.662595836245));
#184 = CARTESIAN_POINT('',(0.830228802418,36.846619944278,
    94.630170863735));
#185 = CARTESIAN_POINT('',(0.778173912518,36.846380295653,
    94.599616456693));
#186 = CARTESIAN_POINT('',(0.724132121512,36.846184498949,
    94.571119312464));
#187 = CARTESIAN_POINT('',(0.66820510957,36.84602632097,94.544873364513)
  );
#188 = CARTESIAN_POINT('',(0.579827411939,36.845832131071,
    94.508388657741));
#189 = CARTESIAN_POINT('',(0.54861997361,36.845773581577,94.496401158212
    ));
#190 = CARTESIAN_POINT('',(0.516943582916,36.845723033614,94.48513565306
    ));
#191 = CARTESIAN_POINT('',(0.484825502696,36.845679591975,
    94.474620125092));
#192 = CARTESIAN_POINT('',(0.452297200732,36.845642405387,94.46488120646
    ));
#193 = CARTESIAN_POINT('',(0.398405265409,36.845590419938,94.45024315202
    ));
#194 = CARTESIAN_POINT('',(0.377263766582,36.845572393338,
    94.444868345443));
#195 = CARTESIAN_POINT('',(0.355979177589,36.845556379925,
    94.439826249096));
#196 = CARTESIAN_POINT('',(0.334561473299,36.845542188628,
    94.435122865098));
#197 = CARTESIAN_POINT('',(0.31302127912,36.845529644092,94.430763707522
    ));
#198 = CARTESIAN_POINT('',(0.243726906558,36.845494255319,
    94.417930183802));
#199 = CARTESIAN_POINT('',(0.195543372614,36.845477129421,
    94.410797194817));
#200 = CARTESIAN_POINT('',(0.146943044368,36.845465519355,
    94.405408659282));
#201 = CARTESIAN_POINT('',(9.805802939211E-02,36.845458207887,
    94.401802837586));
#202 = CARTESIAN_POINT('',(4.902809573323E-02,36.845454545455,94.4));
#203 = CARTESIAN_POINT('',(-7.130711415966E-02,36.845454545455,94.4));
#204 = CARTESIAN_POINT('',(-0.142624134381,36.8454623094,94.403813754784
    ));
#205 = CARTESIAN_POINT('',(-0.213487842826,36.845477728553,
    94.411442136655));
#206 = CARTESIAN_POINT('',(-0.283478687493,36.845503814568,
    94.422792474943));
#207 = CARTESIAN_POINT('',(-0.352222856063,36.845545871283,
    94.437699148579));
#208 = CARTESIAN_POINT('',(-0.452297200732,36.845642405387,
    94.46488120646));
#209 = CARTESIAN_POINT('',(-0.484825502696,36.845679591975,
    94.474620125092));
#210 = CARTESIAN_POINT('',(-0.516943582916,36.845723033614,
    94.48513565306));
#211 = CARTESIAN_POINT('',(-0.54861997361,36.845773581577,
    94.496401158212));
#212 = CARTESIAN_POINT('',(-0.579827411939,36.845832131071,
    94.508388657741));
#213 = CARTESIAN_POINT('',(-0.66820510957,36.84602632097,94.544873364513
    ));
#214 = CARTESIAN_POINT('',(-0.724132121512,36.846184498949,
    94.571119312464));
#215 = CARTESIAN_POINT('',(-0.778173912518,36.846380295653,
    94.599616456694));
#216 = CARTESIAN_POINT('',(-0.830228802418,36.846619944278,
    94.630170863735));
#217 = CARTESIAN_POINT('',(-0.880233532522,36.846909417602,
    94.662595836245));
#218 = CARTESIAN_POINT('',(-0.988619310705,36.847688967755,
    94.739784814095));
#219 = CARTESIAN_POINT('',(-1.045760992815,36.848211682532,
    94.785553216734));
#220 = CARTESIAN_POINT('',(-1.099517542464,36.848833185023,
    94.833692631655));
#221 = CARTESIAN_POINT('',(-1.149877213677,36.849562815907,
    94.88389859291));
#222 = CARTESIAN_POINT('',(-1.19686230845,36.850408357918,94.93590521254
    ));
#223 = CARTESIAN_POINT('',(-1.273681414364,36.852111412447,
    95.030209516804));
#224 = CARTESIAN_POINT('',(-1.304922348047,36.852917256948,
    95.071836717504));
#225 = CARTESIAN_POINT('',(-1.334254801768,36.853796354336,
    95.114276247766));
#226 = CARTESIAN_POINT('',(-1.361697975741,36.854750945863,
    95.157439211191));
#227 = CARTESIAN_POINT('',(-1.387272332556,36.855782796272,
    95.201245940344));
#228 = CARTESIAN_POINT('',(-1.47541472678,36.85990771749,95.366109631572
    ));
#229 = CARTESIAN_POINT('',(-1.526187665604,36.863499987714,
    95.490767545478));
#230 = CARTESIAN_POINT('',(-1.563802634522,36.867698073403,95.6182700681
    ));
#231 = CARTESIAN_POINT('',(-1.588533062453,36.872504255681,
    95.747514723919));
#232 = CARTESIAN_POINT('',(-1.6005978734,36.877897248551,95.87755149394)
  );
#233 = CARTESIAN_POINT('',(-1.599543174754,36.888074940941,
    96.100244762657));
#234 = CARTESIAN_POINT('',(-1.592663844927,36.892587805995,
    96.192875773273));
#235 = CARTESIAN_POINT('',(-1.579347047576,36.89736371675,
    96.285161583924));
#236 = CARTESIAN_POINT('',(-1.559544503697,36.902380615634,
    96.376767946114));
#237 = CARTESIAN_POINT('',(-1.533178426063,36.907608001547,
    96.467332008297));
#238 = CARTESIAN_POINT('',(-1.487091792719,36.915133016774,
    96.591575319166));
#239 = CARTESIAN_POINT('',(-1.473024445094,36.917286670897,
    96.626472650427));
#240 = CARTESIAN_POINT('',(-1.457910702922,36.919464199635,
    96.661119063609));
#241 = CARTESIAN_POINT('',(-1.441742517965,36.921662780826,
    96.695487190715));
#242 = CARTESIAN_POINT('',(-1.424511277872,36.923879269339,
    96.729547645979));
#243 = CARTESIAN_POINT('',(-1.382202590136,36.929036084737,
    96.80749500785));
#244 = CARTESIAN_POINT('',(-1.356353741861,36.931986734835,
    96.851136970471));
#245 = CARTESIAN_POINT('',(-1.328639662882,36.934954388025,
    96.894124678235));
#246 = CARTESIAN_POINT('',(-1.299039968406,36.937929979809,
    96.936378606275));
#247 = CARTESIAN_POINT('',(-1.267535487311,36.940903140524,
    96.977809940356));
#248 = CARTESIAN_POINT('',(-1.190127967108,36.947755432172,
    97.071620536356));
#249 = CARTESIAN_POINT('',(-1.142822838104,36.951623915921,
    97.123322705412));
#250 = CARTESIAN_POINT('',(-1.092151507443,36.9554413336,97.17320773416)
  );
#251 = CARTESIAN_POINT('',(-1.038091719389,36.959175695556,
    97.221009555102));
#252 = CARTESIAN_POINT('',(-0.980655624179,36.962789978354,
    97.266423124574));
#253 = CARTESIAN_POINT('',(-0.87242815531,36.968941142966,
    97.342473901787));
#254 = CARTESIAN_POINT('',(-0.822929950345,36.971540712042,
    97.374169436376));
#255 = CARTESIAN_POINT('',(-0.771444327571,36.974021663757,
    97.404036751364));
#256 = CARTESIAN_POINT('',(-0.718032643217,36.97636205985,97.4318964692)
  );
#257 = CARTESIAN_POINT('',(-0.662793124935,36.978539110264,
    97.457562305361));
#258 = CARTESIAN_POINT('',(-0.51310018908,36.983775832851,
    97.518807133904));
#259 = CARTESIAN_POINT('',(-0.415791924434,36.986530338969,
    97.550478209636));
#260 = CARTESIAN_POINT('',(-0.314689285668,36.988691691551,
    97.575004691973));
#261 = CARTESIAN_POINT('',(-0.210790499689,36.990170388323,
    97.591672394558));
#262 = CARTESIAN_POINT('',(-0.105371709348,36.990909090909,97.6));
#263 = CARTESIAN_POINT('',(-4.440892098501E-16,36.990909090909,97.6));
#264 = CONICAL_SURFACE('',#265,36.554545454545,4.542327942158E-02);
#265 = AXIS2_PLACEMENT_3D('',#266,#267,#268);
#266 = CARTESIAN_POINT('',(0.,0.,88.));
#267 = DIRECTION('',(0.,0.,1.));
#268 = DIRECTION('',(1.,0.,0.));
#269 = ADVANCED_FACE('',(#270,#380,#409),#543,.T.);
#270 = FACE_BOUND('',#271,.T.);
#271 = EDGE_LOOP('',(#272,#282,#283,#293,#336,#345));
#272 = ORIENTED_EDGE('',*,*,#273,.F.);
#273 = EDGE_CURVE('',#22,#274,#276,.T.);
#274 = VERTEX_POINT('',#275);
#275 = CARTESIAN_POINT('',(14.,34.81069532913,137.));
#276 = B_SPLINE_CURVE_WITH_KNOTS('',4,(#277,#278,#279,#280,#281),
  .UNSPECIFIED.,.F.,.F.,(5,5),(0.,1.),.PIECEWISE_BEZIER_KNOTS.);
#277 = CARTESIAN_POINT('',(14.,34.357095337062,100.));
#278 = CARTESIAN_POINT('',(14.,34.483791897243,110.32499919506));
#279 = CARTESIAN_POINT('',(14.,34.610399756791,120.64999893504));
#280 = CARTESIAN_POINT('',(14.,34.736920877345,130.9749992073));
#281 = CARTESIAN_POINT('',(14.,34.863357105229,141.3));
#282 = ORIENTED_EDGE('',*,*,#21,.T.);
#283 = ORIENTED_EDGE('',*,*,#284,.T.);
#284 = EDGE_CURVE('',#24,#285,#287,.T.);
#285 = VERTEX_POINT('',#286);
#286 = CARTESIAN_POINT('',(-14.,34.81069532913,137.));
#287 = B_SPLINE_CURVE_WITH_KNOTS('',4,(#288,#289,#290,#291,#292),
  .UNSPECIFIED.,.F.,.F.,(5,5),(0.,1.),.PIECEWISE_BEZIER_KNOTS.);
#288 = CARTESIAN_POINT('',(-14.,34.357095337062,100.));
#289 = CARTESIAN_POINT('',(-14.,34.483791897243,110.32499919506));
#290 = CARTESIAN_POINT('',(-14.,34.610399756791,120.64999893504));
#291 = CARTESIAN_POINT('',(-14.,34.736920877345,130.9749992073));
#292 = CARTESIAN_POINT('',(-14.,34.863357105229,141.3));
#293 = ORIENTED_EDGE('',*,*,#294,.F.);
#294 = EDGE_CURVE('',#295,#285,#297,.T.);
#295 = VERTEX_POINT('',#296);
#296 = CARTESIAN_POINT('',(-9.,36.483577478365,142.));
#297 = B_SPLINE_CURVE_WITH_KNOTS('',7,(#298,#299,#300,#301,#302,#303,
    #304,#305,#306,#307,#308,#309,#310,#311,#312,#313,#314,#315,#316,
    #317,#318,#319,#320,#321,#322,#323,#324,#325,#326,#327,#328,#329,
    #330,#331,#332,#333,#334,#335),.UNSPECIFIED.,.F.,.F.,(8,6,6,6,6,6,8)
  ,(0.,0.159364744658,0.281840549732,0.443803497553,0.574252343789,
    0.945639712477,1.),.UNSPECIFIED.);
#298 = CARTESIAN_POINT('',(-9.,36.483577478365,142.));
#299 = CARTESIAN_POINT('',(-9.211740213665,36.431344061175,142.));
#300 = CARTESIAN_POINT('',(-9.42280422873,36.377634083826,
    141.98953861629));
#301 = CARTESIAN_POINT('',(-9.632023851971,36.322744671523,
    141.96873688458));
#302 = CARTESIAN_POINT('',(-9.838401581003,36.266983483637,
    141.93792102264));
#303 = CARTESIAN_POINT('',(-10.04109172962,36.210660065329,
    141.8975485793));
#304 = CARTESIAN_POINT('',(-10.23938511513,36.154077379799,
    141.84815808491));
#305 = CARTESIAN_POINT('',(-10.58126257808,36.054060461761,
    141.74590924758));
#306 = CARTESIAN_POINT('',(-10.72690765343,36.010607974411,
    141.6964931474));
#307 = CARTESIAN_POINT('',(-10.86939571141,35.967288338408,
    141.64235192001));
#308 = CARTESIAN_POINT('',(-11.00854143913,35.924214840897,
    141.58375028014));
#309 = CARTESIAN_POINT('',(-11.14420445537,35.881491160451,
    141.52095172332));
#310 = CARTESIAN_POINT('',(-11.27628273284,35.839210750643,
    141.45421060921));
#311 = CARTESIAN_POINT('',(-11.57453396522,35.742239715537,
    141.29060543017));
#312 = CARTESIAN_POINT('',(-11.73795709371,35.687947092461,
    141.1909745244));
#313 = CARTESIAN_POINT('',(-11.89483161789,35.634764803362,
    141.08541523076));
#314 = CARTESIAN_POINT('',(-12.04507391311,35.582857928395,
    140.97443802917));
#315 = CARTESIAN_POINT('',(-12.18865015616,35.532370562186,
    140.85851302673));
#316 = CARTESIAN_POINT('',(-12.32556596331,35.483426197118,
    140.73806280832));
#317 = CARTESIAN_POINT('',(-12.56079477439,35.398033089073,
    140.5130933981));
#318 = CARTESIAN_POINT('',(-12.66142947934,35.36100823782,
    140.41004036695));
#319 = CARTESIAN_POINT('',(-12.75777585376,35.325108779153,
    140.30449190318));
#320 = CARTESIAN_POINT('',(-12.84985312929,35.290385089461,
    140.1966309841));
#321 = CARTESIAN_POINT('',(-12.93768351301,35.256882792649,
    140.08662768392));
#322 = CARTESIAN_POINT('',(-13.02129164182,35.224642857588,
    139.97463900304));
#323 = CARTESIAN_POINT('',(-13.32679082326,35.105612325006,
    139.53673424981));
#324 = CARTESIAN_POINT('',(-13.51877027153,35.02808884239,
    139.19787521155));
#325 = CARTESIAN_POINT('',(-13.67743120296,34.961906464661,
    138.84738027834));
#326 = CARTESIAN_POINT('',(-13.80315057656,34.90774278806,138.4880418379
    ));
#327 = CARTESIAN_POINT('',(-13.89626968887,34.866071611865,
    138.12241601527));
#328 = CARTESIAN_POINT('',(-13.95702935502,34.837177049629,
    137.75280650672));
#329 = CARTESIAN_POINT('',(-13.98960221755,34.818878650293,
    137.32687100906));
#330 = CARTESIAN_POINT('',(-13.99306796435,34.81681947305,
    137.27244801954));
#331 = CARTESIAN_POINT('',(-13.99584060369,34.815037961428,
    137.21799339435));
#332 = CARTESIAN_POINT('',(-13.99792018113,34.813534508956,
    137.1635142106));
#333 = CARTESIAN_POINT('',(-13.99930667572,34.81230943499,
    137.10901754011));
#334 = CARTESIAN_POINT('',(-14.,34.811362984711,137.05451044946));
#335 = CARTESIAN_POINT('',(-14.,34.81069532913,137.));
#336 = ORIENTED_EDGE('',*,*,#337,.F.);
#337 = EDGE_CURVE('',#338,#295,#340,.T.);
#338 = VERTEX_POINT('',#339);
#339 = CARTESIAN_POINT('',(9.,36.483577478365,142.));
#340 = CIRCLE('',#341,37.577272727273);
#341 = AXIS2_PLACEMENT_3D('',#342,#343,#344);
#342 = CARTESIAN_POINT('',(0.,0.,142.));
#343 = DIRECTION('',(0.,0.,1.));
#344 = DIRECTION('',(1.,0.,0.));
#345 = ORIENTED_EDGE('',*,*,#346,.F.);
#346 = EDGE_CURVE('',#274,#338,#347,.T.);
#347 = B_SPLINE_CURVE_WITH_KNOTS('',7,(#348,#349,#350,#351,#352,#353,
    #354,#355,#356,#357,#358,#359,#360,#361,#362,#363,#364,#365,#366,
    #367,#368,#369,#370,#371,#372,#373,#374,#375,#376,#377,#378,#379),
  .UNSPECIFIED.,.F.,.F.,(8,6,6,6,6,8),(0.,0.425767491788,0.556211832117,
    0.718169185483,0.84064076005,1.),.UNSPECIFIED.);
#348 = CARTESIAN_POINT('',(14.,34.81069532913,137.));
#349 = CARTESIAN_POINT('',(14.,34.815924859774,137.4269627544));
#350 = CARTESIAN_POINT('',(13.95746519473,34.838255455495,
    137.85347725299));
#351 = CARTESIAN_POINT('',(13.872547681692,34.877576594392,
    138.27653572438));
#352 = CARTESIAN_POINT('',(13.744956313876,34.933578891359,
    138.6927511243));
#353 = CARTESIAN_POINT('',(13.574231474986,35.005623715257,
    139.0983601142));
#354 = CARTESIAN_POINT('',(13.359904368346,35.092710415128,
    139.48926905295));
#355 = CARTESIAN_POINT('',(13.021291641824,35.224642857588,
    139.97463900304));
#356 = CARTESIAN_POINT('',(12.937683513012,35.256882792649,
    140.08662768392));
#357 = CARTESIAN_POINT('',(12.849853129292,35.290385089461,
    140.1966309841));
#358 = CARTESIAN_POINT('',(12.75777585376,35.325108779154,
    140.30449190318));
#359 = CARTESIAN_POINT('',(12.661429479341,35.36100823782,
    140.41004036695));
#360 = CARTESIAN_POINT('',(12.560794774394,35.398033089073,
    140.5130933981));
#361 = CARTESIAN_POINT('',(12.325565963318,35.483426197118,
    140.73806280833));
#362 = CARTESIAN_POINT('',(12.188650156165,35.532370562186,
    140.85851302673));
#363 = CARTESIAN_POINT('',(12.045073913115,35.582857928395,
    140.97443802917));
#364 = CARTESIAN_POINT('',(11.894831617896,35.634764803362,
    141.08541523076));
#365 = CARTESIAN_POINT('',(11.737957093711,35.687947092462,
    141.1909745244));
#366 = CARTESIAN_POINT('',(11.574533965222,35.742239715537,
    141.29060543017));
#367 = CARTESIAN_POINT('',(11.276282732842,35.839210750643,
    141.45421060921));
#368 = CARTESIAN_POINT('',(11.144204455373,35.881491160451,
    141.52095172332));
#369 = CARTESIAN_POINT('',(11.008541439137,35.924214840898,
    141.58375028014));
#370 = CARTESIAN_POINT('',(10.86939571141,35.967288338409,
    141.64235192001));
#371 = CARTESIAN_POINT('',(10.726907653433,36.010607974411,
    141.6964931474));
#372 = CARTESIAN_POINT('',(10.581262578087,36.054060461761,
    141.74590924758));
#373 = CARTESIAN_POINT('',(10.239385115134,36.154077379799,
    141.84815808491));
#374 = CARTESIAN_POINT('',(10.041091729628,36.210660065329,
    141.8975485793));
#375 = CARTESIAN_POINT('',(9.838401581003,36.266983483637,
    141.93792102264));
#376 = CARTESIAN_POINT('',(9.63202385197,36.322744671523,141.96873688458
    ));
#377 = CARTESIAN_POINT('',(9.42280422873,36.377634083826,141.98953861629
    ));
#378 = CARTESIAN_POINT('',(9.211740213665,36.431344061175,142.));
#379 = CARTESIAN_POINT('',(9.,36.483577478365,142.));
#380 = FACE_BOUND('',#381,.T.);
#381 = EDGE_LOOP('',(#382,#393,#402));
#382 = ORIENTED_EDGE('',*,*,#383,.F.);
#383 = EDGE_CURVE('',#384,#386,#388,.T.);
#384 = VERTEX_POINT('',#385);
#385 = CARTESIAN_POINT('',(4.,36.918026865539,103.));
#386 = VERTEX_POINT('',#387);
#387 = CARTESIAN_POINT('',(-4.,36.918026865539,103.));
#388 = CIRCLE('',#389,37.134090909091);
#389 = AXIS2_PLACEMENT_3D('',#390,#391,#392);
#390 = CARTESIAN_POINT('',(0.,0.,103.));
#391 = DIRECTION('',(0.,0.,1.));
#392 = DIRECTION('',(1.,0.,0.));
#393 = ORIENTED_EDGE('',*,*,#394,.T.);
#394 = EDGE_CURVE('',#384,#395,#397,.T.);
#395 = VERTEX_POINT('',#396);
#396 = CARTESIAN_POINT('',(0.,37.190909090909,108.));
#397 = ELLIPSE('',#398,59.546517500974,37.194661647124);
#398 = AXIS2_PLACEMENT_3D('',#399,#400,#401);
#399 = CARTESIAN_POINT('',(-0.528386570767,0.,108.66048321345));
#400 = DIRECTION('',(0.780868809443,0.,0.624695047554));
#401 = DIRECTION('',(-0.624695047554,0.,0.780868809443));
#402 = ORIENTED_EDGE('',*,*,#403,.T.);
#403 = EDGE_CURVE('',#395,#386,#404,.T.);
#404 = ELLIPSE('',#405,59.546517500974,37.194661647124);
#405 = AXIS2_PLACEMENT_3D('',#406,#407,#408);
#406 = CARTESIAN_POINT('',(0.528386570767,0.,108.66048321345));
#407 = DIRECTION('',(-0.780868809443,0.,0.624695047554));
#408 = DIRECTION('',(0.624695047554,0.,0.780868809443));
#409 = FACE_BOUND('',#410,.T.);
#410 = EDGE_LOOP('',(#411));
#411 = ORIENTED_EDGE('',*,*,#412,.T.);
#412 = EDGE_CURVE('',#413,#413,#415,.T.);
#413 = VERTEX_POINT('',#414);
#414 = CARTESIAN_POINT('',(-3.918869757271E-16,37.561363636364,140.6));
#415 = B_SPLINE_CURVE_WITH_KNOTS('',6,(#416,#417,#418,#419,#420,#421,
    #422,#423,#424,#425,#426,#427,#428,#429,#430,#431,#432,#433,#434,
    #435,#436,#437,#438,#439,#440,#441,#442,#443,#444,#445,#446,#447,
    #448,#449,#450,#451,#452,#453,#454,#455,#456,#457,#458,#459,#460,
    #461,#462,#463,#464,#465,#466,#467,#468,#469,#470,#471,#472,#473,
    #474,#475,#476,#477,#478,#479,#480,#481,#482,#483,#484,#485,#486,
    #487,#488,#489,#490,#491,#492,#493,#494,#495,#496,#497,#498,#499,
    #500,#501,#502,#503,#504,#505,#506,#507,#508,#509,#510,#511,#512,
    #513,#514,#515,#516,#517,#518,#519,#520,#521,#522,#523,#524,#525,
    #526,#527,#528,#529,#530,#531,#532,#533,#534,#535,#536,#537,#538,
    #539,#540,#541,#542),.UNSPECIFIED.,.T.,.F.,(7,5,5,5,5,5,5,5,5,5,5,5,
    5,5,5,5,5,5,5,5,5,5,5,5,5,7),(0.,5.43279378157E-02,
    8.785602046133E-02,0.130455380752,0.162914474269,0.187306895801,
    0.250100539886,0.33680613099,0.369266497055,0.411871222559,
    0.4454066921,0.463627942445,0.500100223726,0.525355281558,
    0.536578085441,0.554441986363,0.58796716253,0.630558449987,
    0.66301020786,0.750688716138,0.812942602029,0.83732878287,
    0.869364919775,0.911975956908,0.94551295193,1.),.UNSPECIFIED.);
#416 = CARTESIAN_POINT('',(8.881784197001E-16,37.561363636364,140.6));
#417 = CARTESIAN_POINT('',(-0.105687810276,37.561363636364,140.6));
#418 = CARTESIAN_POINT('',(-0.211422779738,37.560911599668,140.591622356
    ));
#419 = CARTESIAN_POINT('',(-0.315632077982,37.560006666606,
    140.57485452205));
#420 = CARTESIAN_POINT('',(-0.417033303975,37.558689524038,
    140.55017930207));
#421 = CARTESIAN_POINT('',(-0.514621939517,37.557025014926,
    140.51831377781));
#422 = CARTESIAN_POINT('',(-0.665058938232,37.553889002701,
    140.45655349829));
#423 = CARTESIAN_POINT('',(-0.720757427566,37.552587047843,
    140.43056438725));
#424 = CARTESIAN_POINT('',(-0.774595473624,37.551196273949,
    140.4023424595));
#425 = CARTESIAN_POINT('',(-0.826472220357,37.549733347753,
    140.37207849073));
#426 = CARTESIAN_POINT('',(-0.876324652426,37.548214307417,
    140.33995624038));
#427 = CARTESIAN_POINT('',(-0.984842038413,37.544670679833,
    140.26317830391));
#428 = CARTESIAN_POINT('',(-1.04223715164,37.542620668005,
    140.21748655646));
#429 = CARTESIAN_POINT('',(-1.096240827273,37.540533281206,
    140.16940367911));
#430 = CARTESIAN_POINT('',(-1.146840380335,37.53843490441,
    140.11923577761));
#431 = CARTESIAN_POINT('',(-1.194057572741,37.536348238791,
    140.06725007391));
#432 = CARTESIAN_POINT('',(-1.271364944388,37.532725097779,
    139.97283903569));
#433 = CARTESIAN_POINT('',(-1.302854518604,37.531176004556,
    139.93108589723));
#434 = CARTESIAN_POINT('',(-1.332419956406,37.529652954949,
    139.88850713008));
#435 = CARTESIAN_POINT('',(-1.360080445602,37.528163260736,
    139.84519272743));
#436 = CARTESIAN_POINT('',(-1.385856432441,37.52671323911,
    139.80122330131));
#437 = CARTESIAN_POINT('',(-1.427739950652,37.524252360732,
    139.72318914485));
#438 = CARTESIAN_POINT('',(-1.444657929783,37.523221944993,
    139.68937896827));
#439 = CARTESIAN_POINT('',(-1.460532380706,37.522219243252,
    139.65527004759));
#440 = CARTESIAN_POINT('',(-1.475371596301,37.521246291391,
    139.62089094856));
#441 = CARTESIAN_POINT('',(-1.489183340631,37.52030488339,
    139.58626830802));
#442 = CARTESIAN_POINT('',(-1.534904151176,37.517058294883,
    139.4617340937));
#443 = CARTESIAN_POINT('',(-1.561069007809,37.514939597243,
    139.37059985754));
#444 = CARTESIAN_POINT('',(-1.5805992641,37.513066695875,139.2784325004)
  );
#445 = CARTESIAN_POINT('',(-1.593573741736,37.51145739352,
    139.18560129691));
#446 = CARTESIAN_POINT('',(-1.600041604523,37.510121958173,
    139.09244645125));
#447 = CARTESIAN_POINT('',(-1.599942169608,37.507603403088,
    138.87064205107));
#448 = CARTESIAN_POINT('',(-1.58747306138,37.50667259735,138.74204256525
    ));
#449 = CARTESIAN_POINT('',(-1.562606441964,37.506280008417,
    138.61426548282));
#450 = CARTESIAN_POINT('',(-1.525135369143,37.506414067751,
    138.4882327669));
#451 = CARTESIAN_POINT('',(-1.47479953877,37.507036207994,
    138.36501183826));
#452 = CARTESIAN_POINT('',(-1.387305622139,37.508466118141,
    138.20128849228));
#453 = CARTESIAN_POINT('',(-1.361608843471,37.508914167491,
    138.15727165695));
#454 = CARTESIAN_POINT('',(-1.334026568827,37.509417081988,
    138.1139068847));
#455 = CARTESIAN_POINT('',(-1.304538326035,37.509970394969,
    138.07127480297));
#456 = CARTESIAN_POINT('',(-1.273124907404,37.510568855069,
    138.02946540222));
#457 = CARTESIAN_POINT('',(-1.195987405306,37.5120432481,137.93491274407
    ));
#458 = CARTESIAN_POINT('',(-1.148862558937,37.512947341621,
    137.88283979329));
#459 = CARTESIAN_POINT('',(-1.098352916362,37.513905098086,
    137.83257982594));
#460 = CARTESIAN_POINT('',(-1.044436628804,37.514899900968,
    137.78439996048));
#461 = CARTESIAN_POINT('',(-0.987126165969,37.515912319698,
    137.73860610717));
#462 = CARTESIAN_POINT('',(-0.878749944701,37.517713717968,
    137.66163293417));
#463 = CARTESIAN_POINT('',(-0.828954811343,37.51850433647,
    137.62941990265));
#464 = CARTESIAN_POINT('',(-0.777132782412,37.519281449622,
    137.5990620703));
#465 = CARTESIAN_POINT('',(-0.723346514622,37.520033176151,
    137.57074308905));
#466 = CARTESIAN_POINT('',(-0.667696330453,37.520747156302,
    137.54465367539));
#467 = CARTESIAN_POINT('',(-0.579160180986,37.521772073187,
    137.50811847841));
#468 = CARTESIAN_POINT('',(-0.547484190739,37.522118184326,
    137.49596940395));
#469 = CARTESIAN_POINT('',(-0.515325956706,37.522447597744,
    137.4845643201));
#470 = CARTESIAN_POINT('',(-0.48271402287,37.522758426837,
    137.47393242125));
#471 = CARTESIAN_POINT('',(-0.449681390402,37.523048879384,
    137.46410145688));
#472 = CARTESIAN_POINT('',(-0.34937915767,37.523854452501,
    137.43707556554));
#473 = CARTESIAN_POINT('',(-0.280945942206,37.524303361539,
    137.42236409365));
#474 = CARTESIAN_POINT('',(-0.211288345575,37.524650383982,
    137.41117687679));
#475 = CARTESIAN_POINT('',(-0.140775442044,37.524885064484,
    137.40367572814));
#476 = CARTESIAN_POINT('',(-6.982081279518E-02,37.525001540164,
    137.39995075349));
#477 = CARTESIAN_POINT('',(5.024186219757E-02,37.524998912789,
    137.4000347634));
#478 = CARTESIAN_POINT('',(9.936385301169E-02,37.524941240667,
    137.40187890989));
#479 = CARTESIAN_POINT('',(0.148337896189,37.524826967887,
    137.40553274949));
#480 = CARTESIAN_POINT('',(0.197023494429,37.524657429266,
    137.41097562908));
#481 = CARTESIAN_POINT('',(0.245287945673,37.524435120787,
    137.41816879885));
#482 = CARTESIAN_POINT('',(0.314212337923,37.524042829973,137.4310080064
    ));
#483 = CARTESIAN_POINT('',(0.335310377373,37.523912400262,
    137.43529311194));
#484 = CARTESIAN_POINT('',(0.356290551597,37.523772538686,
    137.43990845935));
#485 = CARTESIAN_POINT('',(0.377142881938,37.523623579728,
    137.44484885569));
#486 = CARTESIAN_POINT('',(0.397857990097,37.523465886967,
    137.45010865942));
#487 = CARTESIAN_POINT('',(0.451167981068,37.523035568596,
    137.46455279699));
#488 = CARTESIAN_POINT('',(0.48353894412,37.522750135813,137.4742178775)
  );
#489 = CARTESIAN_POINT('',(0.515504820074,37.522445158185,
    137.48465217939));
#490 = CARTESIAN_POINT('',(0.547034562941,37.522122326204,
    137.49582952843));
#491 = CARTESIAN_POINT('',(0.578101247963,37.521783417396,
    137.50772241856));
#492 = CARTESIAN_POINT('',(0.66607309189,37.520767594138,137.54391013027
    ));
#493 = CARTESIAN_POINT('',(0.721751675565,37.520054797698,
    137.56993708937));
#494 = CARTESIAN_POINT('',(0.775569606803,37.519304036099,137.5981960438
    ));
#495 = CARTESIAN_POINT('',(0.827426031763,37.518527663576,137.6284963653
    ));
#496 = CARTESIAN_POINT('',(0.877257837275,37.517737563009,137.6606543855
    ));
#497 = CARTESIAN_POINT('',(0.985721110209,37.515936856563,
    137.73750777701));
#498 = CARTESIAN_POINT('',(1.043083182194,37.514924478238,
    137.78323831223));
#499 = CARTESIAN_POINT('',(1.097053469201,37.513929376322,
    137.83135857344));
#500 = CARTESIAN_POINT('',(1.147618994979,37.512971000592,
    137.88156240948));
#501 = CARTESIAN_POINT('',(1.194801280066,37.512065990138,
    137.93358243218));
#502 = CARTESIAN_POINT('',(1.272044049197,37.510589462184,
    138.02804911086));
#503 = CARTESIAN_POINT('',(1.303504529458,37.509989904069,
    138.06982431265));
#504 = CARTESIAN_POINT('',(1.333040343098,37.509435347023,
    138.11242389175));
#505 = CARTESIAN_POINT('',(1.360670646017,37.508931052579,
    138.15575775156));
#506 = CARTESIAN_POINT('',(1.386415886263,37.508481497185,
    138.19974517242));
#507 = CARTESIAN_POINT('',(1.47482222617,37.507033626536,138.36473354185
    ));
#508 = CARTESIAN_POINT('',(1.525716059521,37.506403976285,
    138.48935118343));
#509 = CARTESIAN_POINT('',(1.563457289685,37.506273814716,
    138.61683988329));
#510 = CARTESIAN_POINT('',(1.588313121913,37.506682867419,
    138.74609739806));
#511 = CARTESIAN_POINT('',(1.600496573582,37.507642652688,
    138.87617206541));
#512 = CARTESIAN_POINT('',(1.599626491958,37.510209910181,139.0986223943
    ));
#513 = CARTESIAN_POINT('',(1.592866791326,37.511548512868,
    139.19096192944));
#514 = CARTESIAN_POINT('',(1.579709848423,37.513155906834,
    139.28296966728));
#515 = CARTESIAN_POINT('',(1.560106688429,37.51502188553,139.37431345873
    ));
#516 = CARTESIAN_POINT('',(1.53397958515,37.517128941117,139.46463259166
    ));
#517 = CARTESIAN_POINT('',(1.488361910488,37.520361173079,
    139.58835047082));
#518 = CARTESIAN_POINT('',(1.47450206951,37.521303951779,139.62295303703
    ));
#519 = CARTESIAN_POINT('',(1.459614931465,37.522278190274,
    139.65731113093));
#520 = CARTESIAN_POINT('',(1.443692719776,37.523282088877,139.6913980807
    ));
#521 = CARTESIAN_POINT('',(1.426727134325,37.524313605662,
    139.72518527918));
#522 = CARTESIAN_POINT('',(1.385039381857,37.526758841849,
    139.80259453481));
#523 = CARTESIAN_POINT('',(1.359554160242,37.528190904763,
    139.84597611709));
#524 = CARTESIAN_POINT('',(1.332232831812,37.529661507352,
    139.88871825513));
#525 = CARTESIAN_POINT('',(1.303055739646,37.531164567636,
    139.93074336684));
#526 = CARTESIAN_POINT('',(1.272004424702,37.532693059512,
    139.97196496367));
#527 = CARTESIAN_POINT('',(1.195244644042,37.536295274131,
    140.06592056865));
#528 = CARTESIAN_POINT('',(1.148084846945,37.538382234278,
    140.11795924563));
#529 = CARTESIAN_POINT('',(1.097541135697,37.540481275653,140.1681833182
    ));
#530 = CARTESIAN_POINT('',(1.04359142105,37.54256972565,140.21632583522)
  );
#531 = CARTESIAN_POINT('',(0.986247881563,37.544621223887,
    140.26208093345));
#532 = CARTESIAN_POINT('',(0.877817474809,37.548168276965,
    140.33897870921));
#533 = CARTESIAN_POINT('',(0.828001676742,37.54968909009,140.37115599526
    ));
#534 = CARTESIAN_POINT('',(0.776159288117,37.551154068054,
    140.40147749827));
#535 = CARTESIAN_POINT('',(0.722352866722,37.552547174656,
    140.42975947604));
#536 = CARTESIAN_POINT('',(0.66668273554,37.55385173562,140.45581106503)
  );
#537 = CARTESIAN_POINT('',(0.516062347378,37.557000413333,
    140.51784277035));
#538 = CARTESIAN_POINT('',(0.418230794972,37.558673945249,
    140.54988741651));
#539 = CARTESIAN_POINT('',(0.316555400628,37.559998633519,
    140.57470569319));
#540 = CARTESIAN_POINT('',(0.212047506938,37.56090892594,140.59157279639
    ));
#541 = CARTESIAN_POINT('',(0.105999936184,37.561363636364,140.6));
#542 = CARTESIAN_POINT('',(8.881784197001E-16,37.561363636364,140.6));
#543 = CONICAL_SURFACE('',#544,37.1,1.136314726429E-02);
#544 = AXIS2_PLACEMENT_3D('',#545,#546,#547);
#545 = CARTESIAN_POINT('',(0.,0.,100.));
#546 = DIRECTION('',(0.,0.,1.));
#547 = DIRECTION('',(1.,0.,0.));
#548 = ADVANCED_FACE('',(#549),#586,.T.);
#549 = FACE_BOUND('',#550,.T.);
#550 = EDGE_LOOP('',(#551,#562,#568,#569,#570,#578));
#551 = ORIENTED_EDGE('',*,*,#552,.T.);
#552 = EDGE_CURVE('',#553,#555,#557,.T.);
#553 = VERTEX_POINT('',#554);
#554 = CARTESIAN_POINT('',(14.,32.023467957109,100.));
#555 = VERTEX_POINT('',#556);
#556 = CARTESIAN_POINT('',(14.,31.725592883375,94.));
#557 = HYPERBOLA('',#558,307.99999999999,14.);
#558 = AXIS2_PLACEMENT_3D('',#559,#560,#561);
#559 = CARTESIAN_POINT('',(14.,0.,-668.8999999999));
#560 = DIRECTION('',(1.,0.,-0.));
#561 = DIRECTION('',(0.,0.,1.));
#562 = ORIENTED_EDGE('',*,*,#563,.T.);
#563 = EDGE_CURVE('',#555,#33,#564,.T.);
#564 = LINE('',#565,#566);
#565 = CARTESIAN_POINT('',(14.,22.,94.));
#566 = VECTOR('',#567,1.);
#567 = DIRECTION('',(0.,1.,0.));
#568 = ORIENTED_EDGE('',*,*,#32,.F.);
#569 = ORIENTED_EDGE('',*,*,#273,.T.);
#570 = ORIENTED_EDGE('',*,*,#571,.F.);
#571 = EDGE_CURVE('',#572,#274,#574,.T.);
#572 = VERTEX_POINT('',#573);
#573 = CARTESIAN_POINT('',(14.,32.481826530416,137.));
#574 = LINE('',#575,#576);
#575 = CARTESIAN_POINT('',(14.,22.,137.));
#576 = VECTOR('',#577,1.);
#577 = DIRECTION('',(0.,1.,0.));
#578 = ORIENTED_EDGE('',*,*,#579,.F.);
#579 = EDGE_CURVE('',#553,#572,#580,.T.);
#580 = B_SPLINE_CURVE_WITH_KNOTS('',4,(#581,#582,#583,#584,#585),
  .UNSPECIFIED.,.F.,.F.,(5,5),(0.,1.),.PIECEWISE_BEZIER_KNOTS.);
#581 = CARTESIAN_POINT('',(14.,32.023467957109,100.));
#582 = CARTESIAN_POINT('',(14.,32.151519897661,110.32499899654));
#583 = CARTESIAN_POINT('',(14.,32.279462298899,120.64999867333));
#584 = CARTESIAN_POINT('',(14.,32.407297787421,130.97499901316));
#585 = CARTESIAN_POINT('',(14.,32.535028822254,141.3));
#586 = PLANE('',#587);
#587 = AXIS2_PLACEMENT_3D('',#588,#589,#590);
#588 = CARTESIAN_POINT('',(14.,22.,94.));
#589 = DIRECTION('',(1.,0.,0.));
#590 = DIRECTION('',(0.,0.,1.));
#591 = ADVANCED_FACE('',(#592),#629,.F.);
#592 = FACE_BOUND('',#593,.F.);
#593 = EDGE_LOOP('',(#594,#605,#611,#612,#613,#621));
#594 = ORIENTED_EDGE('',*,*,#595,.T.);
#595 = EDGE_CURVE('',#596,#598,#600,.T.);
#596 = VERTEX_POINT('',#597);
#597 = CARTESIAN_POINT('',(-14.,32.023467957109,100.));
#598 = VERTEX_POINT('',#599);
#599 = CARTESIAN_POINT('',(-14.,31.725592883375,94.));
#600 = HYPERBOLA('',#601,307.99999999999,14.);
#601 = AXIS2_PLACEMENT_3D('',#602,#603,#604);
#602 = CARTESIAN_POINT('',(-14.,0.,-668.8999999999));
#603 = DIRECTION('',(1.,0.,-0.));
#604 = DIRECTION('',(0.,0.,1.));
#605 = ORIENTED_EDGE('',*,*,#606,.T.);
#606 = EDGE_CURVE('',#598,#88,#607,.T.);
#607 = LINE('',#608,#609);
#608 = CARTESIAN_POINT('',(-14.,22.,94.));
#609 = VECTOR('',#610,1.);
#610 = DIRECTION('',(0.,1.,0.));
#611 = ORIENTED_EDGE('',*,*,#124,.F.);
#612 = ORIENTED_EDGE('',*,*,#284,.T.);
#613 = ORIENTED_EDGE('',*,*,#614,.F.);
#614 = EDGE_CURVE('',#615,#285,#617,.T.);
#615 = VERTEX_POINT('',#616);
#616 = CARTESIAN_POINT('',(-14.,32.481826530416,137.));
#617 = LINE('',#618,#619);
#618 = CARTESIAN_POINT('',(-14.,22.,137.));
#619 = VECTOR('',#620,1.);
#620 = DIRECTION('',(0.,1.,0.));
#621 = ORIENTED_EDGE('',*,*,#622,.F.);
#622 = EDGE_CURVE('',#596,#615,#623,.T.);
#623 = B_SPLINE_CURVE_WITH_KNOTS('',4,(#624,#625,#626,#627,#628),
  .UNSPECIFIED.,.F.,.F.,(5,5),(0.,1.),.PIECEWISE_BEZIER_KNOTS.);
#624 = CARTESIAN_POINT('',(-14.,32.023467957109,100.));
#625 = CARTESIAN_POINT('',(-14.,32.151519897661,110.32499899654));
#626 = CARTESIAN_POINT('',(-14.,32.279462298899,120.64999867333));
#627 = CARTESIAN_POINT('',(-14.,32.407297787421,130.97499901316));
#628 = CARTESIAN_POINT('',(-14.,32.535028822254,141.3));
#629 = PLANE('',#630);
#630 = AXIS2_PLACEMENT_3D('',#631,#632,#633);
#631 = CARTESIAN_POINT('',(-14.,22.,94.));
#632 = DIRECTION('',(1.,0.,0.));
#633 = DIRECTION('',(0.,0.,1.));
#634 = ADVANCED_FACE('',(#635),#682,.T.);
#635 = FACE_BOUND('',#636,.T.);
#636 = EDGE_LOOP('',(#637,#638,#639,#676));
#637 = ORIENTED_EDGE('',*,*,#41,.F.);
#638 = ORIENTED_EDGE('',*,*,#563,.F.);
#639 = ORIENTED_EDGE('',*,*,#640,.T.);
#640 = EDGE_CURVE('',#555,#641,#643,.T.);
#641 = VERTEX_POINT('',#642);
#642 = CARTESIAN_POINT('',(9.,33.253608826712,89.));
#643 = B_SPLINE_CURVE_WITH_KNOTS('',7,(#644,#645,#646,#647,#648,#649,
    #650,#651,#652,#653,#654,#655,#656,#657,#658,#659,#660,#661,#662,
    #663,#664,#665,#666,#667,#668,#669,#670,#671,#672,#673,#674,#675),
  .UNSPECIFIED.,.F.,.F.,(8,6,6,6,6,8),(0.,0.381317016658,0.527019129683,
    0.699990154989,0.828927443046,1.),.UNSPECIFIED.);
#644 = CARTESIAN_POINT('',(14.,31.725592883375,94.));
#645 = CARTESIAN_POINT('',(14.,31.706650428105,93.618737787302));
#646 = CARTESIAN_POINT('',(13.966082860526,31.702641686838,
    93.23684521457));
#647 = CARTESIAN_POINT('',(13.898043828391,31.713811247584,
    92.856684476065));
#648 = CARTESIAN_POINT('',(13.795501976365,31.740224842517,
    92.48087108594));
#649 = CARTESIAN_POINT('',(13.658040409427,31.781683398901,
    92.112269100057));
#650 = CARTESIAN_POINT('',(13.485273225092,31.837693695924,
    91.753978197997));
#651 = CARTESIAN_POINT('',(13.1967945433,31.934282362786,91.27775639759)
  );
#652 = CARTESIAN_POINT('',(13.111801470766,31.963007808849,
    91.148120185011));
#653 = CARTESIAN_POINT('',(13.02153993502,31.993715238589,
    91.020703837308));
#654 = CARTESIAN_POINT('',(12.925983522219,32.026357435935,
    90.895721537401));
#655 = CARTESIAN_POINT('',(12.825109708417,32.060879983406,
    90.773403838632));
#656 = CARTESIAN_POINT('',(12.718900640138,32.097221157887,
    90.653997478108));
#657 = CARTESIAN_POINT('',(12.474908765335,32.180531362712,
    90.399779421513));
#658 = CARTESIAN_POINT('',(12.334946721676,32.228213030883,
    90.266277409152));
#659 = CARTESIAN_POINT('',(12.187432692282,32.278243516388,
    90.137691501222));
#660 = CARTESIAN_POINT('',(12.032374169925,32.330486138782,
    90.014514028754));
#661 = CARTESIAN_POINT('',(11.869823439672,32.384780079055,
    89.897289369684));
#662 = CARTESIAN_POINT('',(11.69988978674,32.440939606965,
    89.786606012992));
#663 = CARTESIAN_POINT('',(11.390708179049,32.541849207598,
    89.605923955936));
#664 = CARTESIAN_POINT('',(11.254669346415,32.585861717864,
    89.532745974732));
#665 = CARTESIAN_POINT('',(11.114718053259,32.630701031908,
    89.463816079464));
#666 = CARTESIAN_POINT('',(10.97097107426,32.676265387612,
    89.399413585229));
#667 = CARTESIAN_POINT('',(10.82358644181,32.722441396875,
    89.339827171254));
#668 = CARTESIAN_POINT('',(10.672770775862,32.769104374476,
    89.285346330152));
#669 = CARTESIAN_POINT('',(10.314482143487,32.878496706284,
    89.171116091259));
#670 = CARTESIAN_POINT('',(10.104552627798,32.941507739176,
    89.115447303365));
#671 = CARTESIAN_POINT('',(9.88968841723,33.004811222154,89.06993700863)
  );
#672 = CARTESIAN_POINT('',(9.670721908281,33.068045932305,89.0352049935)
  );
#673 = CARTESIAN_POINT('',(9.448641766524,33.130839833392,
    89.011772048546));
#674 = CARTESIAN_POINT('',(9.224612588156,33.192818032428,89.));
#675 = CARTESIAN_POINT('',(9.,33.253608826712,89.));
#676 = ORIENTED_EDGE('',*,*,#677,.T.);
#677 = EDGE_CURVE('',#641,#42,#678,.T.);
#678 = LINE('',#679,#680);
#679 = CARTESIAN_POINT('',(9.,22.,89.));
#680 = VECTOR('',#681,1.);
#681 = DIRECTION('',(0.,1.,0.));
#682 = CYLINDRICAL_SURFACE('',#683,5.);
#683 = AXIS2_PLACEMENT_3D('',#684,#685,#686);
#684 = CARTESIAN_POINT('',(9.,22.,94.));
#685 = DIRECTION('',(0.,1.,0.));
#686 = DIRECTION('',(0.,0.,1.));
#687 = ADVANCED_FACE('',(#688),#735,.T.);
#688 = FACE_BOUND('',#689,.T.);
#689 = EDGE_LOOP('',(#690,#691,#699,#734));
#690 = ORIENTED_EDGE('',*,*,#87,.F.);
#691 = ORIENTED_EDGE('',*,*,#692,.F.);
#692 = EDGE_CURVE('',#693,#79,#695,.T.);
#693 = VERTEX_POINT('',#694);
#694 = CARTESIAN_POINT('',(-9.,33.253608826712,89.));
#695 = LINE('',#696,#697);
#696 = CARTESIAN_POINT('',(-9.,22.,89.));
#697 = VECTOR('',#698,1.);
#698 = DIRECTION('',(0.,1.,0.));
#699 = ORIENTED_EDGE('',*,*,#700,.T.);
#700 = EDGE_CURVE('',#693,#598,#701,.T.);
#701 = B_SPLINE_CURVE_WITH_KNOTS('',7,(#702,#703,#704,#705,#706,#707,
    #708,#709,#710,#711,#712,#713,#714,#715,#716,#717,#718,#719,#720,
    #721,#722,#723,#724,#725,#726,#727,#728,#729,#730,#731,#732,#733),
  .UNSPECIFIED.,.F.,.F.,(8,6,6,6,6,8),(0.,0.170622949345,0.300009955113,
    0.473490948936,0.618683060196,1.),.UNSPECIFIED.);
#702 = CARTESIAN_POINT('',(-9.,33.253608826712,89.));
#703 = CARTESIAN_POINT('',(-9.224022118439,33.192977841472,89.));
#704 = CARTESIAN_POINT('',(-9.447463794628,33.131165711876,
    89.011710233734));
#705 = CARTESIAN_POINT('',(-9.66897037388,33.068541157993,
    89.035020417121));
#706 = CARTESIAN_POINT('',(-9.88738590825,33.005476103992,
    89.069572258695));
#707 = CARTESIAN_POINT('',(-10.10172845033,32.942339711825,
    89.114849914396));
#708 = CARTESIAN_POINT('',(-10.31117068536,32.879490525566,
    89.170239184817));
#709 = CARTESIAN_POINT('',(-10.66961364094,32.770081098159,
    89.284207008952));
#710 = CARTESIAN_POINT('',(-10.8210154018,32.723246847222,
    89.338788483275));
#711 = CARTESIAN_POINT('',(-10.96896507793,32.676901206914,
    89.398515294276));
#712 = CARTESIAN_POINT('',(-11.11325335095,32.631170295593,
    89.463094897852));
#713 = CARTESIAN_POINT('',(-11.25372022933,32.586168779214,
    89.532235504041));
#714 = CARTESIAN_POINT('',(-11.39024758738,32.541999533878,
    89.605654791641));
#715 = CARTESIAN_POINT('',(-11.70041209427,32.440769138078,
    89.786911243307));
#716 = CARTESIAN_POINT('',(-11.87082538743,32.384448947493,
    89.897942082013));
#717 = CARTESIAN_POINT('',(-12.03381165308,32.33000598565,90.01555099203
    ));
#718 = CARTESIAN_POINT('',(-12.18926088735,32.277627535614,
    90.139144418782));
#719 = CARTESIAN_POINT('',(-12.33712065237,32.227475698037,
    90.268173427087));
#720 = CARTESIAN_POINT('',(-12.47738371545,32.179688174703,
    90.402141728194));
#721 = CARTESIAN_POINT('',(-12.72113008814,32.096458314881,
    90.656505589171));
#722 = CARTESIAN_POINT('',(-12.82687437427,32.060276060278,
    90.77554475568));
#723 = CARTESIAN_POINT('',(-12.92732092985,32.025900584649,
    90.897471477903));
#724 = CARTESIAN_POINT('',(-13.02248748651,31.993392883779,
    91.022041789377));
#725 = CARTESIAN_POINT('',(-13.11239636095,31.962806754792,
    91.149027667755));
#726 = CARTESIAN_POINT('',(-13.19707369171,31.934188898088,
    91.278217216939));
#727 = CARTESIAN_POINT('',(-13.48527322331,31.83769369652,
    91.753978195062));
#728 = CARTESIAN_POINT('',(-13.65804040742,31.78168339954,
    92.112269095504));
#729 = CARTESIAN_POINT('',(-13.7955019748,31.740224842954,
    92.480871080926));
#730 = CARTESIAN_POINT('',(-13.89804382747,31.713811247759,
    92.856684471471));
#731 = CARTESIAN_POINT('',(-13.96608286019,31.702641686813,
    93.236845211104));
#732 = CARTESIAN_POINT('',(-14.,31.706650428011,93.618737785419));
#733 = CARTESIAN_POINT('',(-14.,31.725592883375,94.));
#734 = ORIENTED_EDGE('',*,*,#606,.T.);
#735 = CYLINDRICAL_SURFACE('',#736,5.);
#736 = AXIS2_PLACEMENT_3D('',#737,#738,#739);
#737 = CARTESIAN_POINT('',(-9.,22.,94.));
#738 = DIRECTION('',(0.,1.,0.));
#739 = DIRECTION('',(0.,0.,1.));
#740 = ADVANCED_FACE('',(#741),#753,.F.);
#741 = FACE_BOUND('',#742,.F.);
#742 = EDGE_LOOP('',(#743,#744,#751,#752));
#743 = ORIENTED_EDGE('',*,*,#692,.F.);
#744 = ORIENTED_EDGE('',*,*,#745,.F.);
#745 = EDGE_CURVE('',#641,#693,#746,.T.);
#746 = CIRCLE('',#747,34.45);
#747 = AXIS2_PLACEMENT_3D('',#748,#749,#750);
#748 = CARTESIAN_POINT('',(0.,0.,89.));
#749 = DIRECTION('',(0.,0.,1.));
#750 = DIRECTION('',(1.,0.,0.));
#751 = ORIENTED_EDGE('',*,*,#677,.T.);
#752 = ORIENTED_EDGE('',*,*,#78,.T.);
#753 = PLANE('',#754);
#754 = AXIS2_PLACEMENT_3D('',#755,#756,#757);
#755 = CARTESIAN_POINT('',(-9.,22.,89.));
#756 = DIRECTION('',(0.,0.,1.));
#757 = DIRECTION('',(1.,0.,0.));
#758 = ADVANCED_FACE('',(#759),#901,.F.);
#759 = FACE_BOUND('',#760,.F.);
#760 = EDGE_LOOP('',(#761,#762,#770,#900));
#761 = ORIENTED_EDGE('',*,*,#133,.F.);
#762 = ORIENTED_EDGE('',*,*,#763,.F.);
#763 = EDGE_CURVE('',#764,#134,#766,.T.);
#764 = VERTEX_POINT('',#765);
#765 = CARTESIAN_POINT('',(-3.918869757272E-16,34.840909090909,97.6));
#766 = LINE('',#767,#768);
#767 = CARTESIAN_POINT('',(-3.918869757272E-16,24.,97.6));
#768 = VECTOR('',#769,1.);
#769 = DIRECTION('',(0.,1.,0.));
#770 = ORIENTED_EDGE('',*,*,#771,.T.);
#771 = EDGE_CURVE('',#764,#764,#772,.T.);
#772 = B_SPLINE_CURVE_WITH_KNOTS('',6,(#773,#774,#775,#776,#777,#778,
    #779,#780,#781,#782,#783,#784,#785,#786,#787,#788,#789,#790,#791,
    #792,#793,#794,#795,#796,#797,#798,#799,#800,#801,#802,#803,#804,
    #805,#806,#807,#808,#809,#810,#811,#812,#813,#814,#815,#816,#817,
    #818,#819,#820,#821,#822,#823,#824,#825,#826,#827,#828,#829,#830,
    #831,#832,#833,#834,#835,#836,#837,#838,#839,#840,#841,#842,#843,
    #844,#845,#846,#847,#848,#849,#850,#851,#852,#853,#854,#855,#856,
    #857,#858,#859,#860,#861,#862,#863,#864,#865,#866,#867,#868,#869,
    #870,#871,#872,#873,#874,#875,#876,#877,#878,#879,#880,#881,#882,
    #883,#884,#885,#886,#887,#888,#889,#890,#891,#892,#893,#894,#895,
    #896,#897,#898,#899),.UNSPECIFIED.,.T.,.F.,(7,5,5,5,5,5,5,5,5,5,5,5,
    5,5,5,5,5,5,5,5,5,5,5,5,5,7),(0.,5.412482913175E-02,
    8.733678948166E-02,0.129834634429,0.162134725716,0.249257472896,
    0.31230511962,0.336927519662,0.369223497387,0.411729030639,
    0.445415683677,0.463359994461,0.474806906463,0.499995391223,
    0.536629830243,0.554574510868,0.588261858204,0.630768267515,
    0.663064910875,0.687687818398,0.750736764563,0.837861307385,
    0.870162064392,0.91266078524,0.945873430104,1.),.UNSPECIFIED.);
#773 = CARTESIAN_POINT('',(-4.440892098501E-16,34.840909090909,97.6));
#774 = CARTESIAN_POINT('',(0.105376896996,34.840909090909,97.6));
#775 = CARTESIAN_POINT('',(0.210796300113,34.840148086068,
    97.591671562626));
#776 = CARTESIAN_POINT('',(0.314693315674,34.838624872835,
    97.575003630153));
#777 = CARTESIAN_POINT('',(0.415795125997,34.836398958231,
    97.550477430256));
#778 = CARTESIAN_POINT('',(0.513103167573,34.833563246205,
    97.518805915294));
#779 = CARTESIAN_POINT('',(0.662793798051,34.828175149989,
    97.457562029965));
#780 = CARTESIAN_POINT('',(0.718033628899,34.825935683918,
    97.431895993341));
#781 = CARTESIAN_POINT('',(0.771445326429,34.823528943499,
    97.404036194512));
#782 = CARTESIAN_POINT('',(0.822930737216,34.820978602149,
    97.374168939098));
#783 = CARTESIAN_POINT('',(0.872428584053,34.818307446577,
    97.342473600512));
#784 = CARTESIAN_POINT('',(0.98065572944,34.811989791391,97.266423050608
    ));
#785 = CARTESIAN_POINT('',(1.038091732503,34.808279696286,
    97.221009528786));
#786 = CARTESIAN_POINT('',(1.092151387346,34.804448787706,
    97.173207824789));
#787 = CARTESIAN_POINT('',(1.142822641605,34.800535512221,97.12332290219
    ));
#788 = CARTESIAN_POINT('',(1.19012780371,34.7965730827,97.071620734379)
  );
#789 = CARTESIAN_POINT('',(1.267535200026,34.789560615894,
    96.977810288519));
#790 = CARTESIAN_POINT('',(1.299039514696,34.786519999165,
    96.936379213287));
#791 = CARTESIAN_POINT('',(1.328639166395,34.78347908757,96.894125412623
    ));
#792 = CARTESIAN_POINT('',(1.356353319368,34.780448641615,
    96.851137664864));
#793 = CARTESIAN_POINT('',(1.382202341871,34.777438063215,
    96.807495465239));
#794 = CARTESIAN_POINT('',(1.470957530233,34.766410273294,
    96.643977446711));
#795 = CARTESIAN_POINT('',(1.522266249322,34.758571710894,
    96.520485356425));
#796 = CARTESIAN_POINT('',(1.560605959312,34.751092639906,
    96.394093527409));
#797 = CARTESIAN_POINT('',(1.586238231009,34.74407928578,96.265881105571
    ));
#798 = CARTESIAN_POINT('',(1.599370140784,34.73759991094,96.136779843768
    ));
#799 = CARTESIAN_POINT('',(1.600424876943,34.727417805758,
    95.914078654188));
#800 = CARTESIAN_POINT('',(1.594311017015,34.723443992236,
    95.820558031815));
#801 = CARTESIAN_POINT('',(1.581641520593,34.719786174748,
    95.727333357858));
#802 = CARTESIAN_POINT('',(1.56236409239,34.716453637552,95.634748306127
    ));
#803 = CARTESIAN_POINT('',(1.536396337348,34.713449093967,
    95.543176471987));
#804 = CARTESIAN_POINT('',(1.490797621762,34.709721279474,
    95.417826621616));
#805 = CARTESIAN_POINT('',(1.476950739172,34.708723717947,
    95.382840723091));
#806 = CARTESIAN_POINT('',(1.46205591044,34.707775336586,95.348099251337
    ));
#807 = CARTESIAN_POINT('',(1.446104991581,34.70687575126,95.313629658848
    ));
#808 = CARTESIAN_POINT('',(1.429089296535,34.706024420088,95.27946141314
    ));
#809 = CARTESIAN_POINT('',(1.387272238064,34.704166369567,
    95.201245763605));
#810 = CARTESIAN_POINT('',(1.361697797822,34.703193904219,95.1574389107)
  );
#811 = CARTESIAN_POINT('',(1.334254569211,34.702301680804,
    95.114275893829));
#812 = CARTESIAN_POINT('',(1.304922110467,34.701487600395,
    95.071836392364));
#813 = CARTESIAN_POINT('',(1.273681245296,34.700749031726,
    95.030209309254));
#814 = CARTESIAN_POINT('',(1.196861915612,34.699205981906,
    94.935904730286));
#815 = CARTESIAN_POINT('',(1.14987650648,34.698454490353,94.883897826806
    ));
#816 = CARTESIAN_POINT('',(1.099516659009,34.697821033243,
    94.833691793326));
#817 = CARTESIAN_POINT('',(1.045760132864,34.697296593514,
    94.785552506889));
#818 = CARTESIAN_POINT('',(0.98861873052,34.69687039104,94.739784400905)
  );
#819 = CARTESIAN_POINT('',(0.880233184619,34.696259933194,94.66259558848
    ));
#820 = CARTESIAN_POINT('',(0.830228224117,34.696043846752,
    94.630170498113));
#821 = CARTESIAN_POINT('',(0.778173242831,34.695875406616,94.59961608495
    ));
#822 = CARTESIAN_POINT('',(0.724131515196,34.695747742843,
    94.571119020349));
#823 = CARTESIAN_POINT('',(0.668204728221,34.6956536889,94.544873207082)
  );
#824 = CARTESIAN_POINT('',(0.579827326605,34.695550230823,
    94.508388622513));
#825 = CARTESIAN_POINT('',(0.548619838059,34.695521817994,
    94.496401107268));
#826 = CARTESIAN_POINT('',(0.516943432087,34.69549986907,94.485135601749
    ));
#827 = CARTESIAN_POINT('',(0.484825370606,34.695483354477,
    94.474620084729));
#828 = CARTESIAN_POINT('',(0.452297119723,34.695471295128,
    94.464881184457));
#829 = CARTESIAN_POINT('',(0.398405239759,34.695457319296,
    94.450243145053));
#830 = CARTESIAN_POINT('',(0.377263726343,34.695453314869,
    94.444868335415));
#831 = CARTESIAN_POINT('',(0.35597913329,34.69545051125,94.439826239023)
  );
#832 = CARTESIAN_POINT('',(0.334561434848,34.695448688617,
    94.435122857174));
#833 = CARTESIAN_POINT('',(0.313021255706,34.695447645211,
    94.430763703186));
#834 = CARTESIAN_POINT('',(0.243726840848,34.695446211812,
    94.417930171632));
#835 = CARTESIAN_POINT('',(0.19554327934,34.695448116266,94.410797182482
    ));
#836 = CARTESIAN_POINT('',(0.14694295355,34.695450964727,94.405408651823
    ));
#837 = CARTESIAN_POINT('',(9.805796181456E-02,34.695453356758,
    94.401802835108));
#838 = CARTESIAN_POINT('',(4.90280620412E-02,34.695454545455,94.4));
#839 = CARTESIAN_POINT('',(-7.130701057286E-02,34.695454545455,94.4));
#840 = CARTESIAN_POINT('',(-0.142623926028,34.695452048249,
    94.403813743696));
#841 = CARTESIAN_POINT('',(-0.213487564359,34.695446935929,
    94.411442103193));
#842 = CARTESIAN_POINT('',(-0.283478404674,34.695442667736,
    94.422792420108));
#843 = CARTESIAN_POINT('',(-0.352222659941,34.695445342724,
    94.437699095308));
#844 = CARTESIAN_POINT('',(-0.452297119723,34.695471295128,
    94.464881184457));
#845 = CARTESIAN_POINT('',(-0.484825370606,34.695483354477,
    94.474620084729));
#846 = CARTESIAN_POINT('',(-0.516943432087,34.69549986907,94.48513560175
    ));
#847 = CARTESIAN_POINT('',(-0.548619838059,34.695521817994,
    94.496401107268));
#848 = CARTESIAN_POINT('',(-0.579827326605,34.695550230823,
    94.508388622513));
#849 = CARTESIAN_POINT('',(-0.668204728221,34.6956536889,94.544873207083
    ));
#850 = CARTESIAN_POINT('',(-0.724131515196,34.695747742843,
    94.571119020349));
#851 = CARTESIAN_POINT('',(-0.778173242831,34.695875406616,
    94.59961608495));
#852 = CARTESIAN_POINT('',(-0.830228224117,34.696043846752,
    94.630170498113));
#853 = CARTESIAN_POINT('',(-0.880233184619,34.696259933194,
    94.66259558848));
#854 = CARTESIAN_POINT('',(-0.98861873052,34.69687039104,94.739784400905
    ));
#855 = CARTESIAN_POINT('',(-1.045760132864,34.697296593514,
    94.785552506889));
#856 = CARTESIAN_POINT('',(-1.099516659009,34.697821033243,
    94.833691793326));
#857 = CARTESIAN_POINT('',(-1.14987650648,34.698454490353,
    94.883897826806));
#858 = CARTESIAN_POINT('',(-1.196861915612,34.699205981906,
    94.935904730286));
#859 = CARTESIAN_POINT('',(-1.273681245296,34.700749031726,
    95.030209309254));
#860 = CARTESIAN_POINT('',(-1.304922110467,34.701487600395,
    95.071836392364));
#861 = CARTESIAN_POINT('',(-1.334254569211,34.702301680804,
    95.114275893829));
#862 = CARTESIAN_POINT('',(-1.361697797822,34.703193904219,95.1574389107
    ));
#863 = CARTESIAN_POINT('',(-1.387272238064,34.704166369567,
    95.201245763605));
#864 = CARTESIAN_POINT('',(-1.429089296535,34.706024420088,
    95.27946141314));
#865 = CARTESIAN_POINT('',(-1.446104991581,34.70687575126,
    95.313629658848));
#866 = CARTESIAN_POINT('',(-1.46205591044,34.707775336586,
    95.348099251337));
#867 = CARTESIAN_POINT('',(-1.476950739172,34.708723717947,
    95.382840723091));
#868 = CARTESIAN_POINT('',(-1.490797621762,34.709721279474,
    95.417826621616));
#869 = CARTESIAN_POINT('',(-1.536396337348,34.713449093967,
    95.543176471987));
#870 = CARTESIAN_POINT('',(-1.56236409239,34.716453637552,
    95.634748306127));
#871 = CARTESIAN_POINT('',(-1.581641520593,34.719786174748,
    95.727333357857));
#872 = CARTESIAN_POINT('',(-1.594311017015,34.723443992236,
    95.820558031815));
#873 = CARTESIAN_POINT('',(-1.600424876943,34.727417805758,
    95.914078654188));
#874 = CARTESIAN_POINT('',(-1.599370140784,34.73759991094,
    96.136779843768));
#875 = CARTESIAN_POINT('',(-1.586238231009,34.74407928578,
    96.265881105572));
#876 = CARTESIAN_POINT('',(-1.560605959312,34.751092639906,
    96.394093527408));
#877 = CARTESIAN_POINT('',(-1.522266249322,34.758571710894,
    96.520485356426));
#878 = CARTESIAN_POINT('',(-1.470957530233,34.766410273294,
    96.643977446711));
#879 = CARTESIAN_POINT('',(-1.382202341871,34.777438063215,
    96.807495465239));
#880 = CARTESIAN_POINT('',(-1.356353319368,34.780448641615,
    96.851137664865));
#881 = CARTESIAN_POINT('',(-1.328639166395,34.78347908757,
    96.894125412623));
#882 = CARTESIAN_POINT('',(-1.299039514695,34.786519999165,
    96.936379213287));
#883 = CARTESIAN_POINT('',(-1.267535200025,34.789560615894,
    96.977810288519));
#884 = CARTESIAN_POINT('',(-1.19012780371,34.7965730827,97.07162073438)
  );
#885 = CARTESIAN_POINT('',(-1.142822641605,34.800535512221,
    97.12332290219));
#886 = CARTESIAN_POINT('',(-1.092151387346,34.804448787706,
    97.173207824789));
#887 = CARTESIAN_POINT('',(-1.038091732503,34.808279696286,
    97.221009528786));
#888 = CARTESIAN_POINT('',(-0.98065572944,34.811989791391,
    97.266423050608));
#889 = CARTESIAN_POINT('',(-0.872428584053,34.818307446577,
    97.342473600512));
#890 = CARTESIAN_POINT('',(-0.822930737216,34.820978602149,
    97.374168939098));
#891 = CARTESIAN_POINT('',(-0.771445326428,34.823528943499,
    97.404036194512));
#892 = CARTESIAN_POINT('',(-0.718033628899,34.825935683918,
    97.431895993341));
#893 = CARTESIAN_POINT('',(-0.662793798051,34.828175149989,
    97.457562029965));
#894 = CARTESIAN_POINT('',(-0.513102095992,34.833563284777,
    97.518806353717));
#895 = CARTESIAN_POINT('',(-0.415795005676,34.836398945868,
    97.550477283942));
#896 = CARTESIAN_POINT('',(-0.314692614245,34.838624911361,
    97.57500406495));
#897 = CARTESIAN_POINT('',(-0.210793141269,34.84014814336,
    97.591672187718));
#898 = CARTESIAN_POINT('',(-0.105373016237,34.840909090909,97.6));
#899 = CARTESIAN_POINT('',(-4.440892098501E-16,34.840909090909,97.6));
#900 = ORIENTED_EDGE('',*,*,#763,.T.);
#901 = CYLINDRICAL_SURFACE('',#902,1.6);
#902 = AXIS2_PLACEMENT_3D('',#903,#904,#905);
#903 = CARTESIAN_POINT('',(0.,24.,96.));
#904 = DIRECTION('',(0.,1.,0.));
#905 = DIRECTION('',(0.,0.,1.));
#906 = ADVANCED_FACE('',(#907),#952,.T.);
#907 = FACE_BOUND('',#908,.T.);
#908 = EDGE_LOOP('',(#909,#910,#918,#951));
#909 = ORIENTED_EDGE('',*,*,#346,.T.);
#910 = ORIENTED_EDGE('',*,*,#911,.F.);
#911 = EDGE_CURVE('',#912,#338,#914,.T.);
#912 = VERTEX_POINT('',#913);
#913 = CARTESIAN_POINT('',(9.,34.265020836015,142.));
#914 = LINE('',#915,#916);
#915 = CARTESIAN_POINT('',(9.,22.,142.));
#916 = VECTOR('',#917,1.);
#917 = DIRECTION('',(0.,1.,0.));
#918 = ORIENTED_EDGE('',*,*,#919,.F.);
#919 = EDGE_CURVE('',#572,#912,#920,.T.);
#920 = B_SPLINE_CURVE_WITH_KNOTS('',8,(#921,#922,#923,#924,#925,#926,
    #927,#928,#929,#930,#931,#932,#933,#934,#935,#936,#937,#938,#939,
    #940,#941,#942,#943,#944,#945,#946,#947,#948,#949,#950),
  .UNSPECIFIED.,.F.,.F.,(9,7,7,7,9),(0.,0.43794307705,0.567857257122,
    0.726331563215,1.),.UNSPECIFIED.);
#921 = CARTESIAN_POINT('',(14.,32.481826530416,137.));
#922 = CARTESIAN_POINT('',(14.,32.486602806001,137.38598626494));
#923 = CARTESIAN_POINT('',(13.965946079747,32.506051847261,
    137.77159521127));
#924 = CARTESIAN_POINT('',(13.897955594051,32.540087904043,
    138.15466523723));
#925 = CARTESIAN_POINT('',(13.795911222719,32.588485908058,
    138.53283179725));
#926 = CARTESIAN_POINT('',(13.659647062953,32.650809745291,
    138.90355742885));
#927 = CARTESIAN_POINT('',(13.488905936037,32.726416123853,
    139.26410876006));
#928 = CARTESIAN_POINT('',(13.283395702188,32.814458661466,
    139.61156187801));
#929 = CARTESIAN_POINT('',(12.970856484919,32.943551919486,
    140.04089776516));
#930 = CARTESIAN_POINT('',(12.896240265844,32.974094052998,
    140.13766574857));
#931 = CARTESIAN_POINT('',(12.818497243975,33.005617872265,
    140.23288800187));
#932 = CARTESIAN_POINT('',(12.737615360242,33.038094430019,
    140.32646771414));
#933 = CARTESIAN_POINT('',(12.653583901918,33.071492352047,
    140.41830173247));
#934 = CARTESIAN_POINT('',(12.56639371404,33.105777819127,
    140.50828062803));
#935 = CARTESIAN_POINT('',(12.47603741082,33.140914548969,
    140.59628876219));
#936 = CARTESIAN_POINT('',(12.268420755788,33.220716028516,
    140.78700748903));
#937 = CARTESIAN_POINT('',(12.149618974194,33.265774773202,
    140.88869099297));
#938 = CARTESIAN_POINT('',(12.026091985592,33.311971044603,
    140.98703733551));
#939 = CARTESIAN_POINT('',(11.897841555567,33.359226127049,
    141.08180452912));
#940 = CARTESIAN_POINT('',(11.764887007716,33.407451499765,
    141.17272863754));
#941 = CARTESIAN_POINT('',(11.627268759379,33.456548779817,
    141.25952628577));
#942 = CARTESIAN_POINT('',(11.485051857379,33.506409665062,
    141.34189717009));
#943 = CARTESIAN_POINT('',(11.084955478477,33.644134786176,
    141.55358436254));
#944 = CARTESIAN_POINT('',(10.81793074861,33.733352374412,
    141.67361560733));
#945 = CARTESIAN_POINT('',(10.537936273672,33.823884040856,
    141.77783427649));
#946 = CARTESIAN_POINT('',(10.24605591435,33.914920234419,
    141.86434250028));
#947 = CARTESIAN_POINT('',(9.943850835636,34.005545796209,
    141.93128196046));
#948 = CARTESIAN_POINT('',(9.633434497566,34.094776678261,
    141.97694448486));
#949 = CARTESIAN_POINT('',(9.317593557759,34.181602179026,142.));
#950 = CARTESIAN_POINT('',(9.,34.265020836015,142.));
#951 = ORIENTED_EDGE('',*,*,#571,.T.);
#952 = CYLINDRICAL_SURFACE('',#953,5.);
#953 = AXIS2_PLACEMENT_3D('',#954,#955,#956);
#954 = CARTESIAN_POINT('',(9.,22.,137.));
#955 = DIRECTION('',(0.,1.,0.));
#956 = DIRECTION('',(0.,0.,1.));
#957 = ADVANCED_FACE('',(#958),#977,.T.);
#958 = FACE_BOUND('',#959,.T.);
#959 = EDGE_LOOP('',(#960,#968,#975,#976));
#960 = ORIENTED_EDGE('',*,*,#961,.F.);
#961 = EDGE_CURVE('',#962,#295,#964,.T.);
#962 = VERTEX_POINT('',#963);
#963 = CARTESIAN_POINT('',(-9.,34.265020836015,142.));
#964 = LINE('',#965,#966);
#965 = CARTESIAN_POINT('',(-9.,22.,142.));
#966 = VECTOR('',#967,1.);
#967 = DIRECTION('',(0.,1.,0.));
#968 = ORIENTED_EDGE('',*,*,#969,.F.);
#969 = EDGE_CURVE('',#912,#962,#970,.T.);
#970 = CIRCLE('',#971,35.427272727273);
#971 = AXIS2_PLACEMENT_3D('',#972,#973,#974);
#972 = CARTESIAN_POINT('',(0.,0.,142.));
#973 = DIRECTION('',(0.,0.,1.));
#974 = DIRECTION('',(1.,0.,0.));
#975 = ORIENTED_EDGE('',*,*,#911,.T.);
#976 = ORIENTED_EDGE('',*,*,#337,.T.);
#977 = PLANE('',#978);
#978 = AXIS2_PLACEMENT_3D('',#979,#980,#981);
#979 = CARTESIAN_POINT('',(-9.,22.,142.));
#980 = DIRECTION('',(0.,0.,1.));
#981 = DIRECTION('',(1.,0.,0.));
#982 = ADVANCED_FACE('',(#983),#1023,.T.);
#983 = FACE_BOUND('',#984,.T.);
#984 = EDGE_LOOP('',(#985,#986,#987,#1022));
#985 = ORIENTED_EDGE('',*,*,#294,.T.);
#986 = ORIENTED_EDGE('',*,*,#614,.F.);
#987 = ORIENTED_EDGE('',*,*,#988,.F.);
#988 = EDGE_CURVE('',#962,#615,#989,.T.);
#989 = B_SPLINE_CURVE_WITH_KNOTS('',7,(#990,#991,#992,#993,#994,#995,
    #996,#997,#998,#999,#1000,#1001,#1002,#1003,#1004,#1005,#1006,#1007,
    #1008,#1009,#1010,#1011,#1012,#1013,#1014,#1015,#1016,#1017,#1018,
    #1019,#1020,#1021),.UNSPECIFIED.,.F.,.F.,(8,6,6,6,6,8),(0.,
    0.273677780406,0.432157497147,0.562076112765,0.945878164874,1.),
  .UNSPECIFIED.);
#990 = CARTESIAN_POINT('',(-9.,34.265020836015,142.));
#991 = CARTESIAN_POINT('',(-9.362964066012,34.169685228028,142.));
#992 = CARTESIAN_POINT('',(-9.723591308082,34.069807161672,
    141.96925931315));
#993 = CARTESIAN_POINT('',(-10.07600655217,33.966988976932,
    141.90849554884));
#994 = CARTESIAN_POINT('',(-10.41610527653,33.862851491906,
    141.82018945173));
#995 = CARTESIAN_POINT('',(-10.74098793557,33.758938289106,
    141.70724231776));
#996 = CARTESIAN_POINT('',(-11.04875918772,33.656594630331,
    141.57273547605));
#997 = CARTESIAN_POINT('',(-11.50601219218,33.499194491914,
    141.33080725611));
#998 = CARTESIAN_POINT('',(-11.66768761511,33.442333542451,
    141.23576596233));
#999 = CARTESIAN_POINT('',(-11.82320664327,33.386522274153,
    141.13490624266));
#1000 = CARTESIAN_POINT('',(-11.97247646785,33.331929979944,
    141.02870281558));
#1001 = CARTESIAN_POINT('',(-12.11545118182,33.278706152366,
    140.91759486874));
#1002 = CARTESIAN_POINT('',(-12.25212235132,33.22698063571,
    140.80197936568));
#1003 = CARTESIAN_POINT('',(-12.4893985285,33.1357789448,140.58401510643
    ));
#1004 = CARTESIAN_POINT('',(-12.59205877588,33.095777443902,
    140.4830358019));
#1005 = CARTESIAN_POINT('',(-12.69049897753,33.056921296934,
    140.3794612908));
#1006 = CARTESIAN_POINT('',(-12.78473174294,33.019267563105,
    140.27347413747));
#1007 = CARTESIAN_POINT('',(-12.87477307902,32.982868387532,
    140.16524444253));
#1008 = CARTESIAN_POINT('',(-12.9606418263,32.947771049397,
    140.05492966668));
#1009 = CARTESIAN_POINT('',(-13.28376603557,32.814305696523,
    139.61105315013));
#1010 = CARTESIAN_POINT('',(-13.48883034062,32.726371762353,
    139.26265178273));
#1011 = CARTESIAN_POINT('',(-13.65830122819,32.651231112564,
    138.90101194523));
#1012 = CARTESIAN_POINT('',(-13.7924707419,32.589783430301,
    138.52928021979));
#1013 = CARTESIAN_POINT('',(-13.89162178457,32.542669498571,
    138.15036062924));
#1014 = CARTESIAN_POINT('',(-13.95595195971,32.51027803668,
    137.76689494944));
#1015 = CARTESIAN_POINT('',(-13.98960196481,32.490350785195,
    137.32687431394));
#1016 = CARTESIAN_POINT('',(-13.99306765875,32.488184994124,
    137.27245312275));
#1017 = CARTESIAN_POINT('',(-13.99584035689,32.48631671502,
    137.21799902926));
#1018 = CARTESIAN_POINT('',(-13.99792003542,32.484746405789,
    137.16351935352));
#1019 = CARTESIAN_POINT('',(-13.99930662285,32.483474434604,
    137.10902141336));
#1020 = CARTESIAN_POINT('',(-14.,32.482501079909,137.05451252439));
#1021 = CARTESIAN_POINT('',(-14.,32.481826530416,137.));
#1022 = ORIENTED_EDGE('',*,*,#961,.T.);
#1023 = CYLINDRICAL_SURFACE('',#1024,5.);
#1024 = AXIS2_PLACEMENT_3D('',#1025,#1026,#1027);
#1025 = CARTESIAN_POINT('',(-9.,22.,137.));
#1026 = DIRECTION('',(0.,1.,0.));
#1027 = DIRECTION('',(0.,0.,1.));
#1028 = ADVANCED_FACE('',(#1029),#1055,.F.);
#1029 = FACE_BOUND('',#1030,.F.);
#1030 = EDGE_LOOP('',(#1031,#1039,#1048,#1054));
#1031 = ORIENTED_EDGE('',*,*,#1032,.F.);
#1032 = EDGE_CURVE('',#1033,#384,#1035,.T.);
#1033 = VERTEX_POINT('',#1034);
#1034 = CARTESIAN_POINT('',(4.,36.364759144598,103.));
#1035 = LINE('',#1036,#1037);
#1036 = CARTESIAN_POINT('',(4.,32.,103.));
#1037 = VECTOR('',#1038,1.);
#1038 = DIRECTION('',(0.,1.,0.));
#1039 = ORIENTED_EDGE('',*,*,#1040,.T.);
#1040 = EDGE_CURVE('',#1033,#1041,#1043,.T.);
#1041 = VERTEX_POINT('',#1042);
#1042 = CARTESIAN_POINT('',(-4.,36.364759144598,103.));
#1043 = CIRCLE('',#1044,36.584090909091);
#1044 = AXIS2_PLACEMENT_3D('',#1045,#1046,#1047);
#1045 = CARTESIAN_POINT('',(0.,0.,103.));
#1046 = DIRECTION('',(0.,0.,1.));
#1047 = DIRECTION('',(1.,0.,0.));
#1048 = ORIENTED_EDGE('',*,*,#1049,.T.);
#1049 = EDGE_CURVE('',#1041,#386,#1050,.T.);
#1050 = LINE('',#1051,#1052);
#1051 = CARTESIAN_POINT('',(-4.,32.,103.));
#1052 = VECTOR('',#1053,1.);
#1053 = DIRECTION('',(0.,1.,0.));
#1054 = ORIENTED_EDGE('',*,*,#383,.F.);
#1055 = PLANE('',#1056);
#1056 = AXIS2_PLACEMENT_3D('',#1057,#1058,#1059);
#1057 = CARTESIAN_POINT('',(-4.,32.,103.));
#1058 = DIRECTION('',(0.,0.,-1.));
#1059 = DIRECTION('',(1.,0.,0.));
#1060 = ADVANCED_FACE('',(#1061),#1080,.F.);
#1061 = FACE_BOUND('',#1062,.F.);
#1062 = EDGE_LOOP('',(#1063,#1072,#1078,#1079));
#1063 = ORIENTED_EDGE('',*,*,#1064,.F.);
#1064 = EDGE_CURVE('',#1065,#1041,#1067,.T.);
#1065 = VERTEX_POINT('',#1066);
#1066 = CARTESIAN_POINT('',(0.,36.640909090909,108.));
#1067 = ELLIPSE('',#1068,58.665910238982,36.64460615222);
#1068 = AXIS2_PLACEMENT_3D('',#1069,#1070,#1071);
#1069 = CARTESIAN_POINT('',(0.520572494127,0.,108.65071561765));
#1070 = DIRECTION('',(-0.780868809443,0.,0.624695047554));
#1071 = DIRECTION('',(0.624695047554,0.,0.780868809443));
#1072 = ORIENTED_EDGE('',*,*,#1073,.T.);
#1073 = EDGE_CURVE('',#1065,#395,#1074,.T.);
#1074 = LINE('',#1075,#1076);
#1075 = CARTESIAN_POINT('',(0.,32.,108.));
#1076 = VECTOR('',#1077,1.);
#1077 = DIRECTION('',(0.,1.,0.));
#1078 = ORIENTED_EDGE('',*,*,#403,.T.);
#1079 = ORIENTED_EDGE('',*,*,#1049,.F.);
#1080 = PLANE('',#1081);
#1081 = AXIS2_PLACEMENT_3D('',#1082,#1083,#1084);
#1082 = CARTESIAN_POINT('',(0.,32.,108.));
#1083 = DIRECTION('',(-0.780868809443,0.,0.624695047554));
#1084 = DIRECTION('',(-0.624695047554,0.,-0.780868809443));
#1085 = ADVANCED_FACE('',(#1086),#1098,.F.);
#1086 = FACE_BOUND('',#1087,.F.);
#1087 = EDGE_LOOP('',(#1088,#1095,#1096,#1097));
#1088 = ORIENTED_EDGE('',*,*,#1089,.F.);
#1089 = EDGE_CURVE('',#1033,#1065,#1090,.T.);
#1090 = ELLIPSE('',#1091,58.665910238982,36.64460615222);
#1091 = AXIS2_PLACEMENT_3D('',#1092,#1093,#1094);
#1092 = CARTESIAN_POINT('',(-0.520572494127,0.,108.65071561765));
#1093 = DIRECTION('',(0.780868809443,0.,0.624695047554));
#1094 = DIRECTION('',(-0.624695047554,0.,0.780868809443));
#1095 = ORIENTED_EDGE('',*,*,#1032,.T.);
#1096 = ORIENTED_EDGE('',*,*,#394,.T.);
#1097 = ORIENTED_EDGE('',*,*,#1073,.F.);
#1098 = PLANE('',#1099);
#1099 = AXIS2_PLACEMENT_3D('',#1100,#1101,#1102);
#1100 = CARTESIAN_POINT('',(4.,32.,103.));
#1101 = DIRECTION('',(0.780868809443,0.,0.624695047554));
#1102 = DIRECTION('',(-0.624695047554,0.,0.780868809443));
#1103 = ADVANCED_FACE('',(#1104),#1246,.F.);
#1104 = FACE_BOUND('',#1105,.F.);
#1105 = EDGE_LOOP('',(#1106,#1107,#1115,#1245));
#1106 = ORIENTED_EDGE('',*,*,#412,.T.);
#1107 = ORIENTED_EDGE('',*,*,#1108,.F.);
#1108 = EDGE_CURVE('',#1109,#413,#1111,.T.);
#1109 = VERTEX_POINT('',#1110);
#1110 = CARTESIAN_POINT('',(-3.918869757271E-16,35.411363636364,140.6));
#1111 = LINE('',#1112,#1113);
#1112 = CARTESIAN_POINT('',(-3.918869757271E-16,24.,140.6));
#1113 = VECTOR('',#1114,1.);
#1114 = DIRECTION('',(0.,1.,0.));
#1115 = ORIENTED_EDGE('',*,*,#1116,.F.);
#1116 = EDGE_CURVE('',#1109,#1109,#1117,.T.);
#1117 = B_SPLINE_CURVE_WITH_KNOTS('',6,(#1118,#1119,#1120,#1121,#1122,
    #1123,#1124,#1125,#1126,#1127,#1128,#1129,#1130,#1131,#1132,#1133,
    #1134,#1135,#1136,#1137,#1138,#1139,#1140,#1141,#1142,#1143,#1144,
    #1145,#1146,#1147,#1148,#1149,#1150,#1151,#1152,#1153,#1154,#1155,
    #1156,#1157,#1158,#1159,#1160,#1161,#1162,#1163,#1164,#1165,#1166,
    #1167,#1168,#1169,#1170,#1171,#1172,#1173,#1174,#1175,#1176,#1177,
    #1178,#1179,#1180,#1181,#1182,#1183,#1184,#1185,#1186,#1187,#1188,
    #1189,#1190,#1191,#1192,#1193,#1194,#1195,#1196,#1197,#1198,#1199,
    #1200,#1201,#1202,#1203,#1204,#1205,#1206,#1207,#1208,#1209,#1210,
    #1211,#1212,#1213,#1214,#1215,#1216,#1217,#1218,#1219,#1220,#1221,
    #1222,#1223,#1224,#1225,#1226,#1227,#1228,#1229,#1230,#1231,#1232,
    #1233,#1234,#1235,#1236,#1237,#1238,#1239,#1240,#1241,#1242,#1243,
    #1244),.UNSPECIFIED.,.T.,.F.,(7,5,5,5,5,5,5,5,5,5,5,5,5,5,5,5,5,5,5,
    5,5,5,5,5,5,7),(0.,5.432845996377E-02,8.785736457708E-02,
    0.130457784656,0.162917274843,0.187309656707,0.250102054534,
    0.336805402963,0.369265461967,0.411870340881,0.445406143585,
    0.46362754934,0.500100009622,0.525355175389,0.5365780513,
    0.554442104395,0.587967613265,0.630559055594,0.663010508326,
    0.750686747048,0.812939406238,0.837325550013,0.869774322304,
    0.912357979463,0.945874054288,1.),.UNSPECIFIED.);
#1118 = CARTESIAN_POINT('',(8.881784197001E-16,35.411363636364,140.6));
#1119 = CARTESIAN_POINT('',(-0.105688479801,35.411363636364,140.6));
#1120 = CARTESIAN_POINT('',(-0.211424133077,35.410889928356,
    140.5916222497));
#1121 = CARTESIAN_POINT('',(-0.315633769277,35.409941608948,
    140.57485419991));
#1122 = CARTESIAN_POINT('',(-0.417034849105,35.408561508479,
    140.55017883358));
#1123 = CARTESIAN_POINT('',(-0.51462287958,35.406817913095,
    140.51831339188));
#1124 = CARTESIAN_POINT('',(-0.665059213752,35.403534069651,
    140.45655338518));
#1125 = CARTESIAN_POINT('',(-0.720757813279,35.402170966807,
    140.43056419889));
#1126 = CARTESIAN_POINT('',(-0.7745958439,35.400715188104,
    140.40234224982));
#1127 = CARTESIAN_POINT('',(-0.826472493082,35.399184279522,
    140.37207831569));
#1128 = CARTESIAN_POINT('',(-0.876324788746,35.397595124835,
    140.33995614393));
#1129 = CARTESIAN_POINT('',(-0.984841887207,35.393889188498,
    140.2631784109));
#1130 = CARTESIAN_POINT('',(-1.042236841088,35.391746148402,
    140.21748680176));
#1131 = CARTESIAN_POINT('',(-1.096240427513,35.389565097476,
    140.16940404299));
#1132 = CARTESIAN_POINT('',(-1.146839999756,35.387373809992,
    140.1192361795));
#1133 = CARTESIAN_POINT('',(-1.194057328655,35.385196181172,
    140.067250372));
#1134 = CARTESIAN_POINT('',(-1.271364707223,35.381417948258,
    139.97283932533));
#1135 = CARTESIAN_POINT('',(-1.302854155204,35.379803502615,
    139.93108638863));
#1136 = CARTESIAN_POINT('',(-1.332419569219,35.37821724249,
    139.88850770997));
#1137 = CARTESIAN_POINT('',(-1.360080123836,35.376666862688,
    139.84519326304));
#1138 = CARTESIAN_POINT('',(-1.385856247318,35.375159010022,
    139.80122364622));
#1139 = CARTESIAN_POINT('',(-1.427739840937,35.372602340294,
    139.72318934926));
#1140 = CARTESIAN_POINT('',(-1.444657767265,35.371532602009,
    139.68937929917));
#1141 = CARTESIAN_POINT('',(-1.460532212627,35.370492464326,
    139.65527042274));
#1142 = CARTESIAN_POINT('',(-1.475371460099,35.369484067913,
    139.62089128332));
#1143 = CARTESIAN_POINT('',(-1.489183263812,35.36850929824,
    139.58626851726));
#1144 = CARTESIAN_POINT('',(-1.534903748935,35.365151233216,
    139.46173518932));
#1145 = CARTESIAN_POINT('',(-1.561068569305,35.362966581589,
    139.37060153727));
#1146 = CARTESIAN_POINT('',(-1.580598971636,35.361043373957,
    139.27843427108));
#1147 = CARTESIAN_POINT('',(-1.593573631338,35.359400255153,
    139.18560273424));
#1148 = CARTESIAN_POINT('',(-1.60004160488,35.358047893897,
    139.09244724579));
#1149 = CARTESIAN_POINT('',(-1.599942169464,35.355529296926,
    138.8706417282));
#1150 = CARTESIAN_POINT('',(-1.587472998598,35.354630693709,
    138.74204156558));
#1151 = CARTESIAN_POINT('',(-1.562606126637,35.354302514365,
    138.6142639035));
#1152 = CARTESIAN_POINT('',(-1.52513476497,35.354531844107,
    138.48823104265));
#1153 = CARTESIAN_POINT('',(-1.474798887504,35.355277007859,
    138.36501061958));
#1154 = CARTESIAN_POINT('',(-1.38730547495,35.356907060793,
    138.20128821686));
#1155 = CARTESIAN_POINT('',(-1.361608582144,35.357412793342,
    138.15727121893));
#1156 = CARTESIAN_POINT('',(-1.334026246985,35.357976276091,
    138.11390639917));
#1157 = CARTESIAN_POINT('',(-1.304538016268,35.358592713698,
    138.07127438159));
#1158 = CARTESIAN_POINT('',(-1.273124699666,35.359256472141,
    138.02946514758));
#1159 = CARTESIAN_POINT('',(-1.195987106169,35.360885897661,
    137.93491237739));
#1160 = CARTESIAN_POINT('',(-1.148862055405,35.36188097349,
    137.88283925366));
#1161 = CARTESIAN_POINT('',(-1.098352332389,35.362931715002,
    137.83257928088));
#1162 = CARTESIAN_POINT('',(-1.044436107209,35.364020309308,
    137.78439953662));
#1163 = CARTESIAN_POINT('',(-0.987125848865,35.365125932929,
    137.73860588195));
#1164 = CARTESIAN_POINT('',(-0.878749891968,35.367090048141,
    137.66163289672));
#1165 = CARTESIAN_POINT('',(-0.828954751347,35.367950995363,
    137.62941986701));
#1166 = CARTESIAN_POINT('',(-0.777132745595,35.368796329943,
    137.59906205312));
#1167 = CARTESIAN_POINT('',(-0.723346511572,35.369613322199,
    137.57074308974));
#1168 = CARTESIAN_POINT('',(-0.667696348292,35.370388730198,
    137.54465368275));
#1169 = CARTESIAN_POINT('',(-0.579160215106,35.371501190126,
    137.50811849249));
#1170 = CARTESIAN_POINT('',(-0.54748424957,35.371876732918,
    137.49596942614));
#1171 = CARTESIAN_POINT('',(-0.515326027042,35.372234048531,
    137.48456434417));
#1172 = CARTESIAN_POINT('',(-0.48271408853,35.372571115639,
    137.47393244137));
#1173 = CARTESIAN_POINT('',(-0.449681433057,35.372886014017,
    137.46410146837));
#1174 = CARTESIAN_POINT('',(-0.349379314491,35.373759218939,
    137.4370756078));
#1175 = CARTESIAN_POINT('',(-0.280946184099,35.374245573765,
    137.42236414142));
#1176 = CARTESIAN_POINT('',(-0.211288596662,35.374621414876,
    137.4111769075));
#1177 = CARTESIAN_POINT('',(-0.140775635649,35.374875540008,
    137.40367573819));
#1178 = CARTESIAN_POINT('',(-6.982090776198E-02,35.375001667786,
    137.39995075343));
#1179 = CARTESIAN_POINT('',(5.024189680939E-02,35.3749988227,
    137.40003476343));
#1180 = CARTESIAN_POINT('',(9.936392283585E-02,35.374936371666,
    137.4018789125));
#1181 = CARTESIAN_POINT('',(0.148337988546,35.374812629978,
    137.40553275728));
#1182 = CARTESIAN_POINT('',(0.197023586716,35.374629027828,
    137.41097564155));
#1183 = CARTESIAN_POINT('',(0.245288008481,35.3743882396,137.41816881055
    ));
#1184 = CARTESIAN_POINT('',(0.314212355481,35.373963237621,
    137.43100800967));
#1185 = CARTESIAN_POINT('',(0.335310405622,35.37382192051,137.4352931178
    ));
#1186 = CARTESIAN_POINT('',(0.356290583412,35.373670370097,
    137.43990846661));
#1187 = CARTESIAN_POINT('',(0.377142910123,35.373508944767,
    137.44484886272));
#1188 = CARTESIAN_POINT('',(0.397858007575,35.373338034077,
    137.45010866415));
#1189 = CARTESIAN_POINT('',(0.451168022015,35.372871582395,
    137.46455280809));
#1190 = CARTESIAN_POINT('',(0.483539007175,35.372562123477,
    137.47421789687));
#1191 = CARTESIAN_POINT('',(0.515504887672,35.372231400003,
    137.48465220253));
#1192 = CARTESIAN_POINT('',(0.547034619551,35.371881223201,
    137.49582954975));
#1193 = CARTESIAN_POINT('',(0.578101280853,35.37151349753,
    137.50772243209));
#1194 = CARTESIAN_POINT('',(0.666073110831,35.37041092414,
    137.54391013806));
#1195 = CARTESIAN_POINT('',(0.721751674308,35.36963681502,
    137.56993709092));
#1196 = CARTESIAN_POINT('',(0.775569571975,35.368820887905,
    137.59819602777));
#1197 = CARTESIAN_POINT('',(0.827425973464,35.36797637881,
    137.62849633083));
#1198 = CARTESIAN_POINT('',(0.877257785538,35.367116019131,
    137.66065434884));
#1199 = CARTESIAN_POINT('',(0.985720794331,35.365152720784,
    137.73750755319));
#1200 = CARTESIAN_POINT('',(1.043082662211,35.364047183895,
    137.78323789067));
#1201 = CARTESIAN_POINT('',(1.097052886652,35.362958313688,
    137.83135803097));
#1202 = CARTESIAN_POINT('',(1.147618492381,35.361906954172,
    137.88156187207));
#1203 = CARTESIAN_POINT('',(1.19480098132,35.36091094234,137.93358206682
    ));
#1204 = CARTESIAN_POINT('',(1.272043841272,35.359279311631,
    138.02804885657));
#1205 = CARTESIAN_POINT('',(1.303504219306,35.358614412084,
    138.06982389174));
#1206 = CARTESIAN_POINT('',(1.333040020744,35.357996677251,
    138.11242340664));
#1207 = CARTESIAN_POINT('',(1.360670384181,35.357431752012,
    138.15575731381));
#1208 = CARTESIAN_POINT('',(1.386415738732,35.356924442148,
    138.1997448971));
#1209 = CARTESIAN_POINT('',(1.474821561258,35.355274462011,
    138.36473230096));
#1210 = CARTESIAN_POINT('',(1.525715448226,35.354520365639,
    138.48934943209));
#1211 = CARTESIAN_POINT('',(1.56345697636,35.35429416423,138.6168382872)
  );
#1212 = CARTESIAN_POINT('',(1.588313065005,35.354638786503,
    138.7460963987));
#1213 = CARTESIAN_POINT('',(1.6004965748,35.355567114342,138.87617175395
    ));
#1214 = CARTESIAN_POINT('',(1.599626488861,35.358136931803,
    139.09862318629));
#1215 = CARTESIAN_POINT('',(1.592866676002,35.359493216441,
    139.19096335741));
#1216 = CARTESIAN_POINT('',(1.579709552822,35.361134879305,
    139.28297142222));
#1217 = CARTESIAN_POINT('',(1.560106250434,35.363051311472,
    139.37431512051));
#1218 = CARTESIAN_POINT('',(1.533979186039,35.365224175377,
    139.46463367408));
#1219 = CARTESIAN_POINT('',(1.488361833337,35.368567574254,
    139.58835068005));
#1220 = CARTESIAN_POINT('',(1.474501932788,35.369543811781,
    139.62295337173));
#1221 = CARTESIAN_POINT('',(1.459614762817,35.370553587491,
    139.65731150594));
#1222 = CARTESIAN_POINT('',(1.443692556775,35.371595009885,
    139.69139841141));
#1223 = CARTESIAN_POINT('',(1.426727024326,35.372665931918,
    139.72518548344));
#1224 = CARTESIAN_POINT('',(1.384734615228,35.375225000825,
    139.80316045062));
#1225 = CARTESIAN_POINT('',(1.358897681079,35.37673397877,
    139.84709299013));
#1226 = CARTESIAN_POINT('',(1.331176862262,35.378285271279,
    139.89036848085));
#1227 = CARTESIAN_POINT('',(1.301551760599,35.379872215886,
    139.93290620835));
#1228 = CARTESIAN_POINT('',(1.270003266476,35.381487101219,
    139.97461606535));
#1229 = CARTESIAN_POINT('',(1.192563845873,35.385265608573,
    140.06891883287));
#1230 = CARTESIAN_POINT('',(1.145274486464,35.387442878558,
    140.12083800284));
#1231 = CARTESIAN_POINT('',(1.094604841982,35.389633316466,
    140.17093520961));
#1232 = CARTESIAN_POINT('',(1.040533554859,35.391812989336,
    140.21894295256));
#1233 = CARTESIAN_POINT('',(0.983073910479,35.393954090493,
    140.26455488315));
#1234 = CARTESIAN_POINT('',(0.874447724875,35.397655543467,
    140.3411819159));
#1235 = CARTESIAN_POINT('',(0.824549482038,35.399242373976,
    140.37323488896));
#1236 = CARTESIAN_POINT('',(0.772629753316,35.400770588918,
    140.40342648568));
#1237 = CARTESIAN_POINT('',(0.718752087058,35.402223302082,
    140.43157293844));
#1238 = CARTESIAN_POINT('',(0.663017966547,35.403582977668,
    140.45748358186));
#1239 = CARTESIAN_POINT('',(0.512812788072,35.406850191262,
    140.51890320532));
#1240 = CARTESIAN_POINT('',(0.415530374468,35.408581946866,
    140.55054427389));
#1241 = CARTESIAN_POINT('',(0.314473955459,35.409952146982,
    140.57504050853));
#1242 = CARTESIAN_POINT('',(0.210639473535,35.410893435861,
    140.59168429043));
#1243 = CARTESIAN_POINT('',(0.105296445699,35.411363636364,140.6));
#1244 = CARTESIAN_POINT('',(8.881784197001E-16,35.411363636364,140.6));
#1245 = ORIENTED_EDGE('',*,*,#1108,.T.);
#1246 = CYLINDRICAL_SURFACE('',#1247,1.6);
#1247 = AXIS2_PLACEMENT_3D('',#1248,#1249,#1250);
#1248 = CARTESIAN_POINT('',(0.,24.,139.));
#1249 = DIRECTION('',(0.,1.,0.));
#1250 = DIRECTION('',(0.,0.,1.));
#1251 = ADVANCED_FACE('',(#1252,#1266),#1269,.F.);
#1252 = FACE_BOUND('',#1253,.F.);
#1253 = EDGE_LOOP('',(#1254,#1261,#1262,#1263,#1264,#1265));
#1254 = ORIENTED_EDGE('',*,*,#1255,.F.);
#1255 = EDGE_CURVE('',#553,#596,#1256,.T.);
#1256 = CIRCLE('',#1257,34.95);
#1257 = AXIS2_PLACEMENT_3D('',#1258,#1259,#1260);
#1258 = CARTESIAN_POINT('',(0.,0.,100.));
#1259 = DIRECTION('',(0.,0.,1.));
#1260 = DIRECTION('',(1.,0.,0.));
#1261 = ORIENTED_EDGE('',*,*,#552,.T.);
#1262 = ORIENTED_EDGE('',*,*,#640,.T.);
#1263 = ORIENTED_EDGE('',*,*,#745,.T.);
#1264 = ORIENTED_EDGE('',*,*,#700,.T.);
#1265 = ORIENTED_EDGE('',*,*,#595,.F.);
#1266 = FACE_BOUND('',#1267,.F.);
#1267 = EDGE_LOOP('',(#1268));
#1268 = ORIENTED_EDGE('',*,*,#771,.F.);
#1269 = CONICAL_SURFACE('',#1270,34.404545454545,4.542327942158E-02);
#1270 = AXIS2_PLACEMENT_3D('',#1271,#1272,#1273);
#1271 = CARTESIAN_POINT('',(0.,0.,88.));
#1272 = DIRECTION('',(0.,0.,1.));
#1273 = DIRECTION('',(1.,0.,0.));
#1274 = ADVANCED_FACE('',(#1275,#1283),#1286,.F.);
#1275 = FACE_BOUND('',#1276,.F.);
#1276 = EDGE_LOOP('',(#1277,#1278,#1279,#1280,#1281,#1282));
#1277 = ORIENTED_EDGE('',*,*,#579,.F.);
#1278 = ORIENTED_EDGE('',*,*,#1255,.T.);
#1279 = ORIENTED_EDGE('',*,*,#622,.T.);
#1280 = ORIENTED_EDGE('',*,*,#988,.F.);
#1281 = ORIENTED_EDGE('',*,*,#969,.F.);
#1282 = ORIENTED_EDGE('',*,*,#919,.F.);
#1283 = FACE_BOUND('',#1284,.F.);
#1284 = EDGE_LOOP('',(#1285));
#1285 = ORIENTED_EDGE('',*,*,#1116,.T.);
#1286 = CONICAL_SURFACE('',#1287,34.95,1.136314726429E-02);
#1287 = AXIS2_PLACEMENT_3D('',#1288,#1289,#1290);
#1288 = CARTESIAN_POINT('',(0.,0.,100.));
#1289 = DIRECTION('',(0.,0.,1.));
#1290 = DIRECTION('',(1.,0.,0.));
#1291 = ADVANCED_FACE('',(#1292),#1297,.T.);
#1292 = FACE_BOUND('',#1293,.T.);
#1293 = EDGE_LOOP('',(#1294,#1295,#1296));
#1294 = ORIENTED_EDGE('',*,*,#1089,.F.);
#1295 = ORIENTED_EDGE('',*,*,#1040,.T.);
#1296 = ORIENTED_EDGE('',*,*,#1064,.F.);
#1297 = CONICAL_SURFACE('',#1298,36.55,1.136314726429E-02);
#1298 = AXIS2_PLACEMENT_3D('',#1299,#1300,#1301);
#1299 = CARTESIAN_POINT('',(0.,0.,100.));
#1300 = DIRECTION('',(0.,0.,1.));
#1301 = DIRECTION('',(1.,0.,0.));
#1302 = ( GEOMETRIC_REPRESENTATION_CONTEXT(3) 
GLOBAL_UNCERTAINTY_ASSIGNED_CONTEXT((#1306)) 
GLOBAL_UNIT_ASSIGNED_CONTEXT((#1303,#1304,#1305)) REPRESENTATION_CONTEXT
('Context #1','3D Context with UNIT and UNCERTAINTY') );
#1303 = ( LENGTH_UNIT() NAMED_UNIT(*) SI_UNIT(.MILLI.,.METRE.) );
#1304 = ( NAMED_UNIT(*) PLANE_ANGLE_UNIT() SI_UNIT($,.RADIAN.) );
#1305 = ( NAMED_UNIT(*) SI_UNIT($,.STERADIAN.) SOLID_ANGLE_UNIT() );
#1306 = UNCERTAINTY_MEASURE_WITH_UNIT(LENGTH_MEASURE(1.E-07),#1303,
  'distance_accuracy_value','confusion accuracy');
#1307 = PRODUCT_RELATED_PRODUCT_CATEGORY('part',$,(#7));
ENDSEC;
END-ISO-10303-21;
