ISO-10303-21;
HEADER;
FILE_DESCRIPTION(('FreeCAD Model'),'2;1');
FILE_NAME('Open CASCADE Shape Model','2026-10-08T23:03:18',('FreeCAD'),(
    'FreeCAD'),'Open CASCADE STEP processor 7.8','FreeCAD','Unknown');
FILE_SCHEMA(('AUTOMOTIVE_DESIGN { 1 0 10303 214 1 1 1 1 }'));
ENDSEC;
DATA;
#1 = APPLICATION_PROTOCOL_DEFINITION('international standard',
  'automotive_design',2000,#2);
#2 = APPLICATION_CONTEXT(
  'core data for automotive mechanical design processes');
#3 = SHAPE_DEFINITION_REPRESENTATION(#4,#10);
#4 = PRODUCT_DEFINITION_SHAPE('','',#5);
#5 = PRODUCT_DEFINITION('design','',#6,#9);
#6 = PRODUCT_DEFINITION_FORMATION('','',#7);
#7 = PRODUCT('Open CASCADE STEP translator 7.8 6',
  'Open CASCADE STEP translator 7.8 6','',(#8));
#8 = PRODUCT_CONTEXT('',#2,'mechanical');
#9 = PRODUCT_DEFINITION_CONTEXT('part definition',#2,'design');
#10 = ADVANCED_BREP_SHAPE_REPRESENTATION('',(#11,#15),#1818);
#11 = AXIS2_PLACEMENT_3D('',#12,#13,#14);
#12 = CARTESIAN_POINT('',(0.,0.,0.));
#13 = DIRECTION('',(0.,0.,1.));
#14 = DIRECTION('',(1.,0.,-0.));
#15 = MANIFOLD_SOLID_BREP('',#16);
#16 = CLOSED_SHELL('',(#17,#59,#90,#121,#474,#505,#538,#578,#611,#633,
    #658,#683,#715,#763,#787,#835,#860,#908,#932,#973,#998,#1030,#1054,
    #1079,#1103,#1128,#1152,#1177,#1208,#1228,#1248,#1264,#1284,#1305,
    #1368,#1399,#1430,#1455,#1480,#1505,#1545,#1585,#1602,#1627,#1652,
    #1677,#1694,#1711,#1720,#1729,#1738,#1764,#1790,#1802));
#17 = ADVANCED_FACE('',(#18),#54,.T.);
#18 = FACE_BOUND('',#19,.T.);
#19 = EDGE_LOOP('',(#20,#31,#39,#48));
#20 = ORIENTED_EDGE('',*,*,#21,.F.);
#21 = EDGE_CURVE('',#22,#24,#26,.T.);
#22 = VERTEX_POINT('',#23);
#23 = CARTESIAN_POINT('',(27.709890337691,8.208043461943,48.4));
#24 = VERTEX_POINT('',#25);
#25 = CARTESIAN_POINT('',(26.889067714681,10.591885452332,48.4));
#26 = CIRCLE('',#27,28.9);
#27 = AXIS2_PLACEMENT_3D('',#28,#29,#30);
#28 = CARTESIAN_POINT('',(0.,0.,48.4));
#29 = DIRECTION('',(0.,-0.,1.));
#30 = DIRECTION('',(0.958819734868,0.284015344704,0.));
#31 = ORIENTED_EDGE('',*,*,#32,.F.);
#32 = EDGE_CURVE('',#33,#22,#35,.T.);
#33 = VERTEX_POINT('',#34);
#34 = CARTESIAN_POINT('',(27.709890337691,8.208043461943,16.8));
#35 = LINE('',#36,#37);
#36 = CARTESIAN_POINT('',(27.709890337691,8.208043461943,16.8));
#37 = VECTOR('',#38,1.);
#38 = DIRECTION('',(0.,0.,1.));
#39 = ORIENTED_EDGE('',*,*,#40,.T.);
#40 = EDGE_CURVE('',#33,#41,#43,.T.);
#41 = VERTEX_POINT('',#42);
#42 = CARTESIAN_POINT('',(26.889067714681,10.591885452332,16.8));
#43 = CIRCLE('',#44,28.9);
#44 = AXIS2_PLACEMENT_3D('',#45,#46,#47);
#45 = CARTESIAN_POINT('',(0.,0.,16.8));
#46 = DIRECTION('',(0.,-0.,1.));
#47 = DIRECTION('',(0.958819734868,0.284015344704,0.));
#48 = ORIENTED_EDGE('',*,*,#49,.T.);
#49 = EDGE_CURVE('',#41,#24,#50,.T.);
#50 = LINE('',#51,#52);
#51 = CARTESIAN_POINT('',(26.889067714681,10.591885452332,16.8));
#52 = VECTOR('',#53,1.);
#53 = DIRECTION('',(0.,0.,1.));
#54 = CYLINDRICAL_SURFACE('',#55,28.9);
#55 = AXIS2_PLACEMENT_3D('',#56,#57,#58);
#56 = CARTESIAN_POINT('',(0.,0.,16.8));
#57 = DIRECTION('',(0.,0.,1.));
#58 = DIRECTION('',(0.958819734868,0.284015344704,0.));
#59 = ADVANCED_FACE('',(#60),#85,.F.);
#60 = FACE_BOUND('',#61,.F.);
#61 = EDGE_LOOP('',(#62,#72,#78,#79));
#62 = ORIENTED_EDGE('',*,*,#63,.F.);
#63 = EDGE_CURVE('',#64,#66,#68,.T.);
#64 = VERTEX_POINT('',#65);
#65 = CARTESIAN_POINT('',(26.609942444286,10.481935084315,16.8));
#66 = VERTEX_POINT('',#67);
#67 = CARTESIAN_POINT('',(26.609942444286,10.481935084315,48.4));
#68 = LINE('',#69,#70);
#69 = CARTESIAN_POINT('',(26.609942444286,10.481935084315,14.8));
#70 = VECTOR('',#71,1.);
#71 = DIRECTION('',(0.,0.,1.));
#72 = ORIENTED_EDGE('',*,*,#73,.T.);
#73 = EDGE_CURVE('',#64,#41,#74,.T.);
#74 = LINE('',#75,#76);
#75 = CARTESIAN_POINT('',(0.,0.,16.8));
#76 = VECTOR('',#77,1.);
#77 = DIRECTION('',(0.930417567982,0.366501226724,0.));
#78 = ORIENTED_EDGE('',*,*,#49,.T.);
#79 = ORIENTED_EDGE('',*,*,#80,.F.);
#80 = EDGE_CURVE('',#66,#24,#81,.T.);
#81 = LINE('',#82,#83);
#82 = CARTESIAN_POINT('',(0.,0.,48.4));
#83 = VECTOR('',#84,1.);
#84 = DIRECTION('',(0.930417567982,0.366501226724,0.));
#85 = PLANE('',#86);
#86 = AXIS2_PLACEMENT_3D('',#87,#88,#89);
#87 = CARTESIAN_POINT('',(0.,0.,15.8));
#88 = DIRECTION('',(0.366501226724,-0.930417567982,0.));
#89 = DIRECTION('',(0.930417567982,0.366501226724,0.));
#90 = ADVANCED_FACE('',(#91),#116,.T.);
#91 = FACE_BOUND('',#92,.T.);
#92 = EDGE_LOOP('',(#93,#103,#109,#110));
#93 = ORIENTED_EDGE('',*,*,#94,.F.);
#94 = EDGE_CURVE('',#95,#97,#99,.T.);
#95 = VERTEX_POINT('',#96);
#96 = CARTESIAN_POINT('',(26.846952576309,7.95242965171,16.8));
#97 = VERTEX_POINT('',#98);
#98 = CARTESIAN_POINT('',(26.846952576309,7.95242965171,48.4));
#99 = LINE('',#100,#101);
#100 = CARTESIAN_POINT('',(26.846952576309,7.95242965171,15.8));
#101 = VECTOR('',#102,1.);
#102 = DIRECTION('',(0.,0.,1.));
#103 = ORIENTED_EDGE('',*,*,#104,.T.);
#104 = EDGE_CURVE('',#95,#33,#105,.T.);
#105 = LINE('',#106,#107);
#106 = CARTESIAN_POINT('',(0.,0.,16.8));
#107 = VECTOR('',#108,1.);
#108 = DIRECTION('',(0.958819734868,0.284015344704,0.));
#109 = ORIENTED_EDGE('',*,*,#32,.T.);
#110 = ORIENTED_EDGE('',*,*,#111,.F.);
#111 = EDGE_CURVE('',#97,#22,#112,.T.);
#112 = LINE('',#113,#114);
#113 = CARTESIAN_POINT('',(0.,0.,48.4));
#114 = VECTOR('',#115,1.);
#115 = DIRECTION('',(0.958819734868,0.284015344704,0.));
#116 = PLANE('',#117);
#117 = AXIS2_PLACEMENT_3D('',#118,#119,#120);
#118 = CARTESIAN_POINT('',(0.,0.,16.8));
#119 = DIRECTION('',(0.284015344704,-0.958819734868,0.));
#120 = DIRECTION('',(0.958819734868,0.284015344704,0.));
#121 = ADVANCED_FACE('',(#122,#149,#186,#223,#362,#399),#469,.F.);
#122 = FACE_BOUND('',#123,.F.);
#123 = EDGE_LOOP('',(#124,#134,#141,#142));
#124 = ORIENTED_EDGE('',*,*,#125,.T.);
#125 = EDGE_CURVE('',#126,#128,#130,.T.);
#126 = VERTEX_POINT('',#127);
#127 = CARTESIAN_POINT('',(16.112139551019,22.899758930794,16.8));
#128 = VERTEX_POINT('',#129);
#129 = CARTESIAN_POINT('',(16.112139551019,22.899758930794,48.4));
#130 = LINE('',#131,#132);
#131 = CARTESIAN_POINT('',(16.112139551019,22.899758930794,15.8));
#132 = VECTOR('',#133,1.);
#133 = DIRECTION('',(0.,0.,1.));
#134 = ORIENTED_EDGE('',*,*,#135,.F.);
#135 = EDGE_CURVE('',#97,#128,#136,.T.);
#136 = CIRCLE('',#137,28.);
#137 = AXIS2_PLACEMENT_3D('',#138,#139,#140);
#138 = CARTESIAN_POINT('',(0.,0.,48.4));
#139 = DIRECTION('',(0.,-0.,1.));
#140 = DIRECTION('',(0.958819734868,0.284015344704,0.));
#141 = ORIENTED_EDGE('',*,*,#94,.F.);
#142 = ORIENTED_EDGE('',*,*,#143,.T.);
#143 = EDGE_CURVE('',#95,#126,#144,.T.);
#144 = CIRCLE('',#145,28.);
#145 = AXIS2_PLACEMENT_3D('',#146,#147,#148);
#146 = CARTESIAN_POINT('',(0.,0.,16.8));
#147 = DIRECTION('',(0.,-0.,1.));
#148 = DIRECTION('',(0.958819734868,0.284015344704,0.));
#149 = FACE_BOUND('',#150,.F.);
#150 = EDGE_LOOP('',(#151));
#151 = ORIENTED_EDGE('',*,*,#152,.T.);
#152 = EDGE_CURVE('',#153,#153,#155,.T.);
#153 = VERTEX_POINT('',#154);
#154 = CARTESIAN_POINT('',(26.775893599031,8.188499372495,20.));
#155 = B_SPLINE_CURVE_WITH_KNOTS('',8,(#156,#157,#158,#159,#160,#161,
    #162,#163,#164,#165,#166,#167,#168,#169,#170,#171,#172,#173,#174,
    #175,#176,#177,#178,#179,#180,#181,#182,#183,#184,#185),
  .UNSPECIFIED.,.T.,.F.,(9,7,7,7,9),(0.,0.250000000008,0.500000000017,
    0.750000000014,1.),.UNSPECIFIED.);
#156 = CARTESIAN_POINT('',(26.775893599031,8.188499372495,20.));
#157 = CARTESIAN_POINT('',(26.775893599031,8.188499372495,
    20.170655663402));
#158 = CARTESIAN_POINT('',(26.765904541331,8.221163385042,
    20.347238757914));
#159 = CARTESIAN_POINT('',(26.744709840245,8.290466506792,
    20.520331197972));
#160 = CARTESIAN_POINT('',(26.711950311398,8.39679642113,20.680016369397
    ));
#161 = CARTESIAN_POINT('',(26.667502288168,8.538450985089,
    20.816077331117));
#162 = CARTESIAN_POINT('',(26.611873114919,8.710916071793,
    20.918061339151));
#163 = CARTESIAN_POINT('',(26.546274806958,8.907517573065,20.975));
#164 = CARTESIAN_POINT('',(26.402765426604,9.324299076537,20.975));
#165 = CARTESIAN_POINT('',(26.333417628373,9.519609524769,20.91806133915
    ));
#166 = CARTESIAN_POINT('',(26.271073905384,9.68976260659,20.816077331119
    ));
#167 = CARTESIAN_POINT('',(26.218888167832,9.828752861847,
    20.680016369394));
#168 = CARTESIAN_POINT('',(26.179239796915,9.932710757631,
    20.520331197972));
#169 = CARTESIAN_POINT('',(26.153274187108,10.000371123772,
    20.347238757916));
#170 = CARTESIAN_POINT('',(26.14103569784,10.032260594914,
    20.170655663401));
#171 = CARTESIAN_POINT('',(26.14103569784,10.032260594914,
    19.829344336607));
#172 = CARTESIAN_POINT('',(26.153274187107,10.000371123774,
    19.652761242069));
#173 = CARTESIAN_POINT('',(26.179239796919,9.932710757621,
    19.479668802029));
#174 = CARTESIAN_POINT('',(26.218888167828,9.828752861855,
    19.319983630626));
#175 = CARTESIAN_POINT('',(26.271073905381,9.6897626066,19.183922668863)
  );
#176 = CARTESIAN_POINT('',(26.33341762838,9.519609524748,19.081938660854
    ));
#177 = CARTESIAN_POINT('',(26.4027654266,9.324299076548,19.025));
#178 = CARTESIAN_POINT('',(26.546274806958,8.907517573063,19.025));
#179 = CARTESIAN_POINT('',(26.611873114917,8.710916071798,19.08193866085
    ));
#180 = CARTESIAN_POINT('',(26.667502288168,8.538450985088,
    19.183922668879));
#181 = CARTESIAN_POINT('',(26.711950311399,8.396796421127,
    19.319983630608));
#182 = CARTESIAN_POINT('',(26.744709840244,8.290466506795,
    19.479668802028));
#183 = CARTESIAN_POINT('',(26.765904541332,8.221163385041,
    19.652761242083));
#184 = CARTESIAN_POINT('',(26.775893599031,8.188499372495,19.8293443366)
  );
#185 = CARTESIAN_POINT('',(26.775893599031,8.188499372495,20.));
#186 = FACE_BOUND('',#187,.F.);
#187 = EDGE_LOOP('',(#188));
#188 = ORIENTED_EDGE('',*,*,#189,.T.);
#189 = EDGE_CURVE('',#190,#190,#192,.T.);
#190 = VERTEX_POINT('',#191);
#191 = CARTESIAN_POINT('',(26.775893599031,8.188499372495,32.5));
#192 = B_SPLINE_CURVE_WITH_KNOTS('',8,(#193,#194,#195,#196,#197,#198,
    #199,#200,#201,#202,#203,#204,#205,#206,#207,#208,#209,#210,#211,
    #212,#213,#214,#215,#216,#217,#218,#219,#220,#221,#222),
  .UNSPECIFIED.,.T.,.F.,(9,7,7,7,9),(0.,0.249999999998,0.500000000003,
    0.750000000007,1.),.UNSPECIFIED.);
#193 = CARTESIAN_POINT('',(26.775893599031,8.188499372495,32.5));
#194 = CARTESIAN_POINT('',(26.775893599031,8.188499372495,
    32.670655663397));
#195 = CARTESIAN_POINT('',(26.765904541332,8.22116338504,32.847238757924
    ));
#196 = CARTESIAN_POINT('',(26.744709840243,8.290466506799,33.02033119797
    ));
#197 = CARTESIAN_POINT('',(26.7119503114,8.396796421125,33.180016369386)
  );
#198 = CARTESIAN_POINT('',(26.66750228817,8.538450985083,33.316077331127
    ));
#199 = CARTESIAN_POINT('',(26.611873114914,8.710916071807,
    33.418061339148));
#200 = CARTESIAN_POINT('',(26.54627480696,8.907517573058,33.475));
#201 = CARTESIAN_POINT('',(26.4027654266,9.324299076548,33.475));
#202 = CARTESIAN_POINT('',(26.33341762838,9.519609524747,33.418061339145
    ));
#203 = CARTESIAN_POINT('',(26.271073905381,9.6897626066,33.316077331138)
  );
#204 = CARTESIAN_POINT('',(26.218888167827,9.828752861856,
    33.180016369373));
#205 = CARTESIAN_POINT('',(26.179239796919,9.93271075762,33.020331197972
    ));
#206 = CARTESIAN_POINT('',(26.153274187107,10.000371123775,
    32.847238757932));
#207 = CARTESIAN_POINT('',(26.14103569784,10.032260594914,
    32.670655663392));
#208 = CARTESIAN_POINT('',(26.14103569784,10.032260594914,
    32.329344336608));
#209 = CARTESIAN_POINT('',(26.153274187106,10.000371123775,
    32.152761242067));
#210 = CARTESIAN_POINT('',(26.17923979692,9.932710757618,31.979668802028
    ));
#211 = CARTESIAN_POINT('',(26.218888167827,9.828752861858,
    31.819983630629));
#212 = CARTESIAN_POINT('',(26.271073905381,9.689762606599,31.68392266886
    ));
#213 = CARTESIAN_POINT('',(26.33341762838,9.519609524747,31.581938660855
    ));
#214 = CARTESIAN_POINT('',(26.4027654266,9.324299076549,31.525));
#215 = CARTESIAN_POINT('',(26.546274806959,8.907517573061,31.525));
#216 = CARTESIAN_POINT('',(26.611873114916,8.710916071801,
    31.581938660851));
#217 = CARTESIAN_POINT('',(26.667502288169,8.538450985086,
    31.683922668877));
#218 = CARTESIAN_POINT('',(26.7119503114,8.396796421127,31.81998363061)
  );
#219 = CARTESIAN_POINT('',(26.744709840243,8.290466506796,
    31.979668802029));
#220 = CARTESIAN_POINT('',(26.765904541332,8.22116338504,32.15276124208)
  );
#221 = CARTESIAN_POINT('',(26.775893599031,8.188499372495,
    32.329344336601));
#222 = CARTESIAN_POINT('',(26.775893599031,8.188499372495,32.5));
#223 = FACE_BOUND('',#224,.F.);
#224 = EDGE_LOOP('',(#225,#236,#258,#266,#293,#302,#329,#337));
#225 = ORIENTED_EDGE('',*,*,#226,.F.);
#226 = EDGE_CURVE('',#227,#229,#231,.T.);
#227 = VERTEX_POINT('',#228);
#228 = CARTESIAN_POINT('',(24.04622579533,14.345,18.575));
#229 = VERTEX_POINT('',#230);
#230 = CARTESIAN_POINT('',(20.709079530486,18.845,18.575));
#231 = CIRCLE('',#232,28.);
#232 = AXIS2_PLACEMENT_3D('',#233,#234,#235);
#233 = CARTESIAN_POINT('',(0.,0.,18.575));
#234 = DIRECTION('',(0.,0.,1.));
#235 = DIRECTION('',(1.,0.,0.));
#236 = ORIENTED_EDGE('',*,*,#237,.F.);
#237 = EDGE_CURVE('',#238,#227,#240,.T.);
#238 = VERTEX_POINT('',#239);
#239 = CARTESIAN_POINT('',(24.749161096894,13.095,19.825));
#240 = B_SPLINE_CURVE_WITH_KNOTS('',6,(#241,#242,#243,#244,#245,#246,
    #247,#248,#249,#250,#251,#252,#253,#254,#255,#256,#257),
  .UNSPECIFIED.,.F.,.F.,(7,5,5,7),(0.,0.45577663247,0.594939851623,1.),
  .UNSPECIFIED.);
#241 = CARTESIAN_POINT('',(24.749161096894,13.095,19.825));
#242 = CARTESIAN_POINT('',(24.749161096894,13.095,19.681219979689));
#243 = CARTESIAN_POINT('',(24.738660333747,13.114846085252,
    19.537190090745));
#244 = CARTESIAN_POINT('',(24.717591546646,13.154665677109,
    19.396008214039));
#245 = CARTESIAN_POINT('',(24.68598774595,13.214106676346,19.26079270026
    ));
#246 = CARTESIAN_POINT('',(24.643971719364,13.292349483877,
    19.134643870576));
#247 = CARTESIAN_POINT('',(24.575894715304,13.417395725815,
    18.985883397075));
#248 = CARTESIAN_POINT('',(24.559036921617,13.448261467809,
    18.952247166703));
#249 = CARTESIAN_POINT('',(24.541264193309,13.480687173142,
    18.919876284532));
#250 = CARTESIAN_POINT('',(24.522599635726,13.514609029295,
    18.888869941488));
#251 = CARTESIAN_POINT('',(24.503070588458,13.549955447201,
    18.859321712853));
#252 = CARTESIAN_POINT('',(24.423441386092,13.693444753341,
    18.749814136351));
#253 = CARTESIAN_POINT('',(24.357042931474,13.81177469977,
    18.681303857454));
#254 = CARTESIAN_POINT('',(24.284511985254,13.939291803074,
    18.628359969159));
#255 = CARTESIAN_POINT('',(24.207287456118,14.072927127304,
    18.592679888297));
#256 = CARTESIAN_POINT('',(24.127182812725,14.209293431858,18.575));
#257 = CARTESIAN_POINT('',(24.04622579533,14.345,18.575));
#258 = ORIENTED_EDGE('',*,*,#259,.T.);
#259 = EDGE_CURVE('',#238,#260,#262,.T.);
#260 = VERTEX_POINT('',#261);
#261 = CARTESIAN_POINT('',(24.749161096894,13.095,30.175));
#262 = LINE('',#263,#264);
#263 = CARTESIAN_POINT('',(24.749161096894,13.095,0.));
#264 = VECTOR('',#265,1.);
#265 = DIRECTION('',(0.,0.,1.));
#266 = ORIENTED_EDGE('',*,*,#267,.F.);
#267 = EDGE_CURVE('',#268,#260,#270,.T.);
#268 = VERTEX_POINT('',#269);
#269 = CARTESIAN_POINT('',(24.04622579533,14.345,31.425));
#270 = B_SPLINE_CURVE_WITH_KNOTS('',6,(#271,#272,#273,#274,#275,#276,
    #277,#278,#279,#280,#281,#282,#283,#284,#285,#286,#287,#288,#289,
    #290,#291,#292),.UNSPECIFIED.,.F.,.F.,(7,5,5,5,7),(0.,0.136380523816
    ,0.407584690001,0.546775482968,1.),.UNSPECIFIED.);
#271 = CARTESIAN_POINT('',(24.04622579533,14.345,31.425));
#272 = CARTESIAN_POINT('',(24.073479865658,14.299314567519,31.425));
#273 = CARTESIAN_POINT('',(24.100637374312,14.253554272456,
    31.422996309814));
#274 = CARTESIAN_POINT('',(24.127621726955,14.207847232731,
    31.418976702352));
#275 = CARTESIAN_POINT('',(24.154359080578,14.162321458858,
    31.412942036139));
#276 = CARTESIAN_POINT('',(24.180778604617,14.117104143037,
    31.404906182446));
#277 = CARTESIAN_POINT('',(24.258583818615,13.98326579096,31.37498976633
    ));
#278 = CARTESIAN_POINT('',(24.308807811445,13.895967291891,
    31.347284945491));
#279 = CARTESIAN_POINT('',(24.356963768601,13.811395952584,
    31.312002961611));
#280 = CARTESIAN_POINT('',(24.402596957113,13.730473872595,
    31.269557010578));
#281 = CARTESIAN_POINT('',(24.445329410391,13.654029227133,
    31.220537034292));
#282 = CARTESIAN_POINT('',(24.505164235491,13.546168310735,
    31.137547895784));
#283 = CARTESIAN_POINT('',(24.524622145505,13.510937833049,
    31.107860657669));
#284 = CARTESIAN_POINT('',(24.543212984139,13.477138101326,
    31.076721285768));
#285 = CARTESIAN_POINT('',(24.560909738426,13.444840140847,
    31.044223580262));
#286 = CARTESIAN_POINT('',(24.577689603964,13.414107212463,
    31.010466883866));
#287 = CARTESIAN_POINT('',(24.64512548566,13.290200802972,
    30.861881670958));
#288 = CARTESIAN_POINT('',(24.686682239195,13.212800406487,
    30.736227058759));
#289 = CARTESIAN_POINT('',(24.717938326908,13.15401026318,
    30.601659275218));
#290 = CARTESIAN_POINT('',(24.738775181253,13.114629029465,
    30.461226108996));
#291 = CARTESIAN_POINT('',(24.749161096894,13.095,30.317991634351));
#292 = CARTESIAN_POINT('',(24.749161096894,13.095,30.175));
#293 = ORIENTED_EDGE('',*,*,#294,.T.);
#294 = EDGE_CURVE('',#268,#295,#297,.T.);
#295 = VERTEX_POINT('',#296);
#296 = CARTESIAN_POINT('',(20.709079530486,18.845,31.425));
#297 = CIRCLE('',#298,28.);
#298 = AXIS2_PLACEMENT_3D('',#299,#300,#301);
#299 = CARTESIAN_POINT('',(0.,0.,31.425));
#300 = DIRECTION('',(0.,0.,1.));
#301 = DIRECTION('',(1.,0.,0.));
#302 = ORIENTED_EDGE('',*,*,#303,.F.);
#303 = EDGE_CURVE('',#304,#295,#306,.T.);
#304 = VERTEX_POINT('',#305);
#305 = CARTESIAN_POINT('',(19.498486479725,20.095,30.175));
#306 = B_SPLINE_CURVE_WITH_KNOTS('',6,(#307,#308,#309,#310,#311,#312,
    #313,#314,#315,#316,#317,#318,#319,#320,#321,#322,#323,#324,#325,
    #326,#327,#328),.UNSPECIFIED.,.F.,.F.,(7,5,5,5,7),(0.,0.34060624073,
    0.480193970269,0.830074533912,1.),.UNSPECIFIED.);
#307 = CARTESIAN_POINT('',(19.498486479725,20.095,30.175));
#308 = CARTESIAN_POINT('',(19.498486479725,20.095,30.295426870437));
#309 = CARTESIAN_POINT('',(19.512834651014,20.081077566134,
    30.415325206642));
#310 = CARTESIAN_POINT('',(19.541296699052,20.053461275698,
    30.532347649069));
#311 = CARTESIAN_POINT('',(19.582812850726,20.013026138107,
    30.644211625401));
#312 = CARTESIAN_POINT('',(19.635554667538,19.961274477828,
    30.748876276301));
#313 = CARTESIAN_POINT('',(19.722248769678,19.875466302644,
    30.884088324715));
#314 = CARTESIAN_POINT('',(19.748976606155,19.848935924647,
    30.922011105699));
#315 = CARTESIAN_POINT('',(19.777115024131,19.820915626281,
    30.958497825329));
#316 = CARTESIAN_POINT('',(19.806548992613,19.791502243178,
    30.993499937181));
#317 = CARTESIAN_POINT('',(19.837164569991,19.76079259321,
    31.026974359757));
#318 = CARTESIAN_POINT('',(19.948266576994,19.648902379416,
    31.13886457355));
#319 = CARTESIAN_POINT('',(20.034378791667,19.56140688488,
    31.208990769427));
#320 = CARTESIAN_POINT('',(20.125627558636,19.467705837112,
    31.268904100749));
#321 = CARTESIAN_POINT('',(20.220663792954,19.368957834572,
    31.318309580067));
#322 = CARTESIAN_POINT('',(20.3182920791,19.266239620132,31.356936354676
    ));
#323 = CARTESIAN_POINT('',(20.465556385616,19.109315815338,
    31.397885069134));
#324 = CARTESIAN_POINT('',(20.514056186324,19.057324819174,
    31.408663290454));
#325 = CARTESIAN_POINT('',(20.562784369535,19.004768093116,
    31.416798133997));
#326 = CARTESIAN_POINT('',(20.611613620401,18.951774035221,
    31.422254991499));
#327 = CARTESIAN_POINT('',(20.660419393817,18.898473422141,31.425));
#328 = CARTESIAN_POINT('',(20.709079530486,18.845,31.425));
#329 = ORIENTED_EDGE('',*,*,#330,.F.);
#330 = EDGE_CURVE('',#331,#304,#333,.T.);
#331 = VERTEX_POINT('',#332);
#332 = CARTESIAN_POINT('',(19.498486479725,20.095,19.825));
#333 = LINE('',#334,#335);
#334 = CARTESIAN_POINT('',(19.498486479725,20.095,0.));
#335 = VECTOR('',#336,1.);
#336 = DIRECTION('',(0.,0.,1.));
#337 = ORIENTED_EDGE('',*,*,#338,.F.);
#338 = EDGE_CURVE('',#229,#331,#339,.T.);
#339 = B_SPLINE_CURVE_WITH_KNOTS('',6,(#340,#341,#342,#343,#344,#345,
    #346,#347,#348,#349,#350,#351,#352,#353,#354,#355,#356,#357,#358,
    #359,#360,#361),.UNSPECIFIED.,.F.,.F.,(7,5,5,5,7),(0.,0.172547952892
    ,0.519807159939,0.659393665016,1.),.UNSPECIFIED.);
#340 = CARTESIAN_POINT('',(20.709079530486,18.845,18.575));
#341 = CARTESIAN_POINT('',(20.659668436337,18.899298661631,18.575));
#342 = CARTESIAN_POINT('',(20.610107313604,18.953418987815,
    18.577830386561));
#343 = CARTESIAN_POINT('',(20.560523963565,19.007221058485,
    18.583456417214));
#344 = CARTESIAN_POINT('',(20.51104874167,19.060568088071,
    18.591842629758));
#345 = CARTESIAN_POINT('',(20.461814973532,19.113325785873,
    18.602952795496));
#346 = CARTESIAN_POINT('',(20.31463564388,19.270085972343,
    18.644517005802));
#347 = CARTESIAN_POINT('',(20.217816640982,19.371915821095,
    18.683174775936));
#348 = CARTESIAN_POINT('',(20.123577180369,19.469811170182,
    18.732444410641));
#349 = CARTESIAN_POINT('',(20.033088460467,19.562717898875,
    18.792060816636));
#350 = CARTESIAN_POINT('',(19.947671221005,19.649501959124,
    18.861735006158));
#351 = CARTESIAN_POINT('',(19.837164987453,19.760792172785,
    18.973025219819));
#352 = CARTESIAN_POINT('',(19.806549318646,19.791501910779,
    19.006499665734));
#353 = CARTESIAN_POINT('',(19.777115070048,19.820915572792,
    19.041502062572));
#354 = CARTESIAN_POINT('',(19.748976418441,19.848936106528,
    19.077989113945));
#355 = CARTESIAN_POINT('',(19.722248544955,19.87546652507,
    19.115912025772));
#356 = CARTESIAN_POINT('',(19.635554659448,19.961274485835,
    19.251123736317));
#357 = CARTESIAN_POINT('',(19.582812851063,20.013026137646,
    19.355788379831));
#358 = CARTESIAN_POINT('',(19.541296709219,20.0534612658,19.467652334663
    ));
#359 = CARTESIAN_POINT('',(19.512834661192,20.081077556266,
    19.584674752825));
#360 = CARTESIAN_POINT('',(19.498486479725,20.095,19.704573087139));
#361 = CARTESIAN_POINT('',(19.498486479725,20.095,19.825));
#362 = FACE_BOUND('',#363,.F.);
#363 = EDGE_LOOP('',(#364));
#364 = ORIENTED_EDGE('',*,*,#365,.T.);
#365 = EDGE_CURVE('',#366,#366,#368,.T.);
#366 = VERTEX_POINT('',#367);
#367 = CARTESIAN_POINT('',(26.775893599031,8.188499372495,45.));
#368 = B_SPLINE_CURVE_WITH_KNOTS('',8,(#369,#370,#371,#372,#373,#374,
    #375,#376,#377,#378,#379,#380,#381,#382,#383,#384,#385,#386,#387,
    #388,#389,#390,#391,#392,#393,#394,#395,#396,#397,#398),
  .UNSPECIFIED.,.T.,.F.,(9,7,7,7,9),(0.,0.250000000009,0.500000000018,
    0.750000000016,1.),.UNSPECIFIED.);
#369 = CARTESIAN_POINT('',(26.775893599031,8.188499372495,45.));
#370 = CARTESIAN_POINT('',(26.775893599031,8.188499372495,
    45.170655663398));
#371 = CARTESIAN_POINT('',(26.765904541332,8.22116338504,45.347238757922
    ));
#372 = CARTESIAN_POINT('',(26.744709840244,8.290466506797,
    45.520331197971));
#373 = CARTESIAN_POINT('',(26.711950311399,8.396796421126,
    45.680016369389));
#374 = CARTESIAN_POINT('',(26.66750228817,8.538450985084,45.816077331124
    ));
#375 = CARTESIAN_POINT('',(26.611873114915,8.710916071803,
    45.918061339149));
#376 = CARTESIAN_POINT('',(26.546274806959,8.90751757306,45.975));
#377 = CARTESIAN_POINT('',(26.402765426603,9.324299076541,45.975));
#378 = CARTESIAN_POINT('',(26.333417628375,9.519609524762,
    45.918061339149));
#379 = CARTESIAN_POINT('',(26.271073905382,9.689762606595,
    45.816077331124));
#380 = CARTESIAN_POINT('',(26.218888167831,9.828752861848,45.68001636939
    ));
#381 = CARTESIAN_POINT('',(26.179239796916,9.932710757629,45.52033119797
    ));
#382 = CARTESIAN_POINT('',(26.153274187107,10.000371123772,
    45.347238757922));
#383 = CARTESIAN_POINT('',(26.14103569784,10.032260594914,
    45.170655663398));
#384 = CARTESIAN_POINT('',(26.14103569784,10.032260594914,44.82934433661
    ));
#385 = CARTESIAN_POINT('',(26.153274187107,10.000371123775,
    44.652761242063));
#386 = CARTESIAN_POINT('',(26.179239796919,9.932710757619,
    44.479668802031));
#387 = CARTESIAN_POINT('',(26.218888167828,9.828752861855,
    44.319983630628));
#388 = CARTESIAN_POINT('',(26.271073905379,9.689762606605,44.18392266886
    ));
#389 = CARTESIAN_POINT('',(26.333417628382,9.519609524741,
    44.081938660855));
#390 = CARTESIAN_POINT('',(26.402765426599,9.324299076551,44.025));
#391 = CARTESIAN_POINT('',(26.546274806959,8.907517573062,44.025));
#392 = CARTESIAN_POINT('',(26.611873114917,8.7109160718,44.081938660851)
  );
#393 = CARTESIAN_POINT('',(26.667502288168,8.538450985088,
    44.183922668876));
#394 = CARTESIAN_POINT('',(26.7119503114,8.396796421125,44.319983630611)
  );
#395 = CARTESIAN_POINT('',(26.744709840243,8.290466506797,
    44.479668802027));
#396 = CARTESIAN_POINT('',(26.765904541332,8.22116338504,44.652761242081
    ));
#397 = CARTESIAN_POINT('',(26.775893599031,8.188499372495,44.8293443366)
  );
#398 = CARTESIAN_POINT('',(26.775893599031,8.188499372495,45.));
#399 = FACE_BOUND('',#400,.F.);
#400 = EDGE_LOOP('',(#401,#412,#420,#429,#437,#446,#454,#463));
#401 = ORIENTED_EDGE('',*,*,#402,.F.);
#402 = EDGE_CURVE('',#403,#405,#407,.T.);
#403 = VERTEX_POINT('',#404);
#404 = CARTESIAN_POINT('',(23.184261903283,15.7,35.13));
#405 = VERTEX_POINT('',#406);
#406 = CARTESIAN_POINT('',(22.094343167426,17.2,35.13));
#407 = CIRCLE('',#408,28.);
#408 = AXIS2_PLACEMENT_3D('',#409,#410,#411);
#409 = CARTESIAN_POINT('',(0.,0.,35.13));
#410 = DIRECTION('',(0.,0.,1.));
#411 = DIRECTION('',(1.,0.,0.));
#412 = ORIENTED_EDGE('',*,*,#413,.T.);
#413 = EDGE_CURVE('',#403,#414,#416,.T.);
#414 = VERTEX_POINT('',#415);
#415 = CARTESIAN_POINT('',(23.184261903283,15.7,46.63));
#416 = LINE('',#417,#418);
#417 = CARTESIAN_POINT('',(23.184261903283,15.7,0.));
#418 = VECTOR('',#419,1.);
#419 = DIRECTION('',(0.,0.,1.));
#420 = ORIENTED_EDGE('',*,*,#421,.T.);
#421 = EDGE_CURVE('',#414,#422,#424,.T.);
#422 = VERTEX_POINT('',#423);
#423 = CARTESIAN_POINT('',(22.094343167426,17.2,46.63));
#424 = CIRCLE('',#425,28.);
#425 = AXIS2_PLACEMENT_3D('',#426,#427,#428);
#426 = CARTESIAN_POINT('',(0.,0.,46.63));
#427 = DIRECTION('',(0.,0.,1.));
#428 = DIRECTION('',(1.,0.,0.));
#429 = ORIENTED_EDGE('',*,*,#430,.F.);
#430 = EDGE_CURVE('',#431,#422,#433,.T.);
#431 = VERTEX_POINT('',#432);
#432 = CARTESIAN_POINT('',(22.094343167426,17.2,44.83));
#433 = LINE('',#434,#435);
#434 = CARTESIAN_POINT('',(22.094343167426,17.2,0.));
#435 = VECTOR('',#436,1.);
#436 = DIRECTION('',(0.,0.,1.));
#437 = ORIENTED_EDGE('',*,*,#438,.T.);
#438 = EDGE_CURVE('',#431,#439,#441,.T.);
#439 = VERTEX_POINT('',#440);
#440 = CARTESIAN_POINT('',(19.44164344905,20.15,44.83));
#441 = CIRCLE('',#442,28.);
#442 = AXIS2_PLACEMENT_3D('',#443,#444,#445);
#443 = CARTESIAN_POINT('',(0.,0.,44.83));
#444 = DIRECTION('',(0.,0.,1.));
#445 = DIRECTION('',(1.,0.,0.));
#446 = ORIENTED_EDGE('',*,*,#447,.F.);
#447 = EDGE_CURVE('',#448,#439,#450,.T.);
#448 = VERTEX_POINT('',#449);
#449 = CARTESIAN_POINT('',(19.44164344905,20.15,36.93));
#450 = LINE('',#451,#452);
#451 = CARTESIAN_POINT('',(19.44164344905,20.15,0.));
#452 = VECTOR('',#453,1.);
#453 = DIRECTION('',(0.,0.,1.));
#454 = ORIENTED_EDGE('',*,*,#455,.F.);
#455 = EDGE_CURVE('',#456,#448,#458,.T.);
#456 = VERTEX_POINT('',#457);
#457 = CARTESIAN_POINT('',(22.094343167426,17.2,36.93));
#458 = CIRCLE('',#459,28.);
#459 = AXIS2_PLACEMENT_3D('',#460,#461,#462);
#460 = CARTESIAN_POINT('',(0.,0.,36.93));
#461 = DIRECTION('',(0.,0.,1.));
#462 = DIRECTION('',(1.,0.,0.));
#463 = ORIENTED_EDGE('',*,*,#464,.F.);
#464 = EDGE_CURVE('',#405,#456,#465,.T.);
#465 = LINE('',#466,#467);
#466 = CARTESIAN_POINT('',(22.094343167426,17.2,0.));
#467 = VECTOR('',#468,1.);
#468 = DIRECTION('',(0.,0.,1.));
#469 = CYLINDRICAL_SURFACE('',#470,28.);
#470 = AXIS2_PLACEMENT_3D('',#471,#472,#473);
#471 = CARTESIAN_POINT('',(0.,0.,15.8));
#472 = DIRECTION('',(0.,0.,1.));
#473 = DIRECTION('',(0.958819734868,0.284015344704,0.));
#474 = ADVANCED_FACE('',(#475),#500,.F.);
#475 = FACE_BOUND('',#476,.F.);
#476 = EDGE_LOOP('',(#477,#485,#486,#494));
#477 = ORIENTED_EDGE('',*,*,#478,.F.);
#478 = EDGE_CURVE('',#128,#479,#481,.T.);
#479 = VERTEX_POINT('',#480);
#480 = CARTESIAN_POINT('',(16.112309165935,22.9,48.4));
#481 = LINE('',#482,#483);
#482 = CARTESIAN_POINT('',(0.,0.,48.4));
#483 = VECTOR('',#484,1.);
#484 = DIRECTION('',(0.575433555394,0.817848533243,0.));
#485 = ORIENTED_EDGE('',*,*,#125,.F.);
#486 = ORIENTED_EDGE('',*,*,#487,.T.);
#487 = EDGE_CURVE('',#126,#488,#490,.T.);
#488 = VERTEX_POINT('',#489);
#489 = CARTESIAN_POINT('',(16.112309165935,22.9,16.8));
#490 = LINE('',#491,#492);
#491 = CARTESIAN_POINT('',(0.,0.,16.8));
#492 = VECTOR('',#493,1.);
#493 = DIRECTION('',(0.575433555394,0.817848533243,0.));
#494 = ORIENTED_EDGE('',*,*,#495,.T.);
#495 = EDGE_CURVE('',#488,#479,#496,.T.);
#496 = LINE('',#497,#498);
#497 = CARTESIAN_POINT('',(16.112309165935,22.9,16.8));
#498 = VECTOR('',#499,1.);
#499 = DIRECTION('',(0.,0.,1.));
#500 = PLANE('',#501);
#501 = AXIS2_PLACEMENT_3D('',#502,#503,#504);
#502 = CARTESIAN_POINT('',(0.,0.,16.8));
#503 = DIRECTION('',(0.817848533243,-0.575433555394,0.));
#504 = DIRECTION('',(0.575433555394,0.817848533243,0.));
#505 = ADVANCED_FACE('',(#506),#533,.T.);
#506 = FACE_BOUND('',#507,.T.);
#507 = EDGE_LOOP('',(#508,#517,#525,#532));
#508 = ORIENTED_EDGE('',*,*,#509,.T.);
#509 = EDGE_CURVE('',#64,#510,#512,.T.);
#510 = VERTEX_POINT('',#511);
#511 = CARTESIAN_POINT('',(26.227918127415,11.404223371262,16.8));
#512 = CIRCLE('',#513,28.6);
#513 = AXIS2_PLACEMENT_3D('',#514,#515,#516);
#514 = CARTESIAN_POINT('',(0.,0.,16.8));
#515 = DIRECTION('',(0.,-0.,1.));
#516 = DIRECTION('',(0.930417567982,0.366501226724,0.));
#517 = ORIENTED_EDGE('',*,*,#518,.T.);
#518 = EDGE_CURVE('',#510,#519,#521,.T.);
#519 = VERTEX_POINT('',#520);
#520 = CARTESIAN_POINT('',(26.227918127415,11.404223371262,48.4));
#521 = LINE('',#522,#523);
#522 = CARTESIAN_POINT('',(26.227918127415,11.404223371262,14.8));
#523 = VECTOR('',#524,1.);
#524 = DIRECTION('',(0.,0.,1.));
#525 = ORIENTED_EDGE('',*,*,#526,.F.);
#526 = EDGE_CURVE('',#66,#519,#527,.T.);
#527 = CIRCLE('',#528,28.6);
#528 = AXIS2_PLACEMENT_3D('',#529,#530,#531);
#529 = CARTESIAN_POINT('',(0.,0.,48.4));
#530 = DIRECTION('',(0.,-0.,1.));
#531 = DIRECTION('',(0.930417567982,0.366501226724,0.));
#532 = ORIENTED_EDGE('',*,*,#63,.F.);
#533 = CYLINDRICAL_SURFACE('',#534,28.6);
#534 = AXIS2_PLACEMENT_3D('',#535,#536,#537);
#535 = CARTESIAN_POINT('',(0.,0.,14.8));
#536 = DIRECTION('',(0.,0.,1.));
#537 = DIRECTION('',(0.930417567982,0.366501226724,0.));
#538 = ADVANCED_FACE('',(#539),#573,.F.);
#539 = FACE_BOUND('',#540,.F.);
#540 = EDGE_LOOP('',(#541,#551,#559,#567));
#541 = ORIENTED_EDGE('',*,*,#542,.F.);
#542 = EDGE_CURVE('',#543,#545,#547,.T.);
#543 = VERTEX_POINT('',#544);
#544 = CARTESIAN_POINT('',(16.411796920269,23.325654045217,48.4));
#545 = VERTEX_POINT('',#546);
#546 = CARTESIAN_POINT('',(16.630029750873,23.635822610713,48.4));
#547 = LINE('',#548,#549);
#548 = CARTESIAN_POINT('',(0.,0.,48.4));
#549 = VECTOR('',#550,1.);
#550 = DIRECTION('',(0.575433555394,0.817848533243,0.));
#551 = ORIENTED_EDGE('',*,*,#552,.F.);
#552 = EDGE_CURVE('',#553,#543,#555,.T.);
#553 = VERTEX_POINT('',#554);
#554 = CARTESIAN_POINT('',(16.411796920269,23.325654045217,16.8));
#555 = LINE('',#556,#557);
#556 = CARTESIAN_POINT('',(16.411796920269,23.325654045217,16.8));
#557 = VECTOR('',#558,1.);
#558 = DIRECTION('',(0.,0.,1.));
#559 = ORIENTED_EDGE('',*,*,#560,.T.);
#560 = EDGE_CURVE('',#553,#561,#563,.T.);
#561 = VERTEX_POINT('',#562);
#562 = CARTESIAN_POINT('',(16.630029750873,23.635822610713,16.8));
#563 = LINE('',#564,#565);
#564 = CARTESIAN_POINT('',(0.,0.,16.8));
#565 = VECTOR('',#566,1.);
#566 = DIRECTION('',(0.575433555394,0.817848533243,0.));
#567 = ORIENTED_EDGE('',*,*,#568,.T.);
#568 = EDGE_CURVE('',#561,#545,#569,.T.);
#569 = LINE('',#570,#571);
#570 = CARTESIAN_POINT('',(16.630029750873,23.635822610713,16.8));
#571 = VECTOR('',#572,1.);
#572 = DIRECTION('',(0.,0.,1.));
#573 = PLANE('',#574);
#574 = AXIS2_PLACEMENT_3D('',#575,#576,#577);
#575 = CARTESIAN_POINT('',(0.,0.,16.8));
#576 = DIRECTION('',(0.817848533243,-0.575433555394,0.));
#577 = DIRECTION('',(0.575433555394,0.817848533243,0.));
#578 = ADVANCED_FACE('',(#579),#606,.T.);
#579 = FACE_BOUND('',#580,.T.);
#580 = EDGE_LOOP('',(#581,#590,#598,#605));
#581 = ORIENTED_EDGE('',*,*,#582,.F.);
#582 = EDGE_CURVE('',#583,#545,#585,.T.);
#583 = VERTEX_POINT('',#584);
#584 = CARTESIAN_POINT('',(26.50303614973,11.52384809194,48.4));
#585 = CIRCLE('',#586,28.9);
#586 = AXIS2_PLACEMENT_3D('',#587,#588,#589);
#587 = CARTESIAN_POINT('',(0.,0.,48.4));
#588 = DIRECTION('',(0.,-0.,1.));
#589 = DIRECTION('',(0.958819734868,0.284015344704,0.));
#590 = ORIENTED_EDGE('',*,*,#591,.F.);
#591 = EDGE_CURVE('',#592,#583,#594,.T.);
#592 = VERTEX_POINT('',#593);
#593 = CARTESIAN_POINT('',(26.50303614973,11.52384809194,16.8));
#594 = LINE('',#595,#596);
#595 = CARTESIAN_POINT('',(26.50303614973,11.52384809194,16.8));
#596 = VECTOR('',#597,1.);
#597 = DIRECTION('',(0.,0.,1.));
#598 = ORIENTED_EDGE('',*,*,#599,.T.);
#599 = EDGE_CURVE('',#592,#561,#600,.T.);
#600 = CIRCLE('',#601,28.9);
#601 = AXIS2_PLACEMENT_3D('',#602,#603,#604);
#602 = CARTESIAN_POINT('',(0.,0.,16.8));
#603 = DIRECTION('',(0.,-0.,1.));
#604 = DIRECTION('',(0.958819734868,0.284015344704,0.));
#605 = ORIENTED_EDGE('',*,*,#568,.T.);
#606 = CYLINDRICAL_SURFACE('',#607,28.9);
#607 = AXIS2_PLACEMENT_3D('',#608,#609,#610);
#608 = CARTESIAN_POINT('',(0.,0.,16.8));
#609 = DIRECTION('',(0.,0.,1.));
#610 = DIRECTION('',(0.958819734868,0.284015344704,0.));
#611 = ADVANCED_FACE('',(#612),#628,.T.);
#612 = FACE_BOUND('',#613,.T.);
#613 = EDGE_LOOP('',(#614,#620,#621,#627));
#614 = ORIENTED_EDGE('',*,*,#615,.F.);
#615 = EDGE_CURVE('',#519,#583,#616,.T.);
#616 = LINE('',#617,#618);
#617 = CARTESIAN_POINT('',(0.,0.,48.4));
#618 = VECTOR('',#619,1.);
#619 = DIRECTION('',(0.917060074385,0.398749068925,0.));
#620 = ORIENTED_EDGE('',*,*,#518,.F.);
#621 = ORIENTED_EDGE('',*,*,#622,.T.);
#622 = EDGE_CURVE('',#510,#592,#623,.T.);
#623 = LINE('',#624,#625);
#624 = CARTESIAN_POINT('',(0.,0.,16.8));
#625 = VECTOR('',#626,1.);
#626 = DIRECTION('',(0.917060074385,0.398749068925,0.));
#627 = ORIENTED_EDGE('',*,*,#591,.T.);
#628 = PLANE('',#629);
#629 = AXIS2_PLACEMENT_3D('',#630,#631,#632);
#630 = CARTESIAN_POINT('',(0.,0.,15.8));
#631 = DIRECTION('',(0.398749068925,-0.917060074385,0.));
#632 = DIRECTION('',(0.917060074385,0.398749068925,0.));
#633 = ADVANCED_FACE('',(#634),#653,.T.);
#634 = FACE_BOUND('',#635,.T.);
#635 = EDGE_LOOP('',(#636,#644,#651,#652));
#636 = ORIENTED_EDGE('',*,*,#637,.T.);
#637 = EDGE_CURVE('',#153,#638,#640,.T.);
#638 = VERTEX_POINT('',#639);
#639 = CARTESIAN_POINT('',(24.456518185646,7.389874372082,20.));
#640 = LINE('',#641,#642);
#641 = CARTESIAN_POINT('',(26.981052782496,8.259141344482,20.));
#642 = VECTOR('',#643,1.);
#643 = DIRECTION('',(-0.945518575599,-0.325568154457,-0.));
#644 = ORIENTED_EDGE('',*,*,#645,.F.);
#645 = EDGE_CURVE('',#638,#638,#646,.T.);
#646 = CIRCLE('',#647,0.975);
#647 = AXIS2_PLACEMENT_3D('',#648,#649,#650);
#648 = CARTESIAN_POINT('',(24.139089235051,8.311754983291,20.));
#649 = DIRECTION('',(-0.945518575599,-0.325568154457,0.));
#650 = DIRECTION('',(0.325568154457,-0.945518575599,0.));
#651 = ORIENTED_EDGE('',*,*,#637,.F.);
#652 = ORIENTED_EDGE('',*,*,#152,.T.);
#653 = CYLINDRICAL_SURFACE('',#654,0.975);
#654 = AXIS2_PLACEMENT_3D('',#655,#656,#657);
#655 = CARTESIAN_POINT('',(26.663623831901,9.181021955692,20.));
#656 = DIRECTION('',(-0.945518575599,-0.325568154457,0.));
#657 = DIRECTION('',(0.325568154457,-0.945518575599,0.));
#658 = ADVANCED_FACE('',(#659),#678,.T.);
#659 = FACE_BOUND('',#660,.T.);
#660 = EDGE_LOOP('',(#661,#669,#676,#677));
#661 = ORIENTED_EDGE('',*,*,#662,.T.);
#662 = EDGE_CURVE('',#190,#663,#665,.T.);
#663 = VERTEX_POINT('',#664);
#664 = CARTESIAN_POINT('',(24.456518185646,7.389874372082,32.5));
#665 = LINE('',#666,#667);
#666 = CARTESIAN_POINT('',(26.981052782496,8.259141344482,32.5));
#667 = VECTOR('',#668,1.);
#668 = DIRECTION('',(-0.945518575599,-0.325568154457,-0.));
#669 = ORIENTED_EDGE('',*,*,#670,.F.);
#670 = EDGE_CURVE('',#663,#663,#671,.T.);
#671 = CIRCLE('',#672,0.975);
#672 = AXIS2_PLACEMENT_3D('',#673,#674,#675);
#673 = CARTESIAN_POINT('',(24.139089235051,8.311754983291,32.5));
#674 = DIRECTION('',(-0.945518575599,-0.325568154457,0.));
#675 = DIRECTION('',(0.325568154457,-0.945518575599,0.));
#676 = ORIENTED_EDGE('',*,*,#662,.F.);
#677 = ORIENTED_EDGE('',*,*,#189,.T.);
#678 = CYLINDRICAL_SURFACE('',#679,0.975);
#679 = AXIS2_PLACEMENT_3D('',#680,#681,#682);
#680 = CARTESIAN_POINT('',(26.663623831901,9.181021955692,32.5));
#681 = DIRECTION('',(-0.945518575599,-0.325568154457,0.));
#682 = DIRECTION('',(0.325568154457,-0.945518575599,0.));
#683 = ADVANCED_FACE('',(#684),#710,.F.);
#684 = FACE_BOUND('',#685,.F.);
#685 = EDGE_LOOP('',(#686,#697,#703,#704));
#686 = ORIENTED_EDGE('',*,*,#687,.F.);
#687 = EDGE_CURVE('',#688,#690,#692,.T.);
#688 = VERTEX_POINT('',#689);
#689 = CARTESIAN_POINT('',(21.263665605911,14.345,18.575));
#690 = VERTEX_POINT('',#691);
#691 = CARTESIAN_POINT('',(17.400818227888,18.845,18.575));
#692 = CIRCLE('',#693,25.65);
#693 = AXIS2_PLACEMENT_3D('',#694,#695,#696);
#694 = CARTESIAN_POINT('',(0.,0.,18.575));
#695 = DIRECTION('',(0.,0.,1.));
#696 = DIRECTION('',(1.,0.,0.));
#697 = ORIENTED_EDGE('',*,*,#698,.T.);
#698 = EDGE_CURVE('',#688,#227,#699,.T.);
#699 = LINE('',#700,#701);
#700 = CARTESIAN_POINT('',(14.95,14.345,18.575));
#701 = VECTOR('',#702,1.);
#702 = DIRECTION('',(1.,0.,0.));
#703 = ORIENTED_EDGE('',*,*,#226,.T.);
#704 = ORIENTED_EDGE('',*,*,#705,.F.);
#705 = EDGE_CURVE('',#690,#229,#706,.T.);
#706 = LINE('',#707,#708);
#707 = CARTESIAN_POINT('',(14.95,18.845,18.575));
#708 = VECTOR('',#709,1.);
#709 = DIRECTION('',(1.,0.,0.));
#710 = PLANE('',#711);
#711 = AXIS2_PLACEMENT_3D('',#712,#713,#714);
#712 = CARTESIAN_POINT('',(14.95,14.345,18.575));
#713 = DIRECTION('',(0.,0.,1.));
#714 = DIRECTION('',(1.,0.,0.));
#715 = ADVANCED_FACE('',(#716),#758,.T.);
#716 = FACE_BOUND('',#717,.T.);
#717 = EDGE_LOOP('',(#718,#719,#720,#752));
#718 = ORIENTED_EDGE('',*,*,#338,.F.);
#719 = ORIENTED_EDGE('',*,*,#705,.F.);
#720 = ORIENTED_EDGE('',*,*,#721,.T.);
#721 = EDGE_CURVE('',#690,#722,#724,.T.);
#722 = VERTEX_POINT('',#723);
#723 = CARTESIAN_POINT('',(15.94093708036,20.095,19.825));
#724 = B_SPLINE_CURVE_WITH_KNOTS('',6,(#725,#726,#727,#728,#729,#730,
    #731,#732,#733,#734,#735,#736,#737,#738,#739,#740,#741,#742,#743,
    #744,#745,#746,#747,#748,#749,#750,#751),.UNSPECIFIED.,.F.,.F.,(7,5,
    5,5,5,7),(0.,0.156838975321,0.554766692462,0.697535358693,
    0.811781541657,1.),.UNSPECIFIED.);
#725 = CARTESIAN_POINT('',(17.400818227888,18.845,18.575));
#726 = CARTESIAN_POINT('',(17.349081628745,18.892771778053,18.575));
#727 = CARTESIAN_POINT('',(17.2972084202,18.940353932575,18.577190826228
    ));
#728 = CARTESIAN_POINT('',(17.245283738553,18.987668324206,
    18.581540016262));
#729 = CARTESIAN_POINT('',(17.193394199358,19.03463888891,
    18.588019787852));
#730 = CARTESIAN_POINT('',(17.141628402726,19.08119112557,
    18.596607025372));
#731 = CARTESIAN_POINT('',(16.959283690327,19.244114964461,
    18.634370743532));
#732 = CARTESIAN_POINT('',(16.829976748726,19.357719590915,
    18.674884406682));
#733 = CARTESIAN_POINT('',(16.703408572715,19.467083765466,
    18.728532780202));
#734 = CARTESIAN_POINT('',(16.581115236128,19.571076668798,
    18.795360702659));
#735 = CARTESIAN_POINT('',(16.465246753783,19.668177398419,
    18.875570083313));
#736 = CARTESIAN_POINT('',(16.320787488861,19.787795437824,
    19.002950357431));
#737 = CARTESIAN_POINT('',(16.28386372395,19.818220833678,
    19.038335555117));
#738 = CARTESIAN_POINT('',(16.248322878281,19.847371042508,
    19.075465565303));
#739 = CARTESIAN_POINT('',(16.214340772094,19.875122451569,
    19.114328130474));
#740 = CARTESIAN_POINT('',(16.182106291976,19.901343064419,
    19.154904339064));
#741 = CARTESIAN_POINT('',(16.127586936146,19.945536162996,
    19.230988330094));
#742 = CARTESIAN_POINT('',(16.104597616965,19.964112411806,
    19.265893711498));
#743 = CARTESIAN_POINT('',(16.082978094917,19.981531571774,
    19.301842993674));
#744 = CARTESIAN_POINT('',(16.062848943238,19.997708053761,
    19.338789633965));
#745 = CARTESIAN_POINT('',(16.04432669963,20.012559654798,
    19.376681781171));
#746 = CARTESIAN_POINT('',(15.999841511278,20.048162728249,
    19.47935241766));
#747 = CARTESIAN_POINT('',(15.97677961758,20.066544374735,
    19.545760185187));
#748 = CARTESIAN_POINT('',(15.959002158194,20.080669903934,
    19.614139717674));
#749 = CARTESIAN_POINT('',(15.946970633559,20.090213417937,
    19.683892183098));
#750 = CARTESIAN_POINT('',(15.94093708036,20.095,19.754389823398));
#751 = CARTESIAN_POINT('',(15.94093708036,20.095,19.825));
#752 = ORIENTED_EDGE('',*,*,#753,.T.);
#753 = EDGE_CURVE('',#722,#331,#754,.T.);
#754 = LINE('',#755,#756);
#755 = CARTESIAN_POINT('',(14.95,20.095,19.825));
#756 = VECTOR('',#757,1.);
#757 = DIRECTION('',(1.,0.,0.));
#758 = CYLINDRICAL_SURFACE('',#759,1.25);
#759 = AXIS2_PLACEMENT_3D('',#760,#761,#762);
#760 = CARTESIAN_POINT('',(14.95,18.845,19.825));
#761 = DIRECTION('',(1.,0.,0.));
#762 = DIRECTION('',(0.,0.,1.));
#763 = ADVANCED_FACE('',(#764),#782,.T.);
#764 = FACE_BOUND('',#765,.T.);
#765 = EDGE_LOOP('',(#766,#767,#775,#781));
#766 = ORIENTED_EDGE('',*,*,#753,.F.);
#767 = ORIENTED_EDGE('',*,*,#768,.T.);
#768 = EDGE_CURVE('',#722,#769,#771,.T.);
#769 = VERTEX_POINT('',#770);
#770 = CARTESIAN_POINT('',(15.94093708036,20.095,30.175));
#771 = LINE('',#772,#773);
#772 = CARTESIAN_POINT('',(15.94093708036,20.095,-1.));
#773 = VECTOR('',#774,1.);
#774 = DIRECTION('',(0.,0.,1.));
#775 = ORIENTED_EDGE('',*,*,#776,.T.);
#776 = EDGE_CURVE('',#769,#304,#777,.T.);
#777 = LINE('',#778,#779);
#778 = CARTESIAN_POINT('',(14.95,20.095,30.175));
#779 = VECTOR('',#780,1.);
#780 = DIRECTION('',(1.,0.,0.));
#781 = ORIENTED_EDGE('',*,*,#330,.F.);
#782 = PLANE('',#783);
#783 = AXIS2_PLACEMENT_3D('',#784,#785,#786);
#784 = CARTESIAN_POINT('',(14.95,20.095,19.825));
#785 = DIRECTION('',(0.,1.,0.));
#786 = DIRECTION('',(0.,0.,1.));
#787 = ADVANCED_FACE('',(#788),#830,.T.);
#788 = FACE_BOUND('',#789,.T.);
#789 = EDGE_LOOP('',(#790,#791,#792,#824));
#790 = ORIENTED_EDGE('',*,*,#303,.F.);
#791 = ORIENTED_EDGE('',*,*,#776,.F.);
#792 = ORIENTED_EDGE('',*,*,#793,.T.);
#793 = EDGE_CURVE('',#769,#794,#796,.T.);
#794 = VERTEX_POINT('',#795);
#795 = CARTESIAN_POINT('',(17.400818227888,18.845,31.425));
#796 = B_SPLINE_CURVE_WITH_KNOTS('',6,(#797,#798,#799,#800,#801,#802,
    #803,#804,#805,#806,#807,#808,#809,#810,#811,#812,#813,#814,#815,
    #816,#817,#818,#819,#820,#821,#822,#823),.UNSPECIFIED.,.F.,.F.,(7,5,
    5,5,5,7),(0.,0.188219530073,0.302466429217,0.442706247788,
    0.84316240338,1.),.UNSPECIFIED.);
#797 = CARTESIAN_POINT('',(15.94093708036,20.095,30.175));
#798 = CARTESIAN_POINT('',(15.94093708036,20.095,30.245610127667));
#799 = CARTESIAN_POINT('',(15.946970625192,20.090213424559,
    30.316107767143));
#800 = CARTESIAN_POINT('',(15.959002148551,20.080669911615,
    30.385860257179));
#801 = CARTESIAN_POINT('',(15.976779616027,20.066544376003,
    30.454239818247));
#802 = CARTESIAN_POINT('',(15.999841518621,20.048162722372,
    30.520647599287));
#803 = CARTESIAN_POINT('',(16.044326704828,20.012559650638,
    30.623318230828));
#804 = CARTESIAN_POINT('',(16.062848940645,19.997708055876,
    30.661210363679));
#805 = CARTESIAN_POINT('',(16.082978088576,19.981531576886,
    30.698156995102));
#806 = CARTESIAN_POINT('',(16.104597616154,19.964112412435,
    30.734106284837));
#807 = CARTESIAN_POINT('',(16.127586943572,19.945536156977,
    30.769011680269));
#808 = CARTESIAN_POINT('',(16.18156966377,19.901778052375,
    30.844346774326));
#809 = CARTESIAN_POINT('',(16.21319901228,19.876051170017,
    30.884233337675));
#810 = CARTESIAN_POINT('',(16.246518004062,19.848844891479,
    30.922466837786));
#811 = CARTESIAN_POINT('',(16.281347365689,19.820284496511,
    30.959029216206));
#812 = CARTESIAN_POINT('',(16.317519995569,19.790487444523,
    30.993908633388));
#813 = CARTESIAN_POINT('',(16.461565416002,19.671261853444,
    31.121874324994));
#814 = CARTESIAN_POINT('',(16.578006236815,19.573719993931,
    31.202936749783));
#815 = CARTESIAN_POINT('',(16.700995142213,19.469168944949,
    31.270442496157));
#816 = CARTESIAN_POINT('',(16.828332513728,19.359164052437,
    31.324599738737));
#817 = CARTESIAN_POINT('',(16.958451465735,19.244858551832,
    31.365456902169));
#818 = CARTESIAN_POINT('',(17.141628403574,19.081191124812,
    31.403392974803));
#819 = CARTESIAN_POINT('',(17.193394200503,19.034638887875,
    31.411980212309));
#820 = CARTESIAN_POINT('',(17.245283735333,18.987668327066,
    31.418459982962));
#821 = CARTESIAN_POINT('',(17.297208409791,18.940353942023,
    31.422809172647));
#822 = CARTESIAN_POINT('',(17.349081615469,18.892771790312,31.425));
#823 = CARTESIAN_POINT('',(17.400818227888,18.845,31.425));
#824 = ORIENTED_EDGE('',*,*,#825,.T.);
#825 = EDGE_CURVE('',#794,#295,#826,.T.);
#826 = LINE('',#827,#828);
#827 = CARTESIAN_POINT('',(14.95,18.845,31.425));
#828 = VECTOR('',#829,1.);
#829 = DIRECTION('',(1.,0.,0.));
#830 = CYLINDRICAL_SURFACE('',#831,1.25);
#831 = AXIS2_PLACEMENT_3D('',#832,#833,#834);
#832 = CARTESIAN_POINT('',(14.95,18.845,30.175));
#833 = DIRECTION('',(1.,0.,0.));
#834 = DIRECTION('',(0.,0.,1.));
#835 = ADVANCED_FACE('',(#836),#855,.T.);
#836 = FACE_BOUND('',#837,.T.);
#837 = EDGE_LOOP('',(#838,#847,#853,#854));
#838 = ORIENTED_EDGE('',*,*,#839,.F.);
#839 = EDGE_CURVE('',#840,#794,#842,.T.);
#840 = VERTEX_POINT('',#841);
#841 = CARTESIAN_POINT('',(21.263665605911,14.345,31.425));
#842 = CIRCLE('',#843,25.65);
#843 = AXIS2_PLACEMENT_3D('',#844,#845,#846);
#844 = CARTESIAN_POINT('',(0.,0.,31.425));
#845 = DIRECTION('',(0.,0.,1.));
#846 = DIRECTION('',(1.,0.,0.));
#847 = ORIENTED_EDGE('',*,*,#848,.T.);
#848 = EDGE_CURVE('',#840,#268,#849,.T.);
#849 = LINE('',#850,#851);
#850 = CARTESIAN_POINT('',(14.95,14.345,31.425));
#851 = VECTOR('',#852,1.);
#852 = DIRECTION('',(1.,0.,0.));
#853 = ORIENTED_EDGE('',*,*,#294,.T.);
#854 = ORIENTED_EDGE('',*,*,#825,.F.);
#855 = PLANE('',#856);
#856 = AXIS2_PLACEMENT_3D('',#857,#858,#859);
#857 = CARTESIAN_POINT('',(14.95,14.345,31.425));
#858 = DIRECTION('',(0.,0.,1.));
#859 = DIRECTION('',(1.,0.,0.));
#860 = ADVANCED_FACE('',(#861),#903,.T.);
#861 = FACE_BOUND('',#862,.T.);
#862 = EDGE_LOOP('',(#863,#864,#865,#897));
#863 = ORIENTED_EDGE('',*,*,#267,.F.);
#864 = ORIENTED_EDGE('',*,*,#848,.F.);
#865 = ORIENTED_EDGE('',*,*,#866,.T.);
#866 = EDGE_CURVE('',#840,#867,#869,.T.);
#867 = VERTEX_POINT('',#868);
#868 = CARTESIAN_POINT('',(22.05546360882,13.095,30.175));
#869 = B_SPLINE_CURVE_WITH_KNOTS('',6,(#870,#871,#872,#873,#874,#875,
    #876,#877,#878,#879,#880,#881,#882,#883,#884,#885,#886,#887,#888,
    #889,#890,#891,#892,#893,#894,#895,#896),.UNSPECIFIED.,.F.,.F.,(7,5,
    5,5,5,7),(0.,0.250773100708,0.416390845715,0.490792945592,
    0.612958863291,1.),.UNSPECIFIED.);
#870 = CARTESIAN_POINT('',(21.263665605911,14.345,31.425));
#871 = CARTESIAN_POINT('',(21.319003449973,14.262972435588,31.425));
#872 = CARTESIAN_POINT('',(21.374013567537,14.180611811318,
    31.418540176623));
#873 = CARTESIAN_POINT('',(21.428209050568,14.098636133016,
    31.405524301306));
#874 = CARTESIAN_POINT('',(21.481137492998,14.017762599486,
    31.38597578589));
#875 = CARTESIAN_POINT('',(21.532383774364,13.938695535796,
    31.360035905757));
#876 = CARTESIAN_POINT('',(21.614058714866,13.811537900504,
    31.306779511246));
#877 = CARTESIAN_POINT('',(21.64564072429,13.7620558873,31.282925985038)
  );
#878 = CARTESIAN_POINT('',(21.676209415066,13.713866168603,
    31.256479722378));
#879 = CARTESIAN_POINT('',(21.705666205638,13.667156524349,
    31.22754096005));
#880 = CARTESIAN_POINT('',(21.733923176611,13.622102651521,
    31.196231408283));
#881 = CARTESIAN_POINT('',(21.773023207168,13.559442635934,
    31.14762731803));
#882 = CARTESIAN_POINT('',(21.784886280117,13.540385056466,
    31.132110565845));
#883 = CARTESIAN_POINT('',(21.796485366719,13.521707615678,
    31.11615602938));
#884 = CARTESIAN_POINT('',(21.807814292877,13.50342367678,31.09977671108
    ));
#885 = CARTESIAN_POINT('',(21.81886742031,13.48554579504,31.08298609537)
  );
#886 = CARTESIAN_POINT('',(21.847327304655,13.439416817792,
    31.037576078484));
#887 = CARTESIAN_POINT('',(21.864257534982,13.41187438597,
    31.008282510303));
#888 = CARTESIAN_POINT('',(21.880408019498,13.385510154974,
    30.977979562581));
#889 = CARTESIAN_POINT('',(21.895759792014,13.360370015694,
    30.946730893108));
#890 = CARTESIAN_POINT('',(21.910297238185,13.336494017256,
    30.914601698988));
#891 = CARTESIAN_POINT('',(21.967446281083,13.242386765519,
    30.777290087702));
#892 = CARTESIAN_POINT('',(22.00252476805,13.183991888074,
    30.664900623314));
#893 = CARTESIAN_POINT('',(22.028976163725,13.139612045366,
    30.546425226421));
#894 = CARTESIAN_POINT('',(22.046644938712,13.109852948507,
    30.423891009343));
#895 = CARTESIAN_POINT('',(22.05546360882,13.095,30.299385352832));
#896 = CARTESIAN_POINT('',(22.05546360882,13.095,30.175));
#897 = ORIENTED_EDGE('',*,*,#898,.T.);
#898 = EDGE_CURVE('',#867,#260,#899,.T.);
#899 = LINE('',#900,#901);
#900 = CARTESIAN_POINT('',(14.95,13.095,30.175));
#901 = VECTOR('',#902,1.);
#902 = DIRECTION('',(1.,0.,0.));
#903 = CYLINDRICAL_SURFACE('',#904,1.25);
#904 = AXIS2_PLACEMENT_3D('',#905,#906,#907);
#905 = CARTESIAN_POINT('',(14.95,14.345,30.175));
#906 = DIRECTION('',(1.,0.,0.));
#907 = DIRECTION('',(0.,0.,1.));
#908 = ADVANCED_FACE('',(#909),#927,.F.);
#909 = FACE_BOUND('',#910,.F.);
#910 = EDGE_LOOP('',(#911,#919,#925,#926));
#911 = ORIENTED_EDGE('',*,*,#912,.F.);
#912 = EDGE_CURVE('',#913,#238,#915,.T.);
#913 = VERTEX_POINT('',#914);
#914 = CARTESIAN_POINT('',(22.05546360882,13.095,19.825));
#915 = LINE('',#916,#917);
#916 = CARTESIAN_POINT('',(14.95,13.095,19.825));
#917 = VECTOR('',#918,1.);
#918 = DIRECTION('',(1.,0.,0.));
#919 = ORIENTED_EDGE('',*,*,#920,.T.);
#920 = EDGE_CURVE('',#913,#867,#921,.T.);
#921 = LINE('',#922,#923);
#922 = CARTESIAN_POINT('',(22.05546360882,13.095,-1.));
#923 = VECTOR('',#924,1.);
#924 = DIRECTION('',(0.,0.,1.));
#925 = ORIENTED_EDGE('',*,*,#898,.T.);
#926 = ORIENTED_EDGE('',*,*,#259,.F.);
#927 = PLANE('',#928);
#928 = AXIS2_PLACEMENT_3D('',#929,#930,#931);
#929 = CARTESIAN_POINT('',(14.95,13.095,19.825));
#930 = DIRECTION('',(0.,1.,0.));
#931 = DIRECTION('',(0.,0.,1.));
#932 = ADVANCED_FACE('',(#933),#968,.T.);
#933 = FACE_BOUND('',#934,.T.);
#934 = EDGE_LOOP('',(#935,#936,#937,#967));
#935 = ORIENTED_EDGE('',*,*,#237,.F.);
#936 = ORIENTED_EDGE('',*,*,#912,.F.);
#937 = ORIENTED_EDGE('',*,*,#938,.T.);
#938 = EDGE_CURVE('',#913,#688,#939,.T.);
#939 = B_SPLINE_CURVE_WITH_KNOTS('',6,(#940,#941,#942,#943,#944,#945,
    #946,#947,#948,#949,#950,#951,#952,#953,#954,#955,#956,#957,#958,
    #959,#960,#961,#962,#963,#964,#965,#966),.UNSPECIFIED.,.F.,.F.,(7,5,
    5,5,5,7),(0.,0.384534589771,0.509204366174,0.583607098615,
    0.751697194887,1.),.UNSPECIFIED.);
#940 = CARTESIAN_POINT('',(22.05546360882,13.095,19.825));
#941 = CARTESIAN_POINT('',(22.05546360882,13.095,19.701418022701));
#942 = CARTESIAN_POINT('',(22.046758489347,13.109661701124,
    19.577719586782));
#943 = CARTESIAN_POINT('',(22.029318010011,13.139036277459,
    19.455954527886));
#944 = CARTESIAN_POINT('',(22.003207610505,13.182846189469,
    19.338168477432));
#945 = CARTESIAN_POINT('',(21.968578040114,13.240502610649,
    19.22634919802));
#946 = CARTESIAN_POINT('',(21.911782958022,13.334053605915,
    19.088693088735));
#947 = CARTESIAN_POINT('',(21.897015815177,13.358312937442,
    19.055832217932));
#948 = CARTESIAN_POINT('',(21.881399644609,13.38389129012,
    19.023884148362));
#949 = CARTESIAN_POINT('',(21.86495090277,13.410746351256,
    18.992918214674));
#950 = CARTESIAN_POINT('',(21.847689669206,13.43882948209,
    18.963002103078));
#951 = CARTESIAN_POINT('',(21.818867420559,13.485545794635,
    18.917013905028));
#952 = CARTESIAN_POINT('',(21.807814293276,13.503423676134,
    18.900223289519));
#953 = CARTESIAN_POINT('',(21.79648536717,13.52170761495,18.883843971255
    ));
#954 = CARTESIAN_POINT('',(21.784886280522,13.540385055814,
    18.867889434691));
#955 = CARTESIAN_POINT('',(21.773023207425,13.559442635522,
    18.852372682289));
#956 = CARTESIAN_POINT('',(21.733520654594,13.622747715873,
    18.803268228516));
#957 = CARTESIAN_POINT('',(21.704822702676,13.668501386191,
    18.771525219327));
#958 = CARTESIAN_POINT('',(21.674890034617,13.715958145877,
    18.742226464423));
#959 = CARTESIAN_POINT('',(21.643814763017,13.764934040773,
    18.715498915224));
#960 = CARTESIAN_POINT('',(21.611700305109,13.81523234736,
    18.691446696265));
#961 = CARTESIAN_POINT('',(21.529856820522,13.942593563306,
    18.638691953299));
#962 = CARTESIAN_POINT('',(21.479049976213,14.020951806808,
    18.613257286345));
#963 = CARTESIAN_POINT('',(21.426606296767,14.101060199063,
    18.594092786966));
#964 = CARTESIAN_POINT('',(21.372929343275,14.182235007978,
    18.581333171971));
#965 = CARTESIAN_POINT('',(21.318458357854,14.263780428375,18.575));
#966 = CARTESIAN_POINT('',(21.263665605911,14.345,18.575));
#967 = ORIENTED_EDGE('',*,*,#698,.T.);
#968 = CYLINDRICAL_SURFACE('',#969,1.25);
#969 = AXIS2_PLACEMENT_3D('',#970,#971,#972);
#970 = CARTESIAN_POINT('',(14.95,14.345,19.825));
#971 = DIRECTION('',(1.,0.,0.));
#972 = DIRECTION('',(0.,0.,1.));
#973 = ADVANCED_FACE('',(#974),#993,.T.);
#974 = FACE_BOUND('',#975,.T.);
#975 = EDGE_LOOP('',(#976,#984,#991,#992));
#976 = ORIENTED_EDGE('',*,*,#977,.T.);
#977 = EDGE_CURVE('',#366,#978,#980,.T.);
#978 = VERTEX_POINT('',#979);
#979 = CARTESIAN_POINT('',(24.456518185646,7.389874372082,45.));
#980 = LINE('',#981,#982);
#981 = CARTESIAN_POINT('',(26.981052782496,8.259141344482,45.));
#982 = VECTOR('',#983,1.);
#983 = DIRECTION('',(-0.945518575599,-0.325568154457,-0.));
#984 = ORIENTED_EDGE('',*,*,#985,.F.);
#985 = EDGE_CURVE('',#978,#978,#986,.T.);
#986 = CIRCLE('',#987,0.975);
#987 = AXIS2_PLACEMENT_3D('',#988,#989,#990);
#988 = CARTESIAN_POINT('',(24.139089235051,8.311754983291,45.));
#989 = DIRECTION('',(-0.945518575599,-0.325568154457,0.));
#990 = DIRECTION('',(0.325568154457,-0.945518575599,0.));
#991 = ORIENTED_EDGE('',*,*,#977,.F.);
#992 = ORIENTED_EDGE('',*,*,#365,.T.);
#993 = CYLINDRICAL_SURFACE('',#994,0.975);
#994 = AXIS2_PLACEMENT_3D('',#995,#996,#997);
#995 = CARTESIAN_POINT('',(26.663623831901,9.181021955692,45.));
#996 = DIRECTION('',(-0.945518575599,-0.325568154457,0.));
#997 = DIRECTION('',(0.325568154457,-0.945518575599,0.));
#998 = ADVANCED_FACE('',(#999),#1025,.F.);
#999 = FACE_BOUND('',#1000,.F.);
#1000 = EDGE_LOOP('',(#1001,#1009,#1018,#1024));
#1001 = ORIENTED_EDGE('',*,*,#1002,.F.);
#1002 = EDGE_CURVE('',#1003,#405,#1005,.T.);
#1003 = VERTEX_POINT('',#1004);
#1004 = CARTESIAN_POINT('',(19.497692171126,17.2,35.13));
#1005 = LINE('',#1006,#1007);
#1006 = CARTESIAN_POINT('',(15.55,17.2,35.13));
#1007 = VECTOR('',#1008,1.);
#1008 = DIRECTION('',(1.,0.,0.));
#1009 = ORIENTED_EDGE('',*,*,#1010,.F.);
#1010 = EDGE_CURVE('',#1011,#1003,#1013,.T.);
#1011 = VERTEX_POINT('',#1012);
#1012 = CARTESIAN_POINT('',(20.724623036379,15.7,35.13));
#1013 = CIRCLE('',#1014,26.);
#1014 = AXIS2_PLACEMENT_3D('',#1015,#1016,#1017);
#1015 = CARTESIAN_POINT('',(0.,0.,35.13));
#1016 = DIRECTION('',(0.,0.,1.));
#1017 = DIRECTION('',(1.,0.,0.));
#1018 = ORIENTED_EDGE('',*,*,#1019,.T.);
#1019 = EDGE_CURVE('',#1011,#403,#1020,.T.);
#1020 = LINE('',#1021,#1022);
#1021 = CARTESIAN_POINT('',(15.55,15.7,35.13));
#1022 = VECTOR('',#1023,1.);
#1023 = DIRECTION('',(1.,0.,0.));
#1024 = ORIENTED_EDGE('',*,*,#402,.T.);
#1025 = PLANE('',#1026);
#1026 = AXIS2_PLACEMENT_3D('',#1027,#1028,#1029);
#1027 = CARTESIAN_POINT('',(15.55,15.7,35.13));
#1028 = DIRECTION('',(0.,0.,1.));
#1029 = DIRECTION('',(1.,0.,0.));
#1030 = ADVANCED_FACE('',(#1031),#1049,.T.);
#1031 = FACE_BOUND('',#1032,.T.);
#1032 = EDGE_LOOP('',(#1033,#1034,#1035,#1043));
#1033 = ORIENTED_EDGE('',*,*,#464,.F.);
#1034 = ORIENTED_EDGE('',*,*,#1002,.F.);
#1035 = ORIENTED_EDGE('',*,*,#1036,.T.);
#1036 = EDGE_CURVE('',#1003,#1037,#1039,.T.);
#1037 = VERTEX_POINT('',#1038);
#1038 = CARTESIAN_POINT('',(19.497692171126,17.2,36.93));
#1039 = LINE('',#1040,#1041);
#1040 = CARTESIAN_POINT('',(19.497692171126,17.2,-1.));
#1041 = VECTOR('',#1042,1.);
#1042 = DIRECTION('',(0.,0.,1.));
#1043 = ORIENTED_EDGE('',*,*,#1044,.T.);
#1044 = EDGE_CURVE('',#1037,#456,#1045,.T.);
#1045 = LINE('',#1046,#1047);
#1046 = CARTESIAN_POINT('',(15.55,17.2,36.93));
#1047 = VECTOR('',#1048,1.);
#1048 = DIRECTION('',(1.,0.,0.));
#1049 = PLANE('',#1050);
#1050 = AXIS2_PLACEMENT_3D('',#1051,#1052,#1053);
#1051 = CARTESIAN_POINT('',(15.55,17.2,35.13));
#1052 = DIRECTION('',(0.,1.,0.));
#1053 = DIRECTION('',(0.,0.,1.));
#1054 = ADVANCED_FACE('',(#1055),#1074,.F.);
#1055 = FACE_BOUND('',#1056,.F.);
#1056 = EDGE_LOOP('',(#1057,#1066,#1067,#1068));
#1057 = ORIENTED_EDGE('',*,*,#1058,.F.);
#1058 = EDGE_CURVE('',#1037,#1059,#1061,.T.);
#1059 = VERTEX_POINT('',#1060);
#1060 = CARTESIAN_POINT('',(16.430992057694,20.15,36.93));
#1061 = CIRCLE('',#1062,26.);
#1062 = AXIS2_PLACEMENT_3D('',#1063,#1064,#1065);
#1063 = CARTESIAN_POINT('',(0.,0.,36.93));
#1064 = DIRECTION('',(0.,0.,1.));
#1065 = DIRECTION('',(1.,0.,0.));
#1066 = ORIENTED_EDGE('',*,*,#1044,.T.);
#1067 = ORIENTED_EDGE('',*,*,#455,.T.);
#1068 = ORIENTED_EDGE('',*,*,#1069,.F.);
#1069 = EDGE_CURVE('',#1059,#448,#1070,.T.);
#1070 = LINE('',#1071,#1072);
#1071 = CARTESIAN_POINT('',(15.55,20.15,36.93));
#1072 = VECTOR('',#1073,1.);
#1073 = DIRECTION('',(1.,0.,0.));
#1074 = PLANE('',#1075);
#1075 = AXIS2_PLACEMENT_3D('',#1076,#1077,#1078);
#1076 = CARTESIAN_POINT('',(15.55,15.7,36.93));
#1077 = DIRECTION('',(0.,0.,1.));
#1078 = DIRECTION('',(1.,0.,0.));
#1079 = ADVANCED_FACE('',(#1080),#1098,.T.);
#1080 = FACE_BOUND('',#1081,.T.);
#1081 = EDGE_LOOP('',(#1082,#1083,#1091,#1097));
#1082 = ORIENTED_EDGE('',*,*,#1069,.F.);
#1083 = ORIENTED_EDGE('',*,*,#1084,.T.);
#1084 = EDGE_CURVE('',#1059,#1085,#1087,.T.);
#1085 = VERTEX_POINT('',#1086);
#1086 = CARTESIAN_POINT('',(16.430992057694,20.15,44.83));
#1087 = LINE('',#1088,#1089);
#1088 = CARTESIAN_POINT('',(16.430992057694,20.15,-1.));
#1089 = VECTOR('',#1090,1.);
#1090 = DIRECTION('',(0.,0.,1.));
#1091 = ORIENTED_EDGE('',*,*,#1092,.T.);
#1092 = EDGE_CURVE('',#1085,#439,#1093,.T.);
#1093 = LINE('',#1094,#1095);
#1094 = CARTESIAN_POINT('',(15.55,20.15,44.83));
#1095 = VECTOR('',#1096,1.);
#1096 = DIRECTION('',(1.,0.,0.));
#1097 = ORIENTED_EDGE('',*,*,#447,.F.);
#1098 = PLANE('',#1099);
#1099 = AXIS2_PLACEMENT_3D('',#1100,#1101,#1102);
#1100 = CARTESIAN_POINT('',(15.55,20.15,36.93));
#1101 = DIRECTION('',(0.,1.,0.));
#1102 = DIRECTION('',(0.,0.,1.));
#1103 = ADVANCED_FACE('',(#1104),#1123,.T.);
#1104 = FACE_BOUND('',#1105,.T.);
#1105 = EDGE_LOOP('',(#1106,#1115,#1121,#1122));
#1106 = ORIENTED_EDGE('',*,*,#1107,.F.);
#1107 = EDGE_CURVE('',#1108,#1085,#1110,.T.);
#1108 = VERTEX_POINT('',#1109);
#1109 = CARTESIAN_POINT('',(19.497692171126,17.2,44.83));
#1110 = CIRCLE('',#1111,26.);
#1111 = AXIS2_PLACEMENT_3D('',#1112,#1113,#1114);
#1112 = CARTESIAN_POINT('',(0.,0.,44.83));
#1113 = DIRECTION('',(0.,0.,1.));
#1114 = DIRECTION('',(1.,0.,0.));
#1115 = ORIENTED_EDGE('',*,*,#1116,.T.);
#1116 = EDGE_CURVE('',#1108,#431,#1117,.T.);
#1117 = LINE('',#1118,#1119);
#1118 = CARTESIAN_POINT('',(15.55,17.2,44.83));
#1119 = VECTOR('',#1120,1.);
#1120 = DIRECTION('',(1.,0.,0.));
#1121 = ORIENTED_EDGE('',*,*,#438,.T.);
#1122 = ORIENTED_EDGE('',*,*,#1092,.F.);
#1123 = PLANE('',#1124);
#1124 = AXIS2_PLACEMENT_3D('',#1125,#1126,#1127);
#1125 = CARTESIAN_POINT('',(15.55,15.7,44.83));
#1126 = DIRECTION('',(0.,0.,1.));
#1127 = DIRECTION('',(1.,0.,0.));
#1128 = ADVANCED_FACE('',(#1129),#1147,.T.);
#1129 = FACE_BOUND('',#1130,.T.);
#1130 = EDGE_LOOP('',(#1131,#1132,#1133,#1141));
#1131 = ORIENTED_EDGE('',*,*,#430,.F.);
#1132 = ORIENTED_EDGE('',*,*,#1116,.F.);
#1133 = ORIENTED_EDGE('',*,*,#1134,.T.);
#1134 = EDGE_CURVE('',#1108,#1135,#1137,.T.);
#1135 = VERTEX_POINT('',#1136);
#1136 = CARTESIAN_POINT('',(19.497692171126,17.2,46.63));
#1137 = LINE('',#1138,#1139);
#1138 = CARTESIAN_POINT('',(19.497692171126,17.2,-1.));
#1139 = VECTOR('',#1140,1.);
#1140 = DIRECTION('',(0.,0.,1.));
#1141 = ORIENTED_EDGE('',*,*,#1142,.T.);
#1142 = EDGE_CURVE('',#1135,#422,#1143,.T.);
#1143 = LINE('',#1144,#1145);
#1144 = CARTESIAN_POINT('',(15.55,17.2,46.63));
#1145 = VECTOR('',#1146,1.);
#1146 = DIRECTION('',(1.,0.,0.));
#1147 = PLANE('',#1148);
#1148 = AXIS2_PLACEMENT_3D('',#1149,#1150,#1151);
#1149 = CARTESIAN_POINT('',(15.55,17.2,35.13));
#1150 = DIRECTION('',(0.,1.,0.));
#1151 = DIRECTION('',(0.,0.,1.));
#1152 = ADVANCED_FACE('',(#1153),#1172,.T.);
#1153 = FACE_BOUND('',#1154,.T.);
#1154 = EDGE_LOOP('',(#1155,#1156,#1165,#1171));
#1155 = ORIENTED_EDGE('',*,*,#1142,.F.);
#1156 = ORIENTED_EDGE('',*,*,#1157,.F.);
#1157 = EDGE_CURVE('',#1158,#1135,#1160,.T.);
#1158 = VERTEX_POINT('',#1159);
#1159 = CARTESIAN_POINT('',(20.724623036379,15.7,46.63));
#1160 = CIRCLE('',#1161,26.);
#1161 = AXIS2_PLACEMENT_3D('',#1162,#1163,#1164);
#1162 = CARTESIAN_POINT('',(0.,0.,46.63));
#1163 = DIRECTION('',(0.,0.,1.));
#1164 = DIRECTION('',(1.,0.,0.));
#1165 = ORIENTED_EDGE('',*,*,#1166,.T.);
#1166 = EDGE_CURVE('',#1158,#414,#1167,.T.);
#1167 = LINE('',#1168,#1169);
#1168 = CARTESIAN_POINT('',(15.55,15.7,46.63));
#1169 = VECTOR('',#1170,1.);
#1170 = DIRECTION('',(1.,0.,0.));
#1171 = ORIENTED_EDGE('',*,*,#421,.T.);
#1172 = PLANE('',#1173);
#1173 = AXIS2_PLACEMENT_3D('',#1174,#1175,#1176);
#1174 = CARTESIAN_POINT('',(15.55,15.7,46.63));
#1175 = DIRECTION('',(0.,0.,1.));
#1176 = DIRECTION('',(1.,0.,0.));
#1177 = ADVANCED_FACE('',(#1178),#1203,.T.);
#1178 = FACE_BOUND('',#1179,.T.);
#1179 = EDGE_LOOP('',(#1180,#1181,#1189,#1197));
#1180 = ORIENTED_EDGE('',*,*,#552,.F.);
#1181 = ORIENTED_EDGE('',*,*,#1182,.T.);
#1182 = EDGE_CURVE('',#553,#1183,#1185,.T.);
#1183 = VERTEX_POINT('',#1184);
#1184 = CARTESIAN_POINT('',(16.411796920269,23.8,16.8));
#1185 = LINE('',#1186,#1187);
#1186 = CARTESIAN_POINT('',(16.411796920269,22.9,16.8));
#1187 = VECTOR('',#1188,1.);
#1188 = DIRECTION('',(0.,1.,0.));
#1189 = ORIENTED_EDGE('',*,*,#1190,.T.);
#1190 = EDGE_CURVE('',#1183,#1191,#1193,.T.);
#1191 = VERTEX_POINT('',#1192);
#1192 = CARTESIAN_POINT('',(16.411796920269,23.8,48.4));
#1193 = LINE('',#1194,#1195);
#1194 = CARTESIAN_POINT('',(16.411796920269,23.8,16.8));
#1195 = VECTOR('',#1196,1.);
#1196 = DIRECTION('',(0.,0.,1.));
#1197 = ORIENTED_EDGE('',*,*,#1198,.F.);
#1198 = EDGE_CURVE('',#543,#1191,#1199,.T.);
#1199 = LINE('',#1200,#1201);
#1200 = CARTESIAN_POINT('',(16.411796920269,22.9,48.4));
#1201 = VECTOR('',#1202,1.);
#1202 = DIRECTION('',(0.,1.,0.));
#1203 = PLANE('',#1204);
#1204 = AXIS2_PLACEMENT_3D('',#1205,#1206,#1207);
#1205 = CARTESIAN_POINT('',(16.411796920269,22.9,16.8));
#1206 = DIRECTION('',(1.,0.,0.));
#1207 = DIRECTION('',(0.,0.,1.));
#1208 = ADVANCED_FACE('',(#1209,#1220),#1223,.F.);
#1209 = FACE_BOUND('',#1210,.F.);
#1210 = EDGE_LOOP('',(#1211));
#1211 = ORIENTED_EDGE('',*,*,#1212,.T.);
#1212 = EDGE_CURVE('',#1213,#1213,#1215,.T.);
#1213 = VERTEX_POINT('',#1214);
#1214 = CARTESIAN_POINT('',(24.692555097628,6.704373404772,20.));
#1215 = CIRCLE('',#1216,1.7);
#1216 = AXIS2_PLACEMENT_3D('',#1217,#1218,#1219);
#1217 = CARTESIAN_POINT('',(24.139089235051,8.311754983291,20.));
#1218 = DIRECTION('',(-0.945518575599,-0.325568154457,0.));
#1219 = DIRECTION('',(0.325568154457,-0.945518575599,0.));
#1220 = FACE_BOUND('',#1221,.F.);
#1221 = EDGE_LOOP('',(#1222));
#1222 = ORIENTED_EDGE('',*,*,#645,.F.);
#1223 = PLANE('',#1224);
#1224 = AXIS2_PLACEMENT_3D('',#1225,#1226,#1227);
#1225 = CARTESIAN_POINT('',(24.139089235051,8.311754983291,20.));
#1226 = DIRECTION('',(-0.945518575599,-0.325568154457,0.));
#1227 = DIRECTION('',(0.325568154457,-0.945518575599,0.));
#1228 = ADVANCED_FACE('',(#1229,#1240),#1243,.F.);
#1229 = FACE_BOUND('',#1230,.F.);
#1230 = EDGE_LOOP('',(#1231));
#1231 = ORIENTED_EDGE('',*,*,#1232,.T.);
#1232 = EDGE_CURVE('',#1233,#1233,#1235,.T.);
#1233 = VERTEX_POINT('',#1234);
#1234 = CARTESIAN_POINT('',(24.692555097628,6.704373404772,32.5));
#1235 = CIRCLE('',#1236,1.7);
#1236 = AXIS2_PLACEMENT_3D('',#1237,#1238,#1239);
#1237 = CARTESIAN_POINT('',(24.139089235051,8.311754983291,32.5));
#1238 = DIRECTION('',(-0.945518575599,-0.325568154457,0.));
#1239 = DIRECTION('',(0.325568154457,-0.945518575599,0.));
#1240 = FACE_BOUND('',#1241,.F.);
#1241 = EDGE_LOOP('',(#1242));
#1242 = ORIENTED_EDGE('',*,*,#670,.F.);
#1243 = PLANE('',#1244);
#1244 = AXIS2_PLACEMENT_3D('',#1245,#1246,#1247);
#1245 = CARTESIAN_POINT('',(24.139089235051,8.311754983291,32.5));
#1246 = DIRECTION('',(-0.945518575599,-0.325568154457,0.));
#1247 = DIRECTION('',(0.325568154457,-0.945518575599,0.));
#1248 = ADVANCED_FACE('',(#1249),#1259,.F.);
#1249 = FACE_BOUND('',#1250,.F.);
#1250 = EDGE_LOOP('',(#1251,#1252,#1253,#1254,#1255,#1256,#1257,#1258));
#1251 = ORIENTED_EDGE('',*,*,#938,.T.);
#1252 = ORIENTED_EDGE('',*,*,#687,.T.);
#1253 = ORIENTED_EDGE('',*,*,#721,.T.);
#1254 = ORIENTED_EDGE('',*,*,#768,.T.);
#1255 = ORIENTED_EDGE('',*,*,#793,.T.);
#1256 = ORIENTED_EDGE('',*,*,#839,.F.);
#1257 = ORIENTED_EDGE('',*,*,#866,.T.);
#1258 = ORIENTED_EDGE('',*,*,#920,.F.);
#1259 = CYLINDRICAL_SURFACE('',#1260,25.65);
#1260 = AXIS2_PLACEMENT_3D('',#1261,#1262,#1263);
#1261 = CARTESIAN_POINT('',(0.,0.,-1.));
#1262 = DIRECTION('',(0.,0.,1.));
#1263 = DIRECTION('',(1.,0.,0.));
#1264 = ADVANCED_FACE('',(#1265,#1276),#1279,.F.);
#1265 = FACE_BOUND('',#1266,.F.);
#1266 = EDGE_LOOP('',(#1267));
#1267 = ORIENTED_EDGE('',*,*,#1268,.T.);
#1268 = EDGE_CURVE('',#1269,#1269,#1271,.T.);
#1269 = VERTEX_POINT('',#1270);
#1270 = CARTESIAN_POINT('',(24.692555097628,6.704373404772,45.));
#1271 = CIRCLE('',#1272,1.7);
#1272 = AXIS2_PLACEMENT_3D('',#1273,#1274,#1275);
#1273 = CARTESIAN_POINT('',(24.139089235051,8.311754983291,45.));
#1274 = DIRECTION('',(-0.945518575599,-0.325568154457,0.));
#1275 = DIRECTION('',(0.325568154457,-0.945518575599,0.));
#1276 = FACE_BOUND('',#1277,.F.);
#1277 = EDGE_LOOP('',(#1278));
#1278 = ORIENTED_EDGE('',*,*,#985,.F.);
#1279 = PLANE('',#1280);
#1280 = AXIS2_PLACEMENT_3D('',#1281,#1282,#1283);
#1281 = CARTESIAN_POINT('',(24.139089235051,8.311754983291,45.));
#1282 = DIRECTION('',(-0.945518575599,-0.325568154457,0.));
#1283 = DIRECTION('',(0.325568154457,-0.945518575599,0.));
#1284 = ADVANCED_FACE('',(#1285),#1300,.F.);
#1285 = FACE_BOUND('',#1286,.F.);
#1286 = EDGE_LOOP('',(#1287,#1293,#1294,#1295,#1296,#1297,#1298,#1299));
#1287 = ORIENTED_EDGE('',*,*,#1288,.F.);
#1288 = EDGE_CURVE('',#1011,#1158,#1289,.T.);
#1289 = LINE('',#1290,#1291);
#1290 = CARTESIAN_POINT('',(20.724623036379,15.7,-1.));
#1291 = VECTOR('',#1292,1.);
#1292 = DIRECTION('',(0.,0.,1.));
#1293 = ORIENTED_EDGE('',*,*,#1010,.T.);
#1294 = ORIENTED_EDGE('',*,*,#1036,.T.);
#1295 = ORIENTED_EDGE('',*,*,#1058,.T.);
#1296 = ORIENTED_EDGE('',*,*,#1084,.T.);
#1297 = ORIENTED_EDGE('',*,*,#1107,.F.);
#1298 = ORIENTED_EDGE('',*,*,#1134,.T.);
#1299 = ORIENTED_EDGE('',*,*,#1157,.F.);
#1300 = CYLINDRICAL_SURFACE('',#1301,26.);
#1301 = AXIS2_PLACEMENT_3D('',#1302,#1303,#1304);
#1302 = CARTESIAN_POINT('',(0.,0.,-1.));
#1303 = DIRECTION('',(0.,0.,1.));
#1304 = DIRECTION('',(1.,0.,0.));
#1305 = ADVANCED_FACE('',(#1306),#1363,.T.);
#1306 = FACE_BOUND('',#1307,.T.);
#1307 = EDGE_LOOP('',(#1308,#1309,#1317,#1325,#1333,#1341,#1349,#1357));
#1308 = ORIENTED_EDGE('',*,*,#1190,.F.);
#1309 = ORIENTED_EDGE('',*,*,#1310,.F.);
#1310 = EDGE_CURVE('',#1311,#1183,#1313,.T.);
#1311 = VERTEX_POINT('',#1312);
#1312 = CARTESIAN_POINT('',(14.6,23.8,16.8));
#1313 = LINE('',#1314,#1315);
#1314 = CARTESIAN_POINT('',(14.6,23.8,16.8));
#1315 = VECTOR('',#1316,1.);
#1316 = DIRECTION('',(1.,0.,0.));
#1317 = ORIENTED_EDGE('',*,*,#1318,.T.);
#1318 = EDGE_CURVE('',#1311,#1319,#1321,.T.);
#1319 = VERTEX_POINT('',#1320);
#1320 = CARTESIAN_POINT('',(14.6,23.8,22.5));
#1321 = LINE('',#1322,#1323);
#1322 = CARTESIAN_POINT('',(14.6,23.8,16.8));
#1323 = VECTOR('',#1324,1.);
#1324 = DIRECTION('',(0.,0.,1.));
#1325 = ORIENTED_EDGE('',*,*,#1326,.T.);
#1326 = EDGE_CURVE('',#1319,#1327,#1329,.T.);
#1327 = VERTEX_POINT('',#1328);
#1328 = CARTESIAN_POINT('',(14.61,23.8,22.5));
#1329 = LINE('',#1330,#1331);
#1330 = CARTESIAN_POINT('',(13.6,23.8,22.5));
#1331 = VECTOR('',#1332,1.);
#1332 = DIRECTION('',(1.,0.,0.));
#1333 = ORIENTED_EDGE('',*,*,#1334,.F.);
#1334 = EDGE_CURVE('',#1335,#1327,#1337,.T.);
#1335 = VERTEX_POINT('',#1336);
#1336 = CARTESIAN_POINT('',(14.61,23.8,27.5));
#1337 = LINE('',#1338,#1339);
#1338 = CARTESIAN_POINT('',(14.61,23.8,19.65));
#1339 = VECTOR('',#1340,1.);
#1340 = DIRECTION('',(0.,0.,-1.));
#1341 = ORIENTED_EDGE('',*,*,#1342,.F.);
#1342 = EDGE_CURVE('',#1343,#1335,#1345,.T.);
#1343 = VERTEX_POINT('',#1344);
#1344 = CARTESIAN_POINT('',(14.6,23.8,27.5));
#1345 = LINE('',#1346,#1347);
#1346 = CARTESIAN_POINT('',(13.6,23.8,27.5));
#1347 = VECTOR('',#1348,1.);
#1348 = DIRECTION('',(1.,0.,0.));
#1349 = ORIENTED_EDGE('',*,*,#1350,.T.);
#1350 = EDGE_CURVE('',#1343,#1351,#1353,.T.);
#1351 = VERTEX_POINT('',#1352);
#1352 = CARTESIAN_POINT('',(14.6,23.8,48.4));
#1353 = LINE('',#1354,#1355);
#1354 = CARTESIAN_POINT('',(14.6,23.8,16.8));
#1355 = VECTOR('',#1356,1.);
#1356 = DIRECTION('',(0.,0.,1.));
#1357 = ORIENTED_EDGE('',*,*,#1358,.T.);
#1358 = EDGE_CURVE('',#1351,#1191,#1359,.T.);
#1359 = LINE('',#1360,#1361);
#1360 = CARTESIAN_POINT('',(14.6,23.8,48.4));
#1361 = VECTOR('',#1362,1.);
#1362 = DIRECTION('',(1.,0.,0.));
#1363 = PLANE('',#1364);
#1364 = AXIS2_PLACEMENT_3D('',#1365,#1366,#1367);
#1365 = CARTESIAN_POINT('',(14.6,23.8,16.8));
#1366 = DIRECTION('',(0.,1.,0.));
#1367 = DIRECTION('',(0.,0.,1.));
#1368 = ADVANCED_FACE('',(#1369),#1394,.F.);
#1369 = FACE_BOUND('',#1370,.F.);
#1370 = EDGE_LOOP('',(#1371,#1381,#1387,#1388));
#1371 = ORIENTED_EDGE('',*,*,#1372,.F.);
#1372 = EDGE_CURVE('',#1373,#1375,#1377,.T.);
#1373 = VERTEX_POINT('',#1374);
#1374 = CARTESIAN_POINT('',(14.6,22.9,27.5));
#1375 = VERTEX_POINT('',#1376);
#1376 = CARTESIAN_POINT('',(14.6,22.9,48.4));
#1377 = LINE('',#1378,#1379);
#1378 = CARTESIAN_POINT('',(14.6,22.9,16.8));
#1379 = VECTOR('',#1380,1.);
#1380 = DIRECTION('',(0.,0.,1.));
#1381 = ORIENTED_EDGE('',*,*,#1382,.F.);
#1382 = EDGE_CURVE('',#1343,#1373,#1383,.T.);
#1383 = LINE('',#1384,#1385);
#1384 = CARTESIAN_POINT('',(14.6,22.9,27.5));
#1385 = VECTOR('',#1386,1.);
#1386 = DIRECTION('',(0.,-1.,0.));
#1387 = ORIENTED_EDGE('',*,*,#1350,.T.);
#1388 = ORIENTED_EDGE('',*,*,#1389,.F.);
#1389 = EDGE_CURVE('',#1375,#1351,#1390,.T.);
#1390 = LINE('',#1391,#1392);
#1391 = CARTESIAN_POINT('',(14.6,22.9,48.4));
#1392 = VECTOR('',#1393,1.);
#1393 = DIRECTION('',(0.,1.,0.));
#1394 = PLANE('',#1395);
#1395 = AXIS2_PLACEMENT_3D('',#1396,#1397,#1398);
#1396 = CARTESIAN_POINT('',(14.6,22.9,16.8));
#1397 = DIRECTION('',(1.,0.,0.));
#1398 = DIRECTION('',(0.,0.,1.));
#1399 = ADVANCED_FACE('',(#1400),#1425,.F.);
#1400 = FACE_BOUND('',#1401,.F.);
#1401 = EDGE_LOOP('',(#1402,#1412,#1418,#1419));
#1402 = ORIENTED_EDGE('',*,*,#1403,.F.);
#1403 = EDGE_CURVE('',#1404,#1406,#1408,.T.);
#1404 = VERTEX_POINT('',#1405);
#1405 = CARTESIAN_POINT('',(14.6,22.9,16.8));
#1406 = VERTEX_POINT('',#1407);
#1407 = CARTESIAN_POINT('',(14.6,22.9,22.5));
#1408 = LINE('',#1409,#1410);
#1409 = CARTESIAN_POINT('',(14.6,22.9,16.8));
#1410 = VECTOR('',#1411,1.);
#1411 = DIRECTION('',(0.,0.,1.));
#1412 = ORIENTED_EDGE('',*,*,#1413,.T.);
#1413 = EDGE_CURVE('',#1404,#1311,#1414,.T.);
#1414 = LINE('',#1415,#1416);
#1415 = CARTESIAN_POINT('',(14.6,22.9,16.8));
#1416 = VECTOR('',#1417,1.);
#1417 = DIRECTION('',(0.,1.,0.));
#1418 = ORIENTED_EDGE('',*,*,#1318,.T.);
#1419 = ORIENTED_EDGE('',*,*,#1420,.T.);
#1420 = EDGE_CURVE('',#1319,#1406,#1421,.T.);
#1421 = LINE('',#1422,#1423);
#1422 = CARTESIAN_POINT('',(14.6,22.9,22.5));
#1423 = VECTOR('',#1424,1.);
#1424 = DIRECTION('',(0.,-1.,0.));
#1425 = PLANE('',#1426);
#1426 = AXIS2_PLACEMENT_3D('',#1427,#1428,#1429);
#1427 = CARTESIAN_POINT('',(14.6,22.9,16.8));
#1428 = DIRECTION('',(1.,0.,0.));
#1429 = DIRECTION('',(0.,0.,1.));
#1430 = ADVANCED_FACE('',(#1431),#1450,.T.);
#1431 = FACE_BOUND('',#1432,.T.);
#1432 = EDGE_LOOP('',(#1433,#1442,#1448,#1449));
#1433 = ORIENTED_EDGE('',*,*,#1434,.F.);
#1434 = EDGE_CURVE('',#1435,#1435,#1437,.T.);
#1435 = VERTEX_POINT('',#1436);
#1436 = CARTESIAN_POINT('',(23.747036522028,6.378805250315,20.));
#1437 = CIRCLE('',#1438,1.7);
#1438 = AXIS2_PLACEMENT_3D('',#1439,#1440,#1441);
#1439 = CARTESIAN_POINT('',(23.193570659451,7.986186828834,20.));
#1440 = DIRECTION('',(-0.945518575599,-0.325568154457,0.));
#1441 = DIRECTION('',(0.325568154457,-0.945518575599,0.));
#1442 = ORIENTED_EDGE('',*,*,#1443,.F.);
#1443 = EDGE_CURVE('',#1213,#1435,#1444,.T.);
#1444 = LINE('',#1445,#1446);
#1445 = CARTESIAN_POINT('',(24.692555097628,6.704373404772,20.));
#1446 = VECTOR('',#1447,1.);
#1447 = DIRECTION('',(-0.945518575599,-0.325568154457,-0.));
#1448 = ORIENTED_EDGE('',*,*,#1212,.T.);
#1449 = ORIENTED_EDGE('',*,*,#1443,.T.);
#1450 = CYLINDRICAL_SURFACE('',#1451,1.7);
#1451 = AXIS2_PLACEMENT_3D('',#1452,#1453,#1454);
#1452 = CARTESIAN_POINT('',(24.139089235051,8.311754983291,20.));
#1453 = DIRECTION('',(-0.945518575599,-0.325568154457,0.));
#1454 = DIRECTION('',(0.325568154457,-0.945518575599,0.));
#1455 = ADVANCED_FACE('',(#1456),#1475,.T.);
#1456 = FACE_BOUND('',#1457,.T.);
#1457 = EDGE_LOOP('',(#1458,#1467,#1473,#1474));
#1458 = ORIENTED_EDGE('',*,*,#1459,.F.);
#1459 = EDGE_CURVE('',#1460,#1460,#1462,.T.);
#1460 = VERTEX_POINT('',#1461);
#1461 = CARTESIAN_POINT('',(23.747036522028,6.378805250315,32.5));
#1462 = CIRCLE('',#1463,1.7);
#1463 = AXIS2_PLACEMENT_3D('',#1464,#1465,#1466);
#1464 = CARTESIAN_POINT('',(23.193570659451,7.986186828834,32.5));
#1465 = DIRECTION('',(-0.945518575599,-0.325568154457,0.));
#1466 = DIRECTION('',(0.325568154457,-0.945518575599,0.));
#1467 = ORIENTED_EDGE('',*,*,#1468,.F.);
#1468 = EDGE_CURVE('',#1233,#1460,#1469,.T.);
#1469 = LINE('',#1470,#1471);
#1470 = CARTESIAN_POINT('',(24.692555097628,6.704373404772,32.5));
#1471 = VECTOR('',#1472,1.);
#1472 = DIRECTION('',(-0.945518575599,-0.325568154457,-0.));
#1473 = ORIENTED_EDGE('',*,*,#1232,.T.);
#1474 = ORIENTED_EDGE('',*,*,#1468,.T.);
#1475 = CYLINDRICAL_SURFACE('',#1476,1.7);
#1476 = AXIS2_PLACEMENT_3D('',#1477,#1478,#1479);
#1477 = CARTESIAN_POINT('',(24.139089235051,8.311754983291,32.5));
#1478 = DIRECTION('',(-0.945518575599,-0.325568154457,0.));
#1479 = DIRECTION('',(0.325568154457,-0.945518575599,0.));
#1480 = ADVANCED_FACE('',(#1481),#1500,.T.);
#1481 = FACE_BOUND('',#1482,.T.);
#1482 = EDGE_LOOP('',(#1483,#1492,#1498,#1499));
#1483 = ORIENTED_EDGE('',*,*,#1484,.F.);
#1484 = EDGE_CURVE('',#1485,#1485,#1487,.T.);
#1485 = VERTEX_POINT('',#1486);
#1486 = CARTESIAN_POINT('',(23.747036522028,6.378805250315,45.));
#1487 = CIRCLE('',#1488,1.7);
#1488 = AXIS2_PLACEMENT_3D('',#1489,#1490,#1491);
#1489 = CARTESIAN_POINT('',(23.193570659451,7.986186828834,45.));
#1490 = DIRECTION('',(-0.945518575599,-0.325568154457,0.));
#1491 = DIRECTION('',(0.325568154457,-0.945518575599,0.));
#1492 = ORIENTED_EDGE('',*,*,#1493,.F.);
#1493 = EDGE_CURVE('',#1269,#1485,#1494,.T.);
#1494 = LINE('',#1495,#1496);
#1495 = CARTESIAN_POINT('',(24.692555097628,6.704373404772,45.));
#1496 = VECTOR('',#1497,1.);
#1497 = DIRECTION('',(-0.945518575599,-0.325568154457,-0.));
#1498 = ORIENTED_EDGE('',*,*,#1268,.T.);
#1499 = ORIENTED_EDGE('',*,*,#1493,.T.);
#1500 = CYLINDRICAL_SURFACE('',#1501,1.7);
#1501 = AXIS2_PLACEMENT_3D('',#1502,#1503,#1504);
#1502 = CARTESIAN_POINT('',(24.139089235051,8.311754983291,45.));
#1503 = DIRECTION('',(-0.945518575599,-0.325568154457,0.));
#1504 = DIRECTION('',(0.325568154457,-0.945518575599,0.));
#1505 = ADVANCED_FACE('',(#1506),#1540,.T.);
#1506 = FACE_BOUND('',#1507,.T.);
#1507 = EDGE_LOOP('',(#1508,#1518,#1526,#1532,#1533,#1534));
#1508 = ORIENTED_EDGE('',*,*,#1509,.F.);
#1509 = EDGE_CURVE('',#1510,#1512,#1514,.T.);
#1510 = VERTEX_POINT('',#1511);
#1511 = CARTESIAN_POINT('',(12.6,24.8,27.5));
#1512 = VERTEX_POINT('',#1513);
#1513 = CARTESIAN_POINT('',(14.61,24.8,27.5));
#1514 = LINE('',#1515,#1516);
#1515 = CARTESIAN_POINT('',(12.6,24.8,27.5));
#1516 = VECTOR('',#1517,1.);
#1517 = DIRECTION('',(1.,0.,0.));
#1518 = ORIENTED_EDGE('',*,*,#1519,.F.);
#1519 = EDGE_CURVE('',#1520,#1510,#1522,.T.);
#1520 = VERTEX_POINT('',#1521);
#1521 = CARTESIAN_POINT('',(12.6,22.9,27.5));
#1522 = LINE('',#1523,#1524);
#1523 = CARTESIAN_POINT('',(12.6,22.9,27.5));
#1524 = VECTOR('',#1525,1.);
#1525 = DIRECTION('',(0.,1.,0.));
#1526 = ORIENTED_EDGE('',*,*,#1527,.T.);
#1527 = EDGE_CURVE('',#1520,#1373,#1528,.T.);
#1528 = LINE('',#1529,#1530);
#1529 = CARTESIAN_POINT('',(12.6,22.9,27.5));
#1530 = VECTOR('',#1531,1.);
#1531 = DIRECTION('',(1.,0.,0.));
#1532 = ORIENTED_EDGE('',*,*,#1382,.F.);
#1533 = ORIENTED_EDGE('',*,*,#1342,.T.);
#1534 = ORIENTED_EDGE('',*,*,#1535,.T.);
#1535 = EDGE_CURVE('',#1335,#1512,#1536,.T.);
#1536 = LINE('',#1537,#1538);
#1537 = CARTESIAN_POINT('',(14.61,22.9,27.5));
#1538 = VECTOR('',#1539,1.);
#1539 = DIRECTION('',(0.,1.,0.));
#1540 = PLANE('',#1541);
#1541 = AXIS2_PLACEMENT_3D('',#1542,#1543,#1544);
#1542 = CARTESIAN_POINT('',(12.6,22.9,27.5));
#1543 = DIRECTION('',(0.,0.,1.));
#1544 = DIRECTION('',(1.,0.,0.));
#1545 = ADVANCED_FACE('',(#1546),#1580,.F.);
#1546 = FACE_BOUND('',#1547,.F.);
#1547 = EDGE_LOOP('',(#1548,#1558,#1566,#1572,#1573,#1574));
#1548 = ORIENTED_EDGE('',*,*,#1549,.F.);
#1549 = EDGE_CURVE('',#1550,#1552,#1554,.T.);
#1550 = VERTEX_POINT('',#1551);
#1551 = CARTESIAN_POINT('',(12.6,24.8,22.5));
#1552 = VERTEX_POINT('',#1553);
#1553 = CARTESIAN_POINT('',(14.61,24.8,22.5));
#1554 = LINE('',#1555,#1556);
#1555 = CARTESIAN_POINT('',(12.6,24.8,22.5));
#1556 = VECTOR('',#1557,1.);
#1557 = DIRECTION('',(1.,0.,0.));
#1558 = ORIENTED_EDGE('',*,*,#1559,.F.);
#1559 = EDGE_CURVE('',#1560,#1550,#1562,.T.);
#1560 = VERTEX_POINT('',#1561);
#1561 = CARTESIAN_POINT('',(12.6,22.9,22.5));
#1562 = LINE('',#1563,#1564);
#1563 = CARTESIAN_POINT('',(12.6,22.9,22.5));
#1564 = VECTOR('',#1565,1.);
#1565 = DIRECTION('',(0.,1.,0.));
#1566 = ORIENTED_EDGE('',*,*,#1567,.T.);
#1567 = EDGE_CURVE('',#1560,#1406,#1568,.T.);
#1568 = LINE('',#1569,#1570);
#1569 = CARTESIAN_POINT('',(12.6,22.9,22.5));
#1570 = VECTOR('',#1571,1.);
#1571 = DIRECTION('',(1.,0.,0.));
#1572 = ORIENTED_EDGE('',*,*,#1420,.F.);
#1573 = ORIENTED_EDGE('',*,*,#1326,.T.);
#1574 = ORIENTED_EDGE('',*,*,#1575,.T.);
#1575 = EDGE_CURVE('',#1327,#1552,#1576,.T.);
#1576 = LINE('',#1577,#1578);
#1577 = CARTESIAN_POINT('',(14.61,22.9,22.5));
#1578 = VECTOR('',#1579,1.);
#1579 = DIRECTION('',(0.,1.,0.));
#1580 = PLANE('',#1581);
#1581 = AXIS2_PLACEMENT_3D('',#1582,#1583,#1584);
#1582 = CARTESIAN_POINT('',(12.6,22.9,22.5));
#1583 = DIRECTION('',(0.,0.,1.));
#1584 = DIRECTION('',(1.,0.,0.));
#1585 = ADVANCED_FACE('',(#1586),#1597,.T.);
#1586 = FACE_BOUND('',#1587,.T.);
#1587 = EDGE_LOOP('',(#1588,#1589,#1590,#1596));
#1588 = ORIENTED_EDGE('',*,*,#1334,.T.);
#1589 = ORIENTED_EDGE('',*,*,#1575,.T.);
#1590 = ORIENTED_EDGE('',*,*,#1591,.T.);
#1591 = EDGE_CURVE('',#1552,#1512,#1592,.T.);
#1592 = LINE('',#1593,#1594);
#1593 = CARTESIAN_POINT('',(14.61,24.8,22.5));
#1594 = VECTOR('',#1595,1.);
#1595 = DIRECTION('',(0.,0.,1.));
#1596 = ORIENTED_EDGE('',*,*,#1535,.F.);
#1597 = PLANE('',#1598);
#1598 = AXIS2_PLACEMENT_3D('',#1599,#1600,#1601);
#1599 = CARTESIAN_POINT('',(14.61,22.9,22.5));
#1600 = DIRECTION('',(1.,0.,0.));
#1601 = DIRECTION('',(0.,0.,1.));
#1602 = ADVANCED_FACE('',(#1603),#1622,.T.);
#1603 = FACE_BOUND('',#1604,.T.);
#1604 = EDGE_LOOP('',(#1605,#1614,#1620,#1621));
#1605 = ORIENTED_EDGE('',*,*,#1606,.F.);
#1606 = EDGE_CURVE('',#1607,#1607,#1609,.T.);
#1607 = VERTEX_POINT('',#1608);
#1608 = CARTESIAN_POINT('',(22.849136607127,6.836408509505,20.));
#1609 = CIRCLE('',#1610,0.975);
#1610 = AXIS2_PLACEMENT_3D('',#1611,#1612,#1613);
#1611 = CARTESIAN_POINT('',(22.531707656532,7.758289120714,20.));
#1612 = DIRECTION('',(-0.945518575599,-0.325568154457,0.));
#1613 = DIRECTION('',(0.325568154457,-0.945518575599,0.));
#1614 = ORIENTED_EDGE('',*,*,#1615,.F.);
#1615 = EDGE_CURVE('',#1435,#1607,#1616,.T.);
#1616 = LINE('',#1617,#1618);
#1617 = CARTESIAN_POINT('',(23.747036522028,6.378805250315,20.));
#1618 = VECTOR('',#1619,1.);
#1619 = DIRECTION('',(-0.890966221059,0.454069590406,1.8E-16));
#1620 = ORIENTED_EDGE('',*,*,#1434,.T.);
#1621 = ORIENTED_EDGE('',*,*,#1615,.T.);
#1622 = CONICAL_SURFACE('',#1623,1.7,0.802940223455);
#1623 = AXIS2_PLACEMENT_3D('',#1624,#1625,#1626);
#1624 = CARTESIAN_POINT('',(23.193570659451,7.986186828834,20.));
#1625 = DIRECTION('',(0.945518575599,0.325568154457,0.));
#1626 = DIRECTION('',(0.325568154457,-0.945518575599,0.));
#1627 = ADVANCED_FACE('',(#1628),#1647,.T.);
#1628 = FACE_BOUND('',#1629,.T.);
#1629 = EDGE_LOOP('',(#1630,#1639,#1645,#1646));
#1630 = ORIENTED_EDGE('',*,*,#1631,.F.);
#1631 = EDGE_CURVE('',#1632,#1632,#1634,.T.);
#1632 = VERTEX_POINT('',#1633);
#1633 = CARTESIAN_POINT('',(22.849136607127,6.836408509505,32.5));
#1634 = CIRCLE('',#1635,0.975);
#1635 = AXIS2_PLACEMENT_3D('',#1636,#1637,#1638);
#1636 = CARTESIAN_POINT('',(22.531707656532,7.758289120714,32.5));
#1637 = DIRECTION('',(-0.945518575599,-0.325568154457,0.));
#1638 = DIRECTION('',(0.325568154457,-0.945518575599,0.));
#1639 = ORIENTED_EDGE('',*,*,#1640,.F.);
#1640 = EDGE_CURVE('',#1460,#1632,#1641,.T.);
#1641 = LINE('',#1642,#1643);
#1642 = CARTESIAN_POINT('',(23.747036522028,6.378805250315,32.5));
#1643 = VECTOR('',#1644,1.);
#1644 = DIRECTION('',(-0.890966221059,0.454069590406,1.8E-16));
#1645 = ORIENTED_EDGE('',*,*,#1459,.T.);
#1646 = ORIENTED_EDGE('',*,*,#1640,.T.);
#1647 = CONICAL_SURFACE('',#1648,1.7,0.802940223455);
#1648 = AXIS2_PLACEMENT_3D('',#1649,#1650,#1651);
#1649 = CARTESIAN_POINT('',(23.193570659451,7.986186828834,32.5));
#1650 = DIRECTION('',(0.945518575599,0.325568154457,0.));
#1651 = DIRECTION('',(0.325568154457,-0.945518575599,0.));
#1652 = ADVANCED_FACE('',(#1653),#1672,.T.);
#1653 = FACE_BOUND('',#1654,.T.);
#1654 = EDGE_LOOP('',(#1655,#1664,#1670,#1671));
#1655 = ORIENTED_EDGE('',*,*,#1656,.F.);
#1656 = EDGE_CURVE('',#1657,#1657,#1659,.T.);
#1657 = VERTEX_POINT('',#1658);
#1658 = CARTESIAN_POINT('',(22.849136607127,6.836408509505,45.));
#1659 = CIRCLE('',#1660,0.975);
#1660 = AXIS2_PLACEMENT_3D('',#1661,#1662,#1663);
#1661 = CARTESIAN_POINT('',(22.531707656532,7.758289120714,45.));
#1662 = DIRECTION('',(-0.945518575599,-0.325568154457,0.));
#1663 = DIRECTION('',(0.325568154457,-0.945518575599,0.));
#1664 = ORIENTED_EDGE('',*,*,#1665,.F.);
#1665 = EDGE_CURVE('',#1485,#1657,#1666,.T.);
#1666 = LINE('',#1667,#1668);
#1667 = CARTESIAN_POINT('',(23.747036522028,6.378805250315,45.));
#1668 = VECTOR('',#1669,1.);
#1669 = DIRECTION('',(-0.890966221059,0.454069590406,1.8E-16));
#1670 = ORIENTED_EDGE('',*,*,#1484,.T.);
#1671 = ORIENTED_EDGE('',*,*,#1665,.T.);
#1672 = CONICAL_SURFACE('',#1673,1.7,0.802940223455);
#1673 = AXIS2_PLACEMENT_3D('',#1674,#1675,#1676);
#1674 = CARTESIAN_POINT('',(23.193570659451,7.986186828834,45.));
#1675 = DIRECTION('',(0.945518575599,0.325568154457,0.));
#1676 = DIRECTION('',(0.325568154457,-0.945518575599,0.));
#1677 = ADVANCED_FACE('',(#1678),#1689,.T.);
#1678 = FACE_BOUND('',#1679,.T.);
#1679 = EDGE_LOOP('',(#1680,#1681,#1687,#1688));
#1680 = ORIENTED_EDGE('',*,*,#1549,.F.);
#1681 = ORIENTED_EDGE('',*,*,#1682,.T.);
#1682 = EDGE_CURVE('',#1550,#1510,#1683,.T.);
#1683 = LINE('',#1684,#1685);
#1684 = CARTESIAN_POINT('',(12.6,24.8,22.5));
#1685 = VECTOR('',#1686,1.);
#1686 = DIRECTION('',(0.,0.,1.));
#1687 = ORIENTED_EDGE('',*,*,#1509,.T.);
#1688 = ORIENTED_EDGE('',*,*,#1591,.F.);
#1689 = PLANE('',#1690);
#1690 = AXIS2_PLACEMENT_3D('',#1691,#1692,#1693);
#1691 = CARTESIAN_POINT('',(12.6,24.8,22.5));
#1692 = DIRECTION('',(0.,1.,0.));
#1693 = DIRECTION('',(0.,0.,1.));
#1694 = ADVANCED_FACE('',(#1695),#1706,.F.);
#1695 = FACE_BOUND('',#1696,.F.);
#1696 = EDGE_LOOP('',(#1697,#1703,#1704,#1705));
#1697 = ORIENTED_EDGE('',*,*,#1698,.F.);
#1698 = EDGE_CURVE('',#1560,#1520,#1699,.T.);
#1699 = LINE('',#1700,#1701);
#1700 = CARTESIAN_POINT('',(12.6,22.9,22.5));
#1701 = VECTOR('',#1702,1.);
#1702 = DIRECTION('',(0.,0.,1.));
#1703 = ORIENTED_EDGE('',*,*,#1559,.T.);
#1704 = ORIENTED_EDGE('',*,*,#1682,.T.);
#1705 = ORIENTED_EDGE('',*,*,#1519,.F.);
#1706 = PLANE('',#1707);
#1707 = AXIS2_PLACEMENT_3D('',#1708,#1709,#1710);
#1708 = CARTESIAN_POINT('',(12.6,22.9,22.5));
#1709 = DIRECTION('',(1.,0.,0.));
#1710 = DIRECTION('',(0.,0.,1.));
#1711 = ADVANCED_FACE('',(#1712),#1715,.T.);
#1712 = FACE_BOUND('',#1713,.T.);
#1713 = EDGE_LOOP('',(#1714));
#1714 = ORIENTED_EDGE('',*,*,#1606,.T.);
#1715 = PLANE('',#1716);
#1716 = AXIS2_PLACEMENT_3D('',#1717,#1718,#1719);
#1717 = CARTESIAN_POINT('',(22.531707656532,7.758289120714,20.));
#1718 = DIRECTION('',(-0.945518575599,-0.325568154457,0.));
#1719 = DIRECTION('',(0.325568154457,-0.945518575599,0.));
#1720 = ADVANCED_FACE('',(#1721),#1724,.T.);
#1721 = FACE_BOUND('',#1722,.T.);
#1722 = EDGE_LOOP('',(#1723));
#1723 = ORIENTED_EDGE('',*,*,#1631,.T.);
#1724 = PLANE('',#1725);
#1725 = AXIS2_PLACEMENT_3D('',#1726,#1727,#1728);
#1726 = CARTESIAN_POINT('',(22.531707656532,7.758289120714,32.5));
#1727 = DIRECTION('',(-0.945518575599,-0.325568154457,0.));
#1728 = DIRECTION('',(0.325568154457,-0.945518575599,0.));
#1729 = ADVANCED_FACE('',(#1730),#1733,.T.);
#1730 = FACE_BOUND('',#1731,.T.);
#1731 = EDGE_LOOP('',(#1732));
#1732 = ORIENTED_EDGE('',*,*,#1656,.T.);
#1733 = PLANE('',#1734);
#1734 = AXIS2_PLACEMENT_3D('',#1735,#1736,#1737);
#1735 = CARTESIAN_POINT('',(22.531707656532,7.758289120714,45.));
#1736 = DIRECTION('',(-0.945518575599,-0.325568154457,0.));
#1737 = DIRECTION('',(0.325568154457,-0.945518575599,0.));
#1738 = ADVANCED_FACE('',(#1739),#1759,.T.);
#1739 = FACE_BOUND('',#1740,.T.);
#1740 = EDGE_LOOP('',(#1741,#1742,#1743,#1744,#1745,#1746,#1747,#1748,
    #1749,#1750,#1751,#1757,#1758));
#1741 = ORIENTED_EDGE('',*,*,#111,.T.);
#1742 = ORIENTED_EDGE('',*,*,#21,.T.);
#1743 = ORIENTED_EDGE('',*,*,#80,.F.);
#1744 = ORIENTED_EDGE('',*,*,#526,.T.);
#1745 = ORIENTED_EDGE('',*,*,#615,.T.);
#1746 = ORIENTED_EDGE('',*,*,#582,.T.);
#1747 = ORIENTED_EDGE('',*,*,#542,.F.);
#1748 = ORIENTED_EDGE('',*,*,#1198,.T.);
#1749 = ORIENTED_EDGE('',*,*,#1358,.F.);
#1750 = ORIENTED_EDGE('',*,*,#1389,.F.);
#1751 = ORIENTED_EDGE('',*,*,#1752,.T.);
#1752 = EDGE_CURVE('',#1375,#479,#1753,.T.);
#1753 = LINE('',#1754,#1755);
#1754 = CARTESIAN_POINT('',(14.6,22.9,48.4));
#1755 = VECTOR('',#1756,1.);
#1756 = DIRECTION('',(1.,0.,0.));
#1757 = ORIENTED_EDGE('',*,*,#478,.F.);
#1758 = ORIENTED_EDGE('',*,*,#135,.F.);
#1759 = PLANE('',#1760);
#1760 = AXIS2_PLACEMENT_3D('',#1761,#1762,#1763);
#1761 = CARTESIAN_POINT('',(21.939633724109,16.81675539807,48.4));
#1762 = DIRECTION('',(-8.7E-16,-7.7E-16,1.));
#1763 = DIRECTION('',(1.,0.,8.7E-16));
#1764 = ADVANCED_FACE('',(#1765),#1785,.T.);
#1765 = FACE_BOUND('',#1766,.T.);
#1766 = EDGE_LOOP('',(#1767,#1768,#1769,#1770,#1776,#1777,#1778,#1779,
    #1780,#1781,#1782,#1783,#1784));
#1767 = ORIENTED_EDGE('',*,*,#104,.F.);
#1768 = ORIENTED_EDGE('',*,*,#143,.T.);
#1769 = ORIENTED_EDGE('',*,*,#487,.T.);
#1770 = ORIENTED_EDGE('',*,*,#1771,.F.);
#1771 = EDGE_CURVE('',#1404,#488,#1772,.T.);
#1772 = LINE('',#1773,#1774);
#1773 = CARTESIAN_POINT('',(14.6,22.9,16.8));
#1774 = VECTOR('',#1775,1.);
#1775 = DIRECTION('',(1.,0.,0.));
#1776 = ORIENTED_EDGE('',*,*,#1413,.T.);
#1777 = ORIENTED_EDGE('',*,*,#1310,.T.);
#1778 = ORIENTED_EDGE('',*,*,#1182,.F.);
#1779 = ORIENTED_EDGE('',*,*,#560,.T.);
#1780 = ORIENTED_EDGE('',*,*,#599,.F.);
#1781 = ORIENTED_EDGE('',*,*,#622,.F.);
#1782 = ORIENTED_EDGE('',*,*,#509,.F.);
#1783 = ORIENTED_EDGE('',*,*,#73,.T.);
#1784 = ORIENTED_EDGE('',*,*,#40,.F.);
#1785 = PLANE('',#1786);
#1786 = AXIS2_PLACEMENT_3D('',#1787,#1788,#1789);
#1787 = CARTESIAN_POINT('',(21.939633724109,16.81675539807,16.8));
#1788 = DIRECTION('',(-0.,-0.,-1.));
#1789 = DIRECTION('',(-1.,0.,0.));
#1790 = ADVANCED_FACE('',(#1791),#1797,.F.);
#1791 = FACE_BOUND('',#1792,.T.);
#1792 = EDGE_LOOP('',(#1793,#1794,#1795,#1796));
#1793 = ORIENTED_EDGE('',*,*,#413,.T.);
#1794 = ORIENTED_EDGE('',*,*,#1166,.F.);
#1795 = ORIENTED_EDGE('',*,*,#1288,.F.);
#1796 = ORIENTED_EDGE('',*,*,#1019,.T.);
#1797 = PLANE('',#1798);
#1798 = AXIS2_PLACEMENT_3D('',#1799,#1800,#1801);
#1799 = CARTESIAN_POINT('',(15.55,15.7,35.13));
#1800 = DIRECTION('',(0.,1.,0.));
#1801 = DIRECTION('',(0.,0.,1.));
#1802 = ADVANCED_FACE('',(#1803),#1813,.T.);
#1803 = FACE_BOUND('',#1804,.T.);
#1804 = EDGE_LOOP('',(#1805,#1806,#1807,#1808,#1809,#1810,#1811,#1812));
#1805 = ORIENTED_EDGE('',*,*,#1771,.T.);
#1806 = ORIENTED_EDGE('',*,*,#495,.T.);
#1807 = ORIENTED_EDGE('',*,*,#1752,.F.);
#1808 = ORIENTED_EDGE('',*,*,#1372,.F.);
#1809 = ORIENTED_EDGE('',*,*,#1527,.F.);
#1810 = ORIENTED_EDGE('',*,*,#1698,.F.);
#1811 = ORIENTED_EDGE('',*,*,#1567,.T.);
#1812 = ORIENTED_EDGE('',*,*,#1403,.F.);
#1813 = PLANE('',#1814);
#1814 = AXIS2_PLACEMENT_3D('',#1815,#1816,#1817);
#1815 = CARTESIAN_POINT('',(15.113723670044,22.9,32.167103378813));
#1816 = DIRECTION('',(1.33E-15,-1.,0.));
#1817 = DIRECTION('',(-1.,-1.33E-15,0.));
#1818 = ( GEOMETRIC_REPRESENTATION_CONTEXT(3) 
GLOBAL_UNCERTAINTY_ASSIGNED_CONTEXT((#1822)) 
GLOBAL_UNIT_ASSIGNED_CONTEXT((#1819,#1820,#1821)) REPRESENTATION_CONTEXT
('Context #1','3D Context with UNIT and UNCERTAINTY') );
#1819 = ( LENGTH_UNIT() NAMED_UNIT(*) SI_UNIT(.MILLI.,.METRE.) );
#1820 = ( NAMED_UNIT(*) PLANE_ANGLE_UNIT() SI_UNIT($,.RADIAN.) );
#1821 = ( NAMED_UNIT(*) SI_UNIT($,.STERADIAN.) SOLID_ANGLE_UNIT() );
#1822 = UNCERTAINTY_MEASURE_WITH_UNIT(LENGTH_MEASURE(2.E-07),#1819,
  'distance_accuracy_value','confusion accuracy');
#1823 = PRODUCT_RELATED_PRODUCT_CATEGORY('part',$,(#7));
ENDSEC;
END-ISO-10303-21;
