ISO-10303-21;
HEADER;
FILE_DESCRIPTION(('FreeCAD Model'),'2;1');
FILE_NAME('Open CASCADE Shape Model','2026-10-08T05:41:46',('FreeCAD'),(
    'FreeCAD'),'Open CASCADE STEP processor 7.8','FreeCAD','Unknown');
FILE_SCHEMA(('AUTOMOTIVE_DESIGN { 1 0 10303 214 1 1 1 1 }'));
ENDSEC;
DATA;
#1 = APPLICATION_PROTOCOL_DEFINITION('international standard',
  'automotive_design',2000,#2);
#2 = APPLICATION_CONTEXT(
  'core data for automotive mechanical design processes');
#3 = SHAPE_DEFINITION_REPRESENTATION(#4,#10);
#4 = PRODUCT_DEFINITION_SHAPE('','',#5);
#5 = PRODUCT_DEFINITION('design','',#6,#9);
#6 = PRODUCT_DEFINITION_FORMATION('','',#7);
#7 = PRODUCT('Open CASCADE STEP translator 7.8 6',
  'Open CASCADE STEP translator 7.8 6','',(#8));
#8 = PRODUCT_CONTEXT('',#2,'mechanical');
#9 = PRODUCT_DEFINITION_CONTEXT('part definition',#2,'design');
#10 = ADVANCED_BREP_SHAPE_REPRESENTATION('',(#11,#15),#517);
#11 = AXIS2_PLACEMENT_3D('',#12,#13,#14);
#12 = CARTESIAN_POINT('',(0.,0.,0.));
#13 = DIRECTION('',(0.,0.,1.));
#14 = DIRECTION('',(1.,0.,-0.));
#15 = MANIFOLD_SOLID_BREP('',#16);
#16 = CLOSED_SHELL('',(#17,#59,#90,#123,#154,#187,#234,#263,#303,#321,
    #339,#357,#409,#449,#471,#488,#505));
#17 = ADVANCED_FACE('',(#18),#54,.F.);
#18 = FACE_BOUND('',#19,.F.);
#19 = EDGE_LOOP('',(#20,#30,#39,#47));
#20 = ORIENTED_EDGE('',*,*,#21,.T.);
#21 = EDGE_CURVE('',#22,#24,#26,.T.);
#22 = VERTEX_POINT('',#23);
#23 = CARTESIAN_POINT('',(23.312475766766,11.512101181971,17.6));
#24 = VERTEX_POINT('',#25);
#25 = CARTESIAN_POINT('',(23.850455976769,11.777765055401,17.6));
#26 = LINE('',#27,#28);
#27 = CARTESIAN_POINT('',(0.,0.,17.6));
#28 = VECTOR('',#29,1.);
#29 = DIRECTION('',(0.896633683337,0.442773122383,0.));
#30 = ORIENTED_EDGE('',*,*,#31,.T.);
#31 = EDGE_CURVE('',#24,#32,#34,.T.);
#32 = VERTEX_POINT('',#33);
#33 = CARTESIAN_POINT('',(20.494028312054,16.957440949174,17.6));
#34 = CIRCLE('',#35,26.6);
#35 = AXIS2_PLACEMENT_3D('',#36,#37,#38);
#36 = CARTESIAN_POINT('',(0.,0.,17.6));
#37 = DIRECTION('',(0.,-0.,1.));
#38 = DIRECTION('',(0.896633683337,0.442773122383,0.));
#39 = ORIENTED_EDGE('',*,*,#40,.F.);
#40 = EDGE_CURVE('',#41,#32,#43,.T.);
#41 = VERTEX_POINT('',#42);
#42 = CARTESIAN_POINT('',(20.031756996745,16.574942281147,17.6));
#43 = LINE('',#44,#45);
#44 = CARTESIAN_POINT('',(0.,0.,17.6));
#45 = VECTOR('',#46,1.);
#46 = DIRECTION('',(0.770452192182,0.637497780044,0.));
#47 = ORIENTED_EDGE('',*,*,#48,.F.);
#48 = EDGE_CURVE('',#22,#41,#49,.T.);
#49 = CIRCLE('',#50,26.);
#50 = AXIS2_PLACEMENT_3D('',#51,#52,#53);
#51 = CARTESIAN_POINT('',(0.,0.,17.6));
#52 = DIRECTION('',(0.,-0.,1.));
#53 = DIRECTION('',(0.896633683337,0.442773122383,0.));
#54 = PLANE('',#55);
#55 = AXIS2_PLACEMENT_3D('',#56,#57,#58);
#56 = CARTESIAN_POINT('',(0.,0.,17.6));
#57 = DIRECTION('',(0.,0.,1.));
#58 = DIRECTION('',(0.896633683337,0.442773122383,0.));
#59 = ADVANCED_FACE('',(#60),#85,.T.);
#60 = FACE_BOUND('',#61,.T.);
#61 = EDGE_LOOP('',(#62,#70,#71,#79));
#62 = ORIENTED_EDGE('',*,*,#63,.F.);
#63 = EDGE_CURVE('',#22,#64,#66,.T.);
#64 = VERTEX_POINT('',#65);
#65 = CARTESIAN_POINT('',(23.312475766766,11.512101181971,32.4));
#66 = LINE('',#67,#68);
#67 = CARTESIAN_POINT('',(23.312475766766,11.512101181971,16.6));
#68 = VECTOR('',#69,1.);
#69 = DIRECTION('',(0.,0.,1.));
#70 = ORIENTED_EDGE('',*,*,#21,.T.);
#71 = ORIENTED_EDGE('',*,*,#72,.T.);
#72 = EDGE_CURVE('',#24,#73,#75,.T.);
#73 = VERTEX_POINT('',#74);
#74 = CARTESIAN_POINT('',(23.850455976769,11.777765055401,32.4));
#75 = LINE('',#76,#77);
#76 = CARTESIAN_POINT('',(23.850455976769,11.777765055401,17.6));
#77 = VECTOR('',#78,1.);
#78 = DIRECTION('',(0.,0.,1.));
#79 = ORIENTED_EDGE('',*,*,#80,.F.);
#80 = EDGE_CURVE('',#64,#73,#81,.T.);
#81 = LINE('',#82,#83);
#82 = CARTESIAN_POINT('',(0.,0.,32.4));
#83 = VECTOR('',#84,1.);
#84 = DIRECTION('',(0.896633683337,0.442773122383,0.));
#85 = PLANE('',#86);
#86 = AXIS2_PLACEMENT_3D('',#87,#88,#89);
#87 = CARTESIAN_POINT('',(0.,0.,17.6));
#88 = DIRECTION('',(0.442773122383,-0.896633683337,0.));
#89 = DIRECTION('',(0.896633683337,0.442773122383,0.));
#90 = ADVANCED_FACE('',(#91),#118,.T.);
#91 = FACE_BOUND('',#92,.T.);
#92 = EDGE_LOOP('',(#93,#102,#110,#117));
#93 = ORIENTED_EDGE('',*,*,#94,.T.);
#94 = EDGE_CURVE('',#73,#95,#97,.T.);
#95 = VERTEX_POINT('',#96);
#96 = CARTESIAN_POINT('',(14.35578175315,22.393560017468,32.4));
#97 = CIRCLE('',#98,26.6);
#98 = AXIS2_PLACEMENT_3D('',#99,#100,#101);
#99 = CARTESIAN_POINT('',(0.,0.,32.4));
#100 = DIRECTION('',(0.,-0.,1.));
#101 = DIRECTION('',(0.896633683337,0.442773122383,0.));
#102 = ORIENTED_EDGE('',*,*,#103,.F.);
#103 = EDGE_CURVE('',#104,#95,#106,.T.);
#104 = VERTEX_POINT('',#105);
#105 = CARTESIAN_POINT('',(14.031967127139,21.888442122337,32.4));
#106 = LINE('',#107,#108);
#107 = CARTESIAN_POINT('',(0.,0.,32.4));
#108 = VECTOR('',#109,1.);
#109 = DIRECTION('',(0.539691043352,0.841863158551,0.));
#110 = ORIENTED_EDGE('',*,*,#111,.F.);
#111 = EDGE_CURVE('',#64,#104,#112,.T.);
#112 = CIRCLE('',#113,26.);
#113 = AXIS2_PLACEMENT_3D('',#114,#115,#116);
#114 = CARTESIAN_POINT('',(0.,0.,32.4));
#115 = DIRECTION('',(0.,-0.,1.));
#116 = DIRECTION('',(0.896633683337,0.442773122383,0.));
#117 = ORIENTED_EDGE('',*,*,#80,.T.);
#118 = PLANE('',#119);
#119 = AXIS2_PLACEMENT_3D('',#120,#121,#122);
#120 = CARTESIAN_POINT('',(0.,0.,32.4));
#121 = DIRECTION('',(0.,0.,1.));
#122 = DIRECTION('',(0.896633683337,0.442773122383,0.));
#123 = ADVANCED_FACE('',(#124),#149,.F.);
#124 = FACE_BOUND('',#125,.F.);
#125 = EDGE_LOOP('',(#126,#127,#135,#143));
#126 = ORIENTED_EDGE('',*,*,#103,.F.);
#127 = ORIENTED_EDGE('',*,*,#128,.F.);
#128 = EDGE_CURVE('',#129,#104,#131,.T.);
#129 = VERTEX_POINT('',#130);
#130 = CARTESIAN_POINT('',(14.031967127139,21.888442122337,17.6));
#131 = LINE('',#132,#133);
#132 = CARTESIAN_POINT('',(14.031967127139,21.888442122337,16.6));
#133 = VECTOR('',#134,1.);
#134 = DIRECTION('',(0.,0.,1.));
#135 = ORIENTED_EDGE('',*,*,#136,.T.);
#136 = EDGE_CURVE('',#129,#137,#139,.T.);
#137 = VERTEX_POINT('',#138);
#138 = CARTESIAN_POINT('',(14.35578175315,22.393560017468,17.6));
#139 = LINE('',#140,#141);
#140 = CARTESIAN_POINT('',(0.,0.,17.6));
#141 = VECTOR('',#142,1.);
#142 = DIRECTION('',(0.539691043352,0.841863158551,0.));
#143 = ORIENTED_EDGE('',*,*,#144,.T.);
#144 = EDGE_CURVE('',#137,#95,#145,.T.);
#145 = LINE('',#146,#147);
#146 = CARTESIAN_POINT('',(14.35578175315,22.393560017468,17.6));
#147 = VECTOR('',#148,1.);
#148 = DIRECTION('',(0.,0.,1.));
#149 = PLANE('',#150);
#150 = AXIS2_PLACEMENT_3D('',#151,#152,#153);
#151 = CARTESIAN_POINT('',(0.,0.,17.6));
#152 = DIRECTION('',(0.841863158551,-0.539691043352,0.));
#153 = DIRECTION('',(0.539691043352,0.841863158551,0.));
#154 = ADVANCED_FACE('',(#155),#182,.F.);
#155 = FACE_BOUND('',#156,.F.);
#156 = EDGE_LOOP('',(#157,#167,#174,#175));
#157 = ORIENTED_EDGE('',*,*,#158,.T.);
#158 = EDGE_CURVE('',#159,#161,#163,.T.);
#159 = VERTEX_POINT('',#160);
#160 = CARTESIAN_POINT('',(17.990304915065,18.770959726742,17.6));
#161 = VERTEX_POINT('',#162);
#162 = CARTESIAN_POINT('',(18.405465797721,19.204135720436,17.6));
#163 = LINE('',#164,#165);
#164 = CARTESIAN_POINT('',(0.,0.,17.6));
#165 = VECTOR('',#166,1.);
#166 = DIRECTION('',(0.691934804426,0.72195998949,0.));
#167 = ORIENTED_EDGE('',*,*,#168,.T.);
#168 = EDGE_CURVE('',#161,#137,#169,.T.);
#169 = CIRCLE('',#170,26.6);
#170 = AXIS2_PLACEMENT_3D('',#171,#172,#173);
#171 = CARTESIAN_POINT('',(0.,0.,17.6));
#172 = DIRECTION('',(0.,-0.,1.));
#173 = DIRECTION('',(0.896633683337,0.442773122383,0.));
#174 = ORIENTED_EDGE('',*,*,#136,.F.);
#175 = ORIENTED_EDGE('',*,*,#176,.F.);
#176 = EDGE_CURVE('',#159,#129,#177,.T.);
#177 = CIRCLE('',#178,26.);
#178 = AXIS2_PLACEMENT_3D('',#179,#180,#181);
#179 = CARTESIAN_POINT('',(0.,0.,17.6));
#180 = DIRECTION('',(0.,-0.,1.));
#181 = DIRECTION('',(0.896633683337,0.442773122383,0.));
#182 = PLANE('',#183);
#183 = AXIS2_PLACEMENT_3D('',#184,#185,#186);
#184 = CARTESIAN_POINT('',(0.,0.,17.6));
#185 = DIRECTION('',(0.,0.,1.));
#186 = DIRECTION('',(0.896633683337,0.442773122383,0.));
#187 = ADVANCED_FACE('',(#188),#229,.F.);
#188 = FACE_BOUND('',#189,.F.);
#189 = EDGE_LOOP('',(#190,#200,#206,#207,#215,#223));
#190 = ORIENTED_EDGE('',*,*,#191,.F.);
#191 = EDGE_CURVE('',#192,#194,#196,.T.);
#192 = VERTEX_POINT('',#193);
#193 = CARTESIAN_POINT('',(18.405465797721,19.204135720436,17.61));
#194 = VERTEX_POINT('',#195);
#195 = CARTESIAN_POINT('',(18.543852758606,19.348527718334,17.61));
#196 = LINE('',#197,#198);
#197 = CARTESIAN_POINT('',(0.,0.,17.61));
#198 = VECTOR('',#199,1.);
#199 = DIRECTION('',(0.691934804426,0.72195998949,0.));
#200 = ORIENTED_EDGE('',*,*,#201,.F.);
#201 = EDGE_CURVE('',#161,#192,#202,.T.);
#202 = LINE('',#203,#204);
#203 = CARTESIAN_POINT('',(18.405465797721,19.204135720436,17.6));
#204 = VECTOR('',#205,1.);
#205 = DIRECTION('',(0.,0.,1.));
#206 = ORIENTED_EDGE('',*,*,#158,.F.);
#207 = ORIENTED_EDGE('',*,*,#208,.F.);
#208 = EDGE_CURVE('',#209,#159,#211,.T.);
#209 = VERTEX_POINT('',#210);
#210 = CARTESIAN_POINT('',(17.990304915065,18.770959726742,13.6));
#211 = LINE('',#212,#213);
#212 = CARTESIAN_POINT('',(17.990304915065,18.770959726742,12.6));
#213 = VECTOR('',#214,1.);
#214 = DIRECTION('',(0.,0.,1.));
#215 = ORIENTED_EDGE('',*,*,#216,.T.);
#216 = EDGE_CURVE('',#209,#217,#219,.T.);
#217 = VERTEX_POINT('',#218);
#218 = CARTESIAN_POINT('',(18.543852758606,19.348527718334,13.6));
#219 = LINE('',#220,#221);
#220 = CARTESIAN_POINT('',(0.,0.,13.6));
#221 = VECTOR('',#222,1.);
#222 = DIRECTION('',(0.691934804426,0.72195998949,0.));
#223 = ORIENTED_EDGE('',*,*,#224,.T.);
#224 = EDGE_CURVE('',#217,#194,#225,.T.);
#225 = LINE('',#226,#227);
#226 = CARTESIAN_POINT('',(18.543852758606,19.348527718334,13.6));
#227 = VECTOR('',#228,1.);
#228 = DIRECTION('',(0.,0.,1.));
#229 = PLANE('',#230);
#230 = AXIS2_PLACEMENT_3D('',#231,#232,#233);
#231 = CARTESIAN_POINT('',(0.,0.,13.6));
#232 = DIRECTION('',(0.72195998949,-0.691934804426,0.));
#233 = DIRECTION('',(0.691934804426,0.72195998949,0.));
#234 = ADVANCED_FACE('',(#235),#258,.T.);
#235 = FACE_BOUND('',#236,.T.);
#236 = EDGE_LOOP('',(#237,#238,#239,#240,#241,#249,#256,#257));
#237 = ORIENTED_EDGE('',*,*,#144,.T.);
#238 = ORIENTED_EDGE('',*,*,#94,.F.);
#239 = ORIENTED_EDGE('',*,*,#72,.F.);
#240 = ORIENTED_EDGE('',*,*,#31,.T.);
#241 = ORIENTED_EDGE('',*,*,#242,.T.);
#242 = EDGE_CURVE('',#32,#243,#245,.T.);
#243 = VERTEX_POINT('',#244);
#244 = CARTESIAN_POINT('',(20.494028312054,16.957440949174,17.61));
#245 = LINE('',#246,#247);
#246 = CARTESIAN_POINT('',(20.494028312054,16.957440949174,17.6));
#247 = VECTOR('',#248,1.);
#248 = DIRECTION('',(0.,0.,1.));
#249 = ORIENTED_EDGE('',*,*,#250,.T.);
#250 = EDGE_CURVE('',#243,#192,#251,.T.);
#251 = CIRCLE('',#252,26.6);
#252 = AXIS2_PLACEMENT_3D('',#253,#254,#255);
#253 = CARTESIAN_POINT('',(0.,0.,17.61));
#254 = DIRECTION('',(0.,-0.,1.));
#255 = DIRECTION('',(0.896633683337,0.442773122383,0.));
#256 = ORIENTED_EDGE('',*,*,#201,.F.);
#257 = ORIENTED_EDGE('',*,*,#168,.T.);
#258 = CYLINDRICAL_SURFACE('',#259,26.6);
#259 = AXIS2_PLACEMENT_3D('',#260,#261,#262);
#260 = CARTESIAN_POINT('',(0.,0.,17.6));
#261 = DIRECTION('',(0.,0.,1.));
#262 = DIRECTION('',(0.896633683337,0.442773122383,0.));
#263 = ADVANCED_FACE('',(#264),#298,.T.);
#264 = FACE_BOUND('',#265,.T.);
#265 = EDGE_LOOP('',(#266,#274,#282,#290,#296,#297));
#266 = ORIENTED_EDGE('',*,*,#267,.F.);
#267 = EDGE_CURVE('',#268,#41,#270,.T.);
#268 = VERTEX_POINT('',#269);
#269 = CARTESIAN_POINT('',(20.031756996745,16.574942281147,13.6));
#270 = LINE('',#271,#272);
#271 = CARTESIAN_POINT('',(20.031756996745,16.574942281147,12.6));
#272 = VECTOR('',#273,1.);
#273 = DIRECTION('',(0.,0.,1.));
#274 = ORIENTED_EDGE('',*,*,#275,.T.);
#275 = EDGE_CURVE('',#268,#276,#278,.T.);
#276 = VERTEX_POINT('',#277);
#277 = CARTESIAN_POINT('',(20.648118750491,17.084940505183,13.6));
#278 = LINE('',#279,#280);
#279 = CARTESIAN_POINT('',(0.,0.,13.6));
#280 = VECTOR('',#281,1.);
#281 = DIRECTION('',(0.770452192182,0.637497780044,0.));
#282 = ORIENTED_EDGE('',*,*,#283,.T.);
#283 = EDGE_CURVE('',#276,#284,#286,.T.);
#284 = VERTEX_POINT('',#285);
#285 = CARTESIAN_POINT('',(20.648118750491,17.084940505183,17.61));
#286 = LINE('',#287,#288);
#287 = CARTESIAN_POINT('',(20.648118750491,17.084940505183,13.6));
#288 = VECTOR('',#289,1.);
#289 = DIRECTION('',(0.,0.,1.));
#290 = ORIENTED_EDGE('',*,*,#291,.F.);
#291 = EDGE_CURVE('',#243,#284,#292,.T.);
#292 = LINE('',#293,#294);
#293 = CARTESIAN_POINT('',(0.,0.,17.61));
#294 = VECTOR('',#295,1.);
#295 = DIRECTION('',(0.770452192182,0.637497780044,0.));
#296 = ORIENTED_EDGE('',*,*,#242,.F.);
#297 = ORIENTED_EDGE('',*,*,#40,.F.);
#298 = PLANE('',#299);
#299 = AXIS2_PLACEMENT_3D('',#300,#301,#302);
#300 = CARTESIAN_POINT('',(0.,0.,13.6));
#301 = DIRECTION('',(0.637497780044,-0.770452192182,0.));
#302 = DIRECTION('',(0.770452192182,0.637497780044,0.));
#303 = ADVANCED_FACE('',(#304),#316,.T.);
#304 = FACE_BOUND('',#305,.T.);
#305 = EDGE_LOOP('',(#306,#313,#314,#315));
#306 = ORIENTED_EDGE('',*,*,#307,.T.);
#307 = EDGE_CURVE('',#284,#194,#308,.T.);
#308 = CIRCLE('',#309,26.8);
#309 = AXIS2_PLACEMENT_3D('',#310,#311,#312);
#310 = CARTESIAN_POINT('',(0.,0.,17.61));
#311 = DIRECTION('',(0.,-0.,1.));
#312 = DIRECTION('',(0.770452192182,0.637497780044,0.));
#313 = ORIENTED_EDGE('',*,*,#191,.F.);
#314 = ORIENTED_EDGE('',*,*,#250,.F.);
#315 = ORIENTED_EDGE('',*,*,#291,.T.);
#316 = PLANE('',#317);
#317 = AXIS2_PLACEMENT_3D('',#318,#319,#320);
#318 = CARTESIAN_POINT('',(0.,0.,17.61));
#319 = DIRECTION('',(0.,0.,1.));
#320 = DIRECTION('',(0.770452192182,0.637497780044,0.));
#321 = ADVANCED_FACE('',(#322),#334,.T.);
#322 = FACE_BOUND('',#323,.T.);
#323 = EDGE_LOOP('',(#324,#325,#326,#333));
#324 = ORIENTED_EDGE('',*,*,#307,.F.);
#325 = ORIENTED_EDGE('',*,*,#283,.F.);
#326 = ORIENTED_EDGE('',*,*,#327,.T.);
#327 = EDGE_CURVE('',#276,#217,#328,.T.);
#328 = CIRCLE('',#329,26.8);
#329 = AXIS2_PLACEMENT_3D('',#330,#331,#332);
#330 = CARTESIAN_POINT('',(0.,0.,13.6));
#331 = DIRECTION('',(0.,-0.,1.));
#332 = DIRECTION('',(0.770452192182,0.637497780044,0.));
#333 = ORIENTED_EDGE('',*,*,#224,.T.);
#334 = CYLINDRICAL_SURFACE('',#335,26.8);
#335 = AXIS2_PLACEMENT_3D('',#336,#337,#338);
#336 = CARTESIAN_POINT('',(0.,0.,13.6));
#337 = DIRECTION('',(0.,0.,1.));
#338 = DIRECTION('',(0.770452192182,0.637497780044,0.));
#339 = ADVANCED_FACE('',(#340),#352,.F.);
#340 = FACE_BOUND('',#341,.F.);
#341 = EDGE_LOOP('',(#342,#343,#344,#351));
#342 = ORIENTED_EDGE('',*,*,#327,.T.);
#343 = ORIENTED_EDGE('',*,*,#216,.F.);
#344 = ORIENTED_EDGE('',*,*,#345,.F.);
#345 = EDGE_CURVE('',#268,#209,#346,.T.);
#346 = CIRCLE('',#347,26.);
#347 = AXIS2_PLACEMENT_3D('',#348,#349,#350);
#348 = CARTESIAN_POINT('',(0.,0.,13.6));
#349 = DIRECTION('',(0.,-0.,1.));
#350 = DIRECTION('',(0.770452192182,0.637497780044,0.));
#351 = ORIENTED_EDGE('',*,*,#275,.T.);
#352 = PLANE('',#353);
#353 = AXIS2_PLACEMENT_3D('',#354,#355,#356);
#354 = CARTESIAN_POINT('',(0.,0.,13.6));
#355 = DIRECTION('',(0.,0.,1.));
#356 = DIRECTION('',(0.770452192182,0.637497780044,0.));
#357 = ADVANCED_FACE('',(#358,#368),#404,.F.);
#358 = FACE_BOUND('',#359,.F.);
#359 = EDGE_LOOP('',(#360,#361,#362,#363,#364,#365,#366,#367));
#360 = ORIENTED_EDGE('',*,*,#176,.T.);
#361 = ORIENTED_EDGE('',*,*,#128,.T.);
#362 = ORIENTED_EDGE('',*,*,#111,.F.);
#363 = ORIENTED_EDGE('',*,*,#63,.F.);
#364 = ORIENTED_EDGE('',*,*,#48,.T.);
#365 = ORIENTED_EDGE('',*,*,#267,.F.);
#366 = ORIENTED_EDGE('',*,*,#345,.T.);
#367 = ORIENTED_EDGE('',*,*,#208,.T.);
#368 = FACE_BOUND('',#369,.F.);
#369 = EDGE_LOOP('',(#370,#381,#389,#398));
#370 = ORIENTED_EDGE('',*,*,#371,.T.);
#371 = EDGE_CURVE('',#372,#374,#376,.T.);
#372 = VERTEX_POINT('',#373);
#373 = CARTESIAN_POINT('',(22.220486043289,13.5,31.4));
#374 = VERTEX_POINT('',#375);
#375 = CARTESIAN_POINT('',(15.992185591719,20.5,31.4));
#376 = CIRCLE('',#377,26.);
#377 = AXIS2_PLACEMENT_3D('',#378,#379,#380);
#378 = CARTESIAN_POINT('',(0.,0.,31.4));
#379 = DIRECTION('',(0.,0.,1.));
#380 = DIRECTION('',(1.,0.,0.));
#381 = ORIENTED_EDGE('',*,*,#382,.F.);
#382 = EDGE_CURVE('',#383,#374,#385,.T.);
#383 = VERTEX_POINT('',#384);
#384 = CARTESIAN_POINT('',(15.992185591719,20.5,18.6));
#385 = LINE('',#386,#387);
#386 = CARTESIAN_POINT('',(15.992185591719,20.5,0.));
#387 = VECTOR('',#388,1.);
#388 = DIRECTION('',(0.,0.,1.));
#389 = ORIENTED_EDGE('',*,*,#390,.F.);
#390 = EDGE_CURVE('',#391,#383,#393,.T.);
#391 = VERTEX_POINT('',#392);
#392 = CARTESIAN_POINT('',(22.220486043289,13.5,18.6));
#393 = CIRCLE('',#394,26.);
#394 = AXIS2_PLACEMENT_3D('',#395,#396,#397);
#395 = CARTESIAN_POINT('',(0.,0.,18.6));
#396 = DIRECTION('',(0.,0.,1.));
#397 = DIRECTION('',(1.,0.,0.));
#398 = ORIENTED_EDGE('',*,*,#399,.T.);
#399 = EDGE_CURVE('',#391,#372,#400,.T.);
#400 = LINE('',#401,#402);
#401 = CARTESIAN_POINT('',(22.220486043289,13.5,0.));
#402 = VECTOR('',#403,1.);
#403 = DIRECTION('',(0.,0.,1.));
#404 = CYLINDRICAL_SURFACE('',#405,26.);
#405 = AXIS2_PLACEMENT_3D('',#406,#407,#408);
#406 = CARTESIAN_POINT('',(0.,0.,16.6));
#407 = DIRECTION('',(0.,0.,1.));
#408 = DIRECTION('',(0.896633683337,0.442773122383,0.));
#409 = ADVANCED_FACE('',(#410),#444,.F.);
#410 = FACE_BOUND('',#411,.F.);
#411 = EDGE_LOOP('',(#412,#422,#430,#438));
#412 = ORIENTED_EDGE('',*,*,#413,.F.);
#413 = EDGE_CURVE('',#414,#416,#418,.T.);
#414 = VERTEX_POINT('',#415);
#415 = CARTESIAN_POINT('',(15.3,13.5,18.6));
#416 = VERTEX_POINT('',#417);
#417 = CARTESIAN_POINT('',(15.3,13.5,31.4));
#418 = LINE('',#419,#420);
#419 = CARTESIAN_POINT('',(15.3,13.5,18.6));
#420 = VECTOR('',#421,1.);
#421 = DIRECTION('',(0.,0.,1.));
#422 = ORIENTED_EDGE('',*,*,#423,.T.);
#423 = EDGE_CURVE('',#414,#424,#426,.T.);
#424 = VERTEX_POINT('',#425);
#425 = CARTESIAN_POINT('',(15.3,20.5,18.6));
#426 = LINE('',#427,#428);
#427 = CARTESIAN_POINT('',(15.3,13.5,18.6));
#428 = VECTOR('',#429,1.);
#429 = DIRECTION('',(0.,1.,0.));
#430 = ORIENTED_EDGE('',*,*,#431,.T.);
#431 = EDGE_CURVE('',#424,#432,#434,.T.);
#432 = VERTEX_POINT('',#433);
#433 = CARTESIAN_POINT('',(15.3,20.5,31.4));
#434 = LINE('',#435,#436);
#435 = CARTESIAN_POINT('',(15.3,20.5,18.6));
#436 = VECTOR('',#437,1.);
#437 = DIRECTION('',(0.,0.,1.));
#438 = ORIENTED_EDGE('',*,*,#439,.F.);
#439 = EDGE_CURVE('',#416,#432,#440,.T.);
#440 = LINE('',#441,#442);
#441 = CARTESIAN_POINT('',(15.3,13.5,31.4));
#442 = VECTOR('',#443,1.);
#443 = DIRECTION('',(0.,1.,0.));
#444 = PLANE('',#445);
#445 = AXIS2_PLACEMENT_3D('',#446,#447,#448);
#446 = CARTESIAN_POINT('',(15.3,13.5,18.6));
#447 = DIRECTION('',(1.,0.,0.));
#448 = DIRECTION('',(0.,0.,1.));
#449 = ADVANCED_FACE('',(#450),#466,.F.);
#450 = FACE_BOUND('',#451,.F.);
#451 = EDGE_LOOP('',(#452,#458,#459,#465));
#452 = ORIENTED_EDGE('',*,*,#453,.F.);
#453 = EDGE_CURVE('',#414,#391,#454,.T.);
#454 = LINE('',#455,#456);
#455 = CARTESIAN_POINT('',(15.3,13.5,18.6));
#456 = VECTOR('',#457,1.);
#457 = DIRECTION('',(1.,0.,0.));
#458 = ORIENTED_EDGE('',*,*,#413,.T.);
#459 = ORIENTED_EDGE('',*,*,#460,.T.);
#460 = EDGE_CURVE('',#416,#372,#461,.T.);
#461 = LINE('',#462,#463);
#462 = CARTESIAN_POINT('',(15.3,13.5,31.4));
#463 = VECTOR('',#464,1.);
#464 = DIRECTION('',(1.,0.,0.));
#465 = ORIENTED_EDGE('',*,*,#399,.F.);
#466 = PLANE('',#467);
#467 = AXIS2_PLACEMENT_3D('',#468,#469,#470);
#468 = CARTESIAN_POINT('',(15.3,13.5,18.6));
#469 = DIRECTION('',(0.,1.,0.));
#470 = DIRECTION('',(0.,0.,1.));
#471 = ADVANCED_FACE('',(#472),#483,.T.);
#472 = FACE_BOUND('',#473,.T.);
#473 = EDGE_LOOP('',(#474,#480,#481,#482));
#474 = ORIENTED_EDGE('',*,*,#475,.F.);
#475 = EDGE_CURVE('',#432,#374,#476,.T.);
#476 = LINE('',#477,#478);
#477 = CARTESIAN_POINT('',(15.3,20.5,31.4));
#478 = VECTOR('',#479,1.);
#479 = DIRECTION('',(1.,0.,0.));
#480 = ORIENTED_EDGE('',*,*,#439,.F.);
#481 = ORIENTED_EDGE('',*,*,#460,.T.);
#482 = ORIENTED_EDGE('',*,*,#371,.T.);
#483 = PLANE('',#484);
#484 = AXIS2_PLACEMENT_3D('',#485,#486,#487);
#485 = CARTESIAN_POINT('',(15.3,13.5,31.4));
#486 = DIRECTION('',(0.,0.,1.));
#487 = DIRECTION('',(1.,0.,0.));
#488 = ADVANCED_FACE('',(#489),#500,.T.);
#489 = FACE_BOUND('',#490,.T.);
#490 = EDGE_LOOP('',(#491,#497,#498,#499));
#491 = ORIENTED_EDGE('',*,*,#492,.F.);
#492 = EDGE_CURVE('',#424,#383,#493,.T.);
#493 = LINE('',#494,#495);
#494 = CARTESIAN_POINT('',(15.3,20.5,18.6));
#495 = VECTOR('',#496,1.);
#496 = DIRECTION('',(1.,0.,0.));
#497 = ORIENTED_EDGE('',*,*,#431,.T.);
#498 = ORIENTED_EDGE('',*,*,#475,.T.);
#499 = ORIENTED_EDGE('',*,*,#382,.F.);
#500 = PLANE('',#501);
#501 = AXIS2_PLACEMENT_3D('',#502,#503,#504);
#502 = CARTESIAN_POINT('',(15.3,20.5,18.6));
#503 = DIRECTION('',(0.,1.,0.));
#504 = DIRECTION('',(0.,0.,1.));
#505 = ADVANCED_FACE('',(#506),#512,.F.);
#506 = FACE_BOUND('',#507,.F.);
#507 = EDGE_LOOP('',(#508,#509,#510,#511));
#508 = ORIENTED_EDGE('',*,*,#492,.F.);
#509 = ORIENTED_EDGE('',*,*,#423,.F.);
#510 = ORIENTED_EDGE('',*,*,#453,.T.);
#511 = ORIENTED_EDGE('',*,*,#390,.T.);
#512 = PLANE('',#513);
#513 = AXIS2_PLACEMENT_3D('',#514,#515,#516);
#514 = CARTESIAN_POINT('',(15.3,13.5,18.6));
#515 = DIRECTION('',(0.,0.,1.));
#516 = DIRECTION('',(1.,0.,0.));
#517 = ( GEOMETRIC_REPRESENTATION_CONTEXT(3) 
GLOBAL_UNCERTAINTY_ASSIGNED_CONTEXT((#521)) GLOBAL_UNIT_ASSIGNED_CONTEXT
((#518,#519,#520)) REPRESENTATION_CONTEXT('Context #1',
  '3D Context with UNIT and UNCERTAINTY') );
#518 = ( LENGTH_UNIT() NAMED_UNIT(*) SI_UNIT(.MILLI.,.METRE.) );
#519 = ( NAMED_UNIT(*) PLANE_ANGLE_UNIT() SI_UNIT($,.RADIAN.) );
#520 = ( NAMED_UNIT(*) SI_UNIT($,.STERADIAN.) SOLID_ANGLE_UNIT() );
#521 = UNCERTAINTY_MEASURE_WITH_UNIT(LENGTH_MEASURE(1.E-07),#518,
  'distance_accuracy_value','confusion accuracy');
#522 = PRODUCT_RELATED_PRODUCT_CATEGORY('part',$,(#7));
ENDSEC;
END-ISO-10303-21;
