ISO-10303-21;
HEADER;
FILE_DESCRIPTION(('FreeCAD Model'),'2;1');
FILE_NAME('Open CASCADE Shape Model','2026-10-08T05:41:46',('FreeCAD'),(
    'FreeCAD'),'Open CASCADE STEP processor 7.8','FreeCAD','Unknown');
FILE_SCHEMA(('AUTOMOTIVE_DESIGN { 1 0 10303 214 1 1 1 1 }'));
ENDSEC;
DATA;
#1 = APPLICATION_PROTOCOL_DEFINITION('international standard',
  'automotive_design',2000,#2);
#2 = APPLICATION_CONTEXT(
  'core data for automotive mechanical design processes');
#3 = SHAPE_DEFINITION_REPRESENTATION(#4,#10);
#4 = PRODUCT_DEFINITION_SHAPE('','',#5);
#5 = PRODUCT_DEFINITION('design','',#6,#9);
#6 = PRODUCT_DEFINITION_FORMATION('','',#7);
#7 = PRODUCT('Open CASCADE STEP translator 7.8 7',
  'Open CASCADE STEP translator 7.8 7','',(#8));
#8 = PRODUCT_CONTEXT('',#2,'mechanical');
#9 = PRODUCT_DEFINITION_CONTEXT('part definition',#2,'design');
#10 = ADVANCED_BREP_SHAPE_REPRESENTATION('',(#11,#15),#517);
#11 = AXIS2_PLACEMENT_3D('',#12,#13,#14);
#12 = CARTESIAN_POINT('',(0.,0.,0.));
#13 = DIRECTION('',(0.,0.,1.));
#14 = DIRECTION('',(1.,0.,-0.));
#15 = MANIFOLD_SOLID_BREP('',#16);
#16 = CLOSED_SHELL('',(#17,#59,#90,#123,#154,#187,#223,#263,#303,#321,
    #345,#357,#409,#449,#471,#488,#505));
#17 = ADVANCED_FACE('',(#18),#54,.T.);
#18 = FACE_BOUND('',#19,.T.);
#19 = EDGE_LOOP('',(#20,#30,#39,#47));
#20 = ORIENTED_EDGE('',*,*,#21,.T.);
#21 = EDGE_CURVE('',#22,#24,#26,.T.);
#22 = VERTEX_POINT('',#23);
#23 = CARTESIAN_POINT('',(18.034669446513,18.728339433997,46.95));
#24 = VERTEX_POINT('',#25);
#25 = CARTESIAN_POINT('',(18.450854126048,19.160531882474,46.95));
#26 = LINE('',#27,#28);
#27 = CARTESIAN_POINT('',(0.,0.,46.95));
#28 = VECTOR('',#29,1.);
#29 = DIRECTION('',(0.693641132558,0.720320747461,0.));
#30 = ORIENTED_EDGE('',*,*,#31,.T.);
#31 = EDGE_CURVE('',#24,#32,#34,.T.);
#32 = VERTEX_POINT('',#33);
#33 = CARTESIAN_POINT('',(17.418537218164,20.103595727616,46.95));
#34 = CIRCLE('',#35,26.6);
#35 = AXIS2_PLACEMENT_3D('',#36,#37,#38);
#36 = CARTESIAN_POINT('',(0.,0.,46.95));
#37 = DIRECTION('',(0.,-0.,1.));
#38 = DIRECTION('',(0.826549169368,0.562864522435,0.));
#39 = ORIENTED_EDGE('',*,*,#40,.F.);
#40 = EDGE_CURVE('',#41,#32,#43,.T.);
#41 = VERTEX_POINT('',#42);
#42 = CARTESIAN_POINT('',(17.025637882416,19.650131162332,46.95));
#43 = LINE('',#44,#45);
#44 = CARTESIAN_POINT('',(0.,0.,46.95));
#45 = VECTOR('',#46,1.);
#46 = DIRECTION('',(0.654832226247,0.755774275474,0.));
#47 = ORIENTED_EDGE('',*,*,#48,.F.);
#48 = EDGE_CURVE('',#22,#41,#49,.T.);
#49 = CIRCLE('',#50,26.);
#50 = AXIS2_PLACEMENT_3D('',#51,#52,#53);
#51 = CARTESIAN_POINT('',(0.,0.,46.95));
#52 = DIRECTION('',(0.,-0.,1.));
#53 = DIRECTION('',(0.826549169368,0.562864522435,0.));
#54 = PLANE('',#55);
#55 = AXIS2_PLACEMENT_3D('',#56,#57,#58);
#56 = CARTESIAN_POINT('',(0.,0.,46.95));
#57 = DIRECTION('',(0.,0.,1.));
#58 = DIRECTION('',(0.826549169368,0.562864522435,0.));
#59 = ADVANCED_FACE('',(#60),#85,.F.);
#60 = FACE_BOUND('',#61,.F.);
#61 = EDGE_LOOP('',(#62,#63,#71,#79));
#62 = ORIENTED_EDGE('',*,*,#40,.F.);
#63 = ORIENTED_EDGE('',*,*,#64,.F.);
#64 = EDGE_CURVE('',#65,#41,#67,.T.);
#65 = VERTEX_POINT('',#66);
#66 = CARTESIAN_POINT('',(17.025637882416,19.650131162332,33.05));
#67 = LINE('',#68,#69);
#68 = CARTESIAN_POINT('',(17.025637882416,19.650131162332,32.05));
#69 = VECTOR('',#70,1.);
#70 = DIRECTION('',(0.,0.,1.));
#71 = ORIENTED_EDGE('',*,*,#72,.T.);
#72 = EDGE_CURVE('',#65,#73,#75,.T.);
#73 = VERTEX_POINT('',#74);
#74 = CARTESIAN_POINT('',(17.418537218164,20.103595727616,33.05));
#75 = LINE('',#76,#77);
#76 = CARTESIAN_POINT('',(0.,0.,33.05));
#77 = VECTOR('',#78,1.);
#78 = DIRECTION('',(0.654832226247,0.755774275474,0.));
#79 = ORIENTED_EDGE('',*,*,#80,.T.);
#80 = EDGE_CURVE('',#73,#32,#81,.T.);
#81 = LINE('',#82,#83);
#82 = CARTESIAN_POINT('',(17.418537218164,20.103595727616,33.05));
#83 = VECTOR('',#84,1.);
#84 = DIRECTION('',(0.,0.,1.));
#85 = PLANE('',#86);
#86 = AXIS2_PLACEMENT_3D('',#87,#88,#89);
#87 = CARTESIAN_POINT('',(0.,0.,33.05));
#88 = DIRECTION('',(0.755774275474,-0.654832226247,0.));
#89 = DIRECTION('',(0.654832226247,0.755774275474,0.));
#90 = ADVANCED_FACE('',(#91),#118,.F.);
#91 = FACE_BOUND('',#92,.F.);
#92 = EDGE_LOOP('',(#93,#102,#103,#112));
#93 = ORIENTED_EDGE('',*,*,#94,.T.);
#94 = EDGE_CURVE('',#95,#73,#97,.T.);
#95 = VERTEX_POINT('',#96);
#96 = CARTESIAN_POINT('',(21.986207905201,14.972196296779,33.05));
#97 = CIRCLE('',#98,26.6);
#98 = AXIS2_PLACEMENT_3D('',#99,#100,#101);
#99 = CARTESIAN_POINT('',(0.,0.,33.05));
#100 = DIRECTION('',(0.,-0.,1.));
#101 = DIRECTION('',(0.826549169368,0.562864522435,0.));
#102 = ORIENTED_EDGE('',*,*,#72,.F.);
#103 = ORIENTED_EDGE('',*,*,#104,.F.);
#104 = EDGE_CURVE('',#105,#65,#107,.T.);
#105 = VERTEX_POINT('',#106);
#106 = CARTESIAN_POINT('',(21.49027840358,14.634477583317,33.05));
#107 = CIRCLE('',#108,26.);
#108 = AXIS2_PLACEMENT_3D('',#109,#110,#111);
#109 = CARTESIAN_POINT('',(0.,0.,33.05));
#110 = DIRECTION('',(0.,-0.,1.));
#111 = DIRECTION('',(0.826549169368,0.562864522435,0.));
#112 = ORIENTED_EDGE('',*,*,#113,.T.);
#113 = EDGE_CURVE('',#105,#95,#114,.T.);
#114 = LINE('',#115,#116);
#115 = CARTESIAN_POINT('',(0.,0.,33.05));
#116 = VECTOR('',#117,1.);
#117 = DIRECTION('',(0.826549169368,0.562864522435,0.));
#118 = PLANE('',#119);
#119 = AXIS2_PLACEMENT_3D('',#120,#121,#122);
#120 = CARTESIAN_POINT('',(0.,0.,33.05));
#121 = DIRECTION('',(0.,0.,1.));
#122 = DIRECTION('',(0.826549169368,0.562864522435,0.));
#123 = ADVANCED_FACE('',(#124),#149,.T.);
#124 = FACE_BOUND('',#125,.T.);
#125 = EDGE_LOOP('',(#126,#134,#135,#143));
#126 = ORIENTED_EDGE('',*,*,#127,.F.);
#127 = EDGE_CURVE('',#105,#128,#130,.T.);
#128 = VERTEX_POINT('',#129);
#129 = CARTESIAN_POINT('',(21.49027840358,14.634477583317,46.95));
#130 = LINE('',#131,#132);
#131 = CARTESIAN_POINT('',(21.49027840358,14.634477583317,32.05));
#132 = VECTOR('',#133,1.);
#133 = DIRECTION('',(0.,0.,1.));
#134 = ORIENTED_EDGE('',*,*,#113,.T.);
#135 = ORIENTED_EDGE('',*,*,#136,.T.);
#136 = EDGE_CURVE('',#95,#137,#139,.T.);
#137 = VERTEX_POINT('',#138);
#138 = CARTESIAN_POINT('',(21.986207905201,14.972196296779,46.95));
#139 = LINE('',#140,#141);
#140 = CARTESIAN_POINT('',(21.986207905201,14.972196296779,33.05));
#141 = VECTOR('',#142,1.);
#142 = DIRECTION('',(0.,0.,1.));
#143 = ORIENTED_EDGE('',*,*,#144,.F.);
#144 = EDGE_CURVE('',#128,#137,#145,.T.);
#145 = LINE('',#146,#147);
#146 = CARTESIAN_POINT('',(0.,0.,46.95));
#147 = VECTOR('',#148,1.);
#148 = DIRECTION('',(0.826549169368,0.562864522435,0.));
#149 = PLANE('',#150);
#150 = AXIS2_PLACEMENT_3D('',#151,#152,#153);
#151 = CARTESIAN_POINT('',(0.,0.,33.05));
#152 = DIRECTION('',(0.562864522435,-0.826549169368,0.));
#153 = DIRECTION('',(0.826549169368,0.562864522435,0.));
#154 = ADVANCED_FACE('',(#155),#182,.T.);
#155 = FACE_BOUND('',#156,.T.);
#156 = EDGE_LOOP('',(#157,#158,#167,#175));
#157 = ORIENTED_EDGE('',*,*,#144,.T.);
#158 = ORIENTED_EDGE('',*,*,#159,.T.);
#159 = EDGE_CURVE('',#137,#160,#162,.T.);
#160 = VERTEX_POINT('',#161);
#161 = CARTESIAN_POINT('',(20.53409477864,16.908901549829,46.95));
#162 = CIRCLE('',#163,26.6);
#163 = AXIS2_PLACEMENT_3D('',#164,#165,#166);
#164 = CARTESIAN_POINT('',(0.,0.,46.95));
#165 = DIRECTION('',(0.,-0.,1.));
#166 = DIRECTION('',(0.826549169368,0.562864522435,0.));
#167 = ORIENTED_EDGE('',*,*,#168,.F.);
#168 = EDGE_CURVE('',#169,#160,#171,.T.);
#169 = VERTEX_POINT('',#170);
#170 = CARTESIAN_POINT('',(20.070919708445,16.527497755472,46.95));
#171 = LINE('',#172,#173);
#172 = CARTESIAN_POINT('',(0.,0.,46.95));
#173 = VECTOR('',#174,1.);
#174 = DIRECTION('',(0.771958450325,0.635672990595,0.));
#175 = ORIENTED_EDGE('',*,*,#176,.F.);
#176 = EDGE_CURVE('',#128,#169,#177,.T.);
#177 = CIRCLE('',#178,26.);
#178 = AXIS2_PLACEMENT_3D('',#179,#180,#181);
#179 = CARTESIAN_POINT('',(0.,0.,46.95));
#180 = DIRECTION('',(0.,-0.,1.));
#181 = DIRECTION('',(0.826549169368,0.562864522435,0.));
#182 = PLANE('',#183);
#183 = AXIS2_PLACEMENT_3D('',#184,#185,#186);
#184 = CARTESIAN_POINT('',(0.,0.,46.95));
#185 = DIRECTION('',(0.,0.,1.));
#186 = DIRECTION('',(0.826549169368,0.562864522435,0.));
#187 = ADVANCED_FACE('',(#188),#218,.T.);
#188 = FACE_BOUND('',#189,.T.);
#189 = EDGE_LOOP('',(#190,#191,#192,#193,#194,#195,#203,#212));
#190 = ORIENTED_EDGE('',*,*,#159,.F.);
#191 = ORIENTED_EDGE('',*,*,#136,.F.);
#192 = ORIENTED_EDGE('',*,*,#94,.T.);
#193 = ORIENTED_EDGE('',*,*,#80,.T.);
#194 = ORIENTED_EDGE('',*,*,#31,.F.);
#195 = ORIENTED_EDGE('',*,*,#196,.F.);
#196 = EDGE_CURVE('',#197,#24,#199,.T.);
#197 = VERTEX_POINT('',#198);
#198 = CARTESIAN_POINT('',(18.450854126048,19.160531882474,46.94));
#199 = LINE('',#200,#201);
#200 = CARTESIAN_POINT('',(18.450854126048,19.160531882474,33.05));
#201 = VECTOR('',#202,1.);
#202 = DIRECTION('',(0.,0.,1.));
#203 = ORIENTED_EDGE('',*,*,#204,.F.);
#204 = EDGE_CURVE('',#205,#197,#207,.T.);
#205 = VERTEX_POINT('',#206);
#206 = CARTESIAN_POINT('',(20.53409477864,16.908901549829,46.94));
#207 = CIRCLE('',#208,26.6);
#208 = AXIS2_PLACEMENT_3D('',#209,#210,#211);
#209 = CARTESIAN_POINT('',(0.,0.,46.94));
#210 = DIRECTION('',(0.,-0.,1.));
#211 = DIRECTION('',(0.826549169368,0.562864522435,0.));
#212 = ORIENTED_EDGE('',*,*,#213,.T.);
#213 = EDGE_CURVE('',#205,#160,#214,.T.);
#214 = LINE('',#215,#216);
#215 = CARTESIAN_POINT('',(20.53409477864,16.908901549829,33.05));
#216 = VECTOR('',#217,1.);
#217 = DIRECTION('',(0.,0.,1.));
#218 = CYLINDRICAL_SURFACE('',#219,26.6);
#219 = AXIS2_PLACEMENT_3D('',#220,#221,#222);
#220 = CARTESIAN_POINT('',(0.,0.,33.05));
#221 = DIRECTION('',(0.,0.,1.));
#222 = DIRECTION('',(0.826549169368,0.562864522435,0.));
#223 = ADVANCED_FACE('',(#224),#258,.T.);
#224 = FACE_BOUND('',#225,.T.);
#225 = EDGE_LOOP('',(#226,#234,#235,#236,#244,#252));
#226 = ORIENTED_EDGE('',*,*,#227,.F.);
#227 = EDGE_CURVE('',#169,#228,#230,.T.);
#228 = VERTEX_POINT('',#229);
#229 = CARTESIAN_POINT('',(20.070919708446,16.527497755472,50.95));
#230 = LINE('',#231,#232);
#231 = CARTESIAN_POINT('',(20.070919708446,16.527497755472,45.94));
#232 = VECTOR('',#233,1.);
#233 = DIRECTION('',(0.,0.,1.));
#234 = ORIENTED_EDGE('',*,*,#168,.T.);
#235 = ORIENTED_EDGE('',*,*,#213,.F.);
#236 = ORIENTED_EDGE('',*,*,#237,.T.);
#237 = EDGE_CURVE('',#205,#238,#240,.T.);
#238 = VERTEX_POINT('',#239);
#239 = CARTESIAN_POINT('',(20.688486468705,17.036036147948,46.94));
#240 = LINE('',#241,#242);
#241 = CARTESIAN_POINT('',(0.,0.,46.94));
#242 = VECTOR('',#243,1.);
#243 = DIRECTION('',(0.771958450325,0.635672990595,0.));
#244 = ORIENTED_EDGE('',*,*,#245,.T.);
#245 = EDGE_CURVE('',#238,#246,#248,.T.);
#246 = VERTEX_POINT('',#247);
#247 = CARTESIAN_POINT('',(20.688486468705,17.036036147948,50.95));
#248 = LINE('',#249,#250);
#249 = CARTESIAN_POINT('',(20.688486468705,17.036036147948,46.94));
#250 = VECTOR('',#251,1.);
#251 = DIRECTION('',(0.,0.,1.));
#252 = ORIENTED_EDGE('',*,*,#253,.F.);
#253 = EDGE_CURVE('',#228,#246,#254,.T.);
#254 = LINE('',#255,#256);
#255 = CARTESIAN_POINT('',(0.,0.,50.95));
#256 = VECTOR('',#257,1.);
#257 = DIRECTION('',(0.771958450325,0.635672990595,0.));
#258 = PLANE('',#259);
#259 = AXIS2_PLACEMENT_3D('',#260,#261,#262);
#260 = CARTESIAN_POINT('',(0.,0.,46.94));
#261 = DIRECTION('',(0.635672990595,-0.771958450325,0.));
#262 = DIRECTION('',(0.771958450325,0.635672990595,0.));
#263 = ADVANCED_FACE('',(#264),#298,.F.);
#264 = FACE_BOUND('',#265,.F.);
#265 = EDGE_LOOP('',(#266,#276,#282,#283,#284,#292));
#266 = ORIENTED_EDGE('',*,*,#267,.F.);
#267 = EDGE_CURVE('',#268,#270,#272,.T.);
#268 = VERTEX_POINT('',#269);
#269 = CARTESIAN_POINT('',(18.034669446513,18.728339433997,50.95));
#270 = VERTEX_POINT('',#271);
#271 = CARTESIAN_POINT('',(18.58958235256,19.304596031966,50.95));
#272 = LINE('',#273,#274);
#273 = CARTESIAN_POINT('',(0.,0.,50.95));
#274 = VECTOR('',#275,1.);
#275 = DIRECTION('',(0.693641132558,0.720320747461,0.));
#276 = ORIENTED_EDGE('',*,*,#277,.F.);
#277 = EDGE_CURVE('',#22,#268,#278,.T.);
#278 = LINE('',#279,#280);
#279 = CARTESIAN_POINT('',(18.034669446513,18.728339433997,45.94));
#280 = VECTOR('',#281,1.);
#281 = DIRECTION('',(0.,0.,1.));
#282 = ORIENTED_EDGE('',*,*,#21,.T.);
#283 = ORIENTED_EDGE('',*,*,#196,.F.);
#284 = ORIENTED_EDGE('',*,*,#285,.T.);
#285 = EDGE_CURVE('',#197,#286,#288,.T.);
#286 = VERTEX_POINT('',#287);
#287 = CARTESIAN_POINT('',(18.58958235256,19.304596031966,46.94));
#288 = LINE('',#289,#290);
#289 = CARTESIAN_POINT('',(0.,0.,46.94));
#290 = VECTOR('',#291,1.);
#291 = DIRECTION('',(0.693641132558,0.720320747461,0.));
#292 = ORIENTED_EDGE('',*,*,#293,.T.);
#293 = EDGE_CURVE('',#286,#270,#294,.T.);
#294 = LINE('',#295,#296);
#295 = CARTESIAN_POINT('',(18.58958235256,19.304596031966,46.94));
#296 = VECTOR('',#297,1.);
#297 = DIRECTION('',(0.,0.,1.));
#298 = PLANE('',#299);
#299 = AXIS2_PLACEMENT_3D('',#300,#301,#302);
#300 = CARTESIAN_POINT('',(0.,0.,46.94));
#301 = DIRECTION('',(0.720320747461,-0.693641132558,0.));
#302 = DIRECTION('',(0.693641132558,0.720320747461,0.));
#303 = ADVANCED_FACE('',(#304),#316,.F.);
#304 = FACE_BOUND('',#305,.F.);
#305 = EDGE_LOOP('',(#306,#313,#314,#315));
#306 = ORIENTED_EDGE('',*,*,#307,.T.);
#307 = EDGE_CURVE('',#238,#286,#308,.T.);
#308 = CIRCLE('',#309,26.8);
#309 = AXIS2_PLACEMENT_3D('',#310,#311,#312);
#310 = CARTESIAN_POINT('',(0.,0.,46.94));
#311 = DIRECTION('',(0.,-0.,1.));
#312 = DIRECTION('',(0.771958450325,0.635672990595,0.));
#313 = ORIENTED_EDGE('',*,*,#285,.F.);
#314 = ORIENTED_EDGE('',*,*,#204,.F.);
#315 = ORIENTED_EDGE('',*,*,#237,.T.);
#316 = PLANE('',#317);
#317 = AXIS2_PLACEMENT_3D('',#318,#319,#320);
#318 = CARTESIAN_POINT('',(0.,0.,46.94));
#319 = DIRECTION('',(0.,0.,1.));
#320 = DIRECTION('',(0.771958450325,0.635672990595,0.));
#321 = ADVANCED_FACE('',(#322),#340,.T.);
#322 = FACE_BOUND('',#323,.T.);
#323 = EDGE_LOOP('',(#324,#331,#332,#339));
#324 = ORIENTED_EDGE('',*,*,#325,.T.);
#325 = EDGE_CURVE('',#246,#270,#326,.T.);
#326 = CIRCLE('',#327,26.8);
#327 = AXIS2_PLACEMENT_3D('',#328,#329,#330);
#328 = CARTESIAN_POINT('',(0.,0.,50.95));
#329 = DIRECTION('',(0.,-0.,1.));
#330 = DIRECTION('',(0.771958450325,0.635672990595,0.));
#331 = ORIENTED_EDGE('',*,*,#267,.F.);
#332 = ORIENTED_EDGE('',*,*,#333,.F.);
#333 = EDGE_CURVE('',#228,#268,#334,.T.);
#334 = CIRCLE('',#335,26.);
#335 = AXIS2_PLACEMENT_3D('',#336,#337,#338);
#336 = CARTESIAN_POINT('',(0.,0.,50.95));
#337 = DIRECTION('',(0.,-0.,1.));
#338 = DIRECTION('',(0.771958450325,0.635672990595,0.));
#339 = ORIENTED_EDGE('',*,*,#253,.T.);
#340 = PLANE('',#341);
#341 = AXIS2_PLACEMENT_3D('',#342,#343,#344);
#342 = CARTESIAN_POINT('',(0.,0.,50.95));
#343 = DIRECTION('',(0.,0.,1.));
#344 = DIRECTION('',(0.771958450325,0.635672990595,0.));
#345 = ADVANCED_FACE('',(#346),#352,.T.);
#346 = FACE_BOUND('',#347,.T.);
#347 = EDGE_LOOP('',(#348,#349,#350,#351));
#348 = ORIENTED_EDGE('',*,*,#325,.F.);
#349 = ORIENTED_EDGE('',*,*,#245,.F.);
#350 = ORIENTED_EDGE('',*,*,#307,.T.);
#351 = ORIENTED_EDGE('',*,*,#293,.T.);
#352 = CYLINDRICAL_SURFACE('',#353,26.8);
#353 = AXIS2_PLACEMENT_3D('',#354,#355,#356);
#354 = CARTESIAN_POINT('',(0.,0.,46.94));
#355 = DIRECTION('',(0.,0.,1.));
#356 = DIRECTION('',(0.771958450325,0.635672990595,0.));
#357 = ADVANCED_FACE('',(#358,#368),#404,.F.);
#358 = FACE_BOUND('',#359,.F.);
#359 = EDGE_LOOP('',(#360,#361,#362,#363,#364,#365,#366,#367));
#360 = ORIENTED_EDGE('',*,*,#333,.F.);
#361 = ORIENTED_EDGE('',*,*,#227,.F.);
#362 = ORIENTED_EDGE('',*,*,#176,.F.);
#363 = ORIENTED_EDGE('',*,*,#127,.F.);
#364 = ORIENTED_EDGE('',*,*,#104,.T.);
#365 = ORIENTED_EDGE('',*,*,#64,.T.);
#366 = ORIENTED_EDGE('',*,*,#48,.F.);
#367 = ORIENTED_EDGE('',*,*,#277,.T.);
#368 = FACE_BOUND('',#369,.F.);
#369 = EDGE_LOOP('',(#370,#381,#389,#398));
#370 = ORIENTED_EDGE('',*,*,#371,.T.);
#371 = EDGE_CURVE('',#372,#374,#376,.T.);
#372 = VERTEX_POINT('',#373);
#373 = CARTESIAN_POINT('',(20.874625745148,15.5,45.95));
#374 = VERTEX_POINT('',#375);
#375 = CARTESIAN_POINT('',(19.319420281158,17.4,45.95));
#376 = CIRCLE('',#377,26.);
#377 = AXIS2_PLACEMENT_3D('',#378,#379,#380);
#378 = CARTESIAN_POINT('',(0.,0.,45.95));
#379 = DIRECTION('',(0.,0.,1.));
#380 = DIRECTION('',(1.,0.,0.));
#381 = ORIENTED_EDGE('',*,*,#382,.F.);
#382 = EDGE_CURVE('',#383,#374,#385,.T.);
#383 = VERTEX_POINT('',#384);
#384 = CARTESIAN_POINT('',(19.319420281158,17.4,34.05));
#385 = LINE('',#386,#387);
#386 = CARTESIAN_POINT('',(19.319420281158,17.4,0.));
#387 = VECTOR('',#388,1.);
#388 = DIRECTION('',(0.,0.,1.));
#389 = ORIENTED_EDGE('',*,*,#390,.F.);
#390 = EDGE_CURVE('',#391,#383,#393,.T.);
#391 = VERTEX_POINT('',#392);
#392 = CARTESIAN_POINT('',(20.874625745148,15.5,34.05));
#393 = CIRCLE('',#394,26.);
#394 = AXIS2_PLACEMENT_3D('',#395,#396,#397);
#395 = CARTESIAN_POINT('',(0.,0.,34.05));
#396 = DIRECTION('',(0.,0.,1.));
#397 = DIRECTION('',(1.,0.,0.));
#398 = ORIENTED_EDGE('',*,*,#399,.T.);
#399 = EDGE_CURVE('',#391,#372,#400,.T.);
#400 = LINE('',#401,#402);
#401 = CARTESIAN_POINT('',(20.874625745148,15.5,0.));
#402 = VECTOR('',#403,1.);
#403 = DIRECTION('',(0.,0.,1.));
#404 = CYLINDRICAL_SURFACE('',#405,26.);
#405 = AXIS2_PLACEMENT_3D('',#406,#407,#408);
#406 = CARTESIAN_POINT('',(0.,0.,32.05));
#407 = DIRECTION('',(0.,0.,1.));
#408 = DIRECTION('',(0.826549169368,0.562864522435,0.));
#409 = ADVANCED_FACE('',(#410),#444,.F.);
#410 = FACE_BOUND('',#411,.F.);
#411 = EDGE_LOOP('',(#412,#422,#430,#438));
#412 = ORIENTED_EDGE('',*,*,#413,.F.);
#413 = EDGE_CURVE('',#414,#416,#418,.T.);
#414 = VERTEX_POINT('',#415);
#415 = CARTESIAN_POINT('',(18.,15.5,34.05));
#416 = VERTEX_POINT('',#417);
#417 = CARTESIAN_POINT('',(18.,15.5,45.95));
#418 = LINE('',#419,#420);
#419 = CARTESIAN_POINT('',(18.,15.5,34.05));
#420 = VECTOR('',#421,1.);
#421 = DIRECTION('',(0.,0.,1.));
#422 = ORIENTED_EDGE('',*,*,#423,.T.);
#423 = EDGE_CURVE('',#414,#424,#426,.T.);
#424 = VERTEX_POINT('',#425);
#425 = CARTESIAN_POINT('',(18.,17.4,34.05));
#426 = LINE('',#427,#428);
#427 = CARTESIAN_POINT('',(18.,15.5,34.05));
#428 = VECTOR('',#429,1.);
#429 = DIRECTION('',(0.,1.,0.));
#430 = ORIENTED_EDGE('',*,*,#431,.T.);
#431 = EDGE_CURVE('',#424,#432,#434,.T.);
#432 = VERTEX_POINT('',#433);
#433 = CARTESIAN_POINT('',(18.,17.4,45.95));
#434 = LINE('',#435,#436);
#435 = CARTESIAN_POINT('',(18.,17.4,34.05));
#436 = VECTOR('',#437,1.);
#437 = DIRECTION('',(0.,0.,1.));
#438 = ORIENTED_EDGE('',*,*,#439,.F.);
#439 = EDGE_CURVE('',#416,#432,#440,.T.);
#440 = LINE('',#441,#442);
#441 = CARTESIAN_POINT('',(18.,15.5,45.95));
#442 = VECTOR('',#443,1.);
#443 = DIRECTION('',(0.,1.,0.));
#444 = PLANE('',#445);
#445 = AXIS2_PLACEMENT_3D('',#446,#447,#448);
#446 = CARTESIAN_POINT('',(18.,15.5,34.05));
#447 = DIRECTION('',(1.,0.,0.));
#448 = DIRECTION('',(0.,0.,1.));
#449 = ADVANCED_FACE('',(#450),#466,.F.);
#450 = FACE_BOUND('',#451,.F.);
#451 = EDGE_LOOP('',(#452,#458,#459,#465));
#452 = ORIENTED_EDGE('',*,*,#453,.F.);
#453 = EDGE_CURVE('',#414,#391,#454,.T.);
#454 = LINE('',#455,#456);
#455 = CARTESIAN_POINT('',(18.,15.5,34.05));
#456 = VECTOR('',#457,1.);
#457 = DIRECTION('',(1.,0.,0.));
#458 = ORIENTED_EDGE('',*,*,#413,.T.);
#459 = ORIENTED_EDGE('',*,*,#460,.T.);
#460 = EDGE_CURVE('',#416,#372,#461,.T.);
#461 = LINE('',#462,#463);
#462 = CARTESIAN_POINT('',(18.,15.5,45.95));
#463 = VECTOR('',#464,1.);
#464 = DIRECTION('',(1.,0.,0.));
#465 = ORIENTED_EDGE('',*,*,#399,.F.);
#466 = PLANE('',#467);
#467 = AXIS2_PLACEMENT_3D('',#468,#469,#470);
#468 = CARTESIAN_POINT('',(18.,15.5,34.05));
#469 = DIRECTION('',(0.,1.,0.));
#470 = DIRECTION('',(0.,0.,1.));
#471 = ADVANCED_FACE('',(#472),#483,.T.);
#472 = FACE_BOUND('',#473,.T.);
#473 = EDGE_LOOP('',(#474,#480,#481,#482));
#474 = ORIENTED_EDGE('',*,*,#475,.F.);
#475 = EDGE_CURVE('',#432,#374,#476,.T.);
#476 = LINE('',#477,#478);
#477 = CARTESIAN_POINT('',(18.,17.4,45.95));
#478 = VECTOR('',#479,1.);
#479 = DIRECTION('',(1.,0.,0.));
#480 = ORIENTED_EDGE('',*,*,#439,.F.);
#481 = ORIENTED_EDGE('',*,*,#460,.T.);
#482 = ORIENTED_EDGE('',*,*,#371,.T.);
#483 = PLANE('',#484);
#484 = AXIS2_PLACEMENT_3D('',#485,#486,#487);
#485 = CARTESIAN_POINT('',(18.,15.5,45.95));
#486 = DIRECTION('',(0.,0.,1.));
#487 = DIRECTION('',(1.,0.,0.));
#488 = ADVANCED_FACE('',(#489),#500,.T.);
#489 = FACE_BOUND('',#490,.T.);
#490 = EDGE_LOOP('',(#491,#497,#498,#499));
#491 = ORIENTED_EDGE('',*,*,#492,.F.);
#492 = EDGE_CURVE('',#424,#383,#493,.T.);
#493 = LINE('',#494,#495);
#494 = CARTESIAN_POINT('',(18.,17.4,34.05));
#495 = VECTOR('',#496,1.);
#496 = DIRECTION('',(1.,0.,0.));
#497 = ORIENTED_EDGE('',*,*,#431,.T.);
#498 = ORIENTED_EDGE('',*,*,#475,.T.);
#499 = ORIENTED_EDGE('',*,*,#382,.F.);
#500 = PLANE('',#501);
#501 = AXIS2_PLACEMENT_3D('',#502,#503,#504);
#502 = CARTESIAN_POINT('',(18.,17.4,34.05));
#503 = DIRECTION('',(0.,1.,0.));
#504 = DIRECTION('',(0.,0.,1.));
#505 = ADVANCED_FACE('',(#506),#512,.F.);
#506 = FACE_BOUND('',#507,.F.);
#507 = EDGE_LOOP('',(#508,#509,#510,#511));
#508 = ORIENTED_EDGE('',*,*,#492,.F.);
#509 = ORIENTED_EDGE('',*,*,#423,.F.);
#510 = ORIENTED_EDGE('',*,*,#453,.T.);
#511 = ORIENTED_EDGE('',*,*,#390,.T.);
#512 = PLANE('',#513);
#513 = AXIS2_PLACEMENT_3D('',#514,#515,#516);
#514 = CARTESIAN_POINT('',(18.,15.5,34.05));
#515 = DIRECTION('',(0.,0.,1.));
#516 = DIRECTION('',(1.,0.,0.));
#517 = ( GEOMETRIC_REPRESENTATION_CONTEXT(3) 
GLOBAL_UNCERTAINTY_ASSIGNED_CONTEXT((#521)) GLOBAL_UNIT_ASSIGNED_CONTEXT
((#518,#519,#520)) REPRESENTATION_CONTEXT('Context #1',
  '3D Context with UNIT and UNCERTAINTY') );
#518 = ( LENGTH_UNIT() NAMED_UNIT(*) SI_UNIT(.MILLI.,.METRE.) );
#519 = ( NAMED_UNIT(*) PLANE_ANGLE_UNIT() SI_UNIT($,.RADIAN.) );
#520 = ( NAMED_UNIT(*) SI_UNIT($,.STERADIAN.) SOLID_ANGLE_UNIT() );
#521 = UNCERTAINTY_MEASURE_WITH_UNIT(LENGTH_MEASURE(1.E-07),#518,
  'distance_accuracy_value','confusion accuracy');
#522 = PRODUCT_RELATED_PRODUCT_CATEGORY('part',$,(#7));
ENDSEC;
END-ISO-10303-21;
