ISO-10303-21;
HEADER;
FILE_DESCRIPTION(('FreeCAD Model'),'2;1');
FILE_NAME('Open CASCADE Shape Model','2026-10-09T15:22:00',('FreeCAD'),(
    'FreeCAD'),'Open CASCADE STEP processor 7.8','FreeCAD','Unknown');
FILE_SCHEMA(('AUTOMOTIVE_DESIGN { 1 0 10303 214 1 1 1 1 }'));
ENDSEC;
DATA;
#1 = APPLICATION_PROTOCOL_DEFINITION('international standard',
  'automotive_design',2000,#2);
#2 = APPLICATION_CONTEXT(
  'core data for automotive mechanical design processes');
#3 = SHAPE_DEFINITION_REPRESENTATION(#4,#10);
#4 = PRODUCT_DEFINITION_SHAPE('','',#5);
#5 = PRODUCT_DEFINITION('design','',#6,#9);
#6 = PRODUCT_DEFINITION_FORMATION('','',#7);
#7 = PRODUCT('Open CASCADE STEP translator 7.8 8',
  'Open CASCADE STEP translator 7.8 8','',(#8));
#8 = PRODUCT_CONTEXT('',#2,'mechanical');
#9 = PRODUCT_DEFINITION_CONTEXT('part definition',#2,'design');
#10 = ADVANCED_BREP_SHAPE_REPRESENTATION('',(#11,#15),#1634);
#11 = AXIS2_PLACEMENT_3D('',#12,#13,#14);
#12 = CARTESIAN_POINT('',(0.,0.,0.));
#13 = DIRECTION('',(0.,0.,1.));
#14 = DIRECTION('',(1.,0.,-0.));
#15 = MANIFOLD_SOLID_BREP('',#16);
#16 = CLOSED_SHELL('',(#17,#57,#129,#153,#234,#251,#300,#333,#357,#388,
    #500,#533,#557,#736,#785,#817,#842,#866,#885,#897,#928,#961,#985,
    #1010,#1034,#1059,#1090,#1114,#1138,#1170,#1194,#1219,#1243,#1267,
    #1291,#1315,#1340,#1364,#1381,#1393,#1417,#1443,#1491,#1509,#1526,
    #1576,#1592,#1610,#1620));
#17 = ADVANCED_FACE('',(#18),#52,.F.);
#18 = FACE_BOUND('',#19,.F.);
#19 = EDGE_LOOP('',(#20,#30,#38,#46));
#20 = ORIENTED_EDGE('',*,*,#21,.F.);
#21 = EDGE_CURVE('',#22,#24,#26,.T.);
#22 = VERTEX_POINT('',#23);
#23 = CARTESIAN_POINT('',(13.5,11.845,32.975));
#24 = VERTEX_POINT('',#25);
#25 = CARTESIAN_POINT('',(13.5,13.51,32.975));
#26 = LINE('',#27,#28);
#27 = CARTESIAN_POINT('',(13.5,11.845,32.975));
#28 = VECTOR('',#29,1.);
#29 = DIRECTION('',(0.,1.,0.));
#30 = ORIENTED_EDGE('',*,*,#31,.F.);
#31 = EDGE_CURVE('',#32,#22,#34,.T.);
#32 = VERTEX_POINT('',#33);
#33 = CARTESIAN_POINT('',(13.5,11.845,17.025));
#34 = LINE('',#35,#36);
#35 = CARTESIAN_POINT('',(13.5,11.845,17.025));
#36 = VECTOR('',#37,1.);
#37 = DIRECTION('',(0.,0.,1.));
#38 = ORIENTED_EDGE('',*,*,#39,.T.);
#39 = EDGE_CURVE('',#32,#40,#42,.T.);
#40 = VERTEX_POINT('',#41);
#41 = CARTESIAN_POINT('',(13.5,13.51,17.025));
#42 = LINE('',#43,#44);
#43 = CARTESIAN_POINT('',(13.5,11.845,17.025));
#44 = VECTOR('',#45,1.);
#45 = DIRECTION('',(0.,1.,0.));
#46 = ORIENTED_EDGE('',*,*,#47,.T.);
#47 = EDGE_CURVE('',#40,#24,#48,.T.);
#48 = LINE('',#49,#50);
#49 = CARTESIAN_POINT('',(13.5,13.51,16.525));
#50 = VECTOR('',#51,1.);
#51 = DIRECTION('',(0.,0.,1.));
#52 = PLANE('',#53);
#53 = AXIS2_PLACEMENT_3D('',#54,#55,#56);
#54 = CARTESIAN_POINT('',(13.5,11.845,17.025));
#55 = DIRECTION('',(1.,0.,0.));
#56 = DIRECTION('',(0.,0.,1.));
#57 = ADVANCED_FACE('',(#58),#124,.T.);
#58 = FACE_BOUND('',#59,.T.);
#59 = EDGE_LOOP('',(#60,#61,#69,#78,#86,#94,#102,#110,#118));
#60 = ORIENTED_EDGE('',*,*,#21,.F.);
#61 = ORIENTED_EDGE('',*,*,#62,.T.);
#62 = EDGE_CURVE('',#22,#63,#65,.T.);
#63 = VERTEX_POINT('',#64);
#64 = CARTESIAN_POINT('',(22.242661149242,11.845,32.975));
#65 = LINE('',#66,#67);
#66 = CARTESIAN_POINT('',(13.5,11.845,32.975));
#67 = VECTOR('',#68,1.);
#68 = DIRECTION('',(1.,0.,0.));
#69 = ORIENTED_EDGE('',*,*,#70,.T.);
#70 = EDGE_CURVE('',#63,#71,#73,.T.);
#71 = VERTEX_POINT('',#72);
#72 = CARTESIAN_POINT('',(18.738129575814,16.85,32.975));
#73 = CIRCLE('',#74,25.2);
#74 = AXIS2_PLACEMENT_3D('',#75,#76,#77);
#75 = CARTESIAN_POINT('',(0.,0.,32.975));
#76 = DIRECTION('',(0.,0.,1.));
#77 = DIRECTION('',(1.,0.,0.));
#78 = ORIENTED_EDGE('',*,*,#79,.T.);
#79 = EDGE_CURVE('',#71,#80,#82,.T.);
#80 = VERTEX_POINT('',#81);
#81 = CARTESIAN_POINT('',(17.,16.85,32.975));
#82 = LINE('',#83,#84);
#83 = CARTESIAN_POINT('',(15.112378549193,16.85,32.975));
#84 = VECTOR('',#85,1.);
#85 = DIRECTION('',(-1.,0.,0.));
#86 = ORIENTED_EDGE('',*,*,#87,.F.);
#87 = EDGE_CURVE('',#88,#80,#90,.T.);
#88 = VERTEX_POINT('',#89);
#89 = CARTESIAN_POINT('',(17.,15.6,32.975));
#90 = LINE('',#91,#92);
#91 = CARTESIAN_POINT('',(17.,13.3675,32.975));
#92 = VECTOR('',#93,1.);
#93 = DIRECTION('',(0.,1.,0.));
#94 = ORIENTED_EDGE('',*,*,#95,.F.);
#95 = EDGE_CURVE('',#96,#88,#98,.T.);
#96 = VERTEX_POINT('',#97);
#97 = CARTESIAN_POINT('',(18.,15.6,32.975));
#98 = LINE('',#99,#100);
#99 = CARTESIAN_POINT('',(13.,15.6,32.975));
#100 = VECTOR('',#101,1.);
#101 = DIRECTION('',(-1.,0.,0.));
#102 = ORIENTED_EDGE('',*,*,#103,.F.);
#103 = EDGE_CURVE('',#104,#96,#106,.T.);
#104 = VERTEX_POINT('',#105);
#105 = CARTESIAN_POINT('',(18.,13.8,32.975));
#106 = LINE('',#107,#108);
#107 = CARTESIAN_POINT('',(18.,12.8225,32.975));
#108 = VECTOR('',#109,1.);
#109 = DIRECTION('',(0.,1.,0.));
#110 = ORIENTED_EDGE('',*,*,#111,.T.);
#111 = EDGE_CURVE('',#104,#112,#114,.T.);
#112 = VERTEX_POINT('',#113);
#113 = CARTESIAN_POINT('',(13.79,13.8,32.975));
#114 = LINE('',#115,#116);
#115 = CARTESIAN_POINT('',(13.,13.8,32.975));
#116 = VECTOR('',#117,1.);
#117 = DIRECTION('',(-1.,0.,0.));
#118 = ORIENTED_EDGE('',*,*,#119,.T.);
#119 = EDGE_CURVE('',#112,#24,#120,.T.);
#120 = LINE('',#121,#122);
#121 = CARTESIAN_POINT('',(13.07875,13.08875,32.975));
#122 = VECTOR('',#123,1.);
#123 = DIRECTION('',(-0.707106781187,-0.707106781187,0.));
#124 = PLANE('',#125);
#125 = AXIS2_PLACEMENT_3D('',#126,#127,#128);
#126 = CARTESIAN_POINT('',(13.5,11.845,32.975));
#127 = DIRECTION('',(0.,0.,1.));
#128 = DIRECTION('',(1.,0.,0.));
#129 = ADVANCED_FACE('',(#130),#148,.T.);
#130 = FACE_BOUND('',#131,.T.);
#131 = EDGE_LOOP('',(#132,#140,#141,#142));
#132 = ORIENTED_EDGE('',*,*,#133,.T.);
#133 = EDGE_CURVE('',#134,#40,#136,.T.);
#134 = VERTEX_POINT('',#135);
#135 = CARTESIAN_POINT('',(13.79,13.8,17.025));
#136 = LINE('',#137,#138);
#137 = CARTESIAN_POINT('',(13.07875,13.08875,17.025));
#138 = VECTOR('',#139,1.);
#139 = DIRECTION('',(-0.707106781187,-0.707106781187,0.));
#140 = ORIENTED_EDGE('',*,*,#47,.T.);
#141 = ORIENTED_EDGE('',*,*,#119,.F.);
#142 = ORIENTED_EDGE('',*,*,#143,.F.);
#143 = EDGE_CURVE('',#134,#112,#144,.T.);
#144 = LINE('',#145,#146);
#145 = CARTESIAN_POINT('',(13.79,13.8,16.025));
#146 = VECTOR('',#147,1.);
#147 = DIRECTION('',(0.,0.,1.));
#148 = PLANE('',#149);
#149 = AXIS2_PLACEMENT_3D('',#150,#151,#152);
#150 = CARTESIAN_POINT('',(13.49,13.5,16.025));
#151 = DIRECTION('',(-0.707106781187,0.707106781187,0.));
#152 = DIRECTION('',(0.707106781187,0.707106781187,0.));
#153 = ADVANCED_FACE('',(#154),#229,.F.);
#154 = FACE_BOUND('',#155,.F.);
#155 = EDGE_LOOP('',(#156,#157,#165,#174,#182,#190,#198,#206,#214,#222,
    #228));
#156 = ORIENTED_EDGE('',*,*,#39,.F.);
#157 = ORIENTED_EDGE('',*,*,#158,.T.);
#158 = EDGE_CURVE('',#32,#159,#161,.T.);
#159 = VERTEX_POINT('',#160);
#160 = CARTESIAN_POINT('',(22.242661149242,11.845,17.025));
#161 = LINE('',#162,#163);
#162 = CARTESIAN_POINT('',(13.5,11.845,17.025));
#163 = VECTOR('',#164,1.);
#164 = DIRECTION('',(1.,0.,0.));
#165 = ORIENTED_EDGE('',*,*,#166,.T.);
#166 = EDGE_CURVE('',#159,#167,#169,.T.);
#167 = VERTEX_POINT('',#168);
#168 = CARTESIAN_POINT('',(15.199671049072,20.1,17.025));
#169 = CIRCLE('',#170,25.2);
#170 = AXIS2_PLACEMENT_3D('',#171,#172,#173);
#171 = CARTESIAN_POINT('',(0.,0.,17.025));
#172 = DIRECTION('',(0.,0.,1.));
#173 = DIRECTION('',(1.,0.,0.));
#174 = ORIENTED_EDGE('',*,*,#175,.F.);
#175 = EDGE_CURVE('',#176,#167,#178,.T.);
#176 = VERTEX_POINT('',#177);
#177 = CARTESIAN_POINT('',(13.5,20.1,17.025));
#178 = LINE('',#179,#180);
#179 = CARTESIAN_POINT('',(13.5,20.1,17.025));
#180 = VECTOR('',#181,1.);
#181 = DIRECTION('',(1.,0.,0.));
#182 = ORIENTED_EDGE('',*,*,#183,.F.);
#183 = EDGE_CURVE('',#184,#176,#186,.T.);
#184 = VERTEX_POINT('',#185);
#185 = CARTESIAN_POINT('',(13.5,16.25,17.025));
#186 = LINE('',#187,#188);
#187 = CARTESIAN_POINT('',(13.5,11.845,17.025));
#188 = VECTOR('',#189,1.);
#189 = DIRECTION('',(0.,1.,0.));
#190 = ORIENTED_EDGE('',*,*,#191,.F.);
#191 = EDGE_CURVE('',#192,#184,#194,.T.);
#192 = VERTEX_POINT('',#193);
#193 = CARTESIAN_POINT('',(17.,16.25,17.025));
#194 = LINE('',#195,#196);
#195 = CARTESIAN_POINT('',(-18.25,16.25,17.025));
#196 = VECTOR('',#197,1.);
#197 = DIRECTION('',(-1.,0.,0.));
#198 = ORIENTED_EDGE('',*,*,#199,.F.);
#199 = EDGE_CURVE('',#200,#192,#202,.T.);
#200 = VERTEX_POINT('',#201);
#201 = CARTESIAN_POINT('',(17.,15.6,17.025));
#202 = LINE('',#203,#204);
#203 = CARTESIAN_POINT('',(17.,13.3725,17.025));
#204 = VECTOR('',#205,1.);
#205 = DIRECTION('',(0.,1.,0.));
#206 = ORIENTED_EDGE('',*,*,#207,.F.);
#207 = EDGE_CURVE('',#208,#200,#210,.T.);
#208 = VERTEX_POINT('',#209);
#209 = CARTESIAN_POINT('',(18.,15.6,17.025));
#210 = LINE('',#211,#212);
#211 = CARTESIAN_POINT('',(13.,15.6,17.025));
#212 = VECTOR('',#213,1.);
#213 = DIRECTION('',(-1.,0.,0.));
#214 = ORIENTED_EDGE('',*,*,#215,.F.);
#215 = EDGE_CURVE('',#216,#208,#218,.T.);
#216 = VERTEX_POINT('',#217);
#217 = CARTESIAN_POINT('',(18.,13.8,17.025));
#218 = LINE('',#219,#220);
#219 = CARTESIAN_POINT('',(18.,12.8225,17.025));
#220 = VECTOR('',#221,1.);
#221 = DIRECTION('',(0.,1.,0.));
#222 = ORIENTED_EDGE('',*,*,#223,.T.);
#223 = EDGE_CURVE('',#216,#134,#224,.T.);
#224 = LINE('',#225,#226);
#225 = CARTESIAN_POINT('',(13.,13.8,17.025));
#226 = VECTOR('',#227,1.);
#227 = DIRECTION('',(-1.,0.,0.));
#228 = ORIENTED_EDGE('',*,*,#133,.T.);
#229 = PLANE('',#230);
#230 = AXIS2_PLACEMENT_3D('',#231,#232,#233);
#231 = CARTESIAN_POINT('',(13.5,11.845,17.025));
#232 = DIRECTION('',(0.,0.,1.));
#233 = DIRECTION('',(1.,0.,0.));
#234 = ADVANCED_FACE('',(#235),#246,.F.);
#235 = FACE_BOUND('',#236,.F.);
#236 = EDGE_LOOP('',(#237,#238,#239,#240));
#237 = ORIENTED_EDGE('',*,*,#158,.F.);
#238 = ORIENTED_EDGE('',*,*,#31,.T.);
#239 = ORIENTED_EDGE('',*,*,#62,.T.);
#240 = ORIENTED_EDGE('',*,*,#241,.F.);
#241 = EDGE_CURVE('',#159,#63,#242,.T.);
#242 = LINE('',#243,#244);
#243 = CARTESIAN_POINT('',(22.242661149242,11.845,16.025));
#244 = VECTOR('',#245,1.);
#245 = DIRECTION('',(0.,0.,1.));
#246 = PLANE('',#247);
#247 = AXIS2_PLACEMENT_3D('',#248,#249,#250);
#248 = CARTESIAN_POINT('',(13.5,11.845,17.025));
#249 = DIRECTION('',(0.,1.,0.));
#250 = DIRECTION('',(0.,0.,1.));
#251 = ADVANCED_FACE('',(#252),#295,.T.);
#252 = FACE_BOUND('',#253,.T.);
#253 = EDGE_LOOP('',(#254,#262,#263,#264,#265,#273,#281,#289));
#254 = ORIENTED_EDGE('',*,*,#255,.F.);
#255 = EDGE_CURVE('',#216,#256,#258,.T.);
#256 = VERTEX_POINT('',#257);
#257 = CARTESIAN_POINT('',(18.,13.8,18.644756381081));
#258 = LINE('',#259,#260);
#259 = CARTESIAN_POINT('',(18.,13.8,16.025));
#260 = VECTOR('',#261,1.);
#261 = DIRECTION('',(0.,0.,1.));
#262 = ORIENTED_EDGE('',*,*,#223,.T.);
#263 = ORIENTED_EDGE('',*,*,#143,.T.);
#264 = ORIENTED_EDGE('',*,*,#111,.F.);
#265 = ORIENTED_EDGE('',*,*,#266,.F.);
#266 = EDGE_CURVE('',#267,#104,#269,.T.);
#267 = VERTEX_POINT('',#268);
#268 = CARTESIAN_POINT('',(18.,13.8,31.355243618919));
#269 = LINE('',#270,#271);
#270 = CARTESIAN_POINT('',(18.,13.8,16.025));
#271 = VECTOR('',#272,1.);
#272 = DIRECTION('',(0.,0.,1.));
#273 = ORIENTED_EDGE('',*,*,#274,.F.);
#274 = EDGE_CURVE('',#275,#267,#277,.T.);
#275 = VERTEX_POINT('',#276);
#276 = CARTESIAN_POINT('',(14.7,13.8,31.355243618919));
#277 = LINE('',#278,#279);
#278 = CARTESIAN_POINT('',(14.7,13.8,31.355243618919));
#279 = VECTOR('',#280,1.);
#280 = DIRECTION('',(1.,0.,0.));
#281 = ORIENTED_EDGE('',*,*,#282,.T.);
#282 = EDGE_CURVE('',#275,#283,#285,.T.);
#283 = VERTEX_POINT('',#284);
#284 = CARTESIAN_POINT('',(14.7,13.8,18.644756381081));
#285 = LINE('',#286,#287);
#286 = CARTESIAN_POINT('',(14.7,13.8,20.5125));
#287 = VECTOR('',#288,1.);
#288 = DIRECTION('',(0.,0.,-1.));
#289 = ORIENTED_EDGE('',*,*,#290,.T.);
#290 = EDGE_CURVE('',#283,#256,#291,.T.);
#291 = LINE('',#292,#293);
#292 = CARTESIAN_POINT('',(14.7,13.8,18.644756381081));
#293 = VECTOR('',#294,1.);
#294 = DIRECTION('',(1.,0.,0.));
#295 = PLANE('',#296);
#296 = AXIS2_PLACEMENT_3D('',#297,#298,#299);
#297 = CARTESIAN_POINT('',(12.5,13.8,16.025));
#298 = DIRECTION('',(0.,1.,0.));
#299 = DIRECTION('',(0.,0.,1.));
#300 = ADVANCED_FACE('',(#301),#328,.F.);
#301 = FACE_BOUND('',#302,.F.);
#302 = EDGE_LOOP('',(#303,#304,#313,#321,#327));
#303 = ORIENTED_EDGE('',*,*,#266,.F.);
#304 = ORIENTED_EDGE('',*,*,#305,.F.);
#305 = EDGE_CURVE('',#306,#267,#308,.T.);
#306 = VERTEX_POINT('',#307);
#307 = CARTESIAN_POINT('',(18.,14.345,31.475));
#308 = CIRCLE('',#309,1.3);
#309 = AXIS2_PLACEMENT_3D('',#310,#311,#312);
#310 = CARTESIAN_POINT('',(18.,14.345,30.175));
#311 = DIRECTION('',(1.,0.,-0.));
#312 = DIRECTION('',(0.,0.,1.));
#313 = ORIENTED_EDGE('',*,*,#314,.T.);
#314 = EDGE_CURVE('',#306,#315,#317,.T.);
#315 = VERTEX_POINT('',#316);
#316 = CARTESIAN_POINT('',(18.,15.6,31.475));
#317 = LINE('',#318,#319);
#318 = CARTESIAN_POINT('',(18.,14.0725,31.475));
#319 = VECTOR('',#320,1.);
#320 = DIRECTION('',(0.,1.,0.));
#321 = ORIENTED_EDGE('',*,*,#322,.T.);
#322 = EDGE_CURVE('',#315,#96,#323,.T.);
#323 = LINE('',#324,#325);
#324 = CARTESIAN_POINT('',(18.,15.6,16.025));
#325 = VECTOR('',#326,1.);
#326 = DIRECTION('',(0.,0.,1.));
#327 = ORIENTED_EDGE('',*,*,#103,.F.);
#328 = PLANE('',#329);
#329 = AXIS2_PLACEMENT_3D('',#330,#331,#332);
#330 = CARTESIAN_POINT('',(18.,13.8,16.025));
#331 = DIRECTION('',(1.,0.,0.));
#332 = DIRECTION('',(0.,0.,1.));
#333 = ADVANCED_FACE('',(#334),#352,.F.);
#334 = FACE_BOUND('',#335,.F.);
#335 = EDGE_LOOP('',(#336,#344,#345,#346));
#336 = ORIENTED_EDGE('',*,*,#337,.F.);
#337 = EDGE_CURVE('',#88,#338,#340,.T.);
#338 = VERTEX_POINT('',#339);
#339 = CARTESIAN_POINT('',(17.,15.6,31.475));
#340 = LINE('',#341,#342);
#341 = CARTESIAN_POINT('',(17.,15.6,24.0625));
#342 = VECTOR('',#343,1.);
#343 = DIRECTION('',(0.,0.,-1.));
#344 = ORIENTED_EDGE('',*,*,#95,.F.);
#345 = ORIENTED_EDGE('',*,*,#322,.F.);
#346 = ORIENTED_EDGE('',*,*,#347,.T.);
#347 = EDGE_CURVE('',#315,#338,#348,.T.);
#348 = LINE('',#349,#350);
#349 = CARTESIAN_POINT('',(13.6,15.6,31.475));
#350 = VECTOR('',#351,1.);
#351 = DIRECTION('',(-1.,0.,0.));
#352 = PLANE('',#353);
#353 = AXIS2_PLACEMENT_3D('',#354,#355,#356);
#354 = CARTESIAN_POINT('',(12.5,15.6,16.025));
#355 = DIRECTION('',(0.,1.,0.));
#356 = DIRECTION('',(0.,0.,1.));
#357 = ADVANCED_FACE('',(#358),#383,.T.);
#358 = FACE_BOUND('',#359,.T.);
#359 = EDGE_LOOP('',(#360,#370,#376,#377));
#360 = ORIENTED_EDGE('',*,*,#361,.T.);
#361 = EDGE_CURVE('',#362,#364,#366,.T.);
#362 = VERTEX_POINT('',#363);
#363 = CARTESIAN_POINT('',(18.738129575814,16.85,31.475));
#364 = VERTEX_POINT('',#365);
#365 = CARTESIAN_POINT('',(17.,16.85,31.475));
#366 = LINE('',#367,#368);
#367 = CARTESIAN_POINT('',(15.712378549193,16.85,31.475));
#368 = VECTOR('',#369,1.);
#369 = DIRECTION('',(-1.,0.,0.));
#370 = ORIENTED_EDGE('',*,*,#371,.T.);
#371 = EDGE_CURVE('',#364,#80,#372,.T.);
#372 = LINE('',#373,#374);
#373 = CARTESIAN_POINT('',(17.,16.85,31.465));
#374 = VECTOR('',#375,1.);
#375 = DIRECTION('',(0.,0.,1.));
#376 = ORIENTED_EDGE('',*,*,#79,.F.);
#377 = ORIENTED_EDGE('',*,*,#378,.F.);
#378 = EDGE_CURVE('',#362,#71,#379,.T.);
#379 = LINE('',#380,#381);
#380 = CARTESIAN_POINT('',(18.738129575814,16.85,16.025));
#381 = VECTOR('',#382,1.);
#382 = DIRECTION('',(0.,0.,1.));
#383 = PLANE('',#384);
#384 = AXIS2_PLACEMENT_3D('',#385,#386,#387);
#385 = CARTESIAN_POINT('',(16.724757098386,16.85,31.465));
#386 = DIRECTION('',(0.,1.,0.));
#387 = DIRECTION('',(0.,0.,1.));
#388 = ADVANCED_FACE('',(#389),#495,.T.);
#389 = FACE_BOUND('',#390,.T.);
#390 = EDGE_LOOP('',(#391,#392,#393,#401,#410,#419,#446,#454,#486,#493,
    #494));
#391 = ORIENTED_EDGE('',*,*,#241,.F.);
#392 = ORIENTED_EDGE('',*,*,#166,.T.);
#393 = ORIENTED_EDGE('',*,*,#394,.T.);
#394 = EDGE_CURVE('',#167,#395,#397,.T.);
#395 = VERTEX_POINT('',#396);
#396 = CARTESIAN_POINT('',(15.199671049072,20.1,18.525));
#397 = LINE('',#398,#399);
#398 = CARTESIAN_POINT('',(15.199671049072,20.1,16.025));
#399 = VECTOR('',#400,1.);
#400 = DIRECTION('',(0.,0.,1.));
#401 = ORIENTED_EDGE('',*,*,#402,.F.);
#402 = EDGE_CURVE('',#403,#395,#405,.T.);
#403 = VERTEX_POINT('',#404);
#404 = CARTESIAN_POINT('',(16.730390760529,18.845,18.525));
#405 = CIRCLE('',#406,25.2);
#406 = AXIS2_PLACEMENT_3D('',#407,#408,#409);
#407 = CARTESIAN_POINT('',(0.,0.,18.525));
#408 = DIRECTION('',(0.,0.,1.));
#409 = DIRECTION('',(1.,0.,0.));
#410 = ORIENTED_EDGE('',*,*,#411,.F.);
#411 = EDGE_CURVE('',#412,#403,#414,.T.);
#412 = VERTEX_POINT('',#413);
#413 = CARTESIAN_POINT('',(20.718614215241,14.345,18.525));
#414 = CIRCLE('',#415,25.2);
#415 = AXIS2_PLACEMENT_3D('',#416,#417,#418);
#416 = CARTESIAN_POINT('',(0.,0.,18.525));
#417 = DIRECTION('',(0.,0.,1.));
#418 = DIRECTION('',(1.,0.,0.));
#419 = ORIENTED_EDGE('',*,*,#420,.F.);
#420 = EDGE_CURVE('',#421,#412,#423,.T.);
#421 = VERTEX_POINT('',#422);
#422 = CARTESIAN_POINT('',(21.56079717914,13.045,19.825));
#423 = B_SPLINE_CURVE_WITH_KNOTS('',6,(#424,#425,#426,#427,#428,#429,
    #430,#431,#432,#433,#434,#435,#436,#437,#438,#439,#440,#441,#442,
    #443,#444,#445),.UNSPECIFIED.,.F.,.F.,(7,5,5,5,7),(0.,0.368368467487
    ,0.488005834039,0.715923848938,1.),.UNSPECIFIED.);
#424 = CARTESIAN_POINT('',(21.56079717914,13.045,19.825));
#425 = CARTESIAN_POINT('',(21.56079717914,13.045,19.70143375905));
#426 = CARTESIAN_POINT('',(21.552269708129,13.059094186174,
    19.577765046013));
#427 = CARTESIAN_POINT('',(21.535188695653,13.087325861558,
    19.455900372825));
#428 = CARTESIAN_POINT('',(21.509615473881,13.12943692966,
    19.337740825436));
#429 = CARTESIAN_POINT('',(21.475689312285,13.184883746404,
    19.22513108955));
#430 = CARTESIAN_POINT('',(21.419992370825,13.27496142887,
    19.085625400412));
#431 = CARTESIAN_POINT('',(21.405487338251,13.298359214678,
    19.052208657829));
#432 = CARTESIAN_POINT('',(21.390143239367,13.32303899234,
    19.019641512704));
#433 = CARTESIAN_POINT('',(21.373974802535,13.348962447558,
    18.987988259448));
#434 = CARTESIAN_POINT('',(21.356999935715,13.376085696751,
    18.957311748774));
#435 = CARTESIAN_POINT('',(21.305405216788,13.458222563737,
    18.87121012194));
#436 = CARTESIAN_POINT('',(21.268709312485,13.516278865337,
    18.818495125709));
#437 = CARTESIAN_POINT('',(21.229313728174,13.578162416541,18.7699813246
    ));
#438 = CARTESIAN_POINT('',(21.187418803367,13.643446527146,
    18.726051531331));
#439 = CARTESIAN_POINT('',(21.143265291617,13.711653684182,
    18.687015727903));
#440 = CARTESIAN_POINT('',(21.039640961747,13.870276123492,
    18.610846317482));
#441 = CARTESIAN_POINT('',(20.979114455981,13.961965021899,
    18.576578568989));
#442 = CARTESIAN_POINT('',(20.916094990831,14.056343350065,
    18.550725417063));
#443 = CARTESIAN_POINT('',(20.85120469705,14.152356613865,18.53351995757
    ));
#444 = CARTESIAN_POINT('',(20.785132012215,14.248927739705,18.525));
#445 = CARTESIAN_POINT('',(20.718614215241,14.345,18.525));
#446 = ORIENTED_EDGE('',*,*,#447,.T.);
#447 = EDGE_CURVE('',#421,#448,#450,.T.);
#448 = VERTEX_POINT('',#449);
#449 = CARTESIAN_POINT('',(21.56079717914,13.045,30.175));
#450 = LINE('',#451,#452);
#451 = CARTESIAN_POINT('',(21.56079717914,13.045,16.025));
#452 = VECTOR('',#453,1.);
#453 = DIRECTION('',(0.,0.,1.));
#454 = ORIENTED_EDGE('',*,*,#455,.F.);
#455 = EDGE_CURVE('',#456,#448,#458,.T.);
#456 = VERTEX_POINT('',#457);
#457 = CARTESIAN_POINT('',(20.718614215241,14.345,31.475));
#458 = B_SPLINE_CURVE_WITH_KNOTS('',6,(#459,#460,#461,#462,#463,#464,
    #465,#466,#467,#468,#469,#470,#471,#472,#473,#474,#475,#476,#477,
    #478,#479,#480,#481,#482,#483,#484,#485),.UNSPECIFIED.,.F.,.F.,(7,5,
    5,5,5,7),(0.,9.522198689977E-02,0.284041873769,0.511968856077,
    0.629110576897,1.),.UNSPECIFIED.);
#459 = CARTESIAN_POINT('',(20.718614215241,14.345,31.475));
#460 = CARTESIAN_POINT('',(20.74091920287,14.312784703119,31.475));
#461 = CARTESIAN_POINT('',(20.7631687512,14.28052104658,31.474042063962)
  );
#462 = CARTESIAN_POINT('',(20.785337557283,14.248245461375,
    31.472120633183));
#463 = CARTESIAN_POINT('',(20.807400340392,14.215995337979,
    31.469232326494));
#464 = CARTESIAN_POINT('',(20.829331842021,14.183809026351,
    31.465375940258));
#465 = CARTESIAN_POINT('',(20.894285403904,14.088106659499,
    31.45098773309));
#466 = CARTESIAN_POINT('',(20.936856288004,14.024881596657,
    31.437618738352));
#467 = CARTESIAN_POINT('',(20.978611883348,13.962372681332,
    31.420454696827));
#468 = CARTESIAN_POINT('',(21.019359541971,13.900896754012,
    31.399545528545));
#469 = CARTESIAN_POINT('',(21.058921722468,13.840762192727,
    31.374981294832));
#470 = CARTESIAN_POINT('',(21.143265290068,13.711653686552,
    31.312984273235));
#471 = CARTESIAN_POINT('',(21.187418800632,13.643446531374,
    31.273948471119));
#472 = CARTESIAN_POINT('',(21.229313724875,13.578162421697,
    31.23001867903));
#473 = CARTESIAN_POINT('',(21.268709309436,13.516278870149,
    31.181504878412));
#474 = CARTESIAN_POINT('',(21.305405214876,13.458222566781,
    31.128789881251));
#475 = CARTESIAN_POINT('',(21.356628773038,13.37667657388,31.04330765009
    ));
#476 = CARTESIAN_POINT('',(21.373264966663,13.350096616613,
    31.013293484023));
#477 = CARTESIAN_POINT('',(21.389128501524,13.324665842323,
    30.982341732429));
#478 = CARTESIAN_POINT('',(21.40420250376,13.300425552584,
    30.950511357175));
#479 = CARTESIAN_POINT('',(21.418473031464,13.277411923471,
    30.917862663673));
#480 = CARTESIAN_POINT('',(21.4745330596,13.186773289936,30.778690579628
    ));
#481 = CARTESIAN_POINT('',(21.508918057119,13.130585330957,
    30.665469396786));
#482 = CARTESIAN_POINT('',(21.534839536868,13.087902958908,
    30.546582991719));
#483 = CARTESIAN_POINT('',(21.55215367887,13.059285957611,
    30.423914056501));
#484 = CARTESIAN_POINT('',(21.56079717914,13.045,30.2994040341));
#485 = CARTESIAN_POINT('',(21.56079717914,13.045,30.175));
#486 = ORIENTED_EDGE('',*,*,#487,.T.);
#487 = EDGE_CURVE('',#456,#362,#488,.T.);
#488 = CIRCLE('',#489,25.2);
#489 = AXIS2_PLACEMENT_3D('',#490,#491,#492);
#490 = CARTESIAN_POINT('',(0.,0.,31.475));
#491 = DIRECTION('',(0.,0.,1.));
#492 = DIRECTION('',(1.,0.,0.));
#493 = ORIENTED_EDGE('',*,*,#378,.T.);
#494 = ORIENTED_EDGE('',*,*,#70,.F.);
#495 = CYLINDRICAL_SURFACE('',#496,25.2);
#496 = AXIS2_PLACEMENT_3D('',#497,#498,#499);
#497 = CARTESIAN_POINT('',(0.,0.,16.025));
#498 = DIRECTION('',(0.,0.,1.));
#499 = DIRECTION('',(1.,0.,0.));
#500 = ADVANCED_FACE('',(#501),#528,.F.);
#501 = FACE_BOUND('',#502,.F.);
#502 = EDGE_LOOP('',(#503,#504,#505,#513,#521));
#503 = ORIENTED_EDGE('',*,*,#255,.F.);
#504 = ORIENTED_EDGE('',*,*,#215,.T.);
#505 = ORIENTED_EDGE('',*,*,#506,.T.);
#506 = EDGE_CURVE('',#208,#507,#509,.T.);
#507 = VERTEX_POINT('',#508);
#508 = CARTESIAN_POINT('',(18.,15.6,18.525));
#509 = LINE('',#510,#511);
#510 = CARTESIAN_POINT('',(18.,15.6,16.025));
#511 = VECTOR('',#512,1.);
#512 = DIRECTION('',(0.,0.,1.));
#513 = ORIENTED_EDGE('',*,*,#514,.F.);
#514 = EDGE_CURVE('',#515,#507,#517,.T.);
#515 = VERTEX_POINT('',#516);
#516 = CARTESIAN_POINT('',(18.,14.345,18.525));
#517 = LINE('',#518,#519);
#518 = CARTESIAN_POINT('',(18.,14.0725,18.525));
#519 = VECTOR('',#520,1.);
#520 = DIRECTION('',(0.,1.,0.));
#521 = ORIENTED_EDGE('',*,*,#522,.F.);
#522 = EDGE_CURVE('',#256,#515,#523,.T.);
#523 = CIRCLE('',#524,1.3);
#524 = AXIS2_PLACEMENT_3D('',#525,#526,#527);
#525 = CARTESIAN_POINT('',(18.,14.345,19.825));
#526 = DIRECTION('',(1.,0.,-0.));
#527 = DIRECTION('',(0.,0.,1.));
#528 = PLANE('',#529);
#529 = AXIS2_PLACEMENT_3D('',#530,#531,#532);
#530 = CARTESIAN_POINT('',(18.,13.8,16.025));
#531 = DIRECTION('',(1.,0.,0.));
#532 = DIRECTION('',(0.,0.,1.));
#533 = ADVANCED_FACE('',(#534),#552,.F.);
#534 = FACE_BOUND('',#535,.F.);
#535 = EDGE_LOOP('',(#536,#537,#538,#546));
#536 = ORIENTED_EDGE('',*,*,#506,.F.);
#537 = ORIENTED_EDGE('',*,*,#207,.T.);
#538 = ORIENTED_EDGE('',*,*,#539,.F.);
#539 = EDGE_CURVE('',#540,#200,#542,.T.);
#540 = VERTEX_POINT('',#541);
#541 = CARTESIAN_POINT('',(17.,15.6,18.525));
#542 = LINE('',#543,#544);
#543 = CARTESIAN_POINT('',(17.,15.6,16.025));
#544 = VECTOR('',#545,1.);
#545 = DIRECTION('',(0.,0.,-1.));
#546 = ORIENTED_EDGE('',*,*,#547,.F.);
#547 = EDGE_CURVE('',#507,#540,#548,.T.);
#548 = LINE('',#549,#550);
#549 = CARTESIAN_POINT('',(13.6,15.6,18.525));
#550 = VECTOR('',#551,1.);
#551 = DIRECTION('',(-1.,0.,0.));
#552 = PLANE('',#553);
#553 = AXIS2_PLACEMENT_3D('',#554,#555,#556);
#554 = CARTESIAN_POINT('',(12.5,15.6,16.025));
#555 = DIRECTION('',(0.,1.,0.));
#556 = DIRECTION('',(0.,0.,1.));
#557 = ADVANCED_FACE('',(#558),#731,.F.);
#558 = FACE_BOUND('',#559,.F.);
#559 = EDGE_LOOP('',(#560,#570,#578,#586,#594,#602,#610,#619,#627,#636,
    #644,#652,#660,#668,#676,#685,#693,#702,#710,#718,#724,#725));
#560 = ORIENTED_EDGE('',*,*,#561,.F.);
#561 = EDGE_CURVE('',#562,#564,#566,.T.);
#562 = VERTEX_POINT('',#563);
#563 = CARTESIAN_POINT('',(13.5,17.85,32.975));
#564 = VERTEX_POINT('',#565);
#565 = CARTESIAN_POINT('',(13.5,20.1,32.975));
#566 = LINE('',#567,#568);
#567 = CARTESIAN_POINT('',(13.5,11.845,32.975));
#568 = VECTOR('',#569,1.);
#569 = DIRECTION('',(0.,1.,0.));
#570 = ORIENTED_EDGE('',*,*,#571,.F.);
#571 = EDGE_CURVE('',#572,#562,#574,.T.);
#572 = VERTEX_POINT('',#573);
#573 = CARTESIAN_POINT('',(13.5,17.85,32.1));
#574 = LINE('',#575,#576);
#575 = CARTESIAN_POINT('',(13.5,17.85,24.5625));
#576 = VECTOR('',#577,1.);
#577 = DIRECTION('',(0.,0.,1.));
#578 = ORIENTED_EDGE('',*,*,#579,.T.);
#579 = EDGE_CURVE('',#572,#580,#582,.T.);
#580 = VERTEX_POINT('',#581);
#581 = CARTESIAN_POINT('',(13.5,16.07,32.1));
#582 = LINE('',#583,#584);
#583 = CARTESIAN_POINT('',(13.5,13.3675,32.1));
#584 = VECTOR('',#585,1.);
#585 = DIRECTION('',(0.,-1.,0.));
#586 = ORIENTED_EDGE('',*,*,#587,.F.);
#587 = EDGE_CURVE('',#588,#580,#590,.T.);
#588 = VERTEX_POINT('',#589);
#589 = CARTESIAN_POINT('',(13.5,16.07,31.465));
#590 = LINE('',#591,#592);
#591 = CARTESIAN_POINT('',(13.5,16.07,24.245));
#592 = VECTOR('',#593,1.);
#593 = DIRECTION('',(0.,0.,1.));
#594 = ORIENTED_EDGE('',*,*,#595,.T.);
#595 = EDGE_CURVE('',#588,#596,#598,.T.);
#596 = VERTEX_POINT('',#597);
#597 = CARTESIAN_POINT('',(13.5,15.6,31.465));
#598 = LINE('',#599,#600);
#599 = CARTESIAN_POINT('',(13.5,13.3675,31.465));
#600 = VECTOR('',#601,1.);
#601 = DIRECTION('',(0.,-1.,0.));
#602 = ORIENTED_EDGE('',*,*,#603,.F.);
#603 = EDGE_CURVE('',#604,#596,#606,.T.);
#604 = VERTEX_POINT('',#605);
#605 = CARTESIAN_POINT('',(13.5,15.6,29.224983443527));
#606 = LINE('',#607,#608);
#607 = CARTESIAN_POINT('',(13.5,15.6,16.525));
#608 = VECTOR('',#609,1.);
#609 = DIRECTION('',(0.,0.,1.));
#610 = ORIENTED_EDGE('',*,*,#611,.F.);
#611 = EDGE_CURVE('',#612,#604,#614,.T.);
#612 = VERTEX_POINT('',#613);
#613 = CARTESIAN_POINT('',(13.5,16.4,29.57));
#614 = CIRCLE('',#615,1.1);
#615 = AXIS2_PLACEMENT_3D('',#616,#617,#618);
#616 = CARTESIAN_POINT('',(13.5,16.4,28.47));
#617 = DIRECTION('',(1.,0.,-0.));
#618 = DIRECTION('',(0.,0.,1.));
#619 = ORIENTED_EDGE('',*,*,#620,.F.);
#620 = EDGE_CURVE('',#621,#612,#623,.T.);
#621 = VERTEX_POINT('',#622);
#622 = CARTESIAN_POINT('',(13.5,17.65,29.57));
#623 = LINE('',#624,#625);
#624 = CARTESIAN_POINT('',(13.5,14.1225,29.57));
#625 = VECTOR('',#626,1.);
#626 = DIRECTION('',(0.,-1.,0.));
#627 = ORIENTED_EDGE('',*,*,#628,.F.);
#628 = EDGE_CURVE('',#629,#621,#631,.T.);
#629 = VERTEX_POINT('',#630);
#630 = CARTESIAN_POINT('',(13.5,18.75,28.47));
#631 = CIRCLE('',#632,1.1);
#632 = AXIS2_PLACEMENT_3D('',#633,#634,#635);
#633 = CARTESIAN_POINT('',(13.5,17.65,28.47));
#634 = DIRECTION('',(1.,0.,-0.));
#635 = DIRECTION('',(0.,0.,1.));
#636 = ORIENTED_EDGE('',*,*,#637,.T.);
#637 = EDGE_CURVE('',#629,#638,#640,.T.);
#638 = VERTEX_POINT('',#639);
#639 = CARTESIAN_POINT('',(13.5,18.75,29.));
#640 = LINE('',#641,#642);
#641 = CARTESIAN_POINT('',(13.5,18.75,19.0125));
#642 = VECTOR('',#643,1.);
#643 = DIRECTION('',(0.,0.,1.));
#644 = ORIENTED_EDGE('',*,*,#645,.F.);
#645 = EDGE_CURVE('',#646,#638,#648,.T.);
#646 = VERTEX_POINT('',#647);
#647 = CARTESIAN_POINT('',(13.5,19.55,29.));
#648 = LINE('',#649,#650);
#649 = CARTESIAN_POINT('',(13.5,15.2975,29.));
#650 = VECTOR('',#651,1.);
#651 = DIRECTION('',(0.,-1.,0.));
#652 = ORIENTED_EDGE('',*,*,#653,.F.);
#653 = EDGE_CURVE('',#654,#646,#656,.T.);
#654 = VERTEX_POINT('',#655);
#655 = CARTESIAN_POINT('',(13.5,19.55,21.));
#656 = LINE('',#657,#658);
#657 = CARTESIAN_POINT('',(13.5,19.55,19.0125));
#658 = VECTOR('',#659,1.);
#659 = DIRECTION('',(0.,0.,1.));
#660 = ORIENTED_EDGE('',*,*,#661,.T.);
#661 = EDGE_CURVE('',#654,#662,#664,.T.);
#662 = VERTEX_POINT('',#663);
#663 = CARTESIAN_POINT('',(13.5,18.75,21.));
#664 = LINE('',#665,#666);
#665 = CARTESIAN_POINT('',(13.5,15.2975,21.));
#666 = VECTOR('',#667,1.);
#667 = DIRECTION('',(0.,-1.,0.));
#668 = ORIENTED_EDGE('',*,*,#669,.T.);
#669 = EDGE_CURVE('',#662,#670,#672,.T.);
#670 = VERTEX_POINT('',#671);
#671 = CARTESIAN_POINT('',(13.5,18.75,21.53));
#672 = LINE('',#673,#674);
#673 = CARTESIAN_POINT('',(13.5,18.75,19.0125));
#674 = VECTOR('',#675,1.);
#675 = DIRECTION('',(0.,0.,1.));
#676 = ORIENTED_EDGE('',*,*,#677,.F.);
#677 = EDGE_CURVE('',#678,#670,#680,.T.);
#678 = VERTEX_POINT('',#679);
#679 = CARTESIAN_POINT('',(13.5,17.65,20.43));
#680 = CIRCLE('',#681,1.1);
#681 = AXIS2_PLACEMENT_3D('',#682,#683,#684);
#682 = CARTESIAN_POINT('',(13.5,17.65,21.53));
#683 = DIRECTION('',(1.,0.,-0.));
#684 = DIRECTION('',(0.,0.,1.));
#685 = ORIENTED_EDGE('',*,*,#686,.T.);
#686 = EDGE_CURVE('',#678,#687,#689,.T.);
#687 = VERTEX_POINT('',#688);
#688 = CARTESIAN_POINT('',(13.5,16.4,20.43));
#689 = LINE('',#690,#691);
#690 = CARTESIAN_POINT('',(13.5,14.1225,20.43));
#691 = VECTOR('',#692,1.);
#692 = DIRECTION('',(0.,-1.,0.));
#693 = ORIENTED_EDGE('',*,*,#694,.F.);
#694 = EDGE_CURVE('',#695,#687,#697,.T.);
#695 = VERTEX_POINT('',#696);
#696 = CARTESIAN_POINT('',(13.5,15.6,20.775016556473));
#697 = CIRCLE('',#698,1.1);
#698 = AXIS2_PLACEMENT_3D('',#699,#700,#701);
#699 = CARTESIAN_POINT('',(13.5,16.4,21.53));
#700 = DIRECTION('',(1.,0.,-0.));
#701 = DIRECTION('',(0.,0.,1.));
#702 = ORIENTED_EDGE('',*,*,#703,.F.);
#703 = EDGE_CURVE('',#704,#695,#706,.T.);
#704 = VERTEX_POINT('',#705);
#705 = CARTESIAN_POINT('',(13.5,15.6,18.15));
#706 = LINE('',#707,#708);
#707 = CARTESIAN_POINT('',(13.5,15.6,16.525));
#708 = VECTOR('',#709,1.);
#709 = DIRECTION('',(0.,0.,1.));
#710 = ORIENTED_EDGE('',*,*,#711,.F.);
#711 = EDGE_CURVE('',#712,#704,#714,.T.);
#712 = VERTEX_POINT('',#713);
#713 = CARTESIAN_POINT('',(13.5,16.25,18.15));
#714 = LINE('',#715,#716);
#715 = CARTESIAN_POINT('',(13.5,13.3725,18.15));
#716 = VECTOR('',#717,1.);
#717 = DIRECTION('',(0.,-1.,0.));
#718 = ORIENTED_EDGE('',*,*,#719,.F.);
#719 = EDGE_CURVE('',#184,#712,#720,.T.);
#720 = LINE('',#721,#722);
#721 = CARTESIAN_POINT('',(13.5,16.25,16.8375));
#722 = VECTOR('',#723,1.);
#723 = DIRECTION('',(0.,0.,1.));
#724 = ORIENTED_EDGE('',*,*,#183,.T.);
#725 = ORIENTED_EDGE('',*,*,#726,.T.);
#726 = EDGE_CURVE('',#176,#564,#727,.T.);
#727 = LINE('',#728,#729);
#728 = CARTESIAN_POINT('',(13.5,20.1,17.025));
#729 = VECTOR('',#730,1.);
#730 = DIRECTION('',(0.,0.,1.));
#731 = PLANE('',#732);
#732 = AXIS2_PLACEMENT_3D('',#733,#734,#735);
#733 = CARTESIAN_POINT('',(13.5,11.845,17.025));
#734 = DIRECTION('',(1.,0.,0.));
#735 = DIRECTION('',(0.,0.,1.));
#736 = ADVANCED_FACE('',(#737),#780,.T.);
#737 = FACE_BOUND('',#738,.T.);
#738 = EDGE_LOOP('',(#739,#740,#741,#749,#757,#765,#773,#779));
#739 = ORIENTED_EDGE('',*,*,#175,.F.);
#740 = ORIENTED_EDGE('',*,*,#726,.T.);
#741 = ORIENTED_EDGE('',*,*,#742,.T.);
#742 = EDGE_CURVE('',#564,#743,#745,.T.);
#743 = VERTEX_POINT('',#744);
#744 = CARTESIAN_POINT('',(15.199671049072,20.1,32.975));
#745 = LINE('',#746,#747);
#746 = CARTESIAN_POINT('',(13.5,20.1,32.975));
#747 = VECTOR('',#748,1.);
#748 = DIRECTION('',(1.,0.,0.));
#749 = ORIENTED_EDGE('',*,*,#750,.F.);
#750 = EDGE_CURVE('',#751,#743,#753,.T.);
#751 = VERTEX_POINT('',#752);
#752 = CARTESIAN_POINT('',(15.199671049072,20.1,31.475));
#753 = LINE('',#754,#755);
#754 = CARTESIAN_POINT('',(15.199671049072,20.1,16.025));
#755 = VECTOR('',#756,1.);
#756 = DIRECTION('',(0.,0.,1.));
#757 = ORIENTED_EDGE('',*,*,#758,.F.);
#758 = EDGE_CURVE('',#759,#751,#761,.T.);
#759 = VERTEX_POINT('',#760);
#760 = CARTESIAN_POINT('',(14.7,20.1,31.475));
#761 = LINE('',#762,#763);
#762 = CARTESIAN_POINT('',(14.1,20.1,31.475));
#763 = VECTOR('',#764,1.);
#764 = DIRECTION('',(1.,0.,0.));
#765 = ORIENTED_EDGE('',*,*,#766,.T.);
#766 = EDGE_CURVE('',#759,#767,#769,.T.);
#767 = VERTEX_POINT('',#768);
#768 = CARTESIAN_POINT('',(14.7,20.1,18.525));
#769 = LINE('',#770,#771);
#770 = CARTESIAN_POINT('',(14.7,20.1,17.775));
#771 = VECTOR('',#772,1.);
#772 = DIRECTION('',(0.,0.,-1.));
#773 = ORIENTED_EDGE('',*,*,#774,.T.);
#774 = EDGE_CURVE('',#767,#395,#775,.T.);
#775 = LINE('',#776,#777);
#776 = CARTESIAN_POINT('',(14.1,20.1,18.525));
#777 = VECTOR('',#778,1.);
#778 = DIRECTION('',(1.,0.,0.));
#779 = ORIENTED_EDGE('',*,*,#394,.F.);
#780 = PLANE('',#781);
#781 = AXIS2_PLACEMENT_3D('',#782,#783,#784);
#782 = CARTESIAN_POINT('',(13.5,20.1,17.025));
#783 = DIRECTION('',(0.,1.,0.));
#784 = DIRECTION('',(0.,0.,1.));
#785 = ADVANCED_FACE('',(#786),#812,.F.);
#786 = FACE_BOUND('',#787,.F.);
#787 = EDGE_LOOP('',(#788,#789,#797,#804,#805,#806));
#788 = ORIENTED_EDGE('',*,*,#420,.F.);
#789 = ORIENTED_EDGE('',*,*,#790,.F.);
#790 = EDGE_CURVE('',#791,#421,#793,.T.);
#791 = VERTEX_POINT('',#792);
#792 = CARTESIAN_POINT('',(14.7,13.045,19.825));
#793 = LINE('',#794,#795);
#794 = CARTESIAN_POINT('',(14.7,13.045,19.825));
#795 = VECTOR('',#796,1.);
#796 = DIRECTION('',(1.,0.,0.));
#797 = ORIENTED_EDGE('',*,*,#798,.T.);
#798 = EDGE_CURVE('',#791,#283,#799,.T.);
#799 = CIRCLE('',#800,1.3);
#800 = AXIS2_PLACEMENT_3D('',#801,#802,#803);
#801 = CARTESIAN_POINT('',(14.7,14.345,19.825));
#802 = DIRECTION('',(1.,0.,-0.));
#803 = DIRECTION('',(0.,0.,1.));
#804 = ORIENTED_EDGE('',*,*,#290,.T.);
#805 = ORIENTED_EDGE('',*,*,#522,.T.);
#806 = ORIENTED_EDGE('',*,*,#807,.T.);
#807 = EDGE_CURVE('',#515,#412,#808,.T.);
#808 = LINE('',#809,#810);
#809 = CARTESIAN_POINT('',(14.7,14.345,18.525));
#810 = VECTOR('',#811,1.);
#811 = DIRECTION('',(1.,0.,0.));
#812 = CYLINDRICAL_SURFACE('',#813,1.3);
#813 = AXIS2_PLACEMENT_3D('',#814,#815,#816);
#814 = CARTESIAN_POINT('',(14.7,14.345,19.825));
#815 = DIRECTION('',(1.,0.,0.));
#816 = DIRECTION('',(0.,0.,1.));
#817 = ADVANCED_FACE('',(#818),#837,.F.);
#818 = FACE_BOUND('',#819,.F.);
#819 = EDGE_LOOP('',(#820,#821,#822,#830));
#820 = ORIENTED_EDGE('',*,*,#282,.T.);
#821 = ORIENTED_EDGE('',*,*,#798,.F.);
#822 = ORIENTED_EDGE('',*,*,#823,.T.);
#823 = EDGE_CURVE('',#791,#824,#826,.T.);
#824 = VERTEX_POINT('',#825);
#825 = CARTESIAN_POINT('',(14.7,13.045,30.175));
#826 = LINE('',#827,#828);
#827 = CARTESIAN_POINT('',(14.7,13.045,19.825));
#828 = VECTOR('',#829,1.);
#829 = DIRECTION('',(0.,0.,1.));
#830 = ORIENTED_EDGE('',*,*,#831,.F.);
#831 = EDGE_CURVE('',#275,#824,#832,.T.);
#832 = CIRCLE('',#833,1.3);
#833 = AXIS2_PLACEMENT_3D('',#834,#835,#836);
#834 = CARTESIAN_POINT('',(14.7,14.345,30.175));
#835 = DIRECTION('',(1.,0.,-0.));
#836 = DIRECTION('',(0.,0.,1.));
#837 = PLANE('',#838);
#838 = AXIS2_PLACEMENT_3D('',#839,#840,#841);
#839 = CARTESIAN_POINT('',(14.7,16.595,25.));
#840 = DIRECTION('',(-1.,-0.,-0.));
#841 = DIRECTION('',(0.,0.,-1.));
#842 = ADVANCED_FACE('',(#843),#861,.F.);
#843 = FACE_BOUND('',#844,.F.);
#844 = EDGE_LOOP('',(#845,#846,#852,#853,#854,#855));
#845 = ORIENTED_EDGE('',*,*,#455,.F.);
#846 = ORIENTED_EDGE('',*,*,#847,.F.);
#847 = EDGE_CURVE('',#306,#456,#848,.T.);
#848 = LINE('',#849,#850);
#849 = CARTESIAN_POINT('',(14.7,14.345,31.475));
#850 = VECTOR('',#851,1.);
#851 = DIRECTION('',(1.,0.,0.));
#852 = ORIENTED_EDGE('',*,*,#305,.T.);
#853 = ORIENTED_EDGE('',*,*,#274,.F.);
#854 = ORIENTED_EDGE('',*,*,#831,.T.);
#855 = ORIENTED_EDGE('',*,*,#856,.T.);
#856 = EDGE_CURVE('',#824,#448,#857,.T.);
#857 = LINE('',#858,#859);
#858 = CARTESIAN_POINT('',(14.7,13.045,30.175));
#859 = VECTOR('',#860,1.);
#860 = DIRECTION('',(1.,0.,0.));
#861 = CYLINDRICAL_SURFACE('',#862,1.3);
#862 = AXIS2_PLACEMENT_3D('',#863,#864,#865);
#863 = CARTESIAN_POINT('',(14.7,14.345,30.175));
#864 = DIRECTION('',(1.,0.,0.));
#865 = DIRECTION('',(0.,0.,1.));
#866 = ADVANCED_FACE('',(#867),#880,.F.);
#867 = FACE_BOUND('',#868,.F.);
#868 = EDGE_LOOP('',(#869,#875,#876,#877,#878,#879));
#869 = ORIENTED_EDGE('',*,*,#870,.F.);
#870 = EDGE_CURVE('',#338,#364,#871,.T.);
#871 = LINE('',#872,#873);
#872 = CARTESIAN_POINT('',(17.,14.6175,31.475));
#873 = VECTOR('',#874,1.);
#874 = DIRECTION('',(0.,1.,0.));
#875 = ORIENTED_EDGE('',*,*,#347,.F.);
#876 = ORIENTED_EDGE('',*,*,#314,.F.);
#877 = ORIENTED_EDGE('',*,*,#847,.T.);
#878 = ORIENTED_EDGE('',*,*,#487,.T.);
#879 = ORIENTED_EDGE('',*,*,#361,.T.);
#880 = PLANE('',#881);
#881 = AXIS2_PLACEMENT_3D('',#882,#883,#884);
#882 = CARTESIAN_POINT('',(14.7,14.345,31.475));
#883 = DIRECTION('',(0.,0.,1.));
#884 = DIRECTION('',(1.,0.,0.));
#885 = ADVANCED_FACE('',(#886),#892,.T.);
#886 = FACE_BOUND('',#887,.T.);
#887 = EDGE_LOOP('',(#888,#889,#890,#891));
#888 = ORIENTED_EDGE('',*,*,#790,.F.);
#889 = ORIENTED_EDGE('',*,*,#823,.T.);
#890 = ORIENTED_EDGE('',*,*,#856,.T.);
#891 = ORIENTED_EDGE('',*,*,#447,.F.);
#892 = PLANE('',#893);
#893 = AXIS2_PLACEMENT_3D('',#894,#895,#896);
#894 = CARTESIAN_POINT('',(14.7,13.045,19.825));
#895 = DIRECTION('',(0.,1.,0.));
#896 = DIRECTION('',(0.,0.,1.));
#897 = ADVANCED_FACE('',(#898),#923,.F.);
#898 = FACE_BOUND('',#899,.F.);
#899 = EDGE_LOOP('',(#900,#908,#909,#917));
#900 = ORIENTED_EDGE('',*,*,#901,.F.);
#901 = EDGE_CURVE('',#712,#902,#904,.T.);
#902 = VERTEX_POINT('',#903);
#903 = CARTESIAN_POINT('',(14.7,16.25,18.15));
#904 = LINE('',#905,#906);
#905 = CARTESIAN_POINT('',(-50.,16.25,18.15));
#906 = VECTOR('',#907,1.);
#907 = DIRECTION('',(1.,0.,0.));
#908 = ORIENTED_EDGE('',*,*,#711,.T.);
#909 = ORIENTED_EDGE('',*,*,#910,.T.);
#910 = EDGE_CURVE('',#704,#911,#913,.T.);
#911 = VERTEX_POINT('',#912);
#912 = CARTESIAN_POINT('',(14.7,15.6,18.15));
#913 = LINE('',#914,#915);
#914 = CARTESIAN_POINT('',(-18.75,15.6,18.15));
#915 = VECTOR('',#916,1.);
#916 = DIRECTION('',(1.,0.,0.));
#917 = ORIENTED_EDGE('',*,*,#918,.T.);
#918 = EDGE_CURVE('',#911,#902,#919,.T.);
#919 = LINE('',#920,#921);
#920 = CARTESIAN_POINT('',(14.7,14.9,18.15));
#921 = VECTOR('',#922,1.);
#922 = DIRECTION('',(0.,1.,0.));
#923 = PLANE('',#924);
#924 = AXIS2_PLACEMENT_3D('',#925,#926,#927);
#925 = CARTESIAN_POINT('',(-50.,14.9,18.15));
#926 = DIRECTION('',(0.,0.,1.));
#927 = DIRECTION('',(1.,0.,0.));
#928 = ADVANCED_FACE('',(#929),#956,.T.);
#929 = FACE_BOUND('',#930,.T.);
#930 = EDGE_LOOP('',(#931,#941,#948,#949,#950));
#931 = ORIENTED_EDGE('',*,*,#932,.T.);
#932 = EDGE_CURVE('',#933,#935,#937,.T.);
#933 = VERTEX_POINT('',#934);
#934 = CARTESIAN_POINT('',(16.724757098386,17.85,32.975));
#935 = VERTEX_POINT('',#936);
#936 = CARTESIAN_POINT('',(16.724757098386,18.85,32.975));
#937 = LINE('',#938,#939);
#938 = CARTESIAN_POINT('',(16.724757098386,14.3475,32.975));
#939 = VECTOR('',#940,1.);
#940 = DIRECTION('',(0.,1.,0.));
#941 = ORIENTED_EDGE('',*,*,#942,.T.);
#942 = EDGE_CURVE('',#935,#743,#943,.T.);
#943 = CIRCLE('',#944,25.2);
#944 = AXIS2_PLACEMENT_3D('',#945,#946,#947);
#945 = CARTESIAN_POINT('',(0.,0.,32.975));
#946 = DIRECTION('',(0.,0.,1.));
#947 = DIRECTION('',(1.,0.,0.));
#948 = ORIENTED_EDGE('',*,*,#742,.F.);
#949 = ORIENTED_EDGE('',*,*,#561,.F.);
#950 = ORIENTED_EDGE('',*,*,#951,.F.);
#951 = EDGE_CURVE('',#933,#562,#952,.T.);
#952 = LINE('',#953,#954);
#953 = CARTESIAN_POINT('',(-18.25,17.85,32.975));
#954 = VECTOR('',#955,1.);
#955 = DIRECTION('',(-1.,0.,0.));
#956 = PLANE('',#957);
#957 = AXIS2_PLACEMENT_3D('',#958,#959,#960);
#958 = CARTESIAN_POINT('',(13.5,11.845,32.975));
#959 = DIRECTION('',(0.,0.,1.));
#960 = DIRECTION('',(1.,0.,0.));
#961 = ADVANCED_FACE('',(#962),#980,.F.);
#962 = FACE_BOUND('',#963,.F.);
#963 = EDGE_LOOP('',(#964,#972,#978,#979));
#964 = ORIENTED_EDGE('',*,*,#965,.T.);
#965 = EDGE_CURVE('',#695,#966,#968,.T.);
#966 = VERTEX_POINT('',#967);
#967 = CARTESIAN_POINT('',(14.7,15.6,20.775016556473));
#968 = LINE('',#969,#970);
#969 = CARTESIAN_POINT('',(12.5,15.6,20.775016556473));
#970 = VECTOR('',#971,1.);
#971 = DIRECTION('',(1.,0.,0.));
#972 = ORIENTED_EDGE('',*,*,#973,.T.);
#973 = EDGE_CURVE('',#966,#911,#974,.T.);
#974 = LINE('',#975,#976);
#975 = CARTESIAN_POINT('',(14.7,15.6,16.025));
#976 = VECTOR('',#977,1.);
#977 = DIRECTION('',(0.,0.,-1.));
#978 = ORIENTED_EDGE('',*,*,#910,.F.);
#979 = ORIENTED_EDGE('',*,*,#703,.T.);
#980 = PLANE('',#981);
#981 = AXIS2_PLACEMENT_3D('',#982,#983,#984);
#982 = CARTESIAN_POINT('',(12.5,15.6,16.025));
#983 = DIRECTION('',(0.,1.,0.));
#984 = DIRECTION('',(0.,0.,1.));
#985 = ADVANCED_FACE('',(#986),#1005,.F.);
#986 = FACE_BOUND('',#987,.F.);
#987 = EDGE_LOOP('',(#988,#996,#1003,#1004));
#988 = ORIENTED_EDGE('',*,*,#989,.T.);
#989 = EDGE_CURVE('',#687,#990,#992,.T.);
#990 = VERTEX_POINT('',#991);
#991 = CARTESIAN_POINT('',(14.7,16.4,20.43));
#992 = LINE('',#993,#994);
#993 = CARTESIAN_POINT('',(12.5,16.4,20.43));
#994 = VECTOR('',#995,1.);
#995 = DIRECTION('',(1.,0.,0.));
#996 = ORIENTED_EDGE('',*,*,#997,.F.);
#997 = EDGE_CURVE('',#966,#990,#998,.T.);
#998 = CIRCLE('',#999,1.1);
#999 = AXIS2_PLACEMENT_3D('',#1000,#1001,#1002);
#1000 = CARTESIAN_POINT('',(14.7,16.4,21.53));
#1001 = DIRECTION('',(1.,0.,-0.));
#1002 = DIRECTION('',(0.,0.,1.));
#1003 = ORIENTED_EDGE('',*,*,#965,.F.);
#1004 = ORIENTED_EDGE('',*,*,#694,.T.);
#1005 = CYLINDRICAL_SURFACE('',#1006,1.1);
#1006 = AXIS2_PLACEMENT_3D('',#1007,#1008,#1009);
#1007 = CARTESIAN_POINT('',(12.5,16.4,21.53));
#1008 = DIRECTION('',(1.,0.,0.));
#1009 = DIRECTION('',(0.,0.,1.));
#1010 = ADVANCED_FACE('',(#1011),#1029,.T.);
#1011 = FACE_BOUND('',#1012,.T.);
#1012 = EDGE_LOOP('',(#1013,#1014,#1015,#1023));
#1013 = ORIENTED_EDGE('',*,*,#686,.T.);
#1014 = ORIENTED_EDGE('',*,*,#989,.T.);
#1015 = ORIENTED_EDGE('',*,*,#1016,.T.);
#1016 = EDGE_CURVE('',#990,#1017,#1019,.T.);
#1017 = VERTEX_POINT('',#1018);
#1018 = CARTESIAN_POINT('',(14.7,17.65,20.43));
#1019 = LINE('',#1020,#1021);
#1020 = CARTESIAN_POINT('',(14.7,16.4975,20.43));
#1021 = VECTOR('',#1022,1.);
#1022 = DIRECTION('',(0.,1.,0.));
#1023 = ORIENTED_EDGE('',*,*,#1024,.F.);
#1024 = EDGE_CURVE('',#678,#1017,#1025,.T.);
#1025 = LINE('',#1026,#1027);
#1026 = CARTESIAN_POINT('',(12.5,17.65,20.43));
#1027 = VECTOR('',#1028,1.);
#1028 = DIRECTION('',(1.,0.,0.));
#1029 = PLANE('',#1030);
#1030 = AXIS2_PLACEMENT_3D('',#1031,#1032,#1033);
#1031 = CARTESIAN_POINT('',(12.5,16.4,20.43));
#1032 = DIRECTION('',(0.,0.,1.));
#1033 = DIRECTION('',(1.,0.,0.));
#1034 = ADVANCED_FACE('',(#1035),#1054,.F.);
#1035 = FACE_BOUND('',#1036,.F.);
#1036 = EDGE_LOOP('',(#1037,#1046,#1047,#1048));
#1037 = ORIENTED_EDGE('',*,*,#1038,.F.);
#1038 = EDGE_CURVE('',#1017,#1039,#1041,.T.);
#1039 = VERTEX_POINT('',#1040);
#1040 = CARTESIAN_POINT('',(14.7,18.75,21.53));
#1041 = CIRCLE('',#1042,1.1);
#1042 = AXIS2_PLACEMENT_3D('',#1043,#1044,#1045);
#1043 = CARTESIAN_POINT('',(14.7,17.65,21.53));
#1044 = DIRECTION('',(1.,0.,-0.));
#1045 = DIRECTION('',(0.,0.,1.));
#1046 = ORIENTED_EDGE('',*,*,#1024,.F.);
#1047 = ORIENTED_EDGE('',*,*,#677,.T.);
#1048 = ORIENTED_EDGE('',*,*,#1049,.T.);
#1049 = EDGE_CURVE('',#670,#1039,#1050,.T.);
#1050 = LINE('',#1051,#1052);
#1051 = CARTESIAN_POINT('',(12.5,18.75,21.53));
#1052 = VECTOR('',#1053,1.);
#1053 = DIRECTION('',(1.,0.,0.));
#1054 = CYLINDRICAL_SURFACE('',#1055,1.1);
#1055 = AXIS2_PLACEMENT_3D('',#1056,#1057,#1058);
#1056 = CARTESIAN_POINT('',(12.5,17.65,21.53));
#1057 = DIRECTION('',(1.,0.,0.));
#1058 = DIRECTION('',(0.,0.,1.));
#1059 = ADVANCED_FACE('',(#1060),#1085,.F.);
#1060 = FACE_BOUND('',#1061,.F.);
#1061 = EDGE_LOOP('',(#1062,#1070,#1078,#1084));
#1062 = ORIENTED_EDGE('',*,*,#1063,.F.);
#1063 = EDGE_CURVE('',#1064,#654,#1066,.T.);
#1064 = VERTEX_POINT('',#1065);
#1065 = CARTESIAN_POINT('',(8.,19.55,21.));
#1066 = LINE('',#1067,#1068);
#1067 = CARTESIAN_POINT('',(8.,19.55,21.));
#1068 = VECTOR('',#1069,1.);
#1069 = DIRECTION('',(1.,0.,0.));
#1070 = ORIENTED_EDGE('',*,*,#1071,.F.);
#1071 = EDGE_CURVE('',#1072,#1064,#1074,.T.);
#1072 = VERTEX_POINT('',#1073);
#1073 = CARTESIAN_POINT('',(8.,18.75,21.));
#1074 = LINE('',#1075,#1076);
#1075 = CARTESIAN_POINT('',(8.,18.75,21.));
#1076 = VECTOR('',#1077,1.);
#1077 = DIRECTION('',(0.,1.,0.));
#1078 = ORIENTED_EDGE('',*,*,#1079,.T.);
#1079 = EDGE_CURVE('',#1072,#662,#1080,.T.);
#1080 = LINE('',#1081,#1082);
#1081 = CARTESIAN_POINT('',(8.,18.75,21.));
#1082 = VECTOR('',#1083,1.);
#1083 = DIRECTION('',(1.,0.,0.));
#1084 = ORIENTED_EDGE('',*,*,#661,.F.);
#1085 = PLANE('',#1086);
#1086 = AXIS2_PLACEMENT_3D('',#1087,#1088,#1089);
#1087 = CARTESIAN_POINT('',(8.,18.75,21.));
#1088 = DIRECTION('',(0.,0.,1.));
#1089 = DIRECTION('',(1.,0.,0.));
#1090 = ADVANCED_FACE('',(#1091),#1109,.T.);
#1091 = FACE_BOUND('',#1092,.T.);
#1092 = EDGE_LOOP('',(#1093,#1094,#1102,#1108));
#1093 = ORIENTED_EDGE('',*,*,#1063,.F.);
#1094 = ORIENTED_EDGE('',*,*,#1095,.T.);
#1095 = EDGE_CURVE('',#1064,#1096,#1098,.T.);
#1096 = VERTEX_POINT('',#1097);
#1097 = CARTESIAN_POINT('',(8.,19.55,29.));
#1098 = LINE('',#1099,#1100);
#1099 = CARTESIAN_POINT('',(8.,19.55,21.));
#1100 = VECTOR('',#1101,1.);
#1101 = DIRECTION('',(0.,0.,1.));
#1102 = ORIENTED_EDGE('',*,*,#1103,.T.);
#1103 = EDGE_CURVE('',#1096,#646,#1104,.T.);
#1104 = LINE('',#1105,#1106);
#1105 = CARTESIAN_POINT('',(8.,19.55,29.));
#1106 = VECTOR('',#1107,1.);
#1107 = DIRECTION('',(1.,0.,0.));
#1108 = ORIENTED_EDGE('',*,*,#653,.F.);
#1109 = PLANE('',#1110);
#1110 = AXIS2_PLACEMENT_3D('',#1111,#1112,#1113);
#1111 = CARTESIAN_POINT('',(8.,19.55,21.));
#1112 = DIRECTION('',(0.,1.,0.));
#1113 = DIRECTION('',(0.,0.,1.));
#1114 = ADVANCED_FACE('',(#1115),#1133,.T.);
#1115 = FACE_BOUND('',#1116,.T.);
#1116 = EDGE_LOOP('',(#1117,#1118,#1126,#1132));
#1117 = ORIENTED_EDGE('',*,*,#1103,.F.);
#1118 = ORIENTED_EDGE('',*,*,#1119,.F.);
#1119 = EDGE_CURVE('',#1120,#1096,#1122,.T.);
#1120 = VERTEX_POINT('',#1121);
#1121 = CARTESIAN_POINT('',(8.,18.75,29.));
#1122 = LINE('',#1123,#1124);
#1123 = CARTESIAN_POINT('',(8.,18.75,29.));
#1124 = VECTOR('',#1125,1.);
#1125 = DIRECTION('',(0.,1.,0.));
#1126 = ORIENTED_EDGE('',*,*,#1127,.T.);
#1127 = EDGE_CURVE('',#1120,#638,#1128,.T.);
#1128 = LINE('',#1129,#1130);
#1129 = CARTESIAN_POINT('',(8.,18.75,29.));
#1130 = VECTOR('',#1131,1.);
#1131 = DIRECTION('',(1.,0.,0.));
#1132 = ORIENTED_EDGE('',*,*,#645,.F.);
#1133 = PLANE('',#1134);
#1134 = AXIS2_PLACEMENT_3D('',#1135,#1136,#1137);
#1135 = CARTESIAN_POINT('',(8.,18.75,29.));
#1136 = DIRECTION('',(0.,0.,1.));
#1137 = DIRECTION('',(1.,0.,0.));
#1138 = ADVANCED_FACE('',(#1139),#1165,.F.);
#1139 = FACE_BOUND('',#1140,.F.);
#1140 = EDGE_LOOP('',(#1141,#1152,#1158,#1159));
#1141 = ORIENTED_EDGE('',*,*,#1142,.F.);
#1142 = EDGE_CURVE('',#1143,#1145,#1147,.T.);
#1143 = VERTEX_POINT('',#1144);
#1144 = CARTESIAN_POINT('',(14.7,18.75,28.47));
#1145 = VERTEX_POINT('',#1146);
#1146 = CARTESIAN_POINT('',(14.7,17.65,29.57));
#1147 = CIRCLE('',#1148,1.1);
#1148 = AXIS2_PLACEMENT_3D('',#1149,#1150,#1151);
#1149 = CARTESIAN_POINT('',(14.7,17.65,28.47));
#1150 = DIRECTION('',(1.,0.,-0.));
#1151 = DIRECTION('',(0.,0.,1.));
#1152 = ORIENTED_EDGE('',*,*,#1153,.F.);
#1153 = EDGE_CURVE('',#629,#1143,#1154,.T.);
#1154 = LINE('',#1155,#1156);
#1155 = CARTESIAN_POINT('',(12.5,18.75,28.47));
#1156 = VECTOR('',#1157,1.);
#1157 = DIRECTION('',(1.,0.,0.));
#1158 = ORIENTED_EDGE('',*,*,#628,.T.);
#1159 = ORIENTED_EDGE('',*,*,#1160,.T.);
#1160 = EDGE_CURVE('',#621,#1145,#1161,.T.);
#1161 = LINE('',#1162,#1163);
#1162 = CARTESIAN_POINT('',(12.5,17.65,29.57));
#1163 = VECTOR('',#1164,1.);
#1164 = DIRECTION('',(1.,0.,0.));
#1165 = CYLINDRICAL_SURFACE('',#1166,1.1);
#1166 = AXIS2_PLACEMENT_3D('',#1167,#1168,#1169);
#1167 = CARTESIAN_POINT('',(12.5,17.65,28.47));
#1168 = DIRECTION('',(1.,0.,0.));
#1169 = DIRECTION('',(0.,0.,1.));
#1170 = ADVANCED_FACE('',(#1171),#1189,.F.);
#1171 = FACE_BOUND('',#1172,.F.);
#1172 = EDGE_LOOP('',(#1173,#1174,#1182,#1188));
#1173 = ORIENTED_EDGE('',*,*,#620,.T.);
#1174 = ORIENTED_EDGE('',*,*,#1175,.T.);
#1175 = EDGE_CURVE('',#612,#1176,#1178,.T.);
#1176 = VERTEX_POINT('',#1177);
#1177 = CARTESIAN_POINT('',(14.7,16.4,29.57));
#1178 = LINE('',#1179,#1180);
#1179 = CARTESIAN_POINT('',(12.5,16.4,29.57));
#1180 = VECTOR('',#1181,1.);
#1181 = DIRECTION('',(1.,0.,0.));
#1182 = ORIENTED_EDGE('',*,*,#1183,.T.);
#1183 = EDGE_CURVE('',#1176,#1145,#1184,.T.);
#1184 = LINE('',#1185,#1186);
#1185 = CARTESIAN_POINT('',(14.7,16.4975,29.57));
#1186 = VECTOR('',#1187,1.);
#1187 = DIRECTION('',(0.,1.,0.));
#1188 = ORIENTED_EDGE('',*,*,#1160,.F.);
#1189 = PLANE('',#1190);
#1190 = AXIS2_PLACEMENT_3D('',#1191,#1192,#1193);
#1191 = CARTESIAN_POINT('',(12.5,16.4,29.57));
#1192 = DIRECTION('',(0.,0.,1.));
#1193 = DIRECTION('',(1.,0.,0.));
#1194 = ADVANCED_FACE('',(#1195),#1214,.F.);
#1195 = FACE_BOUND('',#1196,.F.);
#1196 = EDGE_LOOP('',(#1197,#1206,#1207,#1208));
#1197 = ORIENTED_EDGE('',*,*,#1198,.F.);
#1198 = EDGE_CURVE('',#1176,#1199,#1201,.T.);
#1199 = VERTEX_POINT('',#1200);
#1200 = CARTESIAN_POINT('',(14.7,15.6,29.224983443527));
#1201 = CIRCLE('',#1202,1.1);
#1202 = AXIS2_PLACEMENT_3D('',#1203,#1204,#1205);
#1203 = CARTESIAN_POINT('',(14.7,16.4,28.47));
#1204 = DIRECTION('',(1.,0.,-0.));
#1205 = DIRECTION('',(0.,0.,1.));
#1206 = ORIENTED_EDGE('',*,*,#1175,.F.);
#1207 = ORIENTED_EDGE('',*,*,#611,.T.);
#1208 = ORIENTED_EDGE('',*,*,#1209,.T.);
#1209 = EDGE_CURVE('',#604,#1199,#1210,.T.);
#1210 = LINE('',#1211,#1212);
#1211 = CARTESIAN_POINT('',(12.5,15.6,29.224983443527));
#1212 = VECTOR('',#1213,1.);
#1213 = DIRECTION('',(1.,0.,0.));
#1214 = CYLINDRICAL_SURFACE('',#1215,1.1);
#1215 = AXIS2_PLACEMENT_3D('',#1216,#1217,#1218);
#1216 = CARTESIAN_POINT('',(12.5,16.4,28.47));
#1217 = DIRECTION('',(1.,0.,0.));
#1218 = DIRECTION('',(0.,0.,1.));
#1219 = ADVANCED_FACE('',(#1220),#1238,.F.);
#1220 = FACE_BOUND('',#1221,.F.);
#1221 = EDGE_LOOP('',(#1222,#1223,#1224,#1232));
#1222 = ORIENTED_EDGE('',*,*,#1209,.F.);
#1223 = ORIENTED_EDGE('',*,*,#603,.T.);
#1224 = ORIENTED_EDGE('',*,*,#1225,.T.);
#1225 = EDGE_CURVE('',#596,#1226,#1228,.T.);
#1226 = VERTEX_POINT('',#1227);
#1227 = CARTESIAN_POINT('',(14.7,15.6,31.465));
#1228 = LINE('',#1229,#1230);
#1229 = CARTESIAN_POINT('',(12.95,15.6,31.465));
#1230 = VECTOR('',#1231,1.);
#1231 = DIRECTION('',(1.,0.,0.));
#1232 = ORIENTED_EDGE('',*,*,#1233,.T.);
#1233 = EDGE_CURVE('',#1226,#1199,#1234,.T.);
#1234 = LINE('',#1235,#1236);
#1235 = CARTESIAN_POINT('',(14.7,15.6,20.5125));
#1236 = VECTOR('',#1237,1.);
#1237 = DIRECTION('',(0.,0.,-1.));
#1238 = PLANE('',#1239);
#1239 = AXIS2_PLACEMENT_3D('',#1240,#1241,#1242);
#1240 = CARTESIAN_POINT('',(12.5,15.6,16.025));
#1241 = DIRECTION('',(0.,1.,0.));
#1242 = DIRECTION('',(0.,0.,1.));
#1243 = ADVANCED_FACE('',(#1244),#1262,.T.);
#1244 = FACE_BOUND('',#1245,.T.);
#1245 = EDGE_LOOP('',(#1246,#1254,#1255,#1256));
#1246 = ORIENTED_EDGE('',*,*,#1247,.F.);
#1247 = EDGE_CURVE('',#588,#1248,#1250,.T.);
#1248 = VERTEX_POINT('',#1249);
#1249 = CARTESIAN_POINT('',(14.7,16.07,31.465));
#1250 = LINE('',#1251,#1252);
#1251 = CARTESIAN_POINT('',(13.4,16.07,31.465));
#1252 = VECTOR('',#1253,1.);
#1253 = DIRECTION('',(1.,0.,0.));
#1254 = ORIENTED_EDGE('',*,*,#595,.T.);
#1255 = ORIENTED_EDGE('',*,*,#1225,.T.);
#1256 = ORIENTED_EDGE('',*,*,#1257,.T.);
#1257 = EDGE_CURVE('',#1226,#1248,#1258,.T.);
#1258 = LINE('',#1259,#1260);
#1259 = CARTESIAN_POINT('',(14.7,14.89,31.465));
#1260 = VECTOR('',#1261,1.);
#1261 = DIRECTION('',(0.,1.,0.));
#1262 = PLANE('',#1263);
#1263 = AXIS2_PLACEMENT_3D('',#1264,#1265,#1266);
#1264 = CARTESIAN_POINT('',(13.4,14.89,31.465));
#1265 = DIRECTION('',(0.,0.,1.));
#1266 = DIRECTION('',(1.,0.,0.));
#1267 = ADVANCED_FACE('',(#1268),#1286,.F.);
#1268 = FACE_BOUND('',#1269,.F.);
#1269 = EDGE_LOOP('',(#1270,#1271,#1272,#1280));
#1270 = ORIENTED_EDGE('',*,*,#1247,.F.);
#1271 = ORIENTED_EDGE('',*,*,#587,.T.);
#1272 = ORIENTED_EDGE('',*,*,#1273,.F.);
#1273 = EDGE_CURVE('',#1274,#580,#1276,.T.);
#1274 = VERTEX_POINT('',#1275);
#1275 = CARTESIAN_POINT('',(14.7,16.07,32.1));
#1276 = LINE('',#1277,#1278);
#1277 = CARTESIAN_POINT('',(-18.3,16.07,32.1));
#1278 = VECTOR('',#1279,1.);
#1279 = DIRECTION('',(-1.,0.,0.));
#1280 = ORIENTED_EDGE('',*,*,#1281,.F.);
#1281 = EDGE_CURVE('',#1248,#1274,#1282,.T.);
#1282 = LINE('',#1283,#1284);
#1283 = CARTESIAN_POINT('',(14.7,16.07,31.465));
#1284 = VECTOR('',#1285,1.);
#1285 = DIRECTION('',(0.,0.,1.));
#1286 = PLANE('',#1287);
#1287 = AXIS2_PLACEMENT_3D('',#1288,#1289,#1290);
#1288 = CARTESIAN_POINT('',(13.4,16.07,31.465));
#1289 = DIRECTION('',(0.,1.,0.));
#1290 = DIRECTION('',(0.,0.,1.));
#1291 = ADVANCED_FACE('',(#1292),#1310,.T.);
#1292 = FACE_BOUND('',#1293,.T.);
#1293 = EDGE_LOOP('',(#1294,#1302,#1303,#1304));
#1294 = ORIENTED_EDGE('',*,*,#1295,.F.);
#1295 = EDGE_CURVE('',#572,#1296,#1298,.T.);
#1296 = VERTEX_POINT('',#1297);
#1297 = CARTESIAN_POINT('',(14.7,17.85,32.1));
#1298 = LINE('',#1299,#1300);
#1299 = CARTESIAN_POINT('',(-50.,17.85,32.1));
#1300 = VECTOR('',#1301,1.);
#1301 = DIRECTION('',(1.,0.,0.));
#1302 = ORIENTED_EDGE('',*,*,#579,.T.);
#1303 = ORIENTED_EDGE('',*,*,#1273,.F.);
#1304 = ORIENTED_EDGE('',*,*,#1305,.T.);
#1305 = EDGE_CURVE('',#1274,#1296,#1306,.T.);
#1306 = LINE('',#1307,#1308);
#1307 = CARTESIAN_POINT('',(14.7,14.89,32.1));
#1308 = VECTOR('',#1309,1.);
#1309 = DIRECTION('',(0.,1.,0.));
#1310 = PLANE('',#1311);
#1311 = AXIS2_PLACEMENT_3D('',#1312,#1313,#1314);
#1312 = CARTESIAN_POINT('',(-50.,14.89,32.1));
#1313 = DIRECTION('',(0.,0.,1.));
#1314 = DIRECTION('',(1.,0.,0.));
#1315 = ADVANCED_FACE('',(#1316),#1335,.T.);
#1316 = FACE_BOUND('',#1317,.T.);
#1317 = EDGE_LOOP('',(#1318,#1319,#1327,#1334));
#1318 = ORIENTED_EDGE('',*,*,#942,.F.);
#1319 = ORIENTED_EDGE('',*,*,#1320,.F.);
#1320 = EDGE_CURVE('',#1321,#935,#1323,.T.);
#1321 = VERTEX_POINT('',#1322);
#1322 = CARTESIAN_POINT('',(16.724757098386,18.85,31.475));
#1323 = LINE('',#1324,#1325);
#1324 = CARTESIAN_POINT('',(16.724757098386,18.85,16.025));
#1325 = VECTOR('',#1326,1.);
#1326 = DIRECTION('',(0.,0.,1.));
#1327 = ORIENTED_EDGE('',*,*,#1328,.T.);
#1328 = EDGE_CURVE('',#1321,#751,#1329,.T.);
#1329 = CIRCLE('',#1330,25.2);
#1330 = AXIS2_PLACEMENT_3D('',#1331,#1332,#1333);
#1331 = CARTESIAN_POINT('',(0.,0.,31.475));
#1332 = DIRECTION('',(0.,0.,1.));
#1333 = DIRECTION('',(1.,0.,0.));
#1334 = ORIENTED_EDGE('',*,*,#750,.T.);
#1335 = CYLINDRICAL_SURFACE('',#1336,25.2);
#1336 = AXIS2_PLACEMENT_3D('',#1337,#1338,#1339);
#1337 = CARTESIAN_POINT('',(0.,0.,16.025));
#1338 = DIRECTION('',(0.,0.,1.));
#1339 = DIRECTION('',(1.,0.,0.));
#1340 = ADVANCED_FACE('',(#1341),#1359,.T.);
#1341 = FACE_BOUND('',#1342,.T.);
#1342 = EDGE_LOOP('',(#1343,#1351,#1357,#1358));
#1343 = ORIENTED_EDGE('',*,*,#1344,.T.);
#1344 = EDGE_CURVE('',#933,#1345,#1347,.T.);
#1345 = VERTEX_POINT('',#1346);
#1346 = CARTESIAN_POINT('',(16.724757098386,17.85,31.475));
#1347 = LINE('',#1348,#1349);
#1348 = CARTESIAN_POINT('',(16.724757098386,17.85,31.465));
#1349 = VECTOR('',#1350,1.);
#1350 = DIRECTION('',(0.,0.,-1.));
#1351 = ORIENTED_EDGE('',*,*,#1352,.T.);
#1352 = EDGE_CURVE('',#1345,#1321,#1353,.T.);
#1353 = LINE('',#1354,#1355);
#1354 = CARTESIAN_POINT('',(16.724757098386,15.5975,31.475));
#1355 = VECTOR('',#1356,1.);
#1356 = DIRECTION('',(0.,1.,0.));
#1357 = ORIENTED_EDGE('',*,*,#1320,.T.);
#1358 = ORIENTED_EDGE('',*,*,#932,.F.);
#1359 = PLANE('',#1360);
#1360 = AXIS2_PLACEMENT_3D('',#1361,#1362,#1363);
#1361 = CARTESIAN_POINT('',(16.724757098386,16.85,31.465));
#1362 = DIRECTION('',(1.,0.,0.));
#1363 = DIRECTION('',(0.,0.,1.));
#1364 = ADVANCED_FACE('',(#1365),#1376,.F.);
#1365 = FACE_BOUND('',#1366,.F.);
#1366 = EDGE_LOOP('',(#1367,#1373,#1374,#1375));
#1367 = ORIENTED_EDGE('',*,*,#1368,.F.);
#1368 = EDGE_CURVE('',#1072,#1120,#1369,.T.);
#1369 = LINE('',#1370,#1371);
#1370 = CARTESIAN_POINT('',(8.,18.75,21.));
#1371 = VECTOR('',#1372,1.);
#1372 = DIRECTION('',(0.,0.,1.));
#1373 = ORIENTED_EDGE('',*,*,#1071,.T.);
#1374 = ORIENTED_EDGE('',*,*,#1095,.T.);
#1375 = ORIENTED_EDGE('',*,*,#1119,.F.);
#1376 = PLANE('',#1377);
#1377 = AXIS2_PLACEMENT_3D('',#1378,#1379,#1380);
#1378 = CARTESIAN_POINT('',(8.,18.75,21.));
#1379 = DIRECTION('',(1.,0.,0.));
#1380 = DIRECTION('',(0.,0.,1.));
#1381 = ADVANCED_FACE('',(#1382),#1388,.T.);
#1382 = FACE_BOUND('',#1383,.T.);
#1383 = EDGE_LOOP('',(#1384,#1385,#1386,#1387));
#1384 = ORIENTED_EDGE('',*,*,#337,.F.);
#1385 = ORIENTED_EDGE('',*,*,#87,.T.);
#1386 = ORIENTED_EDGE('',*,*,#371,.F.);
#1387 = ORIENTED_EDGE('',*,*,#870,.F.);
#1388 = PLANE('',#1389);
#1389 = AXIS2_PLACEMENT_3D('',#1390,#1391,#1392);
#1390 = CARTESIAN_POINT('',(17.,16.225,32.225));
#1391 = DIRECTION('',(-1.,-0.,-0.));
#1392 = DIRECTION('',(0.,0.,-1.));
#1393 = ADVANCED_FACE('',(#1394),#1412,.T.);
#1394 = FACE_BOUND('',#1395,.T.);
#1395 = EDGE_LOOP('',(#1396,#1397,#1398,#1406));
#1396 = ORIENTED_EDGE('',*,*,#199,.F.);
#1397 = ORIENTED_EDGE('',*,*,#539,.F.);
#1398 = ORIENTED_EDGE('',*,*,#1399,.T.);
#1399 = EDGE_CURVE('',#540,#1400,#1402,.T.);
#1400 = VERTEX_POINT('',#1401);
#1401 = CARTESIAN_POINT('',(17.,16.25,18.525));
#1402 = LINE('',#1403,#1404);
#1403 = CARTESIAN_POINT('',(17.,14.6225,18.525));
#1404 = VECTOR('',#1405,1.);
#1405 = DIRECTION('',(0.,1.,0.));
#1406 = ORIENTED_EDGE('',*,*,#1407,.F.);
#1407 = EDGE_CURVE('',#192,#1400,#1408,.T.);
#1408 = LINE('',#1409,#1410);
#1409 = CARTESIAN_POINT('',(17.,16.25,16.025));
#1410 = VECTOR('',#1411,1.);
#1411 = DIRECTION('',(0.,0.,1.));
#1412 = PLANE('',#1413);
#1413 = AXIS2_PLACEMENT_3D('',#1414,#1415,#1416);
#1414 = CARTESIAN_POINT('',(17.,15.925,17.775));
#1415 = DIRECTION('',(-1.,-0.,-0.));
#1416 = DIRECTION('',(0.,0.,-1.));
#1417 = ADVANCED_FACE('',(#1418),#1438,.T.);
#1418 = FACE_BOUND('',#1419,.T.);
#1419 = EDGE_LOOP('',(#1420,#1421,#1422,#1430,#1436,#1437));
#1420 = ORIENTED_EDGE('',*,*,#191,.F.);
#1421 = ORIENTED_EDGE('',*,*,#1407,.T.);
#1422 = ORIENTED_EDGE('',*,*,#1423,.T.);
#1423 = EDGE_CURVE('',#1400,#1424,#1426,.T.);
#1424 = VERTEX_POINT('',#1425);
#1425 = CARTESIAN_POINT('',(14.7,16.25,18.525));
#1426 = LINE('',#1427,#1428);
#1427 = CARTESIAN_POINT('',(14.7,16.25,18.525));
#1428 = VECTOR('',#1429,1.);
#1429 = DIRECTION('',(-1.,0.,0.));
#1430 = ORIENTED_EDGE('',*,*,#1431,.F.);
#1431 = EDGE_CURVE('',#902,#1424,#1432,.T.);
#1432 = LINE('',#1433,#1434);
#1433 = CARTESIAN_POINT('',(14.7,16.25,16.025));
#1434 = VECTOR('',#1435,1.);
#1435 = DIRECTION('',(0.,0.,1.));
#1436 = ORIENTED_EDGE('',*,*,#901,.F.);
#1437 = ORIENTED_EDGE('',*,*,#719,.F.);
#1438 = PLANE('',#1439);
#1439 = AXIS2_PLACEMENT_3D('',#1440,#1441,#1442);
#1440 = CARTESIAN_POINT('',(15.295,16.25,17.73));
#1441 = DIRECTION('',(-0.,-1.,-0.));
#1442 = DIRECTION('',(0.,0.,-1.));
#1443 = ADVANCED_FACE('',(#1444),#1486,.T.);
#1444 = FACE_BOUND('',#1445,.T.);
#1445 = EDGE_LOOP('',(#1446,#1447,#1455,#1461,#1462,#1463,#1464,#1465,
    #1466,#1467,#1468,#1474,#1475,#1476,#1477,#1478,#1479,#1480));
#1446 = ORIENTED_EDGE('',*,*,#766,.F.);
#1447 = ORIENTED_EDGE('',*,*,#1448,.F.);
#1448 = EDGE_CURVE('',#1449,#759,#1451,.T.);
#1449 = VERTEX_POINT('',#1450);
#1450 = CARTESIAN_POINT('',(14.7,17.85,31.475));
#1451 = LINE('',#1452,#1453);
#1452 = CARTESIAN_POINT('',(14.7,18.845,31.475));
#1453 = VECTOR('',#1454,1.);
#1454 = DIRECTION('',(0.,1.,0.));
#1455 = ORIENTED_EDGE('',*,*,#1456,.T.);
#1456 = EDGE_CURVE('',#1449,#1296,#1457,.T.);
#1457 = LINE('',#1458,#1459);
#1458 = CARTESIAN_POINT('',(14.7,17.85,31.465));
#1459 = VECTOR('',#1460,1.);
#1460 = DIRECTION('',(0.,0.,1.));
#1461 = ORIENTED_EDGE('',*,*,#1305,.F.);
#1462 = ORIENTED_EDGE('',*,*,#1281,.F.);
#1463 = ORIENTED_EDGE('',*,*,#1257,.F.);
#1464 = ORIENTED_EDGE('',*,*,#1233,.T.);
#1465 = ORIENTED_EDGE('',*,*,#1198,.F.);
#1466 = ORIENTED_EDGE('',*,*,#1183,.T.);
#1467 = ORIENTED_EDGE('',*,*,#1142,.F.);
#1468 = ORIENTED_EDGE('',*,*,#1469,.T.);
#1469 = EDGE_CURVE('',#1143,#1039,#1470,.T.);
#1470 = LINE('',#1471,#1472);
#1471 = CARTESIAN_POINT('',(14.7,18.75,23.265));
#1472 = VECTOR('',#1473,1.);
#1473 = DIRECTION('',(0.,0.,-1.));
#1474 = ORIENTED_EDGE('',*,*,#1038,.F.);
#1475 = ORIENTED_EDGE('',*,*,#1016,.F.);
#1476 = ORIENTED_EDGE('',*,*,#997,.F.);
#1477 = ORIENTED_EDGE('',*,*,#973,.T.);
#1478 = ORIENTED_EDGE('',*,*,#918,.T.);
#1479 = ORIENTED_EDGE('',*,*,#1431,.T.);
#1480 = ORIENTED_EDGE('',*,*,#1481,.T.);
#1481 = EDGE_CURVE('',#1424,#767,#1482,.T.);
#1482 = LINE('',#1483,#1484);
#1483 = CARTESIAN_POINT('',(14.7,14.345,18.525));
#1484 = VECTOR('',#1485,1.);
#1485 = DIRECTION('',(0.,1.,0.));
#1486 = PLANE('',#1487);
#1487 = AXIS2_PLACEMENT_3D('',#1488,#1489,#1490);
#1488 = CARTESIAN_POINT('',(14.7,18.289909555757,25.100981616013));
#1489 = DIRECTION('',(1.,0.,0.));
#1490 = DIRECTION('',(0.,0.,1.));
#1491 = ADVANCED_FACE('',(#1492),#1504,.T.);
#1492 = FACE_BOUND('',#1493,.T.);
#1493 = EDGE_LOOP('',(#1494,#1495,#1496,#1497,#1498));
#1494 = ORIENTED_EDGE('',*,*,#1448,.T.);
#1495 = ORIENTED_EDGE('',*,*,#758,.T.);
#1496 = ORIENTED_EDGE('',*,*,#1328,.F.);
#1497 = ORIENTED_EDGE('',*,*,#1352,.F.);
#1498 = ORIENTED_EDGE('',*,*,#1499,.T.);
#1499 = EDGE_CURVE('',#1345,#1449,#1500,.T.);
#1500 = LINE('',#1501,#1502);
#1501 = CARTESIAN_POINT('',(14.7,17.85,31.475));
#1502 = VECTOR('',#1503,1.);
#1503 = DIRECTION('',(-1.,0.,0.));
#1504 = PLANE('',#1505);
#1505 = AXIS2_PLACEMENT_3D('',#1506,#1507,#1508);
#1506 = CARTESIAN_POINT('',(15.565293360639,18.802398286555,31.475));
#1507 = DIRECTION('',(-0.,-0.,-1.));
#1508 = DIRECTION('',(-1.,0.,0.));
#1509 = ADVANCED_FACE('',(#1510),#1521,.T.);
#1510 = FACE_BOUND('',#1511,.T.);
#1511 = EDGE_LOOP('',(#1512,#1513,#1514,#1515,#1516,#1517,#1518,#1519,
    #1520));
#1512 = ORIENTED_EDGE('',*,*,#1481,.F.);
#1513 = ORIENTED_EDGE('',*,*,#1423,.F.);
#1514 = ORIENTED_EDGE('',*,*,#1399,.F.);
#1515 = ORIENTED_EDGE('',*,*,#547,.F.);
#1516 = ORIENTED_EDGE('',*,*,#514,.F.);
#1517 = ORIENTED_EDGE('',*,*,#807,.T.);
#1518 = ORIENTED_EDGE('',*,*,#411,.T.);
#1519 = ORIENTED_EDGE('',*,*,#402,.T.);
#1520 = ORIENTED_EDGE('',*,*,#774,.F.);
#1521 = PLANE('',#1522);
#1522 = AXIS2_PLACEMENT_3D('',#1523,#1524,#1525);
#1523 = CARTESIAN_POINT('',(17.221033308624,16.772435441103,18.525));
#1524 = DIRECTION('',(0.,0.,1.));
#1525 = DIRECTION('',(1.,0.,0.));
#1526 = ADVANCED_FACE('',(#1527,#1537),#1571,.T.);
#1527 = FACE_BOUND('',#1528,.T.);
#1528 = EDGE_LOOP('',(#1529,#1530,#1531,#1532,#1533,#1534,#1535,#1536));
#1529 = ORIENTED_EDGE('',*,*,#1079,.T.);
#1530 = ORIENTED_EDGE('',*,*,#669,.T.);
#1531 = ORIENTED_EDGE('',*,*,#1049,.T.);
#1532 = ORIENTED_EDGE('',*,*,#1469,.F.);
#1533 = ORIENTED_EDGE('',*,*,#1153,.F.);
#1534 = ORIENTED_EDGE('',*,*,#637,.T.);
#1535 = ORIENTED_EDGE('',*,*,#1127,.F.);
#1536 = ORIENTED_EDGE('',*,*,#1368,.F.);
#1537 = FACE_BOUND('',#1538,.T.);
#1538 = EDGE_LOOP('',(#1539,#1549,#1557,#1565));
#1539 = ORIENTED_EDGE('',*,*,#1540,.F.);
#1540 = EDGE_CURVE('',#1541,#1543,#1545,.T.);
#1541 = VERTEX_POINT('',#1542);
#1542 = CARTESIAN_POINT('',(8.041742430504,18.75,21.5));
#1543 = VERTEX_POINT('',#1544);
#1544 = CARTESIAN_POINT('',(8.958257569496,18.75,21.5));
#1545 = LINE('',#1546,#1547);
#1546 = CARTESIAN_POINT('',(8.25,18.75,21.5));
#1547 = VECTOR('',#1548,1.);
#1548 = DIRECTION('',(1.,0.,0.));
#1549 = ORIENTED_EDGE('',*,*,#1550,.T.);
#1550 = EDGE_CURVE('',#1541,#1551,#1553,.T.);
#1551 = VERTEX_POINT('',#1552);
#1552 = CARTESIAN_POINT('',(8.041742430504,18.75,28.5));
#1553 = LINE('',#1554,#1555);
#1554 = CARTESIAN_POINT('',(8.041742430504,18.75,21.5));
#1555 = VECTOR('',#1556,1.);
#1556 = DIRECTION('',(0.,0.,1.));
#1557 = ORIENTED_EDGE('',*,*,#1558,.T.);
#1558 = EDGE_CURVE('',#1551,#1559,#1561,.T.);
#1559 = VERTEX_POINT('',#1560);
#1560 = CARTESIAN_POINT('',(8.958257569496,18.75,28.5));
#1561 = LINE('',#1562,#1563);
#1562 = CARTESIAN_POINT('',(8.25,18.75,28.5));
#1563 = VECTOR('',#1564,1.);
#1564 = DIRECTION('',(1.,0.,0.));
#1565 = ORIENTED_EDGE('',*,*,#1566,.F.);
#1566 = EDGE_CURVE('',#1543,#1559,#1567,.T.);
#1567 = LINE('',#1568,#1569);
#1568 = CARTESIAN_POINT('',(8.958257569496,18.75,21.5));
#1569 = VECTOR('',#1570,1.);
#1570 = DIRECTION('',(0.,0.,1.));
#1571 = PLANE('',#1572);
#1572 = AXIS2_PLACEMENT_3D('',#1573,#1574,#1575);
#1573 = CARTESIAN_POINT('',(11.306734693878,18.75,25.));
#1574 = DIRECTION('',(-3.9E-16,-1.,-0.));
#1575 = DIRECTION('',(-1.,3.9E-16,0.));
#1576 = ADVANCED_FACE('',(#1577),#1587,.F.);
#1577 = FACE_BOUND('',#1578,.F.);
#1578 = EDGE_LOOP('',(#1579,#1586));
#1579 = ORIENTED_EDGE('',*,*,#1580,.T.);
#1580 = EDGE_CURVE('',#1541,#1543,#1581,.T.);
#1581 = CIRCLE('',#1582,0.5);
#1582 = AXIS2_PLACEMENT_3D('',#1583,#1584,#1585);
#1583 = CARTESIAN_POINT('',(8.5,18.95,21.5));
#1584 = DIRECTION('',(0.,0.,1.));
#1585 = DIRECTION('',(1.,0.,0.));
#1586 = ORIENTED_EDGE('',*,*,#1540,.F.);
#1587 = PLANE('',#1588);
#1588 = AXIS2_PLACEMENT_3D('',#1589,#1590,#1591);
#1589 = CARTESIAN_POINT('',(8.5,18.95,21.5));
#1590 = DIRECTION('',(0.,0.,1.));
#1591 = DIRECTION('',(1.,0.,0.));
#1592 = ADVANCED_FACE('',(#1593),#1605,.T.);
#1593 = FACE_BOUND('',#1594,.T.);
#1594 = EDGE_LOOP('',(#1595,#1602,#1603,#1604));
#1595 = ORIENTED_EDGE('',*,*,#1596,.F.);
#1596 = EDGE_CURVE('',#1551,#1559,#1597,.T.);
#1597 = CIRCLE('',#1598,0.5);
#1598 = AXIS2_PLACEMENT_3D('',#1599,#1600,#1601);
#1599 = CARTESIAN_POINT('',(8.5,18.95,28.5));
#1600 = DIRECTION('',(0.,0.,1.));
#1601 = DIRECTION('',(1.,0.,0.));
#1602 = ORIENTED_EDGE('',*,*,#1550,.F.);
#1603 = ORIENTED_EDGE('',*,*,#1580,.T.);
#1604 = ORIENTED_EDGE('',*,*,#1566,.T.);
#1605 = CYLINDRICAL_SURFACE('',#1606,0.5);
#1606 = AXIS2_PLACEMENT_3D('',#1607,#1608,#1609);
#1607 = CARTESIAN_POINT('',(8.5,18.95,21.5));
#1608 = DIRECTION('',(0.,0.,1.));
#1609 = DIRECTION('',(1.,0.,0.));
#1610 = ADVANCED_FACE('',(#1611),#1615,.T.);
#1611 = FACE_BOUND('',#1612,.T.);
#1612 = EDGE_LOOP('',(#1613,#1614));
#1613 = ORIENTED_EDGE('',*,*,#1596,.T.);
#1614 = ORIENTED_EDGE('',*,*,#1558,.F.);
#1615 = PLANE('',#1616);
#1616 = AXIS2_PLACEMENT_3D('',#1617,#1618,#1619);
#1617 = CARTESIAN_POINT('',(8.5,18.95,28.5));
#1618 = DIRECTION('',(0.,0.,1.));
#1619 = DIRECTION('',(1.,0.,0.));
#1620 = ADVANCED_FACE('',(#1621),#1629,.T.);
#1621 = FACE_BOUND('',#1622,.T.);
#1622 = EDGE_LOOP('',(#1623,#1624,#1625,#1626,#1627,#1628));
#1623 = ORIENTED_EDGE('',*,*,#1295,.T.);
#1624 = ORIENTED_EDGE('',*,*,#1456,.F.);
#1625 = ORIENTED_EDGE('',*,*,#1499,.F.);
#1626 = ORIENTED_EDGE('',*,*,#1344,.F.);
#1627 = ORIENTED_EDGE('',*,*,#951,.T.);
#1628 = ORIENTED_EDGE('',*,*,#571,.F.);
#1629 = PLANE('',#1630);
#1630 = AXIS2_PLACEMENT_3D('',#1631,#1632,#1633);
#1631 = CARTESIAN_POINT('',(15.191747708748,17.85,32.304369159555));
#1632 = DIRECTION('',(-0.,-1.,-0.));
#1633 = DIRECTION('',(0.,0.,-1.));
#1634 = ( GEOMETRIC_REPRESENTATION_CONTEXT(3) 
GLOBAL_UNCERTAINTY_ASSIGNED_CONTEXT((#1638)) 
GLOBAL_UNIT_ASSIGNED_CONTEXT((#1635,#1636,#1637)) REPRESENTATION_CONTEXT
('Context #1','3D Context with UNIT and UNCERTAINTY') );
#1635 = ( LENGTH_UNIT() NAMED_UNIT(*) SI_UNIT(.MILLI.,.METRE.) );
#1636 = ( NAMED_UNIT(*) PLANE_ANGLE_UNIT() SI_UNIT($,.RADIAN.) );
#1637 = ( NAMED_UNIT(*) SI_UNIT($,.STERADIAN.) SOLID_ANGLE_UNIT() );
#1638 = UNCERTAINTY_MEASURE_WITH_UNIT(LENGTH_MEASURE(2.E-07),#1635,
  'distance_accuracy_value','confusion accuracy');
#1639 = PRODUCT_RELATED_PRODUCT_CATEGORY('part',$,(#7));
ENDSEC;
END-ISO-10303-21;
