ISO-10303-21;
HEADER;
FILE_DESCRIPTION(('FreeCAD Model'),'2;1');
FILE_NAME('Open CASCADE Shape Model','2026-09-19T18:07:28',('FreeCAD'),(
    'FreeCAD'),'Open CASCADE STEP processor 7.8','FreeCAD','Unknown');
FILE_SCHEMA(('AUTOMOTIVE_DESIGN { 1 0 10303 214 1 1 1 1 }'));
ENDSEC;
DATA;
#1 = APPLICATION_PROTOCOL_DEFINITION('international standard',
  'automotive_design',2000,#2);
#2 = APPLICATION_CONTEXT(
  'core data for automotive mechanical design processes');
#3 = SHAPE_DEFINITION_REPRESENTATION(#4,#10);
#4 = PRODUCT_DEFINITION_SHAPE('','',#5);
#5 = PRODUCT_DEFINITION('design','',#6,#9);
#6 = PRODUCT_DEFINITION_FORMATION('','',#7);
#7 = PRODUCT('Open CASCADE STEP translator 7.8 13',
  'Open CASCADE STEP translator 7.8 13','',(#8));
#8 = PRODUCT_CONTEXT('',#2,'mechanical');
#9 = PRODUCT_DEFINITION_CONTEXT('part definition',#2,'design');
#10 = ADVANCED_BREP_SHAPE_REPRESENTATION('',(#11,#15),#301);
#11 = AXIS2_PLACEMENT_3D('',#12,#13,#14);
#12 = CARTESIAN_POINT('',(0.,0.,0.));
#13 = DIRECTION('',(0.,0.,1.));
#14 = DIRECTION('',(1.,0.,-0.));
#15 = MANIFOLD_SOLID_BREP('',#16);
#16 = CLOSED_SHELL('',(#17,#50,#76,#102,#128,#154,#179,#205,#231,#257,
    #283,#292));
#17 = ADVANCED_FACE('',(#18),#45,.T.);
#18 = FACE_BOUND('',#19,.T.);
#19 = EDGE_LOOP('',(#20,#30,#37,#38));
#20 = ORIENTED_EDGE('',*,*,#21,.T.);
#21 = EDGE_CURVE('',#22,#24,#26,.T.);
#22 = VERTEX_POINT('',#23);
#23 = CARTESIAN_POINT('',(2.5,6.123233995737E-16,167.9));
#24 = VERTEX_POINT('',#25);
#25 = CARTESIAN_POINT('',(2.5,0.,160.));
#26 = LINE('',#27,#28);
#27 = CARTESIAN_POINT('',(2.5,0.,167.9));
#28 = VECTOR('',#29,1.);
#29 = DIRECTION('',(0.,0.,-1.));
#30 = ORIENTED_EDGE('',*,*,#31,.F.);
#31 = EDGE_CURVE('',#24,#24,#32,.T.);
#32 = CIRCLE('',#33,2.5);
#33 = AXIS2_PLACEMENT_3D('',#34,#35,#36);
#34 = CARTESIAN_POINT('',(0.,0.,160.));
#35 = DIRECTION('',(0.,0.,-1.));
#36 = DIRECTION('',(1.,0.,0.));
#37 = ORIENTED_EDGE('',*,*,#21,.F.);
#38 = ORIENTED_EDGE('',*,*,#39,.T.);
#39 = EDGE_CURVE('',#22,#22,#40,.T.);
#40 = CIRCLE('',#41,2.5);
#41 = AXIS2_PLACEMENT_3D('',#42,#43,#44);
#42 = CARTESIAN_POINT('',(0.,0.,167.9));
#43 = DIRECTION('',(0.,0.,-1.));
#44 = DIRECTION('',(1.,0.,0.));
#45 = CYLINDRICAL_SURFACE('',#46,2.5);
#46 = AXIS2_PLACEMENT_3D('',#47,#48,#49);
#47 = CARTESIAN_POINT('',(0.,0.,167.9));
#48 = DIRECTION('',(0.,0.,-1.));
#49 = DIRECTION('',(1.,0.,0.));
#50 = ADVANCED_FACE('',(#51),#71,.T.);
#51 = FACE_BOUND('',#52,.T.);
#52 = EDGE_LOOP('',(#53,#62,#69,#70));
#53 = ORIENTED_EDGE('',*,*,#54,.T.);
#54 = EDGE_CURVE('',#24,#55,#57,.T.);
#55 = VERTEX_POINT('',#56);
#56 = CARTESIAN_POINT('',(8.875,0.,152.58485502501));
#57 = CIRCLE('',#58,7.5);
#58 = AXIS2_PLACEMENT_3D('',#59,#60,#61);
#59 = CARTESIAN_POINT('',(10.,7.963299097641E-15,160.));
#60 = DIRECTION('',(0.,-1.,-0.));
#61 = DIRECTION('',(-1.,0.,-2.84217094304E-15));
#62 = ORIENTED_EDGE('',*,*,#63,.T.);
#63 = EDGE_CURVE('',#55,#55,#64,.T.);
#64 = CIRCLE('',#65,2.5);
#65 = AXIS2_PLACEMENT_3D('',#66,#67,#68);
#66 = CARTESIAN_POINT('',(8.5,0.,150.11314003335));
#67 = DIRECTION('',(-0.988685996664,0.,0.15));
#68 = DIRECTION('',(-0.15,0.,-0.988685996664));
#69 = ORIENTED_EDGE('',*,*,#54,.F.);
#70 = ORIENTED_EDGE('',*,*,#31,.T.);
#71 = TOROIDAL_SURFACE('',#72,10.,2.5);
#72 = AXIS2_PLACEMENT_3D('',#73,#74,#75);
#73 = CARTESIAN_POINT('',(10.,0.,160.));
#74 = DIRECTION('',(0.,-1.,0.));
#75 = DIRECTION('',(-1.,0.,-2.84217094304E-15));
#76 = ADVANCED_FACE('',(#77),#97,.T.);
#77 = FACE_BOUND('',#78,.T.);
#78 = EDGE_LOOP('',(#79,#88,#95,#96));
#79 = ORIENTED_EDGE('',*,*,#80,.T.);
#80 = EDGE_CURVE('',#55,#81,#83,.T.);
#81 = VERTEX_POINT('',#82);
#82 = CARTESIAN_POINT('',(19.5,-8.881784197001E-16,140.22628006671));
#83 = CIRCLE('',#84,12.5);
#84 = AXIS2_PLACEMENT_3D('',#85,#86,#87);
#85 = CARTESIAN_POINT('',(7.,-6.123233995737E-16,140.22628006671));
#86 = DIRECTION('',(-0.,1.,0.));
#87 = DIRECTION('',(0.15,0.,0.988685996664));
#88 = ORIENTED_EDGE('',*,*,#89,.T.);
#89 = EDGE_CURVE('',#81,#81,#90,.T.);
#90 = CIRCLE('',#91,2.5);
#91 = AXIS2_PLACEMENT_3D('',#92,#93,#94);
#92 = CARTESIAN_POINT('',(17.,0.,140.22628006671));
#93 = DIRECTION('',(-2.914335439641E-15,0.,1.));
#94 = DIRECTION('',(1.,0.,2.914335439641E-15));
#95 = ORIENTED_EDGE('',*,*,#80,.F.);
#96 = ORIENTED_EDGE('',*,*,#63,.F.);
#97 = TOROIDAL_SURFACE('',#98,10.,2.5);
#98 = AXIS2_PLACEMENT_3D('',#99,#100,#101);
#99 = CARTESIAN_POINT('',(7.,0.,140.22628006671));
#100 = DIRECTION('',(0.,1.,0.));
#101 = DIRECTION('',(0.15,0.,0.988685996664));
#102 = ADVANCED_FACE('',(#103),#123,.T.);
#103 = FACE_BOUND('',#104,.T.);
#104 = EDGE_LOOP('',(#105,#114,#121,#122));
#105 = ORIENTED_EDGE('',*,*,#106,.T.);
#106 = EDGE_CURVE('',#81,#107,#109,.T.);
#107 = VERTEX_POINT('',#108);
#108 = CARTESIAN_POINT('',(19.5,-11.5,128.23670125843));
#109 = CIRCLE('',#110,12.);
#110 = AXIS2_PLACEMENT_3D('',#111,#112,#113);
#111 = CARTESIAN_POINT('',(19.5,-12.,140.22628006671));
#112 = DIRECTION('',(-1.,0.,0.));
#113 = DIRECTION('',(0.,1.,0.));
#114 = ORIENTED_EDGE('',*,*,#115,.T.);
#115 = EDGE_CURVE('',#107,#107,#116,.T.);
#116 = CIRCLE('',#117,2.5);
#117 = AXIS2_PLACEMENT_3D('',#118,#119,#120);
#118 = CARTESIAN_POINT('',(17.,-11.5,128.23670125843));
#119 = DIRECTION('',(0.,0.999131567357,4.166666666667E-02));
#120 = DIRECTION('',(0.,4.166666666667E-02,-0.999131567357));
#121 = ORIENTED_EDGE('',*,*,#106,.F.);
#122 = ORIENTED_EDGE('',*,*,#89,.F.);
#123 = TOROIDAL_SURFACE('',#124,12.,2.5);
#124 = AXIS2_PLACEMENT_3D('',#125,#126,#127);
#125 = CARTESIAN_POINT('',(17.,-12.,140.22628006671));
#126 = DIRECTION('',(-1.,0.,0.));
#127 = DIRECTION('',(0.,1.,0.));
#128 = ADVANCED_FACE('',(#129),#149,.T.);
#129 = FACE_BOUND('',#130,.T.);
#130 = EDGE_LOOP('',(#131,#140,#147,#148));
#131 = ORIENTED_EDGE('',*,*,#132,.T.);
#132 = EDGE_CURVE('',#107,#133,#135,.T.);
#133 = VERTEX_POINT('',#134);
#134 = CARTESIAN_POINT('',(19.5,-23.,116.24712245015));
#135 = CIRCLE('',#136,12.);
#136 = AXIS2_PLACEMENT_3D('',#137,#138,#139);
#137 = CARTESIAN_POINT('',(19.5,-11.,116.24712245015));
#138 = DIRECTION('',(1.,0.,0.));
#139 = DIRECTION('',(0.,-4.166666666667E-02,0.999131567357));
#140 = ORIENTED_EDGE('',*,*,#141,.T.);
#141 = EDGE_CURVE('',#133,#133,#142,.T.);
#142 = CIRCLE('',#143,2.5);
#143 = AXIS2_PLACEMENT_3D('',#144,#145,#146);
#144 = CARTESIAN_POINT('',(17.,-23.,116.24712245015));
#145 = DIRECTION('',(-0.,4.163336342344E-17,1.));
#146 = DIRECTION('',(0.,-1.,4.163336342344E-17));
#147 = ORIENTED_EDGE('',*,*,#132,.F.);
#148 = ORIENTED_EDGE('',*,*,#115,.F.);
#149 = TOROIDAL_SURFACE('',#150,12.,2.5);
#150 = AXIS2_PLACEMENT_3D('',#151,#152,#153);
#151 = CARTESIAN_POINT('',(17.,-11.,116.24712245015));
#152 = DIRECTION('',(1.,0.,0.));
#153 = DIRECTION('',(0.,-4.166666666667E-02,0.999131567357));
#154 = ADVANCED_FACE('',(#155),#174,.T.);
#155 = FACE_BOUND('',#156,.T.);
#156 = EDGE_LOOP('',(#157,#165,#172,#173));
#157 = ORIENTED_EDGE('',*,*,#158,.T.);
#158 = EDGE_CURVE('',#133,#159,#161,.T.);
#159 = VERTEX_POINT('',#160);
#160 = CARTESIAN_POINT('',(19.5,-23.,44.));
#161 = LINE('',#162,#163);
#162 = CARTESIAN_POINT('',(19.5,-23.,116.24712245015));
#163 = VECTOR('',#164,1.);
#164 = DIRECTION('',(0.,0.,-1.));
#165 = ORIENTED_EDGE('',*,*,#166,.F.);
#166 = EDGE_CURVE('',#159,#159,#167,.T.);
#167 = CIRCLE('',#168,2.5);
#168 = AXIS2_PLACEMENT_3D('',#169,#170,#171);
#169 = CARTESIAN_POINT('',(17.,-23.,44.));
#170 = DIRECTION('',(0.,0.,-1.));
#171 = DIRECTION('',(1.,0.,0.));
#172 = ORIENTED_EDGE('',*,*,#158,.F.);
#173 = ORIENTED_EDGE('',*,*,#141,.F.);
#174 = CYLINDRICAL_SURFACE('',#175,2.5);
#175 = AXIS2_PLACEMENT_3D('',#176,#177,#178);
#176 = CARTESIAN_POINT('',(17.,-23.,116.24712245015));
#177 = DIRECTION('',(0.,0.,-1.));
#178 = DIRECTION('',(1.,0.,0.));
#179 = ADVANCED_FACE('',(#180),#200,.T.);
#180 = FACE_BOUND('',#181,.T.);
#181 = EDGE_LOOP('',(#182,#191,#198,#199));
#182 = ORIENTED_EDGE('',*,*,#183,.T.);
#183 = EDGE_CURVE('',#159,#184,#186,.T.);
#184 = VERTEX_POINT('',#185);
#185 = CARTESIAN_POINT('',(19.5,-11.,32.));
#186 = CIRCLE('',#187,12.);
#187 = AXIS2_PLACEMENT_3D('',#188,#189,#190);
#188 = CARTESIAN_POINT('',(19.5,-11.,44.));
#189 = DIRECTION('',(1.,0.,0.));
#190 = DIRECTION('',(0.,-1.,-5.921189464667E-16));
#191 = ORIENTED_EDGE('',*,*,#192,.T.);
#192 = EDGE_CURVE('',#184,#184,#193,.T.);
#193 = CIRCLE('',#194,2.5);
#194 = AXIS2_PLACEMENT_3D('',#195,#196,#197);
#195 = CARTESIAN_POINT('',(17.,-11.,32.));
#196 = DIRECTION('',(0.,-1.,5.793364181158E-16));
#197 = DIRECTION('',(0.,-5.793364181158E-16,-1.));
#198 = ORIENTED_EDGE('',*,*,#183,.F.);
#199 = ORIENTED_EDGE('',*,*,#166,.T.);
#200 = TOROIDAL_SURFACE('',#201,12.,2.5);
#201 = AXIS2_PLACEMENT_3D('',#202,#203,#204);
#202 = CARTESIAN_POINT('',(17.,-11.,44.));
#203 = DIRECTION('',(1.,0.,0.));
#204 = DIRECTION('',(0.,-1.,-5.921189464667E-16));
#205 = ADVANCED_FACE('',(#206),#226,.T.);
#206 = FACE_BOUND('',#207,.T.);
#207 = EDGE_LOOP('',(#208,#217,#224,#225));
#208 = ORIENTED_EDGE('',*,*,#209,.T.);
#209 = EDGE_CURVE('',#184,#210,#212,.T.);
#210 = VERTEX_POINT('',#211);
#211 = CARTESIAN_POINT('',(8.875,1.358574958303,32.));
#212 = CIRCLE('',#213,12.5);
#213 = AXIS2_PLACEMENT_3D('',#214,#215,#216);
#214 = CARTESIAN_POINT('',(7.,-11.,32.));
#215 = DIRECTION('',(0.,-0.,1.));
#216 = DIRECTION('',(1.,5.329070518201E-16,0.));
#217 = ORIENTED_EDGE('',*,*,#218,.T.);
#218 = EDGE_CURVE('',#210,#210,#219,.T.);
#219 = CIRCLE('',#220,2.5);
#220 = AXIS2_PLACEMENT_3D('',#221,#222,#223);
#221 = CARTESIAN_POINT('',(8.5,-1.113140033357,32.));
#222 = DIRECTION('',(0.988685996664,-0.15,0.));
#223 = DIRECTION('',(0.15,0.988685996664,0.));
#224 = ORIENTED_EDGE('',*,*,#209,.F.);
#225 = ORIENTED_EDGE('',*,*,#192,.F.);
#226 = TOROIDAL_SURFACE('',#227,10.,2.5);
#227 = AXIS2_PLACEMENT_3D('',#228,#229,#230);
#228 = CARTESIAN_POINT('',(7.,-11.,32.));
#229 = DIRECTION('',(0.,0.,1.));
#230 = DIRECTION('',(1.,5.329070518201E-16,0.));
#231 = ADVANCED_FACE('',(#232),#252,.T.);
#232 = FACE_BOUND('',#233,.T.);
#233 = EDGE_LOOP('',(#234,#243,#250,#251));
#234 = ORIENTED_EDGE('',*,*,#235,.T.);
#235 = EDGE_CURVE('',#210,#236,#238,.T.);
#236 = VERTEX_POINT('',#237);
#237 = CARTESIAN_POINT('',(2.5,8.773719933285,32.));
#238 = CIRCLE('',#239,7.5);
#239 = AXIS2_PLACEMENT_3D('',#240,#241,#242);
#240 = CARTESIAN_POINT('',(10.,8.773719933285,32.));
#241 = DIRECTION('',(-0.,0.,-1.));
#242 = DIRECTION('',(-0.15,-0.988685996664,0.));
#243 = ORIENTED_EDGE('',*,*,#244,.T.);
#244 = EDGE_CURVE('',#236,#236,#245,.T.);
#245 = CIRCLE('',#246,2.5);
#246 = AXIS2_PLACEMENT_3D('',#247,#248,#249);
#247 = CARTESIAN_POINT('',(1.7763568394E-15,8.773719933285,32.));
#248 = DIRECTION('',(5.551115123126E-17,-1.,0.));
#249 = DIRECTION('',(-1.,-5.551115123126E-17,0.));
#250 = ORIENTED_EDGE('',*,*,#235,.F.);
#251 = ORIENTED_EDGE('',*,*,#218,.F.);
#252 = TOROIDAL_SURFACE('',#253,10.,2.5);
#253 = AXIS2_PLACEMENT_3D('',#254,#255,#256);
#254 = CARTESIAN_POINT('',(10.,8.773719933285,32.));
#255 = DIRECTION('',(0.,0.,-1.));
#256 = DIRECTION('',(-0.15,-0.988685996664,0.));
#257 = ADVANCED_FACE('',(#258),#278,.T.);
#258 = FACE_BOUND('',#259,.T.);
#259 = EDGE_LOOP('',(#260,#269,#276,#277));
#260 = ORIENTED_EDGE('',*,*,#261,.T.);
#261 = EDGE_CURVE('',#236,#262,#264,.T.);
#262 = VERTEX_POINT('',#263);
#263 = CARTESIAN_POINT('',(2.5,20.08742843227,40.));
#264 = CIRCLE('',#265,12.);
#265 = AXIS2_PLACEMENT_3D('',#266,#267,#268);
#266 = CARTESIAN_POINT('',(2.5,8.773719933285,44.));
#267 = DIRECTION('',(1.,0.,0.));
#268 = DIRECTION('',(0.,-2.960594732334E-16,-1.));
#269 = ORIENTED_EDGE('',*,*,#270,.T.);
#270 = EDGE_CURVE('',#262,#262,#271,.T.);
#271 = CIRCLE('',#272,2.5);
#272 = AXIS2_PLACEMENT_3D('',#273,#274,#275);
#273 = CARTESIAN_POINT('',(0.,20.08742843227,40.));
#274 = DIRECTION('',(0.,-0.333333333333,-0.942809041582));
#275 = DIRECTION('',(0.,0.942809041582,-0.333333333333));
#276 = ORIENTED_EDGE('',*,*,#261,.F.);
#277 = ORIENTED_EDGE('',*,*,#244,.F.);
#278 = TOROIDAL_SURFACE('',#279,12.,2.5);
#279 = AXIS2_PLACEMENT_3D('',#280,#281,#282);
#280 = CARTESIAN_POINT('',(0.,8.773719933285,44.));
#281 = DIRECTION('',(1.,0.,0.));
#282 = DIRECTION('',(0.,-2.960594732334E-16,-1.));
#283 = ADVANCED_FACE('',(#284),#287,.F.);
#284 = FACE_BOUND('',#285,.F.);
#285 = EDGE_LOOP('',(#286));
#286 = ORIENTED_EDGE('',*,*,#39,.T.);
#287 = PLANE('',#288);
#288 = AXIS2_PLACEMENT_3D('',#289,#290,#291);
#289 = CARTESIAN_POINT('',(-1.367440132539E-16,-1.714341265789E-16,167.9
    ));
#290 = DIRECTION('',(-0.,-0.,-1.));
#291 = DIRECTION('',(-1.,0.,0.));
#292 = ADVANCED_FACE('',(#293),#296,.T.);
#293 = FACE_BOUND('',#294,.T.);
#294 = EDGE_LOOP('',(#295));
#295 = ORIENTED_EDGE('',*,*,#270,.F.);
#296 = PLANE('',#297);
#297 = AXIS2_PLACEMENT_3D('',#298,#299,#300);
#298 = CARTESIAN_POINT('',(-2.734880265079E-16,20.08742843227,40.));
#299 = DIRECTION('',(-1.617296430052E-16,0.333333333333,0.942809041582)
  );
#300 = DIRECTION('',(-5.068351813724E-34,0.942809041582,-0.333333333333)
  );
#301 = ( GEOMETRIC_REPRESENTATION_CONTEXT(3) 
GLOBAL_UNCERTAINTY_ASSIGNED_CONTEXT((#305)) GLOBAL_UNIT_ASSIGNED_CONTEXT
((#302,#303,#304)) REPRESENTATION_CONTEXT('Context #1',
  '3D Context with UNIT and UNCERTAINTY') );
#302 = ( LENGTH_UNIT() NAMED_UNIT(*) SI_UNIT(.MILLI.,.METRE.) );
#303 = ( NAMED_UNIT(*) PLANE_ANGLE_UNIT() SI_UNIT($,.RADIAN.) );
#304 = ( NAMED_UNIT(*) SI_UNIT($,.STERADIAN.) SOLID_ANGLE_UNIT() );
#305 = UNCERTAINTY_MEASURE_WITH_UNIT(LENGTH_MEASURE(1.E-07),#302,
  'distance_accuracy_value','confusion accuracy');
#306 = PRODUCT_RELATED_PRODUCT_CATEGORY('part',$,(#7));
ENDSEC;
END-ISO-10303-21;
