ISO-10303-21;
HEADER;
FILE_DESCRIPTION(('FreeCAD Model'),'2;1');
FILE_NAME('Open CASCADE Shape Model','2026-09-19T18:07:28',('FreeCAD'),(
    'FreeCAD'),'Open CASCADE STEP processor 7.8','FreeCAD','Unknown');
FILE_SCHEMA(('AUTOMOTIVE_DESIGN { 1 0 10303 214 1 1 1 1 }'));
ENDSEC;
DATA;
#1 = APPLICATION_PROTOCOL_DEFINITION('international standard',
  'automotive_design',2000,#2);
#2 = APPLICATION_CONTEXT(
  'core data for automotive mechanical design processes');
#3 = SHAPE_DEFINITION_REPRESENTATION(#4,#10);
#4 = PRODUCT_DEFINITION_SHAPE('','',#5);
#5 = PRODUCT_DEFINITION('design','',#6,#9);
#6 = PRODUCT_DEFINITION_FORMATION('','',#7);
#7 = PRODUCT('Open CASCADE STEP translator 7.8 8',
  'Open CASCADE STEP translator 7.8 8','',(#8));
#8 = PRODUCT_CONTEXT('',#2,'mechanical');
#9 = PRODUCT_DEFINITION_CONTEXT('part definition',#2,'design');
#10 = ADVANCED_BREP_SHAPE_REPRESENTATION('',(#11,#15),#1071);
#11 = AXIS2_PLACEMENT_3D('',#12,#13,#14);
#12 = CARTESIAN_POINT('',(0.,0.,0.));
#13 = DIRECTION('',(0.,0.,1.));
#14 = DIRECTION('',(1.,0.,-0.));
#15 = MANIFOLD_SOLID_BREP('',#16);
#16 = CLOSED_SHELL('',(#17,#592,#612,#637,#702,#767,#832,#897,#934,#959,
    #984,#1009,#1034,#1054));
#17 = ADVANCED_FACE('',(#18,#45,#174,#316,#458),#587,.T.);
#18 = FACE_BOUND('',#19,.T.);
#19 = EDGE_LOOP('',(#20,#29,#37,#44));
#20 = ORIENTED_EDGE('',*,*,#21,.T.);
#21 = EDGE_CURVE('',#22,#22,#24,.T.);
#22 = VERTEX_POINT('',#23);
#23 = CARTESIAN_POINT('',(37.,0.,144.4));
#24 = CIRCLE('',#25,37.);
#25 = AXIS2_PLACEMENT_3D('',#26,#27,#28);
#26 = CARTESIAN_POINT('',(0.,0.,144.4));
#27 = DIRECTION('',(0.,0.,1.));
#28 = DIRECTION('',(1.,0.,0.));
#29 = ORIENTED_EDGE('',*,*,#30,.T.);
#30 = EDGE_CURVE('',#22,#31,#33,.T.);
#31 = VERTEX_POINT('',#32);
#32 = CARTESIAN_POINT('',(36.,0.,151.));
#33 = LINE('',#34,#35);
#34 = CARTESIAN_POINT('',(37.,0.,144.4));
#35 = VECTOR('',#36,1.);
#36 = DIRECTION('',(-0.149805379428,0.,0.988715504225));
#37 = ORIENTED_EDGE('',*,*,#38,.F.);
#38 = EDGE_CURVE('',#31,#31,#39,.T.);
#39 = CIRCLE('',#40,36.);
#40 = AXIS2_PLACEMENT_3D('',#41,#42,#43);
#41 = CARTESIAN_POINT('',(0.,0.,151.));
#42 = DIRECTION('',(0.,0.,1.));
#43 = DIRECTION('',(1.,0.,0.));
#44 = ORIENTED_EDGE('',*,*,#30,.F.);
#45 = FACE_BOUND('',#46,.T.);
#46 = EDGE_LOOP('',(#47));
#47 = ORIENTED_EDGE('',*,*,#48,.F.);
#48 = EDGE_CURVE('',#49,#49,#51,.T.);
#49 = VERTEX_POINT('',#50);
#50 = CARTESIAN_POINT('',(24.632933879764,27.037096935798,147.2));
#51 = B_SPLINE_CURVE_WITH_KNOTS('',7,(#52,#53,#54,#55,#56,#57,#58,#59,
    #60,#61,#62,#63,#64,#65,#66,#67,#68,#69,#70,#71,#72,#73,#74,#75,#76,
    #77,#78,#79,#80,#81,#82,#83,#84,#85,#86,#87,#88,#89,#90,#91,#92,#93,
    #94,#95,#96,#97,#98,#99,#100,#101,#102,#103,#104,#105,#106,#107,#108
    ,#109,#110,#111,#112,#113,#114,#115,#116,#117,#118,#119,#120,#121,
    #122,#123,#124,#125,#126,#127,#128,#129,#130,#131,#132,#133,#134,
    #135,#136,#137,#138,#139,#140,#141,#142,#143,#144,#145,#146,#147,
    #148,#149,#150,#151,#152,#153,#154,#155,#156,#157,#158,#159,#160,
    #161,#162,#163,#164,#165,#166,#167,#168,#169,#170,#171,#172,#173),
  .UNSPECIFIED.,.T.,.F.,(8,6,6,6,6,6,6,6,6,6,6,6,6,6,6,6,6,6,6,6,8),(0.,
    0.120539173734,0.162909331913,0.196336833837,0.249422822329,
    0.302935836004,0.336363569945,0.37873402221,0.411600491805,
    0.501516580525,0.566704093431,0.591420580787,0.623742106152,
    0.665580052364,0.698048530309,0.749382062457,0.801142633775,
    0.833611333064,0.875449564493,0.982838500769,1.),.UNSPECIFIED.);
#52 = CARTESIAN_POINT('',(24.632933879764,27.037096935798,147.2));
#53 = CARTESIAN_POINT('',(24.615610900558,27.019773956592,
    147.36151464602));
#54 = CARTESIAN_POINT('',(24.611546111512,26.99039219068,147.5229295552)
  );
#55 = CARTESIAN_POINT('',(24.620823578154,26.949081670117,
    147.68324909872));
#56 = CARTESIAN_POINT('',(24.643893896919,26.895641342714,
    147.84111227802));
#57 = CARTESIAN_POINT('',(24.681353514439,26.829744040793,147.9947249049
    ));
#58 = CARTESIAN_POINT('',(24.733786483885,26.751057077339,
    148.14192500658));
#59 = CARTESIAN_POINT('',(24.826156325157,26.626532115269,
    148.32839113526));
#60 = CARTESIAN_POINT('',(24.852132254689,26.592502287785,148.3757186091
    ));
#61 = CARTESIAN_POINT('',(24.880090308907,26.55681336539,148.42174294873
    ));
#62 = CARTESIAN_POINT('',(24.910055777073,26.519456215846,
    148.46630770138));
#63 = CARTESIAN_POINT('',(24.942045549367,26.480431979497,
    148.50923596128));
#64 = CARTESIAN_POINT('',(24.976064568444,26.439755220126,
    148.55033267252));
#65 = CARTESIAN_POINT('',(25.040533864821,26.364086388469,
    148.62019838925));
#66 = CARTESIAN_POINT('',(25.070220234685,26.329708521992,
    148.64973664665));
#67 = CARTESIAN_POINT('',(25.101154273093,26.294340942212,
    148.67789715397));
#68 = CARTESIAN_POINT('',(25.133319708333,26.258011168821,
    148.70456603758));
#69 = CARTESIAN_POINT('',(25.166688614842,26.220758921237,
    148.72962365676));
#70 = CARTESIAN_POINT('',(25.201218913584,26.182638264467,
    148.75294816023));
#71 = CARTESIAN_POINT('',(25.293440332082,26.081913534716,
    148.80851680497));
#72 = CARTESIAN_POINT('',(25.352845103385,26.018056407441,
    148.83796143208));
#73 = CARTESIAN_POINT('',(25.414781403806,25.95248757393,148.86222702103
    ));
#74 = CARTESIAN_POINT('',(25.47887612338,25.885624600088,148.88085220398
    ));
#75 = CARTESIAN_POINT('',(25.544662980877,25.817969729016,
    148.89346701343));
#76 = CARTESIAN_POINT('',(25.611575111743,25.75011276278,148.8998474684)
  );
#77 = CARTESIAN_POINT('',(25.746836909434,25.614806240272,
    148.90014950467));
#78 = CARTESIAN_POINT('',(25.815247087257,25.547311059295,
    148.89397056744));
#79 = CARTESIAN_POINT('',(25.883471228633,25.48094071572,148.88144959803
    ));
#80 = CARTESIAN_POINT('',(25.95090371186,25.416277691907,148.8628120924)
  );
#81 = CARTESIAN_POINT('',(26.017028585019,25.35380130088,148.83843511781
    ));
#82 = CARTESIAN_POINT('',(26.081416796181,25.29389513531,148.80879084975
    ));
#83 = CARTESIAN_POINT('',(26.182638264467,25.201218913584,
    148.75294816023));
#84 = CARTESIAN_POINT('',(26.220758921237,25.166688614842,
    148.72962365676));
#85 = CARTESIAN_POINT('',(26.258011168821,25.133319708333,
    148.70456603758));
#86 = CARTESIAN_POINT('',(26.294340942212,25.101154273093,
    148.67789715397));
#87 = CARTESIAN_POINT('',(26.329708521992,25.070220234685,
    148.64973664665));
#88 = CARTESIAN_POINT('',(26.364086388469,25.040533864821,
    148.62019838925));
#89 = CARTESIAN_POINT('',(26.439755220126,24.976064568444,
    148.55033267252));
#90 = CARTESIAN_POINT('',(26.480431979497,24.942045549367,
    148.50923596128));
#91 = CARTESIAN_POINT('',(26.519456215846,24.910055777073,
    148.46630770138));
#92 = CARTESIAN_POINT('',(26.55681336539,24.880090308907,148.42174294873
    ));
#93 = CARTESIAN_POINT('',(26.592502287785,24.852132254688,148.3757186091
    ));
#94 = CARTESIAN_POINT('',(26.626532115269,24.826156325157,
    148.32839113526));
#95 = CARTESIAN_POINT('',(26.684041465427,24.783497171061,
    148.24227550263));
#96 = CARTESIAN_POINT('',(26.70817390195,24.766037583642,148.20395517629
    ));
#97 = CARTESIAN_POINT('',(26.731323718812,24.74973959466,148.16499689185
    ));
#98 = CARTESIAN_POINT('',(26.753498664878,24.734589085447,
    148.12545946804));
#99 = CARTESIAN_POINT('',(26.774706930445,24.72057184218,148.08539689574
    ));
#100 = CARTESIAN_POINT('',(26.794957147245,24.707673555884,148.044858338
    ));
#101 = CARTESIAN_POINT('',(26.867062724822,24.663614526007,
    147.89180183337));
#102 = CARTESIAN_POINT('',(26.912742458232,24.639630130438,
    147.77653020548));
#103 = CARTESIAN_POINT('',(26.951514119697,24.623611573775,
    147.65892550932));
#104 = CARTESIAN_POINT('',(26.983504139205,24.615331681792,
    147.53972123549));
#105 = CARTESIAN_POINT('',(27.008792685863,24.614605184603,
    147.41955861947));
#106 = CARTESIAN_POINT('',(27.02741328535,24.621290158607,
    147.29900019586));
#107 = CARTESIAN_POINT('',(27.047931819956,24.645520518783,
    147.09119199299));
#108 = CARTESIAN_POINT('',(27.053017658406,24.659570097997,
    147.0039286908));
#109 = CARTESIAN_POINT('',(27.05454684266,24.677460355584,
    146.91693818378));
#110 = CARTESIAN_POINT('',(27.052475052381,24.699183703712,
    146.83043236062));
#111 = CARTESIAN_POINT('',(27.046738267447,24.724743809593,146.744638252
    ));
#112 = CARTESIAN_POINT('',(27.037251744833,24.754155641312,
    146.65980045185));
#113 = CARTESIAN_POINT('',(27.018840642698,24.800076631759,
    146.54448138634));
#114 = CARTESIAN_POINT('',(27.013223881787,24.813259243759,
    146.51295468326));
#115 = CARTESIAN_POINT('',(27.007045934103,24.827001340641,
    146.48161994128));
#116 = CARTESIAN_POINT('',(27.000300343831,24.841304497246,
    146.4504932004));
#117 = CARTESIAN_POINT('',(26.992980221698,24.856170351017,
    146.41959149603));
#118 = CARTESIAN_POINT('',(26.985078244979,24.871600602005,
    146.38893285899));
#119 = CARTESIAN_POINT('',(26.965482285896,24.908515373624,
    146.31878703249));
#120 = CARTESIAN_POINT('',(26.953369934742,24.9304014106,146.27948664531
    ));
#121 = CARTESIAN_POINT('',(26.940231911684,24.953259554397,
    146.24067723372));
#122 = CARTESIAN_POINT('',(26.926049931002,24.97709321751,
    146.20240552464));
#123 = CARTESIAN_POINT('',(26.910805113599,25.001904794313,
    146.16472289222));
#124 = CARTESIAN_POINT('',(26.894477987002,25.027695661064,
    146.1276853578));
#125 = CARTESIAN_POINT('',(26.854487218723,25.089118728568,
    146.04432466617));
#126 = CARTESIAN_POINT('',(26.830080600982,25.125410061531,
    145.9984817271));
#127 = CARTESIAN_POINT('',(26.803784912451,25.163341836345,
    145.95395357201));
#128 = CARTESIAN_POINT('',(26.775558765469,25.202906141848,
    145.91089156106));
#129 = CARTESIAN_POINT('',(26.745366690189,25.24408251418,
    145.86946730012));
#130 = CARTESIAN_POINT('',(26.713182720368,25.286834956791,
    145.82987032578));
#131 = CARTESIAN_POINT('',(26.652461692291,25.36546794893,
    145.76315370691));
#132 = CARTESIAN_POINT('',(26.624723656007,25.400741168339,
    145.73522755657));
#133 = CARTESIAN_POINT('',(26.595775802818,25.436901006708,
    145.70862417178));
#134 = CARTESIAN_POINT('',(26.565621734463,25.473909390128,
    145.68344904383));
#135 = CARTESIAN_POINT('',(26.534275421158,25.511716162279,
    145.65981299084));
#136 = CARTESIAN_POINT('',(26.50176390086,25.550257463946,
    145.63782882594));
#137 = CARTESIAN_POINT('',(26.414953847636,25.651425062465,
    145.58563839885));
#138 = CARTESIAN_POINT('',(26.35894055046,25.715071044624,
    145.55805715485));
#139 = CARTESIAN_POINT('',(26.300303610288,25.780024501671,
    145.53534347273));
#140 = CARTESIAN_POINT('',(26.239341067175,25.845849596457,
    145.51791816996));
#141 = CARTESIAN_POINT('',(26.176446626058,25.912042595165,
    145.50611831991));
#142 = CARTESIAN_POINT('',(26.112122963155,25.978035333307,
    145.50014756402));
#143 = CARTESIAN_POINT('',(25.981329642503,26.108910309696,
    145.49985546287));
#144 = CARTESIAN_POINT('',(25.914797120181,26.173828237178,
    145.50563133515));
#145 = CARTESIAN_POINT('',(25.848041769569,26.237310173174,
    145.51734025085));
#146 = CARTESIAN_POINT('',(25.781647002406,26.298838606229,
    145.53477716126));
#147 = CARTESIAN_POINT('',(25.716130448832,26.358008127372,
    145.55759830562));
#148 = CARTESIAN_POINT('',(25.651940167405,26.414511845573,
    145.58537266608));
#149 = CARTESIAN_POINT('',(25.550257463946,26.50176390086,
    145.63782882594));
#150 = CARTESIAN_POINT('',(25.511716162279,26.534275421158,
    145.65981299084));
#151 = CARTESIAN_POINT('',(25.473909390128,26.565621734463,
    145.68344904383));
#152 = CARTESIAN_POINT('',(25.436901006708,26.595775802818,
    145.70862417178));
#153 = CARTESIAN_POINT('',(25.400741168339,26.624723656007,
    145.73522755657));
#154 = CARTESIAN_POINT('',(25.36546794893,26.652461692291,
    145.76315370691));
#155 = CARTESIAN_POINT('',(25.286834956791,26.713182720368,
    145.82987032578));
#156 = CARTESIAN_POINT('',(25.24408251418,26.745366690189,
    145.86946730012));
#157 = CARTESIAN_POINT('',(25.202906141848,26.775558765469,
    145.91089156106));
#158 = CARTESIAN_POINT('',(25.163341836344,26.803784912451,
    145.95395357201));
#159 = CARTESIAN_POINT('',(25.125410061531,26.830080600982,
    145.9984817271));
#160 = CARTESIAN_POINT('',(25.089118728567,26.854487218723,
    146.04432466617));
#161 = CARTESIAN_POINT('',(24.96552119322,26.934957970134,
    146.21206581699));
#162 = CARTESIAN_POINT('',(24.887483369566,26.980638278437,
    146.34044081568));
#163 = CARTESIAN_POINT('',(24.820143593667,27.014969771229,
    146.47445001613));
#164 = CARTESIAN_POINT('',(24.763417219994,27.038545602809,
    146.61250255014));
#165 = CARTESIAN_POINT('',(24.717167312078,27.051893060269,
    146.75327912029));
#166 = CARTESIAN_POINT('',(24.681285750595,27.055397729736,
    146.89576291383));
#167 = CARTESIAN_POINT('',(24.651747206603,27.048213181339,
    147.06213886066));
#168 = CARTESIAN_POINT('',(24.6479436924,27.046975671916,147.08508478643
    ));
#169 = CARTESIAN_POINT('',(24.644406913415,27.045491333971,
    147.10804822513));
#170 = CARTESIAN_POINT('',(24.641137150154,27.043760805579,
    147.13102531127));
#171 = CARTESIAN_POINT('',(24.63813475779,27.041784623302,
    147.15401219271));
#172 = CARTESIAN_POINT('',(24.63540016616,27.039563222195,
    147.17700503074));
#173 = CARTESIAN_POINT('',(24.632933879764,27.037096935798,147.2));
#174 = FACE_BOUND('',#175,.T.);
#175 = EDGE_LOOP('',(#176));
#176 = ORIENTED_EDGE('',*,*,#177,.F.);
#177 = EDGE_CURVE('',#178,#178,#180,.T.);
#178 = VERTEX_POINT('',#179);
#179 = CARTESIAN_POINT('',(-24.63293387976,27.037096935798,147.2));
#180 = B_SPLINE_CURVE_WITH_KNOTS('',8,(#181,#182,#183,#184,#185,#186,
    #187,#188,#189,#190,#191,#192,#193,#194,#195,#196,#197,#198,#199,
    #200,#201,#202,#203,#204,#205,#206,#207,#208,#209,#210,#211,#212,
    #213,#214,#215,#216,#217,#218,#219,#220,#221,#222,#223,#224,#225,
    #226,#227,#228,#229,#230,#231,#232,#233,#234,#235,#236,#237,#238,
    #239,#240,#241,#242,#243,#244,#245,#246,#247,#248,#249,#250,#251,
    #252,#253,#254,#255,#256,#257,#258,#259,#260,#261,#262,#263,#264,
    #265,#266,#267,#268,#269,#270,#271,#272,#273,#274,#275,#276,#277,
    #278,#279,#280,#281,#282,#283,#284,#285,#286,#287,#288,#289,#290,
    #291,#292,#293,#294,#295,#296,#297,#298,#299,#300,#301,#302,#303,
    #304,#305,#306,#307,#308,#309,#310,#311,#312,#313,#314,#315),
  .UNSPECIFIED.,.T.,.F.,(9,7,7,7,7,7,7,7,7,7,7,7,7,7,7,7,7,7,7,9),(0.,
    0.124574889585,0.166411256522,0.198878508866,0.250210103304,
    0.301968720792,0.334436194471,0.376272846614,0.408593372257,
    0.43330909512,0.498494591743,0.588407899312,0.62127335233,
    0.663642494055,0.697069194059,0.750153909027,0.803665638933,
    0.837092570947,0.879462006752,1.),.UNSPECIFIED.);
#181 = CARTESIAN_POINT('',(-24.63293387976,27.037096935798,147.2));
#182 = CARTESIAN_POINT('',(-24.64859974561,27.052762801646,
    147.0539358186));
#183 = CARTESIAN_POINT('',(-24.67485018325,27.058729456164,
    146.90814373421));
#184 = CARTESIAN_POINT('',(-24.71154353343,27.054988632473,
    146.7632835426));
#185 = CARTESIAN_POINT('',(-24.75872818043,27.041271879994,
    146.62022947931));
#186 = CARTESIAN_POINT('',(-24.8164878482,27.017196494083,
    146.48006093637));
#187 = CARTESIAN_POINT('',(-24.88494318413,26.982244037518,
    146.34409881943));
#188 = CARTESIAN_POINT('',(-24.96418029645,26.935830988919,
    146.21388562324));
#189 = CARTESIAN_POINT('',(-25.08478715948,26.857307377053,
    146.05020328164));
#190 = CARTESIAN_POINT('',(-25.11633722829,26.836182255417,
    146.00994246187));
#191 = CARTESIAN_POINT('',(-25.14911742078,26.81364579565,
    145.97065163017));
#192 = CARTESIAN_POINT('',(-25.18312398909,26.78967183896,
    145.93242256653));
#193 = CARTESIAN_POINT('',(-25.21834728147,26.764236737239,
    145.89535746321));
#194 = CARTESIAN_POINT('',(-25.25477062483,26.737320697734,
    145.85956805653));
#195 = CARTESIAN_POINT('',(-25.29236920724,26.708909127715,
    145.82517475884));
#196 = CARTESIAN_POINT('',(-25.36117307537,26.655778228148,
    145.76679771733));
#197 = CARTESIAN_POINT('',(-25.39192286348,26.631658165078,
    145.74220909416));
#198 = CARTESIAN_POINT('',(-25.42334106731,26.606631247764,
    145.71860044108));
#199 = CARTESIAN_POINT('',(-25.45540519841,26.580698768641,
    145.69603660781));
#200 = CARTESIAN_POINT('',(-25.48808692968,26.553866866974,
    145.67458552396));
#201 = CARTESIAN_POINT('',(-25.52135148769,26.526147541084,
    145.65431694961));
#202 = CARTESIAN_POINT('',(-25.55515704502,26.497559660569,
    145.63530122587));
#203 = CARTESIAN_POINT('',(-25.64367869372,26.421600863998,
    145.58963460217));
#204 = CARTESIAN_POINT('',(-25.69915954908,26.372943874754,
    145.56495246585));
#205 = CARTESIAN_POINT('',(-25.75566695527,26.322292462853,
    145.54386110352));
#206 = CARTESIAN_POINT('',(-25.81293704906,26.269822338732,
    145.52663082134));
#207 = CARTESIAN_POINT('',(-25.87067197097,26.215755651757,
    145.51349322619));
#208 = CARTESIAN_POINT('',(-25.9285407797,26.160365710333,
    145.50462563094));
#209 = CARTESIAN_POINT('',(-25.98618113721,26.10398224159,
    145.50012938332));
#210 = CARTESIAN_POINT('',(-26.10069674155,25.98953808602,
    145.49987379481));
#211 = CARTESIAN_POINT('',(-26.1575987553,25.931430250761,
    145.50418736708));
#212 = CARTESIAN_POINT('',(-26.21350444717,25.873075026049,
    145.51294940746));
#213 = CARTESIAN_POINT('',(-26.2680743897,25.814844385988,
    145.52605870606));
#214 = CARTESIAN_POINT('',(-26.32102717665,25.757078294816,
    145.5433350904));
#215 = CARTESIAN_POINT('',(-26.37213405692,25.700082878475,
    145.56454189574));
#216 = CARTESIAN_POINT('',(-26.42121411219,25.644129410548,
    145.58940208599));
#217 = CARTESIAN_POINT('',(-26.49755966056,25.555157045021,
    145.63530122587));
#218 = CARTESIAN_POINT('',(-26.52614754108,25.521351487696,
    145.65431694961));
#219 = CARTESIAN_POINT('',(-26.55386686697,25.488086929685,
    145.67458552396));
#220 = CARTESIAN_POINT('',(-26.58069876864,25.455405198418,
    145.69603660781));
#221 = CARTESIAN_POINT('',(-26.60663124776,25.42334106732,
    145.71860044108));
#222 = CARTESIAN_POINT('',(-26.63165816507,25.391922863487,
    145.74220909416));
#223 = CARTESIAN_POINT('',(-26.65577822814,25.361173075371,
    145.76679771733));
#224 = CARTESIAN_POINT('',(-26.70890912771,25.292369207249,
    145.82517475884));
#225 = CARTESIAN_POINT('',(-26.73732069773,25.254770624833,
    145.85956805653));
#226 = CARTESIAN_POINT('',(-26.76423673723,25.218347281472,
    145.89535746321));
#227 = CARTESIAN_POINT('',(-26.78967183896,25.183123989096,
    145.93242256653));
#228 = CARTESIAN_POINT('',(-26.81364579565,25.149117420789,
    145.97065163017));
#229 = CARTESIAN_POINT('',(-26.83618225541,25.11633722829,
    146.00994246187));
#230 = CARTESIAN_POINT('',(-26.85730737705,25.084787159484,
    146.05020328164));
#231 = CARTESIAN_POINT('',(-26.89229929929,25.031041975419,
    146.12314388681));
#232 = CARTESIAN_POINT('',(-26.90672333195,25.008352511001,
    146.15546350862));
#233 = CARTESIAN_POINT('',(-26.92033312447,24.986397558811,
    146.18827453748));
#234 = CARTESIAN_POINT('',(-26.93314092134,24.965176385954,
    146.22154137918));
#235 = CARTESIAN_POINT('',(-26.94515867033,24.944687750473,
    146.25523076306));
#236 = CARTESIAN_POINT('',(-26.95639802253,24.924929901356,
    146.2893117421));
#237 = CARTESIAN_POINT('',(-26.96687033234,24.905900578529,
    146.32375569287));
#238 = CARTESIAN_POINT('',(-26.98401679654,24.873600153363,
    146.38513329106));
#239 = CARTESIAN_POINT('',(-26.99100472751,24.860027913764,
    146.41192683677));
#240 = CARTESIAN_POINT('',(-26.99755529803,24.84687919241,
    146.43890506126));
#241 = CARTESIAN_POINT('',(-27.00367313896,24.834152918944,
    146.46605657084));
#242 = CARTESIAN_POINT('',(-27.00936266448,24.82184805431,
    146.49337046952));
#243 = CARTESIAN_POINT('',(-27.01462807201,24.809963590759,
    146.52083635903));
#244 = CARTESIAN_POINT('',(-27.01947334226,24.79849855184,
    146.54844433879));
#245 = CARTESIAN_POINT('',(-27.03558305662,24.758317685199,
    146.64934852111));
#246 = CARTESIAN_POINT('',(-27.04436663679,24.732096767523,
    146.72342880196));
#247 = CARTESIAN_POINT('',(-27.05032375803,24.708768743417,
    146.79825956989));
#248 = CARTESIAN_POINT('',(-27.05351094752,24.688322029648,
    146.8736852722));
#249 = CARTESIAN_POINT('',(-27.05397339856,24.670751508989,
    146.94955962391));
#250 = CARTESIAN_POINT('',(-27.05174619879,24.656057703193,
    147.02574451635));
#251 = CARTESIAN_POINT('',(-27.04685386929,24.644247565657,
    147.1021092926));
#252 = CARTESIAN_POINT('',(-27.02890015151,24.623046000503,
    147.2839414701));
#253 = CARTESIAN_POINT('',(-27.01344783573,24.616276428104,
    147.38941901357));
#254 = CARTESIAN_POINT('',(-26.9929873442,24.615059245346,
    147.49466025448));
#255 = CARTESIAN_POINT('',(-26.96750912945,24.619471627784,
    147.5993233724));
#256 = CARTESIAN_POINT('',(-26.93697474664,24.629618532524,
    147.70302727038));
#257 = CARTESIAN_POINT('',(-26.90132252488,24.64562622933,
    147.80534811246));
#258 = CARTESIAN_POINT('',(-26.86046218277,24.66764768806,
    147.90581262045));
#259 = CARTESIAN_POINT('',(-26.79736980239,24.706199339202,
    148.03973706199));
#260 = CARTESIAN_POINT('',(-26.77976948464,24.717347270606,
    148.07526225631));
#261 = CARTESIAN_POINT('',(-26.76145176446,24.729332619222,
    148.11043600343));
#262 = CARTESIAN_POINT('',(-26.74241119184,24.742164340053,
    148.14522817994));
#263 = CARTESIAN_POINT('',(-26.72264253748,24.755851340528,
    148.17960624851));
#264 = CARTESIAN_POINT('',(-26.70214079281,24.770402480497,
    148.21353525787));
#265 = CARTESIAN_POINT('',(-26.68090116997,24.785826572232,
    148.24697784284));
#266 = CARTESIAN_POINT('',(-26.63058048858,24.823153332066,
    148.32232902139));
#267 = CARTESIAN_POINT('',(-26.60100974465,24.845638272306,
    148.36388674064));
#268 = CARTESIAN_POINT('',(-26.57019671128,24.869606038575,
    148.40448382137));
#269 = CARTESIAN_POINT('',(-26.53813479061,24.89507304299,
    148.44402532505));
#270 = CARTESIAN_POINT('',(-26.50482212721,24.922051941683,
    148.48240579884));
#271 = CARTESIAN_POINT('',(-26.47026278965,24.950550304137,
    148.51951013909));
#272 = CARTESIAN_POINT('',(-26.43446795208,24.98056928251,
    148.55521445493));
#273 = CARTESIAN_POINT('',(-26.36825772438,25.03697991684,
    148.61634695707));
#274 = CARTESIAN_POINT('',(-26.33830298861,25.062798642219,
    148.6423520823));
#275 = CARTESIAN_POINT('',(-26.30760378462,25.08955400869,
    148.66733696372));
#276 = CARTESIAN_POINT('',(-26.27617605551,25.117236990713,
    148.69123159577));
#277 = CARTESIAN_POINT('',(-26.24404157597,25.145833048274,
    148.71396264477));
#278 = CARTESIAN_POINT('',(-26.21122875704,25.175321189527,
    148.73545478263));
#279 = CARTESIAN_POINT('',(-26.17777345078,25.205673033441,
    148.75563202053));
#280 = CARTESIAN_POINT('',(-26.08963931224,25.286366774626,
    148.80425458467));
#281 = CARTESIAN_POINT('',(-26.03402068925,25.33799391056,148.8306002753
    ));
#282 = CARTESIAN_POINT('',(-25.97707588649,25.391555291148,
    148.85312742517));
#283 = CARTESIAN_POINT('',(-25.919056087,25.446828763593,148.87153961251
    ));
#284 = CARTESIAN_POINT('',(-25.86025402343,25.503546194942,
    148.88558275753));
#285 = CARTESIAN_POINT('',(-25.80100548745,25.561391013594,
    148.89506212717));
#286 = CARTESIAN_POINT('',(-25.74168998166,25.619995108752,
    148.89986627005));
#287 = CARTESIAN_POINT('',(-25.62329677447,25.738349181732,
    148.90013055179));
#288 = CARTESIAN_POINT('',(-25.56418485453,25.798144542801,
    148.89551530175));
#289 = CARTESIAN_POINT('',(-25.50582959456,25.857887175617,
    148.88614496156));
#290 = CARTESIAN_POINT('',(-25.44860920381,25.917187470246,
    148.87213084521));
#291 = CARTESIAN_POINT('',(-25.39284904527,25.975700539295,
    148.85367072693));
#292 = CARTESIAN_POINT('',(-25.33882475948,26.03312563781,148.8310240508
    ));
#293 = CARTESIAN_POINT('',(-25.28676472745,26.089204666031,
    148.80449437386));
#294 = CARTESIAN_POINT('',(-25.20567303344,26.177773450781,
    148.75563202053));
#295 = CARTESIAN_POINT('',(-25.17532118952,26.211228757045,
    148.73545478263));
#296 = CARTESIAN_POINT('',(-25.14583304827,26.244041575977,
    148.71396264477));
#297 = CARTESIAN_POINT('',(-25.11723699071,26.276176055517,
    148.69123159577));
#298 = CARTESIAN_POINT('',(-25.08955400869,26.30760378463,
    148.66733696372));
#299 = CARTESIAN_POINT('',(-25.06279864221,26.338302988612,
    148.6423520823));
#300 = CARTESIAN_POINT('',(-25.03697991684,26.368257724386,
    148.61634695707));
#301 = CARTESIAN_POINT('',(-24.98056928251,26.434467952085,
    148.55521445493));
#302 = CARTESIAN_POINT('',(-24.95055030413,26.470262789655,
    148.51951013909));
#303 = CARTESIAN_POINT('',(-24.92205194168,26.504822127215,
    148.48240579884));
#304 = CARTESIAN_POINT('',(-24.89507304299,26.538134790618,
    148.44402532505));
#305 = CARTESIAN_POINT('',(-24.86960603857,26.570196711288,
    148.40448382137));
#306 = CARTESIAN_POINT('',(-24.8456382723,26.601009744656,
    148.36388674064));
#307 = CARTESIAN_POINT('',(-24.82315333206,26.630580488587,
    148.32232902139));
#308 = CARTESIAN_POINT('',(-24.74232928703,26.739540415371,
    148.15917028284));
#309 = CARTESIAN_POINT('',(-24.69446191862,26.810072159637,
    148.03152485696));
#310 = CARTESIAN_POINT('',(-24.65794136805,26.870929676093,
    147.89871737914));
#311 = CARTESIAN_POINT('',(-24.63235865108,26.922361539105,
    147.76218093074));
#312 = CARTESIAN_POINT('',(-24.61734435143,26.964573383473,
    147.62312873919));
#313 = CARTESIAN_POINT('',(-24.61256218041,26.997738103002,
    147.48257410359));
#314 = CARTESIAN_POINT('',(-24.61777650274,27.021939558775,
    147.34132317284));
#315 = CARTESIAN_POINT('',(-24.63293387976,27.037096935798,147.2));
#316 = FACE_BOUND('',#317,.T.);
#317 = EDGE_LOOP('',(#318));
#318 = ORIENTED_EDGE('',*,*,#319,.F.);
#319 = EDGE_CURVE('',#320,#320,#322,.T.);
#320 = VERTEX_POINT('',#321);
#321 = CARTESIAN_POINT('',(24.632933879764,-27.03709693579,147.2));
#322 = B_SPLINE_CURVE_WITH_KNOTS('',8,(#323,#324,#325,#326,#327,#328,
    #329,#330,#331,#332,#333,#334,#335,#336,#337,#338,#339,#340,#341,
    #342,#343,#344,#345,#346,#347,#348,#349,#350,#351,#352,#353,#354,
    #355,#356,#357,#358,#359,#360,#361,#362,#363,#364,#365,#366,#367,
    #368,#369,#370,#371,#372,#373,#374,#375,#376,#377,#378,#379,#380,
    #381,#382,#383,#384,#385,#386,#387,#388,#389,#390,#391,#392,#393,
    #394,#395,#396,#397,#398,#399,#400,#401,#402,#403,#404,#405,#406,
    #407,#408,#409,#410,#411,#412,#413,#414,#415,#416,#417,#418,#419,
    #420,#421,#422,#423,#424,#425,#426,#427,#428,#429,#430,#431,#432,
    #433,#434,#435,#436,#437,#438,#439,#440,#441,#442,#443,#444,#445,
    #446,#447,#448,#449,#450,#451,#452,#453,#454,#455,#456,#457),
  .UNSPECIFIED.,.T.,.F.,(9,7,7,7,7,7,7,7,7,7,7,7,7,7,7,7,7,7,7,9),(0.,
    0.124574889585,0.166411256521,0.198878508865,0.250210103303,
    0.301968720791,0.33443619447,0.376272846613,0.408593372256,
    0.433309095119,0.498494591742,0.588407899311,0.621273352329,
    0.663642494054,0.697069194057,0.750153909025,0.803665638932,
    0.837092570946,0.879462006751,1.),.UNSPECIFIED.);
#323 = CARTESIAN_POINT('',(24.632933879764,-27.03709693579,147.2));
#324 = CARTESIAN_POINT('',(24.648599745612,-27.05276280164,
    147.0539358186));
#325 = CARTESIAN_POINT('',(24.674850183256,-27.05872945616,
    146.90814373421));
#326 = CARTESIAN_POINT('',(24.711543533435,-27.05498863247,
    146.7632835426));
#327 = CARTESIAN_POINT('',(24.758728180436,-27.04127187999,
    146.62022947931));
#328 = CARTESIAN_POINT('',(24.816487848209,-27.01719649408,
    146.48006093637));
#329 = CARTESIAN_POINT('',(24.884943184133,-26.98224403751,
    146.34409881943));
#330 = CARTESIAN_POINT('',(24.964180296455,-26.93583098891,
    146.21388562324));
#331 = CARTESIAN_POINT('',(25.084787159484,-26.85730737705,
    146.05020328164));
#332 = CARTESIAN_POINT('',(25.11633722829,-26.83618225541,
    146.00994246187));
#333 = CARTESIAN_POINT('',(25.149117420789,-26.81364579565,
    145.97065163017));
#334 = CARTESIAN_POINT('',(25.183123989096,-26.78967183896,
    145.93242256653));
#335 = CARTESIAN_POINT('',(25.218347281472,-26.76423673723,
    145.89535746321));
#336 = CARTESIAN_POINT('',(25.254770624833,-26.73732069773,
    145.85956805653));
#337 = CARTESIAN_POINT('',(25.292369207249,-26.70890912771,
    145.82517475884));
#338 = CARTESIAN_POINT('',(25.361173075371,-26.65577822814,
    145.76679771733));
#339 = CARTESIAN_POINT('',(25.391922863487,-26.63165816507,
    145.74220909416));
#340 = CARTESIAN_POINT('',(25.423341067319,-26.60663124776,
    145.71860044108));
#341 = CARTESIAN_POINT('',(25.455405198418,-26.58069876864,
    145.69603660781));
#342 = CARTESIAN_POINT('',(25.488086929685,-26.55386686697,
    145.67458552396));
#343 = CARTESIAN_POINT('',(25.521351487695,-26.52614754108,
    145.65431694961));
#344 = CARTESIAN_POINT('',(25.55515704502,-26.49755966056,
    145.63530122587));
#345 = CARTESIAN_POINT('',(25.643678693725,-26.42160086399,
    145.58963460217));
#346 = CARTESIAN_POINT('',(25.699159549085,-26.37294387475,
    145.56495246585));
#347 = CARTESIAN_POINT('',(25.755666955278,-26.32229246285,
    145.54386110352));
#348 = CARTESIAN_POINT('',(25.812937049064,-26.26982233873,
    145.52663082134));
#349 = CARTESIAN_POINT('',(25.870671970972,-26.21575565175,
    145.51349322619));
#350 = CARTESIAN_POINT('',(25.9285407797,-26.16036571033,145.50462563094
    ));
#351 = CARTESIAN_POINT('',(25.986181137216,-26.10398224159,
    145.50012938332));
#352 = CARTESIAN_POINT('',(26.100696741556,-25.98953808602,
    145.49987379481));
#353 = CARTESIAN_POINT('',(26.157598755307,-25.93143025076,
    145.50418736708));
#354 = CARTESIAN_POINT('',(26.213504447176,-25.87307502604,
    145.51294940746));
#355 = CARTESIAN_POINT('',(26.268074389701,-25.81484438598,
    145.52605870606));
#356 = CARTESIAN_POINT('',(26.321027176657,-25.75707829481,
    145.5433350904));
#357 = CARTESIAN_POINT('',(26.372134056922,-25.70008287847,
    145.56454189574));
#358 = CARTESIAN_POINT('',(26.421214112192,-25.64412941054,
    145.58940208599));
#359 = CARTESIAN_POINT('',(26.497559660569,-25.55515704502,
    145.63530122587));
#360 = CARTESIAN_POINT('',(26.526147541084,-25.52135148769,
    145.65431694961));
#361 = CARTESIAN_POINT('',(26.553866866974,-25.48808692968,
    145.67458552396));
#362 = CARTESIAN_POINT('',(26.580698768641,-25.45540519841,
    145.69603660781));
#363 = CARTESIAN_POINT('',(26.606631247764,-25.42334106732,
    145.71860044108));
#364 = CARTESIAN_POINT('',(26.631658165078,-25.39192286348,
    145.74220909416));
#365 = CARTESIAN_POINT('',(26.655778228148,-25.36117307537,
    145.76679771733));
#366 = CARTESIAN_POINT('',(26.708909127715,-25.29236920724,
    145.82517475884));
#367 = CARTESIAN_POINT('',(26.737320697734,-25.25477062483,
    145.85956805653));
#368 = CARTESIAN_POINT('',(26.764236737239,-25.21834728147,
    145.89535746321));
#369 = CARTESIAN_POINT('',(26.78967183896,-25.18312398909,
    145.93242256653));
#370 = CARTESIAN_POINT('',(26.81364579565,-25.14911742078,
    145.97065163017));
#371 = CARTESIAN_POINT('',(26.836182255417,-25.11633722829,
    146.00994246187));
#372 = CARTESIAN_POINT('',(26.857307377053,-25.08478715948,
    146.05020328164));
#373 = CARTESIAN_POINT('',(26.892299299298,-25.03104197541,
    146.12314388681));
#374 = CARTESIAN_POINT('',(26.90672333195,-25.008352511,146.15546350862)
  );
#375 = CARTESIAN_POINT('',(26.920333124476,-24.98639755881,
    146.18827453748));
#376 = CARTESIAN_POINT('',(26.933140921343,-24.96517638595,
    146.22154137918));
#377 = CARTESIAN_POINT('',(26.945158670331,-24.94468775047,
    146.25523076306));
#378 = CARTESIAN_POINT('',(26.95639802253,-24.92492990135,146.2893117421
    ));
#379 = CARTESIAN_POINT('',(26.966870332346,-24.90590057852,
    146.32375569287));
#380 = CARTESIAN_POINT('',(26.984016796544,-24.87360015336,
    146.38513329106));
#381 = CARTESIAN_POINT('',(26.991004727518,-24.86002791376,
    146.41192683677));
#382 = CARTESIAN_POINT('',(26.997555298031,-24.84687919241,
    146.43890506126));
#383 = CARTESIAN_POINT('',(27.003673138967,-24.83415291894,
    146.46605657084));
#384 = CARTESIAN_POINT('',(27.009362664485,-24.82184805431,
    146.49337046952));
#385 = CARTESIAN_POINT('',(27.014628072015,-24.80996359075,
    146.52083635903));
#386 = CARTESIAN_POINT('',(27.019473342261,-24.79849855184,
    146.54844433879));
#387 = CARTESIAN_POINT('',(27.035583056628,-24.75831768519,
    146.64934852111));
#388 = CARTESIAN_POINT('',(27.044366636793,-24.73209676752,
    146.72342880196));
#389 = CARTESIAN_POINT('',(27.050323758031,-24.70876874341,
    146.79825956989));
#390 = CARTESIAN_POINT('',(27.05351094752,-24.68832202964,146.8736852722
    ));
#391 = CARTESIAN_POINT('',(27.053973398564,-24.67075150898,
    146.94955962391));
#392 = CARTESIAN_POINT('',(27.051746198793,-24.65605770319,
    147.02574451635));
#393 = CARTESIAN_POINT('',(27.046853869295,-24.64424756565,
    147.1021092926));
#394 = CARTESIAN_POINT('',(27.028900151515,-24.6230460005,147.2839414701
    ));
#395 = CARTESIAN_POINT('',(27.013447835735,-24.6162764281,
    147.38941901357));
#396 = CARTESIAN_POINT('',(26.992987344202,-24.61505924534,
    147.49466025448));
#397 = CARTESIAN_POINT('',(26.967509129451,-24.61947162778,
    147.5993233724));
#398 = CARTESIAN_POINT('',(26.936974746648,-24.62961853252,
    147.70302727038));
#399 = CARTESIAN_POINT('',(26.90132252488,-24.64562622933,
    147.80534811246));
#400 = CARTESIAN_POINT('',(26.860462182775,-24.66764768806,
    147.90581262045));
#401 = CARTESIAN_POINT('',(26.797369802395,-24.7061993392,
    148.03973706199));
#402 = CARTESIAN_POINT('',(26.779769484645,-24.7173472706,
    148.07526225631));
#403 = CARTESIAN_POINT('',(26.761451764465,-24.72933261922,
    148.11043600343));
#404 = CARTESIAN_POINT('',(26.742411191845,-24.74216434005,
    148.14522817994));
#405 = CARTESIAN_POINT('',(26.722642537489,-24.75585134052,
    148.17960624851));
#406 = CARTESIAN_POINT('',(26.702140792819,-24.77040248049,
    148.21353525787));
#407 = CARTESIAN_POINT('',(26.680901169975,-24.78582657223,
    148.24697784284));
#408 = CARTESIAN_POINT('',(26.630580488586,-24.82315333206,
    148.32232902139));
#409 = CARTESIAN_POINT('',(26.601009744656,-24.8456382723,
    148.36388674064));
#410 = CARTESIAN_POINT('',(26.570196711288,-24.86960603857,
    148.40448382137));
#411 = CARTESIAN_POINT('',(26.538134790618,-24.89507304299,
    148.44402532505));
#412 = CARTESIAN_POINT('',(26.504822127215,-24.92205194168,
    148.48240579884));
#413 = CARTESIAN_POINT('',(26.470262789654,-24.95055030413,
    148.51951013909));
#414 = CARTESIAN_POINT('',(26.434467952085,-24.98056928251,
    148.55521445493));
#415 = CARTESIAN_POINT('',(26.368257724386,-25.03697991684,
    148.61634695707));
#416 = CARTESIAN_POINT('',(26.338302988611,-25.06279864221,
    148.6423520823));
#417 = CARTESIAN_POINT('',(26.307603784629,-25.08955400869,
    148.66733696372));
#418 = CARTESIAN_POINT('',(26.276176055516,-25.11723699071,
    148.69123159577));
#419 = CARTESIAN_POINT('',(26.244041575977,-25.14583304827,
    148.71396264477));
#420 = CARTESIAN_POINT('',(26.211228757045,-25.17532118952,
    148.73545478263));
#421 = CARTESIAN_POINT('',(26.177773450781,-25.20567303344,
    148.75563202053));
#422 = CARTESIAN_POINT('',(26.089639312249,-25.28636677462,
    148.80425458467));
#423 = CARTESIAN_POINT('',(26.03402068926,-25.33799391056,148.8306002753
    ));
#424 = CARTESIAN_POINT('',(25.977075886497,-25.39155529114,
    148.85312742517));
#425 = CARTESIAN_POINT('',(25.919056087009,-25.44682876359,
    148.87153961251));
#426 = CARTESIAN_POINT('',(25.860254023436,-25.50354619494,
    148.88558275753));
#427 = CARTESIAN_POINT('',(25.801005487457,-25.56139101359,
    148.89506212717));
#428 = CARTESIAN_POINT('',(25.741689981667,-25.61999510875,
    148.89986627005));
#429 = CARTESIAN_POINT('',(25.623296774472,-25.73834918173,
    148.90013055179));
#430 = CARTESIAN_POINT('',(25.564184854539,-25.7981445428,
    148.89551530175));
#431 = CARTESIAN_POINT('',(25.50582959456,-25.85788717561,
    148.88614496156));
#432 = CARTESIAN_POINT('',(25.448609203813,-25.91718747024,
    148.87213084521));
#433 = CARTESIAN_POINT('',(25.392849045272,-25.97570053929,
    148.85367072693));
#434 = CARTESIAN_POINT('',(25.338824759487,-26.03312563781,
    148.8310240508));
#435 = CARTESIAN_POINT('',(25.286764727451,-26.08920466603,
    148.80449437386));
#436 = CARTESIAN_POINT('',(25.205673033441,-26.17777345078,
    148.75563202053));
#437 = CARTESIAN_POINT('',(25.175321189527,-26.21122875704,
    148.73545478263));
#438 = CARTESIAN_POINT('',(25.145833048274,-26.24404157597,
    148.71396264477));
#439 = CARTESIAN_POINT('',(25.117236990713,-26.27617605551,
    148.69123159577));
#440 = CARTESIAN_POINT('',(25.08955400869,-26.30760378463,
    148.66733696372));
#441 = CARTESIAN_POINT('',(25.062798642219,-26.33830298861,
    148.6423520823));
#442 = CARTESIAN_POINT('',(25.03697991684,-26.36825772438,
    148.61634695707));
#443 = CARTESIAN_POINT('',(24.98056928251,-26.43446795208,
    148.55521445493));
#444 = CARTESIAN_POINT('',(24.950550304136,-26.47026278965,
    148.51951013909));
#445 = CARTESIAN_POINT('',(24.922051941683,-26.50482212721,
    148.48240579884));
#446 = CARTESIAN_POINT('',(24.89507304299,-26.53813479061,
    148.44402532505));
#447 = CARTESIAN_POINT('',(24.869606038575,-26.57019671128,
    148.40448382137));
#448 = CARTESIAN_POINT('',(24.845638272306,-26.60100974465,
    148.36388674064));
#449 = CARTESIAN_POINT('',(24.823153332066,-26.63058048858,
    148.32232902139));
#450 = CARTESIAN_POINT('',(24.742329287033,-26.73954041537,
    148.15917028284));
#451 = CARTESIAN_POINT('',(24.694461918625,-26.81007215963,
    148.03152485696));
#452 = CARTESIAN_POINT('',(24.657941368057,-26.87092967609,
    147.89871737914));
#453 = CARTESIAN_POINT('',(24.632358651088,-26.9223615391,
    147.76218093074));
#454 = CARTESIAN_POINT('',(24.617344351432,-26.96457338347,
    147.62312873919));
#455 = CARTESIAN_POINT('',(24.612562180418,-26.997738103,147.48257410359
    ));
#456 = CARTESIAN_POINT('',(24.617776502741,-27.02193955877,
    147.34132317284));
#457 = CARTESIAN_POINT('',(24.632933879764,-27.03709693579,147.2));
#458 = FACE_BOUND('',#459,.T.);
#459 = EDGE_LOOP('',(#460));
#460 = ORIENTED_EDGE('',*,*,#461,.F.);
#461 = EDGE_CURVE('',#462,#462,#464,.T.);
#462 = VERTEX_POINT('',#463);
#463 = CARTESIAN_POINT('',(-24.63293387976,-27.03709693579,147.2));
#464 = B_SPLINE_CURVE_WITH_KNOTS('',7,(#465,#466,#467,#468,#469,#470,
    #471,#472,#473,#474,#475,#476,#477,#478,#479,#480,#481,#482,#483,
    #484,#485,#486,#487,#488,#489,#490,#491,#492,#493,#494,#495,#496,
    #497,#498,#499,#500,#501,#502,#503,#504,#505,#506,#507,#508,#509,
    #510,#511,#512,#513,#514,#515,#516,#517,#518,#519,#520,#521,#522,
    #523,#524,#525,#526,#527,#528,#529,#530,#531,#532,#533,#534,#535,
    #536,#537,#538,#539,#540,#541,#542,#543,#544,#545,#546,#547,#548,
    #549,#550,#551,#552,#553,#554,#555,#556,#557,#558,#559,#560,#561,
    #562,#563,#564,#565,#566,#567,#568,#569,#570,#571,#572,#573,#574,
    #575,#576,#577,#578,#579,#580,#581,#582,#583,#584,#585,#586),
  .UNSPECIFIED.,.T.,.F.,(8,6,6,6,6,6,6,6,6,6,6,6,6,6,6,6,6,6,6,6,8),(0.,
    0.120539173734,0.162909331913,0.196336833837,0.249422822329,
    0.302935836004,0.336363569945,0.37873402221,0.411600491804,
    0.501516580524,0.56670409343,0.591420580787,0.623742106151,
    0.665580052363,0.698048530309,0.749382062457,0.801142633774,
    0.833611333063,0.875449564492,0.982838500769,1.),.UNSPECIFIED.);
#465 = CARTESIAN_POINT('',(-24.63293387976,-27.03709693579,147.2));
#466 = CARTESIAN_POINT('',(-24.61561090055,-27.01977395659,
    147.36151464602));
#467 = CARTESIAN_POINT('',(-24.61154611151,-26.99039219068,
    147.5229295552));
#468 = CARTESIAN_POINT('',(-24.62082357815,-26.94908167011,
    147.68324909872));
#469 = CARTESIAN_POINT('',(-24.64389389691,-26.89564134271,
    147.84111227802));
#470 = CARTESIAN_POINT('',(-24.68135351443,-26.82974404079,
    147.9947249049));
#471 = CARTESIAN_POINT('',(-24.73378648388,-26.75105707733,
    148.14192500658));
#472 = CARTESIAN_POINT('',(-24.82615632515,-26.62653211526,
    148.32839113526));
#473 = CARTESIAN_POINT('',(-24.85213225468,-26.59250228778,
    148.3757186091));
#474 = CARTESIAN_POINT('',(-24.8800903089,-26.55681336539,
    148.42174294873));
#475 = CARTESIAN_POINT('',(-24.91005577707,-26.51945621584,
    148.46630770138));
#476 = CARTESIAN_POINT('',(-24.94204554936,-26.48043197949,
    148.50923596128));
#477 = CARTESIAN_POINT('',(-24.97606456844,-26.43975522012,
    148.55033267252));
#478 = CARTESIAN_POINT('',(-25.04053386482,-26.36408638846,
    148.62019838925));
#479 = CARTESIAN_POINT('',(-25.07022023468,-26.32970852199,
    148.64973664665));
#480 = CARTESIAN_POINT('',(-25.10115427309,-26.29434094221,
    148.67789715397));
#481 = CARTESIAN_POINT('',(-25.13331970833,-26.25801116882,
    148.70456603758));
#482 = CARTESIAN_POINT('',(-25.16668861484,-26.22075892123,
    148.72962365676));
#483 = CARTESIAN_POINT('',(-25.20121891358,-26.18263826446,
    148.75294816023));
#484 = CARTESIAN_POINT('',(-25.29344033208,-26.08191353471,
    148.80851680497));
#485 = CARTESIAN_POINT('',(-25.35284510338,-26.01805640744,
    148.83796143208));
#486 = CARTESIAN_POINT('',(-25.4147814038,-25.95248757393,
    148.86222702103));
#487 = CARTESIAN_POINT('',(-25.47887612338,-25.88562460008,
    148.88085220398));
#488 = CARTESIAN_POINT('',(-25.54466298087,-25.81796972901,
    148.89346701343));
#489 = CARTESIAN_POINT('',(-25.61157511174,-25.75011276278,
    148.8998474684));
#490 = CARTESIAN_POINT('',(-25.74683690943,-25.61480624027,
    148.90014950467));
#491 = CARTESIAN_POINT('',(-25.81524708725,-25.54731105929,
    148.89397056744));
#492 = CARTESIAN_POINT('',(-25.88347122863,-25.48094071572,
    148.88144959803));
#493 = CARTESIAN_POINT('',(-25.95090371186,-25.4162776919,148.8628120924
    ));
#494 = CARTESIAN_POINT('',(-26.01702858501,-25.35380130088,
    148.83843511781));
#495 = CARTESIAN_POINT('',(-26.08141679618,-25.29389513531,
    148.80879084975));
#496 = CARTESIAN_POINT('',(-26.18263826446,-25.20121891358,
    148.75294816023));
#497 = CARTESIAN_POINT('',(-26.22075892123,-25.16668861484,
    148.72962365676));
#498 = CARTESIAN_POINT('',(-26.25801116882,-25.13331970833,
    148.70456603758));
#499 = CARTESIAN_POINT('',(-26.29434094221,-25.10115427309,
    148.67789715397));
#500 = CARTESIAN_POINT('',(-26.32970852199,-25.07022023468,
    148.64973664665));
#501 = CARTESIAN_POINT('',(-26.36408638846,-25.04053386482,
    148.62019838925));
#502 = CARTESIAN_POINT('',(-26.43975522012,-24.97606456844,
    148.55033267252));
#503 = CARTESIAN_POINT('',(-26.48043197949,-24.94204554936,
    148.50923596128));
#504 = CARTESIAN_POINT('',(-26.51945621584,-24.91005577707,
    148.46630770138));
#505 = CARTESIAN_POINT('',(-26.55681336539,-24.8800903089,
    148.42174294873));
#506 = CARTESIAN_POINT('',(-26.59250228778,-24.85213225468,
    148.3757186091));
#507 = CARTESIAN_POINT('',(-26.62653211526,-24.82615632515,
    148.32839113526));
#508 = CARTESIAN_POINT('',(-26.68404146542,-24.78349717106,
    148.24227550263));
#509 = CARTESIAN_POINT('',(-26.70817390195,-24.76603758364,
    148.20395517629));
#510 = CARTESIAN_POINT('',(-26.73132371881,-24.74973959466,
    148.16499689185));
#511 = CARTESIAN_POINT('',(-26.75349866487,-24.73458908544,
    148.12545946804));
#512 = CARTESIAN_POINT('',(-26.77470693044,-24.72057184218,
    148.08539689574));
#513 = CARTESIAN_POINT('',(-26.79495714724,-24.70767355588,148.044858338
    ));
#514 = CARTESIAN_POINT('',(-26.86706272482,-24.663614526,147.89180183337
    ));
#515 = CARTESIAN_POINT('',(-26.91274245823,-24.63963013043,
    147.77653020548));
#516 = CARTESIAN_POINT('',(-26.95151411969,-24.62361157377,
    147.65892550932));
#517 = CARTESIAN_POINT('',(-26.9835041392,-24.61533168179,
    147.53972123549));
#518 = CARTESIAN_POINT('',(-27.00879268586,-24.6146051846,
    147.41955861947));
#519 = CARTESIAN_POINT('',(-27.02741328535,-24.6212901586,
    147.29900019586));
#520 = CARTESIAN_POINT('',(-27.04793181995,-24.64552051878,
    147.09119199299));
#521 = CARTESIAN_POINT('',(-27.0530176584,-24.65957009799,147.0039286908
    ));
#522 = CARTESIAN_POINT('',(-27.05454684266,-24.67746035558,
    146.91693818378));
#523 = CARTESIAN_POINT('',(-27.05247505238,-24.69918370371,
    146.83043236062));
#524 = CARTESIAN_POINT('',(-27.04673826744,-24.72474380959,146.744638252
    ));
#525 = CARTESIAN_POINT('',(-27.03725174483,-24.75415564131,
    146.65980045185));
#526 = CARTESIAN_POINT('',(-27.01884064269,-24.80007663175,
    146.54448138634));
#527 = CARTESIAN_POINT('',(-27.01322388178,-24.81325924375,
    146.51295468326));
#528 = CARTESIAN_POINT('',(-27.0070459341,-24.82700134064,
    146.48161994128));
#529 = CARTESIAN_POINT('',(-27.00030034383,-24.84130449724,
    146.4504932004));
#530 = CARTESIAN_POINT('',(-26.99298022169,-24.85617035101,
    146.41959149603));
#531 = CARTESIAN_POINT('',(-26.98507824497,-24.871600602,146.38893285899
    ));
#532 = CARTESIAN_POINT('',(-26.96548228589,-24.90851537362,
    146.31878703249));
#533 = CARTESIAN_POINT('',(-26.95336993474,-24.9304014106,
    146.27948664531));
#534 = CARTESIAN_POINT('',(-26.94023191168,-24.95325955439,
    146.24067723372));
#535 = CARTESIAN_POINT('',(-26.926049931,-24.97709321751,146.20240552464
    ));
#536 = CARTESIAN_POINT('',(-26.91080511359,-25.00190479431,
    146.16472289222));
#537 = CARTESIAN_POINT('',(-26.894477987,-25.02769566106,146.1276853578)
  );
#538 = CARTESIAN_POINT('',(-26.85448721872,-25.08911872856,
    146.04432466617));
#539 = CARTESIAN_POINT('',(-26.83008060098,-25.12541006153,
    145.9984817271));
#540 = CARTESIAN_POINT('',(-26.80378491245,-25.16334183634,
    145.95395357201));
#541 = CARTESIAN_POINT('',(-26.77555876546,-25.20290614184,
    145.91089156106));
#542 = CARTESIAN_POINT('',(-26.74536669018,-25.24408251418,
    145.86946730012));
#543 = CARTESIAN_POINT('',(-26.71318272036,-25.28683495679,
    145.82987032578));
#544 = CARTESIAN_POINT('',(-26.65246169229,-25.36546794893,
    145.76315370691));
#545 = CARTESIAN_POINT('',(-26.624723656,-25.40074116833,145.73522755657
    ));
#546 = CARTESIAN_POINT('',(-26.59577580281,-25.4369010067,
    145.70862417178));
#547 = CARTESIAN_POINT('',(-26.56562173446,-25.47390939012,
    145.68344904383));
#548 = CARTESIAN_POINT('',(-26.53427542115,-25.51171616227,
    145.65981299084));
#549 = CARTESIAN_POINT('',(-26.50176390086,-25.55025746394,
    145.63782882594));
#550 = CARTESIAN_POINT('',(-26.41495384763,-25.65142506246,
    145.58563839885));
#551 = CARTESIAN_POINT('',(-26.35894055046,-25.71507104462,
    145.55805715485));
#552 = CARTESIAN_POINT('',(-26.30030361028,-25.78002450167,
    145.53534347273));
#553 = CARTESIAN_POINT('',(-26.23934106717,-25.84584959645,
    145.51791816996));
#554 = CARTESIAN_POINT('',(-26.17644662605,-25.91204259516,
    145.50611831991));
#555 = CARTESIAN_POINT('',(-26.11212296315,-25.9780353333,
    145.50014756402));
#556 = CARTESIAN_POINT('',(-25.9813296425,-26.10891030969,
    145.49985546287));
#557 = CARTESIAN_POINT('',(-25.91479712018,-26.17382823717,
    145.50563133515));
#558 = CARTESIAN_POINT('',(-25.84804176956,-26.23731017317,
    145.51734025085));
#559 = CARTESIAN_POINT('',(-25.7816470024,-26.29883860622,
    145.53477716126));
#560 = CARTESIAN_POINT('',(-25.71613044883,-26.35800812737,
    145.55759830562));
#561 = CARTESIAN_POINT('',(-25.6519401674,-26.41451184557,
    145.58537266608));
#562 = CARTESIAN_POINT('',(-25.55025746394,-26.50176390086,
    145.63782882594));
#563 = CARTESIAN_POINT('',(-25.51171616227,-26.53427542115,
    145.65981299084));
#564 = CARTESIAN_POINT('',(-25.47390939012,-26.56562173446,
    145.68344904383));
#565 = CARTESIAN_POINT('',(-25.4369010067,-26.59577580281,
    145.70862417178));
#566 = CARTESIAN_POINT('',(-25.40074116833,-26.624723656,145.73522755657
    ));
#567 = CARTESIAN_POINT('',(-25.36546794893,-26.65246169229,
    145.76315370691));
#568 = CARTESIAN_POINT('',(-25.28683495679,-26.71318272036,
    145.82987032578));
#569 = CARTESIAN_POINT('',(-25.24408251418,-26.74536669018,
    145.86946730012));
#570 = CARTESIAN_POINT('',(-25.20290614184,-26.77555876546,
    145.91089156106));
#571 = CARTESIAN_POINT('',(-25.16334183634,-26.80378491245,
    145.95395357201));
#572 = CARTESIAN_POINT('',(-25.12541006153,-26.83008060098,
    145.9984817271));
#573 = CARTESIAN_POINT('',(-25.08911872856,-26.85448721872,
    146.04432466617));
#574 = CARTESIAN_POINT('',(-24.96552119322,-26.93495797013,
    146.21206581699));
#575 = CARTESIAN_POINT('',(-24.88748336956,-26.98063827843,
    146.34044081568));
#576 = CARTESIAN_POINT('',(-24.82014359366,-27.01496977123,
    146.47445001613));
#577 = CARTESIAN_POINT('',(-24.76341721999,-27.0385456028,
    146.61250255014));
#578 = CARTESIAN_POINT('',(-24.71716731207,-27.05189306026,
    146.75327912029));
#579 = CARTESIAN_POINT('',(-24.68128575059,-27.05539772973,
    146.89576291383));
#580 = CARTESIAN_POINT('',(-24.6517472066,-27.04821318133,
    147.06213886066));
#581 = CARTESIAN_POINT('',(-24.6479436924,-27.04697567191,
    147.08508478643));
#582 = CARTESIAN_POINT('',(-24.64440691341,-27.04549133397,
    147.10804822513));
#583 = CARTESIAN_POINT('',(-24.64113715015,-27.04376080557,
    147.13102531127));
#584 = CARTESIAN_POINT('',(-24.63813475779,-27.0417846233,
    147.15401219271));
#585 = CARTESIAN_POINT('',(-24.63540016616,-27.03956322219,
    147.17700503074));
#586 = CARTESIAN_POINT('',(-24.63293387976,-27.03709693579,147.2));
#587 = CONICAL_SURFACE('',#588,37.,0.150371428007);
#588 = AXIS2_PLACEMENT_3D('',#589,#590,#591);
#589 = CARTESIAN_POINT('',(0.,0.,144.4));
#590 = DIRECTION('',(-0.,-0.,-1.));
#591 = DIRECTION('',(1.,0.,0.));
#592 = ADVANCED_FACE('',(#593,#604),#607,.F.);
#593 = FACE_BOUND('',#594,.T.);
#594 = EDGE_LOOP('',(#595));
#595 = ORIENTED_EDGE('',*,*,#596,.T.);
#596 = EDGE_CURVE('',#597,#597,#599,.T.);
#597 = VERTEX_POINT('',#598);
#598 = CARTESIAN_POINT('',(33.8,0.,144.4));
#599 = CIRCLE('',#600,33.8);
#600 = AXIS2_PLACEMENT_3D('',#601,#602,#603);
#601 = CARTESIAN_POINT('',(0.,0.,144.4));
#602 = DIRECTION('',(0.,0.,1.));
#603 = DIRECTION('',(1.,0.,0.));
#604 = FACE_BOUND('',#605,.T.);
#605 = EDGE_LOOP('',(#606));
#606 = ORIENTED_EDGE('',*,*,#21,.F.);
#607 = PLANE('',#608);
#608 = AXIS2_PLACEMENT_3D('',#609,#610,#611);
#609 = CARTESIAN_POINT('',(0.,0.,144.4));
#610 = DIRECTION('',(0.,0.,1.));
#611 = DIRECTION('',(1.,0.,0.));
#612 = ADVANCED_FACE('',(#613),#632,.T.);
#613 = FACE_BOUND('',#614,.T.);
#614 = EDGE_LOOP('',(#615,#616,#624,#631));
#615 = ORIENTED_EDGE('',*,*,#38,.T.);
#616 = ORIENTED_EDGE('',*,*,#617,.T.);
#617 = EDGE_CURVE('',#31,#618,#620,.T.);
#618 = VERTEX_POINT('',#619);
#619 = CARTESIAN_POINT('',(30.,0.,158.));
#620 = LINE('',#621,#622);
#621 = CARTESIAN_POINT('',(36.,0.,151.));
#622 = VECTOR('',#623,1.);
#623 = DIRECTION('',(-0.650791373456,0.,0.759256602365));
#624 = ORIENTED_EDGE('',*,*,#625,.F.);
#625 = EDGE_CURVE('',#618,#618,#626,.T.);
#626 = CIRCLE('',#627,30.);
#627 = AXIS2_PLACEMENT_3D('',#628,#629,#630);
#628 = CARTESIAN_POINT('',(0.,0.,158.));
#629 = DIRECTION('',(0.,0.,1.));
#630 = DIRECTION('',(1.,0.,0.));
#631 = ORIENTED_EDGE('',*,*,#617,.F.);
#632 = CONICAL_SURFACE('',#633,36.,0.708626272128);
#633 = AXIS2_PLACEMENT_3D('',#634,#635,#636);
#634 = CARTESIAN_POINT('',(0.,0.,151.));
#635 = DIRECTION('',(-0.,-0.,-1.));
#636 = DIRECTION('',(1.,0.,0.));
#637 = ADVANCED_FACE('',(#638),#697,.F.);
#638 = FACE_BOUND('',#639,.F.);
#639 = EDGE_LOOP('',(#640,#641,#649,#696));
#640 = ORIENTED_EDGE('',*,*,#48,.F.);
#641 = ORIENTED_EDGE('',*,*,#642,.F.);
#642 = EDGE_CURVE('',#643,#49,#645,.T.);
#643 = VERTEX_POINT('',#644);
#644 = CARTESIAN_POINT('',(22.667878673039,25.072041729073,147.2));
#645 = LINE('',#646,#647);
#646 = CARTESIAN_POINT('',(17.88980156402,20.293964620054,147.2));
#647 = VECTOR('',#648,1.);
#648 = DIRECTION('',(0.707106781187,0.707106781187,0.));
#649 = ORIENTED_EDGE('',*,*,#650,.T.);
#650 = EDGE_CURVE('',#643,#643,#651,.T.);
#651 = B_SPLINE_CURVE_WITH_KNOTS('',7,(#652,#653,#654,#655,#656,#657,
    #658,#659,#660,#661,#662,#663,#664,#665,#666,#667,#668,#669,#670,
    #671,#672,#673,#674,#675,#676,#677,#678,#679,#680,#681,#682,#683,
    #684,#685,#686,#687,#688,#689,#690,#691,#692,#693,#694,#695),
  .UNSPECIFIED.,.T.,.F.,(8,6,6,6,6,6,6,8),(0.,0.152733158853,
    0.285717609031,0.421916082011,0.588703408333,0.714478916925,
    0.837885550984,1.),.UNSPECIFIED.);
#652 = CARTESIAN_POINT('',(22.667878673039,25.072041729073,147.2));
#653 = CARTESIAN_POINT('',(22.667878673039,25.072041729073,
    147.40316079738));
#654 = CARTESIAN_POINT('',(22.688915521282,25.053022009625,
    147.60622623324));
#655 = CARTESIAN_POINT('',(22.730960574675,25.015009177131,
    147.80673546061));
#656 = CARTESIAN_POINT('',(22.794527712544,24.957334079019,
    148.00188743832));
#657 = CARTESIAN_POINT('',(22.880417739507,24.878875614743,
    148.1880005072));
#658 = CARTESIAN_POINT('',(22.989411861748,24.77821277882,
    148.35992742411));
#659 = CARTESIAN_POINT('',(23.236860129741,24.546145580867,
    148.6404293958));
#660 = CARTESIAN_POINT('',(23.373720525841,24.416611732512,
    148.75889884192));
#661 = CARTESIAN_POINT('',(23.529096742351,24.267716134196,
    148.85174761462));
#662 = CARTESIAN_POINT('',(23.696846992307,24.104310920054,
    148.90964681199));
#663 = CARTESIAN_POINT('',(23.869142832195,23.933281956465,
    148.92757746909));
#664 = CARTESIAN_POINT('',(24.038188863147,23.76252087109,148.9050923097
    ));
#665 = CARTESIAN_POINT('',(24.360226307678,23.432324602549,
    148.78667656349));
#666 = CARTESIAN_POINT('',(24.50705467365,23.279083852408,
    148.69107309674));
#667 = CARTESIAN_POINT('',(24.635592851516,23.142783222754,
    148.56788052549));
#668 = CARTESIAN_POINT('',(24.745180620736,23.025115019482,
    148.42389543366));
#669 = CARTESIAN_POINT('',(24.835856618738,22.926845828906,
    148.26511001458));
#670 = CARTESIAN_POINT('',(24.908172362238,22.847966926419,
    148.09685270733));
#671 = CARTESIAN_POINT('',(25.030414377088,22.71405552169,
    147.71193649665));
#672 = CARTESIAN_POINT('',(25.072580483677,22.667354174276,
    147.4900092917));
#673 = CARTESIAN_POINT('',(25.091214392353,22.646599872636,
    147.26302716642));
#674 = CARTESIAN_POINT('',(25.086822441338,22.651484095653,
    147.03447777324));
#675 = CARTESIAN_POINT('',(25.059150720653,22.682265685466,
    146.80809754874));
#676 = CARTESIAN_POINT('',(25.007381672986,22.73947815695,
    146.58825410662));
#677 = CARTESIAN_POINT('',(24.872305609997,22.8870227266,146.22474110124
    ));
#678 = CARTESIAN_POINT('',(24.799115446072,22.966590794967,146.073565396
    ));
#679 = CARTESIAN_POINT('',(24.710073049983,23.062746661431,
    145.93162233742));
#680 = CARTESIAN_POINT('',(24.604872423834,23.175316717484,
    145.80343642737));
#681 = CARTESIAN_POINT('',(24.483665277397,23.303479411815,
    145.69393504803));
#682 = CARTESIAN_POINT('',(24.347191273549,23.445689879484,
    145.60853035011));
#683 = CARTESIAN_POINT('',(24.050202151948,23.750203225417,
    145.49932507275));
#684 = CARTESIAN_POINT('',(23.894027380647,23.908140248244,
    145.47580716054));
#685 = CARTESIAN_POINT('',(23.734285201892,24.06711596,145.48690595463)
  );
#686 = CARTESIAN_POINT('',(23.577432165907,24.220541147413,
    145.53274226492));
#687 = CARTESIAN_POINT('',(23.430041005485,24.362494959235,
    145.60969310706));
#688 = CARTESIAN_POINT('',(23.297533821053,24.488560690368,
    145.71056633188));
#689 = CARTESIAN_POINT('',(23.032997131372,24.737898967341,
    145.97456607512));
#690 = CARTESIAN_POINT('',(22.909024381301,24.852728086121,
    146.15241508939));
#691 = CARTESIAN_POINT('',(22.811440322696,24.941985043015,
    146.34793953355));
#692 = CARTESIAN_POINT('',(22.739323160572,25.007449007032,
    146.55460303527));
#693 = CARTESIAN_POINT('',(22.69170482173,25.050500042282,
    146.76767182238));
#694 = CARTESIAN_POINT('',(22.667878673039,25.072041729073,
    146.98379574619));
#695 = CARTESIAN_POINT('',(22.667878673039,25.072041729073,147.2));
#696 = ORIENTED_EDGE('',*,*,#642,.T.);
#697 = CYLINDRICAL_SURFACE('',#698,1.7);
#698 = AXIS2_PLACEMENT_3D('',#699,#700,#701);
#699 = CARTESIAN_POINT('',(19.091883092037,19.091883092037,147.2));
#700 = DIRECTION('',(0.707106781187,0.707106781187,0.));
#701 = DIRECTION('',(-0.707106781187,0.707106781187,0.));
#702 = ADVANCED_FACE('',(#703),#762,.F.);
#703 = FACE_BOUND('',#704,.F.);
#704 = EDGE_LOOP('',(#705,#706,#714,#761));
#705 = ORIENTED_EDGE('',*,*,#177,.F.);
#706 = ORIENTED_EDGE('',*,*,#707,.F.);
#707 = EDGE_CURVE('',#708,#178,#710,.T.);
#708 = VERTEX_POINT('',#709);
#709 = CARTESIAN_POINT('',(-22.66787867303,25.072041729073,147.2));
#710 = LINE('',#711,#712);
#711 = CARTESIAN_POINT('',(-17.88980156402,20.293964620054,147.2));
#712 = VECTOR('',#713,1.);
#713 = DIRECTION('',(-0.707106781187,0.707106781187,0.));
#714 = ORIENTED_EDGE('',*,*,#715,.T.);
#715 = EDGE_CURVE('',#708,#708,#716,.T.);
#716 = B_SPLINE_CURVE_WITH_KNOTS('',7,(#717,#718,#719,#720,#721,#722,
    #723,#724,#725,#726,#727,#728,#729,#730,#731,#732,#733,#734,#735,
    #736,#737,#738,#739,#740,#741,#742,#743,#744,#745,#746,#747,#748,
    #749,#750,#751,#752,#753,#754,#755,#756,#757,#758,#759,#760),
  .UNSPECIFIED.,.T.,.F.,(8,6,6,6,6,6,6,8),(0.,0.152733158996,
    0.285717609299,0.421916082407,0.588703408887,0.714478917597,
    0.837885550736,1.),.UNSPECIFIED.);
#717 = CARTESIAN_POINT('',(-22.66787867303,25.072041729073,147.2));
#718 = CARTESIAN_POINT('',(-22.66787867303,25.072041729073,
    146.99683920261));
#719 = CARTESIAN_POINT('',(-22.68891552128,25.053022009625,
    146.79377376675));
#720 = CARTESIAN_POINT('',(-22.73096057467,25.015009177131,
    146.59326453938));
#721 = CARTESIAN_POINT('',(-22.79452771254,24.957334079019,
    146.39811256167));
#722 = CARTESIAN_POINT('',(-22.8804177395,24.878875614743,
    146.21199949279));
#723 = CARTESIAN_POINT('',(-22.98941186174,24.77821277882,
    146.04007257588));
#724 = CARTESIAN_POINT('',(-23.23686012974,24.546145580867,
    145.75957060419));
#725 = CARTESIAN_POINT('',(-23.37372052584,24.416611732512,
    145.64110115807));
#726 = CARTESIAN_POINT('',(-23.52909674235,24.267716134196,
    145.54825238537));
#727 = CARTESIAN_POINT('',(-23.6968469923,24.104310920054,145.490353188)
  );
#728 = CARTESIAN_POINT('',(-23.86914283219,23.933281956465,
    145.4724225309));
#729 = CARTESIAN_POINT('',(-24.03818886314,23.76252087109,145.4949076903
    ));
#730 = CARTESIAN_POINT('',(-24.36022630767,23.432324602549,
    145.6133234365));
#731 = CARTESIAN_POINT('',(-24.50705467365,23.279083852408,
    145.70892690325));
#732 = CARTESIAN_POINT('',(-24.63559285151,23.142783222754,
    145.8321194745));
#733 = CARTESIAN_POINT('',(-24.74518062073,23.025115019483,
    145.97610456633));
#734 = CARTESIAN_POINT('',(-24.83585661873,22.926845828906,
    146.13488998541));
#735 = CARTESIAN_POINT('',(-24.90817236223,22.847966926419,
    146.30314729266));
#736 = CARTESIAN_POINT('',(-25.03041437708,22.71405552169,
    146.68806350335));
#737 = CARTESIAN_POINT('',(-25.07258048367,22.667354174276,
    146.90999070829));
#738 = CARTESIAN_POINT('',(-25.09121439235,22.646599872636,
    147.13697283357));
#739 = CARTESIAN_POINT('',(-25.08682244133,22.651484095653,
    147.36552222675));
#740 = CARTESIAN_POINT('',(-25.05915072065,22.682265685466,
    147.59190245125));
#741 = CARTESIAN_POINT('',(-25.00738167298,22.739478156949,
    147.81174589337));
#742 = CARTESIAN_POINT('',(-24.87230560999,22.8870227266,148.17525889875
    ));
#743 = CARTESIAN_POINT('',(-24.79911544607,22.966590794967,
    148.32643460399));
#744 = CARTESIAN_POINT('',(-24.71007304998,23.062746661431,
    148.46837766257));
#745 = CARTESIAN_POINT('',(-24.60487242383,23.175316717484,
    148.59656357262));
#746 = CARTESIAN_POINT('',(-24.48366527739,23.303479411815,
    148.70606495196));
#747 = CARTESIAN_POINT('',(-24.34719127354,23.445689879484,
    148.79146964989));
#748 = CARTESIAN_POINT('',(-24.05020215318,23.750203224154,
    148.90067492679));
#749 = CARTESIAN_POINT('',(-23.89402737614,23.908140252787,
    148.92419283993));
#750 = CARTESIAN_POINT('',(-23.73428520961,24.067115952323,
    148.91309404637));
#751 = CARTESIAN_POINT('',(-23.57743215842,24.220541154743,
    148.86725773228));
#752 = CARTESIAN_POINT('',(-23.43004100956,24.362494955306,
    148.79030689556));
#753 = CARTESIAN_POINT('',(-23.29753382002,24.488560691334,
    148.68943366708));
#754 = CARTESIAN_POINT('',(-23.03299713137,24.737898967341,
    148.42543392487));
#755 = CARTESIAN_POINT('',(-22.9090243813,24.852728086121,148.2475849106
    ));
#756 = CARTESIAN_POINT('',(-22.81144032269,24.941985043015,
    148.05206046644));
#757 = CARTESIAN_POINT('',(-22.73932316057,25.007449007032,
    147.84539696472));
#758 = CARTESIAN_POINT('',(-22.69170482173,25.050500042282,
    147.63232817761));
#759 = CARTESIAN_POINT('',(-22.66787867303,25.072041729073,
    147.4162042538));
#760 = CARTESIAN_POINT('',(-22.66787867303,25.072041729073,147.2));
#761 = ORIENTED_EDGE('',*,*,#707,.T.);
#762 = CYLINDRICAL_SURFACE('',#763,1.7);
#763 = AXIS2_PLACEMENT_3D('',#764,#765,#766);
#764 = CARTESIAN_POINT('',(-19.09188309203,19.091883092037,147.2));
#765 = DIRECTION('',(-0.707106781187,0.707106781187,0.));
#766 = DIRECTION('',(0.707106781187,0.707106781187,0.));
#767 = ADVANCED_FACE('',(#768),#827,.F.);
#768 = FACE_BOUND('',#769,.F.);
#769 = EDGE_LOOP('',(#770,#771,#779,#826));
#770 = ORIENTED_EDGE('',*,*,#319,.F.);
#771 = ORIENTED_EDGE('',*,*,#772,.F.);
#772 = EDGE_CURVE('',#773,#320,#775,.T.);
#773 = VERTEX_POINT('',#774);
#774 = CARTESIAN_POINT('',(22.667878673039,-25.07204172907,147.2));
#775 = LINE('',#776,#777);
#776 = CARTESIAN_POINT('',(17.88980156402,-20.29396462005,147.2));
#777 = VECTOR('',#778,1.);
#778 = DIRECTION('',(0.707106781187,-0.707106781187,0.));
#779 = ORIENTED_EDGE('',*,*,#780,.T.);
#780 = EDGE_CURVE('',#773,#773,#781,.T.);
#781 = B_SPLINE_CURVE_WITH_KNOTS('',7,(#782,#783,#784,#785,#786,#787,
    #788,#789,#790,#791,#792,#793,#794,#795,#796,#797,#798,#799,#800,
    #801,#802,#803,#804,#805,#806,#807,#808,#809,#810,#811,#812,#813,
    #814,#815,#816,#817,#818,#819,#820,#821,#822,#823,#824,#825),
  .UNSPECIFIED.,.T.,.F.,(8,6,6,6,6,6,6,8),(0.,0.152733159323,
    0.28571760991,0.421916083309,0.588703407239,0.714478916189,
    0.837885550505,1.),.UNSPECIFIED.);
#782 = CARTESIAN_POINT('',(22.667878673039,-25.07204172907,147.2));
#783 = CARTESIAN_POINT('',(22.667878673039,-25.07204172907,
    146.99683920261));
#784 = CARTESIAN_POINT('',(22.688915521282,-25.05302200962,
    146.79377376675));
#785 = CARTESIAN_POINT('',(22.730960574675,-25.01500917713,
    146.59326453938));
#786 = CARTESIAN_POINT('',(22.794527712544,-24.95733407901,
    146.39811256167));
#787 = CARTESIAN_POINT('',(22.880417739507,-24.87887561474,
    146.21199949279));
#788 = CARTESIAN_POINT('',(22.989411861748,-24.77821277882,
    146.04007257588));
#789 = CARTESIAN_POINT('',(23.236860129741,-24.54614558086,
    145.75957060419));
#790 = CARTESIAN_POINT('',(23.373720525841,-24.41661173251,
    145.64110115807));
#791 = CARTESIAN_POINT('',(23.529096742351,-24.26771613419,
    145.54825238537));
#792 = CARTESIAN_POINT('',(23.696846992307,-24.10431092005,145.490353188
    ));
#793 = CARTESIAN_POINT('',(23.869142832195,-23.93328195646,
    145.4724225309));
#794 = CARTESIAN_POINT('',(24.038188863147,-23.76252087109,
    145.4949076903));
#795 = CARTESIAN_POINT('',(24.360226307678,-23.43232460254,
    145.6133234365));
#796 = CARTESIAN_POINT('',(24.50705467365,-23.2790838524,145.70892690325
    ));
#797 = CARTESIAN_POINT('',(24.635592851517,-23.14278322275,
    145.8321194745));
#798 = CARTESIAN_POINT('',(24.745180620736,-23.02511501948,
    145.97610456633));
#799 = CARTESIAN_POINT('',(24.835856618739,-22.9268458289,
    146.13488998541));
#800 = CARTESIAN_POINT('',(24.908172362238,-22.84796692641,
    146.30314729266));
#801 = CARTESIAN_POINT('',(25.030414375915,-22.71405552297,
    146.68806349965));
#802 = CARTESIAN_POINT('',(25.072580486015,-22.66735417171,
    146.90999072276));
#803 = CARTESIAN_POINT('',(25.091214391391,-22.64659987369,
    147.1369728075));
#804 = CARTESIAN_POINT('',(25.086822439256,-22.65148409792,
    147.36552225266));
#805 = CARTESIAN_POINT('',(25.059150723603,-22.68226568224,
    147.59190243705));
#806 = CARTESIAN_POINT('',(25.007381671662,-22.73947815839,
    147.81174589693));
#807 = CARTESIAN_POINT('',(24.872305609997,-22.8870227266,
    148.17525889875));
#808 = CARTESIAN_POINT('',(24.799115446072,-22.96659079496,
    148.32643460399));
#809 = CARTESIAN_POINT('',(24.710073049983,-23.06274666143,
    148.46837766257));
#810 = CARTESIAN_POINT('',(24.604872423834,-23.17531671748,
    148.59656357262));
#811 = CARTESIAN_POINT('',(24.483665277397,-23.30347941181,
    148.70606495196));
#812 = CARTESIAN_POINT('',(24.347191273549,-23.44568987948,
    148.79146964989));
#813 = CARTESIAN_POINT('',(24.05020215206,-23.7502032253,148.9006749272)
  );
#814 = CARTESIAN_POINT('',(23.894027380542,-23.90814024835,
    148.92419283954));
#815 = CARTESIAN_POINT('',(23.734285201784,-24.0671159601,
    148.91309404527));
#816 = CARTESIAN_POINT('',(23.577432166015,-24.2205411473,
    148.86725773504));
#817 = CARTESIAN_POINT('',(23.430041005579,-24.36249495914,
    148.79030689308));
#818 = CARTESIAN_POINT('',(23.297533820955,-24.48856069046,
    148.68943366801));
#819 = CARTESIAN_POINT('',(23.032997131372,-24.73789896734,
    148.42543392487));
#820 = CARTESIAN_POINT('',(22.909024381301,-24.85272808612,
    148.2475849106));
#821 = CARTESIAN_POINT('',(22.811440322695,-24.94198504301,
    148.05206046644));
#822 = CARTESIAN_POINT('',(22.739323160572,-25.00744900703,
    147.84539696472));
#823 = CARTESIAN_POINT('',(22.69170482173,-25.05050004228,
    147.63232817761));
#824 = CARTESIAN_POINT('',(22.667878673039,-25.07204172907,
    147.4162042538));
#825 = CARTESIAN_POINT('',(22.667878673039,-25.07204172907,147.2));
#826 = ORIENTED_EDGE('',*,*,#772,.T.);
#827 = CYLINDRICAL_SURFACE('',#828,1.7);
#828 = AXIS2_PLACEMENT_3D('',#829,#830,#831);
#829 = CARTESIAN_POINT('',(19.091883092037,-19.09188309203,147.2));
#830 = DIRECTION('',(0.707106781187,-0.707106781187,0.));
#831 = DIRECTION('',(-0.707106781187,-0.707106781187,0.));
#832 = ADVANCED_FACE('',(#833),#892,.F.);
#833 = FACE_BOUND('',#834,.F.);
#834 = EDGE_LOOP('',(#835,#836,#844,#891));
#835 = ORIENTED_EDGE('',*,*,#461,.F.);
#836 = ORIENTED_EDGE('',*,*,#837,.F.);
#837 = EDGE_CURVE('',#838,#462,#840,.T.);
#838 = VERTEX_POINT('',#839);
#839 = CARTESIAN_POINT('',(-22.66787867303,-25.07204172907,147.2));
#840 = LINE('',#841,#842);
#841 = CARTESIAN_POINT('',(-17.88980156402,-20.29396462005,147.2));
#842 = VECTOR('',#843,1.);
#843 = DIRECTION('',(-0.707106781187,-0.707106781187,-0.));
#844 = ORIENTED_EDGE('',*,*,#845,.T.);
#845 = EDGE_CURVE('',#838,#838,#846,.T.);
#846 = B_SPLINE_CURVE_WITH_KNOTS('',7,(#847,#848,#849,#850,#851,#852,
    #853,#854,#855,#856,#857,#858,#859,#860,#861,#862,#863,#864,#865,
    #866,#867,#868,#869,#870,#871,#872,#873,#874,#875,#876,#877,#878,
    #879,#880,#881,#882,#883,#884,#885,#886,#887,#888,#889,#890),
  .UNSPECIFIED.,.T.,.F.,(8,6,6,6,6,6,6,8),(0.,0.152733158996,
    0.285717609299,0.421916082407,0.588703408887,0.714478917596,
    0.837885550736,1.),.UNSPECIFIED.);
#847 = CARTESIAN_POINT('',(-22.66787867303,-25.07204172907,147.2));
#848 = CARTESIAN_POINT('',(-22.66787867303,-25.07204172907,
    147.40316079738));
#849 = CARTESIAN_POINT('',(-22.68891552128,-25.05302200962,
    147.60622623324));
#850 = CARTESIAN_POINT('',(-22.73096057467,-25.01500917713,
    147.80673546061));
#851 = CARTESIAN_POINT('',(-22.79452771254,-24.95733407901,
    148.00188743832));
#852 = CARTESIAN_POINT('',(-22.8804177395,-24.87887561474,148.1880005072
    ));
#853 = CARTESIAN_POINT('',(-22.98941186174,-24.77821277882,
    148.35992742411));
#854 = CARTESIAN_POINT('',(-23.23686012974,-24.54614558086,
    148.6404293958));
#855 = CARTESIAN_POINT('',(-23.37372052584,-24.41661173251,
    148.75889884192));
#856 = CARTESIAN_POINT('',(-23.52909674235,-24.26771613419,
    148.85174761462));
#857 = CARTESIAN_POINT('',(-23.6968469923,-24.10431092005,
    148.90964681199));
#858 = CARTESIAN_POINT('',(-23.86914283219,-23.93328195646,
    148.92757746909));
#859 = CARTESIAN_POINT('',(-24.03818886314,-23.76252087109,
    148.9050923097));
#860 = CARTESIAN_POINT('',(-24.36022630767,-23.43232460254,
    148.78667656349));
#861 = CARTESIAN_POINT('',(-24.50705467365,-23.2790838524,
    148.69107309674));
#862 = CARTESIAN_POINT('',(-24.63559285151,-23.14278322275,
    148.56788052549));
#863 = CARTESIAN_POINT('',(-24.74518062073,-23.02511501948,
    148.42389543366));
#864 = CARTESIAN_POINT('',(-24.83585661873,-22.9268458289,
    148.26511001458));
#865 = CARTESIAN_POINT('',(-24.90817236223,-22.84796692641,
    148.09685270733));
#866 = CARTESIAN_POINT('',(-25.03041437708,-22.71405552169,
    147.71193649664));
#867 = CARTESIAN_POINT('',(-25.07258048367,-22.66735417427,
    147.4900092917));
#868 = CARTESIAN_POINT('',(-25.09121439235,-22.64659987263,
    147.26302716642));
#869 = CARTESIAN_POINT('',(-25.08682244133,-22.65148409565,
    147.03447777324));
#870 = CARTESIAN_POINT('',(-25.05915072065,-22.68226568546,
    146.80809754874));
#871 = CARTESIAN_POINT('',(-25.00738167298,-22.73947815694,
    146.58825410663));
#872 = CARTESIAN_POINT('',(-24.87230560999,-22.8870227266,
    146.22474110124));
#873 = CARTESIAN_POINT('',(-24.79911544607,-22.96659079496,146.073565396
    ));
#874 = CARTESIAN_POINT('',(-24.71007304998,-23.06274666143,
    145.93162233742));
#875 = CARTESIAN_POINT('',(-24.60487242383,-23.17531671748,
    145.80343642737));
#876 = CARTESIAN_POINT('',(-24.48366527739,-23.30347941181,
    145.69393504803));
#877 = CARTESIAN_POINT('',(-24.34719127354,-23.44568987948,
    145.60853035011));
#878 = CARTESIAN_POINT('',(-24.05020215318,-23.75020322415,
    145.49932507321));
#879 = CARTESIAN_POINT('',(-23.89402737614,-23.90814025278,
    145.47580716006));
#880 = CARTESIAN_POINT('',(-23.73428520961,-24.06711595232,
    145.48690595362));
#881 = CARTESIAN_POINT('',(-23.57743215842,-24.22054115474,
    145.53274226771));
#882 = CARTESIAN_POINT('',(-23.43004100956,-24.3624949553,
    145.60969310443));
#883 = CARTESIAN_POINT('',(-23.29753382002,-24.48856069133,
    145.71056633291));
#884 = CARTESIAN_POINT('',(-23.03299713137,-24.73789896734,
    145.97456607512));
#885 = CARTESIAN_POINT('',(-22.9090243813,-24.85272808612,
    146.15241508939));
#886 = CARTESIAN_POINT('',(-22.81144032269,-24.94198504301,
    146.34793953355));
#887 = CARTESIAN_POINT('',(-22.73932316057,-25.00744900703,
    146.55460303527));
#888 = CARTESIAN_POINT('',(-22.69170482173,-25.05050004228,
    146.76767182238));
#889 = CARTESIAN_POINT('',(-22.66787867303,-25.07204172907,
    146.98379574619));
#890 = CARTESIAN_POINT('',(-22.66787867303,-25.07204172907,147.2));
#891 = ORIENTED_EDGE('',*,*,#837,.T.);
#892 = CYLINDRICAL_SURFACE('',#893,1.7);
#893 = AXIS2_PLACEMENT_3D('',#894,#895,#896);
#894 = CARTESIAN_POINT('',(-19.09188309203,-19.09188309203,147.2));
#895 = DIRECTION('',(-0.707106781187,-0.707106781187,0.));
#896 = DIRECTION('',(0.707106781187,-0.707106781187,0.));
#897 = ADVANCED_FACE('',(#898,#917,#920,#923,#926),#929,.F.);
#898 = FACE_BOUND('',#899,.T.);
#899 = EDGE_LOOP('',(#900,#909,#915,#916));
#900 = ORIENTED_EDGE('',*,*,#901,.T.);
#901 = EDGE_CURVE('',#902,#902,#904,.T.);
#902 = VERTEX_POINT('',#903);
#903 = CARTESIAN_POINT('',(33.8,0.,150.5));
#904 = CIRCLE('',#905,33.8);
#905 = AXIS2_PLACEMENT_3D('',#906,#907,#908);
#906 = CARTESIAN_POINT('',(0.,0.,150.5));
#907 = DIRECTION('',(0.,0.,1.));
#908 = DIRECTION('',(1.,0.,0.));
#909 = ORIENTED_EDGE('',*,*,#910,.T.);
#910 = EDGE_CURVE('',#902,#597,#911,.T.);
#911 = LINE('',#912,#913);
#912 = CARTESIAN_POINT('',(33.8,0.,150.5));
#913 = VECTOR('',#914,1.);
#914 = DIRECTION('',(0.,0.,-1.));
#915 = ORIENTED_EDGE('',*,*,#596,.F.);
#916 = ORIENTED_EDGE('',*,*,#910,.F.);
#917 = FACE_BOUND('',#918,.T.);
#918 = EDGE_LOOP('',(#919));
#919 = ORIENTED_EDGE('',*,*,#650,.T.);
#920 = FACE_BOUND('',#921,.T.);
#921 = EDGE_LOOP('',(#922));
#922 = ORIENTED_EDGE('',*,*,#845,.T.);
#923 = FACE_BOUND('',#924,.T.);
#924 = EDGE_LOOP('',(#925));
#925 = ORIENTED_EDGE('',*,*,#715,.T.);
#926 = FACE_BOUND('',#927,.T.);
#927 = EDGE_LOOP('',(#928));
#928 = ORIENTED_EDGE('',*,*,#780,.T.);
#929 = CYLINDRICAL_SURFACE('',#930,33.8);
#930 = AXIS2_PLACEMENT_3D('',#931,#932,#933);
#931 = CARTESIAN_POINT('',(0.,0.,150.5));
#932 = DIRECTION('',(-0.,-0.,-1.));
#933 = DIRECTION('',(1.,0.,0.));
#934 = ADVANCED_FACE('',(#935),#954,.T.);
#935 = FACE_BOUND('',#936,.T.);
#936 = EDGE_LOOP('',(#937,#938,#946,#953));
#937 = ORIENTED_EDGE('',*,*,#625,.T.);
#938 = ORIENTED_EDGE('',*,*,#939,.T.);
#939 = EDGE_CURVE('',#618,#940,#942,.T.);
#940 = VERTEX_POINT('',#941);
#941 = CARTESIAN_POINT('',(24.5,0.,164.));
#942 = LINE('',#943,#944);
#943 = CARTESIAN_POINT('',(30.,0.,158.));
#944 = VECTOR('',#945,1.);
#945 = DIRECTION('',(-0.675724628517,0.,0.737154140201));
#946 = ORIENTED_EDGE('',*,*,#947,.F.);
#947 = EDGE_CURVE('',#940,#940,#948,.T.);
#948 = CIRCLE('',#949,24.5);
#949 = AXIS2_PLACEMENT_3D('',#950,#951,#952);
#950 = CARTESIAN_POINT('',(0.,0.,164.));
#951 = DIRECTION('',(0.,0.,1.));
#952 = DIRECTION('',(1.,0.,0.));
#953 = ORIENTED_EDGE('',*,*,#939,.F.);
#954 = CONICAL_SURFACE('',#955,30.,0.741947268006);
#955 = AXIS2_PLACEMENT_3D('',#956,#957,#958);
#956 = CARTESIAN_POINT('',(0.,0.,158.));
#957 = DIRECTION('',(-0.,-0.,-1.));
#958 = DIRECTION('',(1.,0.,0.));
#959 = ADVANCED_FACE('',(#960),#979,.F.);
#960 = FACE_BOUND('',#961,.T.);
#961 = EDGE_LOOP('',(#962,#971,#977,#978));
#962 = ORIENTED_EDGE('',*,*,#963,.T.);
#963 = EDGE_CURVE('',#964,#964,#966,.T.);
#964 = VERTEX_POINT('',#965);
#965 = CARTESIAN_POINT('',(28.,0.,156.));
#966 = CIRCLE('',#967,28.);
#967 = AXIS2_PLACEMENT_3D('',#968,#969,#970);
#968 = CARTESIAN_POINT('',(0.,0.,156.));
#969 = DIRECTION('',(0.,0.,1.));
#970 = DIRECTION('',(1.,0.,0.));
#971 = ORIENTED_EDGE('',*,*,#972,.T.);
#972 = EDGE_CURVE('',#964,#902,#973,.T.);
#973 = LINE('',#974,#975);
#974 = CARTESIAN_POINT('',(28.,0.,156.));
#975 = VECTOR('',#976,1.);
#976 = DIRECTION('',(0.725623851173,0.,-0.688091583009));
#977 = ORIENTED_EDGE('',*,*,#901,.F.);
#978 = ORIENTED_EDGE('',*,*,#972,.F.);
#979 = CONICAL_SURFACE('',#980,28.,0.811940601149);
#980 = AXIS2_PLACEMENT_3D('',#981,#982,#983);
#981 = CARTESIAN_POINT('',(0.,0.,156.));
#982 = DIRECTION('',(-0.,-0.,-1.));
#983 = DIRECTION('',(1.,0.,0.));
#984 = ADVANCED_FACE('',(#985),#1004,.T.);
#985 = FACE_BOUND('',#986,.T.);
#986 = EDGE_LOOP('',(#987,#988,#996,#1003));
#987 = ORIENTED_EDGE('',*,*,#947,.T.);
#988 = ORIENTED_EDGE('',*,*,#989,.T.);
#989 = EDGE_CURVE('',#940,#990,#992,.T.);
#990 = VERTEX_POINT('',#991);
#991 = CARTESIAN_POINT('',(24.5,0.,167.));
#992 = LINE('',#993,#994);
#993 = CARTESIAN_POINT('',(24.5,0.,164.));
#994 = VECTOR('',#995,1.);
#995 = DIRECTION('',(0.,0.,1.));
#996 = ORIENTED_EDGE('',*,*,#997,.F.);
#997 = EDGE_CURVE('',#990,#990,#998,.T.);
#998 = CIRCLE('',#999,24.5);
#999 = AXIS2_PLACEMENT_3D('',#1000,#1001,#1002);
#1000 = CARTESIAN_POINT('',(0.,0.,167.));
#1001 = DIRECTION('',(0.,0.,1.));
#1002 = DIRECTION('',(1.,0.,0.));
#1003 = ORIENTED_EDGE('',*,*,#989,.F.);
#1004 = CYLINDRICAL_SURFACE('',#1005,24.5);
#1005 = AXIS2_PLACEMENT_3D('',#1006,#1007,#1008);
#1006 = CARTESIAN_POINT('',(0.,0.,164.));
#1007 = DIRECTION('',(0.,0.,1.));
#1008 = DIRECTION('',(1.,0.,0.));
#1009 = ADVANCED_FACE('',(#1010),#1029,.F.);
#1010 = FACE_BOUND('',#1011,.T.);
#1011 = EDGE_LOOP('',(#1012,#1021,#1027,#1028));
#1012 = ORIENTED_EDGE('',*,*,#1013,.T.);
#1013 = EDGE_CURVE('',#1014,#1014,#1016,.T.);
#1014 = VERTEX_POINT('',#1015);
#1015 = CARTESIAN_POINT('',(23.3,0.,163.));
#1016 = CIRCLE('',#1017,23.3);
#1017 = AXIS2_PLACEMENT_3D('',#1018,#1019,#1020);
#1018 = CARTESIAN_POINT('',(0.,0.,163.));
#1019 = DIRECTION('',(0.,0.,1.));
#1020 = DIRECTION('',(1.,0.,0.));
#1021 = ORIENTED_EDGE('',*,*,#1022,.T.);
#1022 = EDGE_CURVE('',#1014,#964,#1023,.T.);
#1023 = LINE('',#1024,#1025);
#1024 = CARTESIAN_POINT('',(23.3,0.,163.));
#1025 = VECTOR('',#1026,1.);
#1026 = DIRECTION('',(0.557434187884,0.,-0.830221130891));
#1027 = ORIENTED_EDGE('',*,*,#963,.F.);
#1028 = ORIENTED_EDGE('',*,*,#1022,.F.);
#1029 = CONICAL_SURFACE('',#1030,23.3,0.591292065367);
#1030 = AXIS2_PLACEMENT_3D('',#1031,#1032,#1033);
#1031 = CARTESIAN_POINT('',(0.,0.,163.));
#1032 = DIRECTION('',(-0.,-0.,-1.));
#1033 = DIRECTION('',(1.,0.,0.));
#1034 = ADVANCED_FACE('',(#1035,#1038),#1049,.T.);
#1035 = FACE_BOUND('',#1036,.T.);
#1036 = EDGE_LOOP('',(#1037));
#1037 = ORIENTED_EDGE('',*,*,#997,.T.);
#1038 = FACE_BOUND('',#1039,.T.);
#1039 = EDGE_LOOP('',(#1040));
#1040 = ORIENTED_EDGE('',*,*,#1041,.F.);
#1041 = EDGE_CURVE('',#1042,#1042,#1044,.T.);
#1042 = VERTEX_POINT('',#1043);
#1043 = CARTESIAN_POINT('',(23.3,0.,167.));
#1044 = CIRCLE('',#1045,23.3);
#1045 = AXIS2_PLACEMENT_3D('',#1046,#1047,#1048);
#1046 = CARTESIAN_POINT('',(0.,0.,167.));
#1047 = DIRECTION('',(0.,0.,1.));
#1048 = DIRECTION('',(1.,0.,0.));
#1049 = PLANE('',#1050);
#1050 = AXIS2_PLACEMENT_3D('',#1051,#1052,#1053);
#1051 = CARTESIAN_POINT('',(0.,0.,167.));
#1052 = DIRECTION('',(0.,0.,1.));
#1053 = DIRECTION('',(1.,0.,0.));
#1054 = ADVANCED_FACE('',(#1055),#1066,.F.);
#1055 = FACE_BOUND('',#1056,.T.);
#1056 = EDGE_LOOP('',(#1057,#1058,#1064,#1065));
#1057 = ORIENTED_EDGE('',*,*,#1041,.T.);
#1058 = ORIENTED_EDGE('',*,*,#1059,.T.);
#1059 = EDGE_CURVE('',#1042,#1014,#1060,.T.);
#1060 = LINE('',#1061,#1062);
#1061 = CARTESIAN_POINT('',(23.3,0.,167.));
#1062 = VECTOR('',#1063,1.);
#1063 = DIRECTION('',(0.,0.,-1.));
#1064 = ORIENTED_EDGE('',*,*,#1013,.F.);
#1065 = ORIENTED_EDGE('',*,*,#1059,.F.);
#1066 = CYLINDRICAL_SURFACE('',#1067,23.3);
#1067 = AXIS2_PLACEMENT_3D('',#1068,#1069,#1070);
#1068 = CARTESIAN_POINT('',(0.,0.,167.));
#1069 = DIRECTION('',(-0.,-0.,-1.));
#1070 = DIRECTION('',(1.,0.,0.));
#1071 = ( GEOMETRIC_REPRESENTATION_CONTEXT(3) 
GLOBAL_UNCERTAINTY_ASSIGNED_CONTEXT((#1075)) 
GLOBAL_UNIT_ASSIGNED_CONTEXT((#1072,#1073,#1074)) REPRESENTATION_CONTEXT
('Context #1','3D Context with UNIT and UNCERTAINTY') );
#1072 = ( LENGTH_UNIT() NAMED_UNIT(*) SI_UNIT(.MILLI.,.METRE.) );
#1073 = ( NAMED_UNIT(*) PLANE_ANGLE_UNIT() SI_UNIT($,.RADIAN.) );
#1074 = ( NAMED_UNIT(*) SI_UNIT($,.STERADIAN.) SOLID_ANGLE_UNIT() );
#1075 = UNCERTAINTY_MEASURE_WITH_UNIT(LENGTH_MEASURE(1.E-07),#1072,
  'distance_accuracy_value','confusion accuracy');
#1076 = PRODUCT_RELATED_PRODUCT_CATEGORY('part',$,(#7));
ENDSEC;
END-ISO-10303-21;
