%TF.GenerationSoftware,KiCad,Pcbnew,10.0.6*%
%TF.CreationDate,2026-09-20T10:49:32-06:00*%
%TF.ProjectId,power-board,706f7765-722d-4626-9f61-72642e6b6963,A*%
%TF.SameCoordinates,Original*%
%TF.FileFunction,Copper,L3,Inr*%
%TF.FilePolarity,Positive*%
%FSLAX46Y46*%
G04 Gerber Fmt 4.6, Leading zero omitted, Abs format (unit mm)*
G04 Created by KiCad (PCBNEW 10.0.6) date 2026-09-20 10:49:32*
%MOMM*%
%LPD*%
G01*
G04 APERTURE LIST*
%TA.AperFunction,ComponentPad*%
%ADD10O,1.000000X2.100000*%
%TD*%
%TA.AperFunction,ComponentPad*%
%ADD11O,1.000000X1.600000*%
%TD*%
%TA.AperFunction,ViaPad*%
%ADD12C,0.450000*%
%TD*%
%TA.AperFunction,ViaPad*%
%ADD13C,0.400000*%
%TD*%
%TA.AperFunction,Conductor*%
%ADD14C,0.200000*%
%TD*%
%TA.AperFunction,Conductor*%
%ADD15C,0.180000*%
%TD*%
%TA.AperFunction,Conductor*%
%ADD16C,0.300000*%
%TD*%
G04 APERTURE END LIST*
D10*
%TO.N,GND*%
%TO.C,J1*%
X26820000Y-6930000D03*
D11*
X26820000Y-2750000D03*
D10*
X18180000Y-6930000D03*
D11*
X18180000Y-2750000D03*
%TD*%
D12*
%TO.N,USB_3V3*%
X8651000Y-18006700D03*
X7864800Y-22959200D03*
X10057700Y-10815900D03*
%TO.N,USB_FAULT_N*%
X7917200Y-18143500D03*
X7844900Y-10144900D03*
X9103300Y-27465100D03*
X18399200Y-32814500D03*
D13*
%TO.N,GND*%
X15450000Y-20450000D03*
D12*
X24145900Y-17425500D03*
X21485900Y-14094500D03*
X20077600Y-19469500D03*
X35892300Y-8879800D03*
X6639700Y-4194600D03*
X36650000Y-26850000D03*
X4012500Y-21943800D03*
X20021700Y-26501200D03*
X32459100Y-13433700D03*
D13*
X14550000Y-19550000D03*
D12*
X29046500Y-27243000D03*
D13*
X14550000Y-20450000D03*
D12*
X23909500Y-32535100D03*
X18917100Y-16940000D03*
X21000000Y-32375000D03*
X23823700Y-22254900D03*
X4880100Y-10888300D03*
X7139000Y-20382500D03*
X6606500Y-20106200D03*
X14208100Y-8293300D03*
X16087300Y-13370700D03*
X15650000Y-7150000D03*
X34586000Y-4842700D03*
X9100400Y-23714300D03*
X7518600Y-8160700D03*
X29222000Y-20433800D03*
X29038900Y-21575000D03*
X12893800Y-34750000D03*
D13*
X24866000Y-11665700D03*
X15450000Y-19550000D03*
D12*
X33685600Y-31301600D03*
D13*
%TO.N,HOST_USB_N*%
X23250000Y-8199999D03*
X23450000Y-9600000D03*
X22250000Y-8199999D03*
D12*
%TO.N,USB_VBUS*%
X26036700Y-8935100D03*
X18654500Y-15846500D03*
%TO.N,SYSTEM_5V*%
X35193600Y-11022400D03*
X27248400Y-13009900D03*
%TO.N,BAT_NTC*%
X8950600Y-17466500D03*
X12985300Y-18297600D03*
%TO.N,PACK_P*%
X14018500Y-25175600D03*
X9507600Y-21926800D03*
X21770900Y-29763600D03*
%TO.N,CHG_N*%
X6643500Y-1167200D03*
X16922400Y-21252100D03*
X6677800Y-3282000D03*
%TO.N,SYSTEM_POWER*%
X17685900Y-21431100D03*
X5399400Y-20158700D03*
X2839300Y-10577800D03*
X6505000Y-21382700D03*
X7230100Y-9897400D03*
X8985000Y-3913800D03*
%TO.N,BQ_ILIM*%
X18930800Y-23228600D03*
X16462500Y-18748100D03*
%TO.N,USB_INPUT_PROTECTED*%
X5976100Y-12328500D03*
X17284200Y-15443700D03*
X11002400Y-11904900D03*
X9725700Y-12106600D03*
%TO.N,BQ_ISET*%
X16765000Y-18113700D03*
X13444600Y-17455200D03*
%TO.N,LED_B_K*%
X30328700Y-6738900D03*
X40188700Y-8514000D03*
%TO.N,USB_FUSED*%
X2315800Y-13130900D03*
X2905200Y-11507500D03*
X5976100Y-11749700D03*
X7510000Y-16814900D03*
X10362500Y-16796100D03*
X10167200Y-14634300D03*
X8057100Y-11522800D03*
X5472700Y-16669700D03*
%TO.N,CHG_LED_A*%
X5976100Y-10187000D03*
X8172100Y-3173400D03*
%TO.N,BOOST_EN*%
X27570100Y-19148300D03*
X30182400Y-20507000D03*
X24191200Y-19148300D03*
X34000000Y-22606700D03*
%TO.N,CELL_P*%
X7307700Y-28957700D03*
%TO.N,TINY_3V3*%
X27591400Y-33497100D03*
X28534500Y-22829800D03*
D13*
X21844600Y-26369600D03*
D12*
X19675000Y-31838300D03*
X30794400Y-25030800D03*
X14500000Y-35533100D03*
X19729000Y-16186000D03*
X21467600Y-14684800D03*
%TO.N,POWER_REQUEST_N*%
X12744600Y-4025000D03*
X18548800Y-29256100D03*
X20798100Y-24473100D03*
X16493700Y-31583700D03*
%TO.N,LED_R_K*%
X32343400Y-1049600D03*
%TO.N,LED_R_SUP*%
X30642000Y-2666100D03*
X28191700Y-6689300D03*
%TO.N,POWER_HOLD*%
X19101700Y-26301100D03*
X10688700Y-15126700D03*
X23653700Y-18671300D03*
X23605400Y-23716500D03*
%TO.N,I2C_SDA*%
X17599900Y-35546700D03*
X27901600Y-31418300D03*
%TO.N,I2C_SCL*%
X30432200Y-28312100D03*
X29581200Y-34254800D03*
X18500000Y-35539300D03*
%TO.N,BATTERY_ALERT_N*%
X22189900Y-30173500D03*
X19500000Y-35542000D03*
X30746100Y-30958800D03*
%TO.N,USB_VBUS_VALID*%
X34084400Y-16223800D03*
X21247500Y-35592600D03*
%TO.N,USB_SUSPEND*%
X2992600Y-25710100D03*
X15178400Y-24039700D03*
X19090600Y-33287000D03*
%TO.N,RGB_R*%
X25790700Y-9877000D03*
X27071400Y-35937400D03*
D13*
X31203100Y-6925900D03*
D12*
%TO.N,RGB_G*%
X30321100Y-27057600D03*
%TO.N,RGB_B*%
X24546800Y-35613700D03*
X38062500Y-12609000D03*
X29053100Y-12915500D03*
%TO.N,USB_FAULT_LOGIC_N*%
X25801100Y-32386400D03*
%TO.N,GAUGE_ALERT_N*%
X33546900Y-28523600D03*
X27845700Y-29300300D03*
%TO.N,GAUGE_SCL*%
X30954900Y-28014000D03*
X26087800Y-26594800D03*
%TO.N,GAUGE_SDA*%
X24172200Y-26596300D03*
X30624900Y-29588100D03*
%TO.N,USB_CC1*%
X19053900Y-12273400D03*
X12495500Y-9688600D03*
X23379400Y-6765200D03*
%TO.N,USB_CC2*%
X13758100Y-12131700D03*
X12651400Y-11426200D03*
%TO.N,CC_HIGH_N*%
X4293800Y-16743200D03*
X15074400Y-10931000D03*
X6001000Y-20189900D03*
X9937800Y-15919500D03*
%TO.N,LED_G_K*%
X39795800Y-11681200D03*
%TO.N,LED_G_SUP*%
X34585500Y-7062600D03*
X30697100Y-9364400D03*
%TO.N,ILIM_FAST_RETURN*%
X8141900Y-13314200D03*
X14520800Y-13142300D03*
%TO.N,AON_3V0*%
X27741200Y-26893200D03*
X15715200Y-26132200D03*
X23341900Y-26384500D03*
%TO.N,TINY_BOOT*%
X35961100Y-31852300D03*
X26842300Y-26172500D03*
X32973300Y-30959300D03*
X32098100Y-28307500D03*
%TO.N,USB_PATH_EN*%
X14910700Y-23414600D03*
X3800000Y-17250000D03*
%TO.N,TINY_RUN*%
X23168900Y-24597100D03*
X35975500Y-29481300D03*
D13*
%TO.N,TINY_USB_P*%
X21150000Y-16000000D03*
X36750000Y-32000000D03*
%TO.N,TINY_USB_N*%
X37250000Y-31600000D03*
X23850000Y-16000000D03*
D12*
%TO.N,CC_HIGH*%
X17422300Y-19162000D03*
X14925800Y-22787100D03*
X12835000Y-13886000D03*
X17516700Y-17565500D03*
%TO.N,PROT_VMINUS*%
X10837700Y-23991100D03*
X14573800Y-26625700D03*
%TO.N,BAT_SHUNT_N*%
X12600700Y-22817800D03*
X7658600Y-24621000D03*
%TO.N,BAT_CHG_GATE*%
X9783300Y-26778200D03*
X11904300Y-27673500D03*
%TO.N,BUTTON_N*%
X34789100Y-2000000D03*
X8802400Y-7635400D03*
%TO.N,USB_DISCONNECT*%
X25575100Y-24145800D03*
X20844400Y-15500000D03*
X26195100Y-13161300D03*
%TO.N,SYS_OK*%
X3807900Y-18403900D03*
X7642700Y-21937600D03*
%TO.N,KEEP_ALIVE*%
X11658000Y-17271400D03*
X15817100Y-15108800D03*
X11603700Y-15285400D03*
%TO.N,KILL_SAFE*%
X9738100Y-7605500D03*
X10942900Y-19905600D03*
X5905600Y-8278900D03*
%TO.N,LATCH_EN*%
X13221800Y-6892400D03*
X10086000Y-20450200D03*
X13721500Y-7817400D03*
X12875100Y-4675000D03*
%TO.N,PWR_ONT*%
X8499700Y-8162800D03*
X16905400Y-11677900D03*
%TO.N,SYS_SENSE*%
X19100700Y-16375300D03*
X5240600Y-12921800D03*
X20911300Y-9164600D03*
X20725500Y-5896800D03*
%TO.N,USB_VALID_AON*%
X28580600Y-13977100D03*
X33325000Y-12637100D03*
%TO.N,SYS_OK_CT*%
X5821500Y-4155200D03*
X5742200Y-13391700D03*
%TO.N,VBUS_SENSE*%
X25154900Y-23325000D03*
X28837000Y-9826000D03*
%TO.N,PROGRAM_HOLD*%
X15049500Y-15590800D03*
X21130900Y-22010800D03*
%TO.N,GAUGE_VOLTAGE_OK*%
X28475200Y-26830400D03*
X23837100Y-29505000D03*
%TO.N,PACK_SENSE*%
X17675000Y-29126500D03*
X24825000Y-31835500D03*
%TO.N,TINY_OK*%
X32528100Y-11615600D03*
X26833700Y-24722100D03*
X31168100Y-23042100D03*
%TO.N,BOOT_CT*%
X12946900Y-8045300D03*
X21676100Y-5698800D03*
X23896500Y-11320200D03*
X24785600Y-10202700D03*
%TO.N,BOOT_DONE*%
X14791900Y-12592900D03*
X20895100Y-10752500D03*
%TO.N,BOOT_WINDOW*%
X7804100Y-14321700D03*
X17340300Y-10806400D03*
%TO.N,PWR_PDT*%
X12609500Y-6577400D03*
X17923100Y-8672800D03*
%TD*%
%TO.N,USB_3V3*%
D14*
X9044600Y-11829000D02*
X10057700Y-10815900D01*
X7012900Y-14453500D02*
X7698400Y-13768000D01*
X8357800Y-13768000D02*
X9044600Y-13081200D01*
X8248800Y-17604500D02*
X7651800Y-17604500D01*
X7651800Y-17604500D02*
X7012900Y-16965600D01*
X9044600Y-13081200D02*
X9044600Y-11829000D01*
X8651000Y-18006700D02*
X8248800Y-17604500D01*
X7698400Y-13768000D02*
X8357800Y-13768000D01*
X7012900Y-16965600D02*
X7012900Y-14453500D01*
%TO.N,USB_FAULT_N*%
X7416600Y-9424100D02*
X7844900Y-9852400D01*
X15418700Y-33780500D02*
X19243300Y-33780500D01*
X19301000Y-32814500D02*
X18399200Y-32814500D01*
X7917200Y-18143500D02*
X7671900Y-18143500D01*
X19603800Y-33117300D02*
X19301000Y-32814500D01*
X6678900Y-12876800D02*
X6758600Y-12797100D01*
X6678900Y-17150500D02*
X6678900Y-12876800D01*
X19603800Y-33420000D02*
X19603800Y-33117300D01*
X7023500Y-9424100D02*
X7416600Y-9424100D01*
X9103300Y-27465100D02*
X15418700Y-33780500D01*
X7671900Y-18143500D02*
X6678900Y-17150500D01*
X6758600Y-12797100D02*
X6758600Y-9689000D01*
X6758600Y-9689000D02*
X7023500Y-9424100D01*
X19243300Y-33780500D02*
X19603800Y-33420000D01*
X7844900Y-9852400D02*
X7844900Y-10144900D01*
%TO.N,GND*%
D15*
X14400000Y-8200000D02*
X14350000Y-8250000D01*
X14350000Y-8250000D02*
X14150000Y-8250000D01*
X15650000Y-7150000D02*
X15000000Y-7800000D01*
X14450000Y-8200000D02*
X14400000Y-8200000D01*
X14900000Y-7800000D02*
X14550000Y-8150000D01*
X15000000Y-7800000D02*
X14900000Y-7800000D01*
X14550000Y-8150000D02*
X14500000Y-8150000D01*
X14500000Y-8150000D02*
X14450000Y-8200000D01*
%TO.N,HOST_USB_N*%
X23250000Y-8850000D02*
X23450000Y-9050000D01*
X22250000Y-8199999D02*
X22250000Y-8850000D01*
X23450000Y-9050000D02*
X23450000Y-9600000D01*
X22250000Y-8850000D02*
X23250000Y-8850000D01*
X23250000Y-8850000D02*
X23250000Y-8199999D01*
%TO.N,USB_VBUS*%
D16*
X26036700Y-8935100D02*
X25341000Y-8935100D01*
X18654500Y-15621600D02*
X18654500Y-15846500D01*
X25341000Y-8935100D02*
X18654500Y-15621600D01*
%TO.N,SYSTEM_5V*%
X29692700Y-13474900D02*
X32145200Y-11022400D01*
X28435000Y-13009900D02*
X28900000Y-13474900D01*
X27248400Y-13009900D02*
X28435000Y-13009900D01*
X32145200Y-11022400D02*
X35193600Y-11022400D01*
X28900000Y-13474900D02*
X29692700Y-13474900D01*
%TO.N,BAT_NTC*%
D14*
X10638100Y-17466500D02*
X8950600Y-17466500D01*
X11469200Y-18297600D02*
X10638100Y-17466500D01*
X12985300Y-18297600D02*
X11469200Y-18297600D01*
%TO.N,PACK_P*%
D16*
X14018500Y-25175600D02*
X12756400Y-25175600D01*
X12756400Y-25175600D02*
X9507600Y-21926800D01*
%TO.N,CHG_N*%
D14*
X1399400Y-11572700D02*
X5941900Y-16115200D01*
X6677800Y-3282000D02*
X6043600Y-3282000D01*
X5941900Y-16115200D02*
X5941900Y-17343100D01*
X11822200Y-21252100D02*
X16922400Y-21252100D01*
X10761600Y-20484200D02*
X11054300Y-20484200D01*
X1399400Y-7926200D02*
X1399400Y-11572700D01*
X5941900Y-17343100D02*
X8595300Y-19996500D01*
X8595300Y-19996500D02*
X10273900Y-19996500D01*
X11054300Y-20484200D02*
X11822200Y-21252100D01*
X6043600Y-3282000D02*
X1399400Y-7926200D01*
X10273900Y-19996500D02*
X10761600Y-20484200D01*
%TO.N,SYSTEM_POWER*%
D16*
X17352700Y-21764300D02*
X11798900Y-21764300D01*
X10988600Y-20954000D02*
X6933700Y-20954000D01*
X11798900Y-21764300D02*
X10988600Y-20954000D01*
X17685900Y-21431100D02*
X17352700Y-21764300D01*
X8985000Y-4432100D02*
X8985000Y-3913800D01*
X6933700Y-20954000D02*
X6505000Y-21382700D01*
X2839300Y-10577800D02*
X8985000Y-4432100D01*
%TO.N,BQ_ILIM*%
D14*
X16517500Y-18693100D02*
X17621600Y-18693100D01*
X16462500Y-18748100D02*
X16517500Y-18693100D01*
X17621600Y-18693100D02*
X18930800Y-20002300D01*
X18930800Y-20002300D02*
X18930800Y-23228600D01*
%TO.N,USB_INPUT_PROTECTED*%
D16*
X11845300Y-12747800D02*
X12999300Y-12747800D01*
X16152700Y-14312200D02*
X17284200Y-15443700D01*
X12999300Y-12747800D02*
X14563700Y-14312200D01*
X14563700Y-14312200D02*
X16152700Y-14312200D01*
X11002400Y-11904900D02*
X11845300Y-12747800D01*
%TO.N,BQ_ISET*%
D14*
X13444600Y-17455200D02*
X16106500Y-17455200D01*
X16106500Y-17455200D02*
X16765000Y-18113700D01*
%TO.N,LED_B_K*%
X38157800Y-6483100D02*
X30584500Y-6483100D01*
X40188700Y-8514000D02*
X38157800Y-6483100D01*
X30584500Y-6483100D02*
X30328700Y-6738900D01*
%TO.N,USB_FUSED*%
D16*
X5733900Y-11507500D02*
X5976100Y-11749700D01*
X10167200Y-15339300D02*
X10167200Y-14634300D01*
X2905200Y-11507500D02*
X5733900Y-11507500D01*
X10441500Y-15613600D02*
X10167200Y-15339300D01*
X5472700Y-16287800D02*
X5472700Y-16669700D01*
X2315800Y-13130900D02*
X5472700Y-16287800D01*
X10441500Y-16717100D02*
X10441500Y-15613600D01*
X10362500Y-16796100D02*
X10441500Y-16717100D01*
%TO.N,CHG_LED_A*%
D14*
X8172100Y-3173400D02*
X8171800Y-3173700D01*
X8171700Y-3173700D02*
X8171700Y-4243700D01*
X2605900Y-11053800D02*
X3285100Y-11053800D01*
X8171700Y-4243700D02*
X2385500Y-10029900D01*
X3285100Y-11053800D02*
X4151900Y-10187000D01*
X8171800Y-3173700D02*
X8171700Y-3173700D01*
X2385500Y-10029900D02*
X2385500Y-10833400D01*
X4151900Y-10187000D02*
X5976100Y-10187000D01*
X2385500Y-10833400D02*
X2605900Y-11053800D01*
%TO.N,BOOST_EN*%
X34000000Y-22606700D02*
X31900300Y-20507000D01*
X31900300Y-20507000D02*
X30182400Y-20507000D01*
%TO.N,TINY_3V3*%
X19052400Y-34491600D02*
X20690400Y-32853600D01*
X21844600Y-26369600D02*
X21844600Y-18301600D01*
X28776800Y-22587500D02*
X31361400Y-22587500D01*
X15541500Y-34491600D02*
X19052400Y-34491600D01*
X28534500Y-22829800D02*
X28776800Y-22587500D01*
X25317300Y-32852400D02*
X25317300Y-31650700D01*
X27591400Y-33497100D02*
X25962000Y-33497100D01*
X22528900Y-31178100D02*
X21303900Y-29953100D01*
X31656000Y-22882100D02*
X31656000Y-24169200D01*
X20691900Y-32853600D02*
X20827100Y-32988800D01*
X21303900Y-26910300D02*
X21844600Y-26369600D01*
X20690400Y-32853600D02*
X19675000Y-31838300D01*
X20827100Y-32988800D02*
X25180900Y-32988800D01*
X21844600Y-18301600D02*
X19729000Y-16186000D01*
X24844700Y-31178100D02*
X22528900Y-31178100D01*
X31361400Y-22587500D02*
X31656000Y-22882100D01*
X25317300Y-31650700D02*
X24844700Y-31178100D01*
X21467600Y-14684800D02*
X21018100Y-14684800D01*
X21018100Y-14684800D02*
X19729000Y-15973900D01*
X14500000Y-35533100D02*
X15541500Y-34491600D01*
X25180900Y-32988800D02*
X25317300Y-32852400D01*
X31656000Y-24169200D02*
X30794400Y-25030800D01*
X19729000Y-15973900D02*
X19729000Y-16186000D01*
X25962000Y-33497100D02*
X25317300Y-32852400D01*
X21303900Y-29953100D02*
X21303900Y-26910300D01*
X20690400Y-32853600D02*
X20691900Y-32853600D01*
%TO.N,POWER_REQUEST_N*%
X20798100Y-27006800D02*
X18548800Y-29256100D01*
X20798100Y-24473100D02*
X20798100Y-27006800D01*
X10755800Y-2036200D02*
X6336900Y-2036200D01*
X6336900Y-2036200D02*
X742000Y-7631100D01*
X742000Y-7631100D02*
X742000Y-24115300D01*
X12744600Y-4025000D02*
X10755800Y-2036200D01*
X2869600Y-26242900D02*
X11152900Y-26242900D01*
X742000Y-24115300D02*
X2869600Y-26242900D01*
X11152900Y-26242900D02*
X16493700Y-31583700D01*
%TO.N,LED_R_SUP*%
X30642000Y-4239000D02*
X28191700Y-6689300D01*
X30642000Y-2666100D02*
X30642000Y-4239000D01*
%TO.N,POWER_HOLD*%
X23369900Y-23481000D02*
X23369900Y-18955100D01*
X19454500Y-25948300D02*
X19101700Y-26301100D01*
X23369900Y-18955100D02*
X23653700Y-18671300D01*
X19454500Y-20044600D02*
X19454500Y-25948300D01*
X16256200Y-16946600D02*
X17329900Y-18020300D01*
X12508600Y-16946600D02*
X16256200Y-16946600D01*
X17329900Y-18020300D02*
X17430200Y-18020300D01*
X17430200Y-18020300D02*
X19454500Y-20044600D01*
X10688700Y-15126700D02*
X12508600Y-16946600D01*
X23605400Y-23716500D02*
X23369900Y-23481000D01*
%TO.N,I2C_SDA*%
X20791200Y-34099200D02*
X27685900Y-34099200D01*
X28065400Y-31582100D02*
X27901600Y-31418300D01*
X18272600Y-34874000D02*
X20016400Y-34874000D01*
X27685900Y-34099200D02*
X28065400Y-33719700D01*
X20016400Y-34874000D02*
X20791200Y-34099200D01*
X28065400Y-33719700D02*
X28065400Y-31582100D01*
X17599900Y-35546700D02*
X18272600Y-34874000D01*
%TO.N,BATTERY_ALERT_N*%
X30636700Y-30849400D02*
X22865800Y-30849400D01*
X19500000Y-35542000D02*
X19813300Y-35542000D01*
X30746100Y-31503700D02*
X30746100Y-30958800D01*
X19813300Y-35542000D02*
X20736300Y-34619000D01*
X22865800Y-30849400D02*
X22189900Y-30173500D01*
X20736300Y-34619000D02*
X27630800Y-34619000D01*
X27630800Y-34619000D02*
X30746100Y-31503700D01*
X30746100Y-30958800D02*
X30636700Y-30849400D01*
%TO.N,USB_VBUS_VALID*%
X34084400Y-16223800D02*
X37684800Y-19824200D01*
X37684800Y-19824200D02*
X37684800Y-31807600D01*
X21754400Y-35085700D02*
X21247500Y-35592600D01*
X34406700Y-35085700D02*
X21754400Y-35085700D01*
X37684800Y-31807600D02*
X34406700Y-35085700D01*
%TO.N,USB_SUSPEND*%
X18228700Y-33287000D02*
X17135400Y-32193700D01*
X17135400Y-28718700D02*
X15857300Y-27440600D01*
X17135400Y-32193700D02*
X17135400Y-28718700D01*
X13249900Y-27440600D02*
X15857300Y-27440600D01*
X15857300Y-27440600D02*
X16186000Y-27111900D01*
X19090600Y-33287000D02*
X18228700Y-33287000D01*
X2992600Y-25710100D02*
X11519400Y-25710100D01*
X11519400Y-25710100D02*
X13249900Y-27440600D01*
X16186000Y-27111900D02*
X16186000Y-25047300D01*
X16186000Y-25047300D02*
X15178400Y-24039700D01*
%TO.N,RGB_R*%
X30584300Y-9950800D02*
X36076200Y-9950800D01*
X38543200Y-31897800D02*
X34503600Y-35937400D01*
X38543200Y-12417800D02*
X38543200Y-31897800D01*
X36076200Y-9950800D02*
X38543200Y-12417800D01*
X26649300Y-9018400D02*
X25790700Y-9877000D01*
X29651900Y-9018400D02*
X30584300Y-9950800D01*
X31203100Y-6925900D02*
X29651900Y-8477100D01*
X34503600Y-35937400D02*
X27071400Y-35937400D01*
X29651900Y-8477100D02*
X29651900Y-9018400D01*
X29651900Y-9018400D02*
X26649300Y-9018400D01*
%TO.N,RGB_B*%
X38062500Y-31894700D02*
X34506300Y-35450900D01*
X31410900Y-10557700D02*
X29053100Y-12915500D01*
X36011200Y-10557700D02*
X31410900Y-10557700D01*
X38062500Y-12609000D02*
X38062500Y-31894700D01*
X24709600Y-35450900D02*
X24546800Y-35613700D01*
X38062500Y-12609000D02*
X36011200Y-10557700D01*
X34506300Y-35450900D02*
X24709600Y-35450900D01*
%TO.N,GAUGE_ALERT_N*%
X28380200Y-28765800D02*
X27845700Y-29300300D01*
X33546900Y-28523600D02*
X33304700Y-28765800D01*
X33304700Y-28765800D02*
X28380200Y-28765800D01*
%TO.N,GAUGE_SCL*%
X30954900Y-28014000D02*
X30452200Y-27511300D01*
X28959500Y-26376700D02*
X27279700Y-26376700D01*
X30094100Y-27511300D02*
X28959500Y-26376700D01*
X26119200Y-26626200D02*
X26087800Y-26594800D01*
X27030200Y-26626200D02*
X26119200Y-26626200D01*
X27279700Y-26376700D02*
X27030200Y-26626200D01*
X30452200Y-27511300D02*
X30094100Y-27511300D01*
%TO.N,GAUGE_SDA*%
X34010400Y-28756500D02*
X33178800Y-29588100D01*
X29776400Y-25704000D02*
X30347500Y-26275100D01*
X25064500Y-25704000D02*
X29776400Y-25704000D01*
X31991500Y-26275100D02*
X34010400Y-28294000D01*
X30347500Y-26275100D02*
X31991500Y-26275100D01*
X24172200Y-26596300D02*
X25064500Y-25704000D01*
X33178800Y-29588100D02*
X30624900Y-29588100D01*
X34010400Y-28294000D02*
X34010400Y-28756500D01*
%TO.N,USB_CC1*%
X22098500Y-6765200D02*
X23379400Y-6765200D01*
X12616700Y-9809800D02*
X19053900Y-9809800D01*
X19053900Y-12273400D02*
X19053900Y-9809800D01*
X12495500Y-9688600D02*
X12616700Y-9809800D01*
X19053900Y-9809800D02*
X22098500Y-6765200D01*
%TO.N,CC_HIGH_N*%
X11794100Y-11880000D02*
X11364800Y-11450700D01*
X10508200Y-11730800D02*
X10508200Y-12547200D01*
X15074400Y-10931000D02*
X14308200Y-10931000D01*
X4293800Y-16743200D02*
X6001000Y-18450400D01*
X14308200Y-10931000D02*
X13359200Y-11880000D01*
X10508200Y-12547200D02*
X9671000Y-13384400D01*
X11364800Y-11450700D02*
X10788300Y-11450700D01*
X13359200Y-11880000D02*
X11794100Y-11880000D01*
X6001000Y-18450400D02*
X6001000Y-20189900D01*
X10788300Y-11450700D02*
X10508200Y-11730800D01*
X9671000Y-15652700D02*
X9937800Y-15919500D01*
X9671000Y-13384400D02*
X9671000Y-15652700D01*
%TO.N,LED_G_SUP*%
X32998800Y-7062700D02*
X34585500Y-7062700D01*
X34585500Y-7062700D02*
X34585500Y-7062600D01*
X30697100Y-9364400D02*
X32998800Y-7062700D01*
%TO.N,AON_3V0*%
X27741200Y-26893200D02*
X27584300Y-27050100D01*
X23341900Y-26428000D02*
X23341900Y-26384500D01*
X27584300Y-27050100D02*
X23964000Y-27050100D01*
X23964000Y-27050100D02*
X23341900Y-26428000D01*
%TO.N,TINY_BOOT*%
X29655600Y-26048000D02*
X26966800Y-26048000D01*
X30211400Y-26603800D02*
X29655600Y-26048000D01*
X32098100Y-28307500D02*
X32098100Y-28172600D01*
X34956600Y-30847800D02*
X35961100Y-31852300D01*
X33084800Y-30847800D02*
X34956600Y-30847800D01*
X32098100Y-28172600D02*
X30529300Y-26603800D01*
X32973300Y-30959300D02*
X33084800Y-30847800D01*
X30529300Y-26603800D02*
X30211400Y-26603800D01*
X26966800Y-26048000D02*
X26842300Y-26172500D01*
%TO.N,USB_PATH_EN*%
D15*
X3350000Y-18150000D02*
X3350000Y-18650000D01*
X14700000Y-23800000D02*
X14750000Y-23750000D01*
X11700000Y-25400000D02*
X11750000Y-25400000D01*
X14750000Y-23750000D02*
X14750000Y-23700000D01*
X14400000Y-27100000D02*
X14750000Y-27100000D01*
X14750000Y-23700000D02*
X14800000Y-23650000D01*
X12000000Y-25650000D02*
X12000000Y-25700000D01*
X12150000Y-25850000D02*
X12200000Y-25850000D01*
X7200000Y-24850000D02*
X7250000Y-24900000D01*
X13150000Y-26850000D02*
X13200000Y-26850000D01*
X14850000Y-23450000D02*
X14900000Y-23400000D01*
X11800000Y-25500000D02*
X11850000Y-25500000D01*
X12200000Y-25850000D02*
X12200000Y-25900000D01*
X7200000Y-23250000D02*
X7200000Y-24850000D01*
X12400000Y-26050000D02*
X12400000Y-26100000D01*
X13050000Y-26700000D02*
X13050000Y-26750000D01*
X12400000Y-26100000D02*
X12450000Y-26100000D01*
X14800000Y-27050000D02*
X14850000Y-27050000D01*
X13200000Y-26900000D02*
X13250000Y-26900000D01*
X12500000Y-26150000D02*
X12500000Y-26200000D01*
X12650000Y-26300000D02*
X12650000Y-26350000D01*
X12150000Y-25800000D02*
X12150000Y-25850000D01*
X13100000Y-26750000D02*
X13100000Y-26800000D01*
X11900000Y-25550000D02*
X11900000Y-25600000D01*
X13200000Y-26850000D02*
X13200000Y-26900000D01*
X7300000Y-25000000D02*
X7350000Y-25000000D01*
X15050000Y-24650000D02*
X14800000Y-24400000D01*
X11750000Y-25400000D02*
X11750000Y-25450000D01*
X12250000Y-25900000D02*
X12250000Y-25950000D01*
X11950000Y-25600000D02*
X11950000Y-25650000D01*
X11850000Y-25550000D02*
X11900000Y-25550000D01*
X12600000Y-26250000D02*
X12600000Y-26300000D01*
X12500000Y-26200000D02*
X12550000Y-26200000D01*
X13000000Y-26650000D02*
X13000000Y-26700000D01*
X12350000Y-26050000D02*
X12400000Y-26050000D01*
X12100000Y-25750000D02*
X12100000Y-25800000D01*
X13250000Y-26900000D02*
X13250000Y-26950000D01*
X12300000Y-26000000D02*
X12350000Y-26000000D01*
X12850000Y-26500000D02*
X12850000Y-26550000D01*
X3800000Y-17700000D02*
X3350000Y-18150000D01*
X12900000Y-26600000D02*
X12950000Y-26600000D01*
X12100000Y-25800000D02*
X12150000Y-25800000D01*
X12950000Y-26600000D02*
X12950000Y-26650000D01*
X12000000Y-25700000D02*
X12050000Y-25700000D01*
X7250000Y-24900000D02*
X7250000Y-24950000D01*
X12900000Y-26550000D02*
X12900000Y-26600000D01*
X14850000Y-27050000D02*
X15000000Y-26900000D01*
X15000000Y-26900000D02*
X15000000Y-26850000D01*
X14800000Y-23600000D02*
X14850000Y-23550000D01*
X13000000Y-26700000D02*
X13050000Y-26700000D01*
X12600000Y-26300000D02*
X12650000Y-26300000D01*
X12700000Y-26350000D02*
X12700000Y-26400000D01*
X7350000Y-25000000D02*
X7400000Y-25050000D01*
X12750000Y-26450000D02*
X12800000Y-26450000D01*
X13050000Y-26750000D02*
X13100000Y-26750000D01*
X3800000Y-17250000D02*
X3800000Y-17700000D01*
X12300000Y-25950000D02*
X12300000Y-26000000D01*
X12750000Y-26400000D02*
X12750000Y-26450000D01*
X14750000Y-24300000D02*
X14750000Y-24250000D01*
X12800000Y-26450000D02*
X12800000Y-26500000D01*
X7250000Y-24950000D02*
X7300000Y-25000000D01*
X14350000Y-27050000D02*
X14400000Y-27100000D01*
X12050000Y-25700000D02*
X12050000Y-25750000D01*
X11750000Y-25450000D02*
X11800000Y-25450000D01*
X13100000Y-26800000D02*
X13150000Y-26800000D01*
X3450000Y-19500000D02*
X7200000Y-23250000D01*
X11800000Y-25450000D02*
X11800000Y-25500000D01*
X12450000Y-26150000D02*
X12500000Y-26150000D01*
X11900000Y-25600000D02*
X11950000Y-25600000D01*
X12800000Y-26500000D02*
X12850000Y-26500000D01*
X3450000Y-18750000D02*
X3450000Y-19500000D01*
X3350000Y-18650000D02*
X3450000Y-18750000D01*
X12700000Y-26400000D02*
X12750000Y-26400000D01*
X14800000Y-24400000D02*
X14800000Y-24350000D01*
X13250000Y-26950000D02*
X13350000Y-26950000D01*
X13150000Y-26800000D02*
X13150000Y-26850000D01*
X11400000Y-25100000D02*
X11700000Y-25400000D01*
X14300000Y-27050000D02*
X14350000Y-27050000D01*
X14750000Y-24250000D02*
X14700000Y-24200000D01*
X12550000Y-26200000D02*
X12550000Y-26250000D01*
X12950000Y-26650000D02*
X13000000Y-26650000D01*
X14250000Y-27000000D02*
X14300000Y-27050000D01*
X15050000Y-26800000D02*
X15050000Y-24650000D01*
X7400000Y-25050000D02*
X7450000Y-25050000D01*
X12550000Y-26250000D02*
X12600000Y-26250000D01*
X14800000Y-23650000D02*
X14800000Y-23600000D01*
X14700000Y-24200000D02*
X14700000Y-23800000D01*
X11850000Y-25500000D02*
X11850000Y-25550000D01*
X7450000Y-25050000D02*
X7500000Y-25100000D01*
X12350000Y-26000000D02*
X12350000Y-26050000D01*
X15000000Y-26850000D02*
X15050000Y-26800000D01*
X12250000Y-25950000D02*
X12300000Y-25950000D01*
X12200000Y-25900000D02*
X12250000Y-25900000D01*
X14800000Y-24350000D02*
X14750000Y-24300000D01*
X12450000Y-26100000D02*
X12450000Y-26150000D01*
X13350000Y-26950000D02*
X13400000Y-27000000D01*
X11950000Y-25650000D02*
X12000000Y-25650000D01*
X13400000Y-27000000D02*
X14250000Y-27000000D01*
X7500000Y-25100000D02*
X11400000Y-25100000D01*
X14750000Y-27100000D02*
X14800000Y-27050000D01*
X12650000Y-26350000D02*
X12700000Y-26350000D01*
X12050000Y-25750000D02*
X12100000Y-25750000D01*
X12850000Y-26550000D02*
X12900000Y-26550000D01*
X14850000Y-23550000D02*
X14850000Y-23450000D01*
%TO.N,TINY_RUN*%
D14*
X23870400Y-25298600D02*
X29837700Y-25298600D01*
X29837700Y-25298600D02*
X30350800Y-25811700D01*
X30350800Y-25811700D02*
X32305900Y-25811700D01*
X32305900Y-25811700D02*
X35975500Y-29481300D01*
X23168900Y-24597100D02*
X23870400Y-25298600D01*
%TO.N,TINY_USB_P*%
D15*
X21150000Y-16000000D02*
X22275000Y-17125000D01*
X23275000Y-30500000D02*
X35750000Y-30500000D01*
X35750000Y-30500000D02*
X36750000Y-31500000D01*
X22275000Y-29500000D02*
X23275000Y-30500000D01*
X36750000Y-31500000D02*
X36750000Y-32000000D01*
X22275000Y-17125000D02*
X22275000Y-29500000D01*
%TO.N,TINY_USB_N*%
X23725000Y-30050000D02*
X36250000Y-30050000D01*
X37250000Y-31050000D02*
X37250000Y-31600000D01*
X36250000Y-30050000D02*
X37250000Y-31050000D01*
X22725000Y-29050000D02*
X23725000Y-30050000D01*
X23850000Y-16000000D02*
X22725000Y-17125000D01*
X22725000Y-17125000D02*
X22725000Y-29050000D01*
%TO.N,CC_HIGH*%
D14*
X16567600Y-16616400D02*
X17516700Y-17565500D01*
X14925800Y-22787100D02*
X16981000Y-22787100D01*
X16981000Y-22787100D02*
X18142700Y-21625400D01*
X15433600Y-16616400D02*
X16567600Y-16616400D01*
X12835000Y-14017800D02*
X15433600Y-16616400D01*
X12835000Y-13886000D02*
X12835000Y-14017800D01*
X18142700Y-19882400D02*
X17422300Y-19162000D01*
X18142700Y-21625400D02*
X18142700Y-19882400D01*
%TO.N,PROT_VMINUS*%
X10837700Y-23991100D02*
X13472300Y-26625700D01*
X13472300Y-26625700D02*
X14573800Y-26625700D01*
%TO.N,BAT_SHUNT_N*%
D16*
X8574000Y-23705600D02*
X7658600Y-24621000D01*
X12246200Y-22817800D02*
X10811100Y-21382700D01*
X9290000Y-21382700D02*
X8574000Y-22098700D01*
X8574000Y-22098700D02*
X8574000Y-23705600D01*
X12600700Y-22817800D02*
X12246200Y-22817800D01*
X10811100Y-21382700D02*
X9290000Y-21382700D01*
%TO.N,BAT_CHG_GATE*%
D14*
X11009000Y-26778200D02*
X9783300Y-26778200D01*
X11904300Y-27673500D02*
X11009000Y-26778200D01*
%TO.N,BUTTON_N*%
X16706300Y-9153900D02*
X17033500Y-9481100D01*
X30026900Y-2000000D02*
X34789100Y-2000000D01*
X23103900Y-4912500D02*
X27114400Y-4912500D01*
X17033500Y-9481100D02*
X18535300Y-9481100D01*
X10320900Y-9153900D02*
X16706300Y-9153900D01*
X8802400Y-7635400D02*
X10320900Y-9153900D01*
X18535300Y-9481100D02*
X23103900Y-4912500D01*
X27114400Y-4912500D02*
X30026900Y-2000000D01*
%TO.N,USB_DISCONNECT*%
X25652600Y-24068300D02*
X25652600Y-15500000D01*
X25575100Y-24145800D02*
X25652600Y-24068300D01*
X25652600Y-13703800D02*
X26195100Y-13161300D01*
X25652600Y-15500000D02*
X25652600Y-13703800D01*
X25652600Y-15500000D02*
X20844400Y-15500000D01*
%TO.N,SYS_OK*%
X6418400Y-21937600D02*
X3807900Y-19327100D01*
X7642700Y-21937600D02*
X6418400Y-21937600D01*
X3807900Y-19327100D02*
X3807900Y-18403900D01*
%TO.N,KEEP_ALIVE*%
X14815800Y-15108800D02*
X15817100Y-15108800D01*
X13086000Y-13379000D02*
X14815800Y-15108800D01*
X11603700Y-15285400D02*
X11603700Y-14349900D01*
X11603700Y-14349900D02*
X12574600Y-13379000D01*
X12574600Y-13379000D02*
X13086000Y-13379000D01*
%TO.N,KILL_SAFE*%
X8600000Y-7181300D02*
X7972300Y-7809000D01*
X6704000Y-9077300D02*
X6429900Y-9351400D01*
X7972300Y-7809000D02*
X7972300Y-8348600D01*
X9738100Y-7605500D02*
X9313900Y-7181300D01*
X6429900Y-9351400D02*
X6429900Y-12661000D01*
X6350200Y-17286600D02*
X7660800Y-18597200D01*
X6704000Y-9077300D02*
X5905600Y-8278900D01*
X6429900Y-12661000D02*
X6350200Y-12740700D01*
X7660800Y-18597200D02*
X9634500Y-18597200D01*
X6350200Y-12740700D02*
X6350200Y-17286600D01*
X9313900Y-7181300D02*
X8600000Y-7181300D01*
X9634500Y-18597200D02*
X10942900Y-19905600D01*
X7243600Y-9077300D02*
X6704000Y-9077300D01*
X7972300Y-8348600D02*
X7243600Y-9077300D01*
%TO.N,LATCH_EN*%
X10302800Y-2364900D02*
X12612900Y-4675000D01*
X1070700Y-7775100D02*
X6480900Y-2364900D01*
X4747600Y-16684900D02*
X4747600Y-16481200D01*
X13221800Y-7317700D02*
X13221800Y-6892400D01*
X12612900Y-4675000D02*
X12875100Y-4675000D01*
X1070700Y-12804300D02*
X1070700Y-7775100D01*
X13721500Y-7817400D02*
X13221800Y-7317700D01*
X6480900Y-2364900D02*
X10302800Y-2364900D01*
X4747600Y-16481200D02*
X1070700Y-12804300D01*
X8512900Y-20450200D02*
X4747600Y-16684900D01*
X10086000Y-20450200D02*
X8512900Y-20450200D01*
%TO.N,PWR_ONT*%
X17142800Y-11677900D02*
X16905400Y-11677900D01*
X10479200Y-10142300D02*
X17329400Y-10142300D01*
X17329400Y-10142300D02*
X17852200Y-10665100D01*
X8499700Y-8162800D02*
X10479200Y-10142300D01*
X17852200Y-10665100D02*
X17852200Y-10968500D01*
X17852200Y-10968500D02*
X17142800Y-11677900D01*
%TO.N,SYS_SENSE*%
X20725500Y-5896800D02*
X20237600Y-5408900D01*
X3678000Y-12921800D02*
X5240600Y-12921800D01*
X20237600Y-5408900D02*
X12650900Y-5408900D01*
X18200700Y-14332100D02*
X18200700Y-16067100D01*
X2056800Y-11300600D02*
X3678000Y-12921800D01*
X7963500Y-2693600D02*
X7674500Y-2982600D01*
X18508900Y-16375300D02*
X19100700Y-16375300D01*
X20911300Y-9164600D02*
X21387600Y-9640900D01*
X12650900Y-5408900D02*
X9935600Y-2693600D01*
X21387600Y-11145200D02*
X18200700Y-14332100D01*
X7674500Y-2982600D02*
X7674500Y-3989200D01*
X21387600Y-9640900D02*
X21387600Y-11145200D01*
X7674500Y-3989200D02*
X2056800Y-9606900D01*
X2056800Y-9606900D02*
X2056800Y-11300600D01*
X18200700Y-16067100D02*
X18508900Y-16375300D01*
X9935600Y-2693600D02*
X7963500Y-2693600D01*
%TO.N,USB_VALID_AON*%
X29783600Y-13977100D02*
X28580600Y-13977100D01*
X31123600Y-12637100D02*
X29783600Y-13977100D01*
X33325000Y-12637100D02*
X31123600Y-12637100D01*
%TO.N,SYS_OK_CT*%
X5821500Y-4155200D02*
X1728100Y-8248600D01*
X3683100Y-13391700D02*
X5742200Y-13391700D01*
X1728100Y-11436700D02*
X3683100Y-13391700D01*
X1728100Y-8248600D02*
X1728100Y-11436700D01*
%TO.N,VBUS_SENSE*%
X26648900Y-23742700D02*
X26648900Y-12014100D01*
X25741800Y-24649800D02*
X26648900Y-23742700D01*
X26648900Y-12014100D02*
X28837000Y-9826000D01*
X25082700Y-23397200D02*
X25082700Y-24305300D01*
X25154900Y-23325000D02*
X25082700Y-23397200D01*
X25082700Y-24305300D02*
X25427200Y-24649800D01*
X25427200Y-24649800D02*
X25741800Y-24649800D01*
%TO.N,PROGRAM_HOLD*%
X15049500Y-15590800D02*
X16194000Y-15590800D01*
X21130900Y-21211500D02*
X21130900Y-22010800D01*
X19468200Y-19548800D02*
X21130900Y-21211500D01*
X16194000Y-15590800D02*
X19468200Y-18865000D01*
X19468200Y-18865000D02*
X19468200Y-19548800D01*
%TO.N,GAUGE_VOLTAGE_OK*%
X28475200Y-26830400D02*
X25800600Y-29505000D01*
X25800600Y-29505000D02*
X23837100Y-29505000D01*
%TO.N,PACK_SENSE*%
X24825000Y-31835500D02*
X20384000Y-31835500D01*
X20384000Y-31835500D02*
X17675000Y-29126500D01*
%TO.N,TINY_OK*%
X28016800Y-22953600D02*
X28309500Y-23246300D01*
X33794200Y-14474100D02*
X28016800Y-20251500D01*
X28016800Y-20251500D02*
X28016800Y-22953600D01*
X28390900Y-23327700D02*
X30882500Y-23327700D01*
X32986900Y-11615600D02*
X33794200Y-12422900D01*
X28309500Y-23246300D02*
X28390900Y-23327700D01*
X30882500Y-23327700D02*
X31168100Y-23042100D01*
X33794200Y-12422900D02*
X33794200Y-14474100D01*
X32528100Y-11615600D02*
X32986900Y-11615600D01*
X28309500Y-23246300D02*
X26833700Y-24722100D01*
%TO.N,BOOT_CT*%
X24785600Y-10431100D02*
X23896500Y-11320200D01*
X18248300Y-9126600D02*
X21676100Y-5698800D01*
X17226900Y-8747000D02*
X17606500Y-9126600D01*
X17606500Y-9126600D02*
X18248300Y-9126600D01*
X13648600Y-8747000D02*
X17226900Y-8747000D01*
X24785600Y-10202700D02*
X24785600Y-10431100D01*
X12946900Y-8045300D02*
X13648600Y-8747000D01*
%TO.N,BOOT_DONE*%
X20895100Y-11172900D02*
X18211400Y-13856600D01*
X15863400Y-13856600D02*
X15149900Y-13143100D01*
X15149900Y-13143100D02*
X15149900Y-12950900D01*
X18211400Y-13856600D02*
X15863400Y-13856600D01*
X15149900Y-12950900D02*
X14791900Y-12592900D01*
X20895100Y-10752500D02*
X20895100Y-11172900D01*
%TO.N,BOOT_WINDOW*%
X8268900Y-14321700D02*
X10179500Y-12411100D01*
X11231500Y-10471000D02*
X17004900Y-10471000D01*
X17004900Y-10471000D02*
X17340300Y-10806400D01*
X10179500Y-11523000D02*
X11231500Y-10471000D01*
X10179500Y-12411100D02*
X10179500Y-11523000D01*
X7804100Y-14321700D02*
X8268900Y-14321700D01*
%TO.N,PWR_PDT*%
X15689000Y-6438700D02*
X17923100Y-8672800D01*
X12748200Y-6438700D02*
X15689000Y-6438700D01*
X12609500Y-6577400D02*
X12748200Y-6438700D01*
%TD*%
M02*
