%TF.GenerationSoftware,KiCad,Pcbnew,10.0.6*%
%TF.CreationDate,2026-09-20T10:49:32-06:00*%
%TF.ProjectId,power-board,706f7765-722d-4626-9f61-72642e6b6963,A*%
%TF.SameCoordinates,Original*%
%TF.FileFunction,Paste,Bot*%
%TF.FilePolarity,Positive*%
%FSLAX46Y46*%
G04 Gerber Fmt 4.6, Leading zero omitted, Abs format (unit mm)*
G04 Created by KiCad (PCBNEW 10.0.6) date 2026-09-20 10:49:32*
%MOMM*%
%LPD*%
G01*
G04 APERTURE LIST*
G04 Aperture macros list*
%AMRoundRect*
0 Rectangle with rounded corners*
0 $1 Rounding radius*
0 $2 $3 $4 $5 $6 $7 $8 $9 X,Y pos of 4 corners*
0 Add a 4 corners polygon primitive as box body*
4,1,4,$2,$3,$4,$5,$6,$7,$8,$9,$2,$3,0*
0 Add four circle primitives for the rounded corners*
1,1,$1+$1,$2,$3*
1,1,$1+$1,$4,$5*
1,1,$1+$1,$6,$7*
1,1,$1+$1,$8,$9*
0 Add four rect primitives between the rounded corners*
20,1,$1+$1,$2,$3,$4,$5,0*
20,1,$1+$1,$4,$5,$6,$7,0*
20,1,$1+$1,$6,$7,$8,$9,0*
20,1,$1+$1,$8,$9,$2,$3,0*%
G04 Aperture macros list end*
%ADD10RoundRect,0.225000X0.250000X-0.225000X0.250000X0.225000X-0.250000X0.225000X-0.250000X-0.225000X0*%
%ADD11RoundRect,0.150000X-0.512500X-0.150000X0.512500X-0.150000X0.512500X0.150000X-0.512500X0.150000X0*%
%ADD12RoundRect,0.225000X-0.225000X-0.250000X0.225000X-0.250000X0.225000X0.250000X-0.225000X0.250000X0*%
%ADD13RoundRect,0.200000X-0.200000X-0.275000X0.200000X-0.275000X0.200000X0.275000X-0.200000X0.275000X0*%
%ADD14RoundRect,0.150000X-0.587500X-0.150000X0.587500X-0.150000X0.587500X0.150000X-0.587500X0.150000X0*%
%ADD15RoundRect,0.200000X0.275000X-0.200000X0.275000X0.200000X-0.275000X0.200000X-0.275000X-0.200000X0*%
%ADD16RoundRect,0.100000X-0.637500X-0.100000X0.637500X-0.100000X0.637500X0.100000X-0.637500X0.100000X0*%
%ADD17RoundRect,0.250000X-0.375000X-0.625000X0.375000X-0.625000X0.375000X0.625000X-0.375000X0.625000X0*%
%ADD18RoundRect,0.125000X-0.537500X-0.125000X0.537500X-0.125000X0.537500X0.125000X-0.537500X0.125000X0*%
G04 APERTURE END LIST*
D10*
%TO.C,C26*%
X21000000Y-28775000D03*
X21000000Y-27225000D03*
%TD*%
D11*
%TO.C,U18*%
X8862500Y-20950000D03*
X8862500Y-20000000D03*
X8862500Y-19050000D03*
X11137500Y-19050000D03*
X11137500Y-20950000D03*
%TD*%
D10*
%TO.C,C32*%
X7000000Y-19275000D03*
X7000000Y-17725000D03*
%TD*%
D12*
%TO.C,C38*%
X28225000Y-22000000D03*
X29775000Y-22000000D03*
%TD*%
D10*
%TO.C,C9*%
X2000000Y-10775000D03*
X2000000Y-9225000D03*
%TD*%
D13*
%TO.C,R39*%
X27175000Y-34500000D03*
X28825000Y-34500000D03*
%TD*%
D11*
%TO.C,U19*%
X16862500Y-23950000D03*
X16862500Y-23000000D03*
X16862500Y-22050000D03*
X19137500Y-22050000D03*
X19137500Y-23950000D03*
%TD*%
D10*
%TO.C,C14*%
X18000000Y-13275000D03*
X18000000Y-11725000D03*
%TD*%
%TO.C,C37*%
X30000000Y-17275000D03*
X30000000Y-15725000D03*
%TD*%
D14*
%TO.C,Q4*%
X32062500Y-3950000D03*
X32062500Y-2050000D03*
X33937500Y-3000000D03*
%TD*%
%TO.C,Q6*%
X38062500Y-11950000D03*
X38062500Y-10050000D03*
X39937500Y-11000000D03*
%TD*%
D13*
%TO.C,R17*%
X18175000Y-15000000D03*
X19825000Y-15000000D03*
%TD*%
D12*
%TO.C,C36*%
X26225000Y-20000000D03*
X27775000Y-20000000D03*
%TD*%
D10*
%TO.C,C39*%
X21000000Y-34775000D03*
X21000000Y-33225000D03*
%TD*%
D13*
%TO.C,R20*%
X13675000Y-5000000D03*
X15325000Y-5000000D03*
%TD*%
D11*
%TO.C,U7*%
X11862500Y-25950000D03*
X11862500Y-25000000D03*
X11862500Y-24050000D03*
X14137500Y-24050000D03*
X14137500Y-25950000D03*
%TD*%
D13*
%TO.C,R27*%
X21175000Y-23000000D03*
X22825000Y-23000000D03*
%TD*%
D10*
%TO.C,C17*%
X12000000Y-7275000D03*
X12000000Y-5725000D03*
%TD*%
%TO.C,C30*%
X10000000Y-25775000D03*
X10000000Y-24225000D03*
%TD*%
%TO.C,C28*%
X2500000Y-24275000D03*
X2500000Y-22725000D03*
%TD*%
%TO.C,C12*%
X2000000Y-15775000D03*
X2000000Y-14225000D03*
%TD*%
D11*
%TO.C,U31*%
X22862500Y-34950000D03*
X22862500Y-34000000D03*
X22862500Y-33050000D03*
X25137500Y-33050000D03*
X25137500Y-34950000D03*
%TD*%
D13*
%TO.C,R30*%
X31675000Y-13500000D03*
X33325000Y-13500000D03*
%TD*%
D11*
%TO.C,U12*%
X3862500Y-15950000D03*
X3862500Y-15000000D03*
X3862500Y-14050000D03*
X6137500Y-14050000D03*
X6137500Y-15000000D03*
X6137500Y-15950000D03*
%TD*%
%TO.C,U11*%
X3862500Y-10950000D03*
X3862500Y-10000000D03*
X3862500Y-9050000D03*
X6137500Y-9050000D03*
X6137500Y-10950000D03*
%TD*%
%TO.C,U5*%
X4362500Y-24450000D03*
X4362500Y-23500000D03*
X4362500Y-22550000D03*
X6637500Y-22550000D03*
X6637500Y-24450000D03*
%TD*%
D12*
%TO.C,C27*%
X31225000Y-34000000D03*
X32775000Y-34000000D03*
%TD*%
D15*
%TO.C,R38*%
X27000000Y-32825000D03*
X27000000Y-31175000D03*
%TD*%
D11*
%TO.C,U22*%
X25862500Y-12450000D03*
X25862500Y-11500000D03*
X25862500Y-10550000D03*
X28137500Y-10550000D03*
X28137500Y-11500000D03*
X28137500Y-12450000D03*
%TD*%
D13*
%TO.C,R31*%
X32175000Y-19500000D03*
X33825000Y-19500000D03*
%TD*%
D10*
%TO.C,C29*%
X4000000Y-27775000D03*
X4000000Y-26225000D03*
%TD*%
D11*
%TO.C,U28*%
X22862500Y-28950000D03*
X22862500Y-28000000D03*
X22862500Y-27050000D03*
X25137500Y-27050000D03*
X25137500Y-28000000D03*
X25137500Y-28950000D03*
%TD*%
D12*
%TO.C,C31*%
X14225000Y-7000000D03*
X15775000Y-7000000D03*
%TD*%
D15*
%TO.C,R33*%
X32000000Y-24825000D03*
X32000000Y-23175000D03*
%TD*%
D10*
%TO.C,C22*%
X30000000Y-12275000D03*
X30000000Y-10725000D03*
%TD*%
D15*
%TO.C,R18*%
X3000000Y-19325000D03*
X3000000Y-17675000D03*
%TD*%
D13*
%TO.C,R4*%
X16675000Y-26000000D03*
X18325000Y-26000000D03*
%TD*%
D11*
%TO.C,U17*%
X13862500Y-15950000D03*
X13862500Y-15000000D03*
X13862500Y-14050000D03*
X16137500Y-14050000D03*
X16137500Y-15950000D03*
%TD*%
D16*
%TO.C,U30*%
X29137500Y-31950000D03*
X29137500Y-31300000D03*
X29137500Y-30650000D03*
X29137500Y-30000000D03*
X29137500Y-29350000D03*
X29137500Y-28700000D03*
X29137500Y-28050000D03*
X34862500Y-28050000D03*
X34862500Y-28700000D03*
X34862500Y-29350000D03*
X34862500Y-30000000D03*
X34862500Y-30650000D03*
X34862500Y-31300000D03*
X34862500Y-31950000D03*
%TD*%
D12*
%TO.C,C35*%
X17225000Y-20000000D03*
X18775000Y-20000000D03*
%TD*%
%TO.C,C23*%
X32225000Y-7000000D03*
X33775000Y-7000000D03*
%TD*%
D13*
%TO.C,R32*%
X31675000Y-21500000D03*
X33325000Y-21500000D03*
%TD*%
D10*
%TO.C,C18*%
X21000000Y-20775000D03*
X21000000Y-19225000D03*
%TD*%
D13*
%TO.C,R36*%
X17675000Y-28000000D03*
X19325000Y-28000000D03*
%TD*%
%TO.C,R24*%
X22675000Y-21000000D03*
X24325000Y-21000000D03*
%TD*%
D15*
%TO.C,R28*%
X29000000Y-8825000D03*
X29000000Y-7175000D03*
%TD*%
D17*
%TO.C,F2*%
X7100000Y-30500000D03*
X9900000Y-30500000D03*
%TD*%
D15*
%TO.C,R22*%
X22000000Y-11825000D03*
X22000000Y-10175000D03*
%TD*%
%TO.C,R29*%
X26000000Y-23325000D03*
X26000000Y-21675000D03*
%TD*%
D11*
%TO.C,U16*%
X8862500Y-15950000D03*
X8862500Y-15000000D03*
X8862500Y-14050000D03*
X11137500Y-14050000D03*
X11137500Y-15950000D03*
%TD*%
D13*
%TO.C,R40*%
X19675000Y-31000000D03*
X21325000Y-31000000D03*
%TD*%
D15*
%TO.C,R37*%
X27000000Y-29325000D03*
X27000000Y-27675000D03*
%TD*%
%TO.C,R7*%
X18000000Y-18325000D03*
X18000000Y-16675000D03*
%TD*%
D11*
%TO.C,U23*%
X31862500Y-10950000D03*
X31862500Y-10000000D03*
X31862500Y-9050000D03*
X34137500Y-9050000D03*
X34137500Y-10000000D03*
X34137500Y-10950000D03*
%TD*%
D10*
%TO.C,C34*%
X13000000Y-21275000D03*
X13000000Y-19725000D03*
%TD*%
D12*
%TO.C,C13*%
X8225000Y-2000000D03*
X9775000Y-2000000D03*
%TD*%
D14*
%TO.C,Q5*%
X37062500Y-17950000D03*
X37062500Y-16050000D03*
X38937500Y-17000000D03*
%TD*%
D15*
%TO.C,R23*%
X23000000Y-19325000D03*
X23000000Y-17675000D03*
%TD*%
D11*
%TO.C,U6*%
X5862500Y-27950000D03*
X5862500Y-27000000D03*
X5862500Y-26050000D03*
X8137500Y-26050000D03*
X8137500Y-27950000D03*
%TD*%
D12*
%TO.C,C16*%
X18225000Y-10000000D03*
X19775000Y-10000000D03*
%TD*%
D13*
%TO.C,R34*%
X24175000Y-25000000D03*
X25825000Y-25000000D03*
%TD*%
%TO.C,R35*%
X23175000Y-31000000D03*
X24825000Y-31000000D03*
%TD*%
D11*
%TO.C,U24*%
X25862500Y-17950000D03*
X25862500Y-17000000D03*
X25862500Y-16050000D03*
X28137500Y-16050000D03*
X28137500Y-17950000D03*
%TD*%
D12*
%TO.C,C11*%
X19725000Y-17500000D03*
X21275000Y-17500000D03*
%TD*%
D11*
%TO.C,U15*%
X13862500Y-10950000D03*
X13862500Y-10000000D03*
X13862500Y-9050000D03*
X16137500Y-9050000D03*
X16137500Y-10950000D03*
%TD*%
D12*
%TO.C,C10*%
X4225000Y-7000000D03*
X5775000Y-7000000D03*
%TD*%
D11*
%TO.C,U26*%
X31862500Y-17450000D03*
X31862500Y-16500000D03*
X31862500Y-15550000D03*
X34137500Y-15550000D03*
X34137500Y-17450000D03*
%TD*%
%TO.C,U29*%
X27862500Y-25950000D03*
X27862500Y-25000000D03*
X27862500Y-24050000D03*
X30137500Y-24050000D03*
X30137500Y-25950000D03*
%TD*%
D15*
%TO.C,R16*%
X5000000Y-19325000D03*
X5000000Y-17675000D03*
%TD*%
D12*
%TO.C,C33*%
X14225000Y-18000000D03*
X15775000Y-18000000D03*
%TD*%
D11*
%TO.C,U14*%
X8862500Y-10950000D03*
X8862500Y-10000000D03*
X8862500Y-9050000D03*
X11137500Y-9050000D03*
X11137500Y-10000000D03*
X11137500Y-10950000D03*
%TD*%
D10*
%TO.C,C15*%
X20000000Y-13275000D03*
X20000000Y-11725000D03*
%TD*%
D13*
%TO.C,R19*%
X4175000Y-5000000D03*
X5825000Y-5000000D03*
%TD*%
D18*
%TO.C,U13*%
X7862500Y-5975000D03*
X7862500Y-5325000D03*
X7862500Y-4675000D03*
X7862500Y-4025000D03*
X10137500Y-4025000D03*
X10137500Y-4675000D03*
X10137500Y-5325000D03*
X10137500Y-5975000D03*
%TD*%
M02*
