M48
; DRILL file KiCad 10.0.6 date 2026-09-20T10:49:32
; FORMAT={-:-/ absolute / metric / decimal}
; #@! TF.CreationDate,2026-09-20T10:49:32-06:00
; #@! TF.GenerationSoftware,Kicad,Pcbnew,10.0.6
; #@! TF.FileFunction,Plated,1,4,PTH
FMAT,2
METRIC
; #@! TA.AperFunction,Plated,PTH,ViaDrill
T1C0.200
; #@! TA.AperFunction,Plated,PTH,ComponentDrill
T2C0.600
%
G90
G05
T1
X2.316Y-13.131
X2.839Y-10.578
X2.905Y-11.508
X2.993Y-25.71
X3.8Y-17.25
X3.808Y-18.404
X4.013Y-21.944
X4.294Y-16.743
X4.88Y-10.888
X5.241Y-12.922
X5.399Y-20.159
X5.473Y-16.67
X5.742Y-13.392
X5.821Y-4.155
X5.906Y-8.279
X5.976Y-10.187
X5.976Y-11.75
X5.976Y-12.329
X6.001Y-20.19
X6.505Y-21.383
X6.606Y-20.106
X6.64Y-4.195
X6.643Y-1.167
X6.678Y-3.282
X7.139Y-20.383
X7.23Y-9.897
X7.308Y-28.958
X7.51Y-16.815
X7.519Y-8.161
X7.643Y-21.938
X7.659Y-24.621
X7.804Y-14.322
X7.845Y-10.145
X7.865Y-22.959
X7.917Y-18.143
X8.057Y-11.523
X8.142Y-13.314
X8.172Y-3.173
X8.5Y-8.163
X8.651Y-18.007
X8.802Y-7.635
X8.951Y-17.466
X8.985Y-3.914
X9.1Y-23.714
X9.103Y-27.465
X9.508Y-21.927
X9.726Y-12.107
X9.738Y-7.605
X9.783Y-26.778
X9.938Y-15.919
X10.058Y-10.816
X10.086Y-20.45
X10.167Y-14.634
X10.362Y-16.796
X10.689Y-15.127
X10.838Y-23.991
X10.943Y-19.906
X11.002Y-11.905
X11.604Y-15.285
X11.658Y-17.271
X11.904Y-27.673
X12.495Y-9.689
X12.601Y-22.818
X12.609Y-6.577
X12.651Y-11.426
X12.745Y-4.025
X12.835Y-13.886
X12.875Y-4.675
X12.894Y-34.75
X12.947Y-8.045
X12.985Y-18.298
X13.222Y-6.892
X13.445Y-17.455
X13.721Y-7.817
X13.758Y-12.132
X14.018Y-25.176
X14.208Y-8.293
X14.5Y-35.533
X14.521Y-13.142
X14.55Y-19.55
X14.55Y-20.45
X14.574Y-26.626
X14.792Y-12.593
X14.911Y-23.415
X14.926Y-22.787
X15.05Y-15.591
X15.074Y-10.931
X15.178Y-24.04
X15.45Y-19.55
X15.45Y-20.45
X15.65Y-7.15
X15.715Y-26.132
X15.817Y-15.109
X16.087Y-13.371
X16.462Y-18.748
X16.494Y-31.584
X16.765Y-18.114
X16.905Y-11.678
X16.922Y-21.252
X17.284Y-15.444
X17.34Y-10.806
X17.422Y-19.162
X17.517Y-17.566
X17.6Y-35.547
X17.675Y-29.127
X17.686Y-21.431
X17.923Y-8.673
X18.399Y-32.814
X18.5Y-35.539
X18.549Y-29.256
X18.654Y-15.846
X18.917Y-16.94
X18.931Y-23.229
X19.054Y-12.273
X19.091Y-33.287
X19.101Y-16.375
X19.102Y-26.301
X19.5Y-35.542
X19.675Y-31.838
X19.729Y-16.186
X20.022Y-26.501
X20.078Y-19.47
X20.726Y-5.897
X20.798Y-24.473
X20.844Y-15.5
X20.895Y-10.752
X20.911Y-9.165
X21.0Y-32.375
X21.131Y-22.011
X21.15Y-16.0
X21.247Y-35.593
X21.468Y-14.685
X21.486Y-14.095
X21.676Y-5.699
X21.771Y-29.764
X21.845Y-26.37
X22.19Y-30.173
X22.25Y-8.2
X23.169Y-24.597
X23.25Y-8.2
X23.342Y-26.384
X23.379Y-6.765
X23.45Y-9.6
X23.605Y-23.716
X23.654Y-18.671
X23.824Y-22.255
X23.837Y-29.505
X23.85Y-16.0
X23.896Y-11.32
X23.909Y-32.535
X24.146Y-17.425
X24.172Y-26.596
X24.191Y-19.148
X24.547Y-35.614
X24.786Y-10.203
X24.825Y-31.835
X24.866Y-11.666
X25.155Y-23.325
X25.575Y-24.146
X25.791Y-9.877
X25.801Y-32.386
X26.037Y-8.935
X26.088Y-26.595
X26.195Y-13.161
X26.834Y-24.722
X26.842Y-26.172
X27.071Y-35.937
X27.248Y-13.01
X27.57Y-19.148
X27.591Y-33.497
X27.741Y-26.893
X27.846Y-29.3
X27.902Y-31.418
X28.192Y-6.689
X28.475Y-26.83
X28.534Y-22.83
X28.581Y-13.977
X28.837Y-9.826
X29.039Y-21.575
X29.046Y-27.243
X29.053Y-12.915
X29.222Y-20.434
X29.581Y-34.255
X30.182Y-20.507
X30.321Y-27.058
X30.329Y-6.739
X30.432Y-28.312
X30.625Y-29.588
X30.642Y-2.666
X30.697Y-9.364
X30.746Y-30.959
X30.794Y-25.031
X30.955Y-28.014
X31.168Y-23.042
X31.203Y-6.926
X32.098Y-28.307
X32.343Y-1.05
X32.459Y-13.434
X32.528Y-11.616
X32.973Y-30.959
X33.325Y-12.637
X33.547Y-28.524
X33.686Y-31.302
X34.0Y-22.607
X34.084Y-16.224
X34.585Y-7.063
X34.586Y-4.843
X34.789Y-2.0
X35.194Y-11.022
X35.892Y-8.88
X35.961Y-31.852
X35.975Y-29.481
X36.65Y-26.85
X36.75Y-32.0
X37.25Y-31.6
X38.062Y-12.609
X39.796Y-11.681
X40.189Y-8.514
T2
X18.18Y-3.05G85X18.18Y-2.45
G05
X18.18Y-7.48G85X18.18Y-6.38
G05
X26.82Y-3.05G85X26.82Y-2.45
G05
X26.82Y-7.48G85X26.82Y-6.38
G05
M30
