%TF.GenerationSoftware,KiCad,Pcbnew,10.0.6*%
%TF.CreationDate,2026-09-20T10:49:32-06:00*%
%TF.ProjectId,power-board,706f7765-722d-4626-9f61-72642e6b6963,A*%
%TF.SameCoordinates,Original*%
%TF.FileFunction,Legend,Bot*%
%TF.FilePolarity,Positive*%
%FSLAX46Y46*%
G04 Gerber Fmt 4.6, Leading zero omitted, Abs format (unit mm)*
G04 Created by KiCad (PCBNEW 10.0.6) date 2026-09-20 10:49:32*
%MOMM*%
%LPD*%
G01*
G04 APERTURE LIST*
G04 Aperture macros list*
%AMRoundRect*
0 Rectangle with rounded corners*
0 $1 Rounding radius*
0 $2 $3 $4 $5 $6 $7 $8 $9 X,Y pos of 4 corners*
0 Add a 4 corners polygon primitive as box body*
4,1,4,$2,$3,$4,$5,$6,$7,$8,$9,$2,$3,0*
0 Add four circle primitives for the rounded corners*
1,1,$1+$1,$2,$3*
1,1,$1+$1,$4,$5*
1,1,$1+$1,$6,$7*
1,1,$1+$1,$8,$9*
0 Add four rect primitives between the rounded corners*
20,1,$1+$1,$2,$3,$4,$5,0*
20,1,$1+$1,$4,$5,$6,$7,0*
20,1,$1+$1,$6,$7,$8,$9,0*
20,1,$1+$1,$8,$9,$2,$3,0*%
G04 Aperture macros list end*
%ADD10C,0.120000*%
%ADD11C,0.710000*%
%ADD12O,1.060000X2.160000*%
%ADD13O,1.060000X1.660000*%
%ADD14RoundRect,0.255000X0.250000X-0.225000X0.250000X0.225000X-0.250000X0.225000X-0.250000X-0.225000X0*%
%ADD15RoundRect,0.180000X-0.512500X-0.150000X0.512500X-0.150000X0.512500X0.150000X-0.512500X0.150000X0*%
%ADD16RoundRect,0.255000X-0.225000X-0.250000X0.225000X-0.250000X0.225000X0.250000X-0.225000X0.250000X0*%
%ADD17RoundRect,0.230000X-0.200000X-0.275000X0.200000X-0.275000X0.200000X0.275000X-0.200000X0.275000X0*%
%ADD18RoundRect,0.180000X-0.587500X-0.150000X0.587500X-0.150000X0.587500X0.150000X-0.587500X0.150000X0*%
%ADD19RoundRect,0.230000X0.275000X-0.200000X0.275000X0.200000X-0.275000X0.200000X-0.275000X-0.200000X0*%
%ADD20C,1.060000*%
%ADD21RoundRect,0.030000X-0.500000X-0.750000X0.500000X-0.750000X0.500000X0.750000X-0.500000X0.750000X0*%
%ADD22RoundRect,0.130000X-0.637500X-0.100000X0.637500X-0.100000X0.637500X0.100000X-0.637500X0.100000X0*%
%ADD23RoundRect,0.280000X-0.375000X-0.625000X0.375000X-0.625000X0.375000X0.625000X-0.375000X0.625000X0*%
%ADD24RoundRect,0.155000X-0.537500X-0.125000X0.537500X-0.125000X0.537500X0.125000X-0.537500X0.125000X0*%
G04 APERTURE END LIST*
%TO.C,C26*%
D10*
X20490000Y-28140580D02*
X20490000Y-27859420D01*
X21510000Y-28140580D02*
X21510000Y-27859420D01*
%TO.C,U18*%
X9090000Y-18440000D02*
X9090000Y-18490000D01*
X9090000Y-21510000D02*
X9090000Y-21560000D01*
X9090000Y-21560000D02*
X10910000Y-21560000D01*
X10910000Y-18440000D02*
X9090000Y-18440000D01*
X10910000Y-18490000D02*
X10910000Y-18440000D01*
X10910000Y-20390000D02*
X10910000Y-19610000D01*
X10910000Y-21560000D02*
X10910000Y-21510000D01*
X8550000Y-21510000D02*
X8310000Y-21840000D01*
X8790000Y-21840000D01*
X8550000Y-21510000D01*
G36*
X8790000Y-21840000D02*
G01*
X8310000Y-21840000D01*
X8550000Y-21510000D01*
X8790000Y-21840000D01*
G37*
%TO.C,C32*%
X6490000Y-18640580D02*
X6490000Y-18359420D01*
X7510000Y-18640580D02*
X7510000Y-18359420D01*
%TO.C,C38*%
X28859420Y-21490000D02*
X29140580Y-21490000D01*
X28859420Y-22510000D02*
X29140580Y-22510000D01*
%TO.C,C9*%
X1490000Y-10140580D02*
X1490000Y-9859420D01*
X2510000Y-10140580D02*
X2510000Y-9859420D01*
%TO.C,R39*%
X27762742Y-33977500D02*
X28237258Y-33977500D01*
X27762742Y-35022500D02*
X28237258Y-35022500D01*
%TO.C,U19*%
X17090000Y-21440000D02*
X17090000Y-21490000D01*
X17090000Y-24510000D02*
X17090000Y-24560000D01*
X17090000Y-24560000D02*
X18910000Y-24560000D01*
X18910000Y-21440000D02*
X17090000Y-21440000D01*
X18910000Y-21490000D02*
X18910000Y-21440000D01*
X18910000Y-23390000D02*
X18910000Y-22610000D01*
X18910000Y-24560000D02*
X18910000Y-24510000D01*
X16550000Y-24510000D02*
X16310000Y-24840000D01*
X16790000Y-24840000D01*
X16550000Y-24510000D01*
G36*
X16790000Y-24840000D02*
G01*
X16310000Y-24840000D01*
X16550000Y-24510000D01*
X16790000Y-24840000D01*
G37*
%TO.C,C14*%
X17490000Y-12640580D02*
X17490000Y-12359420D01*
X18510000Y-12640580D02*
X18510000Y-12359420D01*
%TO.C,C37*%
X29490000Y-16640580D02*
X29490000Y-16359420D01*
X30510000Y-16640580D02*
X30510000Y-16359420D01*
%TO.C,Q4*%
X32240000Y-1440000D02*
X32240000Y-1490000D01*
X32240000Y-2610000D02*
X32240000Y-3390000D01*
X32240000Y-4510000D02*
X32240000Y-4560000D01*
X32240000Y-4560000D02*
X33760000Y-4560000D01*
X33760000Y-1440000D02*
X32240000Y-1440000D01*
X33760000Y-2440000D02*
X33760000Y-1440000D01*
X33760000Y-4560000D02*
X33760000Y-3560000D01*
X31700000Y-3380000D02*
X31940000Y-3050000D01*
X31460000Y-3050000D01*
X31700000Y-3380000D01*
G36*
X31700000Y-3380000D02*
G01*
X31460000Y-3050000D01*
X31940000Y-3050000D01*
X31700000Y-3380000D01*
G37*
%TO.C,Q6*%
X38240000Y-9440000D02*
X38240000Y-9490000D01*
X38240000Y-10610000D02*
X38240000Y-11390000D01*
X38240000Y-12510000D02*
X38240000Y-12560000D01*
X38240000Y-12560000D02*
X39760000Y-12560000D01*
X39760000Y-9440000D02*
X38240000Y-9440000D01*
X39760000Y-10440000D02*
X39760000Y-9440000D01*
X39760000Y-12560000D02*
X39760000Y-11560000D01*
X37700000Y-11380000D02*
X37940000Y-11050000D01*
X37460000Y-11050000D01*
X37700000Y-11380000D01*
G36*
X37700000Y-11380000D02*
G01*
X37460000Y-11050000D01*
X37940000Y-11050000D01*
X37700000Y-11380000D01*
G37*
%TO.C,R17*%
X18762742Y-14477500D02*
X19237258Y-14477500D01*
X18762742Y-15522500D02*
X19237258Y-15522500D01*
%TO.C,C36*%
X26859420Y-19490000D02*
X27140580Y-19490000D01*
X26859420Y-20510000D02*
X27140580Y-20510000D01*
%TO.C,C39*%
X20490000Y-34140580D02*
X20490000Y-33859420D01*
X21510000Y-34140580D02*
X21510000Y-33859420D01*
%TO.C,R20*%
X14262742Y-4477500D02*
X14737258Y-4477500D01*
X14262742Y-5522500D02*
X14737258Y-5522500D01*
%TO.C,U7*%
X12090000Y-23440000D02*
X12090000Y-23490000D01*
X12090000Y-26510000D02*
X12090000Y-26560000D01*
X12090000Y-26560000D02*
X13910000Y-26560000D01*
X13910000Y-23440000D02*
X12090000Y-23440000D01*
X13910000Y-23490000D02*
X13910000Y-23440000D01*
X13910000Y-25390000D02*
X13910000Y-24610000D01*
X13910000Y-26560000D02*
X13910000Y-26510000D01*
X11550000Y-26510000D02*
X11310000Y-26840000D01*
X11790000Y-26840000D01*
X11550000Y-26510000D01*
G36*
X11790000Y-26840000D02*
G01*
X11310000Y-26840000D01*
X11550000Y-26510000D01*
X11790000Y-26840000D01*
G37*
%TO.C,R27*%
X21762742Y-22477500D02*
X22237258Y-22477500D01*
X21762742Y-23522500D02*
X22237258Y-23522500D01*
%TO.C,C17*%
X11490000Y-6640580D02*
X11490000Y-6359420D01*
X12510000Y-6640580D02*
X12510000Y-6359420D01*
%TO.C,C30*%
X9490000Y-25140580D02*
X9490000Y-24859420D01*
X10510000Y-25140580D02*
X10510000Y-24859420D01*
%TO.C,C28*%
X1990000Y-23640580D02*
X1990000Y-23359420D01*
X3010000Y-23640580D02*
X3010000Y-23359420D01*
%TO.C,C12*%
X1490000Y-15140580D02*
X1490000Y-14859420D01*
X2510000Y-15140580D02*
X2510000Y-14859420D01*
%TO.C,U31*%
X23090000Y-32440000D02*
X23090000Y-32490000D01*
X23090000Y-35510000D02*
X23090000Y-35560000D01*
X23090000Y-35560000D02*
X24910000Y-35560000D01*
X24910000Y-32440000D02*
X23090000Y-32440000D01*
X24910000Y-32490000D02*
X24910000Y-32440000D01*
X24910000Y-34390000D02*
X24910000Y-33610000D01*
X24910000Y-35560000D02*
X24910000Y-35510000D01*
X22550000Y-35510000D02*
X22310000Y-35840000D01*
X22790000Y-35840000D01*
X22550000Y-35510000D01*
G36*
X22790000Y-35840000D02*
G01*
X22310000Y-35840000D01*
X22550000Y-35510000D01*
X22790000Y-35840000D01*
G37*
%TO.C,R30*%
X32262742Y-12977500D02*
X32737258Y-12977500D01*
X32262742Y-14022500D02*
X32737258Y-14022500D01*
%TO.C,U12*%
X4090000Y-13440000D02*
X4090000Y-13490000D01*
X4090000Y-16510000D02*
X4090000Y-16560000D01*
X4090000Y-16560000D02*
X5910000Y-16560000D01*
X5910000Y-13440000D02*
X4090000Y-13440000D01*
X5910000Y-13490000D02*
X5910000Y-13440000D01*
X5910000Y-16560000D02*
X5910000Y-16510000D01*
X3550000Y-16510000D02*
X3310000Y-16840000D01*
X3790000Y-16840000D01*
X3550000Y-16510000D01*
G36*
X3790000Y-16840000D02*
G01*
X3310000Y-16840000D01*
X3550000Y-16510000D01*
X3790000Y-16840000D01*
G37*
%TO.C,U11*%
X4090000Y-8440000D02*
X4090000Y-8490000D01*
X4090000Y-11510000D02*
X4090000Y-11560000D01*
X4090000Y-11560000D02*
X5910000Y-11560000D01*
X5910000Y-8440000D02*
X4090000Y-8440000D01*
X5910000Y-8490000D02*
X5910000Y-8440000D01*
X5910000Y-10390000D02*
X5910000Y-9610000D01*
X5910000Y-11560000D02*
X5910000Y-11510000D01*
X3550000Y-11510000D02*
X3310000Y-11840000D01*
X3790000Y-11840000D01*
X3550000Y-11510000D01*
G36*
X3790000Y-11840000D02*
G01*
X3310000Y-11840000D01*
X3550000Y-11510000D01*
X3790000Y-11840000D01*
G37*
%TO.C,U5*%
X4590000Y-21940000D02*
X4590000Y-21990000D01*
X4590000Y-25010000D02*
X4590000Y-25060000D01*
X4590000Y-25060000D02*
X6410000Y-25060000D01*
X6410000Y-21940000D02*
X4590000Y-21940000D01*
X6410000Y-21990000D02*
X6410000Y-21940000D01*
X6410000Y-23890000D02*
X6410000Y-23110000D01*
X6410000Y-25060000D02*
X6410000Y-25010000D01*
X4050000Y-25010000D02*
X3810000Y-25340000D01*
X4290000Y-25340000D01*
X4050000Y-25010000D01*
G36*
X4290000Y-25340000D02*
G01*
X3810000Y-25340000D01*
X4050000Y-25010000D01*
X4290000Y-25340000D01*
G37*
%TO.C,C27*%
X31859420Y-33490000D02*
X32140580Y-33490000D01*
X31859420Y-34510000D02*
X32140580Y-34510000D01*
%TO.C,R38*%
X26477500Y-32237258D02*
X26477500Y-31762742D01*
X27522500Y-32237258D02*
X27522500Y-31762742D01*
%TO.C,TP5*%
X13200000Y-3000000D02*
G75*
G02*
X11800000Y-3000000I-700000J0D01*
G01*
X11800000Y-3000000D02*
G75*
G02*
X13200000Y-3000000I700000J0D01*
G01*
%TO.C,U22*%
X26090000Y-9940000D02*
X26090000Y-9990000D01*
X26090000Y-13010000D02*
X26090000Y-13060000D01*
X26090000Y-13060000D02*
X27910000Y-13060000D01*
X27910000Y-9940000D02*
X26090000Y-9940000D01*
X27910000Y-9990000D02*
X27910000Y-9940000D01*
X27910000Y-13060000D02*
X27910000Y-13010000D01*
X25550000Y-13010000D02*
X25310000Y-13340000D01*
X25790000Y-13340000D01*
X25550000Y-13010000D01*
G36*
X25790000Y-13340000D02*
G01*
X25310000Y-13340000D01*
X25550000Y-13010000D01*
X25790000Y-13340000D01*
G37*
%TO.C,R31*%
X32762742Y-18977500D02*
X33237258Y-18977500D01*
X32762742Y-20022500D02*
X33237258Y-20022500D01*
%TO.C,JP1*%
X21600000Y-13000000D02*
X21600000Y-15000000D01*
X21600000Y-15000000D02*
X24400000Y-15000000D01*
X24400000Y-13000000D02*
X21600000Y-13000000D01*
X24400000Y-15000000D02*
X24400000Y-13000000D01*
%TO.C,C29*%
X3490000Y-27140580D02*
X3490000Y-26859420D01*
X4510000Y-27140580D02*
X4510000Y-26859420D01*
%TO.C,U28*%
X23090000Y-26440000D02*
X23090000Y-26490000D01*
X23090000Y-29510000D02*
X23090000Y-29560000D01*
X23090000Y-29560000D02*
X24910000Y-29560000D01*
X24910000Y-26440000D02*
X23090000Y-26440000D01*
X24910000Y-26490000D02*
X24910000Y-26440000D01*
X24910000Y-29560000D02*
X24910000Y-29510000D01*
X22550000Y-29510000D02*
X22310000Y-29840000D01*
X22790000Y-29840000D01*
X22550000Y-29510000D01*
G36*
X22790000Y-29840000D02*
G01*
X22310000Y-29840000D01*
X22550000Y-29510000D01*
X22790000Y-29840000D01*
G37*
%TO.C,C31*%
X14859420Y-6490000D02*
X15140580Y-6490000D01*
X14859420Y-7510000D02*
X15140580Y-7510000D01*
%TO.C,TP7*%
X34700000Y-23500000D02*
G75*
G02*
X33300000Y-23500000I-700000J0D01*
G01*
X33300000Y-23500000D02*
G75*
G02*
X34700000Y-23500000I700000J0D01*
G01*
%TO.C,R33*%
X31477500Y-24237258D02*
X31477500Y-23762742D01*
X32522500Y-24237258D02*
X32522500Y-23762742D01*
%TO.C,C22*%
X29490000Y-11640580D02*
X29490000Y-11359420D01*
X30510000Y-11640580D02*
X30510000Y-11359420D01*
%TO.C,R18*%
X2477500Y-18737258D02*
X2477500Y-18262742D01*
X3522500Y-18737258D02*
X3522500Y-18262742D01*
%TO.C,TP4*%
X36200000Y-13500000D02*
G75*
G02*
X34800000Y-13500000I-700000J0D01*
G01*
X34800000Y-13500000D02*
G75*
G02*
X36200000Y-13500000I700000J0D01*
G01*
%TO.C,R4*%
X17262742Y-25477500D02*
X17737258Y-25477500D01*
X17262742Y-26522500D02*
X17737258Y-26522500D01*
%TO.C,TP9*%
X34700000Y-26000000D02*
G75*
G02*
X33300000Y-26000000I-700000J0D01*
G01*
X33300000Y-26000000D02*
G75*
G02*
X34700000Y-26000000I700000J0D01*
G01*
%TO.C,U17*%
X14090000Y-13440000D02*
X14090000Y-13490000D01*
X14090000Y-16510000D02*
X14090000Y-16560000D01*
X14090000Y-16560000D02*
X15910000Y-16560000D01*
X15910000Y-13440000D02*
X14090000Y-13440000D01*
X15910000Y-13490000D02*
X15910000Y-13440000D01*
X15910000Y-15390000D02*
X15910000Y-14610000D01*
X15910000Y-16560000D02*
X15910000Y-16510000D01*
X13550000Y-16510000D02*
X13310000Y-16840000D01*
X13790000Y-16840000D01*
X13550000Y-16510000D01*
G36*
X13790000Y-16840000D02*
G01*
X13310000Y-16840000D01*
X13550000Y-16510000D01*
X13790000Y-16840000D01*
G37*
%TO.C,U30*%
X29690000Y-27390000D02*
X29690000Y-27590000D01*
X29690000Y-32410000D02*
X29690000Y-32610000D01*
X29690000Y-32610000D02*
X34310000Y-32610000D01*
X34310000Y-27390000D02*
X29690000Y-27390000D01*
X34310000Y-27590000D02*
X34310000Y-27390000D01*
X34310000Y-32610000D02*
X34310000Y-32410000D01*
X29050000Y-32410000D02*
X28710000Y-32880000D01*
X29390000Y-32880000D01*
X29050000Y-32410000D01*
G36*
X29390000Y-32880000D02*
G01*
X28710000Y-32880000D01*
X29050000Y-32410000D01*
X29390000Y-32880000D01*
G37*
%TO.C,C35*%
X17859420Y-19490000D02*
X18140580Y-19490000D01*
X17859420Y-20510000D02*
X18140580Y-20510000D01*
%TO.C,C23*%
X32859420Y-6490000D02*
X33140580Y-6490000D01*
X32859420Y-7510000D02*
X33140580Y-7510000D01*
%TO.C,R32*%
X32262742Y-20977500D02*
X32737258Y-20977500D01*
X32262742Y-22022500D02*
X32737258Y-22022500D01*
%TO.C,C18*%
X20490000Y-20140580D02*
X20490000Y-19859420D01*
X21510000Y-20140580D02*
X21510000Y-19859420D01*
%TO.C,R36*%
X18262742Y-27477500D02*
X18737258Y-27477500D01*
X18262742Y-28522500D02*
X18737258Y-28522500D01*
%TO.C,R24*%
X23262742Y-20477500D02*
X23737258Y-20477500D01*
X23262742Y-21522500D02*
X23737258Y-21522500D01*
%TO.C,R28*%
X28477500Y-8237258D02*
X28477500Y-7762742D01*
X29522500Y-8237258D02*
X29522500Y-7762742D01*
%TO.C,F2*%
X7897936Y-29590000D02*
X9102064Y-29590000D01*
X7897936Y-31410000D02*
X9102064Y-31410000D01*
%TO.C,R22*%
X21477500Y-11237258D02*
X21477500Y-10762742D01*
X22522500Y-11237258D02*
X22522500Y-10762742D01*
%TO.C,R29*%
X25477500Y-22737258D02*
X25477500Y-22262742D01*
X26522500Y-22737258D02*
X26522500Y-22262742D01*
%TO.C,U16*%
X9090000Y-13440000D02*
X9090000Y-13490000D01*
X9090000Y-16510000D02*
X9090000Y-16560000D01*
X9090000Y-16560000D02*
X10910000Y-16560000D01*
X10910000Y-13440000D02*
X9090000Y-13440000D01*
X10910000Y-13490000D02*
X10910000Y-13440000D01*
X10910000Y-15390000D02*
X10910000Y-14610000D01*
X10910000Y-16560000D02*
X10910000Y-16510000D01*
X8550000Y-16510000D02*
X8310000Y-16840000D01*
X8790000Y-16840000D01*
X8550000Y-16510000D01*
G36*
X8790000Y-16840000D02*
G01*
X8310000Y-16840000D01*
X8550000Y-16510000D01*
X8790000Y-16840000D01*
G37*
%TO.C,TP1*%
X22200000Y-25000000D02*
G75*
G02*
X20800000Y-25000000I-700000J0D01*
G01*
X20800000Y-25000000D02*
G75*
G02*
X22200000Y-25000000I700000J0D01*
G01*
%TO.C,R40*%
X20262742Y-30477500D02*
X20737258Y-30477500D01*
X20262742Y-31522500D02*
X20737258Y-31522500D01*
%TO.C,R37*%
X26477500Y-28737258D02*
X26477500Y-28262742D01*
X27522500Y-28737258D02*
X27522500Y-28262742D01*
%TO.C,R7*%
X17477500Y-17737258D02*
X17477500Y-17262742D01*
X18522500Y-17737258D02*
X18522500Y-17262742D01*
%TO.C,U23*%
X32090000Y-8440000D02*
X32090000Y-8490000D01*
X32090000Y-11510000D02*
X32090000Y-11560000D01*
X32090000Y-11560000D02*
X33910000Y-11560000D01*
X33910000Y-8440000D02*
X32090000Y-8440000D01*
X33910000Y-8490000D02*
X33910000Y-8440000D01*
X33910000Y-11560000D02*
X33910000Y-11510000D01*
X31550000Y-11510000D02*
X31310000Y-11840000D01*
X31790000Y-11840000D01*
X31550000Y-11510000D01*
G36*
X31790000Y-11840000D02*
G01*
X31310000Y-11840000D01*
X31550000Y-11510000D01*
X31790000Y-11840000D01*
G37*
%TO.C,C34*%
X12490000Y-20640580D02*
X12490000Y-20359420D01*
X13510000Y-20640580D02*
X13510000Y-20359420D01*
%TO.C,C13*%
X8859420Y-1490000D02*
X9140580Y-1490000D01*
X8859420Y-2510000D02*
X9140580Y-2510000D01*
%TO.C,Q5*%
X37240000Y-15440000D02*
X37240000Y-15490000D01*
X37240000Y-16610000D02*
X37240000Y-17390000D01*
X37240000Y-18510000D02*
X37240000Y-18560000D01*
X37240000Y-18560000D02*
X38760000Y-18560000D01*
X38760000Y-15440000D02*
X37240000Y-15440000D01*
X38760000Y-16440000D02*
X38760000Y-15440000D01*
X38760000Y-18560000D02*
X38760000Y-17560000D01*
X36700000Y-17380000D02*
X36940000Y-17050000D01*
X36460000Y-17050000D01*
X36700000Y-17380000D01*
G36*
X36700000Y-17380000D02*
G01*
X36460000Y-17050000D01*
X36940000Y-17050000D01*
X36700000Y-17380000D01*
G37*
%TO.C,R23*%
X22477500Y-18737258D02*
X22477500Y-18262742D01*
X23522500Y-18737258D02*
X23522500Y-18262742D01*
%TO.C,U6*%
X6090000Y-25440000D02*
X6090000Y-25490000D01*
X6090000Y-28510000D02*
X6090000Y-28560000D01*
X6090000Y-28560000D02*
X7910000Y-28560000D01*
X7910000Y-25440000D02*
X6090000Y-25440000D01*
X7910000Y-25490000D02*
X7910000Y-25440000D01*
X7910000Y-27390000D02*
X7910000Y-26610000D01*
X7910000Y-28560000D02*
X7910000Y-28510000D01*
X5550000Y-28510000D02*
X5310000Y-28840000D01*
X5790000Y-28840000D01*
X5550000Y-28510000D01*
G36*
X5790000Y-28840000D02*
G01*
X5310000Y-28840000D01*
X5550000Y-28510000D01*
X5790000Y-28840000D01*
G37*
%TO.C,TP3*%
X15700000Y-3000000D02*
G75*
G02*
X14300000Y-3000000I-700000J0D01*
G01*
X14300000Y-3000000D02*
G75*
G02*
X15700000Y-3000000I700000J0D01*
G01*
%TO.C,C16*%
X18859420Y-9490000D02*
X19140580Y-9490000D01*
X18859420Y-10510000D02*
X19140580Y-10510000D01*
%TO.C,R34*%
X24762742Y-24477500D02*
X25237258Y-24477500D01*
X24762742Y-25522500D02*
X25237258Y-25522500D01*
%TO.C,TP10*%
X37200000Y-25500000D02*
G75*
G02*
X35800000Y-25500000I-700000J0D01*
G01*
X35800000Y-25500000D02*
G75*
G02*
X37200000Y-25500000I700000J0D01*
G01*
%TO.C,TP8*%
X6200000Y-3000000D02*
G75*
G02*
X4800000Y-3000000I-700000J0D01*
G01*
X4800000Y-3000000D02*
G75*
G02*
X6200000Y-3000000I700000J0D01*
G01*
%TO.C,R35*%
X23762742Y-30477500D02*
X24237258Y-30477500D01*
X23762742Y-31522500D02*
X24237258Y-31522500D01*
%TO.C,U24*%
X26090000Y-15440000D02*
X26090000Y-15490000D01*
X26090000Y-18510000D02*
X26090000Y-18560000D01*
X26090000Y-18560000D02*
X27910000Y-18560000D01*
X27910000Y-15440000D02*
X26090000Y-15440000D01*
X27910000Y-15490000D02*
X27910000Y-15440000D01*
X27910000Y-17390000D02*
X27910000Y-16610000D01*
X27910000Y-18560000D02*
X27910000Y-18510000D01*
X25550000Y-18510000D02*
X25310000Y-18840000D01*
X25790000Y-18840000D01*
X25550000Y-18510000D01*
G36*
X25790000Y-18840000D02*
G01*
X25310000Y-18840000D01*
X25550000Y-18510000D01*
X25790000Y-18840000D01*
G37*
%TO.C,C11*%
X20359420Y-16990000D02*
X20640580Y-16990000D01*
X20359420Y-18010000D02*
X20640580Y-18010000D01*
%TO.C,U15*%
X14090000Y-8440000D02*
X14090000Y-8490000D01*
X14090000Y-11510000D02*
X14090000Y-11560000D01*
X14090000Y-11560000D02*
X15910000Y-11560000D01*
X15910000Y-8440000D02*
X14090000Y-8440000D01*
X15910000Y-8490000D02*
X15910000Y-8440000D01*
X15910000Y-10390000D02*
X15910000Y-9610000D01*
X15910000Y-11560000D02*
X15910000Y-11510000D01*
X13550000Y-11510000D02*
X13310000Y-11840000D01*
X13790000Y-11840000D01*
X13550000Y-11510000D01*
G36*
X13790000Y-11840000D02*
G01*
X13310000Y-11840000D01*
X13550000Y-11510000D01*
X13790000Y-11840000D01*
G37*
%TO.C,C10*%
X4859420Y-6490000D02*
X5140580Y-6490000D01*
X4859420Y-7510000D02*
X5140580Y-7510000D01*
%TO.C,U26*%
X32090000Y-14940000D02*
X32090000Y-14990000D01*
X32090000Y-18010000D02*
X32090000Y-18060000D01*
X32090000Y-18060000D02*
X33910000Y-18060000D01*
X33910000Y-14940000D02*
X32090000Y-14940000D01*
X33910000Y-14990000D02*
X33910000Y-14940000D01*
X33910000Y-16890000D02*
X33910000Y-16110000D01*
X33910000Y-18060000D02*
X33910000Y-18010000D01*
X31550000Y-18010000D02*
X31310000Y-18340000D01*
X31790000Y-18340000D01*
X31550000Y-18010000D01*
G36*
X31790000Y-18340000D02*
G01*
X31310000Y-18340000D01*
X31550000Y-18010000D01*
X31790000Y-18340000D01*
G37*
%TO.C,U29*%
X28090000Y-23440000D02*
X28090000Y-23490000D01*
X28090000Y-26510000D02*
X28090000Y-26560000D01*
X28090000Y-26560000D02*
X29910000Y-26560000D01*
X29910000Y-23440000D02*
X28090000Y-23440000D01*
X29910000Y-23490000D02*
X29910000Y-23440000D01*
X29910000Y-25390000D02*
X29910000Y-24610000D01*
X29910000Y-26560000D02*
X29910000Y-26510000D01*
X27550000Y-26510000D02*
X27310000Y-26840000D01*
X27790000Y-26840000D01*
X27550000Y-26510000D01*
G36*
X27790000Y-26840000D02*
G01*
X27310000Y-26840000D01*
X27550000Y-26510000D01*
X27790000Y-26840000D01*
G37*
%TO.C,R16*%
X4477500Y-18737258D02*
X4477500Y-18262742D01*
X5522500Y-18737258D02*
X5522500Y-18262742D01*
%TO.C,TP6*%
X29700000Y-5000000D02*
G75*
G02*
X28300000Y-5000000I-700000J0D01*
G01*
X28300000Y-5000000D02*
G75*
G02*
X29700000Y-5000000I700000J0D01*
G01*
%TO.C,C33*%
X14859420Y-17490000D02*
X15140580Y-17490000D01*
X14859420Y-18510000D02*
X15140580Y-18510000D01*
%TO.C,U14*%
X9090000Y-8440000D02*
X9090000Y-8490000D01*
X9090000Y-11510000D02*
X9090000Y-11560000D01*
X9090000Y-11560000D02*
X10910000Y-11560000D01*
X10910000Y-8440000D02*
X9090000Y-8440000D01*
X10910000Y-8490000D02*
X10910000Y-8440000D01*
X10910000Y-11560000D02*
X10910000Y-11510000D01*
X8550000Y-11510000D02*
X8310000Y-11840000D01*
X8790000Y-11840000D01*
X8550000Y-11510000D01*
G36*
X8790000Y-11840000D02*
G01*
X8310000Y-11840000D01*
X8550000Y-11510000D01*
X8790000Y-11840000D01*
G37*
%TO.C,C15*%
X19490000Y-12640580D02*
X19490000Y-12359420D01*
X20510000Y-12640580D02*
X20510000Y-12359420D01*
%TO.C,R19*%
X4762742Y-4477500D02*
X5237258Y-4477500D01*
X4762742Y-5522500D02*
X5237258Y-5522500D01*
%TO.C,U13*%
X8090000Y-3440000D02*
X8090000Y-3515000D01*
X8090000Y-6485000D02*
X8090000Y-6560000D01*
X8090000Y-6560000D02*
X9910000Y-6560000D01*
X9910000Y-3440000D02*
X8090000Y-3440000D01*
X9910000Y-3515000D02*
X9910000Y-3440000D01*
X9910000Y-6560000D02*
X9910000Y-6485000D01*
X7550000Y-6490000D02*
X7310000Y-6820000D01*
X7790000Y-6820000D01*
X7550000Y-6490000D01*
G36*
X7790000Y-6820000D02*
G01*
X7310000Y-6820000D01*
X7550000Y-6490000D01*
X7790000Y-6820000D01*
G37*
%TO.C,TP2*%
X16200000Y-28000000D02*
G75*
G02*
X14800000Y-28000000I-700000J0D01*
G01*
X14800000Y-28000000D02*
G75*
G02*
X16200000Y-28000000I700000J0D01*
G01*
%TD*%
%LPC*%
%TO.C,JP1*%
G36*
X22850000Y-13250000D02*
G01*
X23150000Y-13250000D01*
X23150000Y-14750000D01*
X22850000Y-14750000D01*
X22850000Y-13250000D01*
G37*
%TD*%
D11*
%TO.C,J1*%
X25390000Y-6400000D03*
X19610000Y-6400000D03*
D12*
X26820000Y-6930000D03*
D13*
X26820000Y-2750000D03*
D12*
X18180000Y-6930000D03*
D13*
X18180000Y-2750000D03*
%TD*%
D14*
%TO.C,C26*%
X21000000Y-28775000D03*
X21000000Y-27225000D03*
%TD*%
D15*
%TO.C,U18*%
X8862500Y-20950000D03*
X8862500Y-20000000D03*
X8862500Y-19050000D03*
X11137500Y-19050000D03*
X11137500Y-20950000D03*
%TD*%
D14*
%TO.C,C32*%
X7000000Y-19275000D03*
X7000000Y-17725000D03*
%TD*%
D16*
%TO.C,C38*%
X28225000Y-22000000D03*
X29775000Y-22000000D03*
%TD*%
D14*
%TO.C,C9*%
X2000000Y-10775000D03*
X2000000Y-9225000D03*
%TD*%
D17*
%TO.C,R39*%
X27175000Y-34500000D03*
X28825000Y-34500000D03*
%TD*%
D15*
%TO.C,U19*%
X16862500Y-23950000D03*
X16862500Y-23000000D03*
X16862500Y-22050000D03*
X19137500Y-22050000D03*
X19137500Y-23950000D03*
%TD*%
D14*
%TO.C,C14*%
X18000000Y-13275000D03*
X18000000Y-11725000D03*
%TD*%
%TO.C,C37*%
X30000000Y-17275000D03*
X30000000Y-15725000D03*
%TD*%
D18*
%TO.C,Q4*%
X32062500Y-3950000D03*
X32062500Y-2050000D03*
X33937500Y-3000000D03*
%TD*%
%TO.C,Q6*%
X38062500Y-11950000D03*
X38062500Y-10050000D03*
X39937500Y-11000000D03*
%TD*%
D17*
%TO.C,R17*%
X18175000Y-15000000D03*
X19825000Y-15000000D03*
%TD*%
D16*
%TO.C,C36*%
X26225000Y-20000000D03*
X27775000Y-20000000D03*
%TD*%
D14*
%TO.C,C39*%
X21000000Y-34775000D03*
X21000000Y-33225000D03*
%TD*%
D17*
%TO.C,R20*%
X13675000Y-5000000D03*
X15325000Y-5000000D03*
%TD*%
D15*
%TO.C,U7*%
X11862500Y-25950000D03*
X11862500Y-25000000D03*
X11862500Y-24050000D03*
X14137500Y-24050000D03*
X14137500Y-25950000D03*
%TD*%
D17*
%TO.C,R27*%
X21175000Y-23000000D03*
X22825000Y-23000000D03*
%TD*%
D14*
%TO.C,C17*%
X12000000Y-7275000D03*
X12000000Y-5725000D03*
%TD*%
%TO.C,C30*%
X10000000Y-25775000D03*
X10000000Y-24225000D03*
%TD*%
%TO.C,C28*%
X2500000Y-24275000D03*
X2500000Y-22725000D03*
%TD*%
%TO.C,C12*%
X2000000Y-15775000D03*
X2000000Y-14225000D03*
%TD*%
D15*
%TO.C,U31*%
X22862500Y-34950000D03*
X22862500Y-34000000D03*
X22862500Y-33050000D03*
X25137500Y-33050000D03*
X25137500Y-34950000D03*
%TD*%
D17*
%TO.C,R30*%
X31675000Y-13500000D03*
X33325000Y-13500000D03*
%TD*%
D15*
%TO.C,U12*%
X3862500Y-15950000D03*
X3862500Y-15000000D03*
X3862500Y-14050000D03*
X6137500Y-14050000D03*
X6137500Y-15000000D03*
X6137500Y-15950000D03*
%TD*%
%TO.C,U11*%
X3862500Y-10950000D03*
X3862500Y-10000000D03*
X3862500Y-9050000D03*
X6137500Y-9050000D03*
X6137500Y-10950000D03*
%TD*%
%TO.C,U5*%
X4362500Y-24450000D03*
X4362500Y-23500000D03*
X4362500Y-22550000D03*
X6637500Y-22550000D03*
X6637500Y-24450000D03*
%TD*%
D16*
%TO.C,C27*%
X31225000Y-34000000D03*
X32775000Y-34000000D03*
%TD*%
D19*
%TO.C,R38*%
X27000000Y-32825000D03*
X27000000Y-31175000D03*
%TD*%
D20*
%TO.C,TP5*%
X12500000Y-3000000D03*
%TD*%
D15*
%TO.C,U22*%
X25862500Y-12450000D03*
X25862500Y-11500000D03*
X25862500Y-10550000D03*
X28137500Y-10550000D03*
X28137500Y-11500000D03*
X28137500Y-12450000D03*
%TD*%
D17*
%TO.C,R31*%
X32175000Y-19500000D03*
X33825000Y-19500000D03*
%TD*%
D21*
%TO.C,JP1*%
X22350000Y-14000000D03*
X23650000Y-14000000D03*
%TD*%
D14*
%TO.C,C29*%
X4000000Y-27775000D03*
X4000000Y-26225000D03*
%TD*%
D15*
%TO.C,U28*%
X22862500Y-28950000D03*
X22862500Y-28000000D03*
X22862500Y-27050000D03*
X25137500Y-27050000D03*
X25137500Y-28000000D03*
X25137500Y-28950000D03*
%TD*%
D16*
%TO.C,C31*%
X14225000Y-7000000D03*
X15775000Y-7000000D03*
%TD*%
D20*
%TO.C,TP7*%
X34000000Y-23500000D03*
%TD*%
D19*
%TO.C,R33*%
X32000000Y-24825000D03*
X32000000Y-23175000D03*
%TD*%
D14*
%TO.C,C22*%
X30000000Y-12275000D03*
X30000000Y-10725000D03*
%TD*%
D19*
%TO.C,R18*%
X3000000Y-19325000D03*
X3000000Y-17675000D03*
%TD*%
D20*
%TO.C,TP4*%
X35500000Y-13500000D03*
%TD*%
D17*
%TO.C,R4*%
X16675000Y-26000000D03*
X18325000Y-26000000D03*
%TD*%
D20*
%TO.C,TP9*%
X34000000Y-26000000D03*
%TD*%
D15*
%TO.C,U17*%
X13862500Y-15950000D03*
X13862500Y-15000000D03*
X13862500Y-14050000D03*
X16137500Y-14050000D03*
X16137500Y-15950000D03*
%TD*%
D22*
%TO.C,U30*%
X29137500Y-31950000D03*
X29137500Y-31300000D03*
X29137500Y-30650000D03*
X29137500Y-30000000D03*
X29137500Y-29350000D03*
X29137500Y-28700000D03*
X29137500Y-28050000D03*
X34862500Y-28050000D03*
X34862500Y-28700000D03*
X34862500Y-29350000D03*
X34862500Y-30000000D03*
X34862500Y-30650000D03*
X34862500Y-31300000D03*
X34862500Y-31950000D03*
%TD*%
D16*
%TO.C,C35*%
X17225000Y-20000000D03*
X18775000Y-20000000D03*
%TD*%
%TO.C,C23*%
X32225000Y-7000000D03*
X33775000Y-7000000D03*
%TD*%
D17*
%TO.C,R32*%
X31675000Y-21500000D03*
X33325000Y-21500000D03*
%TD*%
D14*
%TO.C,C18*%
X21000000Y-20775000D03*
X21000000Y-19225000D03*
%TD*%
D17*
%TO.C,R36*%
X17675000Y-28000000D03*
X19325000Y-28000000D03*
%TD*%
%TO.C,R24*%
X22675000Y-21000000D03*
X24325000Y-21000000D03*
%TD*%
D19*
%TO.C,R28*%
X29000000Y-8825000D03*
X29000000Y-7175000D03*
%TD*%
D23*
%TO.C,F2*%
X7100000Y-30500000D03*
X9900000Y-30500000D03*
%TD*%
D19*
%TO.C,R22*%
X22000000Y-11825000D03*
X22000000Y-10175000D03*
%TD*%
%TO.C,R29*%
X26000000Y-23325000D03*
X26000000Y-21675000D03*
%TD*%
D15*
%TO.C,U16*%
X8862500Y-15950000D03*
X8862500Y-15000000D03*
X8862500Y-14050000D03*
X11137500Y-14050000D03*
X11137500Y-15950000D03*
%TD*%
D20*
%TO.C,TP1*%
X21500000Y-25000000D03*
%TD*%
D17*
%TO.C,R40*%
X19675000Y-31000000D03*
X21325000Y-31000000D03*
%TD*%
D19*
%TO.C,R37*%
X27000000Y-29325000D03*
X27000000Y-27675000D03*
%TD*%
%TO.C,R7*%
X18000000Y-18325000D03*
X18000000Y-16675000D03*
%TD*%
D15*
%TO.C,U23*%
X31862500Y-10950000D03*
X31862500Y-10000000D03*
X31862500Y-9050000D03*
X34137500Y-9050000D03*
X34137500Y-10000000D03*
X34137500Y-10950000D03*
%TD*%
D14*
%TO.C,C34*%
X13000000Y-21275000D03*
X13000000Y-19725000D03*
%TD*%
D16*
%TO.C,C13*%
X8225000Y-2000000D03*
X9775000Y-2000000D03*
%TD*%
D18*
%TO.C,Q5*%
X37062500Y-17950000D03*
X37062500Y-16050000D03*
X38937500Y-17000000D03*
%TD*%
D19*
%TO.C,R23*%
X23000000Y-19325000D03*
X23000000Y-17675000D03*
%TD*%
D15*
%TO.C,U6*%
X5862500Y-27950000D03*
X5862500Y-27000000D03*
X5862500Y-26050000D03*
X8137500Y-26050000D03*
X8137500Y-27950000D03*
%TD*%
D20*
%TO.C,TP3*%
X15000000Y-3000000D03*
%TD*%
D16*
%TO.C,C16*%
X18225000Y-10000000D03*
X19775000Y-10000000D03*
%TD*%
D17*
%TO.C,R34*%
X24175000Y-25000000D03*
X25825000Y-25000000D03*
%TD*%
D20*
%TO.C,TP10*%
X36500000Y-25500000D03*
%TD*%
%TO.C,TP8*%
X5500000Y-3000000D03*
%TD*%
D17*
%TO.C,R35*%
X23175000Y-31000000D03*
X24825000Y-31000000D03*
%TD*%
D15*
%TO.C,U24*%
X25862500Y-17950000D03*
X25862500Y-17000000D03*
X25862500Y-16050000D03*
X28137500Y-16050000D03*
X28137500Y-17950000D03*
%TD*%
D16*
%TO.C,C11*%
X19725000Y-17500000D03*
X21275000Y-17500000D03*
%TD*%
D15*
%TO.C,U15*%
X13862500Y-10950000D03*
X13862500Y-10000000D03*
X13862500Y-9050000D03*
X16137500Y-9050000D03*
X16137500Y-10950000D03*
%TD*%
D16*
%TO.C,C10*%
X4225000Y-7000000D03*
X5775000Y-7000000D03*
%TD*%
D15*
%TO.C,U26*%
X31862500Y-17450000D03*
X31862500Y-16500000D03*
X31862500Y-15550000D03*
X34137500Y-15550000D03*
X34137500Y-17450000D03*
%TD*%
%TO.C,U29*%
X27862500Y-25950000D03*
X27862500Y-25000000D03*
X27862500Y-24050000D03*
X30137500Y-24050000D03*
X30137500Y-25950000D03*
%TD*%
D19*
%TO.C,R16*%
X5000000Y-19325000D03*
X5000000Y-17675000D03*
%TD*%
D20*
%TO.C,TP6*%
X29000000Y-5000000D03*
%TD*%
D16*
%TO.C,C33*%
X14225000Y-18000000D03*
X15775000Y-18000000D03*
%TD*%
D15*
%TO.C,U14*%
X8862500Y-10950000D03*
X8862500Y-10000000D03*
X8862500Y-9050000D03*
X11137500Y-9050000D03*
X11137500Y-10000000D03*
X11137500Y-10950000D03*
%TD*%
D14*
%TO.C,C15*%
X20000000Y-13275000D03*
X20000000Y-11725000D03*
%TD*%
D17*
%TO.C,R19*%
X4175000Y-5000000D03*
X5825000Y-5000000D03*
%TD*%
D24*
%TO.C,U13*%
X7862500Y-5975000D03*
X7862500Y-5325000D03*
X7862500Y-4675000D03*
X7862500Y-4025000D03*
X10137500Y-4025000D03*
X10137500Y-4675000D03*
X10137500Y-5325000D03*
X10137500Y-5975000D03*
%TD*%
D20*
%TO.C,TP2*%
X15500000Y-28000000D03*
%TD*%
%LPD*%
M02*
