ISO-10303-21;
HEADER;
FILE_DESCRIPTION(('FreeCAD Model'),'2;1');
FILE_NAME('Open CASCADE Shape Model','2026-09-25T18:51:14',('FreeCAD'),(
    'FreeCAD'),'Open CASCADE STEP processor 7.8','FreeCAD','Unknown');
FILE_SCHEMA(('AUTOMOTIVE_DESIGN { 1 0 10303 214 1 1 1 1 }'));
ENDSEC;
DATA;
#1 = APPLICATION_PROTOCOL_DEFINITION('international standard',
  'automotive_design',2000,#2);
#2 = APPLICATION_CONTEXT(
  'core data for automotive mechanical design processes');
#3 = SHAPE_DEFINITION_REPRESENTATION(#4,#10);
#4 = PRODUCT_DEFINITION_SHAPE('','',#5);
#5 = PRODUCT_DEFINITION('design','',#6,#9);
#6 = PRODUCT_DEFINITION_FORMATION('','',#7);
#7 = PRODUCT('Open CASCADE STEP translator 7.8 3',
  'Open CASCADE STEP translator 7.8 3','',(#8));
#8 = PRODUCT_CONTEXT('',#2,'mechanical');
#9 = PRODUCT_DEFINITION_CONTEXT('part definition',#2,'design');
#10 = ADVANCED_BREP_SHAPE_REPRESENTATION('',(#11,#15),#1013);
#11 = AXIS2_PLACEMENT_3D('',#12,#13,#14);
#12 = CARTESIAN_POINT('',(0.,0.,0.));
#13 = DIRECTION('',(0.,0.,1.));
#14 = DIRECTION('',(1.,0.,-0.));
#15 = MANIFOLD_SOLID_BREP('',#16);
#16 = CLOSED_SHELL('',(#17,#50,#70,#90,#115,#299,#352,#372,#403,#428,
    #453,#470,#501,#526,#551,#568,#599,#624,#649,#666,#691,#716,#741,
    #766,#791,#816,#828,#840,#852,#861,#890,#979,#1004));
#17 = ADVANCED_FACE('',(#18),#45,.T.);
#18 = FACE_BOUND('',#19,.T.);
#19 = EDGE_LOOP('',(#20,#29,#37,#44));
#20 = ORIENTED_EDGE('',*,*,#21,.F.);
#21 = EDGE_CURVE('',#22,#22,#24,.T.);
#22 = VERTEX_POINT('',#23);
#23 = CARTESIAN_POINT('',(34.5,-8.E-15,135.70625));
#24 = CIRCLE('',#25,34.5);
#25 = AXIS2_PLACEMENT_3D('',#26,#27,#28);
#26 = CARTESIAN_POINT('',(0.,0.,135.70625));
#27 = DIRECTION('',(0.,0.,1.));
#28 = DIRECTION('',(1.,0.,0.));
#29 = ORIENTED_EDGE('',*,*,#30,.F.);
#30 = EDGE_CURVE('',#31,#22,#33,.T.);
#31 = VERTEX_POINT('',#32);
#32 = CARTESIAN_POINT('',(34.5,-8.E-15,131.90625));
#33 = LINE('',#34,#35);
#34 = CARTESIAN_POINT('',(34.5,-8.45E-15,131.90625));
#35 = VECTOR('',#36,1.);
#36 = DIRECTION('',(0.,0.,1.));
#37 = ORIENTED_EDGE('',*,*,#38,.T.);
#38 = EDGE_CURVE('',#31,#31,#39,.T.);
#39 = CIRCLE('',#40,34.5);
#40 = AXIS2_PLACEMENT_3D('',#41,#42,#43);
#41 = CARTESIAN_POINT('',(0.,0.,131.90625));
#42 = DIRECTION('',(0.,0.,1.));
#43 = DIRECTION('',(1.,0.,0.));
#44 = ORIENTED_EDGE('',*,*,#30,.T.);
#45 = CYLINDRICAL_SURFACE('',#46,34.5);
#46 = AXIS2_PLACEMENT_3D('',#47,#48,#49);
#47 = CARTESIAN_POINT('',(0.,0.,131.90625));
#48 = DIRECTION('',(0.,0.,1.));
#49 = DIRECTION('',(1.,0.,0.));
#50 = ADVANCED_FACE('',(#51,#54),#65,.T.);
#51 = FACE_BOUND('',#52,.T.);
#52 = EDGE_LOOP('',(#53));
#53 = ORIENTED_EDGE('',*,*,#21,.T.);
#54 = FACE_BOUND('',#55,.T.);
#55 = EDGE_LOOP('',(#56));
#56 = ORIENTED_EDGE('',*,*,#57,.F.);
#57 = EDGE_CURVE('',#58,#58,#60,.T.);
#58 = VERTEX_POINT('',#59);
#59 = CARTESIAN_POINT('',(33.3,-8.E-15,135.70625));
#60 = CIRCLE('',#61,33.3);
#61 = AXIS2_PLACEMENT_3D('',#62,#63,#64);
#62 = CARTESIAN_POINT('',(0.,0.,135.70625));
#63 = DIRECTION('',(0.,0.,1.));
#64 = DIRECTION('',(1.,0.,0.));
#65 = PLANE('',#66);
#66 = AXIS2_PLACEMENT_3D('',#67,#68,#69);
#67 = CARTESIAN_POINT('',(0.,0.,135.70625));
#68 = DIRECTION('',(0.,0.,1.));
#69 = DIRECTION('',(1.,0.,0.));
#70 = ADVANCED_FACE('',(#71,#74),#85,.F.);
#71 = FACE_BOUND('',#72,.F.);
#72 = EDGE_LOOP('',(#73));
#73 = ORIENTED_EDGE('',*,*,#38,.T.);
#74 = FACE_BOUND('',#75,.F.);
#75 = EDGE_LOOP('',(#76));
#76 = ORIENTED_EDGE('',*,*,#77,.F.);
#77 = EDGE_CURVE('',#78,#78,#80,.T.);
#78 = VERTEX_POINT('',#79);
#79 = CARTESIAN_POINT('',(28.15,-7.E-15,131.90625));
#80 = CIRCLE('',#81,28.15);
#81 = AXIS2_PLACEMENT_3D('',#82,#83,#84);
#82 = CARTESIAN_POINT('',(0.,0.,131.90625));
#83 = DIRECTION('',(0.,0.,1.));
#84 = DIRECTION('',(1.,0.,0.));
#85 = PLANE('',#86);
#86 = AXIS2_PLACEMENT_3D('',#87,#88,#89);
#87 = CARTESIAN_POINT('',(0.,0.,131.90625));
#88 = DIRECTION('',(0.,0.,1.));
#89 = DIRECTION('',(1.,0.,0.));
#90 = ADVANCED_FACE('',(#91),#110,.T.);
#91 = FACE_BOUND('',#92,.T.);
#92 = EDGE_LOOP('',(#93,#102,#108,#109));
#93 = ORIENTED_EDGE('',*,*,#94,.F.);
#94 = EDGE_CURVE('',#95,#95,#97,.T.);
#95 = VERTEX_POINT('',#96);
#96 = CARTESIAN_POINT('',(33.3,-8.E-15,136.90625));
#97 = CIRCLE('',#98,33.3);
#98 = AXIS2_PLACEMENT_3D('',#99,#100,#101);
#99 = CARTESIAN_POINT('',(0.,0.,136.90625));
#100 = DIRECTION('',(0.,0.,1.));
#101 = DIRECTION('',(1.,0.,0.));
#102 = ORIENTED_EDGE('',*,*,#103,.F.);
#103 = EDGE_CURVE('',#58,#95,#104,.T.);
#104 = LINE('',#105,#106);
#105 = CARTESIAN_POINT('',(33.3,-8.16E-15,134.70625));
#106 = VECTOR('',#107,1.);
#107 = DIRECTION('',(0.,0.,1.));
#108 = ORIENTED_EDGE('',*,*,#57,.T.);
#109 = ORIENTED_EDGE('',*,*,#103,.T.);
#110 = CYLINDRICAL_SURFACE('',#111,33.3);
#111 = AXIS2_PLACEMENT_3D('',#112,#113,#114);
#112 = CARTESIAN_POINT('',(0.,0.,134.70625));
#113 = DIRECTION('',(0.,0.,1.));
#114 = DIRECTION('',(1.,0.,0.));
#115 = ADVANCED_FACE('',(#116,#135,#171,#207,#243),#294,.T.);
#116 = FACE_BOUND('',#117,.T.);
#117 = EDGE_LOOP('',(#118,#127,#133,#134));
#118 = ORIENTED_EDGE('',*,*,#119,.T.);
#119 = EDGE_CURVE('',#120,#120,#122,.T.);
#120 = VERTEX_POINT('',#121);
#121 = CARTESIAN_POINT('',(28.15,-7.E-15,103.90625));
#122 = CIRCLE('',#123,28.15);
#123 = AXIS2_PLACEMENT_3D('',#124,#125,#126);
#124 = CARTESIAN_POINT('',(0.,0.,103.90625));
#125 = DIRECTION('',(0.,0.,1.));
#126 = DIRECTION('',(1.,0.,0.));
#127 = ORIENTED_EDGE('',*,*,#128,.T.);
#128 = EDGE_CURVE('',#120,#78,#129,.T.);
#129 = LINE('',#130,#131);
#130 = CARTESIAN_POINT('',(28.15,-6.89E-15,103.90625));
#131 = VECTOR('',#132,1.);
#132 = DIRECTION('',(0.,0.,1.));
#133 = ORIENTED_EDGE('',*,*,#77,.F.);
#134 = ORIENTED_EDGE('',*,*,#128,.F.);
#135 = FACE_BOUND('',#136,.T.);
#136 = EDGE_LOOP('',(#137,#147,#156,#164));
#137 = ORIENTED_EDGE('',*,*,#138,.T.);
#138 = EDGE_CURVE('',#139,#141,#143,.T.);
#139 = VERTEX_POINT('',#140);
#140 = CARTESIAN_POINT('',(4.742976034755,27.747552654851,123.90625));
#141 = VERTEX_POINT('',#142);
#142 = CARTESIAN_POINT('',(4.742976034755,27.747552654851,126.40625));
#143 = LINE('',#144,#145);
#144 = CARTESIAN_POINT('',(4.742976034755,27.747552654851,103.90625));
#145 = VECTOR('',#146,1.);
#146 = DIRECTION('',(0.,0.,1.));
#147 = ORIENTED_EDGE('',*,*,#148,.T.);
#148 = EDGE_CURVE('',#141,#149,#151,.T.);
#149 = VERTEX_POINT('',#150);
#150 = CARTESIAN_POINT('',(-5.996805373641,27.503832920353,126.40625));
#151 = CIRCLE('',#152,28.15);
#152 = AXIS2_PLACEMENT_3D('',#153,#154,#155);
#153 = CARTESIAN_POINT('',(0.,0.,126.40625));
#154 = DIRECTION('',(0.,0.,1.));
#155 = DIRECTION('',(1.,0.,0.));
#156 = ORIENTED_EDGE('',*,*,#157,.F.);
#157 = EDGE_CURVE('',#158,#149,#160,.T.);
#158 = VERTEX_POINT('',#159);
#159 = CARTESIAN_POINT('',(-5.996805373641,27.503832920353,123.90625));
#160 = LINE('',#161,#162);
#161 = CARTESIAN_POINT('',(-5.996805373641,27.503832920353,103.90625));
#162 = VECTOR('',#163,1.);
#163 = DIRECTION('',(0.,0.,1.));
#164 = ORIENTED_EDGE('',*,*,#165,.F.);
#165 = EDGE_CURVE('',#139,#158,#166,.T.);
#166 = CIRCLE('',#167,28.15);
#167 = AXIS2_PLACEMENT_3D('',#168,#169,#170);
#168 = CARTESIAN_POINT('',(0.,0.,123.90625));
#169 = DIRECTION('',(0.,0.,1.));
#170 = DIRECTION('',(1.,0.,0.));
#171 = FACE_BOUND('',#172,.T.);
#172 = EDGE_LOOP('',(#173,#183,#192,#200));
#173 = ORIENTED_EDGE('',*,*,#174,.T.);
#174 = EDGE_CURVE('',#175,#177,#179,.T.);
#175 = VERTEX_POINT('',#176);
#176 = CARTESIAN_POINT('',(-26.40157350932,-9.766238591787,123.90625));
#177 = VERTEX_POINT('',#178);
#178 = CARTESIAN_POINT('',(-26.40157350932,-9.766238591787,126.40625));
#179 = LINE('',#180,#181);
#180 = CARTESIAN_POINT('',(-26.40157350932,-9.766238591787,103.90625));
#181 = VECTOR('',#182,1.);
#182 = DIRECTION('',(0.,0.,1.));
#183 = ORIENTED_EDGE('',*,*,#184,.T.);
#184 = EDGE_CURVE('',#177,#185,#187,.T.);
#185 = VERTEX_POINT('',#186);
#186 = CARTESIAN_POINT('',(-20.82061532364,-18.9453022553,126.40625));
#187 = CIRCLE('',#188,28.15);
#188 = AXIS2_PLACEMENT_3D('',#189,#190,#191);
#189 = CARTESIAN_POINT('',(0.,0.,126.40625));
#190 = DIRECTION('',(0.,0.,1.));
#191 = DIRECTION('',(1.,0.,0.));
#192 = ORIENTED_EDGE('',*,*,#193,.F.);
#193 = EDGE_CURVE('',#194,#185,#196,.T.);
#194 = VERTEX_POINT('',#195);
#195 = CARTESIAN_POINT('',(-20.82061532364,-18.9453022553,123.90625));
#196 = LINE('',#197,#198);
#197 = CARTESIAN_POINT('',(-20.82061532364,-18.9453022553,103.90625));
#198 = VECTOR('',#199,1.);
#199 = DIRECTION('',(0.,0.,1.));
#200 = ORIENTED_EDGE('',*,*,#201,.F.);
#201 = EDGE_CURVE('',#175,#194,#202,.T.);
#202 = CIRCLE('',#203,28.15);
#203 = AXIS2_PLACEMENT_3D('',#204,#205,#206);
#204 = CARTESIAN_POINT('',(0.,0.,123.90625));
#205 = DIRECTION('',(0.,0.,1.));
#206 = DIRECTION('',(1.,0.,0.));
#207 = FACE_BOUND('',#208,.T.);
#208 = EDGE_LOOP('',(#209,#219,#228,#236));
#209 = ORIENTED_EDGE('',*,*,#210,.T.);
#210 = EDGE_CURVE('',#211,#213,#215,.T.);
#211 = VERTEX_POINT('',#212);
#212 = CARTESIAN_POINT('',(21.65859747457,-17.98131406306,123.90625));
#213 = VERTEX_POINT('',#214);
#214 = CARTESIAN_POINT('',(21.65859747457,-17.98131406306,126.40625));
#215 = LINE('',#216,#217);
#216 = CARTESIAN_POINT('',(21.65859747457,-17.98131406306,103.90625));
#217 = VECTOR('',#218,1.);
#218 = DIRECTION('',(0.,0.,1.));
#219 = ORIENTED_EDGE('',*,*,#220,.T.);
#220 = EDGE_CURVE('',#213,#221,#223,.T.);
#221 = VERTEX_POINT('',#222);
#222 = CARTESIAN_POINT('',(26.817420697288,-8.558530665053,126.40625));
#223 = CIRCLE('',#224,28.15);
#224 = AXIS2_PLACEMENT_3D('',#225,#226,#227);
#225 = CARTESIAN_POINT('',(0.,0.,126.40625));
#226 = DIRECTION('',(0.,0.,1.));
#227 = DIRECTION('',(1.,0.,0.));
#228 = ORIENTED_EDGE('',*,*,#229,.F.);
#229 = EDGE_CURVE('',#230,#221,#232,.T.);
#230 = VERTEX_POINT('',#231);
#231 = CARTESIAN_POINT('',(26.817420697288,-8.558530665053,123.90625));
#232 = LINE('',#233,#234);
#233 = CARTESIAN_POINT('',(26.817420697288,-8.558530665053,103.90625));
#234 = VECTOR('',#235,1.);
#235 = DIRECTION('',(0.,0.,1.));
#236 = ORIENTED_EDGE('',*,*,#237,.F.);
#237 = EDGE_CURVE('',#211,#230,#238,.T.);
#238 = CIRCLE('',#239,28.15);
#239 = AXIS2_PLACEMENT_3D('',#240,#241,#242);
#240 = CARTESIAN_POINT('',(0.,0.,123.90625));
#241 = DIRECTION('',(0.,0.,1.));
#242 = DIRECTION('',(1.,0.,0.));
#243 = FACE_BOUND('',#244,.T.);
#244 = EDGE_LOOP('',(#245));
#245 = ORIENTED_EDGE('',*,*,#246,.T.);
#246 = EDGE_CURVE('',#247,#247,#249,.T.);
#247 = VERTEX_POINT('',#248);
#248 = CARTESIAN_POINT('',(-27.68265100023,-5.108163427242,126.90625));
#249 = B_SPLINE_CURVE_WITH_KNOTS('',7,(#250,#251,#252,#253,#254,#255,
    #256,#257,#258,#259,#260,#261,#262,#263,#264,#265,#266,#267,#268,
    #269,#270,#271,#272,#273,#274,#275,#276,#277,#278,#279,#280,#281,
    #282,#283,#284,#285,#286,#287,#288,#289,#290,#291,#292,#293),
  .UNSPECIFIED.,.T.,.F.,(8,6,6,6,6,6,6,8),(0.,0.151254401181,
    0.287070839265,0.42437708716,0.587307281588,0.713806434814,
    0.839620563096,1.),.UNSPECIFIED.);
#250 = CARTESIAN_POINT('',(-27.68265100023,-5.108163427242,126.90625));
#251 = CARTESIAN_POINT('',(-27.68265100023,-5.108163427242,
    127.05644090755));
#252 = CARTESIAN_POINT('',(-27.67882686376,-5.128887339524,
    127.20671097199));
#253 = CARTESIAN_POINT('',(-27.67117098106,-5.170377955079,
    127.35491735301));
#254 = CARTESIAN_POINT('',(-27.6595019714,-5.233065165103,
    127.49869317386));
#255 = CARTESIAN_POINT('',(-27.64351109604,-5.317532527967,
    127.63512554512));
#256 = CARTESIAN_POINT('',(-27.62275356103,-5.424328560618,
    127.76045292627));
#257 = CARTESIAN_POINT('',(-27.57342763619,-5.669442756462,
    127.96721122814));
#258 = CARTESIAN_POINT('',(-27.54527053595,-5.806422268603,
    128.05434099043));
#259 = CARTESIAN_POINT('',(-27.51248764419,-5.961529372351,
    128.12184856524));
#260 = CARTESIAN_POINT('',(-27.47579626545,-6.129138088797,
    128.16358428386));
#261 = CARTESIAN_POINT('',(-27.43643801902,-6.302110856937,
    128.17629756509));
#262 = CARTESIAN_POINT('',(-27.39619744144,-6.472915993081,
    128.1597674715));
#263 = CARTESIAN_POINT('',(-27.31720369404,-6.798622709319,
    128.07372107166));
#264 = CARTESIAN_POINT('',(-27.2796014357,-6.948672343525,
    128.00485576108));
#265 = CARTESIAN_POINT('',(-27.24516926791,-7.082132059906,
    127.91539821413));
#266 = CARTESIAN_POINT('',(-27.21474443589,-7.197382705333,
    127.80987893114));
#267 = CARTESIAN_POINT('',(-27.18891351102,-7.293603194456,
    127.69256512384));
#268 = CARTESIAN_POINT('',(-27.16797816003,-7.370695681977,
    127.56749775763));
#269 = CARTESIAN_POINT('',(-27.13291250582,-7.498850426768,
    127.28537221566));
#270 = CARTESIAN_POINT('',(-27.1202198341,-7.544422078882,127.1221823836
    ));
#271 = CARTESIAN_POINT('',(-27.1144288747,-7.564964140847,
    126.95326069916));
#272 = CARTESIAN_POINT('',(-27.11580669075,-7.560070116734,
    126.7828754074));
#273 = CARTESIAN_POINT('',(-27.1243103505,-7.5298044944,126.61515619854)
  );
#274 = CARTESIAN_POINT('',(-27.13964627466,-7.474551308302,
    126.45413148678));
#275 = CARTESIAN_POINT('',(-27.17817602675,-7.333031926879,
    126.1875406419));
#276 = CARTESIAN_POINT('',(-27.19918793216,-7.255207057284,
    126.0752596811));
#277 = CARTESIAN_POINT('',(-27.22431521273,-7.161017358436,
    125.97047147524));
#278 = CARTESIAN_POINT('',(-27.25325927892,-7.050703374877,
    125.87655426134));
#279 = CARTESIAN_POINT('',(-27.28550093097,-6.925104523932,
    125.79698676022));
#280 = CARTESIAN_POINT('',(-27.32033820751,-6.785698495396,
    125.7353645619));
#281 = CARTESIAN_POINT('',(-27.39329573925,-6.484880280397,
    125.65589329798));
#282 = CARTESIAN_POINT('',(-27.43061003565,-6.326836124476,
    125.63866607548));
#283 = CARTESIAN_POINT('',(-27.46733898613,-6.166236760774,
    125.64653165411));
#284 = CARTESIAN_POINT('',(-27.50198713113,-6.009302841727,
    125.67960974503));
#285 = CARTESIAN_POINT('',(-27.53344822604,-5.862039680834,
    125.73556361397));
#286 = CARTESIAN_POINT('',(-27.56103027072,-5.729389251128,
    125.80968693416));
#287 = CARTESIAN_POINT('',(-27.61430768271,-5.467624753844,
    126.00370306893));
#288 = CARTESIAN_POINT('',(-27.63809696796,-5.34608523216,
    126.13310256525));
#289 = CARTESIAN_POINT('',(-27.65634969142,-5.249989903205,
    126.2763251805));
#290 = CARTESIAN_POINT('',(-27.669626014,-5.178751389687,126.42858634816
    ));
#291 = CARTESIAN_POINT('',(-27.67831436074,-5.131664553472,
    126.58622241033));
#292 = CARTESIAN_POINT('',(-27.68265100023,-5.108163427242,
    126.74631119083));
#293 = CARTESIAN_POINT('',(-27.68265100023,-5.108163427242,126.90625));
#294 = CYLINDRICAL_SURFACE('',#295,28.15);
#295 = AXIS2_PLACEMENT_3D('',#296,#297,#298);
#296 = CARTESIAN_POINT('',(0.,0.,103.90625));
#297 = DIRECTION('',(0.,0.,1.));
#298 = DIRECTION('',(1.,0.,0.));
#299 = ADVANCED_FACE('',(#300,#303,#314,#325,#336),#347,.T.);
#300 = FACE_BOUND('',#301,.T.);
#301 = EDGE_LOOP('',(#302));
#302 = ORIENTED_EDGE('',*,*,#94,.T.);
#303 = FACE_BOUND('',#304,.T.);
#304 = EDGE_LOOP('',(#305));
#305 = ORIENTED_EDGE('',*,*,#306,.F.);
#306 = EDGE_CURVE('',#307,#307,#309,.T.);
#307 = VERTEX_POINT('',#308);
#308 = CARTESIAN_POINT('',(-10.06813787033,-6.65,136.90625));
#309 = CIRCLE('',#310,1.45);
#310 = AXIS2_PLACEMENT_3D('',#311,#312,#313);
#311 = CARTESIAN_POINT('',(-11.51813787033,-6.65,136.90625));
#312 = DIRECTION('',(0.,0.,1.));
#313 = DIRECTION('',(1.,0.,0.));
#314 = FACE_BOUND('',#315,.T.);
#315 = EDGE_LOOP('',(#316));
#316 = ORIENTED_EDGE('',*,*,#317,.F.);
#317 = EDGE_CURVE('',#318,#318,#320,.T.);
#318 = VERTEX_POINT('',#319);
#319 = CARTESIAN_POINT('',(12.968137870333,-6.65,136.90625));
#320 = CIRCLE('',#321,1.45);
#321 = AXIS2_PLACEMENT_3D('',#322,#323,#324);
#322 = CARTESIAN_POINT('',(11.518137870333,-6.65,136.90625));
#323 = DIRECTION('',(0.,0.,1.));
#324 = DIRECTION('',(1.,0.,0.));
#325 = FACE_BOUND('',#326,.T.);
#326 = EDGE_LOOP('',(#327));
#327 = ORIENTED_EDGE('',*,*,#328,.F.);
#328 = EDGE_CURVE('',#329,#329,#331,.T.);
#329 = VERTEX_POINT('',#330);
#330 = CARTESIAN_POINT('',(6.,-1.E-15,136.90625));
#331 = CIRCLE('',#332,6.);
#332 = AXIS2_PLACEMENT_3D('',#333,#334,#335);
#333 = CARTESIAN_POINT('',(0.,0.,136.90625));
#334 = DIRECTION('',(0.,0.,1.));
#335 = DIRECTION('',(1.,0.,0.));
#336 = FACE_BOUND('',#337,.T.);
#337 = EDGE_LOOP('',(#338));
#338 = ORIENTED_EDGE('',*,*,#339,.F.);
#339 = EDGE_CURVE('',#340,#340,#342,.T.);
#340 = VERTEX_POINT('',#341);
#341 = CARTESIAN_POINT('',(1.45,13.3,136.90625));
#342 = CIRCLE('',#343,1.45);
#343 = AXIS2_PLACEMENT_3D('',#344,#345,#346);
#344 = CARTESIAN_POINT('',(8.1E-16,13.3,136.90625));
#345 = DIRECTION('',(0.,0.,1.));
#346 = DIRECTION('',(1.,0.,0.));
#347 = PLANE('',#348);
#348 = AXIS2_PLACEMENT_3D('',#349,#350,#351);
#349 = CARTESIAN_POINT('',(0.,0.,136.90625));
#350 = DIRECTION('',(0.,0.,1.));
#351 = DIRECTION('',(1.,0.,0.));
#352 = ADVANCED_FACE('',(#353,#356),#367,.F.);
#353 = FACE_BOUND('',#354,.F.);
#354 = EDGE_LOOP('',(#355));
#355 = ORIENTED_EDGE('',*,*,#119,.T.);
#356 = FACE_BOUND('',#357,.F.);
#357 = EDGE_LOOP('',(#358));
#358 = ORIENTED_EDGE('',*,*,#359,.F.);
#359 = EDGE_CURVE('',#360,#360,#362,.T.);
#360 = VERTEX_POINT('',#361);
#361 = CARTESIAN_POINT('',(27.14,-7.E-15,103.90625));
#362 = CIRCLE('',#363,27.14);
#363 = AXIS2_PLACEMENT_3D('',#364,#365,#366);
#364 = CARTESIAN_POINT('',(0.,0.,103.90625));
#365 = DIRECTION('',(0.,0.,1.));
#366 = DIRECTION('',(1.,0.,0.));
#367 = PLANE('',#368);
#368 = AXIS2_PLACEMENT_3D('',#369,#370,#371);
#369 = CARTESIAN_POINT('',(0.,0.,103.90625));
#370 = DIRECTION('',(0.,0.,1.));
#371 = DIRECTION('',(1.,0.,0.));
#372 = ADVANCED_FACE('',(#373),#398,.T.);
#373 = FACE_BOUND('',#374,.T.);
#374 = EDGE_LOOP('',(#375,#376,#384,#392));
#375 = ORIENTED_EDGE('',*,*,#138,.F.);
#376 = ORIENTED_EDGE('',*,*,#377,.T.);
#377 = EDGE_CURVE('',#139,#378,#380,.T.);
#378 = VERTEX_POINT('',#379);
#379 = CARTESIAN_POINT('',(5.164199483667,30.211811327573,123.90625));
#380 = LINE('',#381,#382);
#381 = CARTESIAN_POINT('',(0.,0.,123.90625));
#382 = VECTOR('',#383,1.);
#383 = DIRECTION('',(0.168489379565,0.985703469089,0.));
#384 = ORIENTED_EDGE('',*,*,#385,.T.);
#385 = EDGE_CURVE('',#378,#386,#388,.T.);
#386 = VERTEX_POINT('',#387);
#387 = CARTESIAN_POINT('',(5.164199483667,30.211811327573,126.40625));
#388 = LINE('',#389,#390);
#389 = CARTESIAN_POINT('',(5.164199483667,30.211811327573,123.90625));
#390 = VECTOR('',#391,1.);
#391 = DIRECTION('',(0.,0.,1.));
#392 = ORIENTED_EDGE('',*,*,#393,.F.);
#393 = EDGE_CURVE('',#141,#386,#394,.T.);
#394 = LINE('',#395,#396);
#395 = CARTESIAN_POINT('',(0.,0.,126.40625));
#396 = VECTOR('',#397,1.);
#397 = DIRECTION('',(0.168489379565,0.985703469089,0.));
#398 = PLANE('',#399);
#399 = AXIS2_PLACEMENT_3D('',#400,#401,#402);
#400 = CARTESIAN_POINT('',(0.,0.,123.90625));
#401 = DIRECTION('',(0.985703469089,-0.168489379565,0.));
#402 = DIRECTION('',(0.168489379565,0.985703469089,0.));
#403 = ADVANCED_FACE('',(#404),#423,.F.);
#404 = FACE_BOUND('',#405,.F.);
#405 = EDGE_LOOP('',(#406,#415,#421,#422));
#406 = ORIENTED_EDGE('',*,*,#407,.T.);
#407 = EDGE_CURVE('',#378,#408,#410,.T.);
#408 = VERTEX_POINT('',#409);
#409 = CARTESIAN_POINT('',(-6.529381339328,29.946446856441,123.90625));
#410 = CIRCLE('',#411,30.65);
#411 = AXIS2_PLACEMENT_3D('',#412,#413,#414);
#412 = CARTESIAN_POINT('',(0.,0.,123.90625));
#413 = DIRECTION('',(0.,-0.,1.));
#414 = DIRECTION('',(0.168489379565,0.985703469089,0.));
#415 = ORIENTED_EDGE('',*,*,#416,.F.);
#416 = EDGE_CURVE('',#158,#408,#417,.T.);
#417 = LINE('',#418,#419);
#418 = CARTESIAN_POINT('',(0.,0.,123.90625));
#419 = VECTOR('',#420,1.);
#420 = DIRECTION('',(-0.213030386275,0.977045574435,0.));
#421 = ORIENTED_EDGE('',*,*,#165,.F.);
#422 = ORIENTED_EDGE('',*,*,#377,.T.);
#423 = PLANE('',#424);
#424 = AXIS2_PLACEMENT_3D('',#425,#426,#427);
#425 = CARTESIAN_POINT('',(0.,0.,123.90625));
#426 = DIRECTION('',(0.,0.,1.));
#427 = DIRECTION('',(0.168489379565,0.985703469089,0.));
#428 = ADVANCED_FACE('',(#429),#448,.T.);
#429 = FACE_BOUND('',#430,.T.);
#430 = EDGE_LOOP('',(#431,#440,#446,#447));
#431 = ORIENTED_EDGE('',*,*,#432,.T.);
#432 = EDGE_CURVE('',#386,#433,#435,.T.);
#433 = VERTEX_POINT('',#434);
#434 = CARTESIAN_POINT('',(-6.529381339328,29.946446856441,126.40625));
#435 = CIRCLE('',#436,30.65);
#436 = AXIS2_PLACEMENT_3D('',#437,#438,#439);
#437 = CARTESIAN_POINT('',(0.,0.,126.40625));
#438 = DIRECTION('',(0.,-0.,1.));
#439 = DIRECTION('',(0.168489379565,0.985703469089,0.));
#440 = ORIENTED_EDGE('',*,*,#441,.F.);
#441 = EDGE_CURVE('',#149,#433,#442,.T.);
#442 = LINE('',#443,#444);
#443 = CARTESIAN_POINT('',(0.,0.,126.40625));
#444 = VECTOR('',#445,1.);
#445 = DIRECTION('',(-0.213030386275,0.977045574435,0.));
#446 = ORIENTED_EDGE('',*,*,#148,.F.);
#447 = ORIENTED_EDGE('',*,*,#393,.T.);
#448 = PLANE('',#449);
#449 = AXIS2_PLACEMENT_3D('',#450,#451,#452);
#450 = CARTESIAN_POINT('',(0.,0.,126.40625));
#451 = DIRECTION('',(0.,0.,1.));
#452 = DIRECTION('',(0.168489379565,0.985703469089,0.));
#453 = ADVANCED_FACE('',(#454),#465,.F.);
#454 = FACE_BOUND('',#455,.F.);
#455 = EDGE_LOOP('',(#456,#457,#458,#459));
#456 = ORIENTED_EDGE('',*,*,#441,.F.);
#457 = ORIENTED_EDGE('',*,*,#157,.F.);
#458 = ORIENTED_EDGE('',*,*,#416,.T.);
#459 = ORIENTED_EDGE('',*,*,#460,.T.);
#460 = EDGE_CURVE('',#408,#433,#461,.T.);
#461 = LINE('',#462,#463);
#462 = CARTESIAN_POINT('',(-6.529381339328,29.946446856441,123.90625));
#463 = VECTOR('',#464,1.);
#464 = DIRECTION('',(0.,0.,1.));
#465 = PLANE('',#466);
#466 = AXIS2_PLACEMENT_3D('',#467,#468,#469);
#467 = CARTESIAN_POINT('',(0.,0.,123.90625));
#468 = DIRECTION('',(0.977045574435,0.213030386275,0.));
#469 = DIRECTION('',(-0.213030386275,0.977045574435,0.));
#470 = ADVANCED_FACE('',(#471),#496,.T.);
#471 = FACE_BOUND('',#472,.T.);
#472 = EDGE_LOOP('',(#473,#474,#482,#490));
#473 = ORIENTED_EDGE('',*,*,#174,.F.);
#474 = ORIENTED_EDGE('',*,*,#475,.T.);
#475 = EDGE_CURVE('',#175,#476,#478,.T.);
#476 = VERTEX_POINT('',#477);
#477 = CARTESIAN_POINT('',(-28.74629584585,-10.63357772072,123.90625));
#478 = LINE('',#479,#480);
#479 = CARTESIAN_POINT('',(0.,0.,123.90625));
#480 = VECTOR('',#481,1.);
#481 = DIRECTION('',(-0.937888934612,-0.346935651573,0.));
#482 = ORIENTED_EDGE('',*,*,#483,.T.);
#483 = EDGE_CURVE('',#476,#484,#486,.T.);
#484 = VERTEX_POINT('',#485);
#485 = CARTESIAN_POINT('',(-28.74629584585,-10.63357772072,126.40625));
#486 = LINE('',#487,#488);
#487 = CARTESIAN_POINT('',(-28.74629584585,-10.63357772072,123.90625));
#488 = VECTOR('',#489,1.);
#489 = DIRECTION('',(0.,0.,1.));
#490 = ORIENTED_EDGE('',*,*,#491,.F.);
#491 = EDGE_CURVE('',#177,#484,#492,.T.);
#492 = LINE('',#493,#494);
#493 = CARTESIAN_POINT('',(0.,0.,126.40625));
#494 = VECTOR('',#495,1.);
#495 = DIRECTION('',(-0.937888934612,-0.346935651573,0.));
#496 = PLANE('',#497);
#497 = AXIS2_PLACEMENT_3D('',#498,#499,#500);
#498 = CARTESIAN_POINT('',(0.,0.,123.90625));
#499 = DIRECTION('',(-0.346935651573,0.937888934612,0.));
#500 = DIRECTION('',(-0.937888934612,-0.346935651573,0.));
#501 = ADVANCED_FACE('',(#502),#521,.F.);
#502 = FACE_BOUND('',#503,.F.);
#503 = EDGE_LOOP('',(#504,#513,#519,#520));
#504 = ORIENTED_EDGE('',*,*,#505,.T.);
#505 = EDGE_CURVE('',#476,#506,#508,.T.);
#506 = VERTEX_POINT('',#507);
#507 = CARTESIAN_POINT('',(-22.66969306109,-20.62783353907,123.90625));
#508 = CIRCLE('',#509,30.65);
#509 = AXIS2_PLACEMENT_3D('',#510,#511,#512);
#510 = CARTESIAN_POINT('',(0.,0.,123.90625));
#511 = DIRECTION('',(0.,0.,1.));
#512 = DIRECTION('',(-0.937888934612,-0.346935651573,0.));
#513 = ORIENTED_EDGE('',*,*,#514,.F.);
#514 = EDGE_CURVE('',#194,#506,#515,.T.);
#515 = LINE('',#516,#517);
#516 = CARTESIAN_POINT('',(0.,0.,123.90625));
#517 = VECTOR('',#518,1.);
#518 = DIRECTION('',(-0.739631094979,-0.67301251351,0.));
#519 = ORIENTED_EDGE('',*,*,#201,.F.);
#520 = ORIENTED_EDGE('',*,*,#475,.T.);
#521 = PLANE('',#522);
#522 = AXIS2_PLACEMENT_3D('',#523,#524,#525);
#523 = CARTESIAN_POINT('',(0.,0.,123.90625));
#524 = DIRECTION('',(0.,0.,1.));
#525 = DIRECTION('',(-0.937888934612,-0.346935651573,0.));
#526 = ADVANCED_FACE('',(#527),#546,.T.);
#527 = FACE_BOUND('',#528,.T.);
#528 = EDGE_LOOP('',(#529,#538,#544,#545));
#529 = ORIENTED_EDGE('',*,*,#530,.T.);
#530 = EDGE_CURVE('',#484,#531,#533,.T.);
#531 = VERTEX_POINT('',#532);
#532 = CARTESIAN_POINT('',(-22.66969306109,-20.62783353907,126.40625));
#533 = CIRCLE('',#534,30.65);
#534 = AXIS2_PLACEMENT_3D('',#535,#536,#537);
#535 = CARTESIAN_POINT('',(0.,0.,126.40625));
#536 = DIRECTION('',(0.,0.,1.));
#537 = DIRECTION('',(-0.937888934612,-0.346935651573,0.));
#538 = ORIENTED_EDGE('',*,*,#539,.F.);
#539 = EDGE_CURVE('',#185,#531,#540,.T.);
#540 = LINE('',#541,#542);
#541 = CARTESIAN_POINT('',(0.,0.,126.40625));
#542 = VECTOR('',#543,1.);
#543 = DIRECTION('',(-0.739631094979,-0.67301251351,0.));
#544 = ORIENTED_EDGE('',*,*,#184,.F.);
#545 = ORIENTED_EDGE('',*,*,#491,.T.);
#546 = PLANE('',#547);
#547 = AXIS2_PLACEMENT_3D('',#548,#549,#550);
#548 = CARTESIAN_POINT('',(0.,0.,126.40625));
#549 = DIRECTION('',(0.,0.,1.));
#550 = DIRECTION('',(-0.937888934612,-0.346935651573,0.));
#551 = ADVANCED_FACE('',(#552),#563,.F.);
#552 = FACE_BOUND('',#553,.F.);
#553 = EDGE_LOOP('',(#554,#555,#556,#557));
#554 = ORIENTED_EDGE('',*,*,#539,.F.);
#555 = ORIENTED_EDGE('',*,*,#193,.F.);
#556 = ORIENTED_EDGE('',*,*,#514,.T.);
#557 = ORIENTED_EDGE('',*,*,#558,.T.);
#558 = EDGE_CURVE('',#506,#531,#559,.T.);
#559 = LINE('',#560,#561);
#560 = CARTESIAN_POINT('',(-22.66969306109,-20.62783353907,123.90625));
#561 = VECTOR('',#562,1.);
#562 = DIRECTION('',(0.,0.,1.));
#563 = PLANE('',#564);
#564 = AXIS2_PLACEMENT_3D('',#565,#566,#567);
#565 = CARTESIAN_POINT('',(0.,0.,123.90625));
#566 = DIRECTION('',(-0.67301251351,0.739631094979,0.));
#567 = DIRECTION('',(-0.739631094979,-0.67301251351,0.));
#568 = ADVANCED_FACE('',(#569),#594,.T.);
#569 = FACE_BOUND('',#570,.T.);
#570 = EDGE_LOOP('',(#571,#572,#580,#588));
#571 = ORIENTED_EDGE('',*,*,#210,.F.);
#572 = ORIENTED_EDGE('',*,*,#573,.T.);
#573 = EDGE_CURVE('',#211,#574,#576,.T.);
#574 = VERTEX_POINT('',#575);
#575 = CARTESIAN_POINT('',(23.582096362187,-19.57823360685,123.90625));
#576 = LINE('',#577,#578);
#577 = CARTESIAN_POINT('',(0.,0.,123.90625));
#578 = VECTOR('',#579,1.);
#579 = DIRECTION('',(0.769399555047,-0.638767817516,0.));
#580 = ORIENTED_EDGE('',*,*,#581,.T.);
#581 = EDGE_CURVE('',#574,#582,#584,.T.);
#582 = VERTEX_POINT('',#583);
#583 = CARTESIAN_POINT('',(23.582096362187,-19.57823360685,126.40625));
#584 = LINE('',#585,#586);
#585 = CARTESIAN_POINT('',(23.582096362187,-19.57823360685,123.90625));
#586 = VECTOR('',#587,1.);
#587 = DIRECTION('',(0.,0.,1.));
#588 = ORIENTED_EDGE('',*,*,#589,.F.);
#589 = EDGE_CURVE('',#213,#582,#590,.T.);
#590 = LINE('',#591,#592);
#591 = CARTESIAN_POINT('',(0.,0.,126.40625));
#592 = VECTOR('',#593,1.);
#593 = DIRECTION('',(0.769399555047,-0.638767817516,0.));
#594 = PLANE('',#595);
#595 = AXIS2_PLACEMENT_3D('',#596,#597,#598);
#596 = CARTESIAN_POINT('',(0.,0.,123.90625));
#597 = DIRECTION('',(-0.638767817516,-0.769399555047,0.));
#598 = DIRECTION('',(0.769399555047,-0.638767817516,0.));
#599 = ADVANCED_FACE('',(#600),#619,.F.);
#600 = FACE_BOUND('',#601,.F.);
#601 = EDGE_LOOP('',(#602,#611,#617,#618));
#602 = ORIENTED_EDGE('',*,*,#603,.T.);
#603 = EDGE_CURVE('',#574,#604,#606,.T.);
#604 = VERTEX_POINT('',#605);
#605 = CARTESIAN_POINT('',(29.199074400422,-9.318613317366,123.90625));
#606 = CIRCLE('',#607,30.65);
#607 = AXIS2_PLACEMENT_3D('',#608,#609,#610);
#608 = CARTESIAN_POINT('',(0.,0.,123.90625));
#609 = DIRECTION('',(-0.,0.,1.));
#610 = DIRECTION('',(0.769399555047,-0.638767817516,0.));
#611 = ORIENTED_EDGE('',*,*,#612,.F.);
#612 = EDGE_CURVE('',#230,#604,#613,.T.);
#613 = LINE('',#614,#615);
#614 = CARTESIAN_POINT('',(0.,0.,123.90625));
#615 = VECTOR('',#616,1.);
#616 = DIRECTION('',(0.952661481254,-0.304033060925,0.));
#617 = ORIENTED_EDGE('',*,*,#237,.F.);
#618 = ORIENTED_EDGE('',*,*,#573,.T.);
#619 = PLANE('',#620);
#620 = AXIS2_PLACEMENT_3D('',#621,#622,#623);
#621 = CARTESIAN_POINT('',(0.,0.,123.90625));
#622 = DIRECTION('',(0.,0.,1.));
#623 = DIRECTION('',(0.769399555047,-0.638767817516,0.));
#624 = ADVANCED_FACE('',(#625),#644,.T.);
#625 = FACE_BOUND('',#626,.T.);
#626 = EDGE_LOOP('',(#627,#636,#642,#643));
#627 = ORIENTED_EDGE('',*,*,#628,.T.);
#628 = EDGE_CURVE('',#582,#629,#631,.T.);
#629 = VERTEX_POINT('',#630);
#630 = CARTESIAN_POINT('',(29.199074400422,-9.318613317366,126.40625));
#631 = CIRCLE('',#632,30.65);
#632 = AXIS2_PLACEMENT_3D('',#633,#634,#635);
#633 = CARTESIAN_POINT('',(0.,0.,126.40625));
#634 = DIRECTION('',(-0.,0.,1.));
#635 = DIRECTION('',(0.769399555047,-0.638767817516,0.));
#636 = ORIENTED_EDGE('',*,*,#637,.F.);
#637 = EDGE_CURVE('',#221,#629,#638,.T.);
#638 = LINE('',#639,#640);
#639 = CARTESIAN_POINT('',(0.,0.,126.40625));
#640 = VECTOR('',#641,1.);
#641 = DIRECTION('',(0.952661481254,-0.304033060925,0.));
#642 = ORIENTED_EDGE('',*,*,#220,.F.);
#643 = ORIENTED_EDGE('',*,*,#589,.T.);
#644 = PLANE('',#645);
#645 = AXIS2_PLACEMENT_3D('',#646,#647,#648);
#646 = CARTESIAN_POINT('',(0.,0.,126.40625));
#647 = DIRECTION('',(0.,0.,1.));
#648 = DIRECTION('',(0.769399555047,-0.638767817516,0.));
#649 = ADVANCED_FACE('',(#650),#661,.F.);
#650 = FACE_BOUND('',#651,.F.);
#651 = EDGE_LOOP('',(#652,#653,#654,#655));
#652 = ORIENTED_EDGE('',*,*,#637,.F.);
#653 = ORIENTED_EDGE('',*,*,#229,.F.);
#654 = ORIENTED_EDGE('',*,*,#612,.T.);
#655 = ORIENTED_EDGE('',*,*,#656,.T.);
#656 = EDGE_CURVE('',#604,#629,#657,.T.);
#657 = LINE('',#658,#659);
#658 = CARTESIAN_POINT('',(29.199074400422,-9.318613317366,123.90625));
#659 = VECTOR('',#660,1.);
#660 = DIRECTION('',(0.,0.,1.));
#661 = PLANE('',#662);
#662 = AXIS2_PLACEMENT_3D('',#663,#664,#665);
#663 = CARTESIAN_POINT('',(0.,0.,123.90625));
#664 = DIRECTION('',(-0.304033060925,-0.952661481254,0.));
#665 = DIRECTION('',(0.952661481254,-0.304033060925,0.));
#666 = ADVANCED_FACE('',(#667),#686,.F.);
#667 = FACE_BOUND('',#668,.F.);
#668 = EDGE_LOOP('',(#669,#677,#684,#685));
#669 = ORIENTED_EDGE('',*,*,#670,.T.);
#670 = EDGE_CURVE('',#247,#671,#673,.T.);
#671 = VERTEX_POINT('',#672);
#672 = CARTESIAN_POINT('',(-19.96346412659,-3.326048716765,126.90625));
#673 = LINE('',#674,#675);
#674 = CARTESIAN_POINT('',(-35.84569618259,-6.99275090257,126.90625));
#675 = VECTOR('',#676,1.);
#676 = DIRECTION('',(0.974370064785,0.224951054344,0.));
#677 = ORIENTED_EDGE('',*,*,#678,.F.);
#678 = EDGE_CURVE('',#671,#671,#679,.T.);
#679 = CIRCLE('',#680,1.25);
#680 = AXIS2_PLACEMENT_3D('',#681,#682,#683);
#681 = CARTESIAN_POINT('',(-19.68227530866,-4.544011297746,126.90625));
#682 = DIRECTION('',(0.974370064785,0.224951054344,-0.));
#683 = DIRECTION('',(-0.224951054344,0.974370064785,0.));
#684 = ORIENTED_EDGE('',*,*,#670,.F.);
#685 = ORIENTED_EDGE('',*,*,#246,.T.);
#686 = CYLINDRICAL_SURFACE('',#687,1.25);
#687 = AXIS2_PLACEMENT_3D('',#688,#689,#690);
#688 = CARTESIAN_POINT('',(-35.56450736466,-8.210713483551,126.90625));
#689 = DIRECTION('',(0.974370064785,0.224951054344,0.));
#690 = DIRECTION('',(-0.224951054344,0.974370064785,0.));
#691 = ADVANCED_FACE('',(#692),#711,.F.);
#692 = FACE_BOUND('',#693,.F.);
#693 = EDGE_LOOP('',(#694,#695,#703,#710));
#694 = ORIENTED_EDGE('',*,*,#306,.F.);
#695 = ORIENTED_EDGE('',*,*,#696,.F.);
#696 = EDGE_CURVE('',#697,#307,#699,.T.);
#697 = VERTEX_POINT('',#698);
#698 = CARTESIAN_POINT('',(-10.06813787033,-6.65,131.90625));
#699 = LINE('',#700,#701);
#700 = CARTESIAN_POINT('',(-10.06813787033,-6.65,130.90625));
#701 = VECTOR('',#702,1.);
#702 = DIRECTION('',(0.,0.,1.));
#703 = ORIENTED_EDGE('',*,*,#704,.T.);
#704 = EDGE_CURVE('',#697,#697,#705,.T.);
#705 = CIRCLE('',#706,1.45);
#706 = AXIS2_PLACEMENT_3D('',#707,#708,#709);
#707 = CARTESIAN_POINT('',(-11.51813787033,-6.65,131.90625));
#708 = DIRECTION('',(0.,0.,1.));
#709 = DIRECTION('',(1.,0.,0.));
#710 = ORIENTED_EDGE('',*,*,#696,.T.);
#711 = CYLINDRICAL_SURFACE('',#712,1.45);
#712 = AXIS2_PLACEMENT_3D('',#713,#714,#715);
#713 = CARTESIAN_POINT('',(-11.51813787033,-6.65,130.90625));
#714 = DIRECTION('',(0.,0.,1.));
#715 = DIRECTION('',(1.,0.,0.));
#716 = ADVANCED_FACE('',(#717),#736,.F.);
#717 = FACE_BOUND('',#718,.F.);
#718 = EDGE_LOOP('',(#719,#720,#728,#735));
#719 = ORIENTED_EDGE('',*,*,#317,.F.);
#720 = ORIENTED_EDGE('',*,*,#721,.F.);
#721 = EDGE_CURVE('',#722,#318,#724,.T.);
#722 = VERTEX_POINT('',#723);
#723 = CARTESIAN_POINT('',(12.968137870333,-6.65,131.90625));
#724 = LINE('',#725,#726);
#725 = CARTESIAN_POINT('',(12.968137870333,-6.65,130.90625));
#726 = VECTOR('',#727,1.);
#727 = DIRECTION('',(0.,0.,1.));
#728 = ORIENTED_EDGE('',*,*,#729,.T.);
#729 = EDGE_CURVE('',#722,#722,#730,.T.);
#730 = CIRCLE('',#731,1.45);
#731 = AXIS2_PLACEMENT_3D('',#732,#733,#734);
#732 = CARTESIAN_POINT('',(11.518137870333,-6.65,131.90625));
#733 = DIRECTION('',(0.,0.,1.));
#734 = DIRECTION('',(1.,0.,0.));
#735 = ORIENTED_EDGE('',*,*,#721,.T.);
#736 = CYLINDRICAL_SURFACE('',#737,1.45);
#737 = AXIS2_PLACEMENT_3D('',#738,#739,#740);
#738 = CARTESIAN_POINT('',(11.518137870333,-6.65,130.90625));
#739 = DIRECTION('',(0.,0.,1.));
#740 = DIRECTION('',(1.,0.,0.));
#741 = ADVANCED_FACE('',(#742),#761,.F.);
#742 = FACE_BOUND('',#743,.F.);
#743 = EDGE_LOOP('',(#744,#745,#753,#760));
#744 = ORIENTED_EDGE('',*,*,#328,.F.);
#745 = ORIENTED_EDGE('',*,*,#746,.F.);
#746 = EDGE_CURVE('',#747,#329,#749,.T.);
#747 = VERTEX_POINT('',#748);
#748 = CARTESIAN_POINT('',(6.,-1.E-15,131.90625));
#749 = LINE('',#750,#751);
#750 = CARTESIAN_POINT('',(6.,-1.47E-15,102.90625));
#751 = VECTOR('',#752,1.);
#752 = DIRECTION('',(0.,0.,1.));
#753 = ORIENTED_EDGE('',*,*,#754,.T.);
#754 = EDGE_CURVE('',#747,#747,#755,.T.);
#755 = CIRCLE('',#756,6.);
#756 = AXIS2_PLACEMENT_3D('',#757,#758,#759);
#757 = CARTESIAN_POINT('',(0.,0.,131.90625));
#758 = DIRECTION('',(0.,0.,1.));
#759 = DIRECTION('',(1.,0.,0.));
#760 = ORIENTED_EDGE('',*,*,#746,.T.);
#761 = CYLINDRICAL_SURFACE('',#762,6.);
#762 = AXIS2_PLACEMENT_3D('',#763,#764,#765);
#763 = CARTESIAN_POINT('',(0.,0.,102.90625));
#764 = DIRECTION('',(0.,0.,1.));
#765 = DIRECTION('',(1.,0.,0.));
#766 = ADVANCED_FACE('',(#767),#786,.F.);
#767 = FACE_BOUND('',#768,.F.);
#768 = EDGE_LOOP('',(#769,#770,#778,#785));
#769 = ORIENTED_EDGE('',*,*,#339,.F.);
#770 = ORIENTED_EDGE('',*,*,#771,.F.);
#771 = EDGE_CURVE('',#772,#340,#774,.T.);
#772 = VERTEX_POINT('',#773);
#773 = CARTESIAN_POINT('',(1.45,13.3,131.90625));
#774 = LINE('',#775,#776);
#775 = CARTESIAN_POINT('',(1.45,13.3,130.90625));
#776 = VECTOR('',#777,1.);
#777 = DIRECTION('',(0.,0.,1.));
#778 = ORIENTED_EDGE('',*,*,#779,.T.);
#779 = EDGE_CURVE('',#772,#772,#780,.T.);
#780 = CIRCLE('',#781,1.45);
#781 = AXIS2_PLACEMENT_3D('',#782,#783,#784);
#782 = CARTESIAN_POINT('',(8.1E-16,13.3,131.90625));
#783 = DIRECTION('',(0.,0.,1.));
#784 = DIRECTION('',(1.,0.,0.));
#785 = ORIENTED_EDGE('',*,*,#771,.T.);
#786 = CYLINDRICAL_SURFACE('',#787,1.45);
#787 = AXIS2_PLACEMENT_3D('',#788,#789,#790);
#788 = CARTESIAN_POINT('',(8.1E-16,13.3,130.90625));
#789 = DIRECTION('',(0.,0.,1.));
#790 = DIRECTION('',(1.,0.,0.));
#791 = ADVANCED_FACE('',(#792),#811,.F.);
#792 = FACE_BOUND('',#793,.F.);
#793 = EDGE_LOOP('',(#794,#802,#809,#810));
#794 = ORIENTED_EDGE('',*,*,#795,.T.);
#795 = EDGE_CURVE('',#360,#796,#798,.T.);
#796 = VERTEX_POINT('',#797);
#797 = CARTESIAN_POINT('',(25.65,-6.E-15,105.39625));
#798 = LINE('',#799,#800);
#799 = CARTESIAN_POINT('',(27.15,-6.65E-15,103.89625));
#800 = VECTOR('',#801,1.);
#801 = DIRECTION('',(-0.707106781187,1.7E-16,0.707106781187));
#802 = ORIENTED_EDGE('',*,*,#803,.F.);
#803 = EDGE_CURVE('',#796,#796,#804,.T.);
#804 = CIRCLE('',#805,25.65);
#805 = AXIS2_PLACEMENT_3D('',#806,#807,#808);
#806 = CARTESIAN_POINT('',(0.,0.,105.39625));
#807 = DIRECTION('',(0.,0.,1.));
#808 = DIRECTION('',(1.,0.,0.));
#809 = ORIENTED_EDGE('',*,*,#795,.F.);
#810 = ORIENTED_EDGE('',*,*,#359,.T.);
#811 = CONICAL_SURFACE('',#812,27.15,0.785398163397);
#812 = AXIS2_PLACEMENT_3D('',#813,#814,#815);
#813 = CARTESIAN_POINT('',(0.,0.,103.89625));
#814 = DIRECTION('',(-0.,-0.,-1.));
#815 = DIRECTION('',(1.,0.,0.));
#816 = ADVANCED_FACE('',(#817),#823,.T.);
#817 = FACE_BOUND('',#818,.T.);
#818 = EDGE_LOOP('',(#819,#820,#821,#822));
#819 = ORIENTED_EDGE('',*,*,#432,.F.);
#820 = ORIENTED_EDGE('',*,*,#385,.F.);
#821 = ORIENTED_EDGE('',*,*,#407,.T.);
#822 = ORIENTED_EDGE('',*,*,#460,.T.);
#823 = CYLINDRICAL_SURFACE('',#824,30.65);
#824 = AXIS2_PLACEMENT_3D('',#825,#826,#827);
#825 = CARTESIAN_POINT('',(0.,0.,123.90625));
#826 = DIRECTION('',(0.,0.,1.));
#827 = DIRECTION('',(0.168489379565,0.985703469089,0.));
#828 = ADVANCED_FACE('',(#829),#835,.T.);
#829 = FACE_BOUND('',#830,.T.);
#830 = EDGE_LOOP('',(#831,#832,#833,#834));
#831 = ORIENTED_EDGE('',*,*,#530,.F.);
#832 = ORIENTED_EDGE('',*,*,#483,.F.);
#833 = ORIENTED_EDGE('',*,*,#505,.T.);
#834 = ORIENTED_EDGE('',*,*,#558,.T.);
#835 = CYLINDRICAL_SURFACE('',#836,30.65);
#836 = AXIS2_PLACEMENT_3D('',#837,#838,#839);
#837 = CARTESIAN_POINT('',(0.,0.,123.90625));
#838 = DIRECTION('',(0.,0.,1.));
#839 = DIRECTION('',(-0.937888934612,-0.346935651573,0.));
#840 = ADVANCED_FACE('',(#841),#847,.T.);
#841 = FACE_BOUND('',#842,.T.);
#842 = EDGE_LOOP('',(#843,#844,#845,#846));
#843 = ORIENTED_EDGE('',*,*,#628,.F.);
#844 = ORIENTED_EDGE('',*,*,#581,.F.);
#845 = ORIENTED_EDGE('',*,*,#603,.T.);
#846 = ORIENTED_EDGE('',*,*,#656,.T.);
#847 = CYLINDRICAL_SURFACE('',#848,30.65);
#848 = AXIS2_PLACEMENT_3D('',#849,#850,#851);
#849 = CARTESIAN_POINT('',(0.,0.,123.90625));
#850 = DIRECTION('',(0.,0.,1.));
#851 = DIRECTION('',(0.769399555047,-0.638767817516,0.));
#852 = ADVANCED_FACE('',(#853),#856,.F.);
#853 = FACE_BOUND('',#854,.F.);
#854 = EDGE_LOOP('',(#855));
#855 = ORIENTED_EDGE('',*,*,#678,.T.);
#856 = PLANE('',#857);
#857 = AXIS2_PLACEMENT_3D('',#858,#859,#860);
#858 = CARTESIAN_POINT('',(-19.68227530866,-4.544011297746,126.90625));
#859 = DIRECTION('',(0.974370064785,0.224951054344,0.));
#860 = DIRECTION('',(-0.224951054344,0.974370064785,0.));
#861 = ADVANCED_FACE('',(#862,#873,#876,#879,#882),#885,.F.);
#862 = FACE_BOUND('',#863,.F.);
#863 = EDGE_LOOP('',(#864));
#864 = ORIENTED_EDGE('',*,*,#865,.T.);
#865 = EDGE_CURVE('',#866,#866,#868,.T.);
#866 = VERTEX_POINT('',#867);
#867 = CARTESIAN_POINT('',(25.65,-6.E-15,131.90625));
#868 = CIRCLE('',#869,25.65);
#869 = AXIS2_PLACEMENT_3D('',#870,#871,#872);
#870 = CARTESIAN_POINT('',(0.,0.,131.90625));
#871 = DIRECTION('',(0.,0.,1.));
#872 = DIRECTION('',(1.,0.,0.));
#873 = FACE_BOUND('',#874,.F.);
#874 = EDGE_LOOP('',(#875));
#875 = ORIENTED_EDGE('',*,*,#704,.F.);
#876 = FACE_BOUND('',#877,.F.);
#877 = EDGE_LOOP('',(#878));
#878 = ORIENTED_EDGE('',*,*,#729,.F.);
#879 = FACE_BOUND('',#880,.F.);
#880 = EDGE_LOOP('',(#881));
#881 = ORIENTED_EDGE('',*,*,#754,.F.);
#882 = FACE_BOUND('',#883,.F.);
#883 = EDGE_LOOP('',(#884));
#884 = ORIENTED_EDGE('',*,*,#779,.F.);
#885 = PLANE('',#886);
#886 = AXIS2_PLACEMENT_3D('',#887,#888,#889);
#887 = CARTESIAN_POINT('',(0.,0.,131.90625));
#888 = DIRECTION('',(0.,0.,1.));
#889 = DIRECTION('',(1.,0.,0.));
#890 = ADVANCED_FACE('',(#891,#902),#974,.F.);
#891 = FACE_BOUND('',#892,.F.);
#892 = EDGE_LOOP('',(#893,#894,#900,#901));
#893 = ORIENTED_EDGE('',*,*,#803,.T.);
#894 = ORIENTED_EDGE('',*,*,#895,.T.);
#895 = EDGE_CURVE('',#796,#866,#896,.T.);
#896 = LINE('',#897,#898);
#897 = CARTESIAN_POINT('',(25.65,-6.28E-15,102.90625));
#898 = VECTOR('',#899,1.);
#899 = DIRECTION('',(0.,0.,1.));
#900 = ORIENTED_EDGE('',*,*,#865,.F.);
#901 = ORIENTED_EDGE('',*,*,#895,.F.);
#902 = FACE_BOUND('',#903,.F.);
#903 = EDGE_LOOP('',(#904));
#904 = ORIENTED_EDGE('',*,*,#905,.T.);
#905 = EDGE_CURVE('',#906,#906,#908,.T.);
#906 = VERTEX_POINT('',#907);
#907 = CARTESIAN_POINT('',(-25.54615639729,-2.305730540378,126.90625));
#908 = B_SPLINE_CURVE_WITH_KNOTS('',8,(#909,#910,#911,#912,#913,#914,
    #915,#916,#917,#918,#919,#920,#921,#922,#923,#924,#925,#926,#927,
    #928,#929,#930,#931,#932,#933,#934,#935,#936,#937,#938,#939,#940,
    #941,#942,#943,#944,#945,#946,#947,#948,#949,#950,#951,#952,#953,
    #954,#955,#956,#957,#958,#959,#960,#961,#962,#963,#964,#965,#966,
    #967,#968,#969,#970,#971,#972,#973),.UNSPECIFIED.,.T.,.F.,(9,7,7,7,7
    ,7,7,7,7,9),(0.,0.104189127445,0.201077194331,0.278596296735,
    0.371349196592,0.481570470005,0.594544353675,0.692850107809,
    0.827957636553,1.),.UNSPECIFIED.);
#909 = CARTESIAN_POINT('',(-25.54615639729,-2.305730540378,126.90625));
#910 = CARTESIAN_POINT('',(-25.54615639729,-2.305730540378,
    127.15513820883));
#911 = CARTESIAN_POINT('',(-25.54432110027,-2.326065692512,
    127.40391221325));
#912 = CARTESIAN_POINT('',(-25.54065287483,-2.366704592852,
    127.65164105801));
#913 = CARTESIAN_POINT('',(-25.53504527027,-2.427822854965,
    127.89734797055));
#914 = CARTESIAN_POINT('',(-25.52728347158,-2.50977862029,
    128.13993970097));
#915 = CARTESIAN_POINT('',(-25.51703688004,-2.613082395211,
    128.37811904613));
#916 = CARTESIAN_POINT('',(-25.50384381924,-2.738361214811,
    128.61028055783));
#917 = CARTESIAN_POINT('',(-25.47150705346,-3.023905030272,
    129.04279386671));
#918 = CARTESIAN_POINT('',(-25.45278851036,-3.18160357678,
    129.24499270509));
#919 = CARTESIAN_POINT('',(-25.43043042197,-3.359947970125,
    129.43883440483));
#920 = CARTESIAN_POINT('',(-25.40383686955,-3.559308187087,
    129.62185224748));
#921 = CARTESIAN_POINT('',(-25.37232087558,-3.779841789787,
    129.79123580529));
#922 = CARTESIAN_POINT('',(-25.3351153633,-4.021419916907,
    129.94378153652));
#923 = CARTESIAN_POINT('',(-25.2914181425,-4.283518505552,
    130.07581435875));
#924 = CARTESIAN_POINT('',(-25.19975469907,-4.790330548584,
    130.26888777258));
#925 = CARTESIAN_POINT('',(-25.1543213619,-5.028412485936,
    130.33898448455));
#926 = CARTESIAN_POINT('',(-25.10429528779,-5.276080079453,
    130.3900339465));
#927 = CARTESIAN_POINT('',(-25.04999017613,-5.529676864991,
    130.41978543687));
#928 = CARTESIAN_POINT('',(-24.9920006933,-5.785320332009,
    130.42706167641));
#929 = CARTESIAN_POINT('',(-24.93121127968,-6.039090011611,
    130.41176245142));
#930 = CARTESIAN_POINT('',(-24.86874772941,-6.287205756442,
    130.37487593306));
#931 = CARTESIAN_POINT('',(-24.73063913603,-6.812152281902,
    130.25104018698));
#932 = CARTESIAN_POINT('',(-24.6555375647,-7.082299606063,
    130.15632529491));
#933 = CARTESIAN_POINT('',(-24.58175667219,-7.334895653034,
    130.03799149019));
#934 = CARTESIAN_POINT('',(-24.51043302751,-7.568753620423,
    129.89949713975));
#935 = CARTESIAN_POINT('',(-24.44258497867,-7.783137653902,
    129.74416954878));
#936 = CARTESIAN_POINT('',(-24.37906323474,-7.977693596207,
    129.57523654644));
#937 = CARTESIAN_POINT('',(-24.32051697647,-8.152415266574,
    129.39584061186));
#938 = CARTESIAN_POINT('',(-24.20422575354,-8.492112297682,
    128.98704902774));
#939 = CARTESIAN_POINT('',(-24.14817157699,-8.650621794105,
    128.75271413518));
#940 = CARTESIAN_POINT('',(-24.09967331258,-8.784351574536,
    128.50913012954));
#941 = CARTESIAN_POINT('',(-24.05900090721,-8.894400201026,
    128.25866860434));
#942 = CARTESIAN_POINT('',(-24.02629551001,-8.981707394833,
    128.00317117025));
#943 = CARTESIAN_POINT('',(-24.00162634073,-9.046995042441,
    127.74410549005));
#944 = CARTESIAN_POINT('',(-23.98503453933,-9.09071986604,
    127.48268874028));
#945 = CARTESIAN_POINT('',(-23.96786513799,-9.135892899141,
    126.95072585634));
#946 = CARTESIAN_POINT('',(-23.96770804717,-9.136231183516,
    126.68043082465));
#947 = CARTESIAN_POINT('',(-23.97609172574,-9.114282067376,
    126.41033811719));
#948 = CARTESIAN_POINT('',(-23.99300818339,-9.069965057891,
    126.14166046583));
#949 = CARTESIAN_POINT('',(-24.01843108853,-9.002911121691,
    125.87569724219));
#950 = CARTESIAN_POINT('',(-24.05229475722,-8.91248804423,
    125.61395649469));
#951 = CARTESIAN_POINT('',(-24.09445794025,-8.797824333616,
    125.35829758556));
#952 = CARTESIAN_POINT('',(-24.18833493786,-8.536023615311,
    124.89600240455));
#953 = CARTESIAN_POINT('',(-24.2382161443,-8.394706070566,
    124.68672882262));
#954 = CARTESIAN_POINT('',(-24.29412604845,-8.233143159135,
    124.48519104626));
#955 = CARTESIAN_POINT('',(-24.35575915427,-8.050629814793,
    124.29365022926));
#956 = CARTESIAN_POINT('',(-24.42265022747,-7.846548269793,
    124.11475868135));
#957 = CARTESIAN_POINT('',(-24.49413853624,-7.620446764764,
    123.95162184069));
#958 = CARTESIAN_POINT('',(-24.56934525475,-7.372164516801,
    123.80789199549));
#959 = CARTESIAN_POINT('',(-24.7541671965,-6.73074993412,123.52299440029
    ));
#960 = CARTESIAN_POINT('',(-24.86609225518,-6.318297067738,
    123.40297721038));
#961 = CARTESIAN_POINT('',(-24.97657390017,-5.877917279104,
    123.34456922754));
#962 = CARTESIAN_POINT('',(-25.07915293677,-5.426830506381,
    123.35605343638));
#963 = CARTESIAN_POINT('',(-25.16914723671,-4.984061473041,
    123.43758106223));
#964 = CARTESIAN_POINT('',(-25.2448934004,-4.568477567359,
    123.58141632668));
#965 = CARTESIAN_POINT('',(-25.30665221421,-4.195343174903,
    123.7719023885));
#966 = CARTESIAN_POINT('',(-25.41796592846,-3.466964900581,
    124.25690669876));
#967 = CARTESIAN_POINT('',(-25.46269384489,-3.124048705279,
    124.57924594009));
#968 = CARTESIAN_POINT('',(-25.49433749303,-2.84506031571,
    124.93456909121));
#969 = CARTESIAN_POINT('',(-25.51655075585,-2.626767440548,
    125.31133634274));
#970 = CARTESIAN_POINT('',(-25.53171165166,-2.465755849161,
    125.70157568334));
#971 = CARTESIAN_POINT('',(-25.54132590635,-2.359252428387,
    126.09985170951));
#972 = CARTESIAN_POINT('',(-25.54615639729,-2.305730540378,
    126.50247294533));
#973 = CARTESIAN_POINT('',(-25.54615639729,-2.305730540378,126.90625));
#974 = CYLINDRICAL_SURFACE('',#975,25.65);
#975 = AXIS2_PLACEMENT_3D('',#976,#977,#978);
#976 = CARTESIAN_POINT('',(0.,0.,102.90625));
#977 = DIRECTION('',(0.,0.,1.));
#978 = DIRECTION('',(1.,0.,0.));
#979 = ADVANCED_FACE('',(#980),#999,.T.);
#980 = FACE_BOUND('',#981,.T.);
#981 = EDGE_LOOP('',(#982,#990,#997,#998));
#982 = ORIENTED_EDGE('',*,*,#983,.T.);
#983 = EDGE_CURVE('',#906,#984,#986,.T.);
#984 = VERTEX_POINT('',#985);
#985 = CARTESIAN_POINT('',(-20.12857447619,-1.054983201977,126.90625));
#986 = LINE('',#987,#988);
#987 = CARTESIAN_POINT('',(-27.43634996208,-2.742116109556,126.90625));
#988 = VECTOR('',#989,1.);
#989 = DIRECTION('',(0.974370064785,0.224951054344,0.));
#990 = ORIENTED_EDGE('',*,*,#991,.F.);
#991 = EDGE_CURVE('',#984,#984,#992,.T.);
#992 = CIRCLE('',#993,3.5);
#993 = AXIS2_PLACEMENT_3D('',#994,#995,#996);
#994 = CARTESIAN_POINT('',(-19.34124578598,-4.465278428726,126.90625));
#995 = DIRECTION('',(0.974370064785,0.224951054344,-0.));
#996 = DIRECTION('',(-0.224951054344,0.974370064785,0.));
#997 = ORIENTED_EDGE('',*,*,#983,.F.);
#998 = ORIENTED_EDGE('',*,*,#905,.T.);
#999 = CYLINDRICAL_SURFACE('',#1000,3.5);
#1000 = AXIS2_PLACEMENT_3D('',#1001,#1002,#1003);
#1001 = CARTESIAN_POINT('',(-26.64902127187,-6.152411336305,126.90625));
#1002 = DIRECTION('',(0.974370064785,0.224951054344,0.));
#1003 = DIRECTION('',(-0.224951054344,0.974370064785,0.));
#1004 = ADVANCED_FACE('',(#1005),#1008,.T.);
#1005 = FACE_BOUND('',#1006,.T.);
#1006 = EDGE_LOOP('',(#1007));
#1007 = ORIENTED_EDGE('',*,*,#991,.T.);
#1008 = PLANE('',#1009);
#1009 = AXIS2_PLACEMENT_3D('',#1010,#1011,#1012);
#1010 = CARTESIAN_POINT('',(-19.34124578598,-4.465278428726,126.90625));
#1011 = DIRECTION('',(0.974370064785,0.224951054344,0.));
#1012 = DIRECTION('',(-0.224951054344,0.974370064785,0.));
#1013 = ( GEOMETRIC_REPRESENTATION_CONTEXT(3) 
GLOBAL_UNCERTAINTY_ASSIGNED_CONTEXT((#1017)) 
GLOBAL_UNIT_ASSIGNED_CONTEXT((#1014,#1015,#1016)) REPRESENTATION_CONTEXT
('Context #1','3D Context with UNIT and UNCERTAINTY') );
#1014 = ( LENGTH_UNIT() NAMED_UNIT(*) SI_UNIT(.MILLI.,.METRE.) );
#1015 = ( NAMED_UNIT(*) PLANE_ANGLE_UNIT() SI_UNIT($,.RADIAN.) );
#1016 = ( NAMED_UNIT(*) SI_UNIT($,.STERADIAN.) SOLID_ANGLE_UNIT() );
#1017 = UNCERTAINTY_MEASURE_WITH_UNIT(LENGTH_MEASURE(1.E-07),#1014,
  'distance_accuracy_value','confusion accuracy');
#1018 = PRODUCT_RELATED_PRODUCT_CATEGORY('part',$,(#7));
ENDSEC;
END-ISO-10303-21;
