ISO-10303-21;
HEADER;
FILE_DESCRIPTION(('FreeCAD Model'),'2;1');
FILE_NAME('Open CASCADE Shape Model','2026-09-25T18:51:14',('FreeCAD'),(
    'FreeCAD'),'Open CASCADE STEP processor 7.8','FreeCAD','Unknown');
FILE_SCHEMA(('AUTOMOTIVE_DESIGN { 1 0 10303 214 1 1 1 1 }'));
ENDSEC;
DATA;
#1 = APPLICATION_PROTOCOL_DEFINITION('international standard',
  'automotive_design',2000,#2);
#2 = APPLICATION_CONTEXT(
  'core data for automotive mechanical design processes');
#3 = SHAPE_DEFINITION_REPRESENTATION(#4,#10);
#4 = PRODUCT_DEFINITION_SHAPE('','',#5);
#5 = PRODUCT_DEFINITION('design','',#6,#9);
#6 = PRODUCT_DEFINITION_FORMATION('','',#7);
#7 = PRODUCT('Open CASCADE STEP translator 7.8 5',
  'Open CASCADE STEP translator 7.8 5','',(#8));
#8 = PRODUCT_CONTEXT('',#2,'mechanical');
#9 = PRODUCT_DEFINITION_CONTEXT('part definition',#2,'design');
#10 = ADVANCED_BREP_SHAPE_REPRESENTATION('',(#11,#15),#1126);
#11 = AXIS2_PLACEMENT_3D('',#12,#13,#14);
#12 = CARTESIAN_POINT('',(0.,0.,0.));
#13 = DIRECTION('',(0.,0.,1.));
#14 = DIRECTION('',(1.,0.,-0.));
#15 = MANIFOLD_SOLID_BREP('',#16);
#16 = CLOSED_SHELL('',(#17,#430,#462,#486,#510,#528,#553,#624,#689,#721,
    #768,#815,#833,#898,#923,#1052,#1072,#1092,#1109));
#17 = ADVANCED_FACE('',(#18,#54,#119,#176,#227,#309,#360),#425,.T.);
#18 = FACE_BOUND('',#19,.T.);
#19 = EDGE_LOOP('',(#20,#31,#39,#48));
#20 = ORIENTED_EDGE('',*,*,#21,.F.);
#21 = EDGE_CURVE('',#22,#24,#26,.T.);
#22 = VERTEX_POINT('',#23);
#23 = CARTESIAN_POINT('',(18.537738314135,29.096430334264,97.7));
#24 = VERTEX_POINT('',#25);
#25 = CARTESIAN_POINT('',(-18.53773831413,29.096430334264,97.7));
#26 = CIRCLE('',#27,34.5);
#27 = AXIS2_PLACEMENT_3D('',#28,#29,#30);
#28 = CARTESIAN_POINT('',(0.,0.,97.7));
#29 = DIRECTION('',(0.,-0.,1.));
#30 = DIRECTION('',(0.537325748236,0.843374792297,0.));
#31 = ORIENTED_EDGE('',*,*,#32,.F.);
#32 = EDGE_CURVE('',#33,#22,#35,.T.);
#33 = VERTEX_POINT('',#34);
#34 = CARTESIAN_POINT('',(18.537738314135,29.096430334264,40.3));
#35 = LINE('',#36,#37);
#36 = CARTESIAN_POINT('',(18.537738314135,29.096430334264,40.3));
#37 = VECTOR('',#38,1.);
#38 = DIRECTION('',(0.,0.,1.));
#39 = ORIENTED_EDGE('',*,*,#40,.T.);
#40 = EDGE_CURVE('',#33,#41,#43,.T.);
#41 = VERTEX_POINT('',#42);
#42 = CARTESIAN_POINT('',(-18.53773831413,29.096430334264,40.3));
#43 = CIRCLE('',#44,34.5);
#44 = AXIS2_PLACEMENT_3D('',#45,#46,#47);
#45 = CARTESIAN_POINT('',(0.,0.,40.3));
#46 = DIRECTION('',(0.,-0.,1.));
#47 = DIRECTION('',(0.537325748236,0.843374792297,0.));
#48 = ORIENTED_EDGE('',*,*,#49,.T.);
#49 = EDGE_CURVE('',#41,#24,#50,.T.);
#50 = LINE('',#51,#52);
#51 = CARTESIAN_POINT('',(-18.53773831413,29.096430334264,40.3));
#52 = VECTOR('',#53,1.);
#53 = DIRECTION('',(0.,0.,1.));
#54 = FACE_BOUND('',#55,.T.);
#55 = EDGE_LOOP('',(#56));
#56 = ORIENTED_EDGE('',*,*,#57,.T.);
#57 = EDGE_CURVE('',#58,#58,#60,.T.);
#58 = VERTEX_POINT('',#59);
#59 = CARTESIAN_POINT('',(-3.,34.369317712169,45.));
#60 = B_SPLINE_CURVE_WITH_KNOTS('',8,(#61,#62,#63,#64,#65,#66,#67,#68,
    #69,#70,#71,#72,#73,#74,#75,#76,#77,#78,#79,#80,#81,#82,#83,#84,#85,
    #86,#87,#88,#89,#90,#91,#92,#93,#94,#95,#96,#97,#98,#99,#100,#101,
    #102,#103,#104,#105,#106,#107,#108,#109,#110,#111,#112,#113,#114,
    #115,#116,#117,#118),.UNSPECIFIED.,.T.,.F.,(9,7,7,7,7,7,7,7,9),(0.,
    0.106444474984,0.210136392569,0.310106204419,0.43063893268,
    0.555997871765,0.670448567399,0.814216832748,1.),.UNSPECIFIED.);
#61 = CARTESIAN_POINT('',(-3.,34.369317712169,45.));
#62 = CARTESIAN_POINT('',(-3.,34.369317712169,44.764380116657));
#63 = CARTESIAN_POINT('',(-2.978851352757,34.371163620424,44.5287571223)
  );
#64 = CARTESIAN_POINT('',(-2.93655048604,34.374856190128,44.295352635913
    ));
#65 = CARTESIAN_POINT('',(-2.873382261962,34.380296400714,
    44.066383104585));
#66 = CARTESIAN_POINT('',(-2.789903577533,34.387289034488,
    43.844013477168));
#67 = CARTESIAN_POINT('',(-2.686932005063,34.395555609992,
    43.630319308757));
#68 = CARTESIAN_POINT('',(-2.56553947242,34.404756672107,43.427257295981
    ));
#69 = CARTESIAN_POINT('',(-2.292143680321,34.424037645942,
    43.050960270604));
#70 = CARTESIAN_POINT('',(-2.136941436477,34.434375715662,
    42.871484092386));
#71 = CARTESIAN_POINT('',(-1.960920601105,34.445255544168,
    42.701092943567));
#72 = CARTESIAN_POINT('',(-1.763901527741,34.456290585345,
    42.542878586912));
#73 = CARTESIAN_POINT('',(-1.546069588632,34.466994892579,
    42.400156016668));
#74 = CARTESIAN_POINT('',(-1.308026487599,34.47679812736,42.276491191011
    ));
#75 = CARTESIAN_POINT('',(-1.050889608324,34.485083476488,
    42.175756480654));
#76 = CARTESIAN_POINT('',(-0.511875639161,34.497217600471,
    42.031328122908));
#77 = CARTESIAN_POINT('',(-0.234248495202,34.501146394753,
    41.986528518111));
#78 = CARTESIAN_POINT('',(5.061353579507E-02,34.502520295646,
    41.97159483705));
#79 = CARTESIAN_POINT('',(0.336246039273,34.501046321464,41.988120439607
    ));
#80 = CARTESIAN_POINT('',(0.616034235928,34.496812197569,42.035573158787
    ));
#81 = CARTESIAN_POINT('',(0.883706755521,34.490272154207,42.111332808447
    ));
#82 = CARTESIAN_POINT('',(1.133787287347,34.482121102024,42.210714764313
    ));
#83 = CARTESIAN_POINT('',(1.637091208799,34.462236453465,42.467160921123
    ));
#84 = CARTESIAN_POINT('',(1.884146860333,34.44996239289,42.63380457235)
  );
#85 = CARTESIAN_POINT('',(2.102969183743,34.437185174606,42.820828999117
    ));
#86 = CARTESIAN_POINT('',(2.294101250277,34.42465797059,43.023451705208)
  );
#87 = CARTESIAN_POINT('',(2.458446175461,34.412946190257,43.237879685592
    ));
#88 = CARTESIAN_POINT('',(2.597030971413,34.402450428805,43.461096216855
    ));
#89 = CARTESIAN_POINT('',(2.71084872515,34.393450444356,43.690718041051)
  );
#90 = CARTESIAN_POINT('',(2.89423319166,34.378513827048,44.168450909391)
  );
#91 = CARTESIAN_POINT('',(2.96197702625,34.372703685552,44.417277291658)
  );
#92 = CARTESIAN_POINT('',(3.004816888205,34.368911099199,44.669402020217
    ));
#93 = CARTESIAN_POINT('',(3.023288769022,34.367251331768,44.923228930352
    ));
#94 = CARTESIAN_POINT('',(3.017616564796,34.367767258559,45.17735831408)
  );
#95 = CARTESIAN_POINT('',(2.987706935397,34.370439604638,45.430422005647
    ));
#96 = CARTESIAN_POINT('',(2.933142085587,34.375181703601,45.680920823491
    ));
#97 = CARTESIAN_POINT('',(2.780155908821,34.387877236405,46.151763861141
    ));
#98 = CARTESIAN_POINT('',(2.68595898944,34.395515679861,46.372850777878)
  );
#99 = CARTESIAN_POINT('',(2.569980682674,34.40460242371,46.588987105804)
  );
#100 = CARTESIAN_POINT('',(2.431419695316,34.414940622751,
    46.798463384071));
#101 = CARTESIAN_POINT('',(2.269358217936,34.426249301957,
    46.999094815244));
#102 = CARTESIAN_POINT('',(2.082873180453,34.438129438533,
    47.188098676964));
#103 = CARTESIAN_POINT('',(1.871192547294,34.450037222741,47.36192322996
    ));
#104 = CARTESIAN_POINT('',(1.335861435284,34.475418940374,
    47.709571318975));
#105 = CARTESIAN_POINT('',(0.98629050251,34.489040543877,47.879216450899
    ));
#106 = CARTESIAN_POINT('',(0.595340197167,34.499888801164,48.00129399413
    ));
#107 = CARTESIAN_POINT('',(0.17868276113,34.505581222203,48.060824542129
    ));
#108 = CARTESIAN_POINT('',(-0.24408128127,34.504557366812,
    48.051347144848));
#109 = CARTESIAN_POINT('',(-0.652852264616,34.497458527354,
    47.974914329731));
#110 = CARTESIAN_POINT('',(-1.029804400332,34.486229282143,
    47.842267162932));
#111 = CARTESIAN_POINT('',(-1.791211259037,34.456147442623,
    47.454310991003));
#112 = CARTESIAN_POINT('',(-2.151467490689,34.435796187219,
    47.171525628478));
#113 = CARTESIAN_POINT('',(-2.442883368989,34.415479391941,
    46.847919422441));
#114 = CARTESIAN_POINT('',(-2.669505293523,34.397675407385,
    46.498288758091));
#115 = CARTESIAN_POINT('',(-2.835633435743,34.383662728195,
    46.132948194438));
#116 = CARTESIAN_POINT('',(-2.945060745329,34.374113634676,
    45.758613473332));
#117 = CARTESIAN_POINT('',(-3.,34.369317712169,45.379760344786));
#118 = CARTESIAN_POINT('',(-3.,34.369317712169,45.));
#119 = FACE_BOUND('',#120,.T.);
#120 = EDGE_LOOP('',(#121));
#121 = ORIENTED_EDGE('',*,*,#122,.T.);
#122 = EDGE_CURVE('',#123,#123,#125,.T.);
#123 = VERTEX_POINT('',#124);
#124 = CARTESIAN_POINT('',(-5.2,34.105864598336,57.));
#125 = B_SPLINE_CURVE_WITH_KNOTS('',7,(#126,#127,#128,#129,#130,#131,
    #132,#133,#134,#135,#136,#137,#138,#139,#140,#141,#142,#143,#144,
    #145,#146,#147,#148,#149,#150,#151,#152,#153,#154,#155,#156,#157,
    #158,#159,#160,#161,#162,#163,#164,#165,#166,#167,#168,#169,#170,
    #171,#172,#173,#174,#175),.UNSPECIFIED.,.T.,.F.,(8,6,6,6,6,6,6,6,8),
  (0.,0.129399583074,0.250228147966,0.371056713671,0.500456296778,
    0.629855879884,0.750684444806,0.86144387312,1.),.UNSPECIFIED.);
#126 = CARTESIAN_POINT('',(-5.2,34.105864598336,57.));
#127 = CARTESIAN_POINT('',(-5.2,34.105864598336,56.481927199597));
#128 = CARTESIAN_POINT('',(-5.139782006582,34.115045716554,
    55.964555121758));
#129 = CARTESIAN_POINT('',(-5.019640709962,34.133363745562,
    55.451628743713));
#130 = CARTESIAN_POINT('',(-4.838080732977,34.160359003724,
    54.947179400184));
#131 = CARTESIAN_POINT('',(-4.592286211163,34.195112705016,
    54.456647143605));
#132 = CARTESIAN_POINT('',(-4.278380889432,34.235894491217,
    53.987607202581));
#133 = CARTESIAN_POINT('',(-3.531706587449,34.320674823129,
    53.144786144557));
#134 = CARTESIAN_POINT('',(-3.097291555602,34.365518331477,
    52.754453275231));
#135 = CARTESIAN_POINT('',(-2.588778442376,34.411013685417,
    52.404695984039));
#136 = CARTESIAN_POINT('',(-2.011851402786,34.452228948516,
    52.116957545767));
#137 = CARTESIAN_POINT('',(-1.377430577546,34.483409082841,
    51.910071072295));
#138 = CARTESIAN_POINT('',(-0.700429841502,34.5,51.8));
#139 = CARTESIAN_POINT('',(0.700429846217,34.5,51.8));
#140 = CARTESIAN_POINT('',(1.37743056041,34.483409083167,51.910071069502
    ));
#141 = CARTESIAN_POINT('',(2.011851431117,34.452228947507,
    52.116957554627));
#142 = CARTESIAN_POINT('',(2.588778417048,34.411013686752,
    52.404695971921));
#143 = CARTESIAN_POINT('',(3.097291567578,34.365518330585,
    52.754453283659));
#144 = CARTESIAN_POINT('',(3.531706585112,34.320674823394,53.14478614192
    ));
#145 = CARTESIAN_POINT('',(4.278380889432,34.235894491217,53.98760720258
    ));
#146 = CARTESIAN_POINT('',(4.592286211164,34.195112705016,
    54.456647143606));
#147 = CARTESIAN_POINT('',(4.838080732976,34.160359003724,
    54.947179400184));
#148 = CARTESIAN_POINT('',(5.019640709962,34.133363745562,
    55.451628743711));
#149 = CARTESIAN_POINT('',(5.139782006582,34.115045716554,
    55.964555121759));
#150 = CARTESIAN_POINT('',(5.2,34.105864598336,56.481927199597));
#151 = CARTESIAN_POINT('',(5.2,34.105864598336,57.518072800402));
#152 = CARTESIAN_POINT('',(5.139782006583,34.115045716554,
    58.035444878244));
#153 = CARTESIAN_POINT('',(5.01964070996,34.133363745562,58.548371256285
    ));
#154 = CARTESIAN_POINT('',(4.838080732979,34.160359003723,
    59.052820599816));
#155 = CARTESIAN_POINT('',(4.592286211162,34.195112705016,
    59.543352856396));
#156 = CARTESIAN_POINT('',(4.278380889433,34.235894491217,
    60.012392797419));
#157 = CARTESIAN_POINT('',(3.531706587448,34.320674823129,
    60.855213855444));
#158 = CARTESIAN_POINT('',(3.097291555604,34.365518331477,
    61.245546724767));
#159 = CARTESIAN_POINT('',(2.588778442373,34.411013685417,
    61.595304015964));
#160 = CARTESIAN_POINT('',(2.011851402788,34.452228948516,
    61.883042454231));
#161 = CARTESIAN_POINT('',(1.377430577546,34.483409082841,
    62.089928927706));
#162 = CARTESIAN_POINT('',(0.700429841501,34.5,62.2));
#163 = CARTESIAN_POINT('',(-0.642060169041,34.5,62.2));
#164 = CARTESIAN_POINT('',(-1.26663934682,34.486059117124,
    62.107509791301));
#165 = CARTESIAN_POINT('',(-1.857876444249,34.45954646353,
    61.931596564082));
#166 = CARTESIAN_POINT('',(-2.402603484056,34.423792932986,
    61.684291387587));
#167 = CARTESIAN_POINT('',(-2.890647271432,34.383297203353,
    61.380541589764));
#168 = CARTESIAN_POINT('',(-3.31590564338,34.342198885946,61.03800488096
    ));
#169 = CARTESIAN_POINT('',(-4.128615563713,34.255085379723,
    60.225294960627));
#170 = CARTESIAN_POINT('',(-4.494796525301,34.208816781611,
    59.729661461313));
#171 = CARTESIAN_POINT('',(-4.780558453154,34.168892771176,
    59.206402318539));
#172 = CARTESIAN_POINT('',(-4.991087498621,34.137717780043,
    58.665651119026));
#173 = CARTESIAN_POINT('',(-5.130209410975,34.116505057403,
    58.114451441829));
#174 = CARTESIAN_POINT('',(-5.2,34.105864598336,57.557731985325));
#175 = CARTESIAN_POINT('',(-5.2,34.105864598336,57.));
#176 = FACE_BOUND('',#177,.T.);
#177 = EDGE_LOOP('',(#178));
#178 = ORIENTED_EDGE('',*,*,#179,.T.);
#179 = EDGE_CURVE('',#180,#180,#182,.T.);
#180 = VERTEX_POINT('',#181);
#181 = CARTESIAN_POINT('',(2.9,34.377899877683,71.));
#182 = B_SPLINE_CURVE_WITH_KNOTS('',7,(#183,#184,#185,#186,#187,#188,
    #189,#190,#191,#192,#193,#194,#195,#196,#197,#198,#199,#200,#201,
    #202,#203,#204,#205,#206,#207,#208,#209,#210,#211,#212,#213,#214,
    #215,#216,#217,#218,#219,#220,#221,#222,#223,#224,#225,#226),
  .UNSPECIFIED.,.T.,.F.,(8,6,6,6,6,6,6,8),(0.,0.151777948336,
    0.285888468356,0.422912495786,0.587542227953,0.714158856936,
    0.838728452215,1.),.UNSPECIFIED.);
#183 = CARTESIAN_POINT('',(2.9,34.377899877683,71.));
#184 = CARTESIAN_POINT('',(2.9,34.377899877683,70.808503233667));
#185 = CARTESIAN_POINT('',(2.926738250509,34.375644274145,
    70.616998648487));
#186 = CARTESIAN_POINT('',(2.98022599958,34.371132533909,70.427945764853
    ));
#187 = CARTESIAN_POINT('',(3.061196633366,34.364169405605,
    70.244122712087));
#188 = CARTESIAN_POINT('',(3.170782188864,34.35439846848,70.069102414354
    ));
#189 = CARTESIAN_POINT('',(3.310211580949,34.341253114682,
    69.907740617228));
#190 = CARTESIAN_POINT('',(3.630253591837,34.308803974721,
    69.642978840088));
#191 = CARTESIAN_POINT('',(3.808695962871,34.289937233078,
    69.531285211898));
#192 = CARTESIAN_POINT('',(4.011767283069,34.267275157341,69.44434331687
    ));
#193 = CARTESIAN_POINT('',(4.232064986422,34.240993506197,
    69.390526573208));
#194 = CARTESIAN_POINT('',(4.459868610388,34.21179758833,69.374215180733
    ));
#195 = CARTESIAN_POINT('',(4.684874905137,34.181109723283,
    69.395570413499));
#196 = CARTESIAN_POINT('',(5.11556071764,34.119340373788,69.506151735179
    ));
#197 = CARTESIAN_POINT('',(5.314340460226,34.089179448869,
    69.595204495319));
#198 = CARTESIAN_POINT('',(5.490567377576,34.061110926487,
    69.710375684571));
#199 = CARTESIAN_POINT('',(5.642379173326,34.036015105028,
    69.845576224234));
#200 = CARTESIAN_POINT('',(5.768977527874,34.014518257191,
    69.995303152823));
#201 = CARTESIAN_POINT('',(5.870451481828,33.99696976539,70.154542195262
    ));
#202 = CARTESIAN_POINT('',(6.040562739369,33.967197190425,
    70.516047019008));
#203 = CARTESIAN_POINT('',(6.10044851275,33.95641112617,70.724729937222)
  );
#204 = CARTESIAN_POINT('',(6.127410998128,33.951471337198,
    70.939874950552));
#205 = CARTESIAN_POINT('',(6.12114105092,33.952614937838,71.157030116517
    ));
#206 = CARTESIAN_POINT('',(6.081347061193,33.959878422984,
    71.371479969008));
#207 = CARTESIAN_POINT('',(6.008079710189,33.972997373699,
    71.578012563042));
#208 = CARTESIAN_POINT('',(5.820574594268,34.005554790398,
    71.919083102734));
#209 = CARTESIAN_POINT('',(5.71813584814,34.023106763397,72.062083845382
    ));
#210 = CARTESIAN_POINT('',(5.594170489022,34.043944985628,
    72.195874561824));
#211 = CARTESIAN_POINT('',(5.448811752704,34.067736116256,
    72.316232544837));
#212 = CARTESIAN_POINT('',(5.282940640051,34.093934554169,
    72.418650186876));
#213 = CARTESIAN_POINT('',(5.098292058758,34.121817060493,
    72.498282102824));
#214 = CARTESIAN_POINT('',(4.700755292702,34.178832143709,
    72.600352195989));
#215 = CARTESIAN_POINT('',(4.4926646951,34.207321240035,72.62259199572)
  );
#216 = CARTESIAN_POINT('',(4.281184017679,34.23467749168,72.612558177416
    ));
#217 = CARTESIAN_POINT('',(4.074864708312,34.259690022241,
    72.569962128813));
#218 = CARTESIAN_POINT('',(3.881885826502,34.281678151168,
    72.497934285652));
#219 = CARTESIAN_POINT('',(3.708829413435,34.300395193491,
    72.402889685953));
#220 = CARTESIAN_POINT('',(3.366273683777,34.335928073276,
    72.154008380145));
#221 = CARTESIAN_POINT('',(3.207492869307,34.351114443826,
    71.987210036211));
#222 = CARTESIAN_POINT('',(3.082863713478,34.362303622143,
    71.803391181347));
#223 = CARTESIAN_POINT('',(2.990917907143,34.370230905869,
    71.608702361122));
#224 = CARTESIAN_POINT('',(2.93029361964,34.375344278596,71.407727106848
    ));
#225 = CARTESIAN_POINT('',(2.9,34.377899877683,71.203825836419));
#226 = CARTESIAN_POINT('',(2.9,34.377899877683,71.));
#227 = FACE_BOUND('',#228,.T.);
#228 = EDGE_LOOP('',(#229,#240,#271,#280));
#229 = ORIENTED_EDGE('',*,*,#230,.F.);
#230 = EDGE_CURVE('',#231,#233,#235,.T.);
#231 = VERTEX_POINT('',#232);
#232 = CARTESIAN_POINT('',(2.8,34.386189088063,79.));
#233 = VERTEX_POINT('',#234);
#234 = CARTESIAN_POINT('',(-2.8,34.386189088063,79.));
#235 = CIRCLE('',#236,34.5);
#236 = AXIS2_PLACEMENT_3D('',#237,#238,#239);
#237 = CARTESIAN_POINT('',(0.,0.,79.));
#238 = DIRECTION('',(0.,-0.,1.));
#239 = DIRECTION('',(0.537325748236,0.843374792297,0.));
#240 = ORIENTED_EDGE('',*,*,#241,.F.);
#241 = EDGE_CURVE('',#242,#231,#244,.T.);
#242 = VERTEX_POINT('',#243);
#243 = CARTESIAN_POINT('',(2.8,34.386189088063,83.));
#244 = B_SPLINE_CURVE_WITH_KNOTS('',7,(#245,#246,#247,#248,#249,#250,
    #251,#252,#253,#254,#255,#256,#257,#258,#259,#260,#261,#262,#263,
    #264,#265,#266,#267,#268,#269,#270),.UNSPECIFIED.,.F.,.F.,(8,6,6,6,8
    ),(0.,0.256379685906,0.499999991521,0.743620302498,1.),
  .UNSPECIFIED.);
#245 = CARTESIAN_POINT('',(2.8,34.386189088063,83.));
#246 = CARTESIAN_POINT('',(3.07626648287,34.363693249688,83.));
#247 = CARTESIAN_POINT('',(3.34458944149,34.339237534818,82.955478661153
    ));
#248 = CARTESIAN_POINT('',(3.596822750835,34.313748034691,
    82.871040723624));
#249 = CARTESIAN_POINT('',(3.826353336401,34.288475526737,
    82.752742674352));
#250 = CARTESIAN_POINT('',(4.028282909724,34.264778154397,
    82.608010014979));
#251 = CARTESIAN_POINT('',(4.199865036403,34.243705710555,
    82.445482859401));
#252 = CARTESIAN_POINT('',(4.475162679927,34.208788358464,
    82.112705173824));
#253 = CARTESIAN_POINT('',(4.585101626154,34.194221067464,
    81.939287340601));
#254 = CARTESIAN_POINT('',(4.67176527324,34.182386188979,81.758145775405
    ));
#255 = CARTESIAN_POINT('',(4.736055728358,34.173439217138,
    81.571838737453));
#256 = CARTESIAN_POINT('',(4.778672240255,34.167451689364,
    81.382323255314));
#257 = CARTESIAN_POINT('',(4.8,34.164455212984,81.191212971927));
#258 = CARTESIAN_POINT('',(4.8,34.164455212984,80.808787023864));
#259 = CARTESIAN_POINT('',(4.778672239241,34.167451689486,
    80.617676754963));
#260 = CARTESIAN_POINT('',(4.736055733179,34.173439216535,
    80.428161255191));
#261 = CARTESIAN_POINT('',(4.671765264157,34.182386190132,
    80.241854220703));
#262 = CARTESIAN_POINT('',(4.585101634324,34.194221066423,
    80.060712667822));
#263 = CARTESIAN_POINT('',(4.475162676813,34.208788358859,
    79.887294822412));
#264 = CARTESIAN_POINT('',(4.199865036403,34.243705710555,
    79.554517140599));
#265 = CARTESIAN_POINT('',(4.028282909723,34.264778154397,
    79.391989985021));
#266 = CARTESIAN_POINT('',(3.826353336402,34.288475526737,
    79.247257325649));
#267 = CARTESIAN_POINT('',(3.596822750835,34.313748034691,
    79.128959276376));
#268 = CARTESIAN_POINT('',(3.34458944149,34.339237534818,79.044521338847
    ));
#269 = CARTESIAN_POINT('',(3.07626648287,34.363693249688,79.));
#270 = CARTESIAN_POINT('',(2.8,34.386189088063,79.));
#271 = ORIENTED_EDGE('',*,*,#272,.T.);
#272 = EDGE_CURVE('',#242,#273,#275,.T.);
#273 = VERTEX_POINT('',#274);
#274 = CARTESIAN_POINT('',(-2.8,34.386189088063,83.));
#275 = CIRCLE('',#276,34.5);
#276 = AXIS2_PLACEMENT_3D('',#277,#278,#279);
#277 = CARTESIAN_POINT('',(0.,0.,83.));
#278 = DIRECTION('',(0.,-0.,1.));
#279 = DIRECTION('',(0.537325748236,0.843374792297,0.));
#280 = ORIENTED_EDGE('',*,*,#281,.F.);
#281 = EDGE_CURVE('',#233,#273,#282,.T.);
#282 = B_SPLINE_CURVE_WITH_KNOTS('',7,(#283,#284,#285,#286,#287,#288,
    #289,#290,#291,#292,#293,#294,#295,#296,#297,#298,#299,#300,#301,
    #302,#303,#304,#305,#306,#307,#308),.UNSPECIFIED.,.F.,.F.,(8,6,6,6,8
    ),(0.,0.256379685906,0.499999991521,0.743620302498,1.),
  .UNSPECIFIED.);
#283 = CARTESIAN_POINT('',(-2.8,34.386189088063,79.));
#284 = CARTESIAN_POINT('',(-3.07626648287,34.363693249688,79.));
#285 = CARTESIAN_POINT('',(-3.34458944149,34.339237534818,
    79.044521338847));
#286 = CARTESIAN_POINT('',(-3.596822750835,34.313748034691,
    79.128959276376));
#287 = CARTESIAN_POINT('',(-3.826353336401,34.288475526737,
    79.247257325649));
#288 = CARTESIAN_POINT('',(-4.028282909723,34.264778154397,
    79.391989985021));
#289 = CARTESIAN_POINT('',(-4.199865036403,34.243705710555,
    79.554517140599));
#290 = CARTESIAN_POINT('',(-4.475162679927,34.208788358464,
    79.887294826176));
#291 = CARTESIAN_POINT('',(-4.585101626154,34.194221067464,
    80.060712659399));
#292 = CARTESIAN_POINT('',(-4.67176527324,34.182386188979,
    80.241854224594));
#293 = CARTESIAN_POINT('',(-4.736055728358,34.173439217138,
    80.428161262548));
#294 = CARTESIAN_POINT('',(-4.778672240255,34.167451689364,
    80.617676744686));
#295 = CARTESIAN_POINT('',(-4.8,34.164455212984,80.808787028073));
#296 = CARTESIAN_POINT('',(-4.8,34.164455212984,81.191212976136));
#297 = CARTESIAN_POINT('',(-4.778672239241,34.167451689486,
    81.382323245036));
#298 = CARTESIAN_POINT('',(-4.736055733179,34.173439216535,
    81.571838744811));
#299 = CARTESIAN_POINT('',(-4.671765264157,34.182386190132,
    81.758145779296));
#300 = CARTESIAN_POINT('',(-4.585101634324,34.194221066423,
    81.939287332178));
#301 = CARTESIAN_POINT('',(-4.475162676813,34.208788358859,
    82.112705177588));
#302 = CARTESIAN_POINT('',(-4.199865036403,34.243705710555,
    82.445482859401));
#303 = CARTESIAN_POINT('',(-4.028282909724,34.264778154397,
    82.608010014978));
#304 = CARTESIAN_POINT('',(-3.826353336401,34.288475526737,
    82.752742674352));
#305 = CARTESIAN_POINT('',(-3.596822750836,34.313748034691,
    82.871040723624));
#306 = CARTESIAN_POINT('',(-3.344589441489,34.339237534818,
    82.955478661153));
#307 = CARTESIAN_POINT('',(-3.07626648287,34.363693249688,83.));
#308 = CARTESIAN_POINT('',(-2.8,34.386189088063,83.));
#309 = FACE_BOUND('',#310,.T.);
#310 = EDGE_LOOP('',(#311));
#311 = ORIENTED_EDGE('',*,*,#312,.T.);
#312 = EDGE_CURVE('',#313,#313,#315,.T.);
#313 = VERTEX_POINT('',#314);
#314 = CARTESIAN_POINT('',(-6.1,33.956442687655,71.));
#315 = B_SPLINE_CURVE_WITH_KNOTS('',7,(#316,#317,#318,#319,#320,#321,
    #322,#323,#324,#325,#326,#327,#328,#329,#330,#331,#332,#333,#334,
    #335,#336,#337,#338,#339,#340,#341,#342,#343,#344,#345,#346,#347,
    #348,#349,#350,#351,#352,#353,#354,#355,#356,#357,#358,#359),
  .UNSPECIFIED.,.T.,.F.,(8,6,6,6,6,6,6,8),(0.,0.15199602122,
    0.286339335953,0.422586681233,0.587487886666,0.713456595127,
    0.838317342533,1.),.UNSPECIFIED.);
#316 = CARTESIAN_POINT('',(-6.1,33.956442687655,71.));
#317 = CARTESIAN_POINT('',(-6.1,33.956442687655,70.808102309576));
#318 = CARTESIAN_POINT('',(-6.073149571751,33.961266092082,
    70.616193193474));
#319 = CARTESIAN_POINT('',(-6.019436315407,33.970915543916,
    70.426865892546));
#320 = CARTESIAN_POINT('',(-5.938215686397,33.985367313681,
    70.243001758996));
#321 = CARTESIAN_POINT('',(-5.828502303775,34.004525240621,
    70.06820471456));
#322 = CARTESIAN_POINT('',(-5.689222646113,34.02810862448,
    69.907272569149));
#323 = CARTESIAN_POINT('',(-5.370201639597,34.079816989518,
    69.643355440282));
#324 = CARTESIAN_POINT('',(-5.192469176078,34.10783658685,
    69.532031700946));
#325 = CARTESIAN_POINT('',(-4.990179870287,34.138522401669,
    69.445145758529));
#326 = CARTESIAN_POINT('',(-4.770433900071,34.170148449312,
    69.391004707729));
#327 = CARTESIAN_POINT('',(-4.542623768803,34.200912826546,
    69.374153793628));
#328 = CARTESIAN_POINT('',(-4.316810640493,34.229547313872,
    69.395137638937));
#329 = CARTESIAN_POINT('',(-3.884338600113,34.281336204929,
    69.506177585986));
#330 = CARTESIAN_POINT('',(-3.685389687918,34.303522330502,
    69.59530888497));
#331 = CARTESIAN_POINT('',(-3.50898401348,34.321885604966,
    69.710642331813));
#332 = CARTESIAN_POINT('',(-3.3570790599,34.336803218565,69.846058849979
    ));
#333 = CARTESIAN_POINT('',(-3.230542955636,34.348677961881,
    69.99594254585));
#334 = CARTESIAN_POINT('',(-3.129288144685,34.357874399553,
    70.155095517086));
#335 = CARTESIAN_POINT('',(-2.959069194196,34.37299326045,
    70.516829199997));
#336 = CARTESIAN_POINT('',(-2.899490689429,34.377987763824,
    70.725504917246));
#337 = CARTESIAN_POINT('',(-2.87277770911,34.380152262831,
    70.940047836299));
#338 = CARTESIAN_POINT('',(-2.878968572929,34.379645361928,
    71.156489970376));
#339 = CARTESIAN_POINT('',(-2.918451673421,34.376423127118,
    71.370553522027));
#340 = CARTESIAN_POINT('',(-2.991515146623,34.370223287888,
    71.577275610319));
#341 = CARTESIAN_POINT('',(-3.179184252015,34.353303288068,
    71.918644445751));
#342 = CARTESIAN_POINT('',(-3.281457892036,34.343856305971,
    72.06160095276));
#343 = CARTESIAN_POINT('',(-3.40540671106,34.332018615158,
    72.195536732282));
#344 = CARTESIAN_POINT('',(-3.550876900003,34.317499816889,
    72.316071180847));
#345 = CARTESIAN_POINT('',(-3.716912417762,34.299998081255,
    72.418605370633));
#346 = CARTESIAN_POINT('',(-3.901685803063,34.279258862766,
    72.498276418706));
#347 = CARTESIAN_POINT('',(-4.300743843316,34.231471326365,
    72.600737108697));
#348 = CARTESIAN_POINT('',(-4.509592994232,34.205097919427,
    72.622695623654));
#349 = CARTESIAN_POINT('',(-4.721158580295,34.176782019963,
    72.612206863894));
#350 = CARTESIAN_POINT('',(-4.927060682185,34.147548818815,
    72.569296485868));
#351 = CARTESIAN_POINT('',(-5.119365849117,34.118833383577,
    72.497252373611));
#352 = CARTESIAN_POINT('',(-5.291724766195,34.092086093757,
    72.402487050884));
#353 = CARTESIAN_POINT('',(-5.633049567618,34.037579094396,
    72.154500066787));
#354 = CARTESIAN_POINT('',(-5.791638915829,34.010950796122,
    71.988200325201));
#355 = CARTESIAN_POINT('',(-5.916413628501,33.989243954464,
    71.804661838013));
#356 = CARTESIAN_POINT('',(-6.008660687112,33.972851595843,
    71.609952763798));
#357 = CARTESIAN_POINT('',(-6.069564778727,33.961909996068,
    71.408672251359));
#358 = CARTESIAN_POINT('',(-6.1,33.956442687655,71.204301613984));
#359 = CARTESIAN_POINT('',(-6.1,33.956442687655,71.));
#360 = FACE_BOUND('',#361,.T.);
#361 = EDGE_LOOP('',(#362));
#362 = ORIENTED_EDGE('',*,*,#363,.T.);
#363 = EDGE_CURVE('',#364,#364,#366,.T.);
#364 = VERTEX_POINT('',#365);
#365 = CARTESIAN_POINT('',(-3.,34.369317712169,93.));
#366 = B_SPLINE_CURVE_WITH_KNOTS('',8,(#367,#368,#369,#370,#371,#372,
    #373,#374,#375,#376,#377,#378,#379,#380,#381,#382,#383,#384,#385,
    #386,#387,#388,#389,#390,#391,#392,#393,#394,#395,#396,#397,#398,
    #399,#400,#401,#402,#403,#404,#405,#406,#407,#408,#409,#410,#411,
    #412,#413,#414,#415,#416,#417,#418,#419,#420,#421,#422,#423,#424),
  .UNSPECIFIED.,.T.,.F.,(9,7,7,7,7,7,7,7,9),(0.,0.106444474993,
    0.210136392582,0.310106204432,0.430638932693,0.555997871778,
    0.670448567413,0.814216832761,1.),.UNSPECIFIED.);
#367 = CARTESIAN_POINT('',(-3.,34.369317712169,93.));
#368 = CARTESIAN_POINT('',(-3.,34.369317712169,92.764380116657));
#369 = CARTESIAN_POINT('',(-2.978851352757,34.371163620424,92.5287571223
    ));
#370 = CARTESIAN_POINT('',(-2.93655048604,34.374856190128,
    92.295352635913));
#371 = CARTESIAN_POINT('',(-2.873382261962,34.380296400714,
    92.066383104585));
#372 = CARTESIAN_POINT('',(-2.789903577533,34.387289034488,
    91.844013477168));
#373 = CARTESIAN_POINT('',(-2.686932005063,34.395555609992,
    91.630319308757));
#374 = CARTESIAN_POINT('',(-2.56553947242,34.404756672107,
    91.427257295981));
#375 = CARTESIAN_POINT('',(-2.292143680328,34.424037645942,
    91.050960270613));
#376 = CARTESIAN_POINT('',(-2.136941436481,34.434375715662,
    90.871484092387));
#377 = CARTESIAN_POINT('',(-1.960920601102,34.445255544169,
    90.701092943562));
#378 = CARTESIAN_POINT('',(-1.763901527733,34.456290585346,
    90.542878586907));
#379 = CARTESIAN_POINT('',(-1.546069588626,34.466994892579,
    90.400156016667));
#380 = CARTESIAN_POINT('',(-1.308026487603,34.47679812736,
    90.276491191015));
#381 = CARTESIAN_POINT('',(-1.050889608334,34.485083476488,
    90.175756480657));
#382 = CARTESIAN_POINT('',(-0.511875639161,34.497217600471,
    90.031328122908));
#383 = CARTESIAN_POINT('',(-0.234248495202,34.501146394753,
    89.986528518111));
#384 = CARTESIAN_POINT('',(5.061353579537E-02,34.502520295646,
    89.97159483705));
#385 = CARTESIAN_POINT('',(0.336246039274,34.501046321464,
    89.988120439607));
#386 = CARTESIAN_POINT('',(0.616034235928,34.496812197569,
    90.035573158787));
#387 = CARTESIAN_POINT('',(0.883706755522,34.490272154207,
    90.111332808447));
#388 = CARTESIAN_POINT('',(1.133787287347,34.482121102024,
    90.210714764313));
#389 = CARTESIAN_POINT('',(1.637091208799,34.462236453465,
    90.467160921124));
#390 = CARTESIAN_POINT('',(1.884146860333,34.44996239289,90.63380457235)
  );
#391 = CARTESIAN_POINT('',(2.102969183743,34.437185174606,
    90.820828999117));
#392 = CARTESIAN_POINT('',(2.294101250277,34.42465797059,91.023451705208
    ));
#393 = CARTESIAN_POINT('',(2.458446175461,34.412946190257,
    91.237879685591));
#394 = CARTESIAN_POINT('',(2.597030971414,34.402450428805,
    91.461096216855));
#395 = CARTESIAN_POINT('',(2.71084872515,34.393450444356,91.690718041051
    ));
#396 = CARTESIAN_POINT('',(2.89423319166,34.378513827048,92.168450909391
    ));
#397 = CARTESIAN_POINT('',(2.96197702625,34.372703685552,92.417277291657
    ));
#398 = CARTESIAN_POINT('',(3.004816888205,34.368911099199,
    92.669402020217));
#399 = CARTESIAN_POINT('',(3.023288769022,34.367251331768,
    92.923228930352));
#400 = CARTESIAN_POINT('',(3.017616564796,34.367767258559,93.17735831408
    ));
#401 = CARTESIAN_POINT('',(2.987706935397,34.370439604638,
    93.430422005647));
#402 = CARTESIAN_POINT('',(2.933142085588,34.375181703601,
    93.680920823491));
#403 = CARTESIAN_POINT('',(2.780155908821,34.387877236405,
    94.151763861141));
#404 = CARTESIAN_POINT('',(2.68595898944,34.395515679861,94.372850777879
    ));
#405 = CARTESIAN_POINT('',(2.569980682674,34.40460242371,94.588987105804
    ));
#406 = CARTESIAN_POINT('',(2.431419695316,34.414940622751,
    94.798463384071));
#407 = CARTESIAN_POINT('',(2.269358217935,34.426249301957,
    94.999094815244));
#408 = CARTESIAN_POINT('',(2.082873180453,34.438129438533,
    95.188098676964));
#409 = CARTESIAN_POINT('',(1.871192547294,34.450037222741,95.36192322996
    ));
#410 = CARTESIAN_POINT('',(1.335861435285,34.475418940374,
    95.709571318974));
#411 = CARTESIAN_POINT('',(0.98629050251,34.489040543878,95.8792164509)
  );
#412 = CARTESIAN_POINT('',(0.595340197164,34.499888801164,96.00129399413
    ));
#413 = CARTESIAN_POINT('',(0.178682761138,34.505581222203,
    96.060824542129));
#414 = CARTESIAN_POINT('',(-0.244081281278,34.504557366812,
    96.051347144848));
#415 = CARTESIAN_POINT('',(-0.652852264612,34.497458527354,
    95.974914329732));
#416 = CARTESIAN_POINT('',(-1.029804400333,34.486229282143,
    95.842267162932));
#417 = CARTESIAN_POINT('',(-1.791211259007,34.456147442624,
    95.454310991018));
#418 = CARTESIAN_POINT('',(-2.151467490786,34.435796187215,
    95.17152562844));
#419 = CARTESIAN_POINT('',(-2.442883368849,34.415479391947,
    94.847919422448));
#420 = CARTESIAN_POINT('',(-2.66950529363,34.397675407382,
    94.498288758184));
#421 = CARTESIAN_POINT('',(-2.835633435701,34.383662728196,
    94.132948194283));
#422 = CARTESIAN_POINT('',(-2.945060745336,34.374113634676,
    93.758613473441));
#423 = CARTESIAN_POINT('',(-3.,34.369317712169,93.379760344753));
#424 = CARTESIAN_POINT('',(-3.,34.369317712169,93.));
#425 = CYLINDRICAL_SURFACE('',#426,34.5);
#426 = AXIS2_PLACEMENT_3D('',#427,#428,#429);
#427 = CARTESIAN_POINT('',(0.,0.,40.3));
#428 = DIRECTION('',(0.,0.,1.));
#429 = DIRECTION('',(0.537325748236,0.843374792297,0.));
#430 = ADVANCED_FACE('',(#431),#457,.T.);
#431 = FACE_BOUND('',#432,.T.);
#432 = EDGE_LOOP('',(#433,#434,#442,#451));
#433 = ORIENTED_EDGE('',*,*,#21,.T.);
#434 = ORIENTED_EDGE('',*,*,#435,.F.);
#435 = EDGE_CURVE('',#436,#24,#438,.T.);
#436 = VERTEX_POINT('',#437);
#437 = CARTESIAN_POINT('',(-17.19442394354,26.98799335352,97.7));
#438 = LINE('',#439,#440);
#439 = CARTESIAN_POINT('',(0.,0.,97.7));
#440 = VECTOR('',#441,1.);
#441 = DIRECTION('',(-0.537325748236,0.843374792297,0.));
#442 = ORIENTED_EDGE('',*,*,#443,.F.);
#443 = EDGE_CURVE('',#444,#436,#446,.T.);
#444 = VERTEX_POINT('',#445);
#445 = CARTESIAN_POINT('',(17.194423943546,26.98799335352,97.7));
#446 = CIRCLE('',#447,32.);
#447 = AXIS2_PLACEMENT_3D('',#448,#449,#450);
#448 = CARTESIAN_POINT('',(0.,0.,97.7));
#449 = DIRECTION('',(0.,-0.,1.));
#450 = DIRECTION('',(0.537325748236,0.843374792297,0.));
#451 = ORIENTED_EDGE('',*,*,#452,.T.);
#452 = EDGE_CURVE('',#444,#22,#453,.T.);
#453 = LINE('',#454,#455);
#454 = CARTESIAN_POINT('',(0.,0.,97.7));
#455 = VECTOR('',#456,1.);
#456 = DIRECTION('',(0.537325748236,0.843374792297,0.));
#457 = PLANE('',#458);
#458 = AXIS2_PLACEMENT_3D('',#459,#460,#461);
#459 = CARTESIAN_POINT('',(0.,0.,97.7));
#460 = DIRECTION('',(0.,0.,1.));
#461 = DIRECTION('',(0.537325748236,0.843374792297,0.));
#462 = ADVANCED_FACE('',(#463),#481,.F.);
#463 = FACE_BOUND('',#464,.F.);
#464 = EDGE_LOOP('',(#465,#466,#474,#480));
#465 = ORIENTED_EDGE('',*,*,#435,.F.);
#466 = ORIENTED_EDGE('',*,*,#467,.F.);
#467 = EDGE_CURVE('',#468,#436,#470,.T.);
#468 = VERTEX_POINT('',#469);
#469 = CARTESIAN_POINT('',(-17.19442394354,26.98799335352,40.3));
#470 = LINE('',#471,#472);
#471 = CARTESIAN_POINT('',(-17.19442394354,26.98799335352,39.3));
#472 = VECTOR('',#473,1.);
#473 = DIRECTION('',(0.,0.,1.));
#474 = ORIENTED_EDGE('',*,*,#475,.T.);
#475 = EDGE_CURVE('',#468,#41,#476,.T.);
#476 = LINE('',#477,#478);
#477 = CARTESIAN_POINT('',(0.,0.,40.3));
#478 = VECTOR('',#479,1.);
#479 = DIRECTION('',(-0.537325748236,0.843374792297,0.));
#480 = ORIENTED_EDGE('',*,*,#49,.T.);
#481 = PLANE('',#482);
#482 = AXIS2_PLACEMENT_3D('',#483,#484,#485);
#483 = CARTESIAN_POINT('',(0.,0.,40.3));
#484 = DIRECTION('',(0.843374792297,0.537325748236,0.));
#485 = DIRECTION('',(-0.537325748236,0.843374792297,0.));
#486 = ADVANCED_FACE('',(#487),#505,.T.);
#487 = FACE_BOUND('',#488,.T.);
#488 = EDGE_LOOP('',(#489,#497,#503,#504));
#489 = ORIENTED_EDGE('',*,*,#490,.F.);
#490 = EDGE_CURVE('',#491,#444,#493,.T.);
#491 = VERTEX_POINT('',#492);
#492 = CARTESIAN_POINT('',(17.194423943546,26.98799335352,40.3));
#493 = LINE('',#494,#495);
#494 = CARTESIAN_POINT('',(17.194423943546,26.98799335352,39.3));
#495 = VECTOR('',#496,1.);
#496 = DIRECTION('',(0.,0.,1.));
#497 = ORIENTED_EDGE('',*,*,#498,.T.);
#498 = EDGE_CURVE('',#491,#33,#499,.T.);
#499 = LINE('',#500,#501);
#500 = CARTESIAN_POINT('',(0.,0.,40.3));
#501 = VECTOR('',#502,1.);
#502 = DIRECTION('',(0.537325748236,0.843374792297,0.));
#503 = ORIENTED_EDGE('',*,*,#32,.T.);
#504 = ORIENTED_EDGE('',*,*,#452,.F.);
#505 = PLANE('',#506);
#506 = AXIS2_PLACEMENT_3D('',#507,#508,#509);
#507 = CARTESIAN_POINT('',(0.,0.,40.3));
#508 = DIRECTION('',(0.843374792297,-0.537325748236,0.));
#509 = DIRECTION('',(0.537325748236,0.843374792297,0.));
#510 = ADVANCED_FACE('',(#511),#523,.F.);
#511 = FACE_BOUND('',#512,.F.);
#512 = EDGE_LOOP('',(#513,#514,#515,#522));
#513 = ORIENTED_EDGE('',*,*,#40,.T.);
#514 = ORIENTED_EDGE('',*,*,#475,.F.);
#515 = ORIENTED_EDGE('',*,*,#516,.F.);
#516 = EDGE_CURVE('',#491,#468,#517,.T.);
#517 = CIRCLE('',#518,32.);
#518 = AXIS2_PLACEMENT_3D('',#519,#520,#521);
#519 = CARTESIAN_POINT('',(0.,0.,40.3));
#520 = DIRECTION('',(0.,-0.,1.));
#521 = DIRECTION('',(0.537325748236,0.843374792297,0.));
#522 = ORIENTED_EDGE('',*,*,#498,.T.);
#523 = PLANE('',#524);
#524 = AXIS2_PLACEMENT_3D('',#525,#526,#527);
#525 = CARTESIAN_POINT('',(0.,0.,40.3));
#526 = DIRECTION('',(0.,0.,1.));
#527 = DIRECTION('',(0.537325748236,0.843374792297,0.));
#528 = ADVANCED_FACE('',(#529),#548,.F.);
#529 = FACE_BOUND('',#530,.F.);
#530 = EDGE_LOOP('',(#531,#539,#546,#547));
#531 = ORIENTED_EDGE('',*,*,#532,.T.);
#532 = EDGE_CURVE('',#58,#533,#535,.T.);
#533 = VERTEX_POINT('',#534);
#534 = CARTESIAN_POINT('',(-3.,32.9,45.));
#535 = LINE('',#536,#537);
#536 = CARTESIAN_POINT('',(-3.,36.5,45.));
#537 = VECTOR('',#538,1.);
#538 = DIRECTION('',(-6.E-17,-1.,0.));
#539 = ORIENTED_EDGE('',*,*,#540,.F.);
#540 = EDGE_CURVE('',#533,#533,#541,.T.);
#541 = CIRCLE('',#542,3.);
#542 = AXIS2_PLACEMENT_3D('',#543,#544,#545);
#543 = CARTESIAN_POINT('',(2.01E-15,32.9,45.));
#544 = DIRECTION('',(-6.E-17,-1.,-0.));
#545 = DIRECTION('',(-1.,6.E-17,0.));
#546 = ORIENTED_EDGE('',*,*,#532,.F.);
#547 = ORIENTED_EDGE('',*,*,#57,.T.);
#548 = CYLINDRICAL_SURFACE('',#549,3.);
#549 = AXIS2_PLACEMENT_3D('',#550,#551,#552);
#550 = CARTESIAN_POINT('',(2.23E-15,36.5,45.));
#551 = DIRECTION('',(-6.E-17,-1.,0.));
#552 = DIRECTION('',(-1.,6.E-17,0.));
#553 = ADVANCED_FACE('',(#554),#619,.F.);
#554 = FACE_BOUND('',#555,.F.);
#555 = EDGE_LOOP('',(#556,#611,#617,#618));
#556 = ORIENTED_EDGE('',*,*,#557,.F.);
#557 = EDGE_CURVE('',#558,#558,#560,.T.);
#558 = VERTEX_POINT('',#559);
#559 = CARTESIAN_POINT('',(-5.2,31.574673394985,57.));
#560 = B_SPLINE_CURVE_WITH_KNOTS('',7,(#561,#562,#563,#564,#565,#566,
    #567,#568,#569,#570,#571,#572,#573,#574,#575,#576,#577,#578,#579,
    #580,#581,#582,#583,#584,#585,#586,#587,#588,#589,#590,#591,#592,
    #593,#594,#595,#596,#597,#598,#599,#600,#601,#602,#603,#604,#605,
    #606,#607,#608,#609,#610),.UNSPECIFIED.,.T.,.F.,(8,6,6,6,6,6,6,6,8),
  (0.,0.134187962113,0.250114972751,0.366041982548,0.500229943181,
    0.63441790523,0.75034491584,0.861261677176,1.),.UNSPECIFIED.);
#561 = CARTESIAN_POINT('',(-5.2,31.574673394985,57.));
#562 = CARTESIAN_POINT('',(-5.2,31.574673394985,56.461862323589));
#563 = CARTESIAN_POINT('',(-5.135027146815,31.585373530471,
    55.924580238079));
#564 = CARTESIAN_POINT('',(-5.005455474341,31.606713413976,
    55.392311434332));
#565 = CARTESIAN_POINT('',(-4.809544029614,31.63811077245,
    54.869556505929));
#566 = CARTESIAN_POINT('',(-4.544040789461,31.678405591872,
    54.362527734478));
#567 = CARTESIAN_POINT('',(-4.20448941494,31.725377954592,
    53.879991962447));
#568 = CARTESIAN_POINT('',(-3.425081272453,31.818252216004,
    53.05201372604));
#569 = CARTESIAN_POINT('',(-2.994833481946,31.864660510772,
    52.685877749888));
#570 = CARTESIAN_POINT('',(-2.496234703267,31.911042687013,
    52.35946028897));
#571 = CARTESIAN_POINT('',(-1.935199763541,31.952508442853,
    52.092269052068));
#572 = CARTESIAN_POINT('',(-1.322257251037,31.983565337058,
    51.901133424571));
#573 = CARTESIAN_POINT('',(-0.671390685585,32.,51.8));
#574 = CARTESIAN_POINT('',(0.671390680709,32.,51.8));
#575 = CARTESIAN_POINT('',(1.322257268833,31.983565336696,
    51.901133427397));
#576 = CARTESIAN_POINT('',(1.935199733955,31.952508443978,
    52.092269043083));
#577 = CARTESIAN_POINT('',(2.496234729916,31.911042685514,
    52.359460301294));
#578 = CARTESIAN_POINT('',(2.994833469199,31.864660511781,
    52.685877741287));
#579 = CARTESIAN_POINT('',(3.425081274997,31.818252215701,
    53.052013728743));
#580 = CARTESIAN_POINT('',(4.204489410421,31.725377955131,
    53.879991957646));
#581 = CARTESIAN_POINT('',(4.54404080317,31.678405590193,54.362527754386
    ));
#582 = CARTESIAN_POINT('',(4.809544010743,31.638110774814,
    54.869556468635));
#583 = CARTESIAN_POINT('',(5.005455487672,31.606713412277,
    55.392311472665));
#584 = CARTESIAN_POINT('',(5.135027142716,31.585373530999,
    55.924580216351));
#585 = CARTESIAN_POINT('',(5.2,31.574673394985,56.461862329265));
#586 = CARTESIAN_POINT('',(5.2,31.574673394985,57.538137676411));
#587 = CARTESIAN_POINT('',(5.135027146815,31.585373530471,
    58.075419761921));
#588 = CARTESIAN_POINT('',(5.005455474341,31.606713413976,
    58.607688565668));
#589 = CARTESIAN_POINT('',(4.809544029614,31.63811077245,59.130443494071
    ));
#590 = CARTESIAN_POINT('',(4.544040789462,31.678405591873,
    59.637472265522));
#591 = CARTESIAN_POINT('',(4.20448941494,31.725377954592,60.120008037553
    ));
#592 = CARTESIAN_POINT('',(3.425081272367,31.818252216014,
    60.947986274051));
#593 = CARTESIAN_POINT('',(2.994833482025,31.864660510759,
    61.314122249984));
#594 = CARTESIAN_POINT('',(2.496234703379,31.911042687006,
    61.640539711027));
#595 = CARTESIAN_POINT('',(1.935199763433,31.95250844287,61.907730948019
    ));
#596 = CARTESIAN_POINT('',(1.322257250923,31.983565337051,
    62.098866575391));
#597 = CARTESIAN_POINT('',(0.671390685709,32.,62.2));
#598 = CARTESIAN_POINT('',(-0.642373852803,32.,62.2));
#599 = CARTESIAN_POINT('',(-1.267079760861,31.984955262932,
    62.107419404638));
#600 = CARTESIAN_POINT('',(-1.858303131888,31.956358586297,
    61.931426760024));
#601 = CARTESIAN_POINT('',(-2.402940705475,31.917803700236,
    61.684093135056));
#602 = CARTESIAN_POINT('',(-2.89086737318,31.874129775195,
    61.380368822241));
#603 = CARTESIAN_POINT('',(-3.316008941536,31.829799089749,
    61.037901582804));
#604 = CARTESIAN_POINT('',(-4.128438758001,31.735824521624,
    60.225471766339));
#605 = CARTESIAN_POINT('',(-4.494566718312,31.685892528723,
    59.729992596262));
#606 = CARTESIAN_POINT('',(-4.78036522954,31.642781233081,
    59.206815738977));
#607 = CARTESIAN_POINT('',(-4.990973218965,31.609098874944,
    58.666053835941));
#608 = CARTESIAN_POINT('',(-5.130169488453,31.586173433698,
    58.114758509421));
#609 = CARTESIAN_POINT('',(-5.2,31.574673394985,57.557891497629));
#610 = CARTESIAN_POINT('',(-5.2,31.574673394985,57.));
#611 = ORIENTED_EDGE('',*,*,#612,.F.);
#612 = EDGE_CURVE('',#123,#558,#613,.T.);
#613 = LINE('',#614,#615);
#614 = CARTESIAN_POINT('',(-5.2,36.5,57.));
#615 = VECTOR('',#616,1.);
#616 = DIRECTION('',(-6.E-17,-1.,0.));
#617 = ORIENTED_EDGE('',*,*,#122,.T.);
#618 = ORIENTED_EDGE('',*,*,#612,.T.);
#619 = CYLINDRICAL_SURFACE('',#620,5.2);
#620 = AXIS2_PLACEMENT_3D('',#621,#622,#623);
#621 = CARTESIAN_POINT('',(2.23E-15,36.5,57.));
#622 = DIRECTION('',(-6.E-17,-1.,0.));
#623 = DIRECTION('',(-1.,6.E-17,0.));
#624 = ADVANCED_FACE('',(#625),#684,.F.);
#625 = FACE_BOUND('',#626,.F.);
#626 = EDGE_LOOP('',(#627,#676,#682,#683));
#627 = ORIENTED_EDGE('',*,*,#628,.F.);
#628 = EDGE_CURVE('',#629,#629,#631,.T.);
#629 = VERTEX_POINT('',#630);
#630 = CARTESIAN_POINT('',(2.9,31.868322830046,71.));
#631 = B_SPLINE_CURVE_WITH_KNOTS('',7,(#632,#633,#634,#635,#636,#637,
    #638,#639,#640,#641,#642,#643,#644,#645,#646,#647,#648,#649,#650,
    #651,#652,#653,#654,#655,#656,#657,#658,#659,#660,#661,#662,#663,
    #664,#665,#666,#667,#668,#669,#670,#671,#672,#673,#674,#675),
  .UNSPECIFIED.,.T.,.F.,(8,6,6,6,6,6,6,8),(0.,0.151711279816,
    0.285969891693,0.423140583626,0.587503936152,0.714203829626,
    0.838862374075,1.),.UNSPECIFIED.);
#632 = CARTESIAN_POINT('',(2.9,31.868322830046,71.));
#633 = CARTESIAN_POINT('',(2.9,31.868322830046,70.808478303305));
#634 = CARTESIAN_POINT('',(2.926745219872,31.865888968209,70.61693770848
    ));
#635 = CARTESIAN_POINT('',(2.980252428828,31.861020160527,
    70.427852559693));
#636 = CARTESIAN_POINT('',(3.061249545441,31.853506060102,70.24401523486
    ));
#637 = CARTESIAN_POINT('',(3.170854608486,31.842962764632,
    70.069008575748));
#638 = CARTESIAN_POINT('',(3.310274247933,31.828780652326,69.90768877459
    ));
#639 = CARTESIAN_POINT('',(3.630429964925,31.793754752767,69.64283293158
    ));
#640 = CARTESIAN_POINT('',(3.809011717749,31.773378443322,
    69.531108471107));
#641 = CARTESIAN_POINT('',(4.012164930601,31.748908639237,
    69.444210777903));
#642 = CARTESIAN_POINT('',(4.232468834919,31.720536641626,
    69.390473057633));
#643 = CARTESIAN_POINT('',(4.4602017207,31.68902463616,69.374234625895)
  );
#644 = CARTESIAN_POINT('',(4.685068245286,31.655908156383,
    69.395620054812));
#645 = CARTESIAN_POINT('',(5.11535581431,31.589263280452,69.506099124946
    ));
#646 = CARTESIAN_POINT('',(5.314031971411,31.556705037241,
    69.595053763465));
#647 = CARTESIAN_POINT('',(5.490245962609,31.526386982209,
    69.710137019753));
#648 = CARTESIAN_POINT('',(5.642110680664,31.499263114259,
    69.845293516114));
#649 = CARTESIAN_POINT('',(5.768799533525,31.476016788079,
    69.995040633995));
#650 = CARTESIAN_POINT('',(5.870372258067,31.457033026429,70.1543738362)
  );
#651 = CARTESIAN_POINT('',(6.04040834484,31.424868574713,70.515718913932
    ));
#652 = CARTESIAN_POINT('',(6.100428853185,31.413184793243,
    70.724418049264));
#653 = CARTESIAN_POINT('',(6.127486569044,31.407824261021,
    70.939813119523));
#654 = CARTESIAN_POINT('',(6.121178367476,31.409068805243,
    71.157237659737));
#655 = CARTESIAN_POINT('',(6.081268828504,31.416943994199,
    71.371812591833));
#656 = CARTESIAN_POINT('',(6.007941762307,31.431134799895,
    71.578263489309));
#657 = CARTESIAN_POINT('',(5.820495127845,31.466311012987,71.91922765162
    ));
#658 = CARTESIAN_POINT('',(5.717968336377,31.48529549391,72.062304006925
    ));
#659 = CARTESIAN_POINT('',(5.593929031355,31.507825865761,
    72.196107244278));
#660 = CARTESIAN_POINT('',(5.448532352035,31.533536390931,
    72.316426385109));
#661 = CARTESIAN_POINT('',(5.282679267045,31.561833043264,
    72.418772135102));
#662 = CARTESIAN_POINT('',(5.098121441732,31.591932617669,
    72.498325909831));
#663 = CARTESIAN_POINT('',(4.700912040856,31.653454197994,
    72.600311949903));
#664 = CARTESIAN_POINT('',(4.492940516313,31.684199410578,
    72.622570730265));
#665 = CARTESIAN_POINT('',(4.281527649656,31.713725681191,
    72.612592082378));
#666 = CARTESIAN_POINT('',(4.075212900495,31.740726734234,
    72.570060722903));
#667 = CARTESIAN_POINT('',(3.882172072996,31.764467651886,
    72.498074087246));
#668 = CARTESIAN_POINT('',(3.708995017491,31.784681397155,
    72.403010004342));
#669 = CARTESIAN_POINT('',(3.366357904142,31.823032896661,
    72.154069569822));
#670 = CARTESIAN_POINT('',(3.207591152378,31.839417235423,
    71.987326266451));
#671 = CARTESIAN_POINT('',(3.082935321778,31.85149157685,71.803526694955
    ));
#672 = CARTESIAN_POINT('',(2.990953276322,31.860046713113,
    71.608820353825));
#673 = CARTESIAN_POINT('',(2.930302467073,31.865565178661,
    71.407803084496));
#674 = CARTESIAN_POINT('',(2.9,31.868322830046,71.203855616588));
#675 = CARTESIAN_POINT('',(2.9,31.868322830046,71.));
#676 = ORIENTED_EDGE('',*,*,#677,.F.);
#677 = EDGE_CURVE('',#180,#629,#678,.T.);
#678 = LINE('',#679,#680);
#679 = CARTESIAN_POINT('',(2.9,36.5,71.));
#680 = VECTOR('',#681,1.);
#681 = DIRECTION('',(-6.E-17,-1.,0.));
#682 = ORIENTED_EDGE('',*,*,#179,.T.);
#683 = ORIENTED_EDGE('',*,*,#677,.T.);
#684 = CYLINDRICAL_SURFACE('',#685,1.6);
#685 = AXIS2_PLACEMENT_3D('',#686,#687,#688);
#686 = CARTESIAN_POINT('',(4.5,36.5,71.));
#687 = DIRECTION('',(-6.E-17,-1.,0.));
#688 = DIRECTION('',(-1.,6.E-17,0.));
#689 = ADVANCED_FACE('',(#690),#716,.T.);
#690 = FACE_BOUND('',#691,.T.);
#691 = EDGE_LOOP('',(#692,#700,#709,#715));
#692 = ORIENTED_EDGE('',*,*,#693,.F.);
#693 = EDGE_CURVE('',#694,#233,#696,.T.);
#694 = VERTEX_POINT('',#695);
#695 = CARTESIAN_POINT('',(-2.8,31.877264625435,79.));
#696 = LINE('',#697,#698);
#697 = CARTESIAN_POINT('',(-2.8,28.,79.));
#698 = VECTOR('',#699,1.);
#699 = DIRECTION('',(0.,1.,0.));
#700 = ORIENTED_EDGE('',*,*,#701,.F.);
#701 = EDGE_CURVE('',#702,#694,#704,.T.);
#702 = VERTEX_POINT('',#703);
#703 = CARTESIAN_POINT('',(2.8,31.877264625435,79.));
#704 = CIRCLE('',#705,32.);
#705 = AXIS2_PLACEMENT_3D('',#706,#707,#708);
#706 = CARTESIAN_POINT('',(0.,0.,79.));
#707 = DIRECTION('',(0.,-0.,1.));
#708 = DIRECTION('',(0.537325748236,0.843374792297,0.));
#709 = ORIENTED_EDGE('',*,*,#710,.T.);
#710 = EDGE_CURVE('',#702,#231,#711,.T.);
#711 = LINE('',#712,#713);
#712 = CARTESIAN_POINT('',(2.8,28.,79.));
#713 = VECTOR('',#714,1.);
#714 = DIRECTION('',(0.,1.,0.));
#715 = ORIENTED_EDGE('',*,*,#230,.T.);
#716 = PLANE('',#717);
#717 = AXIS2_PLACEMENT_3D('',#718,#719,#720);
#718 = CARTESIAN_POINT('',(-2.8,28.,79.));
#719 = DIRECTION('',(0.,0.,1.));
#720 = DIRECTION('',(1.,0.,0.));
#721 = ADVANCED_FACE('',(#722),#763,.F.);
#722 = FACE_BOUND('',#723,.F.);
#723 = EDGE_LOOP('',(#724,#725,#733,#762));
#724 = ORIENTED_EDGE('',*,*,#241,.F.);
#725 = ORIENTED_EDGE('',*,*,#726,.F.);
#726 = EDGE_CURVE('',#727,#242,#729,.T.);
#727 = VERTEX_POINT('',#728);
#728 = CARTESIAN_POINT('',(2.8,31.877264625435,83.));
#729 = LINE('',#730,#731);
#730 = CARTESIAN_POINT('',(2.8,28.,83.));
#731 = VECTOR('',#732,1.);
#732 = DIRECTION('',(0.,1.,0.));
#733 = ORIENTED_EDGE('',*,*,#734,.T.);
#734 = EDGE_CURVE('',#727,#702,#735,.T.);
#735 = B_SPLINE_CURVE_WITH_KNOTS('',7,(#736,#737,#738,#739,#740,#741,
    #742,#743,#744,#745,#746,#747,#748,#749,#750,#751,#752,#753,#754,
    #755,#756,#757,#758,#759,#760,#761),.UNSPECIFIED.,.F.,.F.,(8,6,6,6,8
    ),(0.,0.256487367454,0.500000008486,0.743512644152,1.),
  .UNSPECIFIED.);
#736 = CARTESIAN_POINT('',(2.8,31.877264625435,83.));
#737 = CARTESIAN_POINT('',(3.076261231389,31.852998696191,83.));
#738 = CARTESIAN_POINT('',(3.344552783906,31.826618009303,
    82.955480360558));
#739 = CARTESIAN_POINT('',(3.596745428465,31.799120067175,
    82.871060847808));
#740 = CARTESIAN_POINT('',(3.826247273844,31.771851682702,
    82.752795996863));
#741 = CARTESIAN_POINT('',(4.028178039165,31.746275619991,
    82.608094035846));
#742 = CARTESIAN_POINT('',(4.1997978408,31.723524671172,82.445564084931)
  );
#743 = CARTESIAN_POINT('',(4.475110906995,31.685828031834,
    82.112767756547));
#744 = CARTESIAN_POINT('',(4.585039487713,31.670102299645,
    81.939393723854));
#745 = CARTESIAN_POINT('',(4.671716647707,31.657321783927,
    81.758268292601));
#746 = CARTESIAN_POINT('',(4.736028879172,31.647657403804,
    81.571950111186));
#747 = CARTESIAN_POINT('',(4.778663591973,31.641188970587,
    81.382403081312));
#748 = CARTESIAN_POINT('',(4.8,31.637951893256,81.191251721494));
#749 = CARTESIAN_POINT('',(4.8,31.637951893256,80.808748282721));
#750 = CARTESIAN_POINT('',(4.778663592987,31.641188970455,80.6175969084)
  );
#751 = CARTESIAN_POINT('',(4.736028874349,31.647657404455,
    80.428049896177));
#752 = CARTESIAN_POINT('',(4.671716656792,31.657321782683,
    80.241731711291));
#753 = CARTESIAN_POINT('',(4.585039479543,31.670102300768,
    80.060606267723));
#754 = CARTESIAN_POINT('',(4.475110910108,31.685828031408,
    79.887232247215));
#755 = CARTESIAN_POINT('',(4.1997978408,31.723524671172,79.554435915069)
  );
#756 = CARTESIAN_POINT('',(4.028178039165,31.74627561999,79.391905964154
    ));
#757 = CARTESIAN_POINT('',(3.826247273843,31.771851682702,
    79.247204003137));
#758 = CARTESIAN_POINT('',(3.596745428466,31.799120067174,
    79.128939152192));
#759 = CARTESIAN_POINT('',(3.344552783906,31.826618009303,
    79.044519639442));
#760 = CARTESIAN_POINT('',(3.076261231389,31.852998696191,79.));
#761 = CARTESIAN_POINT('',(2.8,31.877264625435,79.));
#762 = ORIENTED_EDGE('',*,*,#710,.T.);
#763 = CYLINDRICAL_SURFACE('',#764,2.);
#764 = AXIS2_PLACEMENT_3D('',#765,#766,#767);
#765 = CARTESIAN_POINT('',(2.8,28.,81.));
#766 = DIRECTION('',(0.,1.,0.));
#767 = DIRECTION('',(0.,0.,1.));
#768 = ADVANCED_FACE('',(#769),#810,.F.);
#769 = FACE_BOUND('',#770,.F.);
#770 = EDGE_LOOP('',(#771,#802,#808,#809));
#771 = ORIENTED_EDGE('',*,*,#772,.T.);
#772 = EDGE_CURVE('',#694,#773,#775,.T.);
#773 = VERTEX_POINT('',#774);
#774 = CARTESIAN_POINT('',(-2.8,31.877264625435,83.));
#775 = B_SPLINE_CURVE_WITH_KNOTS('',7,(#776,#777,#778,#779,#780,#781,
    #782,#783,#784,#785,#786,#787,#788,#789,#790,#791,#792,#793,#794,
    #795,#796,#797,#798,#799,#800,#801),.UNSPECIFIED.,.F.,.F.,(8,6,6,6,8
    ),(0.,0.256487363101,0.5,0.743512636899,1.),.UNSPECIFIED.);
#776 = CARTESIAN_POINT('',(-2.8,31.877264625435,79.));
#777 = CARTESIAN_POINT('',(-3.076261231389,31.852998696191,79.));
#778 = CARTESIAN_POINT('',(-3.344552783906,31.826618009303,
    79.044519639442));
#779 = CARTESIAN_POINT('',(-3.596745428466,31.799120067174,
    79.128939152192));
#780 = CARTESIAN_POINT('',(-3.826247273843,31.771851682702,
    79.247204003136));
#781 = CARTESIAN_POINT('',(-4.028178039165,31.74627561999,
    79.391905964154));
#782 = CARTESIAN_POINT('',(-4.1997978408,31.723524671172,79.554435915069
    ));
#783 = CARTESIAN_POINT('',(-4.475110906995,31.685828031834,
    79.887232243452));
#784 = CARTESIAN_POINT('',(-4.585039487713,31.670102299645,
    80.060606276147));
#785 = CARTESIAN_POINT('',(-4.671716647707,31.657321783928,
    80.241731707399));
#786 = CARTESIAN_POINT('',(-4.736028879172,31.647657403804,
    80.428049888815));
#787 = CARTESIAN_POINT('',(-4.778663591973,31.641188970587,
    80.617596918687));
#788 = CARTESIAN_POINT('',(-4.8,31.637951893256,80.808748278507));
#789 = CARTESIAN_POINT('',(-4.8,31.637951893256,81.191251721494));
#790 = CARTESIAN_POINT('',(-4.778663591973,31.641188970587,
    81.382403081312));
#791 = CARTESIAN_POINT('',(-4.736028879172,31.647657403804,
    81.571950111187));
#792 = CARTESIAN_POINT('',(-4.671716647707,31.657321783927,81.7582682926
    ));
#793 = CARTESIAN_POINT('',(-4.585039487712,31.670102299645,
    81.939393723854));
#794 = CARTESIAN_POINT('',(-4.475110906995,31.685828031834,
    82.112767756547));
#795 = CARTESIAN_POINT('',(-4.1997978408,31.723524671172,82.445564084932
    ));
#796 = CARTESIAN_POINT('',(-4.028178039165,31.74627561999,
    82.608094035846));
#797 = CARTESIAN_POINT('',(-3.826247273843,31.771851682702,
    82.752795996864));
#798 = CARTESIAN_POINT('',(-3.596745428466,31.799120067174,
    82.871060847807));
#799 = CARTESIAN_POINT('',(-3.344552783905,31.826618009303,
    82.955480360558));
#800 = CARTESIAN_POINT('',(-3.076261231389,31.852998696191,83.));
#801 = CARTESIAN_POINT('',(-2.8,31.877264625435,83.));
#802 = ORIENTED_EDGE('',*,*,#803,.T.);
#803 = EDGE_CURVE('',#773,#273,#804,.T.);
#804 = LINE('',#805,#806);
#805 = CARTESIAN_POINT('',(-2.8,28.,83.));
#806 = VECTOR('',#807,1.);
#807 = DIRECTION('',(0.,1.,0.));
#808 = ORIENTED_EDGE('',*,*,#281,.F.);
#809 = ORIENTED_EDGE('',*,*,#693,.F.);
#810 = CYLINDRICAL_SURFACE('',#811,2.);
#811 = AXIS2_PLACEMENT_3D('',#812,#813,#814);
#812 = CARTESIAN_POINT('',(-2.8,28.,81.));
#813 = DIRECTION('',(0.,1.,0.));
#814 = DIRECTION('',(0.,0.,1.));
#815 = ADVANCED_FACE('',(#816),#828,.F.);
#816 = FACE_BOUND('',#817,.F.);
#817 = EDGE_LOOP('',(#818,#819,#826,#827));
#818 = ORIENTED_EDGE('',*,*,#803,.F.);
#819 = ORIENTED_EDGE('',*,*,#820,.F.);
#820 = EDGE_CURVE('',#727,#773,#821,.T.);
#821 = CIRCLE('',#822,32.);
#822 = AXIS2_PLACEMENT_3D('',#823,#824,#825);
#823 = CARTESIAN_POINT('',(0.,0.,83.));
#824 = DIRECTION('',(0.,-0.,1.));
#825 = DIRECTION('',(0.537325748236,0.843374792297,0.));
#826 = ORIENTED_EDGE('',*,*,#726,.T.);
#827 = ORIENTED_EDGE('',*,*,#272,.T.);
#828 = PLANE('',#829);
#829 = AXIS2_PLACEMENT_3D('',#830,#831,#832);
#830 = CARTESIAN_POINT('',(-2.8,28.,83.));
#831 = DIRECTION('',(0.,0.,1.));
#832 = DIRECTION('',(1.,0.,0.));
#833 = ADVANCED_FACE('',(#834),#893,.F.);
#834 = FACE_BOUND('',#835,.F.);
#835 = EDGE_LOOP('',(#836,#885,#891,#892));
#836 = ORIENTED_EDGE('',*,*,#837,.F.);
#837 = EDGE_CURVE('',#838,#838,#840,.T.);
#838 = VERTEX_POINT('',#839);
#839 = CARTESIAN_POINT('',(-6.1,31.413213780191,71.));
#840 = B_SPLINE_CURVE_WITH_KNOTS('',7,(#841,#842,#843,#844,#845,#846,
    #847,#848,#849,#850,#851,#852,#853,#854,#855,#856,#857,#858,#859,
    #860,#861,#862,#863,#864,#865,#866,#867,#868,#869,#870,#871,#872,
    #873,#874,#875,#876,#877,#878,#879,#880,#881,#882,#883,#884),
  .UNSPECIFIED.,.T.,.F.,(8,6,6,6,6,6,6,8),(0.,0.151953579513,
    0.286472809437,0.422725825299,0.587364291648,0.713331853121,
    0.83835333362,1.),.UNSPECIFIED.);
#841 = CARTESIAN_POINT('',(-6.1,31.413213780191,71.));
#842 = CARTESIAN_POINT('',(-6.1,31.413213780191,70.808008283594));
#843 = CARTESIAN_POINT('',(-6.073123230012,31.418432806132,
    70.615995980747));
#844 = CARTESIAN_POINT('',(-6.019352827358,31.428874573343,
    70.426591884647));
#845 = CARTESIAN_POINT('',(-5.938064445089,31.444508455456,
    70.242707363182));
#846 = CARTESIAN_POINT('',(-5.828310413649,31.465220827059,
    70.067961079679));
#847 = CARTESIAN_POINT('',(-5.689065259691,31.490697650276,
    69.907142367777));
#848 = CARTESIAN_POINT('',(-5.370103114347,31.546554694991,
    69.643273933107));
#849 = CARTESIAN_POINT('',(-5.192349199985,31.576826942599,
    69.531979508375));
#850 = CARTESIAN_POINT('',(-4.990106191571,31.609962396329,
    69.445145535033));
#851 = CARTESIAN_POINT('',(-4.770443119345,31.644102109633,
    69.391029284162));
#852 = CARTESIAN_POINT('',(-4.542700956943,31.67730978276,
    69.374162683748));
#853 = CARTESIAN_POINT('',(-4.31689397092,31.708221889283,69.39511624332
    ));
#854 = CARTESIAN_POINT('',(-3.884529913193,31.764107940853,
    69.506128465136));
#855 = CARTESIAN_POINT('',(-3.68565720751,31.788044387722,
    69.595173375474));
#856 = CARTESIAN_POINT('',(-3.509234019217,31.807863973581,
    69.710445161178));
#857 = CARTESIAN_POINT('',(-3.357259176793,31.823968079822,
    69.845853842416));
#858 = CARTESIAN_POINT('',(-3.230641672238,31.836788260433,
    69.995785021818));
#859 = CARTESIAN_POINT('',(-3.129324053436,31.846716027956,
    70.155019207107));
#860 = CARTESIAN_POINT('',(-2.959178186217,31.86301949562,
    70.516597580163));
#861 = CARTESIAN_POINT('',(-2.899516598052,31.86841594588,
    70.725258344902));
#862 = CARTESIAN_POINT('',(-2.872726499078,31.870756835502,
    70.939961733439));
#863 = CARTESIAN_POINT('',(-2.878930161398,31.870209108128,
    71.156613655654));
#864 = CARTESIAN_POINT('',(-2.918501771344,31.866725917544,
    71.370806431376));
#865 = CARTESIAN_POINT('',(-2.991631950767,31.860030445795,
    71.577488076269));
#866 = CARTESIAN_POINT('',(-3.179223845054,31.841784032172,
    71.918716465222));
#867 = CARTESIAN_POINT('',(-3.28155868644,31.831585764524,
    72.061742314425));
#868 = CARTESIAN_POINT('',(-3.405579776323,31.818805990755,
    72.195715556881));
#869 = CARTESIAN_POINT('',(-3.551107555449,31.803133038212,
    72.316240601272));
#870 = CARTESIAN_POINT('',(-3.717152842296,31.784243936666,
    72.418721645589));
#871 = CARTESIAN_POINT('',(-3.901855474162,31.761868491999,
    72.49831998284));
#872 = CARTESIAN_POINT('',(-4.300832976536,31.710297884141,
    72.600759994218));
#873 = CARTESIAN_POINT('',(-4.509688567423,31.681825311035,
    72.622691730916));
#874 = CARTESIAN_POINT('',(-4.721201722785,31.651259597981,
    72.61218345249));
#875 = CARTESIAN_POINT('',(-4.927032041554,31.619702829275,
    72.569285454432));
#876 = CARTESIAN_POINT('',(-5.119288787451,31.588697121767,
    72.497278810047));
#877 = CARTESIAN_POINT('',(-5.291652719742,31.559803755841,
    72.402539395696));
#878 = CARTESIAN_POINT('',(-5.632852297204,31.500937969718,
    72.154643392132));
#879 = CARTESIAN_POINT('',(-5.791396012935,31.472174638758,
    71.988481376483));
#880 = CARTESIAN_POINT('',(-5.916221376902,31.448706574508,
    71.805008648265));
#881 = CARTESIAN_POINT('',(-6.008554178715,31.430971832733,
    71.610279642269));
#882 = CARTESIAN_POINT('',(-6.069531424459,31.4191302043,71.408908023728
    ));
#883 = CARTESIAN_POINT('',(-6.1,31.413213780191,71.204413548169));
#884 = CARTESIAN_POINT('',(-6.1,31.413213780191,71.));
#885 = ORIENTED_EDGE('',*,*,#886,.F.);
#886 = EDGE_CURVE('',#313,#838,#887,.T.);
#887 = LINE('',#888,#889);
#888 = CARTESIAN_POINT('',(-6.1,36.5,71.));
#889 = VECTOR('',#890,1.);
#890 = DIRECTION('',(-6.E-17,-1.,0.));
#891 = ORIENTED_EDGE('',*,*,#312,.T.);
#892 = ORIENTED_EDGE('',*,*,#886,.T.);
#893 = CYLINDRICAL_SURFACE('',#894,1.6);
#894 = AXIS2_PLACEMENT_3D('',#895,#896,#897);
#895 = CARTESIAN_POINT('',(-4.5,36.5,71.));
#896 = DIRECTION('',(-6.E-17,-1.,0.));
#897 = DIRECTION('',(-1.,6.E-17,0.));
#898 = ADVANCED_FACE('',(#899),#918,.F.);
#899 = FACE_BOUND('',#900,.F.);
#900 = EDGE_LOOP('',(#901,#909,#916,#917));
#901 = ORIENTED_EDGE('',*,*,#902,.T.);
#902 = EDGE_CURVE('',#364,#903,#905,.T.);
#903 = VERTEX_POINT('',#904);
#904 = CARTESIAN_POINT('',(-3.,32.9,93.));
#905 = LINE('',#906,#907);
#906 = CARTESIAN_POINT('',(-3.,36.5,93.));
#907 = VECTOR('',#908,1.);
#908 = DIRECTION('',(-6.E-17,-1.,0.));
#909 = ORIENTED_EDGE('',*,*,#910,.F.);
#910 = EDGE_CURVE('',#903,#903,#911,.T.);
#911 = CIRCLE('',#912,3.);
#912 = AXIS2_PLACEMENT_3D('',#913,#914,#915);
#913 = CARTESIAN_POINT('',(2.01E-15,32.9,93.));
#914 = DIRECTION('',(-6.E-17,-1.,-0.));
#915 = DIRECTION('',(-1.,6.E-17,0.));
#916 = ORIENTED_EDGE('',*,*,#902,.F.);
#917 = ORIENTED_EDGE('',*,*,#363,.T.);
#918 = CYLINDRICAL_SURFACE('',#919,3.);
#919 = AXIS2_PLACEMENT_3D('',#920,#921,#922);
#920 = CARTESIAN_POINT('',(2.23E-15,36.5,93.));
#921 = DIRECTION('',(-6.E-17,-1.,0.));
#922 = DIRECTION('',(-1.,6.E-17,0.));
#923 = ADVANCED_FACE('',(#924,#930,#981,#984,#987,#993,#996),#1047,.F.);
#924 = FACE_BOUND('',#925,.F.);
#925 = EDGE_LOOP('',(#926,#927,#928,#929));
#926 = ORIENTED_EDGE('',*,*,#467,.T.);
#927 = ORIENTED_EDGE('',*,*,#443,.F.);
#928 = ORIENTED_EDGE('',*,*,#490,.F.);
#929 = ORIENTED_EDGE('',*,*,#516,.T.);
#930 = FACE_BOUND('',#931,.F.);
#931 = EDGE_LOOP('',(#932));
#932 = ORIENTED_EDGE('',*,*,#933,.T.);
#933 = EDGE_CURVE('',#934,#934,#936,.T.);
#934 = VERTEX_POINT('',#935);
#935 = CARTESIAN_POINT('',(-1.65,31.957432625291,45.));
#936 = B_SPLINE_CURVE_WITH_KNOTS('',7,(#937,#938,#939,#940,#941,#942,
    #943,#944,#945,#946,#947,#948,#949,#950,#951,#952,#953,#954,#955,
    #956,#957,#958,#959,#960,#961,#962,#963,#964,#965,#966,#967,#968,
    #969,#970,#971,#972,#973,#974,#975,#976,#977,#978,#979,#980),
  .UNSPECIFIED.,.T.,.F.,(8,6,6,6,6,6,6,8),(0.,0.152558832421,
    0.285738538628,0.421989692792,0.588494360498,0.714360729929,
    0.837997007522,1.),.UNSPECIFIED.);
#937 = CARTESIAN_POINT('',(-1.65,31.957432625291,45.));
#938 = CARTESIAN_POINT('',(-1.65,31.957432625291,44.802724975175));
#939 = CARTESIAN_POINT('',(-1.622483767016,31.958853249017,
    44.605526549467));
#940 = CARTESIAN_POINT('',(-1.567481608747,31.961693448329,
    44.410829077137));
#941 = CARTESIAN_POINT('',(-1.48419800986,31.96584285604,44.221384895274
    ));
#942 = CARTESIAN_POINT('',(-1.371353713786,31.971073170223,
    44.040791047271));
#943 = CARTESIAN_POINT('',(-1.227494193095,31.976931960005,
    43.874041734936));
#944 = CARTESIAN_POINT('',(-0.898329324442,31.987756527378,43.6017328735
    ));
#945 = CARTESIAN_POINT('',(-0.71535518141,31.992913560066,
    43.486744173375));
#946 = CARTESIAN_POINT('',(-0.506495289272,31.997470002109,
    43.39671123708));
#947 = CARTESIAN_POINT('',(-0.279286228134,32.00052165457,
    43.340608907006));
#948 = CARTESIAN_POINT('',(-4.378371842027E-02,32.001410294943,
    43.323259250092));
#949 = CARTESIAN_POINT('',(0.18929484261,32.000203682386,43.345083466986
    ));
#950 = CARTESIAN_POINT('',(0.636479585123,31.994468928593,
    43.459900993886));
#951 = CARTESIAN_POINT('',(0.842270072488,31.98996485551,43.5525315505)
  );
#952 = CARTESIAN_POINT('',(1.024043675733,31.984507662059,
    43.671975973764));
#953 = CARTESIAN_POINT('',(1.18012338161,31.978820648246,43.811689565464
    ));
#954 = CARTESIAN_POINT('',(1.309946309694,31.973472816558,
    43.965870059056));
#955 = CARTESIAN_POINT('',(1.413846492431,31.968849078936,
    44.129329554165));
#956 = CARTESIAN_POINT('',(1.589650351857,31.960637982976,
    44.502931772704));
#957 = CARTESIAN_POINT('',(1.650697685069,31.957444786569,
    44.718294924498));
#958 = CARTESIAN_POINT('',(1.677806373126,31.955948224205,
    44.938727296579));
#959 = CARTESIAN_POINT('',(1.671442205413,31.956294290343,
    45.160764628477));
#960 = CARTESIAN_POINT('',(1.63123342332,31.958488464659,45.380653421998
    ));
#961 = CARTESIAN_POINT('',(1.556344288223,31.962321787055,
    45.594007101898));
#962 = CARTESIAN_POINT('',(1.362422094576,31.971093035129,45.94675026264
    ));
#963 = CARTESIAN_POINT('',(1.257457592018,31.97558575411,46.093605303859
    ));
#964 = CARTESIAN_POINT('',(1.130227054685,31.980594908191,
    46.231422541789));
#965 = CARTESIAN_POINT('',(0.98068096782,31.985780826733,46.355802775429
    ));
#966 = CARTESIAN_POINT('',(0.809536420041,31.990670812558,
    46.461978261935));
#967 = CARTESIAN_POINT('',(0.618408649685,31.994700672558,
    46.544738833726));
#968 = CARTESIAN_POINT('',(0.205954554125,31.999990036135,46.65063904612
    ));
#969 = CARTESIAN_POINT('',(-9.518994591996E-03,32.001229537637,
    46.67345833016));
#970 = CARTESIAN_POINT('',(-0.228149637416,32.000691895584,
    46.662719610613));
#971 = CARTESIAN_POINT('',(-0.441028853131,31.998284189235,
    46.618301720237));
#972 = CARTESIAN_POINT('',(-0.639623848834,31.994461537925,
    46.543684304994));
#973 = CARTESIAN_POINT('',(-0.81719886487,31.989928235059,
    46.445782433709));
#974 = CARTESIAN_POINT('',(-1.169861706094,31.979234931228,
    46.189557881512));
#975 = CARTESIAN_POINT('',(-1.333712233149,31.972805927414,
    46.017092043652));
#976 = CARTESIAN_POINT('',(-1.462008932262,31.966945402963,
    45.827378930354));
#977 = CARTESIAN_POINT('',(-1.556529052819,31.962259320806,
    45.626757882847));
#978 = CARTESIAN_POINT('',(-1.618832268627,31.959041684058,
    45.41984865398));
#979 = CARTESIAN_POINT('',(-1.65,31.957432625291,45.209950962939));
#980 = CARTESIAN_POINT('',(-1.65,31.957432625291,45.));
#981 = FACE_BOUND('',#982,.F.);
#982 = EDGE_LOOP('',(#983));
#983 = ORIENTED_EDGE('',*,*,#557,.T.);
#984 = FACE_BOUND('',#985,.F.);
#985 = EDGE_LOOP('',(#986));
#986 = ORIENTED_EDGE('',*,*,#628,.T.);
#987 = FACE_BOUND('',#988,.F.);
#988 = EDGE_LOOP('',(#989,#990,#991,#992));
#989 = ORIENTED_EDGE('',*,*,#701,.F.);
#990 = ORIENTED_EDGE('',*,*,#734,.F.);
#991 = ORIENTED_EDGE('',*,*,#820,.T.);
#992 = ORIENTED_EDGE('',*,*,#772,.F.);
#993 = FACE_BOUND('',#994,.F.);
#994 = EDGE_LOOP('',(#995));
#995 = ORIENTED_EDGE('',*,*,#837,.T.);
#996 = FACE_BOUND('',#997,.F.);
#997 = EDGE_LOOP('',(#998));
#998 = ORIENTED_EDGE('',*,*,#999,.T.);
#999 = EDGE_CURVE('',#1000,#1000,#1002,.T.);
#1000 = VERTEX_POINT('',#1001);
#1001 = CARTESIAN_POINT('',(-1.65,31.957432625291,93.));
#1002 = B_SPLINE_CURVE_WITH_KNOTS('',7,(#1003,#1004,#1005,#1006,#1007,
    #1008,#1009,#1010,#1011,#1012,#1013,#1014,#1015,#1016,#1017,#1018,
    #1019,#1020,#1021,#1022,#1023,#1024,#1025,#1026,#1027,#1028,#1029,
    #1030,#1031,#1032,#1033,#1034,#1035,#1036,#1037,#1038,#1039,#1040,
    #1041,#1042,#1043,#1044,#1045,#1046),.UNSPECIFIED.,.T.,.F.,(8,6,6,6,
    6,6,6,8),(0.,0.152558832171,0.285738538293,0.421989692331,
    0.588494360011,0.714360729544,0.837997007255,1.),.UNSPECIFIED.);
#1003 = CARTESIAN_POINT('',(-1.65,31.957432625291,93.));
#1004 = CARTESIAN_POINT('',(-1.65,31.957432625291,92.802724975175));
#1005 = CARTESIAN_POINT('',(-1.622483767016,31.958853249017,
    92.605526549467));
#1006 = CARTESIAN_POINT('',(-1.567481608747,31.961693448329,
    92.410829077138));
#1007 = CARTESIAN_POINT('',(-1.48419800986,31.96584285604,
    92.221384895274));
#1008 = CARTESIAN_POINT('',(-1.371353713786,31.971073170223,
    92.040791047271));
#1009 = CARTESIAN_POINT('',(-1.227494193095,31.976931960005,
    91.874041734936));
#1010 = CARTESIAN_POINT('',(-0.898329324288,31.987756527383,
    91.601732873373));
#1011 = CARTESIAN_POINT('',(-0.715355181551,31.992913560059,
    91.486744173565));
#1012 = CARTESIAN_POINT('',(-0.506495289458,31.997470002108,
    91.396711237045));
#1013 = CARTESIAN_POINT('',(-0.279286227956,32.000521654577,
    91.340608906894));
#1014 = CARTESIAN_POINT('',(-4.378371823991E-02,32.001410294937,
    91.323259250204));
#1015 = CARTESIAN_POINT('',(0.189294842419,32.000203682388,
    91.345083466937));
#1016 = CARTESIAN_POINT('',(0.636479585253,31.994468928591,
    91.459900993919));
#1017 = CARTESIAN_POINT('',(0.842270072498,31.989964855508,
    91.552531550548));
#1018 = CARTESIAN_POINT('',(1.024043675634,31.984507662062,
    91.671975973722));
#1019 = CARTESIAN_POINT('',(1.180123381539,31.97882064825,
    91.811689565363));
#1020 = CARTESIAN_POINT('',(1.309946309726,31.973472816557,
    91.965870059037));
#1021 = CARTESIAN_POINT('',(1.413846492491,31.968849078933,
    92.129329554293));
#1022 = CARTESIAN_POINT('',(1.589650351859,31.960637982976,
    92.502931772707));
#1023 = CARTESIAN_POINT('',(1.650697685069,31.957444786569,
    92.718294924501));
#1024 = CARTESIAN_POINT('',(1.677806373126,31.955948224205,
    92.938727296582));
#1025 = CARTESIAN_POINT('',(1.671442205412,31.956294290344,
    93.160764628476));
#1026 = CARTESIAN_POINT('',(1.631233423321,31.958488464659,
    93.380653421993));
#1027 = CARTESIAN_POINT('',(1.556344288225,31.962321787055,
    93.594007101894));
#1028 = CARTESIAN_POINT('',(1.362422094494,31.971093035132,
    93.946750262789));
#1029 = CARTESIAN_POINT('',(1.257457591983,31.975585754112,
    94.093605303836));
#1030 = CARTESIAN_POINT('',(1.130227054777,31.980594908186,
    94.231422541672));
#1031 = CARTESIAN_POINT('',(0.980680967941,31.98578082673,94.35580277538
    ));
#1032 = CARTESIAN_POINT('',(0.809536420027,31.99067081256,94.46197826199
    ));
#1033 = CARTESIAN_POINT('',(0.618408649527,31.99470067256,
    94.544738833766));
#1034 = CARTESIAN_POINT('',(0.20595455425,31.999990036133,
    94.650639046088));
#1035 = CARTESIAN_POINT('',(-9.518994710971E-03,32.00122953764,
    94.67345833023));
#1036 = CARTESIAN_POINT('',(-0.228149637531,32.00069189558,
    94.662719610547));
#1037 = CARTESIAN_POINT('',(-0.441028853012,31.998284189235,
    94.618301720213));
#1038 = CARTESIAN_POINT('',(-0.639623848736,31.994461537929,
    94.543684305109));
#1039 = CARTESIAN_POINT('',(-0.817198864975,31.989928235056,
    94.445782433633));
#1040 = CARTESIAN_POINT('',(-1.169861706094,31.979234931228,
    94.189557881513));
#1041 = CARTESIAN_POINT('',(-1.333712233149,31.972805927414,
    94.017092043651));
#1042 = CARTESIAN_POINT('',(-1.462008932262,31.966945402963,
    93.827378930354));
#1043 = CARTESIAN_POINT('',(-1.556529052819,31.962259320806,
    93.626757882846));
#1044 = CARTESIAN_POINT('',(-1.618832268627,31.959041684058,
    93.41984865398));
#1045 = CARTESIAN_POINT('',(-1.65,31.957432625291,93.20995096294));
#1046 = CARTESIAN_POINT('',(-1.65,31.957432625291,93.));
#1047 = CYLINDRICAL_SURFACE('',#1048,32.);
#1048 = AXIS2_PLACEMENT_3D('',#1049,#1050,#1051);
#1049 = CARTESIAN_POINT('',(0.,0.,39.3));
#1050 = DIRECTION('',(0.,0.,1.));
#1051 = DIRECTION('',(0.537325748236,0.843374792297,0.));
#1052 = ADVANCED_FACE('',(#1053,#1056),#1067,.F.);
#1053 = FACE_BOUND('',#1054,.F.);
#1054 = EDGE_LOOP('',(#1055));
#1055 = ORIENTED_EDGE('',*,*,#540,.T.);
#1056 = FACE_BOUND('',#1057,.F.);
#1057 = EDGE_LOOP('',(#1058));
#1058 = ORIENTED_EDGE('',*,*,#1059,.F.);
#1059 = EDGE_CURVE('',#1060,#1060,#1062,.T.);
#1060 = VERTEX_POINT('',#1061);
#1061 = CARTESIAN_POINT('',(-1.65,32.9,45.));
#1062 = CIRCLE('',#1063,1.65);
#1063 = AXIS2_PLACEMENT_3D('',#1064,#1065,#1066);
#1064 = CARTESIAN_POINT('',(2.01E-15,32.9,45.));
#1065 = DIRECTION('',(-6.E-17,-1.,-0.));
#1066 = DIRECTION('',(-1.,6.E-17,0.));
#1067 = PLANE('',#1068);
#1068 = AXIS2_PLACEMENT_3D('',#1069,#1070,#1071);
#1069 = CARTESIAN_POINT('',(2.01E-15,32.9,45.));
#1070 = DIRECTION('',(-6.E-17,-1.,0.));
#1071 = DIRECTION('',(-1.,6.E-17,0.));
#1072 = ADVANCED_FACE('',(#1073,#1076),#1087,.F.);
#1073 = FACE_BOUND('',#1074,.F.);
#1074 = EDGE_LOOP('',(#1075));
#1075 = ORIENTED_EDGE('',*,*,#910,.T.);
#1076 = FACE_BOUND('',#1077,.F.);
#1077 = EDGE_LOOP('',(#1078));
#1078 = ORIENTED_EDGE('',*,*,#1079,.F.);
#1079 = EDGE_CURVE('',#1080,#1080,#1082,.T.);
#1080 = VERTEX_POINT('',#1081);
#1081 = CARTESIAN_POINT('',(-1.65,32.9,93.));
#1082 = CIRCLE('',#1083,1.65);
#1083 = AXIS2_PLACEMENT_3D('',#1084,#1085,#1086);
#1084 = CARTESIAN_POINT('',(2.01E-15,32.9,93.));
#1085 = DIRECTION('',(-6.E-17,-1.,-0.));
#1086 = DIRECTION('',(-1.,6.E-17,0.));
#1087 = PLANE('',#1088);
#1088 = AXIS2_PLACEMENT_3D('',#1089,#1090,#1091);
#1089 = CARTESIAN_POINT('',(2.01E-15,32.9,93.));
#1090 = DIRECTION('',(-6.E-17,-1.,0.));
#1091 = DIRECTION('',(-1.,6.E-17,0.));
#1092 = ADVANCED_FACE('',(#1093),#1104,.F.);
#1093 = FACE_BOUND('',#1094,.F.);
#1094 = EDGE_LOOP('',(#1095,#1101,#1102,#1103));
#1095 = ORIENTED_EDGE('',*,*,#1096,.T.);
#1096 = EDGE_CURVE('',#1060,#934,#1097,.T.);
#1097 = LINE('',#1098,#1099);
#1098 = CARTESIAN_POINT('',(-1.65,36.5,45.));
#1099 = VECTOR('',#1100,1.);
#1100 = DIRECTION('',(-6.E-17,-1.,0.));
#1101 = ORIENTED_EDGE('',*,*,#933,.F.);
#1102 = ORIENTED_EDGE('',*,*,#1096,.F.);
#1103 = ORIENTED_EDGE('',*,*,#1059,.T.);
#1104 = CYLINDRICAL_SURFACE('',#1105,1.65);
#1105 = AXIS2_PLACEMENT_3D('',#1106,#1107,#1108);
#1106 = CARTESIAN_POINT('',(2.23E-15,36.5,45.));
#1107 = DIRECTION('',(-6.E-17,-1.,0.));
#1108 = DIRECTION('',(-1.,6.E-17,0.));
#1109 = ADVANCED_FACE('',(#1110),#1121,.F.);
#1110 = FACE_BOUND('',#1111,.F.);
#1111 = EDGE_LOOP('',(#1112,#1118,#1119,#1120));
#1112 = ORIENTED_EDGE('',*,*,#1113,.T.);
#1113 = EDGE_CURVE('',#1080,#1000,#1114,.T.);
#1114 = LINE('',#1115,#1116);
#1115 = CARTESIAN_POINT('',(-1.65,36.5,93.));
#1116 = VECTOR('',#1117,1.);
#1117 = DIRECTION('',(-6.E-17,-1.,0.));
#1118 = ORIENTED_EDGE('',*,*,#999,.F.);
#1119 = ORIENTED_EDGE('',*,*,#1113,.F.);
#1120 = ORIENTED_EDGE('',*,*,#1079,.T.);
#1121 = CYLINDRICAL_SURFACE('',#1122,1.65);
#1122 = AXIS2_PLACEMENT_3D('',#1123,#1124,#1125);
#1123 = CARTESIAN_POINT('',(2.23E-15,36.5,93.));
#1124 = DIRECTION('',(-6.E-17,-1.,0.));
#1125 = DIRECTION('',(-1.,6.E-17,0.));
#1126 = ( GEOMETRIC_REPRESENTATION_CONTEXT(3) 
GLOBAL_UNCERTAINTY_ASSIGNED_CONTEXT((#1130)) 
GLOBAL_UNIT_ASSIGNED_CONTEXT((#1127,#1128,#1129)) REPRESENTATION_CONTEXT
('Context #1','3D Context with UNIT and UNCERTAINTY') );
#1127 = ( LENGTH_UNIT() NAMED_UNIT(*) SI_UNIT(.MILLI.,.METRE.) );
#1128 = ( NAMED_UNIT(*) PLANE_ANGLE_UNIT() SI_UNIT($,.RADIAN.) );
#1129 = ( NAMED_UNIT(*) SI_UNIT($,.STERADIAN.) SOLID_ANGLE_UNIT() );
#1130 = UNCERTAINTY_MEASURE_WITH_UNIT(LENGTH_MEASURE(1.E-07),#1127,
  'distance_accuracy_value','confusion accuracy');
#1131 = PRODUCT_RELATED_PRODUCT_CATEGORY('part',$,(#7));
ENDSEC;
END-ISO-10303-21;
