ISO-10303-21;
HEADER;
FILE_DESCRIPTION(('FreeCAD Model'),'2;1');
FILE_NAME('Open CASCADE Shape Model','2026-09-25T18:51:14',('FreeCAD'),(
    'FreeCAD'),'Open CASCADE STEP processor 7.8','FreeCAD','Unknown');
FILE_SCHEMA(('AUTOMOTIVE_DESIGN { 1 0 10303 214 1 1 1 1 }'));
ENDSEC;
DATA;
#1 = APPLICATION_PROTOCOL_DEFINITION('international standard',
  'automotive_design',2000,#2);
#2 = APPLICATION_CONTEXT(
  'core data for automotive mechanical design processes');
#3 = SHAPE_DEFINITION_REPRESENTATION(#4,#10);
#4 = PRODUCT_DEFINITION_SHAPE('','',#5);
#5 = PRODUCT_DEFINITION('design','',#6,#9);
#6 = PRODUCT_DEFINITION_FORMATION('','',#7);
#7 = PRODUCT('Open CASCADE STEP translator 7.8 6',
  'Open CASCADE STEP translator 7.8 6','',(#8));
#8 = PRODUCT_CONTEXT('',#2,'mechanical');
#9 = PRODUCT_DEFINITION_CONTEXT('part definition',#2,'design');
#10 = ADVANCED_BREP_SHAPE_REPRESENTATION('',(#11,#15),#765);
#11 = AXIS2_PLACEMENT_3D('',#12,#13,#14);
#12 = CARTESIAN_POINT('',(0.,0.,0.));
#13 = DIRECTION('',(0.,0.,1.));
#14 = DIRECTION('',(1.,0.,-0.));
#15 = MANIFOLD_SOLID_BREP('',#16);
#16 = CLOSED_SHELL('',(#17,#267,#299,#323,#347,#365,#390,#422,#469,#516,
    #534,#559,#691,#711,#731,#748));
#17 = ADVANCED_FACE('',(#18,#54,#117,#199),#262,.T.);
#18 = FACE_BOUND('',#19,.T.);
#19 = EDGE_LOOP('',(#20,#31,#39,#48));
#20 = ORIENTED_EDGE('',*,*,#21,.F.);
#21 = EDGE_CURVE('',#22,#24,#26,.T.);
#22 = VERTEX_POINT('',#23);
#23 = CARTESIAN_POINT('',(31.393220400349,-14.30788988268,88.7));
#24 = VERTEX_POINT('',#25);
#25 = CARTESIAN_POINT('',(31.393220400349,14.307889882687,88.7));
#26 = CIRCLE('',#27,34.5);
#27 = AXIS2_PLACEMENT_3D('',#28,#29,#30);
#28 = CARTESIAN_POINT('',(0.,0.,88.7));
#29 = DIRECTION('',(-0.,0.,1.));
#30 = DIRECTION('',(0.909948417401,-0.414721445875,0.));
#31 = ORIENTED_EDGE('',*,*,#32,.F.);
#32 = EDGE_CURVE('',#33,#22,#35,.T.);
#33 = VERTEX_POINT('',#34);
#34 = CARTESIAN_POINT('',(31.393220400349,-14.30788988268,49.3));
#35 = LINE('',#36,#37);
#36 = CARTESIAN_POINT('',(31.393220400349,-14.30788988268,49.3));
#37 = VECTOR('',#38,1.);
#38 = DIRECTION('',(0.,0.,1.));
#39 = ORIENTED_EDGE('',*,*,#40,.T.);
#40 = EDGE_CURVE('',#33,#41,#43,.T.);
#41 = VERTEX_POINT('',#42);
#42 = CARTESIAN_POINT('',(31.393220400349,14.307889882687,49.3));
#43 = CIRCLE('',#44,34.5);
#44 = AXIS2_PLACEMENT_3D('',#45,#46,#47);
#45 = CARTESIAN_POINT('',(0.,0.,49.3));
#46 = DIRECTION('',(-0.,0.,1.));
#47 = DIRECTION('',(0.909948417401,-0.414721445875,0.));
#48 = ORIENTED_EDGE('',*,*,#49,.T.);
#49 = EDGE_CURVE('',#41,#24,#50,.T.);
#50 = LINE('',#51,#52);
#51 = CARTESIAN_POINT('',(31.393220400349,14.307889882687,49.3));
#52 = VECTOR('',#53,1.);
#53 = DIRECTION('',(0.,0.,1.));
#54 = FACE_BOUND('',#55,.T.);
#55 = EDGE_LOOP('',(#56));
#56 = ORIENTED_EDGE('',*,*,#57,.T.);
#57 = EDGE_CURVE('',#58,#58,#60,.T.);
#58 = VERTEX_POINT('',#59);
#59 = CARTESIAN_POINT('',(34.5,1.E-15,51.));
#60 = B_SPLINE_CURVE_WITH_KNOTS('',7,(#61,#62,#63,#64,#65,#66,#67,#68,
    #69,#70,#71,#72,#73,#74,#75,#76,#77,#78,#79,#80,#81,#82,#83,#84,#85,
    #86,#87,#88,#89,#90,#91,#92,#93,#94,#95,#96,#97,#98,#99,#100,#101,
    #102,#103,#104,#105,#106,#107,#108,#109,#110,#111,#112,#113,#114,
    #115,#116),.UNSPECIFIED.,.T.,.F.,(8,6,6,6,6,6,6,6,6,8),(0.,
    8.653247903536E-02,0.169273479302,0.34386415647,0.473138730401,
    0.580359026658,0.672590048212,0.779544089326,0.894138923597,1.),
  .UNSPECIFIED.);
#61 = CARTESIAN_POINT('',(34.5,-4.4E-16,51.));
#62 = CARTESIAN_POINT('',(34.5,-0.259343786898,51.));
#63 = CARTESIAN_POINT('',(34.497725995032,-0.516361321784,
    51.026156313665));
#64 = CARTESIAN_POINT('',(34.493248915778,-0.766920154163,
    51.077624663342));
#65 = CARTESIAN_POINT('',(34.486863502556,-1.007085580374,
    51.152506570401));
#66 = CARTESIAN_POINT('',(34.479040560266,-1.233375134372,51.2479087398)
  );
#67 = CARTESIAN_POINT('',(34.470340360598,-1.442974822896,
    51.359988928274));
#68 = CARTESIAN_POINT('',(34.452630693061,-1.816493122677,51.60255454835
    ));
#69 = CARTESIAN_POINT('',(34.443571731796,-1.983701272849,
    51.733115781375));
#70 = CARTESIAN_POINT('',(34.434446150828,-2.13566880109,51.873447957514
    ));
#71 = CARTESIAN_POINT('',(34.425533476017,-2.272687975888,52.02170588106
    ));
#72 = CARTESIAN_POINT('',(34.417054972408,-2.395148348389,
    52.176361543142));
#73 = CARTESIAN_POINT('',(34.409179164963,-2.503475490495,
    52.336146745041));
#74 = CARTESIAN_POINT('',(34.386959644329,-2.797691926201,
    52.845744560105));
#75 = CARTESIAN_POINT('',(34.375115067493,-2.9365357492,53.210195357857)
  );
#76 = CARTESIAN_POINT('',(34.367689567837,-3.018554824029,
    53.584336177099));
#77 = CARTESIAN_POINT('',(34.365149782626,-3.046222487578,
    53.962674394306));
#78 = CARTESIAN_POINT('',(34.367592674045,-3.020246772883,
    54.340610818596));
#79 = CARTESIAN_POINT('',(34.374827811835,-2.939488279841,
    54.713655555267));
#80 = CARTESIAN_POINT('',(34.394496405109,-2.698006931673,
    55.342735974708));
#81 = CARTESIAN_POINT('',(34.405101770037,-2.563372317994,
    55.604293052624));
#82 = CARTESIAN_POINT('',(34.417652842388,-2.395490489941,55.85681667148
    ));
#83 = CARTESIAN_POINT('',(34.431663098791,-2.192712010613,
    56.096279918105));
#84 = CARTESIAN_POINT('',(34.446388634296,-1.953397805626,
    56.317322805512));
#85 = CARTESIAN_POINT('',(34.46068366867,-1.676394024453,56.512813294064
    ));
#86 = CARTESIAN_POINT('',(34.483408981308,-1.101189542794,
    56.805894616133));
#87 = CARTESIAN_POINT('',(34.492559878507,-0.811212493097,
    56.916258050026));
#88 = CARTESIAN_POINT('',(34.499363589007,-0.498927281627,
    56.993328115926));
#89 = CARTESIAN_POINT('',(34.502729053921,-0.17356479692,57.030431004861
    ));
#90 = CARTESIAN_POINT('',(34.502172365188,0.154305232747,57.025028759763
    ));
#91 = CARTESIAN_POINT('',(34.498068483448,0.474078282569,56.978799648267
    ));
#92 = CARTESIAN_POINT('',(34.485405975537,1.036563770507,56.828082116019
    ));
#93 = CARTESIAN_POINT('',(34.477425341076,1.289374723347,56.731147271234
    ));
#94 = CARTESIAN_POINT('',(34.467625597233,1.531448444243,56.607894716354
    ));
#95 = CARTESIAN_POINT('',(34.456483361098,1.759524844039,56.459783148973
    ));
#96 = CARTESIAN_POINT('',(34.444595961191,1.970594992343,56.288760749796
    ));
#97 = CARTESIAN_POINT('',(34.432610671698,2.161982685524,56.097220916366
    ));
#98 = CARTESIAN_POINT('',(34.407823137131,2.527943550242,55.645296885123
    ));
#99 = CARTESIAN_POINT('',(34.395650705017,2.6882443309,55.387092492212)
  );
#100 = CARTESIAN_POINT('',(34.385362467715,2.814161122306,
    55.118529252423));
#101 = CARTESIAN_POINT('',(34.377403996433,2.907360589492,
    54.843173687462));
#102 = CARTESIAN_POINT('',(34.3720158351,2.969088971154,54.563621046396)
  );
#103 = CARTESIAN_POINT('',(34.369317712169,3.,54.281934253756));
#104 = CARTESIAN_POINT('',(34.369317712169,3.,53.697924372488));
#105 = CARTESIAN_POINT('',(34.372415065466,2.964515005214,53.39619424398
    ));
#106 = CARTESIAN_POINT('',(34.378597866056,2.893683967451,
    53.097071754874));
#107 = CARTESIAN_POINT('',(34.387709496627,2.786628003128,
    52.803081987677));
#108 = CARTESIAN_POINT('',(34.399436214794,2.641689714939,
    52.517508043481));
#109 = CARTESIAN_POINT('',(34.41317302481,2.456703069654,52.245015524783
    ));
#110 = CARTESIAN_POINT('',(34.441485669191,2.019486985656,51.75943787021
    ));
#111 = CARTESIAN_POINT('',(34.456292015695,1.767678451677,
    51.536990049663));
#112 = CARTESIAN_POINT('',(34.471215726458,1.474304678546,
    51.338763365127));
#113 = CARTESIAN_POINT('',(34.484635259167,1.143118531808,
    51.176699359821));
#114 = CARTESIAN_POINT('',(34.494694930039,0.780744268624,51.06100724024
    ));
#115 = CARTESIAN_POINT('',(34.5,0.396077854837,51.));
#116 = CARTESIAN_POINT('',(34.5,-4.4E-16,51.));
#117 = FACE_BOUND('',#118,.T.);
#118 = EDGE_LOOP('',(#119,#130,#161,#170));
#119 = ORIENTED_EDGE('',*,*,#120,.F.);
#120 = EDGE_CURVE('',#121,#123,#125,.T.);
#121 = VERTEX_POINT('',#122);
#122 = CARTESIAN_POINT('',(34.369317712169,-3.,67.3));
#123 = VERTEX_POINT('',#124);
#124 = CARTESIAN_POINT('',(34.369317712169,3.,67.3));
#125 = CIRCLE('',#126,34.5);
#126 = AXIS2_PLACEMENT_3D('',#127,#128,#129);
#127 = CARTESIAN_POINT('',(0.,0.,67.3));
#128 = DIRECTION('',(-0.,0.,1.));
#129 = DIRECTION('',(0.909948417401,-0.414721445875,0.));
#130 = ORIENTED_EDGE('',*,*,#131,.F.);
#131 = EDGE_CURVE('',#132,#121,#134,.T.);
#132 = VERTEX_POINT('',#133);
#133 = CARTESIAN_POINT('',(34.369317712169,-3.,70.7));
#134 = B_SPLINE_CURVE_WITH_KNOTS('',7,(#135,#136,#137,#138,#139,#140,
    #141,#142,#143,#144,#145,#146,#147,#148,#149,#150,#151,#152,#153,
    #154,#155,#156,#157,#158,#159,#160),.UNSPECIFIED.,.F.,.F.,(8,6,6,6,8
    ),(0.,0.257657618146,0.499999999038,0.742342379931,1.),
  .UNSPECIFIED.);
#135 = CARTESIAN_POINT('',(34.369317712169,-3.,70.7));
#136 = CARTESIAN_POINT('',(34.348959245157,-3.233235540282,70.7));
#137 = CARTESIAN_POINT('',(34.327272096381,-3.460376578723,
    70.662667817949));
#138 = CARTESIAN_POINT('',(34.305029656798,-3.674516485975,
    70.591512811541));
#139 = CARTESIAN_POINT('',(34.283226328452,-3.869922469057,
    70.491386051743));
#140 = CARTESIAN_POINT('',(34.262927840952,-4.042259003736,
    70.36839047019));
#141 = CARTESIAN_POINT('',(34.244958840596,-4.188990119017,
    70.229742495378));
#142 = CARTESIAN_POINT('',(34.215422892968,-4.423569624834,
    69.946184583184));
#143 = CARTESIAN_POINT('',(34.203217204121,-4.51695443169,
    69.799048137897));
#144 = CARTESIAN_POINT('',(34.193322421249,-4.590711313612,
    69.645164941134));
#145 = CARTESIAN_POINT('',(34.185849813241,-4.645503256436,
    69.486704073135));
#146 = CARTESIAN_POINT('',(34.180853350791,-4.681837234124,
    69.325385031642));
#147 = CARTESIAN_POINT('',(34.178355724054,-4.7,69.162683902809));
#148 = CARTESIAN_POINT('',(34.178355724054,-4.7,68.83731609719));
#149 = CARTESIAN_POINT('',(34.180853350791,-4.681837234124,
    68.674614968358));
#150 = CARTESIAN_POINT('',(34.185849813241,-4.645503256436,
    68.513295926865));
#151 = CARTESIAN_POINT('',(34.193322421249,-4.590711313612,
    68.354835058866));
#152 = CARTESIAN_POINT('',(34.203217204121,-4.51695443169,
    68.200951862103));
#153 = CARTESIAN_POINT('',(34.215422892968,-4.423569624834,
    68.053815416816));
#154 = CARTESIAN_POINT('',(34.24495884071,-4.188990118115,
    67.770257503531));
#155 = CARTESIAN_POINT('',(34.262927840681,-4.042259005673,
    67.631609532866));
#156 = CARTESIAN_POINT('',(34.283226328584,-3.869922468906,
    67.508613944704));
#157 = CARTESIAN_POINT('',(34.305029657059,-3.674516482287,
    67.408487190369));
#158 = CARTESIAN_POINT('',(34.327272096003,-3.460376583169,
    67.337332181671));
#159 = CARTESIAN_POINT('',(34.348959245316,-3.233235538462,67.3));
#160 = CARTESIAN_POINT('',(34.369317712169,-3.,67.3));
#161 = ORIENTED_EDGE('',*,*,#162,.T.);
#162 = EDGE_CURVE('',#132,#163,#165,.T.);
#163 = VERTEX_POINT('',#164);
#164 = CARTESIAN_POINT('',(34.369317712169,3.,70.7));
#165 = CIRCLE('',#166,34.5);
#166 = AXIS2_PLACEMENT_3D('',#167,#168,#169);
#167 = CARTESIAN_POINT('',(0.,0.,70.7));
#168 = DIRECTION('',(-0.,0.,1.));
#169 = DIRECTION('',(0.909948417401,-0.414721445875,0.));
#170 = ORIENTED_EDGE('',*,*,#171,.F.);
#171 = EDGE_CURVE('',#123,#163,#172,.T.);
#172 = B_SPLINE_CURVE_WITH_KNOTS('',7,(#173,#174,#175,#176,#177,#178,
    #179,#180,#181,#182,#183,#184,#185,#186,#187,#188,#189,#190,#191,
    #192,#193,#194,#195,#196,#197,#198),.UNSPECIFIED.,.F.,.F.,(8,6,6,6,8
    ),(0.,0.257657611565,0.499999990664,0.742342375616,1.),
  .UNSPECIFIED.);
#173 = CARTESIAN_POINT('',(34.369317712169,3.,67.3));
#174 = CARTESIAN_POINT('',(34.348959245316,3.233235538463,67.3));
#175 = CARTESIAN_POINT('',(34.327272096003,3.460376583168,
    67.337332181671));
#176 = CARTESIAN_POINT('',(34.305029657059,3.674516482287,
    67.408487190369));
#177 = CARTESIAN_POINT('',(34.283226328584,3.869922468905,
    67.508613944704));
#178 = CARTESIAN_POINT('',(34.262927840681,4.042259005673,
    67.631609532866));
#179 = CARTESIAN_POINT('',(34.24495884071,4.188990118115,67.770257503531
    ));
#180 = CARTESIAN_POINT('',(34.215422892601,4.423569627745,
    68.053815420334));
#181 = CARTESIAN_POINT('',(34.203217205085,4.51695442406,68.200951854242
    ));
#182 = CARTESIAN_POINT('',(34.193322420182,4.590711322083,
    68.354835062468));
#183 = CARTESIAN_POINT('',(34.185849813799,4.645503251948,
    68.513295933775));
#184 = CARTESIAN_POINT('',(34.180853350678,4.681837235065,
    68.674614958745));
#185 = CARTESIAN_POINT('',(34.178355724054,4.7,68.83731610112));
#186 = CARTESIAN_POINT('',(34.178355724054,4.7,69.162683902809));
#187 = CARTESIAN_POINT('',(34.180853350791,4.681837234124,
    69.325385031642));
#188 = CARTESIAN_POINT('',(34.185849813241,4.645503256436,
    69.486704073134));
#189 = CARTESIAN_POINT('',(34.193322421249,4.590711313612,
    69.645164941135));
#190 = CARTESIAN_POINT('',(34.203217204121,4.51695443169,69.799048137897
    ));
#191 = CARTESIAN_POINT('',(34.215422892968,4.423569624834,
    69.946184583184));
#192 = CARTESIAN_POINT('',(34.24495884071,4.188990118115,70.229742496469
    ));
#193 = CARTESIAN_POINT('',(34.262927840681,4.042259005673,
    70.368390467134));
#194 = CARTESIAN_POINT('',(34.283226328584,3.869922468905,
    70.491386055296));
#195 = CARTESIAN_POINT('',(34.305029657059,3.674516482287,
    70.591512809631));
#196 = CARTESIAN_POINT('',(34.327272096003,3.460376583169,
    70.662667818329));
#197 = CARTESIAN_POINT('',(34.348959245316,3.233235538462,70.7));
#198 = CARTESIAN_POINT('',(34.369317712169,3.,70.7));
#199 = FACE_BOUND('',#200,.T.);
#200 = EDGE_LOOP('',(#201));
#201 = ORIENTED_EDGE('',*,*,#202,.T.);
#202 = EDGE_CURVE('',#203,#203,#205,.T.);
#203 = VERTEX_POINT('',#204);
#204 = CARTESIAN_POINT('',(34.5,1.E-15,81.));
#205 = B_SPLINE_CURVE_WITH_KNOTS('',7,(#206,#207,#208,#209,#210,#211,
    #212,#213,#214,#215,#216,#217,#218,#219,#220,#221,#222,#223,#224,
    #225,#226,#227,#228,#229,#230,#231,#232,#233,#234,#235,#236,#237,
    #238,#239,#240,#241,#242,#243,#244,#245,#246,#247,#248,#249,#250,
    #251,#252,#253,#254,#255,#256,#257,#258,#259,#260,#261),
  .UNSPECIFIED.,.T.,.F.,(8,6,6,6,6,6,6,6,6,8),(0.,8.653247863278E-02,
    0.169273479025,0.343864153231,0.473138728092,0.58035902512,
    0.672590047338,0.779544089222,0.894138924317,1.),.UNSPECIFIED.);
#206 = CARTESIAN_POINT('',(34.5,-4.4E-16,81.));
#207 = CARTESIAN_POINT('',(34.5,-0.259343788521,81.));
#208 = CARTESIAN_POINT('',(34.497725995093,-0.516361317446,
    81.026156312883));
#209 = CARTESIAN_POINT('',(34.493248915698,-0.766920156707,
    81.077624664405));
#210 = CARTESIAN_POINT('',(34.486863502518,-1.007085583271,
    81.152506570871));
#211 = CARTESIAN_POINT('',(34.479040560381,-1.233375130474,
    81.247908738284));
#212 = CARTESIAN_POINT('',(34.470340360542,-1.442974824076,
    81.35998892904));
#213 = CARTESIAN_POINT('',(34.452630693061,-1.816493122677,
    81.60255454835));
#214 = CARTESIAN_POINT('',(34.443571731796,-1.983701272849,
    81.733115781375));
#215 = CARTESIAN_POINT('',(34.434446150828,-2.13566880109,
    81.873447957514));
#216 = CARTESIAN_POINT('',(34.425533476017,-2.272687975888,
    82.02170588106));
#217 = CARTESIAN_POINT('',(34.417054972408,-2.395148348389,
    82.176361543142));
#218 = CARTESIAN_POINT('',(34.409179164963,-2.503475490495,
    82.336146745041));
#219 = CARTESIAN_POINT('',(34.386959644608,-2.797691922509,
    82.845744553711));
#220 = CARTESIAN_POINT('',(34.375115066788,-2.936535758567,
    83.210195384604));
#221 = CARTESIAN_POINT('',(34.367689568505,-3.018554814909,
    83.584336125661));
#222 = CARTESIAN_POINT('',(34.3651497826,-3.046222488556,83.962674449301
    ));
#223 = CARTESIAN_POINT('',(34.367592673602,-3.020246778101,
    84.340610786072));
#224 = CARTESIAN_POINT('',(34.374827812108,-2.939488276488,84.713655564)
  );
#225 = CARTESIAN_POINT('',(34.394496405109,-2.698006931672,
    85.342735974708));
#226 = CARTESIAN_POINT('',(34.405101770037,-2.563372317994,
    85.604293052623));
#227 = CARTESIAN_POINT('',(34.417652842388,-2.395490489941,
    85.85681667148));
#228 = CARTESIAN_POINT('',(34.431663098791,-2.192712010613,
    86.096279918105));
#229 = CARTESIAN_POINT('',(34.446388634296,-1.953397805626,
    86.317322805512));
#230 = CARTESIAN_POINT('',(34.46068366867,-1.676394024453,
    86.512813294064));
#231 = CARTESIAN_POINT('',(34.483408981308,-1.101189542794,
    86.805894616133));
#232 = CARTESIAN_POINT('',(34.492559878507,-0.811212493097,
    86.916258050026));
#233 = CARTESIAN_POINT('',(34.499363589007,-0.498927281628,
    86.993328115925));
#234 = CARTESIAN_POINT('',(34.502729053921,-0.173564796919,
    87.030431004862));
#235 = CARTESIAN_POINT('',(34.502172365188,0.154305232746,
    87.025028759763));
#236 = CARTESIAN_POINT('',(34.498068483448,0.474078282569,
    86.978799648267));
#237 = CARTESIAN_POINT('',(34.485405975537,1.036563770507,
    86.828082116019));
#238 = CARTESIAN_POINT('',(34.477425341076,1.289374723347,
    86.731147271234));
#239 = CARTESIAN_POINT('',(34.467625597233,1.531448444243,
    86.607894716354));
#240 = CARTESIAN_POINT('',(34.456483361098,1.759524844039,
    86.459783148973));
#241 = CARTESIAN_POINT('',(34.444595961191,1.970594992343,
    86.288760749797));
#242 = CARTESIAN_POINT('',(34.432610671698,2.161982685524,
    86.097220916366));
#243 = CARTESIAN_POINT('',(34.407823137131,2.527943550242,
    85.645296885123));
#244 = CARTESIAN_POINT('',(34.395650705017,2.6882443309,85.387092492212)
  );
#245 = CARTESIAN_POINT('',(34.385362467715,2.814161122307,
    85.118529252424));
#246 = CARTESIAN_POINT('',(34.377403996433,2.907360589491,
    84.843173687461));
#247 = CARTESIAN_POINT('',(34.3720158351,2.969088971154,84.563621046396)
  );
#248 = CARTESIAN_POINT('',(34.369317712169,3.,84.281934253756));
#249 = CARTESIAN_POINT('',(34.369317712169,3.,83.697924372488));
#250 = CARTESIAN_POINT('',(34.372415065466,2.964515005214,83.39619424398
    ));
#251 = CARTESIAN_POINT('',(34.378597866056,2.893683967451,
    83.097071754875));
#252 = CARTESIAN_POINT('',(34.387709496627,2.786628003127,
    82.803081987676));
#253 = CARTESIAN_POINT('',(34.399436214794,2.64168971494,82.517508043481
    ));
#254 = CARTESIAN_POINT('',(34.41317302481,2.456703069654,82.245015524783
    ));
#255 = CARTESIAN_POINT('',(34.441485669001,2.019486988596,
    81.759437873475));
#256 = CARTESIAN_POINT('',(34.456292016251,1.767678445284,
    81.536990040462));
#257 = CARTESIAN_POINT('',(34.471215725804,1.474304679382,
    81.338763375889));
#258 = CARTESIAN_POINT('',(34.484635259506,1.143118543272,81.176699354)
  );
#259 = CARTESIAN_POINT('',(34.494694929981,0.780744254549,
    81.061007241407));
#260 = CARTESIAN_POINT('',(34.5,0.396077860643,81.));
#261 = CARTESIAN_POINT('',(34.5,-4.4E-16,81.));
#262 = CYLINDRICAL_SURFACE('',#263,34.5);
#263 = AXIS2_PLACEMENT_3D('',#264,#265,#266);
#264 = CARTESIAN_POINT('',(0.,0.,49.3));
#265 = DIRECTION('',(0.,0.,1.));
#266 = DIRECTION('',(0.909948417401,-0.414721445875,0.));
#267 = ADVANCED_FACE('',(#268),#294,.T.);
#268 = FACE_BOUND('',#269,.T.);
#269 = EDGE_LOOP('',(#270,#271,#279,#288));
#270 = ORIENTED_EDGE('',*,*,#21,.T.);
#271 = ORIENTED_EDGE('',*,*,#272,.F.);
#272 = EDGE_CURVE('',#273,#24,#275,.T.);
#273 = VERTEX_POINT('',#274);
#274 = CARTESIAN_POINT('',(29.118349356846,13.271086268,88.7));
#275 = LINE('',#276,#277);
#276 = CARTESIAN_POINT('',(0.,0.,88.7));
#277 = VECTOR('',#278,1.);
#278 = DIRECTION('',(0.909948417401,0.414721445875,0.));
#279 = ORIENTED_EDGE('',*,*,#280,.F.);
#280 = EDGE_CURVE('',#281,#273,#283,.T.);
#281 = VERTEX_POINT('',#282);
#282 = CARTESIAN_POINT('',(29.118349356846,-13.271086268,88.7));
#283 = CIRCLE('',#284,32.);
#284 = AXIS2_PLACEMENT_3D('',#285,#286,#287);
#285 = CARTESIAN_POINT('',(0.,0.,88.7));
#286 = DIRECTION('',(-0.,0.,1.));
#287 = DIRECTION('',(0.909948417401,-0.414721445875,0.));
#288 = ORIENTED_EDGE('',*,*,#289,.T.);
#289 = EDGE_CURVE('',#281,#22,#290,.T.);
#290 = LINE('',#291,#292);
#291 = CARTESIAN_POINT('',(0.,0.,88.7));
#292 = VECTOR('',#293,1.);
#293 = DIRECTION('',(0.909948417401,-0.414721445875,0.));
#294 = PLANE('',#295);
#295 = AXIS2_PLACEMENT_3D('',#296,#297,#298);
#296 = CARTESIAN_POINT('',(0.,0.,88.7));
#297 = DIRECTION('',(0.,0.,1.));
#298 = DIRECTION('',(0.909948417401,-0.414721445875,0.));
#299 = ADVANCED_FACE('',(#300),#318,.F.);
#300 = FACE_BOUND('',#301,.F.);
#301 = EDGE_LOOP('',(#302,#303,#311,#317));
#302 = ORIENTED_EDGE('',*,*,#272,.F.);
#303 = ORIENTED_EDGE('',*,*,#304,.F.);
#304 = EDGE_CURVE('',#305,#273,#307,.T.);
#305 = VERTEX_POINT('',#306);
#306 = CARTESIAN_POINT('',(29.118349356846,13.271086268,49.3));
#307 = LINE('',#308,#309);
#308 = CARTESIAN_POINT('',(29.118349356846,13.271086268,48.3));
#309 = VECTOR('',#310,1.);
#310 = DIRECTION('',(0.,0.,1.));
#311 = ORIENTED_EDGE('',*,*,#312,.T.);
#312 = EDGE_CURVE('',#305,#41,#313,.T.);
#313 = LINE('',#314,#315);
#314 = CARTESIAN_POINT('',(0.,0.,49.3));
#315 = VECTOR('',#316,1.);
#316 = DIRECTION('',(0.909948417401,0.414721445875,0.));
#317 = ORIENTED_EDGE('',*,*,#49,.T.);
#318 = PLANE('',#319);
#319 = AXIS2_PLACEMENT_3D('',#320,#321,#322);
#320 = CARTESIAN_POINT('',(0.,0.,49.3));
#321 = DIRECTION('',(0.414721445875,-0.909948417401,0.));
#322 = DIRECTION('',(0.909948417401,0.414721445875,0.));
#323 = ADVANCED_FACE('',(#324),#342,.T.);
#324 = FACE_BOUND('',#325,.T.);
#325 = EDGE_LOOP('',(#326,#334,#340,#341));
#326 = ORIENTED_EDGE('',*,*,#327,.F.);
#327 = EDGE_CURVE('',#328,#281,#330,.T.);
#328 = VERTEX_POINT('',#329);
#329 = CARTESIAN_POINT('',(29.118349356846,-13.271086268,49.3));
#330 = LINE('',#331,#332);
#331 = CARTESIAN_POINT('',(29.118349356846,-13.271086268,48.3));
#332 = VECTOR('',#333,1.);
#333 = DIRECTION('',(0.,0.,1.));
#334 = ORIENTED_EDGE('',*,*,#335,.T.);
#335 = EDGE_CURVE('',#328,#33,#336,.T.);
#336 = LINE('',#337,#338);
#337 = CARTESIAN_POINT('',(0.,0.,49.3));
#338 = VECTOR('',#339,1.);
#339 = DIRECTION('',(0.909948417401,-0.414721445875,0.));
#340 = ORIENTED_EDGE('',*,*,#32,.T.);
#341 = ORIENTED_EDGE('',*,*,#289,.F.);
#342 = PLANE('',#343);
#343 = AXIS2_PLACEMENT_3D('',#344,#345,#346);
#344 = CARTESIAN_POINT('',(0.,0.,49.3));
#345 = DIRECTION('',(-0.414721445875,-0.909948417401,0.));
#346 = DIRECTION('',(0.909948417401,-0.414721445875,0.));
#347 = ADVANCED_FACE('',(#348),#360,.F.);
#348 = FACE_BOUND('',#349,.F.);
#349 = EDGE_LOOP('',(#350,#351,#352,#359));
#350 = ORIENTED_EDGE('',*,*,#40,.T.);
#351 = ORIENTED_EDGE('',*,*,#312,.F.);
#352 = ORIENTED_EDGE('',*,*,#353,.F.);
#353 = EDGE_CURVE('',#328,#305,#354,.T.);
#354 = CIRCLE('',#355,32.);
#355 = AXIS2_PLACEMENT_3D('',#356,#357,#358);
#356 = CARTESIAN_POINT('',(0.,0.,49.3));
#357 = DIRECTION('',(-0.,0.,1.));
#358 = DIRECTION('',(0.909948417401,-0.414721445875,0.));
#359 = ORIENTED_EDGE('',*,*,#335,.T.);
#360 = PLANE('',#361);
#361 = AXIS2_PLACEMENT_3D('',#362,#363,#364);
#362 = CARTESIAN_POINT('',(0.,0.,49.3));
#363 = DIRECTION('',(0.,0.,1.));
#364 = DIRECTION('',(0.909948417401,-0.414721445875,0.));
#365 = ADVANCED_FACE('',(#366),#385,.F.);
#366 = FACE_BOUND('',#367,.F.);
#367 = EDGE_LOOP('',(#368,#376,#383,#384));
#368 = ORIENTED_EDGE('',*,*,#369,.T.);
#369 = EDGE_CURVE('',#58,#370,#372,.T.);
#370 = VERTEX_POINT('',#371);
#371 = CARTESIAN_POINT('',(32.9,1.E-15,51.));
#372 = LINE('',#373,#374);
#373 = CARTESIAN_POINT('',(36.5,7.3E-16,51.));
#374 = VECTOR('',#375,1.);
#375 = DIRECTION('',(-1.,0.,0.));
#376 = ORIENTED_EDGE('',*,*,#377,.F.);
#377 = EDGE_CURVE('',#370,#370,#378,.T.);
#378 = CIRCLE('',#379,3.);
#379 = AXIS2_PLACEMENT_3D('',#380,#381,#382);
#380 = CARTESIAN_POINT('',(32.9,0.,54.));
#381 = DIRECTION('',(-1.,-0.,-0.));
#382 = DIRECTION('',(0.,0.,-1.));
#383 = ORIENTED_EDGE('',*,*,#369,.F.);
#384 = ORIENTED_EDGE('',*,*,#57,.T.);
#385 = CYLINDRICAL_SURFACE('',#386,3.);
#386 = AXIS2_PLACEMENT_3D('',#387,#388,#389);
#387 = CARTESIAN_POINT('',(36.5,0.,54.));
#388 = DIRECTION('',(-1.,0.,0.));
#389 = DIRECTION('',(0.,0.,-1.));
#390 = ADVANCED_FACE('',(#391),#417,.T.);
#391 = FACE_BOUND('',#392,.T.);
#392 = EDGE_LOOP('',(#393,#401,#410,#416));
#393 = ORIENTED_EDGE('',*,*,#394,.F.);
#394 = EDGE_CURVE('',#395,#123,#397,.T.);
#395 = VERTEX_POINT('',#396);
#396 = CARTESIAN_POINT('',(31.859064644148,3.,67.3));
#397 = LINE('',#398,#399);
#398 = CARTESIAN_POINT('',(28.,3.,67.3));
#399 = VECTOR('',#400,1.);
#400 = DIRECTION('',(1.,0.,0.));
#401 = ORIENTED_EDGE('',*,*,#402,.F.);
#402 = EDGE_CURVE('',#403,#395,#405,.T.);
#403 = VERTEX_POINT('',#404);
#404 = CARTESIAN_POINT('',(31.859064644148,-3.,67.3));
#405 = CIRCLE('',#406,32.);
#406 = AXIS2_PLACEMENT_3D('',#407,#408,#409);
#407 = CARTESIAN_POINT('',(0.,0.,67.3));
#408 = DIRECTION('',(-0.,0.,1.));
#409 = DIRECTION('',(0.909948417401,-0.414721445875,0.));
#410 = ORIENTED_EDGE('',*,*,#411,.T.);
#411 = EDGE_CURVE('',#403,#121,#412,.T.);
#412 = LINE('',#413,#414);
#413 = CARTESIAN_POINT('',(28.,-3.,67.3));
#414 = VECTOR('',#415,1.);
#415 = DIRECTION('',(1.,0.,0.));
#416 = ORIENTED_EDGE('',*,*,#120,.T.);
#417 = PLANE('',#418);
#418 = AXIS2_PLACEMENT_3D('',#419,#420,#421);
#419 = CARTESIAN_POINT('',(28.,3.,67.3));
#420 = DIRECTION('',(0.,0.,1.));
#421 = DIRECTION('',(0.,-1.,0.));
#422 = ADVANCED_FACE('',(#423),#464,.F.);
#423 = FACE_BOUND('',#424,.F.);
#424 = EDGE_LOOP('',(#425,#426,#434,#463));
#425 = ORIENTED_EDGE('',*,*,#131,.F.);
#426 = ORIENTED_EDGE('',*,*,#427,.F.);
#427 = EDGE_CURVE('',#428,#132,#430,.T.);
#428 = VERTEX_POINT('',#429);
#429 = CARTESIAN_POINT('',(31.859064644148,-3.,70.7));
#430 = LINE('',#431,#432);
#431 = CARTESIAN_POINT('',(28.,-3.,70.7));
#432 = VECTOR('',#433,1.);
#433 = DIRECTION('',(1.,0.,0.));
#434 = ORIENTED_EDGE('',*,*,#435,.T.);
#435 = EDGE_CURVE('',#428,#403,#436,.T.);
#436 = B_SPLINE_CURVE_WITH_KNOTS('',7,(#437,#438,#439,#440,#441,#442,
    #443,#444,#445,#446,#447,#448,#449,#450,#451,#452,#453,#454,#455,
    #456,#457,#458,#459,#460,#461,#462),.UNSPECIFIED.,.F.,.F.,(8,6,6,6,8
    ),(0.,0.257760031882,0.5,0.742239968118,1.),.UNSPECIFIED.);
#437 = CARTESIAN_POINT('',(31.859064644148,-3.,70.7));
#438 = CARTESIAN_POINT('',(31.837104082205,-3.233214320853,70.7));
#439 = CARTESIAN_POINT('',(31.813709145234,-3.460322265811,
    70.662674614356));
#440 = CARTESIAN_POINT('',(31.789712768456,-3.674429540649,
    70.591539688571));
#441 = CARTESIAN_POINT('',(31.766185917867,-3.869817522508,
    70.491441876425));
#442 = CARTESIAN_POINT('',(31.744276928685,-4.042162231861,
    70.368469380202));
#443 = CARTESIAN_POINT('',(31.724875989465,-4.188930722589,
    70.229814293326));
#444 = CARTESIAN_POINT('',(31.692988494413,-4.423532241775,
    69.94622977154));
#445 = CARTESIAN_POINT('',(31.679812284772,-4.516910099889,
    69.799124243635));
#446 = CARTESIAN_POINT('',(31.669127882623,-4.590674832525,
    69.645254372303));
#447 = CARTESIAN_POINT('',(31.661057419026,-4.645479838761,
    69.486791842606));
#448 = CARTESIAN_POINT('',(31.655660346264,-4.681827115821,
    69.325458386032));
#449 = CARTESIAN_POINT('',(31.652961946712,-4.7,69.162729209371));
#450 = CARTESIAN_POINT('',(31.652961946712,-4.7,68.837270790629));
#451 = CARTESIAN_POINT('',(31.655660346264,-4.681827115821,
    68.674541613968));
#452 = CARTESIAN_POINT('',(31.661057419026,-4.645479838761,
    68.513208157394));
#453 = CARTESIAN_POINT('',(31.669127882623,-4.590674832525,
    68.354745627697));
#454 = CARTESIAN_POINT('',(31.679812284772,-4.516910099889,
    68.200875756365));
#455 = CARTESIAN_POINT('',(31.692988494413,-4.423532241775,
    68.05377022846));
#456 = CARTESIAN_POINT('',(31.724875989465,-4.188930722589,
    67.770185706674));
#457 = CARTESIAN_POINT('',(31.744276928685,-4.042162231861,
    67.631530619798));
#458 = CARTESIAN_POINT('',(31.766185917867,-3.869817522508,
    67.508558123575));
#459 = CARTESIAN_POINT('',(31.789712768456,-3.674429540649,
    67.408460311429));
#460 = CARTESIAN_POINT('',(31.813709145234,-3.460322265811,
    67.337325385644));
#461 = CARTESIAN_POINT('',(31.837104082205,-3.233214320853,67.3));
#462 = CARTESIAN_POINT('',(31.859064644148,-3.,67.3));
#463 = ORIENTED_EDGE('',*,*,#411,.T.);
#464 = CYLINDRICAL_SURFACE('',#465,1.7);
#465 = AXIS2_PLACEMENT_3D('',#466,#467,#468);
#466 = CARTESIAN_POINT('',(28.,-3.,69.));
#467 = DIRECTION('',(1.,0.,0.));
#468 = DIRECTION('',(0.,0.,1.));
#469 = ADVANCED_FACE('',(#470),#511,.F.);
#470 = FACE_BOUND('',#471,.F.);
#471 = EDGE_LOOP('',(#472,#503,#509,#510));
#472 = ORIENTED_EDGE('',*,*,#473,.T.);
#473 = EDGE_CURVE('',#395,#474,#476,.T.);
#474 = VERTEX_POINT('',#475);
#475 = CARTESIAN_POINT('',(31.859064644148,3.,70.7));
#476 = B_SPLINE_CURVE_WITH_KNOTS('',7,(#477,#478,#479,#480,#481,#482,
    #483,#484,#485,#486,#487,#488,#489,#490,#491,#492,#493,#494,#495,
    #496,#497,#498,#499,#500,#501,#502),.UNSPECIFIED.,.F.,.F.,(8,6,6,6,8
    ),(0.,0.257760028814,0.5,0.742239971186,1.),.UNSPECIFIED.);
#477 = CARTESIAN_POINT('',(31.859064644148,3.,67.3));
#478 = CARTESIAN_POINT('',(31.837104082205,3.233214320853,67.3));
#479 = CARTESIAN_POINT('',(31.813709145234,3.460322265811,
    67.337325385644));
#480 = CARTESIAN_POINT('',(31.789712768456,3.674429540649,
    67.408460311429));
#481 = CARTESIAN_POINT('',(31.766185917867,3.869817522508,
    67.508558123575));
#482 = CARTESIAN_POINT('',(31.744276928685,4.042162231861,
    67.631530619798));
#483 = CARTESIAN_POINT('',(31.724875989465,4.188930722589,
    67.770185706674));
#484 = CARTESIAN_POINT('',(31.692988494034,4.423532244568,
    68.053770231835));
#485 = CARTESIAN_POINT('',(31.67981228577,4.51691009257,68.200875748826)
  );
#486 = CARTESIAN_POINT('',(31.669127881518,4.590674840648,
    68.354745631145));
#487 = CARTESIAN_POINT('',(31.661057419603,4.64547983446,68.513208164029
    ));
#488 = CARTESIAN_POINT('',(31.655660346147,4.681827116723,
    68.674541604746));
#489 = CARTESIAN_POINT('',(31.652961946712,4.7,68.837270794397));
#490 = CARTESIAN_POINT('',(31.652961946712,4.7,69.162729205603));
#491 = CARTESIAN_POINT('',(31.655660346147,4.681827116723,
    69.325458395254));
#492 = CARTESIAN_POINT('',(31.661057419603,4.64547983446,69.486791835971
    ));
#493 = CARTESIAN_POINT('',(31.669127881518,4.590674840648,
    69.645254368855));
#494 = CARTESIAN_POINT('',(31.67981228577,4.51691009257,69.799124251174)
  );
#495 = CARTESIAN_POINT('',(31.692988494034,4.423532244568,
    69.946229768164));
#496 = CARTESIAN_POINT('',(31.724875989465,4.188930722589,
    70.229814293326));
#497 = CARTESIAN_POINT('',(31.744276928685,4.042162231861,
    70.368469380202));
#498 = CARTESIAN_POINT('',(31.766185917867,3.869817522508,
    70.491441876425));
#499 = CARTESIAN_POINT('',(31.789712768456,3.674429540649,
    70.591539688572));
#500 = CARTESIAN_POINT('',(31.813709145234,3.460322265811,
    70.662674614356));
#501 = CARTESIAN_POINT('',(31.837104082205,3.233214320853,70.7));
#502 = CARTESIAN_POINT('',(31.859064644148,3.,70.7));
#503 = ORIENTED_EDGE('',*,*,#504,.T.);
#504 = EDGE_CURVE('',#474,#163,#505,.T.);
#505 = LINE('',#506,#507);
#506 = CARTESIAN_POINT('',(28.,3.,70.7));
#507 = VECTOR('',#508,1.);
#508 = DIRECTION('',(1.,0.,0.));
#509 = ORIENTED_EDGE('',*,*,#171,.F.);
#510 = ORIENTED_EDGE('',*,*,#394,.F.);
#511 = CYLINDRICAL_SURFACE('',#512,1.7);
#512 = AXIS2_PLACEMENT_3D('',#513,#514,#515);
#513 = CARTESIAN_POINT('',(28.,3.,69.));
#514 = DIRECTION('',(1.,0.,0.));
#515 = DIRECTION('',(0.,0.,1.));
#516 = ADVANCED_FACE('',(#517),#529,.F.);
#517 = FACE_BOUND('',#518,.F.);
#518 = EDGE_LOOP('',(#519,#520,#527,#528));
#519 = ORIENTED_EDGE('',*,*,#504,.F.);
#520 = ORIENTED_EDGE('',*,*,#521,.F.);
#521 = EDGE_CURVE('',#428,#474,#522,.T.);
#522 = CIRCLE('',#523,32.);
#523 = AXIS2_PLACEMENT_3D('',#524,#525,#526);
#524 = CARTESIAN_POINT('',(0.,0.,70.7));
#525 = DIRECTION('',(-0.,0.,1.));
#526 = DIRECTION('',(0.909948417401,-0.414721445875,0.));
#527 = ORIENTED_EDGE('',*,*,#427,.T.);
#528 = ORIENTED_EDGE('',*,*,#162,.T.);
#529 = PLANE('',#530);
#530 = AXIS2_PLACEMENT_3D('',#531,#532,#533);
#531 = CARTESIAN_POINT('',(28.,3.,70.7));
#532 = DIRECTION('',(0.,0.,1.));
#533 = DIRECTION('',(0.,-1.,0.));
#534 = ADVANCED_FACE('',(#535),#554,.F.);
#535 = FACE_BOUND('',#536,.F.);
#536 = EDGE_LOOP('',(#537,#545,#552,#553));
#537 = ORIENTED_EDGE('',*,*,#538,.T.);
#538 = EDGE_CURVE('',#203,#539,#541,.T.);
#539 = VERTEX_POINT('',#540);
#540 = CARTESIAN_POINT('',(32.9,1.E-15,81.));
#541 = LINE('',#542,#543);
#542 = CARTESIAN_POINT('',(36.5,7.3E-16,81.));
#543 = VECTOR('',#544,1.);
#544 = DIRECTION('',(-1.,0.,0.));
#545 = ORIENTED_EDGE('',*,*,#546,.F.);
#546 = EDGE_CURVE('',#539,#539,#547,.T.);
#547 = CIRCLE('',#548,3.);
#548 = AXIS2_PLACEMENT_3D('',#549,#550,#551);
#549 = CARTESIAN_POINT('',(32.9,0.,84.));
#550 = DIRECTION('',(-1.,-0.,-0.));
#551 = DIRECTION('',(0.,0.,-1.));
#552 = ORIENTED_EDGE('',*,*,#538,.F.);
#553 = ORIENTED_EDGE('',*,*,#202,.T.);
#554 = CYLINDRICAL_SURFACE('',#555,3.);
#555 = AXIS2_PLACEMENT_3D('',#556,#557,#558);
#556 = CARTESIAN_POINT('',(36.5,0.,84.));
#557 = DIRECTION('',(-1.,0.,0.));
#558 = DIRECTION('',(0.,0.,-1.));
#559 = ADVANCED_FACE('',(#560,#566,#623,#629),#686,.F.);
#560 = FACE_BOUND('',#561,.F.);
#561 = EDGE_LOOP('',(#562,#563,#564,#565));
#562 = ORIENTED_EDGE('',*,*,#304,.T.);
#563 = ORIENTED_EDGE('',*,*,#280,.F.);
#564 = ORIENTED_EDGE('',*,*,#327,.F.);
#565 = ORIENTED_EDGE('',*,*,#353,.T.);
#566 = FACE_BOUND('',#567,.F.);
#567 = EDGE_LOOP('',(#568));
#568 = ORIENTED_EDGE('',*,*,#569,.T.);
#569 = EDGE_CURVE('',#570,#570,#572,.T.);
#570 = VERTEX_POINT('',#571);
#571 = CARTESIAN_POINT('',(32.,0.,52.35));
#572 = B_SPLINE_CURVE_WITH_KNOTS('',7,(#573,#574,#575,#576,#577,#578,
    #579,#580,#581,#582,#583,#584,#585,#586,#587,#588,#589,#590,#591,
    #592,#593,#594,#595,#596,#597,#598,#599,#600,#601,#602,#603,#604,
    #605,#606,#607,#608,#609,#610,#611,#612,#613,#614,#615,#616,#617,
    #618,#619,#620,#621,#622),.UNSPECIFIED.,.T.,.F.,(8,6,6,6,6,6,6,6,8),
  (0.,0.142471985986,0.276377769793,0.444444315332,0.591161832929,
    0.686379072177,0.791125143668,0.892394217582,1.),.UNSPECIFIED.);
#573 = CARTESIAN_POINT('',(32.,-8.9E-16,52.35));
#574 = CARTESIAN_POINT('',(32.,-0.226259951624,52.35));
#575 = CARTESIAN_POINT('',(31.99813354985,-0.446749965593,
    52.386197170328));
#576 = CARTESIAN_POINT('',(31.994572143242,-0.654714983442,
    52.455270547189));
#577 = CARTESIAN_POINT('',(31.989813609685,-0.844509889472,
    52.552535451986));
#578 = CARTESIAN_POINT('',(31.984551630737,-1.011841367172,
    52.672029400026));
#579 = CARTESIAN_POINT('',(31.979392975978,-1.154196983315,
    52.806640553514));
#580 = CARTESIAN_POINT('',(31.970357052827,-1.381453021209,
    53.081345913704));
#581 = CARTESIAN_POINT('',(31.966306150098,-1.472191391368,
    53.224127385482));
#582 = CARTESIAN_POINT('',(31.962845542281,-1.543992169005,
    53.37374950687));
#583 = CARTESIAN_POINT('',(31.96015324777,-1.597307234347,
    53.527984568974));
#584 = CARTESIAN_POINT('',(31.958334505231,-1.632532121506,
    53.68492468022));
#585 = CARTESIAN_POINT('',(31.957432625291,-1.65,53.84282257519));
#586 = CARTESIAN_POINT('',(31.957432625291,-1.65,54.197275024825));
#587 = CARTESIAN_POINT('',(31.958853249017,-1.622483767016,
    54.394473450533));
#588 = CARTESIAN_POINT('',(31.961693448328,-1.567481608747,
    54.589170922862));
#589 = CARTESIAN_POINT('',(31.96584285604,-1.484198009859,
    54.778615104726));
#590 = CARTESIAN_POINT('',(31.971073170223,-1.371353713786,
    54.959208952729));
#591 = CARTESIAN_POINT('',(31.976931960005,-1.227494193095,
    55.125958265064));
#592 = CARTESIAN_POINT('',(31.987756527383,-0.898329324289,
    55.398267126626));
#593 = CARTESIAN_POINT('',(31.992913560059,-0.71535518155,
    55.513255826436));
#594 = CARTESIAN_POINT('',(31.997470002108,-0.506495289456,
    55.603288762956));
#595 = CARTESIAN_POINT('',(32.000521654577,-0.279286227957,
    55.659391093105));
#596 = CARTESIAN_POINT('',(32.001410294937,-4.37837182427E-02,
    55.676740749797));
#597 = CARTESIAN_POINT('',(32.000203682388,0.189294842422,
    55.654916533062));
#598 = CARTESIAN_POINT('',(31.995529326376,0.553791866235,
    55.561329603863));
#599 = CARTESIAN_POINT('',(31.992988705055,0.693388607401,
    55.509473660224));
#600 = CARTESIAN_POINT('',(31.989843722047,0.82722827073,55.443084996123
    ));
#601 = CARTESIAN_POINT('',(31.986246992906,0.953516743801,
    55.362941820026));
#602 = CARTESIAN_POINT('',(31.982391664723,1.07058730013,55.270098029218
    ));
#603 = CARTESIAN_POINT('',(31.97848842099,1.176946798607,55.165859643788
    ));
#604 = CARTESIAN_POINT('',(31.970605919442,1.375193955062,
    54.926219997576));
#605 = CARTESIAN_POINT('',(31.96665771166,1.464583139724,54.788724047563
    ));
#606 = CARTESIAN_POINT('',(31.963153398008,1.537847246006,
    54.641280017109));
#607 = CARTESIAN_POINT('',(31.960339878116,1.593696443968,
    54.486158303657));
#608 = CARTESIAN_POINT('',(31.958401335551,1.631236048953,
    54.325833188195));
#609 = CARTESIAN_POINT('',(31.957432625291,1.65,54.162906046291));
#610 = CARTESIAN_POINT('',(31.957432625291,1.65,53.842501544849));
#611 = CARTESIAN_POINT('',(31.958338194109,1.632460743306,
    53.684763745122));
#612 = CARTESIAN_POINT('',(31.960154377649,1.597285014233,
    53.528106200832));
#613 = CARTESIAN_POINT('',(31.962840130594,1.544088353988,
    53.374032246787));
#614 = CARTESIAN_POINT('',(31.966298935705,1.472352075744,53.22438362587
    ));
#615 = CARTESIAN_POINT('',(31.970352955031,1.381556081948,
    53.081470492737));
#616 = CARTESIAN_POINT('',(31.979391206016,1.154241498347,
    52.806694362943));
#617 = CARTESIAN_POINT('',(31.984550295391,1.011884526879,
    52.672053058579));
#618 = CARTESIAN_POINT('',(31.989814310421,0.844506969735,
    52.552512661027));
#619 = CARTESIAN_POINT('',(31.994574494306,0.654646343502,
    52.455225072484));
#620 = CARTESIAN_POINT('',(31.998135208122,0.446634896889,
    52.386164988434));
#621 = CARTESIAN_POINT('',(32.,0.226159351947,52.35));
#622 = CARTESIAN_POINT('',(32.,-8.9E-16,52.35));
#623 = FACE_BOUND('',#624,.F.);
#624 = EDGE_LOOP('',(#625,#626,#627,#628));
#625 = ORIENTED_EDGE('',*,*,#402,.F.);
#626 = ORIENTED_EDGE('',*,*,#435,.F.);
#627 = ORIENTED_EDGE('',*,*,#521,.T.);
#628 = ORIENTED_EDGE('',*,*,#473,.F.);
#629 = FACE_BOUND('',#630,.F.);
#630 = EDGE_LOOP('',(#631));
#631 = ORIENTED_EDGE('',*,*,#632,.T.);
#632 = EDGE_CURVE('',#633,#633,#635,.T.);
#633 = VERTEX_POINT('',#634);
#634 = CARTESIAN_POINT('',(32.,0.,82.35));
#635 = B_SPLINE_CURVE_WITH_KNOTS('',7,(#636,#637,#638,#639,#640,#641,
    #642,#643,#644,#645,#646,#647,#648,#649,#650,#651,#652,#653,#654,
    #655,#656,#657,#658,#659,#660,#661,#662,#663,#664,#665,#666,#667,
    #668,#669,#670,#671,#672,#673,#674,#675,#676,#677,#678,#679,#680,
    #681,#682,#683,#684,#685),.UNSPECIFIED.,.T.,.F.,(8,6,6,6,6,6,6,6,8),
  (0.,0.142471986031,0.276377769882,0.444444315474,0.591161832971,
    0.686379072236,0.79112514367,0.892394217606,1.),.UNSPECIFIED.);
#636 = CARTESIAN_POINT('',(32.,-8.9E-16,82.35));
#637 = CARTESIAN_POINT('',(32.,-0.226259951624,82.35));
#638 = CARTESIAN_POINT('',(31.99813354985,-0.446749965593,
    82.386197170328));
#639 = CARTESIAN_POINT('',(31.994572143242,-0.654714983443,
    82.455270547189));
#640 = CARTESIAN_POINT('',(31.989813609685,-0.844509889472,
    82.552535451986));
#641 = CARTESIAN_POINT('',(31.984551630737,-1.011841367172,
    82.672029400026));
#642 = CARTESIAN_POINT('',(31.979392975978,-1.154196983315,
    82.806640553514));
#643 = CARTESIAN_POINT('',(31.970357052827,-1.381453021212,
    83.081345913707));
#644 = CARTESIAN_POINT('',(31.966306150098,-1.47219139137,
    83.224127385486));
#645 = CARTESIAN_POINT('',(31.962845542281,-1.543992169005,
    83.373749506871));
#646 = CARTESIAN_POINT('',(31.96015324777,-1.597307234346,
    83.527984568973));
#647 = CARTESIAN_POINT('',(31.958334505231,-1.632532121505,
    83.684924680217));
#648 = CARTESIAN_POINT('',(31.957432625291,-1.65,83.842822575187));
#649 = CARTESIAN_POINT('',(31.957432625291,-1.65,84.197275024825));
#650 = CARTESIAN_POINT('',(31.958853249017,-1.622483767016,
    84.394473450533));
#651 = CARTESIAN_POINT('',(31.961693448328,-1.567481608747,
    84.589170922863));
#652 = CARTESIAN_POINT('',(31.96584285604,-1.48419800986,84.778615104726
    ));
#653 = CARTESIAN_POINT('',(31.971073170223,-1.371353713786,
    84.959208952729));
#654 = CARTESIAN_POINT('',(31.976931960005,-1.227494193095,
    85.125958265064));
#655 = CARTESIAN_POINT('',(31.987756527378,-0.898329324442,85.3982671265
    ));
#656 = CARTESIAN_POINT('',(31.992913560066,-0.71535518141,
    85.513255826625));
#657 = CARTESIAN_POINT('',(31.997470002109,-0.506495289272,
    85.603288762919));
#658 = CARTESIAN_POINT('',(32.00052165457,-0.279286228134,
    85.659391092995));
#659 = CARTESIAN_POINT('',(32.001410294943,-4.378371842026E-02,
    85.676740749908));
#660 = CARTESIAN_POINT('',(32.000203682386,0.18929484261,85.654916533014
    ));
#661 = CARTESIAN_POINT('',(31.995529326376,0.553791866235,
    85.561329603863));
#662 = CARTESIAN_POINT('',(31.992988705055,0.693388607401,
    85.509473660224));
#663 = CARTESIAN_POINT('',(31.989843722047,0.82722827073,85.443084996123
    ));
#664 = CARTESIAN_POINT('',(31.986246992906,0.953516743801,
    85.362941820026));
#665 = CARTESIAN_POINT('',(31.982391664723,1.07058730013,85.270098029218
    ));
#666 = CARTESIAN_POINT('',(31.97848842099,1.176946798607,85.165859643788
    ));
#667 = CARTESIAN_POINT('',(31.970605919445,1.375193954987,
    84.926219997666));
#668 = CARTESIAN_POINT('',(31.966657711656,1.464583139823,
    84.788724047486));
#669 = CARTESIAN_POINT('',(31.963153398007,1.537847246007,
    84.641280017008));
#670 = CARTESIAN_POINT('',(31.960339878119,1.593696443909,
    84.486158303727));
#671 = CARTESIAN_POINT('',(31.95840133555,1.631236048977,84.325833188332
    ));
#672 = CARTESIAN_POINT('',(31.957432625291,1.65,84.162906046169));
#673 = CARTESIAN_POINT('',(31.957432625291,1.65,83.842501544848));
#674 = CARTESIAN_POINT('',(31.958338194109,1.632460743306,
    83.684763745122));
#675 = CARTESIAN_POINT('',(31.960154377649,1.597285014232,
    83.528106200831));
#676 = CARTESIAN_POINT('',(31.962840130594,1.544088353988,
    83.374032246789));
#677 = CARTESIAN_POINT('',(31.966298935705,1.472352075744,83.22438362587
    ));
#678 = CARTESIAN_POINT('',(31.970352955031,1.381556081949,
    83.081470492738));
#679 = CARTESIAN_POINT('',(31.979391206014,1.154241498397,
    82.806694363004));
#680 = CARTESIAN_POINT('',(31.984550295391,1.011884526894,
    82.672053058564));
#681 = CARTESIAN_POINT('',(31.989814310424,0.844506969684,
    82.552512660983));
#682 = CARTESIAN_POINT('',(31.994574494307,0.654646343441,
    82.455225072474));
#683 = CARTESIAN_POINT('',(31.99813520812,0.446634896897,82.386164988457
    ));
#684 = CARTESIAN_POINT('',(32.,0.22615935202,82.35));
#685 = CARTESIAN_POINT('',(32.,-8.9E-16,82.35));
#686 = CYLINDRICAL_SURFACE('',#687,32.);
#687 = AXIS2_PLACEMENT_3D('',#688,#689,#690);
#688 = CARTESIAN_POINT('',(0.,0.,48.3));
#689 = DIRECTION('',(0.,0.,1.));
#690 = DIRECTION('',(0.909948417401,-0.414721445875,0.));
#691 = ADVANCED_FACE('',(#692,#695),#706,.F.);
#692 = FACE_BOUND('',#693,.F.);
#693 = EDGE_LOOP('',(#694));
#694 = ORIENTED_EDGE('',*,*,#377,.T.);
#695 = FACE_BOUND('',#696,.F.);
#696 = EDGE_LOOP('',(#697));
#697 = ORIENTED_EDGE('',*,*,#698,.F.);
#698 = EDGE_CURVE('',#699,#699,#701,.T.);
#699 = VERTEX_POINT('',#700);
#700 = CARTESIAN_POINT('',(32.9,0.,52.35));
#701 = CIRCLE('',#702,1.65);
#702 = AXIS2_PLACEMENT_3D('',#703,#704,#705);
#703 = CARTESIAN_POINT('',(32.9,0.,54.));
#704 = DIRECTION('',(-1.,-0.,-0.));
#705 = DIRECTION('',(0.,0.,-1.));
#706 = PLANE('',#707);
#707 = AXIS2_PLACEMENT_3D('',#708,#709,#710);
#708 = CARTESIAN_POINT('',(32.9,0.,54.));
#709 = DIRECTION('',(-1.,0.,0.));
#710 = DIRECTION('',(0.,0.,-1.));
#711 = ADVANCED_FACE('',(#712,#715),#726,.F.);
#712 = FACE_BOUND('',#713,.F.);
#713 = EDGE_LOOP('',(#714));
#714 = ORIENTED_EDGE('',*,*,#546,.T.);
#715 = FACE_BOUND('',#716,.F.);
#716 = EDGE_LOOP('',(#717));
#717 = ORIENTED_EDGE('',*,*,#718,.F.);
#718 = EDGE_CURVE('',#719,#719,#721,.T.);
#719 = VERTEX_POINT('',#720);
#720 = CARTESIAN_POINT('',(32.9,0.,82.35));
#721 = CIRCLE('',#722,1.65);
#722 = AXIS2_PLACEMENT_3D('',#723,#724,#725);
#723 = CARTESIAN_POINT('',(32.9,0.,84.));
#724 = DIRECTION('',(-1.,-0.,-0.));
#725 = DIRECTION('',(0.,0.,-1.));
#726 = PLANE('',#727);
#727 = AXIS2_PLACEMENT_3D('',#728,#729,#730);
#728 = CARTESIAN_POINT('',(32.9,0.,84.));
#729 = DIRECTION('',(-1.,0.,0.));
#730 = DIRECTION('',(0.,0.,-1.));
#731 = ADVANCED_FACE('',(#732),#743,.F.);
#732 = FACE_BOUND('',#733,.F.);
#733 = EDGE_LOOP('',(#734,#740,#741,#742));
#734 = ORIENTED_EDGE('',*,*,#735,.T.);
#735 = EDGE_CURVE('',#699,#570,#736,.T.);
#736 = LINE('',#737,#738);
#737 = CARTESIAN_POINT('',(36.5,4.E-16,52.35));
#738 = VECTOR('',#739,1.);
#739 = DIRECTION('',(-1.,0.,0.));
#740 = ORIENTED_EDGE('',*,*,#569,.F.);
#741 = ORIENTED_EDGE('',*,*,#735,.F.);
#742 = ORIENTED_EDGE('',*,*,#698,.T.);
#743 = CYLINDRICAL_SURFACE('',#744,1.65);
#744 = AXIS2_PLACEMENT_3D('',#745,#746,#747);
#745 = CARTESIAN_POINT('',(36.5,0.,54.));
#746 = DIRECTION('',(-1.,0.,0.));
#747 = DIRECTION('',(0.,0.,-1.));
#748 = ADVANCED_FACE('',(#749),#760,.F.);
#749 = FACE_BOUND('',#750,.F.);
#750 = EDGE_LOOP('',(#751,#757,#758,#759));
#751 = ORIENTED_EDGE('',*,*,#752,.T.);
#752 = EDGE_CURVE('',#719,#633,#753,.T.);
#753 = LINE('',#754,#755);
#754 = CARTESIAN_POINT('',(36.5,4.E-16,82.35));
#755 = VECTOR('',#756,1.);
#756 = DIRECTION('',(-1.,0.,0.));
#757 = ORIENTED_EDGE('',*,*,#632,.F.);
#758 = ORIENTED_EDGE('',*,*,#752,.F.);
#759 = ORIENTED_EDGE('',*,*,#718,.T.);
#760 = CYLINDRICAL_SURFACE('',#761,1.65);
#761 = AXIS2_PLACEMENT_3D('',#762,#763,#764);
#762 = CARTESIAN_POINT('',(36.5,0.,84.));
#763 = DIRECTION('',(-1.,0.,0.));
#764 = DIRECTION('',(0.,0.,-1.));
#765 = ( GEOMETRIC_REPRESENTATION_CONTEXT(3) 
GLOBAL_UNCERTAINTY_ASSIGNED_CONTEXT((#769)) GLOBAL_UNIT_ASSIGNED_CONTEXT
((#766,#767,#768)) REPRESENTATION_CONTEXT('Context #1',
  '3D Context with UNIT and UNCERTAINTY') );
#766 = ( LENGTH_UNIT() NAMED_UNIT(*) SI_UNIT(.MILLI.,.METRE.) );
#767 = ( NAMED_UNIT(*) PLANE_ANGLE_UNIT() SI_UNIT($,.RADIAN.) );
#768 = ( NAMED_UNIT(*) SI_UNIT($,.STERADIAN.) SOLID_ANGLE_UNIT() );
#769 = UNCERTAINTY_MEASURE_WITH_UNIT(LENGTH_MEASURE(1.E-07),#766,
  'distance_accuracy_value','confusion accuracy');
#770 = PRODUCT_RELATED_PRODUCT_CATEGORY('part',$,(#7));
ENDSEC;
END-ISO-10303-21;
