#VRML V2.0 utf8
# 3D model generated by easyeda2kicad.py (https://github.com/uPesy/easyeda2kicad.py)

Shape{
    appearance Appearance {
        material  Material 	{
            diffuseColor 0.6666666666666666 0.6980392156862745 0.7686274509803922
            specularColor 0.3333333333333333 0.34901960784313724 0.3843137254901961
            ambientIntensity 0.6967
            transparency 0.0
            shininess 0.5
        }
    }
    geometry IndexedFaceSet {
        ccw TRUE
        solid FALSE
        coord DEF co Coordinate {
            point [
                -1.437 -0.7374 0.7306, -1.5157 -0.7374 0.7306, -1.437 -0.7309 0.7329, -1.5157 -0.7309 0.7329, -1.437 -0.724 0.7336, -1.5157 -0.724 0.7336, -1.437 0.192 0.7336, -1.5157 0.192 0.7336, -1.437 0.199 0.7328, -1.5157 0.199 0.7328, -1.437 0.2057 0.7305, -1.5157 0.2057 0.7305, -1.437 0.2117 0.7268, -1.5157 0.2117 0.7268, -1.437 0.2167 0.7218, -1.5157 0.2167 0.7218, -1.437 0.2204 0.7158, -1.5157 0.2204 0.7158, -1.437 0.2227 0.7091, -1.5157 0.2227 0.7091, -1.437 0.2235 0.7021, -1.5157 0.2235 0.7021, -1.437 0.2235 0.3635, -1.5157 0.2235 0.3635, -1.437 0.2227 0.3565, -1.5157 0.2227 0.3565, -1.437 0.2204 0.3499, -1.5157 0.2204 0.3499, -1.437 0.2167 0.3439, -1.5157 0.2167 0.3439, -1.437 0.2117 0.3389, -1.5157 0.2117 0.3389, -1.437 0.2057 0.3352, -1.5157 0.2057 0.3352, -1.437 0.199 0.3328, -1.5157 0.199 0.3328, -1.437 0.192 0.332, -1.5157 0.192 0.332, -1.437 -0.7215 0.332, -1.5157 -0.7215 0.332, -1.437 -0.7293 0.333, -1.5157 -0.7293 0.333, -1.437 -0.8363 0.3604, -1.5157 -0.8363 0.3604, -1.5157 -0.8437 0.3613, -1.437 -0.8437 0.3613, -1.5157 -0.8512 0.3605, -1.437 -0.8512 0.3605, -1.5157 -0.8582 0.358, -1.437 -0.8582 0.358, -1.5157 -0.8644 0.3539, -1.437 -0.8644 0.3539, -1.5157 -0.8695 0.3484, -1.437 -0.8695 0.3484, -1.5157 -0.8732 0.3419, -1.437 -0.8732 0.3419, -1.437 -0.8785 0.3292, -1.5157 -0.8785 0.3292, -1.5157 -0.8804 0.3222, -1.437 -0.8804 0.3222, -1.5157 -0.8808 0.3149, -1.437 -0.8808 0.3149, -1.5157 -0.8794 0.3078, -1.437 -0.8794 0.3078, -1.5157 -0.8765 0.3011, -1.437 -0.8765 0.3011, -1.5157 -0.872 0.2953, -1.437 -0.872 0.2953, -1.5157 -0.8664 0.2907, -1.437 -0.8664 0.2907, -1.5157 -0.8599 0.2875, -1.437 -0.8599 0.2875, -1.437 -0.8042 0.2677, -1.5157 -0.8042 0.2677, -1.437 0.5151 0.2677, -1.5157 0.5151 0.2677, -1.437 0.5222 0.2669, -1.5157 0.5222 0.2669, -1.437 0.5288 0.2646, -1.5157 0.5288 0.2646, -1.437 0.5348 0.2608, -1.5157 0.5348 0.2608, -1.437 0.5398 0.2559, -1.5157 0.5398 0.2559, -1.437 0.5435 0.2499, -1.5157 0.5435 0.2499, -1.437 0.5458 0.2432, -1.5157 0.5458 0.2432, -1.437 0.5466 0.2362, -1.5157 0.5466 0.2362, -1.437 0.5466 0.0315, -1.5157 0.5466 0.0315, -1.5157 0.5474 0.0245, -1.437 0.5474 0.0245, -1.5157 0.5498 0.0178, -1.437 0.5498 0.0178, -1.5157 0.5535 0.0119, -1.437 0.5535 0.0119, -1.5157 0.5585 0.0069, -1.437 0.5585 0.0069, -1.5157 0.5645 0.0031, -1.437 0.5645 0.0031, -1.5157 0.5711 0.0008, -1.437 0.5711 0.0008, -1.5157 0.5781 0.0, -1.437 0.5781 0.0, -1.437 0.8288 0.0, -1.5157 0.8288 0.0, -1.437 0.8288 0.0394, -1.5157 0.8288 0.0394, -1.437 0.6293 0.0394, -1.5157 0.6293 0.0394, -1.437 0.6223 0.0402, -1.5157 0.6223 0.0402, -1.437 0.6156 0.0425, -1.5157 0.6156 0.0425, -1.437 0.6097 0.0462, -1.5157 0.6097 0.0462, -1.437 0.6047 0.0512, -1.5157 0.6047 0.0512, -1.437 0.6009 0.0572, -1.5157 0.6009 0.0572, -1.437 0.5986 0.0639, -1.5157 0.5986 0.0639, -1.437 0.5978 0.0709, -1.5157 0.5978 0.0709, -1.437 0.5978 0.7933, -1.5157 0.5978 0.7933, -1.5157 0.597 0.8003, -1.437 0.597 0.8003, -1.5157 0.5947 0.807, -1.437 0.5947 0.807, -1.5157 0.5909 0.813, -1.437 0.5909 0.813, -1.5157 0.5859 0.8179, -1.437 0.5859 0.8179, -1.5157 0.58 0.8217, -1.437 0.58 0.8217, -1.5157 0.5733 0.824, -1.437 0.5733 0.824, -1.5157 0.5663 0.8248, -1.437 0.5663 0.8248, -1.437 -0.724 0.8248, -1.5157 -0.724 0.8248, -1.5157 -0.7309 0.8241, -1.437 -0.7309 0.8241, -1.5157 -0.7374 0.8218, -1.437 -0.7374 0.8218, -1.437 -0.8548 0.7668, -1.5157 -0.8548 0.7668, -1.5157 -0.8617 0.7624, -1.437 -0.8617 0.7624, -1.5157 -0.8672 0.7564, -1.437 -0.8672 0.7564, -1.5157 -0.871 0.7493, -1.437 -0.871 0.7493, -1.5157 -0.8728 0.7414, -1.437 -0.8728 0.7414, -1.5157 -0.8726 0.7333, -1.437 -0.8726 0.7333, -1.437 -0.8694 0.7132, -1.5157 -0.8694 0.7132, -1.5157 -0.8674 0.7062, -1.437 -0.8674 0.7062, -1.5157 -0.8639 0.6998, -1.437 -0.8639 0.6998, -1.5157 -0.859 0.6944, -1.437 -0.859 0.6944, -1.5157 -0.853 0.6903, -1.437 -0.853 0.6903, -1.5157 -0.8462 0.6876, -1.437 -0.8462 0.6876, -1.5157 -0.839 0.6866, -1.437 -0.839 0.6866, -1.5157 -0.8318 0.6873, -1.437 -0.8318 0.6873, -1.5157 -0.8249 0.6896, -1.437 -0.8249 0.6896, -2.1653 -0.1204 0.0098, -2.1653 -0.1184 0.0146, -2.1653 -0.1235 0.0058, -2.1653 -0.1178 0.0197, -2.1653 -0.1276 0.0026, -2.1653 -1.0134 0.0026, -2.1653 -1.0226 0.0146, -2.1653 -1.0175 0.0058, -2.1653 -1.0207 0.0098, -2.1653 -1.0233 0.8543, -2.1653 -1.0233 0.0197, -2.1653 -1.0036 0.0, -2.1653 -1.0087 0.0007, -2.1653 -1.0175 0.8682, -2.1653 -1.0207 0.8642, -2.1653 -1.0134 0.8714, -2.1653 -1.0226 0.8594, -2.1653 -1.0087 0.8733, -2.1653 -1.0036 0.874, -2.1653 -0.1178 0.874, -2.1653 -0.1375 0.0, -2.1653 -0.1324 0.0007, -2.2441 -0.1375 0.0, -2.2441 -1.0036 0.0, -2.2441 -1.0036 0.874, -2.2441 -0.1276 0.0026, -2.2441 -0.1178 0.0197, -2.2441 -0.1235 0.0058, -2.2441 -0.1184 0.0146, -2.2441 -0.1204 0.0098, -2.2441 -1.0087 0.0007, -2.2441 -1.0226 0.0146, -2.2441 -1.0233 0.0197, -2.2441 -1.0134 0.0026, -2.2441 -1.0175 0.0058, -2.2441 -1.0207 0.0098, -2.2441 -0.1178 0.874, -2.2441 -0.1324 0.0007, -2.2441 -1.0233 0.8543, -2.2441 -1.0226 0.8594, -2.2441 -1.0087 0.8733, -2.2441 -1.0207 0.8642, -2.2441 -1.0134 0.8714, -2.2441 -1.0175 0.8682, 2.1654 -1.0226 0.0146, 2.1654 -1.0233 0.0197, 2.1654 -1.0036 0.0, 2.1654 -1.0036 0.874, 2.1654 -0.1375 0.0, 2.1654 -0.1276 0.0026, 2.1654 -0.1178 0.0197, 2.1654 -0.1235 0.0058, 2.1654 -0.1184 0.0146, 2.1654 -0.1204 0.0098, 2.1654 -1.0087 0.0007, 2.1654 -1.0134 0.0026, 2.1654 -1.0207 0.0098, 2.1654 -1.0175 0.0058, 2.1654 -0.1178 0.874, 2.1654 -0.1324 0.0007, 2.1654 -1.0233 0.8543, 2.1654 -1.0226 0.8594, 2.1654 -1.0087 0.8733, 2.1654 -1.0207 0.8642, 2.1654 -1.0134 0.8714, 2.1654 -1.0175 0.8682, 2.2441 -1.0036 0.874, 2.2441 -0.1178 0.874, 2.2441 -0.1204 0.0098, 2.2441 -0.1184 0.0146, 2.2441 -0.1235 0.0058, 2.2441 -0.1178 0.0197, 2.2441 -0.1276 0.0026, 2.2441 -1.0175 0.0058, 2.2441 -1.0134 0.0026, 2.2441 -1.0207 0.0098, 2.2441 -1.0226 0.0146, 2.2441 -1.0233 0.8543, 2.2441 -1.0233 0.0197, 2.2441 -1.0036 0.0, 2.2441 -1.0087 0.0007, 2.2441 -1.0175 0.8682, 2.2441 -1.0207 0.8642, 2.2441 -1.0134 0.8714, 2.2441 -1.0226 0.8594, 2.2441 -1.0087 0.8733, 2.2441 -0.1375 0.0, 2.2441 -0.1324 0.0007
            ]
        }
        coordIndex [
            0,1,2,-1,2,1,3,-1,2,3,4,-1,4,3,5,-1,6,4,7,-1,7,4,5,-1,6,7,8,-1,8,7,9,-1,8,9,10,-1,10,9,11,-1,10,11,12,-1,12,11,13,-1,12,13,14,-1,14,13,15,-1,14,15,16,-1,16,15,17,-1,16,17,18,-1,18,17,19,-1,18,19,20,-1,20,19,21,-1,22,20,23,-1,23,20,21,-1,22,23,24,-1,24,23,25,-1,24,25,26,-1,26,25,27,-1,26,27,28,-1,28,27,29,-1,28,29,30,-1,30,29,31,-1,30,31,32,-1,32,31,33,-1,32,33,34,-1,34,33,35,-1,34,35,36,-1,36,35,37,-1,38,36,39,-1,39,36,37,-1,38,39,40,-1,40,39,41,-1,42,40,43,-1,43,40,41,-1,42,43,44,-1,42,44,45,-1,45,44,46,-1,45,46,47,-1,47,46,48,-1,47,48,49,-1,49,48,50,-1,49,50,51,-1,51,50,52,-1,51,52,53,-1,53,52,54,-1,53,54,55,-1,56,55,57,-1,57,55,54,-1,56,57,58,-1,56,58,59,-1,59,58,60,-1,59,60,61,-1,61,60,62,-1,61,62,63,-1,63,62,64,-1,63,64,65,-1,65,64,66,-1,65,66,67,-1,67,66,68,-1,67,68,69,-1,69,68,70,-1,69,70,71,-1,72,71,73,-1,73,71,70,-1,74,72,75,-1,75,72,73,-1,74,75,76,-1,76,75,77,-1,76,77,78,-1,78,77,79,-1,78,79,80,-1,80,79,81,-1,80,81,82,-1,82,81,83,-1,82,83,84,-1,84,83,85,-1,84,85,86,-1,86,85,87,-1,86,87,88,-1,88,87,89,-1,90,88,91,-1,91,88,89,-1,90,91,92,-1,90,92,93,-1,93,92,94,-1,93,94,95,-1,95,94,96,-1,95,96,97,-1,97,96,98,-1,97,98,99,-1,99,98,100,-1,99,100,101,-1,101,100,102,-1,101,102,103,-1,103,102,104,-1,103,104,105,-1,106,105,107,-1,107,105,104,-1,108,106,109,-1,109,106,107,-1,110,108,111,-1,111,108,109,-1,110,111,112,-1,112,111,113,-1,112,113,114,-1,114,113,115,-1,114,115,116,-1,116,115,117,-1,116,117,118,-1,118,117,119,-1,118,119,120,-1,120,119,121,-1,120,121,122,-1,122,121,123,-1,122,123,124,-1,124,123,125,-1,126,124,127,-1,127,124,125,-1,126,127,128,-1,126,128,129,-1,129,128,130,-1,129,130,131,-1,131,130,132,-1,131,132,133,-1,133,132,134,-1,133,134,135,-1,135,134,136,-1,135,136,137,-1,137,136,138,-1,137,138,139,-1,139,138,140,-1,139,140,141,-1,142,141,143,-1,143,141,140,-1,142,143,144,-1,142,144,145,-1,145,144,146,-1,145,146,147,-1,148,147,149,-1,149,147,146,-1,148,149,150,-1,148,150,151,-1,151,150,152,-1,151,152,153,-1,153,152,154,-1,153,154,155,-1,155,154,156,-1,155,156,157,-1,157,156,158,-1,157,158,159,-1,160,159,161,-1,161,159,158,-1,160,161,162,-1,160,162,163,-1,163,162,164,-1,163,164,165,-1,165,164,166,-1,165,166,167,-1,167,166,168,-1,167,168,169,-1,169,168,170,-1,169,170,171,-1,171,170,172,-1,171,172,173,-1,173,172,174,-1,173,174,175,-1,175,174,176,-1,175,176,177,-1,0,177,1,-1,1,177,176,-1,95,97,118,-1,120,122,90,-1,90,122,124,-1,90,124,88,-1,88,124,126,-1,120,90,118,-1,118,90,93,-1,118,93,95,-1,141,10,12,-1,71,72,56,-1,106,108,105,-1,105,108,110,-1,110,112,105,-1,105,112,114,-1,105,114,103,-1,103,114,116,-1,103,116,101,-1,101,116,118,-1,101,118,99,-1,99,118,97,-1,0,2,147,-1,74,76,126,-1,82,84,126,-1,126,84,86,-1,126,86,88,-1,30,32,74,-1,76,78,126,-1,126,78,80,-1,126,80,82,-1,129,18,126,-1,126,18,20,-1,126,20,22,-1,129,131,18,-1,18,131,133,-1,18,133,135,-1,12,14,141,-1,141,14,16,-1,141,16,139,-1,139,16,18,-1,139,18,137,-1,137,18,135,-1,22,24,126,-1,126,24,26,-1,126,26,74,-1,74,26,28,-1,74,28,30,-1,32,34,74,-1,74,34,36,-1,74,36,72,-1,56,72,55,-1,147,2,145,-1,145,2,4,-1,145,4,142,-1,142,4,6,-1,142,6,141,-1,141,6,8,-1,141,8,10,-1,36,38,72,-1,72,38,40,-1,72,40,42,-1,0,147,177,-1,177,147,148,-1,177,148,151,-1,165,167,175,-1,151,153,177,-1,177,153,155,-1,177,155,157,-1,157,159,177,-1,177,159,160,-1,177,160,175,-1,175,160,163,-1,175,163,165,-1,167,169,175,-1,175,169,171,-1,175,171,173,-1,71,56,69,-1,69,56,59,-1,69,59,61,-1,49,51,72,-1,72,51,53,-1,72,53,55,-1,61,63,69,-1,69,63,65,-1,69,65,67,-1,42,45,72,-1,72,45,47,-1,72,47,49,-1,85,83,127,-1,96,94,119,-1,119,94,92,-1,119,92,121,-1,121,92,91,-1,121,91,123,-1,117,100,119,-1,119,100,98,-1,119,98,96,-1,123,91,125,-1,125,91,89,-1,125,89,127,-1,127,89,87,-1,127,87,85,-1,11,140,13,-1,13,140,15,-1,115,104,117,-1,117,104,102,-1,117,102,100,-1,109,107,111,-1,111,107,104,-1,111,104,113,-1,113,104,115,-1,83,81,127,-1,127,81,79,-1,127,79,77,-1,140,138,127,-1,41,39,73,-1,73,39,37,-1,73,37,75,-1,75,37,35,-1,35,33,75,-1,75,33,31,-1,75,31,29,-1,127,19,140,-1,140,19,17,-1,140,17,15,-1,5,3,146,-1,146,3,1,-1,146,1,149,-1,149,1,176,-1,29,27,75,-1,75,27,25,-1,75,25,77,-1,77,25,23,-1,77,23,127,-1,127,23,21,-1,127,21,19,-1,134,132,130,-1,146,144,5,-1,5,144,143,-1,5,143,7,-1,7,143,140,-1,7,140,9,-1,9,140,11,-1,58,57,68,-1,68,57,70,-1,138,136,127,-1,127,136,134,-1,127,134,128,-1,128,134,130,-1,70,57,73,-1,73,57,54,-1,73,54,52,-1,174,166,164,-1,156,154,176,-1,68,66,64,-1,172,170,174,-1,174,170,168,-1,174,168,166,-1,164,162,174,-1,174,162,161,-1,174,161,176,-1,176,161,158,-1,176,158,156,-1,154,152,176,-1,176,152,150,-1,176,150,149,-1,64,62,68,-1,68,62,60,-1,68,60,58,-1,52,50,73,-1,73,50,48,-1,73,48,46,-1,46,44,73,-1,73,44,43,-1,73,43,41,-1,178,179,180,-1,180,179,181,-1,180,181,182,-1,183,184,185,-1,185,184,186,-1,187,188,189,-1,189,188,184,-1,189,184,190,-1,190,184,183,-1,191,192,193,-1,193,192,194,-1,193,194,195,-1,195,194,187,-1,195,187,196,-1,196,187,189,-1,196,189,197,-1,197,189,198,-1,197,198,181,-1,181,198,199,-1,181,199,182,-1,198,189,200,-1,200,189,201,-1,200,201,202,-1,203,204,205,-1,205,204,206,-1,205,206,207,-1,208,209,201,-1,201,209,210,-1,201,210,202,-1,208,211,209,-1,209,211,212,-1,209,212,213,-1,202,214,200,-1,200,214,204,-1,200,204,215,-1,215,204,203,-1,210,216,202,-1,202,216,217,-1,202,217,218,-1,218,217,219,-1,218,219,220,-1,220,219,221,-1,196,197,202,-1,202,197,214,-1,204,214,181,-1,181,214,197,-1,216,210,187,-1,187,210,188,-1,204,181,179,-1,204,179,206,-1,206,179,178,-1,206,178,207,-1,207,178,180,-1,207,180,205,-1,205,180,182,-1,205,182,203,-1,203,182,199,-1,203,199,215,-1,215,199,198,-1,215,198,200,-1,216,187,194,-1,216,194,217,-1,217,194,192,-1,217,192,219,-1,219,192,191,-1,219,191,221,-1,221,191,193,-1,221,193,220,-1,220,193,195,-1,220,195,218,-1,218,195,196,-1,218,196,202,-1,188,210,209,-1,188,209,184,-1,184,209,213,-1,184,213,186,-1,186,213,212,-1,186,212,185,-1,185,212,211,-1,185,211,183,-1,183,211,208,-1,183,208,190,-1,190,208,201,-1,190,201,189,-1,222,223,224,-1,224,223,225,-1,224,225,226,-1,227,228,229,-1,229,228,230,-1,229,230,231,-1,224,232,222,-1,222,232,233,-1,222,233,234,-1,234,233,235,-1,225,236,226,-1,226,236,228,-1,226,228,237,-1,237,228,227,-1,223,238,225,-1,225,238,239,-1,225,239,240,-1,240,239,241,-1,240,241,242,-1,242,241,243,-1,244,245,225,-1,225,245,236,-1,246,247,248,-1,248,247,249,-1,248,249,250,-1,251,252,253,-1,253,252,254,-1,255,256,257,-1,257,256,254,-1,257,254,258,-1,258,254,252,-1,259,260,261,-1,261,260,262,-1,261,262,263,-1,263,262,255,-1,263,255,244,-1,244,255,257,-1,244,257,245,-1,245,257,264,-1,245,264,249,-1,249,264,265,-1,249,265,250,-1,264,257,226,-1,226,257,224,-1,228,236,249,-1,249,236,245,-1,256,255,223,-1,223,255,238,-1,264,226,237,-1,264,237,265,-1,265,237,227,-1,265,227,250,-1,250,227,229,-1,250,229,248,-1,248,229,231,-1,248,231,246,-1,246,231,230,-1,246,230,247,-1,247,230,228,-1,247,228,249,-1,224,257,258,-1,224,258,232,-1,232,258,252,-1,232,252,233,-1,233,252,251,-1,233,251,235,-1,235,251,253,-1,235,253,234,-1,234,253,254,-1,234,254,222,-1,222,254,256,-1,222,256,223,-1,244,225,240,-1,244,240,263,-1,263,240,242,-1,263,242,261,-1,261,242,243,-1,261,243,259,-1,259,243,241,-1,259,241,260,-1,260,241,239,-1,260,239,262,-1,262,239,238,-1,262,238,255,-1,
        ]
    }
}
Shape{
    appearance Appearance {
        material  Material 	{
            diffuseColor 0.7019607843137254 0.7019607843137254 0.7019607843137254
            specularColor 0.050980392156862744 0.050980392156862744 0.050980392156862744
            ambientIntensity 1.0
            transparency 0.0
            shininess 0.5
        }
    }
    geometry IndexedFaceSet {
        ccw TRUE
        solid FALSE
        coord DEF co Coordinate {
            point [
                -0.0627 -1.0233 0.0079, -2.0472 -1.0233 0.0079, -2.0472 -0.3282 0.0079, -0.0387 -0.1517 0.0079, -0.0435 -0.3054 0.0079, -0.0627 0.5712 0.0079, -0.0627 -0.3282 0.0079, -0.0435 -0.327 0.0079, 0.0622 -0.327 0.0079, -0.0394 0.5712 0.0079, -0.0394 0.5573 0.0079, 0.1006 -0.3168 0.0079, 0.1006 -0.2952 0.0079, 0.0622 -0.1301 0.0079, 0.1216 -0.3254 0.0079, 0.1414 -0.3282 0.0079, -0.0387 -0.1301 0.0079, 0.4528 0.5573 0.0079, 0.3646 -0.327 0.0079, 0.3646 -0.1301 0.0079, 0.0358 -0.2382 0.0079, 0.0358 -0.3054 0.0079, -0.0339 -0.2382 0.0079, -0.0339 -0.2166 0.0079, 0.0358 -0.2166 0.0079, 0.0358 -0.1517 0.0079, 0.2366 -0.182 0.0079, 0.2251 -0.1636 0.0079, 0.3382 -0.1301 0.0079, 0.2139 -0.3102 0.0079, 0.2287 -0.2946 0.0079, 0.2638 -0.327 0.0079, 0.1663 -0.3282 0.0079, 0.1661 -0.1515 0.0079, 0.1808 -0.1568 0.0079, 0.1041 -0.2971 0.0079, 0.1944 -0.166 0.0079, 0.2063 -0.1791 0.0079, 0.2206 -0.2307 0.0079, 0.2186 -0.252 0.0079, 0.2133 -0.2689 0.0079, 0.1695 -0.3057 0.0079, 0.1511 -0.3078 0.0079, 0.1838 -0.3004 0.0079, 0.1959 -0.2923 0.0079, 0.2051 -0.2826 0.0079, 0.125 -0.3049 0.0079, 0.2073 -0.1465 0.0079, 0.0394 0.5573 0.0079, 0.0394 0.5712 0.0079, 0.4528 0.5712 0.0079, 0.5315 0.5712 0.0079, 0.9449 0.5712 0.0079, 0.5315 0.5573 0.0079, 0.9449 0.5573 0.0079, 2.1103 -0.3282 0.0079, 0.2144 -0.1943 0.0079, 0.2197 -0.2154 0.0079, 0.2638 -0.3054 0.0079, 0.2392 -0.2759 0.0079, 0.3382 -0.3054 0.0079, 1.0236 0.5712 0.0079, 1.437 0.5712 0.0079, 1.0236 0.5573 0.0079, 1.437 0.5573 0.0079, 0.179 -0.3269 0.0079, 0.1981 -0.3203 0.0079, 2.3622 0.5712 0.0079, 2.3622 -0.1178 0.0079, 2.1103 -0.1178 0.0079, 0.2451 -0.2551 0.0079, 0.247 -0.2323 0.0079, 0.2442 -0.2043 0.0079, 0.1886 -0.1357 0.0079, 0.1667 -0.1294 0.0079, 0.1469 -0.1277 0.0079, 1.5158 0.5712 0.0079, 1.5158 0.5573 0.0079, 0.1233 -0.1294 0.0079, 0.1006 -0.1355 0.0079, 0.1006 -0.162 0.0079, 0.1227 -0.1525 0.0079, 0.1467 -0.1493 0.0079, -0.4324 -0.327 0.0079, -0.4036 -0.327 0.0079, -0.2547 -0.327 0.0079, -0.2305 -0.273 0.0079, -0.2192 -0.2906 0.0079, -2.3622 -0.1178 0.0079, -2.3622 0.5712 0.0079, -2.0472 -0.1178 0.0079, -1.0236 0.5712 0.0079, -1.0236 0.5573 0.0079, -0.203 -0.3062 0.0079, -0.1824 -0.3181 0.0079, -0.1598 -0.3249 0.0079, -0.9449 0.5712 0.0079, -0.5315 0.5712 0.0079, -0.9449 0.5573 0.0079, -0.5315 0.5573 0.0079, -0.2105 -0.1558 0.0079, -0.2244 -0.1712 0.0079, -0.1354 -0.327 0.0079, -0.2835 -0.327 0.0079, -0.3023 -0.2718 0.0079, -0.3836 -0.2718 0.0079, -0.0819 -0.327 0.0079, -0.0819 -0.1301 0.0079, -0.4527 0.5573 0.0079, -0.4527 0.5712 0.0079, -0.2336 -0.1882 0.0079, -0.2389 -0.2076 0.0079, -0.3291 -0.1301 0.0079, -0.2403 -0.2261 0.0079, -0.2376 -0.2524 0.0079, -0.1374 -0.1301 0.0079, -0.1659 -0.1332 0.0079, -0.1889 -0.1413 0.0079, -0.2103 -0.1556 0.0079, -0.3555 -0.1301 0.0079, 0.1494 -0.3293 0.0079, 0.1547 -0.3294 0.0079, 2.1103 -1.0233 0.0079, 0.8262 0.0118 0.9331, 1.2614 0.5712 0.9331, -0.8262 0.0118 0.9331, -1.2614 0.5712 0.9331, -0.8262 -0.4639 0.9331, -1.2614 -0.9052 0.9331, 0.8262 -0.4639 0.9331, 1.2614 -0.9052 0.9331, -1.0236 0.5712 0.8244, 1.5158 0.5712 0.8244, 1.437 0.5712 0.8244, 1.0236 0.5712 0.8244, 0.9449 0.5712 0.8244, 2.3622 0.5712 0.3819, 1.9291 0.5712 0.3819, 1.9291 0.5712 1.6811, 1.4764 0.5712 1.1239, 1.3583 0.5712 1.1239, 1.3583 0.5712 1.5176, 1.2614 0.5712 1.4843, -1.2614 0.5712 1.4843, 0.4528 0.5712 0.8244, 0.0394 0.5712 0.8244, -0.0394 0.5712 0.8244, 0.5315 0.5712 0.8244, -0.5315 0.5712 0.8244, -0.9449 0.5712 0.8244, -0.4527 0.5712 0.8244, -1.3583 0.5712 1.5176, -1.9291 0.5712 1.6811, -1.4764 0.5712 1.5176, -1.9291 0.5712 0.3819, -1.4764 0.5712 1.1239, -1.3583 0.5712 1.1239, 1.4764 0.5712 1.5176, -2.3622 0.5712 0.3819, 1.9685 -0.9052 0.3228, 1.9685 0.1578 0.3228, 1.5158 0.1578 0.3228, 1.437 0.1578 0.3228, 1.0236 0.1578 0.3228, 1.437 -0.8803 0.3228, 1.0236 -0.8803 0.3228, 0.4528 -0.8803 0.3228, 0.4528 0.1578 0.3228, 0.0394 0.1578 0.3228, 0.0394 -0.8803 0.3228, -0.0394 -0.8803 0.3228, -1.9685 -0.9052 0.3228, -0.5315 -0.8803 0.3228, -0.5315 0.1578 0.3228, -0.9449 0.1578 0.3228, 1.5158 -0.8803 0.3228, 0.9449 -0.8803 0.3228, 0.9449 0.1578 0.3228, 0.5315 0.1578 0.3228, 0.5315 -0.8803 0.3228, -1.0236 0.1578 0.3228, -1.9685 0.1578 0.3228, -1.0236 -0.8803 0.3228, -0.9449 -0.8803 0.3228, -0.0394 0.1578 0.3228, -0.4527 0.1578 0.3228, -0.4527 -0.8803 0.3228, 1.437 0.1578 0.332, 0.9449 0.1578 0.332, 0.4528 0.1578 0.332, 1.5158 0.1578 0.332, 1.9685 0.1578 1.0906, 1.5197 0.1578 0.7953, 1.5158 0.1578 0.7953, 1.5158 0.1578 0.7336, 1.0276 0.1578 0.7953, 1.0236 0.1578 0.7953, 1.0236 0.1578 0.7336, -0.0394 0.1578 0.332, 1.437 0.1578 0.7953, 1.4331 0.1578 0.7953, 1.437 0.1578 0.7336, 1.4331 0.1578 0.7165, 1.5197 0.1578 0.7165, 1.0236 0.1578 0.332, 0.9449 0.1578 0.7953, 0.941 0.1578 0.7953, 0.9449 0.1578 0.7336, 0.941 0.1578 0.7165, 1.0276 0.1578 0.7165, 0.5315 0.1578 0.332, 0.5354 0.1578 0.7953, 0.5315 0.1578 0.7953, 0.5315 0.1578 0.7336, -0.5315 0.1578 0.332, 1.6929 0.1578 0.874, 1.561 0.1578 0.874, 1.561 0.1578 0.7165, 0.4528 0.1578 0.7953, 0.4488 0.1578 0.7953, 0.4528 0.1578 0.7336, 0.4488 0.1578 0.7165, 0.5354 0.1578 0.7165, 0.0394 0.1578 0.332, 0.0433 0.1578 0.7953, 0.0394 0.1578 0.7953, 0.0394 0.1578 0.7336, -1.0236 0.1578 0.332, 1.6929 0.1578 1.0906, 1.3839 0.1578 0.874, 1.0689 0.1578 0.874, 1.3839 0.1578 0.7165, 1.0689 0.1578 0.7165, 0.8917 0.1578 0.874, 0.5768 0.1578 0.874, 0.8917 0.1578 0.7165, 0.5768 0.1578 0.7165, -0.0394 0.1578 0.7953, -0.0433 0.1578 0.7953, -0.0394 0.1578 0.7336, -0.0433 0.1578 0.7165, 0.0433 0.1578 0.7165, -0.4527 0.1578 0.332, -0.4488 0.1578 0.7953, -0.4527 0.1578 0.7953, -0.4527 0.1578 0.7336, 0.3996 0.1578 0.874, 0.0847 0.1578 0.874, 0.3996 0.1578 0.7165, 0.0847 0.1578 0.7165, -0.5315 0.1578 0.7953, -0.5354 0.1578 0.7953, -0.5315 0.1578 0.7336, -0.5354 0.1578 0.7165, -0.4488 0.1578 0.7165, -0.9449 0.1578 0.332, -0.9409 0.1578 0.7953, -0.9449 0.1578 0.7953, -0.9449 0.1578 0.7336, -1.6929 0.1578 1.0906, -1.9685 0.1578 1.0906, -1.6929 0.1578 0.874, -0.0925 0.1578 0.874, -0.4075 0.1578 0.874, -0.0925 0.1578 0.7165, -0.4075 0.1578 0.7165, -1.0236 0.1578 0.7953, -1.0275 0.1578 0.7953, -1.0236 0.1578 0.7336, -1.0275 0.1578 0.7165, -0.9409 0.1578 0.7165, -1.4331 0.1578 0.7165, -1.3917 0.1578 0.7165, -1.0768 0.1578 0.7165, -1.3917 0.1578 0.874, -1.0768 0.1578 0.874, -1.5689 0.1578 0.874, -1.5689 0.1578 0.7165, -1.5197 0.1578 0.7165, -1.5197 0.1578 0.7953, -1.4331 0.1578 0.7953, -0.5846 0.1578 0.874, -0.8996 0.1578 0.874, -0.5846 0.1578 0.7165, -0.8996 0.1578 0.7165, 1.437 -0.794 0.7953, 1.5158 -0.794 0.7953, 1.5197 -1.0233 0.7953, 1.4331 -1.0233 0.7953, 0.9449 -0.794 0.7953, 1.0236 -0.794 0.7953, 1.0276 -1.0233 0.7953, 0.941 -1.0233 0.7953, 0.4528 -0.794 0.7953, 0.5315 -0.794 0.7953, 0.5354 -1.0233 0.7953, 0.4488 -1.0233 0.7953, -0.0394 -0.794 0.7953, 0.0394 -0.794 0.7953, 0.0433 -1.0233 0.7953, -0.0433 -1.0233 0.7953, -0.5315 -0.794 0.7953, -0.4527 -0.794 0.7953, -0.4488 -1.0233 0.7953, -0.5354 -1.0233 0.7953, -1.0236 -0.794 0.7953, -0.9449 -0.794 0.7953, -0.9409 -1.0233 0.7953, -1.0275 -1.0233 0.7953, 1.4331 -0.9052 0.7165, 1.3839 -0.9052 0.7165, 0.941 -0.9052 0.7165, 0.8917 -0.9052 0.7165, 0.4488 -0.9052 0.7165, 0.3996 -0.9052 0.7165, -0.0433 -0.9052 0.7165, -0.0925 -0.9052 0.7165, -0.5354 -0.9052 0.7165, -0.5846 -0.9052 0.7165, -1.0275 -0.9052 0.7165, -1.0768 -0.9052 0.7165, 1.0276 -0.9052 0.7165, 1.0689 -0.9052 0.7165, 0.5354 -0.9052 0.7165, 0.5768 -0.9052 0.7165, 0.0433 -0.9052 0.7165, 0.0847 -0.9052 0.7165, -0.4488 -0.9052 0.7165, -0.4075 -0.9052 0.7165, -0.9409 -0.9052 0.7165, -0.8996 -0.9052 0.7165, -1.5689 -0.9052 0.7165, -1.5197 -0.9052 0.7165, -1.4331 -0.9052 0.7165, -1.3917 -0.9052 0.7165, 1.3839 -1.0233 0.7716, 1.4331 -1.0233 0.7716, 0.8917 -1.0233 0.7716, 0.941 -1.0233 0.7716, 0.3996 -1.0233 0.7716, 0.4488 -1.0233 0.7716, -0.0925 -1.0233 0.7716, -0.0433 -1.0233 0.7716, -0.5846 -1.0233 0.7716, -0.5354 -1.0233 0.7716, -1.0768 -1.0233 0.7716, -1.0275 -1.0233 0.7716, 1.0689 -1.0233 0.7716, 1.0276 -1.0233 0.7716, 0.5768 -1.0233 0.7716, 0.5354 -1.0233 0.7716, 0.0847 -1.0233 0.7716, 0.0433 -1.0233 0.7716, -0.4075 -1.0233 0.7716, -0.4488 -1.0233 0.7716, -0.8996 -1.0233 0.7716, -0.9409 -1.0233 0.7716, -1.5197 -1.0233 0.7716, -1.5689 -1.0233 0.7716, -1.3917 -1.0233 0.7716, -1.4331 -1.0233 0.7716, 2.2171 -0.0587 1.4843, 2.3622 -0.0587 1.4843, 2.2171 0.1578 1.4843, 2.3622 0.3743 1.4843, 2.126 0.1578 1.4843, 2.126 0.3743 1.4843, 2.126 -0.0587 1.6811, 2.126 -0.0587 1.5303, 2.126 0.4925 1.6811, 2.126 0.1578 1.5303, 2.126 0.3743 0.3819, 2.126 0.4925 0.3819, 2.3622 0.3743 0.3819, 2.3622 -0.1178 0.2441, 2.3622 -0.9052 0.874, 2.3622 -0.9052 0.2441, 2.3622 -0.0587 1.6811, 2.3622 -1.0233 1.6811, 2.3622 -1.0233 1.5239, 2.3622 -1.0233 0.874, 2.3622 -1.0233 1.0009, 2.3622 -1.0233 1.2198, -2.3622 -0.1178 0.2441, -2.3622 -0.9052 0.2441, -2.3622 -0.9052 0.874, -2.3622 0.3743 0.3819, -2.3622 0.3743 1.4843, -2.3622 -0.0587 1.4843, -2.3622 -0.0587 1.6811, -2.3622 -1.0233 0.874, -2.3622 -1.0233 1.0009, -2.3622 -1.0233 1.2198, -2.3622 -1.0233 1.5239, -2.3622 -1.0233 1.6811, 1.561 -1.0233 0.874, 1.5908 -1.0233 0.874, 1.5908 -1.0233 1.0009, -1.6378 -1.0233 1.0009, -1.6378 -1.0233 0.874, -1.5908 -1.0233 0.874, 2.1654 -1.0233 0.874, -2.1653 -1.0233 0.0629, -2.1203 -1.0233 0.0419, -2.1653 -1.0233 0.1378, -2.1203 -1.0233 0.1378, -2.1653 -1.0233 0.874, -2.1203 -1.0233 1.0009, 2.0236 -1.0233 1.0009, 2.0236 -1.0233 0.2678, 2.1654 -1.0233 0.1378, 1.5908 -1.0233 0.1378, 1.5908 -1.0233 0.0079, 2.1654 -1.0233 0.126, 2.2171 -1.0233 1.2941, 2.2171 -1.0233 1.5239, 2.2171 -1.0233 1.5303, 1.7052 -1.0233 1.5303, 1.5908 -1.0233 1.6811, 1.7052 -1.0233 1.5239, 1.5908 -1.0233 1.5239, 1.7052 -1.0233 1.2941, 1.5908 -1.0233 1.2198, -1.5908 -1.0233 1.5239, -1.7052 -1.0233 1.5239, -1.5908 -1.0233 1.2198, -1.7052 -1.0233 1.2941, -2.1203 -1.0233 1.2198, -1.7052 -1.0233 1.5303, -1.5908 -1.0233 1.6811, -2.1203 -1.0233 1.5303, -2.1203 -1.0233 1.6811, -2.217 -1.0233 1.5303, -2.217 -1.0233 1.5239, -2.217 -1.0233 1.2941, -2.1203 -1.0233 1.2941, 1.2614 -1.0233 1.5393, 1.3098 -1.0233 1.6811, -1.2614 -1.0233 1.5393, -1.3098 -1.0233 1.6811, -1.2614 -1.0233 1.5239, -1.3098 -1.0233 1.5239, -1.2614 -1.0233 1.2198, -1.3098 -1.0233 1.2198, -1.2614 -1.0233 1.0009, -1.3098 -1.0233 1.0009, -1.2614 -1.0233 0.878, -1.0768 -1.0233 0.874, -0.0925 -1.0233 0.874, -0.5846 -1.0233 0.874, 0.8917 -1.0233 0.874, 0.0847 -1.0233 0.874, 0.5768 -1.0233 0.874, 1.2614 -1.0233 0.878, 0.3996 -1.0233 0.874, 1.0689 -1.0233 0.874, -0.4075 -1.0233 0.874, -0.8996 -1.0233 0.874, 1.3098 -1.0233 0.874, 1.2614 -1.0233 1.0009, 1.3098 -1.0233 1.5239, 1.2614 -1.0233 1.5239, 1.3098 -1.0233 1.2198, 1.2614 -1.0233 1.2198, 1.3098 -1.0233 1.0009, -1.4764 -1.0233 1.2198, -1.4764 -1.0233 1.5176, -1.3583 -1.0233 1.5176, -1.3583 -1.0233 1.2198, -1.3583 -1.0233 1.1239, -1.5908 -1.0233 1.0009, -1.4764 -1.0233 1.1239, 1.3583 -1.0233 1.5176, 1.4764 -1.0233 1.5176, 1.3583 -1.0233 1.2198, 1.3583 -1.0233 1.1239, 1.4764 -1.0233 1.1239, 1.4764 -1.0233 1.2198, -1.6378 -1.0233 1.1456, -2.0236 -1.0233 1.1456, -2.0236 -1.0233 1.0009, -2.0236 -1.0233 0.2678, -1.5908 -1.0233 0.2678, 1.5908 -1.0233 0.2678, 1.3098 -1.0233 0.2678, 1.3098 -1.0233 0.1378, -1.3098 -1.0233 0.2678, -1.3098 -1.0233 0.1378, -1.5908 -1.0233 0.1378, 2.0236 -1.0233 1.1456, 1.6378 -1.0233 0.874, 1.6378 -1.0233 1.0009, 1.6378 -1.0233 1.1456, 1.3839 -1.0233 0.874, 1.5197 -1.0233 0.7716, 1.561 -1.0233 0.7716, -1.5689 -1.0233 0.874, -1.5197 -1.0233 0.7953, -1.4331 -1.0233 0.7953, -1.3917 -1.0233 0.874, -1.3098 -1.0233 0.874, -1.5908 -1.0233 0.0079, -1.3098 -1.0233 0.0079, 1.3098 -1.0233 0.0079, -1.9291 0.4925 1.6811, -2.126 0.4925 1.6811, -2.126 -0.0587 1.6811, 1.9291 0.4925 1.6811, 2.2171 0.1578 1.2941, 2.2171 -0.0587 1.5303, 1.7052 0.1578 1.2941, 1.7052 0.1578 1.5303, -1.7052 0.1578 1.5303, -1.7052 0.1578 1.2941, -2.217 0.1578 1.2941, -2.217 -0.0587 1.4843, -2.217 0.1578 1.4843, -2.217 -0.0587 1.5303, -2.126 -0.0587 1.5303, -2.126 0.1578 1.5303, -2.126 0.1578 1.4843, -1.9685 -0.9052 1.0906, -1.6929 -0.9052 1.0906, -1.6929 -0.9052 0.874, 1.5197 -0.9052 0.7165, 1.561 -0.9052 0.7165, 1.6929 -0.9052 0.874, 1.6929 -0.9052 1.0906, 1.9685 -0.9052 1.0906, 1.2614 -0.9052 1.4843, -1.2614 -0.9052 1.4843, -2.126 0.4925 0.3819, -2.126 0.3743 0.3819, -2.126 0.3743 1.4843, 1.9291 0.4925 0.3819, -1.9291 0.4925 0.3819
            ]
        }
        coordIndex [
            0,1,2,-1,3,4,5,-1,5,4,6,-1,6,4,7,-1,6,7,8,-1,5,9,10,-1,11,8,12,-1,12,8,13,-1,11,14,8,-1,8,14,15,-1,8,15,6,-1,3,5,16,-1,16,5,10,-1,16,10,13,-1,17,18,19,-1,20,21,22,-1,22,21,4,-1,22,4,23,-1,23,4,3,-1,23,3,24,-1,24,3,25,-1,26,27,28,-1,29,30,31,-1,32,31,18,-1,33,34,35,-1,35,34,36,-1,35,36,37,-1,38,39,35,-1,35,39,40,-1,41,42,43,-1,43,42,44,-1,40,45,35,-1,35,45,44,-1,35,44,46,-1,46,44,42,-1,27,47,28,-1,28,47,10,-1,28,10,19,-1,19,10,48,-1,19,48,17,-1,17,48,49,-1,17,49,50,-1,51,52,53,-1,53,52,54,-1,53,54,55,-1,37,56,35,-1,35,56,57,-1,35,57,38,-1,31,30,58,-1,58,30,59,-1,58,59,60,-1,61,62,63,-1,63,62,64,-1,32,65,31,-1,31,65,66,-1,31,66,29,-1,67,68,69,-1,59,70,60,-1,60,70,71,-1,60,71,28,-1,28,71,72,-1,28,72,26,-1,47,73,10,-1,10,73,74,-1,10,74,75,-1,76,67,77,-1,77,67,69,-1,77,69,64,-1,64,69,55,-1,64,55,63,-1,63,55,54,-1,75,78,10,-1,10,78,79,-1,10,79,13,-1,13,79,80,-1,13,80,12,-1,12,80,81,-1,12,81,35,-1,35,81,82,-1,35,82,33,-1,83,84,6,-1,85,86,87,-1,88,89,90,-1,90,89,91,-1,90,91,2,-1,2,91,92,-1,87,93,85,-1,85,93,94,-1,85,94,95,-1,96,97,98,-1,98,97,99,-1,100,101,98,-1,95,102,85,-1,85,102,6,-1,85,6,103,-1,103,6,84,-1,103,84,104,-1,104,84,105,-1,102,106,6,-1,6,106,107,-1,6,107,5,-1,5,107,108,-1,5,108,109,-1,110,111,112,-1,112,111,113,-1,112,113,85,-1,85,113,114,-1,85,114,86,-1,107,115,108,-1,108,115,116,-1,108,116,99,-1,99,116,117,-1,99,117,98,-1,98,117,118,-1,98,118,100,-1,15,0,6,-1,6,0,2,-1,6,2,83,-1,83,2,92,-1,83,92,119,-1,119,92,98,-1,119,98,112,-1,112,98,101,-1,112,101,110,-1,15,120,0,-1,0,120,121,-1,0,121,32,-1,17,53,18,-1,18,53,55,-1,18,55,32,-1,32,55,122,-1,32,122,0,-1,123,124,125,-1,125,124,126,-1,125,126,127,-1,127,126,128,-1,127,128,129,-1,129,128,130,-1,129,130,123,-1,123,130,124,-1,126,131,91,-1,132,133,124,-1,124,133,62,-1,124,62,61,-1,61,134,124,-1,124,134,135,-1,124,135,126,-1,136,67,137,-1,137,67,76,-1,137,76,132,-1,138,137,139,-1,139,137,132,-1,139,132,140,-1,140,132,124,-1,140,124,141,-1,141,124,142,-1,141,142,143,-1,144,50,49,-1,145,146,126,-1,49,145,144,-1,144,145,126,-1,144,126,147,-1,147,126,135,-1,147,135,51,-1,51,135,52,-1,148,97,96,-1,131,126,149,-1,96,149,148,-1,148,149,126,-1,148,126,150,-1,150,126,146,-1,150,146,109,-1,109,146,9,-1,138,151,152,-1,152,151,153,-1,152,153,154,-1,154,153,155,-1,154,155,156,-1,139,157,138,-1,138,157,141,-1,138,141,151,-1,151,141,143,-1,151,143,156,-1,156,143,126,-1,156,126,154,-1,154,126,91,-1,154,91,158,-1,158,91,89,-1,159,160,161,-1,162,163,164,-1,164,163,165,-1,166,167,168,-1,169,170,171,-1,172,173,174,-1,161,175,159,-1,159,175,164,-1,159,164,171,-1,171,164,165,-1,171,165,176,-1,177,178,176,-1,176,178,179,-1,176,179,171,-1,171,179,166,-1,171,166,169,-1,169,166,168,-1,180,181,182,-1,182,181,171,-1,182,171,183,-1,184,185,170,-1,170,185,186,-1,170,186,171,-1,171,186,172,-1,171,172,183,-1,183,172,174,-1,163,162,187,-1,178,177,188,-1,168,167,189,-1,161,160,190,-1,190,160,191,-1,192,193,194,-1,195,196,197,-1,185,184,198,-1,199,200,201,-1,201,200,202,-1,201,202,194,-1,192,194,203,-1,203,194,202,-1,203,202,204,-1,205,206,207,-1,207,206,208,-1,207,208,197,-1,195,197,209,-1,209,197,208,-1,209,208,210,-1,211,212,213,-1,174,173,214,-1,215,216,217,-1,218,219,220,-1,220,219,221,-1,220,221,213,-1,211,213,222,-1,222,213,221,-1,222,221,223,-1,224,225,226,-1,181,180,227,-1,204,163,203,-1,203,163,187,-1,203,187,217,-1,217,187,190,-1,217,190,215,-1,215,190,191,-1,215,191,228,-1,229,230,231,-1,231,230,232,-1,233,234,235,-1,235,234,236,-1,237,238,239,-1,239,238,240,-1,239,240,226,-1,224,226,241,-1,241,226,240,-1,241,240,242,-1,243,244,245,-1,246,247,248,-1,248,247,249,-1,250,251,252,-1,252,251,253,-1,252,253,245,-1,243,245,254,-1,254,245,253,-1,254,253,255,-1,256,257,258,-1,259,260,261,-1,261,260,181,-1,210,178,209,-1,209,178,188,-1,209,188,232,-1,232,188,204,-1,232,204,231,-1,231,204,202,-1,223,168,222,-1,222,168,189,-1,222,189,236,-1,236,189,210,-1,236,210,235,-1,235,210,208,-1,262,263,264,-1,264,263,265,-1,266,267,268,-1,268,267,269,-1,268,269,258,-1,258,269,270,-1,258,270,256,-1,271,181,272,-1,272,181,273,-1,272,273,274,-1,274,273,275,-1,276,261,277,-1,277,261,181,-1,277,181,278,-1,278,181,271,-1,278,271,279,-1,279,271,280,-1,242,185,241,-1,241,185,198,-1,241,198,249,-1,249,198,223,-1,249,223,248,-1,248,223,221,-1,281,282,283,-1,283,282,284,-1,255,174,254,-1,254,174,214,-1,254,214,265,-1,265,214,242,-1,265,242,264,-1,264,242,240,-1,253,283,255,-1,255,283,284,-1,255,284,227,-1,227,284,270,-1,227,270,181,-1,181,270,269,-1,181,269,273,-1,200,199,285,-1,193,192,286,-1,286,192,287,-1,286,287,285,-1,285,287,288,-1,285,288,200,-1,206,205,289,-1,196,195,290,-1,290,195,291,-1,290,291,289,-1,289,291,292,-1,289,292,206,-1,219,218,293,-1,212,211,294,-1,294,211,295,-1,294,295,293,-1,293,295,296,-1,293,296,219,-1,238,237,297,-1,225,224,298,-1,298,224,299,-1,298,299,297,-1,297,299,300,-1,297,300,238,-1,251,250,301,-1,244,243,302,-1,302,243,303,-1,302,303,301,-1,301,303,304,-1,301,304,251,-1,267,266,305,-1,257,256,306,-1,306,256,307,-1,306,307,305,-1,305,307,308,-1,305,308,267,-1,309,310,202,-1,202,310,231,-1,311,312,208,-1,208,312,235,-1,313,314,221,-1,221,314,248,-1,315,316,240,-1,240,316,264,-1,317,318,253,-1,253,318,283,-1,319,320,269,-1,269,320,273,-1,209,232,321,-1,321,232,322,-1,222,236,323,-1,323,236,324,-1,241,249,325,-1,325,249,326,-1,254,265,327,-1,327,265,328,-1,270,284,329,-1,329,284,330,-1,277,278,331,-1,331,278,332,-1,271,272,333,-1,333,272,334,-1,335,310,336,-1,336,310,309,-1,337,312,338,-1,338,312,311,-1,339,314,340,-1,340,314,313,-1,341,316,342,-1,342,316,315,-1,343,318,344,-1,344,318,317,-1,345,320,346,-1,346,320,319,-1,322,347,321,-1,321,347,348,-1,324,349,323,-1,323,349,350,-1,326,351,325,-1,325,351,352,-1,328,353,327,-1,327,353,354,-1,330,355,329,-1,329,355,356,-1,332,357,331,-1,331,357,358,-1,334,359,333,-1,333,359,360,-1,361,362,363,-1,363,362,364,-1,363,364,365,-1,365,364,366,-1,367,368,369,-1,369,368,370,-1,371,372,366,-1,366,372,369,-1,366,369,365,-1,365,369,370,-1,67,136,68,-1,68,136,373,-1,68,373,374,-1,375,376,362,-1,362,376,374,-1,362,374,364,-1,364,374,373,-1,377,378,362,-1,362,378,379,-1,380,375,381,-1,381,375,362,-1,381,362,382,-1,382,362,379,-1,383,384,385,-1,158,89,386,-1,386,89,88,-1,386,88,387,-1,387,88,383,-1,387,383,388,-1,388,383,385,-1,388,385,389,-1,389,385,390,-1,389,390,391,-1,391,392,389,-1,389,392,393,-1,389,393,394,-1,395,396,397,-1,398,399,400,-1,401,380,381,-1,402,403,404,-1,404,403,405,-1,404,405,406,-1,406,405,407,-1,406,407,390,-1,408,409,410,-1,410,409,411,-1,412,122,413,-1,414,382,415,-1,415,382,379,-1,415,379,416,-1,416,379,378,-1,416,378,417,-1,417,378,418,-1,417,418,419,-1,419,420,421,-1,421,420,422,-1,423,424,425,-1,425,424,426,-1,425,426,427,-1,428,429,430,-1,430,429,431,-1,430,431,432,-1,432,431,394,-1,432,394,433,-1,433,394,393,-1,433,393,434,-1,434,393,392,-1,434,392,435,-1,436,437,438,-1,438,437,439,-1,438,439,440,-1,440,441,442,-1,442,441,443,-1,442,443,444,-1,444,443,445,-1,444,445,446,-1,345,346,447,-1,447,346,308,-1,447,308,307,-1,448,341,342,-1,299,352,351,-1,343,344,449,-1,449,344,304,-1,449,304,303,-1,337,338,450,-1,450,338,292,-1,351,451,299,-1,299,451,448,-1,299,448,300,-1,300,448,342,-1,452,450,453,-1,339,340,454,-1,454,340,296,-1,454,296,295,-1,348,347,291,-1,291,347,455,-1,354,353,303,-1,303,353,456,-1,303,456,449,-1,449,456,446,-1,449,446,457,-1,292,291,450,-1,450,291,455,-1,450,455,453,-1,453,455,458,-1,453,458,459,-1,456,448,446,-1,446,448,451,-1,446,451,453,-1,453,451,454,-1,453,454,452,-1,452,454,295,-1,452,295,349,-1,349,295,350,-1,460,461,462,-1,462,461,463,-1,462,463,464,-1,425,465,423,-1,423,465,466,-1,423,466,441,-1,441,466,467,-1,441,467,443,-1,443,467,468,-1,443,468,445,-1,445,468,469,-1,445,469,470,-1,470,469,471,-1,460,472,473,-1,472,460,474,-1,474,460,462,-1,474,462,475,-1,475,462,464,-1,475,464,476,-1,476,464,397,-1,476,397,477,-1,477,397,422,-1,477,422,473,-1,473,422,420,-1,473,420,460,-1,478,470,425,-1,425,470,471,-1,425,471,465,-1,478,425,479,-1,479,425,427,-1,479,427,480,-1,480,427,407,-1,480,407,481,-1,481,407,405,-1,481,405,482,-1,409,483,411,-1,411,483,484,-1,411,484,485,-1,485,484,486,-1,485,486,487,-1,487,486,482,-1,487,482,488,-1,488,482,405,-1,488,405,1,-1,1,405,403,-1,410,401,408,-1,408,401,381,-1,408,381,489,-1,489,381,382,-1,489,382,422,-1,422,382,414,-1,422,414,421,-1,396,490,397,-1,397,490,491,-1,397,491,422,-1,422,491,492,-1,422,492,489,-1,463,459,464,-1,464,459,458,-1,464,458,397,-1,397,458,493,-1,287,494,495,-1,335,336,493,-1,493,336,288,-1,493,288,397,-1,397,288,287,-1,397,287,395,-1,395,287,495,-1,478,398,470,-1,470,398,400,-1,470,400,445,-1,445,400,496,-1,358,357,496,-1,496,357,497,-1,360,359,498,-1,498,359,499,-1,356,355,307,-1,307,355,457,-1,307,457,447,-1,447,457,446,-1,447,446,500,-1,500,446,445,-1,500,445,499,-1,499,445,496,-1,499,496,498,-1,498,496,497,-1,426,435,427,-1,427,435,392,-1,427,392,407,-1,407,392,391,-1,407,391,390,-1,440,439,441,-1,441,439,429,-1,441,429,423,-1,423,429,428,-1,423,428,424,-1,419,418,420,-1,420,418,437,-1,420,437,460,-1,460,437,436,-1,460,436,461,-1,1,501,488,-1,488,501,502,-1,488,502,487,-1,487,502,503,-1,487,503,485,-1,485,503,412,-1,485,412,411,-1,411,412,413,-1,411,413,410,-1,504,505,506,-1,378,377,418,-1,418,377,367,-1,418,367,437,-1,437,367,369,-1,437,369,507,-1,138,152,507,-1,507,152,504,-1,507,504,437,-1,437,504,506,-1,389,394,506,-1,506,394,431,-1,431,429,506,-1,506,429,439,-1,506,439,437,-1,361,363,508,-1,416,509,415,-1,415,509,361,-1,415,361,414,-1,414,361,508,-1,508,510,414,-1,414,510,421,-1,421,510,419,-1,419,510,511,-1,419,511,417,-1,509,416,368,-1,368,416,417,-1,368,417,370,-1,370,417,511,-1,370,511,365,-1,365,511,510,-1,365,510,363,-1,363,510,508,-1,428,512,424,-1,424,512,513,-1,424,513,426,-1,426,513,435,-1,435,513,514,-1,435,514,434,-1,434,514,515,-1,515,514,516,-1,434,515,433,-1,433,515,517,-1,433,517,432,-1,518,519,512,-1,432,517,430,-1,430,517,518,-1,430,518,428,-1,428,518,512,-1,516,514,520,-1,520,514,513,-1,520,513,519,-1,519,513,512,-1,171,181,521,-1,521,181,260,-1,521,260,522,-1,522,260,259,-1,523,522,261,-1,261,522,259,-1,203,217,524,-1,524,217,525,-1,215,228,526,-1,526,228,527,-1,527,228,528,-1,528,228,191,-1,528,191,159,-1,159,191,160,-1,130,453,459,-1,142,124,529,-1,529,124,130,-1,436,529,461,-1,461,529,130,-1,461,130,463,-1,463,130,459,-1,440,442,128,-1,128,442,444,-1,128,444,446,-1,126,143,128,-1,128,143,530,-1,128,530,440,-1,440,530,438,-1,530,143,529,-1,529,143,142,-1,467,151,468,-1,468,151,156,-1,468,156,469,-1,469,156,471,-1,471,156,155,-1,471,155,465,-1,465,155,153,-1,465,153,466,-1,466,153,467,-1,467,153,151,-1,473,157,477,-1,477,157,139,-1,477,139,476,-1,476,139,475,-1,475,139,140,-1,475,140,474,-1,474,140,141,-1,474,141,472,-1,472,141,473,-1,473,141,157,-1,515,388,517,-1,517,388,389,-1,517,389,518,-1,518,389,506,-1,531,532,505,-1,505,532,533,-1,518,506,519,-1,519,506,505,-1,519,505,520,-1,520,505,533,-1,520,533,516,-1,516,533,387,-1,516,387,515,-1,515,387,388,-1,368,367,509,-1,509,367,377,-1,509,377,361,-1,361,377,362,-1,534,507,372,-1,372,507,369,-1,507,534,138,-1,138,534,137,-1,371,373,372,-1,372,373,136,-1,372,136,534,-1,534,136,137,-1,505,504,531,-1,531,504,535,-1,535,154,531,-1,531,154,158,-1,531,158,532,-1,532,158,386,-1,535,504,154,-1,154,504,152,-1,533,532,387,-1,387,532,386,-1,371,366,373,-1,373,366,364,-1,453,130,446,-1,446,130,128,-1,438,530,436,-1,436,530,529,-1,523,399,522,-1,522,399,398,-1,522,398,478,-1,479,521,478,-1,478,521,522,-1,525,495,524,-1,524,495,494,-1,481,171,480,-1,480,171,521,-1,480,521,479,-1,490,526,491,-1,491,526,527,-1,491,527,492,-1,483,409,159,-1,481,482,171,-1,171,482,486,-1,171,486,159,-1,159,486,484,-1,159,484,483,-1,528,489,527,-1,527,489,492,-1,159,409,528,-1,528,409,408,-1,528,408,489,-1,396,395,216,-1,216,215,396,-1,396,215,526,-1,396,526,490,-1,217,216,525,-1,525,216,395,-1,525,395,495,-1,272,274,334,-1,334,274,499,-1,334,499,359,-1,499,274,500,-1,500,274,275,-1,500,275,447,-1,275,273,447,-1,447,273,320,-1,447,320,345,-1,278,279,332,-1,332,279,497,-1,332,497,357,-1,279,280,497,-1,497,280,498,-1,280,271,498,-1,498,271,333,-1,498,333,360,-1,284,282,330,-1,330,282,457,-1,330,457,355,-1,282,281,457,-1,457,281,449,-1,281,283,449,-1,449,283,318,-1,449,318,343,-1,265,263,328,-1,328,263,456,-1,328,456,353,-1,263,262,456,-1,456,262,448,-1,262,264,448,-1,448,264,316,-1,448,316,341,-1,249,247,326,-1,326,247,451,-1,326,451,351,-1,247,246,451,-1,451,246,454,-1,246,248,454,-1,454,248,314,-1,454,314,339,-1,236,234,324,-1,324,234,452,-1,324,452,349,-1,234,233,452,-1,452,233,450,-1,233,235,450,-1,450,235,312,-1,450,312,337,-1,232,230,322,-1,322,230,455,-1,322,455,347,-1,455,230,458,-1,458,230,229,-1,458,229,493,-1,229,231,493,-1,493,231,310,-1,493,310,335,-1,269,267,319,-1,319,267,308,-1,319,308,346,-1,256,270,307,-1,307,270,329,-1,307,329,356,-1,253,251,317,-1,317,251,304,-1,317,304,344,-1,243,254,303,-1,303,254,327,-1,303,327,354,-1,240,238,315,-1,315,238,300,-1,315,300,342,-1,224,241,299,-1,299,241,325,-1,299,325,352,-1,221,219,313,-1,313,219,296,-1,313,296,340,-1,211,222,295,-1,295,222,323,-1,295,323,350,-1,208,206,311,-1,311,206,292,-1,311,292,338,-1,195,209,291,-1,291,209,321,-1,291,321,348,-1,202,200,309,-1,309,200,288,-1,309,288,336,-1,192,203,287,-1,287,203,524,-1,287,524,494,-1,276,496,400,-1,261,276,523,-1,523,276,400,-1,523,400,399,-1,276,277,496,-1,496,277,331,-1,496,331,358,-1,
        ]
    }
}
Shape{
    appearance Appearance {
        material  Material 	{
            diffuseColor 0.6666666666666666 0.6980392156862745 0.7686274509803922
            specularColor 0.3333333333333333 0.34901960784313724 0.3843137254901961
            ambientIntensity 0.6967
            transparency 0.0
            shininess 0.5
        }
    }
    geometry IndexedFaceSet {
        ccw TRUE
        solid FALSE
        coord DEF co Coordinate {
            point [
                -0.9449 -0.8548 0.7668, -1.0236 -0.8548 0.7668, -1.0236 -0.8617 0.7624, -0.9449 -0.8617 0.7624, -1.0236 -0.8672 0.7564, -0.9449 -0.8672 0.7564, -1.0236 -0.871 0.7493, -0.9449 -0.871 0.7493, -1.0236 -0.8728 0.7414, -0.9449 -0.8728 0.7414, -1.0236 -0.8726 0.7333, -0.9449 -0.8726 0.7333, -0.9449 -0.8694 0.7132, -1.0236 -0.8694 0.7132, -1.0236 -0.8674 0.7062, -0.9449 -0.8674 0.7062, -1.0236 -0.8639 0.6998, -0.9449 -0.8639 0.6998, -1.0236 -0.859 0.6944, -0.9449 -0.859 0.6944, -1.0236 -0.853 0.6903, -0.9449 -0.853 0.6903, -1.0236 -0.8462 0.6876, -0.9449 -0.8462 0.6876, -1.0236 -0.839 0.6866, -0.9449 -0.839 0.6866, -1.0236 -0.8318 0.6873, -0.9449 -0.8318 0.6873, -1.0236 -0.8249 0.6896, -0.9449 -0.8249 0.6896, -0.9449 -0.7374 0.7306, -1.0236 -0.7374 0.7306, -0.9449 -0.7309 0.7329, -1.0236 -0.7309 0.7329, -0.9449 -0.724 0.7336, -1.0236 -0.724 0.7336, -1.0236 0.1578 0.7953, -1.0236 0.1578 0.7336, -1.0236 -0.794 0.7953, -0.9449 0.1578 0.7336, -0.9449 0.1578 0.7953, -0.9449 -0.794 0.7953, -0.9449 -0.7215 0.332, -1.0236 -0.7215 0.332, -0.9449 -0.7293 0.333, -1.0236 -0.7293 0.333, -0.9449 -0.8363 0.3604, -1.0236 -0.8363 0.3604, -1.0236 -0.8437 0.3613, -0.9449 -0.8437 0.3613, -1.0236 -0.8512 0.3605, -0.9449 -0.8512 0.3605, -1.0236 -0.8582 0.358, -0.9449 -0.8582 0.358, -1.0236 -0.8644 0.3539, -0.9449 -0.8644 0.3539, -1.0236 -0.8695 0.3484, -0.9449 -0.8695 0.3484, -1.0236 -0.8732 0.3419, -0.9449 -0.8732 0.3419, -0.9449 -0.8785 0.3292, -1.0236 -0.8785 0.3292, -0.9449 0.1578 0.3228, -0.9449 0.1578 0.332, -0.9449 -0.8803 0.3228, -1.0236 0.1578 0.332, -1.0236 0.1578 0.3228, -1.0236 -0.8803 0.3228, -0.9449 0.5978 0.7933, -1.0236 0.5978 0.7933, -1.0236 0.5969 0.8007, -0.9449 0.5969 0.8007, -1.0236 0.5944 0.8076, -0.9449 0.5944 0.8076, -1.0236 0.5902 0.8138, -0.9449 0.5902 0.8138, -1.0236 0.5848 0.8188, -0.9449 0.5848 0.8188, -1.0236 0.5783 0.8224, -0.9449 0.5783 0.8224, -1.0236 0.5712 0.8244, -0.9449 0.5712 0.8244, -0.9449 0.5573 0.0079, -1.0236 0.5573 0.0079, -1.0236 0.5635 0.0036, -0.9449 0.5635 0.0036, -1.0236 0.5706 0.0009, -0.9449 0.5706 0.0009, -1.0236 0.5781 0.0, -0.9449 0.5781 0.0, -0.9449 0.5712 0.0079, -0.9449 0.6009 0.0572, -0.9449 0.5986 0.0639, -0.9449 0.5978 0.0709, -0.9449 0.6223 0.0402, -0.9449 0.6156 0.0425, -0.9449 0.6097 0.0462, -0.9449 0.6047 0.0512, -0.9449 0.8288 0.0, -0.9449 0.8288 0.0394, -0.9449 0.6293 0.0394, -1.0236 0.5978 0.0709, -1.0236 0.5986 0.0639, -1.0236 0.5712 0.0079, -1.0236 0.6009 0.0572, -1.0236 0.6047 0.0512, -1.0236 0.6097 0.0462, -1.0236 0.6156 0.0425, -1.0236 0.8288 0.0394, -1.0236 0.8288 0.0, -1.0236 0.6293 0.0394, -1.0236 0.6223 0.0402, -0.4527 -0.8548 0.7668, -0.5315 -0.8548 0.7668, -0.5315 -0.8617 0.7624, -0.4527 -0.8617 0.7624, -0.5315 -0.8672 0.7564, -0.4527 -0.8672 0.7564, -0.5315 -0.871 0.7493, -0.4527 -0.871 0.7493, -0.5315 -0.8728 0.7414, -0.4527 -0.8728 0.7414, -0.5315 -0.8726 0.7333, -0.4527 -0.8726 0.7333, -0.4527 -0.8694 0.7132, -0.5315 -0.8694 0.7132, -0.5315 -0.8674 0.7062, -0.4527 -0.8674 0.7062, -0.5315 -0.8639 0.6998, -0.4527 -0.8639 0.6998, -0.5315 -0.859 0.6944, -0.4527 -0.859 0.6944, -0.5315 -0.853 0.6903, -0.4527 -0.853 0.6903, -0.5315 -0.8462 0.6876, -0.4527 -0.8462 0.6876, -0.5315 -0.839 0.6866, -0.4527 -0.839 0.6866, -0.5315 -0.8318 0.6873, -0.4527 -0.8318 0.6873, -0.5315 -0.8249 0.6896, -0.4527 -0.8249 0.6896, -0.4527 -0.7374 0.7306, -0.5315 -0.7374 0.7306, -0.4527 -0.7309 0.7329, -0.5315 -0.7309 0.7329, -0.4527 -0.724 0.7336, -0.5315 -0.724 0.7336, -0.5315 0.1578 0.7953, -0.5315 0.1578 0.7336, -0.5315 -0.794 0.7953, -0.4527 0.1578 0.7336, -0.4527 0.1578 0.7953, -0.4527 -0.794 0.7953, -0.4527 -0.7215 0.332, -0.5315 -0.7215 0.332, -0.4527 -0.7293 0.333, -0.5315 -0.7293 0.333, -0.4527 -0.8363 0.3604, -0.5315 -0.8363 0.3604, -0.5315 -0.8437 0.3613, -0.4527 -0.8437 0.3613, -0.5315 -0.8512 0.3605, -0.4527 -0.8512 0.3605, -0.5315 -0.8582 0.358, -0.4527 -0.8582 0.358, -0.5315 -0.8644 0.3539, -0.4527 -0.8644 0.3539, -0.5315 -0.8695 0.3484, -0.4527 -0.8695 0.3484, -0.5315 -0.8732 0.3419, -0.4527 -0.8732 0.3419, -0.4527 -0.8785 0.3292, -0.5315 -0.8785 0.3292, -0.4527 0.1578 0.3228, -0.4527 0.1578 0.332, -0.4527 -0.8803 0.3228, -0.5315 0.1578 0.332, -0.5315 0.1578 0.3228, -0.5315 -0.8803 0.3228, -0.4527 0.5978 0.7933, -0.5315 0.5978 0.7933, -0.5315 0.5969 0.8007, -0.4527 0.5969 0.8007, -0.5315 0.5944 0.8076, -0.4527 0.5944 0.8076, -0.5315 0.5902 0.8138, -0.4527 0.5902 0.8138, -0.5315 0.5848 0.8188, -0.4527 0.5848 0.8188, -0.5315 0.5783 0.8224, -0.4527 0.5783 0.8224, -0.5315 0.5712 0.8244, -0.4527 0.5712 0.8244, -0.4527 0.5573 0.0079, -0.5315 0.5573 0.0079, -0.5315 0.5635 0.0036, -0.4527 0.5635 0.0036, -0.5315 0.5706 0.0009, -0.4527 0.5706 0.0009, -0.5315 0.5781 0.0, -0.4527 0.5781 0.0, -0.4527 0.5712 0.0079, -0.4527 0.6009 0.0572, -0.4527 0.5986 0.0639, -0.4527 0.5978 0.0709, -0.4527 0.6223 0.0402, -0.4527 0.6156 0.0425, -0.4527 0.6097 0.0462, -0.4527 0.6047 0.0512, -0.4527 0.8288 0.0, -0.4527 0.8288 0.0394, -0.4527 0.6293 0.0394, -0.5315 0.5978 0.0709, -0.5315 0.5986 0.0639, -0.5315 0.5712 0.0079, -0.5315 0.6009 0.0572, -0.5315 0.6047 0.0512, -0.5315 0.6097 0.0462, -0.5315 0.6156 0.0425, -0.5315 0.8288 0.0394, -0.5315 0.8288 0.0, -0.5315 0.6293 0.0394, -0.5315 0.6223 0.0402, 0.0394 -0.8548 0.7668, -0.0394 -0.8548 0.7668, -0.0394 -0.8617 0.7624, 0.0394 -0.8617 0.7624, -0.0394 -0.8672 0.7564, 0.0394 -0.8672 0.7564, -0.0394 -0.871 0.7493, 0.0394 -0.871 0.7493, -0.0394 -0.8728 0.7414, 0.0394 -0.8728 0.7414, -0.0394 -0.8726 0.7333, 0.0394 -0.8726 0.7333, 0.0394 -0.8694 0.7132, -0.0394 -0.8694 0.7132, -0.0394 -0.8674 0.7062, 0.0394 -0.8674 0.7062, -0.0394 -0.8639 0.6998, 0.0394 -0.8639 0.6998, -0.0394 -0.859 0.6944, 0.0394 -0.859 0.6944, -0.0394 -0.853 0.6903, 0.0394 -0.853 0.6903, -0.0394 -0.8462 0.6876, 0.0394 -0.8462 0.6876, -0.0394 -0.839 0.6866, 0.0394 -0.839 0.6866, -0.0394 -0.8318 0.6873, 0.0394 -0.8318 0.6873, -0.0394 -0.8249 0.6896, 0.0394 -0.8249 0.6896, 0.0394 -0.7374 0.7306, -0.0394 -0.7374 0.7306, 0.0394 -0.7309 0.7329, -0.0394 -0.7309 0.7329, 0.0394 -0.724 0.7336, -0.0394 -0.724 0.7336, -0.0394 0.1578 0.7953, -0.0394 0.1578 0.7336, -0.0394 -0.794 0.7953, 0.0394 0.1578 0.7336, 0.0394 0.1578 0.7953, 0.0394 -0.794 0.7953, 0.0394 -0.7215 0.332, -0.0394 -0.7215 0.332, 0.0394 -0.7293 0.333, -0.0394 -0.7293 0.333, 0.0394 -0.8363 0.3604, -0.0394 -0.8363 0.3604, -0.0394 -0.8437 0.3613, 0.0394 -0.8437 0.3613, -0.0394 -0.8512 0.3605, 0.0394 -0.8512 0.3605, -0.0394 -0.8582 0.358, 0.0394 -0.8582 0.358, -0.0394 -0.8644 0.3539, 0.0394 -0.8644 0.3539, -0.0394 -0.8695 0.3484, 0.0394 -0.8695 0.3484, -0.0394 -0.8732 0.3419, 0.0394 -0.8732 0.3419, 0.0394 -0.8785 0.3292, -0.0394 -0.8785 0.3292, 0.0394 0.1578 0.3228, 0.0394 0.1578 0.332, 0.0394 -0.8803 0.3228, -0.0394 0.1578 0.332, -0.0394 0.1578 0.3228, -0.0394 -0.8803 0.3228, 0.0394 0.5978 0.7933, -0.0394 0.5978 0.7933, -0.0394 0.5969 0.8007, 0.0394 0.5969 0.8007, -0.0394 0.5944 0.8076, 0.0394 0.5944 0.8076, -0.0394 0.5902 0.8138, 0.0394 0.5902 0.8138, -0.0394 0.5848 0.8188, 0.0394 0.5848 0.8188, -0.0394 0.5783 0.8224, 0.0394 0.5783 0.8224, -0.0394 0.5712 0.8244, 0.0394 0.5712 0.8244, 0.0394 0.5573 0.0079, -0.0394 0.5573 0.0079, -0.0394 0.5635 0.0036, 0.0394 0.5635 0.0036, -0.0394 0.5706 0.0009, 0.0394 0.5706 0.0009, -0.0394 0.5781 0.0, 0.0394 0.5781 0.0, 0.0394 0.5712 0.0079, 0.0394 0.6009 0.0572, 0.0394 0.5986 0.0639, 0.0394 0.5978 0.0709, 0.0394 0.6223 0.0402, 0.0394 0.6156 0.0425, 0.0394 0.6097 0.0462, 0.0394 0.6047 0.0512, 0.0394 0.8288 0.0, 0.0394 0.8288 0.0394, 0.0394 0.6293 0.0394, -0.0394 0.5978 0.0709, -0.0394 0.5986 0.0639, -0.0394 0.5712 0.0079, -0.0394 0.6009 0.0572, -0.0394 0.6047 0.0512, -0.0394 0.6097 0.0462, -0.0394 0.6156 0.0425, -0.0394 0.8288 0.0394, -0.0394 0.8288 0.0, -0.0394 0.6293 0.0394, -0.0394 0.6223 0.0402, 0.5315 -0.8548 0.7668, 0.4528 -0.8548 0.7668, 0.4528 -0.8617 0.7624, 0.5315 -0.8617 0.7624, 0.4528 -0.8672 0.7564, 0.5315 -0.8672 0.7564, 0.4528 -0.871 0.7493, 0.5315 -0.871 0.7493, 0.4528 -0.8728 0.7414, 0.5315 -0.8728 0.7414, 0.4528 -0.8726 0.7333, 0.5315 -0.8726 0.7333, 0.5315 -0.8694 0.7132, 0.4528 -0.8694 0.7132, 0.4528 -0.8674 0.7062, 0.5315 -0.8674 0.7062, 0.4528 -0.8639 0.6998, 0.5315 -0.8639 0.6998, 0.4528 -0.859 0.6944, 0.5315 -0.859 0.6944, 0.4528 -0.853 0.6903, 0.5315 -0.853 0.6903, 0.4528 -0.8462 0.6876, 0.5315 -0.8462 0.6876, 0.4528 -0.839 0.6866, 0.5315 -0.839 0.6866, 0.4528 -0.8318 0.6873, 0.5315 -0.8318 0.6873, 0.4528 -0.8249 0.6896, 0.5315 -0.8249 0.6896, 0.5315 -0.7374 0.7306, 0.4528 -0.7374 0.7306, 0.5315 -0.7309 0.7329, 0.4528 -0.7309 0.7329, 0.5315 -0.724 0.7336, 0.4528 -0.724 0.7336, 0.4528 0.1578 0.7953, 0.4528 0.1578 0.7336, 0.4528 -0.794 0.7953, 0.5315 0.1578 0.7336, 0.5315 0.1578 0.7953, 0.5315 -0.794 0.7953, 0.5315 -0.7215 0.332, 0.4528 -0.7215 0.332, 0.5315 -0.7293 0.333, 0.4528 -0.7293 0.333, 0.5315 -0.8363 0.3604, 0.4528 -0.8363 0.3604, 0.4528 -0.8437 0.3613, 0.5315 -0.8437 0.3613, 0.4528 -0.8512 0.3605, 0.5315 -0.8512 0.3605, 0.4528 -0.8582 0.358, 0.5315 -0.8582 0.358, 0.4528 -0.8644 0.3539, 0.5315 -0.8644 0.3539, 0.4528 -0.8695 0.3484, 0.5315 -0.8695 0.3484, 0.4528 -0.8732 0.3419, 0.5315 -0.8732 0.3419, 0.5315 -0.8785 0.3292, 0.4528 -0.8785 0.3292, 0.5315 0.1578 0.3228, 0.5315 0.1578 0.332, 0.5315 -0.8803 0.3228, 0.4528 0.1578 0.332, 0.4528 0.1578 0.3228, 0.4528 -0.8803 0.3228, 0.5315 0.5978 0.7933, 0.4528 0.5978 0.7933, 0.4528 0.5969 0.8007, 0.5315 0.5969 0.8007, 0.4528 0.5944 0.8076, 0.5315 0.5944 0.8076, 0.4528 0.5902 0.8138, 0.5315 0.5902 0.8138, 0.4528 0.5848 0.8188, 0.5315 0.5848 0.8188, 0.4528 0.5783 0.8224, 0.5315 0.5783 0.8224, 0.4528 0.5712 0.8244, 0.5315 0.5712 0.8244, 0.5315 0.5573 0.0079, 0.4528 0.5573 0.0079, 0.4528 0.5635 0.0036, 0.5315 0.5635 0.0036, 0.4528 0.5706 0.0009, 0.5315 0.5706 0.0009, 0.4528 0.5781 0.0, 0.5315 0.5781 0.0, 0.5315 0.5712 0.0079, 0.5315 0.6009 0.0572, 0.5315 0.5986 0.0639, 0.5315 0.5978 0.0709, 0.5315 0.6223 0.0402, 0.5315 0.6156 0.0425, 0.5315 0.6097 0.0462, 0.5315 0.6047 0.0512, 0.5315 0.8288 0.0, 0.5315 0.8288 0.0394, 0.5315 0.6293 0.0394, 0.4528 0.5978 0.0709, 0.4528 0.5986 0.0639, 0.4528 0.5712 0.0079, 0.4528 0.6009 0.0572, 0.4528 0.6047 0.0512, 0.4528 0.6097 0.0462, 0.4528 0.6156 0.0425, 0.4528 0.8288 0.0394, 0.4528 0.8288 0.0, 0.4528 0.6293 0.0394, 0.4528 0.6223 0.0402, 1.0236 -0.8548 0.7668, 0.9449 -0.8548 0.7668, 0.9449 -0.8617 0.7624, 1.0236 -0.8617 0.7624, 0.9449 -0.8672 0.7564, 1.0236 -0.8672 0.7564, 0.9449 -0.871 0.7493, 1.0236 -0.871 0.7493, 0.9449 -0.8728 0.7414, 1.0236 -0.8728 0.7414, 0.9449 -0.8726 0.7333, 1.0236 -0.8726 0.7333, 1.0236 -0.8694 0.7132, 0.9449 -0.8694 0.7132, 0.9449 -0.8674 0.7062, 1.0236 -0.8674 0.7062, 0.9449 -0.8639 0.6998, 1.0236 -0.8639 0.6998, 0.9449 -0.859 0.6944, 1.0236 -0.859 0.6944, 0.9449 -0.853 0.6903, 1.0236 -0.853 0.6903, 0.9449 -0.8462 0.6876, 1.0236 -0.8462 0.6876, 0.9449 -0.839 0.6866, 1.0236 -0.839 0.6866, 0.9449 -0.8318 0.6873, 1.0236 -0.8318 0.6873, 0.9449 -0.8249 0.6896, 1.0236 -0.8249 0.6896, 1.0236 -0.7374 0.7306, 0.9449 -0.7374 0.7306, 1.0236 -0.7309 0.7329, 0.9449 -0.7309 0.7329, 1.0236 -0.724 0.7336, 0.9449 -0.724 0.7336, 0.9449 0.1578 0.7953, 0.9449 0.1578 0.7336, 0.9449 -0.794 0.7953, 1.0236 0.1578 0.7336, 1.0236 0.1578 0.7953, 1.0236 -0.794 0.7953, 1.0236 -0.7215 0.332, 0.9449 -0.7215 0.332, 1.0236 -0.7293 0.333, 0.9449 -0.7293 0.333, 1.0236 -0.8363 0.3604, 0.9449 -0.8363 0.3604, 0.9449 -0.8437 0.3613, 1.0236 -0.8437 0.3613, 0.9449 -0.8512 0.3605, 1.0236 -0.8512 0.3605, 0.9449 -0.8582 0.358, 1.0236 -0.8582 0.358, 0.9449 -0.8644 0.3539, 1.0236 -0.8644 0.3539, 0.9449 -0.8695 0.3484, 1.0236 -0.8695 0.3484, 0.9449 -0.8732 0.3419, 1.0236 -0.8732 0.3419, 1.0236 -0.8785 0.3292, 0.9449 -0.8785 0.3292, 1.0236 0.1578 0.3228, 1.0236 0.1578 0.332, 1.0236 -0.8803 0.3228, 0.9449 0.1578 0.332, 0.9449 0.1578 0.3228, 0.9449 -0.8803 0.3228, 1.0236 0.5978 0.7933, 0.9449 0.5978 0.7933, 0.9449 0.5969 0.8007, 1.0236 0.5969 0.8007, 0.9449 0.5944 0.8076, 1.0236 0.5944 0.8076, 0.9449 0.5902 0.8138, 1.0236 0.5902 0.8138, 0.9449 0.5848 0.8188, 1.0236 0.5848 0.8188, 0.9449 0.5783 0.8224, 1.0236 0.5783 0.8224, 0.9449 0.5712 0.8244, 1.0236 0.5712 0.8244, 1.0236 0.5573 0.0079, 0.9449 0.5573 0.0079, 0.9449 0.5635 0.0036, 1.0236 0.5635 0.0036, 0.9449 0.5706 0.0009, 1.0236 0.5706 0.0009, 0.9449 0.5781 0.0, 1.0236 0.5781 0.0, 1.0236 0.5712 0.0079, 1.0236 0.6009 0.0572, 1.0236 0.5986 0.0639, 1.0236 0.5978 0.0709, 1.0236 0.6223 0.0402, 1.0236 0.6156 0.0425, 1.0236 0.6097 0.0462, 1.0236 0.6047 0.0512, 1.0236 0.8288 0.0, 1.0236 0.8288 0.0394, 1.0236 0.6293 0.0394, 0.9449 0.5978 0.0709, 0.9449 0.5986 0.0639, 0.9449 0.5712 0.0079, 0.9449 0.6009 0.0572, 0.9449 0.6047 0.0512, 0.9449 0.6097 0.0462, 0.9449 0.6156 0.0425, 0.9449 0.8288 0.0394, 0.9449 0.8288 0.0, 0.9449 0.6293 0.0394, 0.9449 0.6223 0.0402, 1.5158 -0.8548 0.7668, 1.437 -0.8548 0.7668, 1.437 -0.8617 0.7624, 1.5158 -0.8617 0.7624, 1.437 -0.8672 0.7564, 1.5158 -0.8672 0.7564, 1.437 -0.871 0.7493, 1.5158 -0.871 0.7493, 1.437 -0.8728 0.7414, 1.5158 -0.8728 0.7414, 1.437 -0.8726 0.7333, 1.5158 -0.8726 0.7333, 1.5158 -0.8694 0.7132, 1.437 -0.8694 0.7132, 1.437 -0.8674 0.7062, 1.5158 -0.8674 0.7062, 1.437 -0.8639 0.6998, 1.5158 -0.8639 0.6998, 1.437 -0.859 0.6944, 1.5158 -0.859 0.6944, 1.437 -0.853 0.6903, 1.5158 -0.853 0.6903, 1.437 -0.8462 0.6876, 1.5158 -0.8462 0.6876, 1.437 -0.839 0.6866, 1.5158 -0.839 0.6866, 1.437 -0.8318 0.6873, 1.5158 -0.8318 0.6873, 1.437 -0.8249 0.6896, 1.5158 -0.8249 0.6896, 1.5158 -0.7374 0.7306, 1.437 -0.7374 0.7306, 1.5158 -0.7309 0.7329, 1.437 -0.7309 0.7329, 1.5158 -0.724 0.7336, 1.437 -0.724 0.7336, 1.437 0.1578 0.7953, 1.437 0.1578 0.7336, 1.437 -0.794 0.7953, 1.5158 0.1578 0.7336, 1.5158 0.1578 0.7953, 1.5158 -0.794 0.7953, 1.5158 -0.7215 0.332, 1.437 -0.7215 0.332, 1.5158 -0.7293 0.333, 1.437 -0.7293 0.333, 1.5158 -0.8363 0.3604, 1.437 -0.8363 0.3604, 1.437 -0.8437 0.3613, 1.5158 -0.8437 0.3613, 1.437 -0.8512 0.3605, 1.5158 -0.8512 0.3605, 1.437 -0.8582 0.358, 1.5158 -0.8582 0.358, 1.437 -0.8644 0.3539, 1.5158 -0.8644 0.3539, 1.437 -0.8695 0.3484, 1.5158 -0.8695 0.3484, 1.437 -0.8732 0.3419, 1.5158 -0.8732 0.3419, 1.5158 -0.8785 0.3292, 1.437 -0.8785 0.3292, 1.5158 0.1578 0.3228, 1.5158 0.1578 0.332, 1.5158 -0.8803 0.3228, 1.437 0.1578 0.332, 1.437 0.1578 0.3228, 1.437 -0.8803 0.3228, 1.5158 0.5978 0.7933, 1.437 0.5978 0.7933, 1.437 0.5969 0.8007, 1.5158 0.5969 0.8007, 1.437 0.5944 0.8076, 1.5158 0.5944 0.8076, 1.437 0.5902 0.8138, 1.5158 0.5902 0.8138, 1.437 0.5848 0.8188, 1.5158 0.5848 0.8188, 1.437 0.5783 0.8224, 1.5158 0.5783 0.8224, 1.437 0.5712 0.8244, 1.5158 0.5712 0.8244, 1.5158 0.5573 0.0079, 1.437 0.5573 0.0079, 1.437 0.5635 0.0036, 1.5158 0.5635 0.0036, 1.437 0.5706 0.0009, 1.5158 0.5706 0.0009, 1.437 0.5781 0.0, 1.5158 0.5781 0.0, 1.5158 0.5712 0.0079, 1.5158 0.6009 0.0572, 1.5158 0.5986 0.0639, 1.5158 0.5978 0.0709, 1.5158 0.6223 0.0402, 1.5158 0.6156 0.0425, 1.5158 0.6097 0.0462, 1.5158 0.6047 0.0512, 1.5158 0.8288 0.0, 1.5158 0.8288 0.0394, 1.5158 0.6293 0.0394, 1.437 0.5978 0.0709, 1.437 0.5986 0.0639, 1.437 0.5712 0.0079, 1.437 0.6009 0.0572, 1.437 0.6047 0.0512, 1.437 0.6097 0.0462, 1.437 0.6156 0.0425, 1.437 0.8288 0.0394, 1.437 0.8288 0.0, 1.437 0.6293 0.0394, 1.437 0.6223 0.0402
            ]
        }
        coordIndex [
            0,1,2,-1,0,2,3,-1,3,2,4,-1,3,4,5,-1,5,4,6,-1,5,6,7,-1,7,6,8,-1,7,8,9,-1,9,8,10,-1,9,10,11,-1,12,11,13,-1,13,11,10,-1,12,13,14,-1,12,14,15,-1,15,14,16,-1,15,16,17,-1,17,16,18,-1,17,18,19,-1,19,18,20,-1,19,20,21,-1,21,20,22,-1,21,22,23,-1,23,22,24,-1,23,24,25,-1,25,24,26,-1,25,26,27,-1,27,26,28,-1,27,28,29,-1,30,29,31,-1,31,29,28,-1,30,31,32,-1,32,31,33,-1,32,33,34,-1,34,33,35,-1,36,37,38,-1,38,37,35,-1,35,33,38,-1,38,33,31,-1,38,31,1,-1,1,31,28,-1,26,18,16,-1,8,6,28,-1,24,22,26,-1,26,22,20,-1,26,20,18,-1,16,14,26,-1,26,14,13,-1,26,13,28,-1,28,13,10,-1,28,10,8,-1,6,4,28,-1,28,4,2,-1,28,2,1,-1,39,40,34,-1,34,40,41,-1,34,41,32,-1,32,41,30,-1,30,41,29,-1,29,41,0,-1,29,0,3,-1,17,19,27,-1,3,5,29,-1,29,5,7,-1,29,7,9,-1,9,11,29,-1,29,11,12,-1,29,12,27,-1,27,12,15,-1,27,15,17,-1,19,21,27,-1,27,21,23,-1,27,23,25,-1,38,1,41,-1,41,1,0,-1,34,35,39,-1,39,35,37,-1,42,43,44,-1,44,43,45,-1,46,44,47,-1,47,44,45,-1,46,47,48,-1,46,48,49,-1,49,48,50,-1,49,50,51,-1,51,50,52,-1,51,52,53,-1,53,52,54,-1,53,54,55,-1,55,54,56,-1,55,56,57,-1,57,56,58,-1,57,58,59,-1,60,59,61,-1,61,59,58,-1,62,63,42,-1,62,42,64,-1,64,42,44,-1,64,44,60,-1,60,44,46,-1,60,46,59,-1,53,46,51,-1,51,46,49,-1,53,55,46,-1,46,55,57,-1,46,57,59,-1,65,66,43,-1,43,66,67,-1,43,67,45,-1,45,67,61,-1,45,61,47,-1,61,58,47,-1,47,58,56,-1,47,56,54,-1,54,52,47,-1,47,52,50,-1,47,50,48,-1,43,42,65,-1,65,42,63,-1,61,67,60,-1,60,67,64,-1,68,69,70,-1,68,70,71,-1,71,70,72,-1,71,72,73,-1,73,72,74,-1,73,74,75,-1,75,74,76,-1,75,76,77,-1,77,76,78,-1,77,78,79,-1,79,78,80,-1,79,80,81,-1,82,83,84,-1,82,84,85,-1,85,84,86,-1,85,86,87,-1,87,86,88,-1,87,88,89,-1,82,85,90,-1,90,85,87,-1,90,87,89,-1,91,92,90,-1,90,92,93,-1,90,93,81,-1,81,93,68,-1,81,68,79,-1,94,95,89,-1,89,95,96,-1,89,96,90,-1,90,96,97,-1,90,97,91,-1,71,73,75,-1,98,99,89,-1,89,99,100,-1,89,100,94,-1,71,75,68,-1,68,75,77,-1,68,77,79,-1,101,102,103,-1,88,86,103,-1,103,86,84,-1,103,84,83,-1,101,103,69,-1,69,103,80,-1,69,80,78,-1,102,104,103,-1,103,104,105,-1,103,105,88,-1,88,105,106,-1,88,106,107,-1,78,76,69,-1,69,76,74,-1,69,74,70,-1,70,74,72,-1,108,109,110,-1,110,109,88,-1,110,88,111,-1,111,88,107,-1,98,89,109,-1,109,89,88,-1,99,98,108,-1,108,98,109,-1,100,99,110,-1,110,99,108,-1,100,110,94,-1,94,110,111,-1,94,111,95,-1,95,111,107,-1,95,107,96,-1,96,107,106,-1,96,106,97,-1,97,106,105,-1,97,105,91,-1,91,105,104,-1,91,104,92,-1,92,104,102,-1,92,102,93,-1,93,102,101,-1,68,93,69,-1,69,93,101,-1,112,113,114,-1,112,114,115,-1,115,114,116,-1,115,116,117,-1,117,116,118,-1,117,118,119,-1,119,118,120,-1,119,120,121,-1,121,120,122,-1,121,122,123,-1,124,123,125,-1,125,123,122,-1,124,125,126,-1,124,126,127,-1,127,126,128,-1,127,128,129,-1,129,128,130,-1,129,130,131,-1,131,130,132,-1,131,132,133,-1,133,132,134,-1,133,134,135,-1,135,134,136,-1,135,136,137,-1,137,136,138,-1,137,138,139,-1,139,138,140,-1,139,140,141,-1,142,141,143,-1,143,141,140,-1,142,143,144,-1,144,143,145,-1,144,145,146,-1,146,145,147,-1,148,149,150,-1,150,149,147,-1,147,145,150,-1,150,145,143,-1,150,143,113,-1,113,143,140,-1,138,130,128,-1,120,118,140,-1,136,134,138,-1,138,134,132,-1,138,132,130,-1,128,126,138,-1,138,126,125,-1,138,125,140,-1,140,125,122,-1,140,122,120,-1,118,116,140,-1,140,116,114,-1,140,114,113,-1,151,152,146,-1,146,152,153,-1,146,153,144,-1,144,153,142,-1,142,153,141,-1,141,153,112,-1,141,112,115,-1,129,131,139,-1,115,117,141,-1,141,117,119,-1,141,119,121,-1,121,123,141,-1,141,123,124,-1,141,124,139,-1,139,124,127,-1,139,127,129,-1,131,133,139,-1,139,133,135,-1,139,135,137,-1,150,113,153,-1,153,113,112,-1,146,147,151,-1,151,147,149,-1,154,155,156,-1,156,155,157,-1,158,156,159,-1,159,156,157,-1,158,159,160,-1,158,160,161,-1,161,160,162,-1,161,162,163,-1,163,162,164,-1,163,164,165,-1,165,164,166,-1,165,166,167,-1,167,166,168,-1,167,168,169,-1,169,168,170,-1,169,170,171,-1,172,171,173,-1,173,171,170,-1,174,175,154,-1,174,154,176,-1,176,154,156,-1,176,156,172,-1,172,156,158,-1,172,158,171,-1,165,158,163,-1,163,158,161,-1,165,167,158,-1,158,167,169,-1,158,169,171,-1,177,178,155,-1,155,178,179,-1,155,179,157,-1,157,179,173,-1,157,173,159,-1,173,170,159,-1,159,170,168,-1,159,168,166,-1,166,164,159,-1,159,164,162,-1,159,162,160,-1,155,154,177,-1,177,154,175,-1,173,179,172,-1,172,179,176,-1,180,181,182,-1,180,182,183,-1,183,182,184,-1,183,184,185,-1,185,184,186,-1,185,186,187,-1,187,186,188,-1,187,188,189,-1,189,188,190,-1,189,190,191,-1,191,190,192,-1,191,192,193,-1,194,195,196,-1,194,196,197,-1,197,196,198,-1,197,198,199,-1,199,198,200,-1,199,200,201,-1,194,197,202,-1,202,197,199,-1,202,199,201,-1,203,204,202,-1,202,204,205,-1,202,205,193,-1,193,205,180,-1,193,180,191,-1,206,207,201,-1,201,207,208,-1,201,208,202,-1,202,208,209,-1,202,209,203,-1,183,185,187,-1,210,211,201,-1,201,211,212,-1,201,212,206,-1,183,187,180,-1,180,187,189,-1,180,189,191,-1,213,214,215,-1,200,198,215,-1,215,198,196,-1,215,196,195,-1,213,215,181,-1,181,215,192,-1,181,192,190,-1,214,216,215,-1,215,216,217,-1,215,217,200,-1,200,217,218,-1,200,218,219,-1,190,188,181,-1,181,188,186,-1,181,186,182,-1,182,186,184,-1,220,221,222,-1,222,221,200,-1,222,200,223,-1,223,200,219,-1,210,201,221,-1,221,201,200,-1,211,210,220,-1,220,210,221,-1,212,211,222,-1,222,211,220,-1,212,222,206,-1,206,222,223,-1,206,223,207,-1,207,223,219,-1,207,219,208,-1,208,219,218,-1,208,218,209,-1,209,218,217,-1,209,217,203,-1,203,217,216,-1,203,216,204,-1,204,216,214,-1,204,214,205,-1,205,214,213,-1,180,205,181,-1,181,205,213,-1,224,225,226,-1,224,226,227,-1,227,226,228,-1,227,228,229,-1,229,228,230,-1,229,230,231,-1,231,230,232,-1,231,232,233,-1,233,232,234,-1,233,234,235,-1,236,235,237,-1,237,235,234,-1,236,237,238,-1,236,238,239,-1,239,238,240,-1,239,240,241,-1,241,240,242,-1,241,242,243,-1,243,242,244,-1,243,244,245,-1,245,244,246,-1,245,246,247,-1,247,246,248,-1,247,248,249,-1,249,248,250,-1,249,250,251,-1,251,250,252,-1,251,252,253,-1,254,253,255,-1,255,253,252,-1,254,255,256,-1,256,255,257,-1,256,257,258,-1,258,257,259,-1,260,261,262,-1,262,261,259,-1,259,257,262,-1,262,257,255,-1,262,255,225,-1,225,255,252,-1,250,242,240,-1,232,230,252,-1,248,246,250,-1,250,246,244,-1,250,244,242,-1,240,238,250,-1,250,238,237,-1,250,237,252,-1,252,237,234,-1,252,234,232,-1,230,228,252,-1,252,228,226,-1,252,226,225,-1,263,264,258,-1,258,264,265,-1,258,265,256,-1,256,265,254,-1,254,265,253,-1,253,265,224,-1,253,224,227,-1,241,243,251,-1,227,229,253,-1,253,229,231,-1,253,231,233,-1,233,235,253,-1,253,235,236,-1,253,236,251,-1,251,236,239,-1,251,239,241,-1,243,245,251,-1,251,245,247,-1,251,247,249,-1,262,225,265,-1,265,225,224,-1,258,259,263,-1,263,259,261,-1,266,267,268,-1,268,267,269,-1,270,268,271,-1,271,268,269,-1,270,271,272,-1,270,272,273,-1,273,272,274,-1,273,274,275,-1,275,274,276,-1,275,276,277,-1,277,276,278,-1,277,278,279,-1,279,278,280,-1,279,280,281,-1,281,280,282,-1,281,282,283,-1,284,283,285,-1,285,283,282,-1,286,287,266,-1,286,266,288,-1,288,266,268,-1,288,268,284,-1,284,268,270,-1,284,270,283,-1,277,270,275,-1,275,270,273,-1,277,279,270,-1,270,279,281,-1,270,281,283,-1,289,290,267,-1,267,290,291,-1,267,291,269,-1,269,291,285,-1,269,285,271,-1,285,282,271,-1,271,282,280,-1,271,280,278,-1,278,276,271,-1,271,276,274,-1,271,274,272,-1,267,266,289,-1,289,266,287,-1,285,291,284,-1,284,291,288,-1,292,293,294,-1,292,294,295,-1,295,294,296,-1,295,296,297,-1,297,296,298,-1,297,298,299,-1,299,298,300,-1,299,300,301,-1,301,300,302,-1,301,302,303,-1,303,302,304,-1,303,304,305,-1,306,307,308,-1,306,308,309,-1,309,308,310,-1,309,310,311,-1,311,310,312,-1,311,312,313,-1,306,309,314,-1,314,309,311,-1,314,311,313,-1,315,316,314,-1,314,316,317,-1,314,317,305,-1,305,317,292,-1,305,292,303,-1,318,319,313,-1,313,319,320,-1,313,320,314,-1,314,320,321,-1,314,321,315,-1,295,297,299,-1,322,323,313,-1,313,323,324,-1,313,324,318,-1,295,299,292,-1,292,299,301,-1,292,301,303,-1,325,326,327,-1,312,310,327,-1,327,310,308,-1,327,308,307,-1,325,327,293,-1,293,327,304,-1,293,304,302,-1,326,328,327,-1,327,328,329,-1,327,329,312,-1,312,329,330,-1,312,330,331,-1,302,300,293,-1,293,300,298,-1,293,298,294,-1,294,298,296,-1,332,333,334,-1,334,333,312,-1,334,312,335,-1,335,312,331,-1,322,313,333,-1,333,313,312,-1,323,322,332,-1,332,322,333,-1,324,323,334,-1,334,323,332,-1,324,334,318,-1,318,334,335,-1,318,335,319,-1,319,335,331,-1,319,331,320,-1,320,331,330,-1,320,330,321,-1,321,330,329,-1,321,329,315,-1,315,329,328,-1,315,328,316,-1,316,328,326,-1,316,326,317,-1,317,326,325,-1,292,317,293,-1,293,317,325,-1,336,337,338,-1,336,338,339,-1,339,338,340,-1,339,340,341,-1,341,340,342,-1,341,342,343,-1,343,342,344,-1,343,344,345,-1,345,344,346,-1,345,346,347,-1,348,347,349,-1,349,347,346,-1,348,349,350,-1,348,350,351,-1,351,350,352,-1,351,352,353,-1,353,352,354,-1,353,354,355,-1,355,354,356,-1,355,356,357,-1,357,356,358,-1,357,358,359,-1,359,358,360,-1,359,360,361,-1,361,360,362,-1,361,362,363,-1,363,362,364,-1,363,364,365,-1,366,365,367,-1,367,365,364,-1,366,367,368,-1,368,367,369,-1,368,369,370,-1,370,369,371,-1,372,373,374,-1,374,373,371,-1,371,369,374,-1,374,369,367,-1,374,367,337,-1,337,367,364,-1,362,354,352,-1,344,342,364,-1,360,358,362,-1,362,358,356,-1,362,356,354,-1,352,350,362,-1,362,350,349,-1,362,349,364,-1,364,349,346,-1,364,346,344,-1,342,340,364,-1,364,340,338,-1,364,338,337,-1,375,376,370,-1,370,376,377,-1,370,377,368,-1,368,377,366,-1,366,377,365,-1,365,377,336,-1,365,336,339,-1,353,355,363,-1,339,341,365,-1,365,341,343,-1,365,343,345,-1,345,347,365,-1,365,347,348,-1,365,348,363,-1,363,348,351,-1,363,351,353,-1,355,357,363,-1,363,357,359,-1,363,359,361,-1,374,337,377,-1,377,337,336,-1,370,371,375,-1,375,371,373,-1,378,379,380,-1,380,379,381,-1,382,380,383,-1,383,380,381,-1,382,383,384,-1,382,384,385,-1,385,384,386,-1,385,386,387,-1,387,386,388,-1,387,388,389,-1,389,388,390,-1,389,390,391,-1,391,390,392,-1,391,392,393,-1,393,392,394,-1,393,394,395,-1,396,395,397,-1,397,395,394,-1,398,399,378,-1,398,378,400,-1,400,378,380,-1,400,380,396,-1,396,380,382,-1,396,382,395,-1,389,382,387,-1,387,382,385,-1,389,391,382,-1,382,391,393,-1,382,393,395,-1,401,402,379,-1,379,402,403,-1,379,403,381,-1,381,403,397,-1,381,397,383,-1,397,394,383,-1,383,394,392,-1,383,392,390,-1,390,388,383,-1,383,388,386,-1,383,386,384,-1,379,378,401,-1,401,378,399,-1,397,403,396,-1,396,403,400,-1,404,405,406,-1,404,406,407,-1,407,406,408,-1,407,408,409,-1,409,408,410,-1,409,410,411,-1,411,410,412,-1,411,412,413,-1,413,412,414,-1,413,414,415,-1,415,414,416,-1,415,416,417,-1,418,419,420,-1,418,420,421,-1,421,420,422,-1,421,422,423,-1,423,422,424,-1,423,424,425,-1,418,421,426,-1,426,421,423,-1,426,423,425,-1,427,428,426,-1,426,428,429,-1,426,429,417,-1,417,429,404,-1,417,404,415,-1,430,431,425,-1,425,431,432,-1,425,432,426,-1,426,432,433,-1,426,433,427,-1,407,409,411,-1,434,435,425,-1,425,435,436,-1,425,436,430,-1,407,411,404,-1,404,411,413,-1,404,413,415,-1,437,438,439,-1,424,422,439,-1,439,422,420,-1,439,420,419,-1,437,439,405,-1,405,439,416,-1,405,416,414,-1,438,440,439,-1,439,440,441,-1,439,441,424,-1,424,441,442,-1,424,442,443,-1,414,412,405,-1,405,412,410,-1,405,410,406,-1,406,410,408,-1,444,445,446,-1,446,445,424,-1,446,424,447,-1,447,424,443,-1,434,425,445,-1,445,425,424,-1,435,434,444,-1,444,434,445,-1,436,435,446,-1,446,435,444,-1,436,446,430,-1,430,446,447,-1,430,447,431,-1,431,447,443,-1,431,443,432,-1,432,443,442,-1,432,442,433,-1,433,442,441,-1,433,441,427,-1,427,441,440,-1,427,440,428,-1,428,440,438,-1,428,438,429,-1,429,438,437,-1,404,429,405,-1,405,429,437,-1,448,449,450,-1,448,450,451,-1,451,450,452,-1,451,452,453,-1,453,452,454,-1,453,454,455,-1,455,454,456,-1,455,456,457,-1,457,456,458,-1,457,458,459,-1,460,459,461,-1,461,459,458,-1,460,461,462,-1,460,462,463,-1,463,462,464,-1,463,464,465,-1,465,464,466,-1,465,466,467,-1,467,466,468,-1,467,468,469,-1,469,468,470,-1,469,470,471,-1,471,470,472,-1,471,472,473,-1,473,472,474,-1,473,474,475,-1,475,474,476,-1,475,476,477,-1,478,477,479,-1,479,477,476,-1,478,479,480,-1,480,479,481,-1,480,481,482,-1,482,481,483,-1,484,485,486,-1,486,485,483,-1,483,481,486,-1,486,481,479,-1,486,479,449,-1,449,479,476,-1,474,466,464,-1,456,454,476,-1,472,470,474,-1,474,470,468,-1,474,468,466,-1,464,462,474,-1,474,462,461,-1,474,461,476,-1,476,461,458,-1,476,458,456,-1,454,452,476,-1,476,452,450,-1,476,450,449,-1,487,488,482,-1,482,488,489,-1,482,489,480,-1,480,489,478,-1,478,489,477,-1,477,489,448,-1,477,448,451,-1,465,467,475,-1,451,453,477,-1,477,453,455,-1,477,455,457,-1,457,459,477,-1,477,459,460,-1,477,460,475,-1,475,460,463,-1,475,463,465,-1,467,469,475,-1,475,469,471,-1,475,471,473,-1,486,449,489,-1,489,449,448,-1,482,483,487,-1,487,483,485,-1,490,491,492,-1,492,491,493,-1,494,492,495,-1,495,492,493,-1,494,495,496,-1,494,496,497,-1,497,496,498,-1,497,498,499,-1,499,498,500,-1,499,500,501,-1,501,500,502,-1,501,502,503,-1,503,502,504,-1,503,504,505,-1,505,504,506,-1,505,506,507,-1,508,507,509,-1,509,507,506,-1,510,511,490,-1,510,490,512,-1,512,490,492,-1,512,492,508,-1,508,492,494,-1,508,494,507,-1,501,494,499,-1,499,494,497,-1,501,503,494,-1,494,503,505,-1,494,505,507,-1,513,514,491,-1,491,514,515,-1,491,515,493,-1,493,515,509,-1,493,509,495,-1,509,506,495,-1,495,506,504,-1,495,504,502,-1,502,500,495,-1,495,500,498,-1,495,498,496,-1,491,490,513,-1,513,490,511,-1,509,515,508,-1,508,515,512,-1,516,517,518,-1,516,518,519,-1,519,518,520,-1,519,520,521,-1,521,520,522,-1,521,522,523,-1,523,522,524,-1,523,524,525,-1,525,524,526,-1,525,526,527,-1,527,526,528,-1,527,528,529,-1,530,531,532,-1,530,532,533,-1,533,532,534,-1,533,534,535,-1,535,534,536,-1,535,536,537,-1,530,533,538,-1,538,533,535,-1,538,535,537,-1,539,540,538,-1,538,540,541,-1,538,541,529,-1,529,541,516,-1,529,516,527,-1,542,543,537,-1,537,543,544,-1,537,544,538,-1,538,544,545,-1,538,545,539,-1,519,521,523,-1,546,547,537,-1,537,547,548,-1,537,548,542,-1,519,523,516,-1,516,523,525,-1,516,525,527,-1,549,550,551,-1,536,534,551,-1,551,534,532,-1,551,532,531,-1,549,551,517,-1,517,551,528,-1,517,528,526,-1,550,552,551,-1,551,552,553,-1,551,553,536,-1,536,553,554,-1,536,554,555,-1,526,524,517,-1,517,524,522,-1,517,522,518,-1,518,522,520,-1,556,557,558,-1,558,557,536,-1,558,536,559,-1,559,536,555,-1,546,537,557,-1,557,537,536,-1,547,546,556,-1,556,546,557,-1,548,547,558,-1,558,547,556,-1,548,558,542,-1,542,558,559,-1,542,559,543,-1,543,559,555,-1,543,555,544,-1,544,555,554,-1,544,554,545,-1,545,554,553,-1,545,553,539,-1,539,553,552,-1,539,552,540,-1,540,552,550,-1,540,550,541,-1,541,550,549,-1,516,541,517,-1,517,541,549,-1,560,561,562,-1,560,562,563,-1,563,562,564,-1,563,564,565,-1,565,564,566,-1,565,566,567,-1,567,566,568,-1,567,568,569,-1,569,568,570,-1,569,570,571,-1,572,571,573,-1,573,571,570,-1,572,573,574,-1,572,574,575,-1,575,574,576,-1,575,576,577,-1,577,576,578,-1,577,578,579,-1,579,578,580,-1,579,580,581,-1,581,580,582,-1,581,582,583,-1,583,582,584,-1,583,584,585,-1,585,584,586,-1,585,586,587,-1,587,586,588,-1,587,588,589,-1,590,589,591,-1,591,589,588,-1,590,591,592,-1,592,591,593,-1,592,593,594,-1,594,593,595,-1,596,597,598,-1,598,597,595,-1,595,593,598,-1,598,593,591,-1,598,591,561,-1,561,591,588,-1,586,578,576,-1,568,566,588,-1,584,582,586,-1,586,582,580,-1,586,580,578,-1,576,574,586,-1,586,574,573,-1,586,573,588,-1,588,573,570,-1,588,570,568,-1,566,564,588,-1,588,564,562,-1,588,562,561,-1,599,600,594,-1,594,600,601,-1,594,601,592,-1,592,601,590,-1,590,601,589,-1,589,601,560,-1,589,560,563,-1,577,579,587,-1,563,565,589,-1,589,565,567,-1,589,567,569,-1,569,571,589,-1,589,571,572,-1,589,572,587,-1,587,572,575,-1,587,575,577,-1,579,581,587,-1,587,581,583,-1,587,583,585,-1,598,561,601,-1,601,561,560,-1,594,595,599,-1,599,595,597,-1,602,603,604,-1,604,603,605,-1,606,604,607,-1,607,604,605,-1,606,607,608,-1,606,608,609,-1,609,608,610,-1,609,610,611,-1,611,610,612,-1,611,612,613,-1,613,612,614,-1,613,614,615,-1,615,614,616,-1,615,616,617,-1,617,616,618,-1,617,618,619,-1,620,619,621,-1,621,619,618,-1,622,623,602,-1,622,602,624,-1,624,602,604,-1,624,604,620,-1,620,604,606,-1,620,606,619,-1,613,606,611,-1,611,606,609,-1,613,615,606,-1,606,615,617,-1,606,617,619,-1,625,626,603,-1,603,626,627,-1,603,627,605,-1,605,627,621,-1,605,621,607,-1,621,618,607,-1,607,618,616,-1,607,616,614,-1,614,612,607,-1,607,612,610,-1,607,610,608,-1,603,602,625,-1,625,602,623,-1,621,627,620,-1,620,627,624,-1,628,629,630,-1,628,630,631,-1,631,630,632,-1,631,632,633,-1,633,632,634,-1,633,634,635,-1,635,634,636,-1,635,636,637,-1,637,636,638,-1,637,638,639,-1,639,638,640,-1,639,640,641,-1,642,643,644,-1,642,644,645,-1,645,644,646,-1,645,646,647,-1,647,646,648,-1,647,648,649,-1,642,645,650,-1,650,645,647,-1,650,647,649,-1,651,652,650,-1,650,652,653,-1,650,653,641,-1,641,653,628,-1,641,628,639,-1,654,655,649,-1,649,655,656,-1,649,656,650,-1,650,656,657,-1,650,657,651,-1,631,633,635,-1,658,659,649,-1,649,659,660,-1,649,660,654,-1,631,635,628,-1,628,635,637,-1,628,637,639,-1,661,662,663,-1,648,646,663,-1,663,646,644,-1,663,644,643,-1,661,663,629,-1,629,663,640,-1,629,640,638,-1,662,664,663,-1,663,664,665,-1,663,665,648,-1,648,665,666,-1,648,666,667,-1,638,636,629,-1,629,636,634,-1,629,634,630,-1,630,634,632,-1,668,669,670,-1,670,669,648,-1,670,648,671,-1,671,648,667,-1,658,649,669,-1,669,649,648,-1,659,658,668,-1,668,658,669,-1,660,659,670,-1,670,659,668,-1,660,670,654,-1,654,670,671,-1,654,671,655,-1,655,671,667,-1,655,667,656,-1,656,667,666,-1,656,666,657,-1,657,666,665,-1,657,665,651,-1,651,665,664,-1,651,664,652,-1,652,664,662,-1,652,662,653,-1,653,662,661,-1,628,653,629,-1,629,653,661,-1,
        ]
    }
}
Shape{
    appearance Appearance {
        material  Material 	{
            diffuseColor 0.7019607843137254 0.7019607843137254 0.7019607843137254
            specularColor 0.050980392156862744 0.050980392156862744 0.050980392156862744
            ambientIntensity 1.0
            transparency 0.0
            shininess 0.5
        }
    }
    geometry IndexedFaceSet {
        ccw TRUE
        solid FALSE
        coord DEF co Coordinate {
            point [
                2.1654 -0.9052 0.2441, 2.1654 -0.9052 0.874, 2.1654 -1.0233 0.874, 2.1654 -0.1178 0.126, 2.1654 -0.1178 0.2441, 2.1654 -1.0233 0.126, 2.1654 -1.0233 0.1378, 2.3622 -0.9052 0.874, 2.3622 -1.0233 0.874, 2.3622 -0.9052 0.2441, -2.3622 -0.9052 0.874, -2.1653 -0.9052 0.874, -2.3622 -1.0233 0.874, -2.1653 -1.0233 0.874, -2.1653 -0.9052 0.2441, -2.1653 -0.1178 0.2441, -2.1653 -0.1178 0.0629, -2.1653 -1.0233 0.1378, -2.1653 -1.0233 0.0629, -2.3622 -0.9052 0.2441, -2.3622 -0.1178 0.2441, -2.3622 -0.1178 0.0079, -2.0472 -0.1178 0.0079, 2.3622 -0.1178 0.2441, 2.3622 -0.1178 0.0079, 2.1103 -0.1178 0.0079, 2.1103 -1.0233 0.0079, -2.1203 -1.0233 0.0419, -2.0472 -1.0233 0.0079, 0.8262 -0.4639 0.9331, 0.8262 0.0118 0.9331, 0.8262 -0.2277 1.1693, 0.8262 0.0118 1.1693, -0.8262 0.0118 1.1693, -0.8262 0.0118 0.9331, -0.8262 -0.2277 1.1693, -0.8262 -0.4639 0.9331
            ]
        }
        coordIndex [
            0,1,2,-1,3,4,5,-1,5,4,0,-1,5,0,6,-1,6,0,2,-1,1,7,2,-1,2,7,8,-1,7,1,9,-1,9,1,0,-1,10,11,12,-1,12,11,13,-1,14,15,16,-1,13,11,17,-1,17,11,14,-1,17,14,18,-1,18,14,16,-1,14,11,19,-1,19,11,10,-1,20,15,19,-1,19,15,14,-1,15,20,16,-1,16,20,21,-1,16,21,22,-1,4,23,0,-1,0,23,9,-1,23,4,24,-1,24,4,3,-1,24,3,25,-1,5,26,3,-1,3,26,25,-1,18,16,27,-1,27,16,22,-1,27,22,28,-1,29,30,31,-1,31,30,32,-1,33,32,34,-1,34,32,30,-1,35,33,36,-1,36,33,34,-1,31,32,35,-1,35,32,33,-1,29,31,36,-1,36,31,35,-1,
        ]
    }
}
Shape{
    appearance Appearance {
        material  Material 	{
            diffuseColor 0.10196078431372549 0.10196078431372549 0.10196078431372549
            specularColor 0.03137254901960784 0.03137254901960784 0.03137254901960784
            ambientIntensity 0.102
            transparency 0.0
            shininess 0.5
        }
    }
    geometry IndexedFaceSet {
        ccw TRUE
        solid FALSE
        coord DEF co Coordinate {
            point [
                -0.3555 -0.1301 0.0083, -0.4324 -0.327 0.0083, -0.3555 -0.1301 0.0079, -0.4324 -0.327 0.0079, -0.4036 -0.327 0.0083, -0.4036 -0.327 0.0079, -0.3836 -0.2718 0.0083, -0.3836 -0.2718 0.0079, -0.3023 -0.2718 0.0083, -0.3023 -0.2718 0.0079, -0.2835 -0.327 0.0083, -0.2835 -0.327 0.0079, -0.2547 -0.327 0.0083, -0.2547 -0.327 0.0079, -0.3291 -0.1301 0.0083, -0.3291 -0.1301 0.0079, -0.309 -0.2502 0.0083, -0.3748 -0.2502 0.0083, -0.3383 -0.168 0.0083, -0.3402 -0.1611 0.0083, -0.3415 -0.1541 0.0083, -0.3421 -0.1541 0.0083, -0.3434 -0.1611 0.0083, -0.3452 -0.168 0.0083, -0.309 -0.2502 0.0079, -0.3748 -0.2502 0.0079, -0.3383 -0.168 0.0079, -0.3402 -0.1611 0.0079, -0.3415 -0.1541 0.0079, -0.3421 -0.1541 0.0079, -0.3434 -0.1611 0.0079, -0.3452 -0.168 0.0079, -0.1354 -0.327 0.0083, -0.0819 -0.327 0.0083, -0.1354 -0.327 0.0079, -0.0819 -0.327 0.0079, -0.0819 -0.1301 0.0083, -0.0819 -0.1301 0.0079, -0.1374 -0.1301 0.0083, -0.1374 -0.1301 0.0079, -0.2403 -0.2261 0.0083, -0.2403 -0.2261 0.0079, -0.2389 -0.2076 0.0079, -0.2389 -0.2076 0.0083, -0.2336 -0.1882 0.0079, -0.2336 -0.1882 0.0083, -0.2244 -0.1712 0.0079, -0.2244 -0.1712 0.0083, -0.2105 -0.1558 0.0079, -0.2105 -0.1558 0.0083, -0.2103 -0.1556 0.0079, -0.2103 -0.1556 0.0083, -0.1889 -0.1413 0.0079, -0.1889 -0.1413 0.0083, -0.1659 -0.1332 0.0079, -0.1659 -0.1332 0.0083, -0.1598 -0.3249 0.0079, -0.1598 -0.3249 0.0083, -0.1824 -0.3181 0.0079, -0.1824 -0.3181 0.0083, -0.203 -0.3062 0.0079, -0.203 -0.3062 0.0083, -0.2192 -0.2906 0.0079, -0.2192 -0.2906 0.0083, -0.2305 -0.273 0.0079, -0.2305 -0.273 0.0083, -0.2376 -0.2524 0.0079, -0.2376 -0.2524 0.0083, -0.2008 -0.1794 0.0083, -0.1912 -0.1692 0.0083, -0.1769 -0.1599 0.0083, -0.1606 -0.1542 0.0083, -0.1373 -0.1517 0.0083, -0.1083 -0.1517 0.0083, -0.1083 -0.3054 0.0083, -0.1362 -0.3054 0.0083, -0.157 -0.3035 0.0083, -0.1736 -0.2983 0.0083, -0.187 -0.2903 0.0083, -0.198 -0.2794 0.0083, -0.2063 -0.2658 0.0083, -0.2121 -0.2473 0.0083, -0.2139 -0.2267 0.0083, -0.2122 -0.2071 0.0083, -0.2076 -0.1915 0.0083, -0.1373 -0.1517 0.0079, -0.1083 -0.1517 0.0079, -0.1606 -0.1542 0.0079, -0.1769 -0.1599 0.0079, -0.1912 -0.1692 0.0079, -0.2008 -0.1794 0.0079, -0.2076 -0.1915 0.0079, -0.2122 -0.2071 0.0079, -0.2139 -0.2267 0.0079, -0.2121 -0.2473 0.0079, -0.2063 -0.2658 0.0079, -0.198 -0.2794 0.0079, -0.187 -0.2903 0.0079, -0.1736 -0.2983 0.0079, -0.157 -0.3035 0.0079, -0.1362 -0.3054 0.0079, -0.1083 -0.3054 0.0079, -0.0435 -0.3054 0.0083, -0.0435 -0.327 0.0083, -0.0435 -0.3054 0.0079, -0.0435 -0.327 0.0079, 0.0622 -0.327 0.0083, 0.0622 -0.327 0.0079, 0.0622 -0.1301 0.0083, 0.0622 -0.1301 0.0079, -0.0387 -0.1301 0.0083, -0.0387 -0.1301 0.0079, -0.0387 -0.1517 0.0083, -0.0387 -0.1517 0.0079, 0.0358 -0.1517 0.0083, 0.0358 -0.1517 0.0079, 0.0358 -0.2166 0.0083, 0.0358 -0.2166 0.0079, -0.0339 -0.2166 0.0083, -0.0339 -0.2166 0.0079, -0.0339 -0.2382 0.0083, -0.0339 -0.2382 0.0079, 0.0358 -0.2382 0.0083, 0.0358 -0.2382 0.0079, 0.0358 -0.3054 0.0083, 0.0358 -0.3054 0.0079, 0.1006 -0.2952 0.0083, 0.1006 -0.3168 0.0083, 0.1006 -0.2952 0.0079, 0.1006 -0.3168 0.0079, 0.1216 -0.3254 0.0083, 0.1547 -0.3294 0.0083, 0.1547 -0.3294 0.0079, 0.1494 -0.3293 0.0079, 0.1494 -0.3293 0.0083, 0.1414 -0.3282 0.0079, 0.1216 -0.3254 0.0079, 0.1663 -0.3282 0.0079, 0.179 -0.3269 0.0083, 0.179 -0.3269 0.0079, 0.1981 -0.3203 0.0083, 0.1981 -0.3203 0.0079, 0.2139 -0.3102 0.0083, 0.2139 -0.3102 0.0079, 0.2287 -0.2946 0.0083, 0.2287 -0.2946 0.0079, 0.2392 -0.2759 0.0083, 0.2392 -0.2759 0.0079, 0.2451 -0.2551 0.0083, 0.2451 -0.2551 0.0079, 0.247 -0.2323 0.0083, 0.247 -0.2323 0.0079, 0.1469 -0.1277 0.0083, 0.1469 -0.1277 0.0079, 0.1667 -0.1294 0.0079, 0.1667 -0.1294 0.0083, 0.1886 -0.1357 0.0079, 0.1886 -0.1357 0.0083, 0.2073 -0.1465 0.0079, 0.2073 -0.1465 0.0083, 0.2251 -0.1636 0.0079, 0.2251 -0.1636 0.0083, 0.2366 -0.182 0.0079, 0.2366 -0.182 0.0083, 0.2442 -0.2043 0.0079, 0.2442 -0.2043 0.0083, 0.1006 -0.1355 0.0083, 0.1006 -0.1355 0.0079, 0.1233 -0.1294 0.0079, 0.1233 -0.1294 0.0083, 0.1006 -0.162 0.0083, 0.1006 -0.162 0.0079, 0.1467 -0.1493 0.0083, 0.1467 -0.1493 0.0079, 0.1227 -0.1525 0.0079, 0.1227 -0.1525 0.0083, 0.2206 -0.2307 0.0083, 0.2206 -0.2307 0.0079, 0.2197 -0.2154 0.0079, 0.2197 -0.2154 0.0083, 0.2144 -0.1943 0.0079, 0.2144 -0.1943 0.0083, 0.2063 -0.1791 0.0079, 0.2063 -0.1791 0.0083, 0.1944 -0.166 0.0079, 0.1944 -0.166 0.0083, 0.1808 -0.1568 0.0079, 0.1808 -0.1568 0.0083, 0.1661 -0.1515 0.0079, 0.1661 -0.1515 0.0083, 0.1511 -0.3078 0.0083, 0.1511 -0.3078 0.0079, 0.1695 -0.3057 0.0079, 0.1695 -0.3057 0.0083, 0.1838 -0.3004 0.0079, 0.1838 -0.3004 0.0083, 0.1959 -0.2923 0.0079, 0.1959 -0.2923 0.0083, 0.2051 -0.2826 0.0079, 0.2051 -0.2826 0.0083, 0.2133 -0.2689 0.0079, 0.2133 -0.2689 0.0083, 0.2186 -0.252 0.0079, 0.2186 -0.252 0.0083, 0.1041 -0.2971 0.0079, 0.1041 -0.2971 0.0083, 0.125 -0.3049 0.0079, 0.125 -0.3049 0.0083, 0.2638 -0.3054 0.0083, 0.2638 -0.327 0.0083, 0.2638 -0.3054 0.0079, 0.2638 -0.327 0.0079, 0.3646 -0.327 0.0083, 0.3646 -0.327 0.0079, 0.3646 -0.1301 0.0083, 0.3646 -0.1301 0.0079, 0.3382 -0.1301 0.0083, 0.3382 -0.1301 0.0079, 0.3382 -0.3054 0.0083, 0.3382 -0.3054 0.0079
            ]
        }
        coordIndex [
            0,1,2,-1,2,1,3,-1,1,4,3,-1,3,4,5,-1,4,6,5,-1,5,6,7,-1,6,8,7,-1,7,8,9,-1,8,10,9,-1,9,10,11,-1,10,12,11,-1,11,12,13,-1,12,14,13,-1,13,14,15,-1,14,0,15,-1,15,0,2,-1,16,8,17,-1,17,8,6,-1,18,14,16,-1,16,14,12,-1,16,12,8,-1,8,12,10,-1,18,19,14,-1,14,19,20,-1,14,20,0,-1,0,20,21,-1,0,21,22,-1,22,23,0,-1,0,23,17,-1,0,17,1,-1,1,17,6,-1,1,6,4,-1,16,17,24,-1,24,17,25,-1,18,16,26,-1,26,16,24,-1,18,26,27,-1,18,27,19,-1,19,27,28,-1,19,28,20,-1,21,20,29,-1,29,20,28,-1,21,29,30,-1,21,30,22,-1,22,30,31,-1,22,31,23,-1,17,23,25,-1,25,23,31,-1,32,33,34,-1,34,33,35,-1,33,36,35,-1,35,36,37,-1,36,38,37,-1,37,38,39,-1,40,41,42,-1,40,42,43,-1,43,42,44,-1,43,44,45,-1,45,44,46,-1,45,46,47,-1,47,46,48,-1,47,48,49,-1,49,48,50,-1,49,50,51,-1,51,50,52,-1,51,52,53,-1,53,52,54,-1,53,54,55,-1,55,54,39,-1,55,39,38,-1,32,34,56,-1,32,56,57,-1,57,56,58,-1,57,58,59,-1,59,58,60,-1,59,60,61,-1,61,60,62,-1,61,62,63,-1,63,62,64,-1,63,64,65,-1,65,64,66,-1,65,66,67,-1,67,66,41,-1,67,41,40,-1,45,47,68,-1,68,47,49,-1,68,49,69,-1,69,49,51,-1,69,51,70,-1,70,51,53,-1,70,53,71,-1,71,53,55,-1,71,55,72,-1,72,55,38,-1,72,38,73,-1,73,38,36,-1,73,36,74,-1,74,36,33,-1,74,33,75,-1,75,33,32,-1,75,32,76,-1,76,32,57,-1,76,57,77,-1,77,57,59,-1,77,59,78,-1,78,59,61,-1,78,61,79,-1,79,61,63,-1,79,63,80,-1,80,63,65,-1,80,65,81,-1,81,65,67,-1,81,67,82,-1,82,67,40,-1,82,40,83,-1,83,40,43,-1,83,43,84,-1,84,43,45,-1,84,45,68,-1,72,73,85,-1,85,73,86,-1,72,85,87,-1,72,87,71,-1,71,87,88,-1,71,88,70,-1,70,88,89,-1,70,89,69,-1,69,89,90,-1,69,90,68,-1,68,90,91,-1,68,91,84,-1,84,91,92,-1,84,92,83,-1,83,92,93,-1,83,93,82,-1,82,93,94,-1,82,94,81,-1,81,94,95,-1,81,95,80,-1,80,95,96,-1,80,96,79,-1,79,96,97,-1,79,97,78,-1,78,97,98,-1,78,98,77,-1,77,98,99,-1,77,99,76,-1,76,99,100,-1,76,100,75,-1,74,75,101,-1,101,75,100,-1,73,74,86,-1,86,74,101,-1,102,103,104,-1,104,103,105,-1,103,106,105,-1,105,106,107,-1,106,108,107,-1,107,108,109,-1,108,110,109,-1,109,110,111,-1,110,112,111,-1,111,112,113,-1,112,114,113,-1,113,114,115,-1,114,116,115,-1,115,116,117,-1,116,118,117,-1,117,118,119,-1,118,120,119,-1,119,120,121,-1,120,122,121,-1,121,122,123,-1,122,124,123,-1,123,124,125,-1,124,102,125,-1,125,102,104,-1,106,103,102,-1,102,124,106,-1,106,124,122,-1,106,122,108,-1,112,110,114,-1,114,110,108,-1,114,108,116,-1,116,108,122,-1,116,122,118,-1,118,122,120,-1,126,127,128,-1,128,127,129,-1,129,127,130,-1,131,132,133,-1,131,133,134,-1,134,133,135,-1,134,135,130,-1,130,135,136,-1,130,136,129,-1,132,131,137,-1,137,131,138,-1,137,138,139,-1,139,138,140,-1,139,140,141,-1,141,140,142,-1,141,142,143,-1,143,142,144,-1,143,144,145,-1,145,144,146,-1,145,146,147,-1,147,146,148,-1,147,148,149,-1,149,148,150,-1,149,150,151,-1,152,153,154,-1,152,154,155,-1,155,154,156,-1,155,156,157,-1,157,156,158,-1,157,158,159,-1,159,158,160,-1,159,160,161,-1,161,160,162,-1,161,162,163,-1,163,162,164,-1,163,164,165,-1,165,164,151,-1,165,151,150,-1,166,167,168,-1,166,168,169,-1,169,168,153,-1,169,153,152,-1,166,170,167,-1,167,170,171,-1,172,173,174,-1,172,174,175,-1,175,174,171,-1,175,171,170,-1,176,177,178,-1,176,178,179,-1,179,178,180,-1,179,180,181,-1,181,180,182,-1,181,182,183,-1,183,182,184,-1,183,184,185,-1,185,184,186,-1,185,186,187,-1,187,186,188,-1,187,188,189,-1,189,188,173,-1,189,173,172,-1,190,191,192,-1,190,192,193,-1,193,192,194,-1,193,194,195,-1,195,194,196,-1,195,196,197,-1,197,196,198,-1,197,198,199,-1,199,198,200,-1,199,200,201,-1,201,200,202,-1,201,202,203,-1,203,202,177,-1,203,177,176,-1,126,128,204,-1,126,204,205,-1,205,204,206,-1,205,206,207,-1,207,206,191,-1,207,191,190,-1,193,131,190,-1,190,131,134,-1,190,134,207,-1,207,134,130,-1,207,130,205,-1,205,130,127,-1,205,127,126,-1,170,166,175,-1,175,166,169,-1,175,169,172,-1,172,169,152,-1,172,152,189,-1,189,152,155,-1,189,155,187,-1,187,155,157,-1,187,157,185,-1,185,157,159,-1,185,159,183,-1,183,159,161,-1,183,161,181,-1,181,161,163,-1,181,163,179,-1,179,163,165,-1,179,165,176,-1,176,165,150,-1,176,150,203,-1,203,150,148,-1,203,148,201,-1,201,148,146,-1,201,146,199,-1,199,146,144,-1,199,144,197,-1,197,144,142,-1,197,142,195,-1,195,142,140,-1,195,140,193,-1,193,140,138,-1,193,138,131,-1,208,209,210,-1,210,209,211,-1,209,212,211,-1,211,212,213,-1,212,214,213,-1,213,214,215,-1,214,216,215,-1,215,216,217,-1,216,218,217,-1,217,218,219,-1,218,208,219,-1,219,208,210,-1,216,214,218,-1,218,214,212,-1,218,212,208,-1,208,212,209,-1,
        ]
    }
}
Shape{
    appearance Appearance {
        material  Material 	{
            diffuseColor 0.7019607843137254 0.7019607843137254 0.7019607843137254
            specularColor 0.050980392156862744 0.050980392156862744 0.050980392156862744
            ambientIntensity 1.0
            transparency 0.0
            shininess 0.5
        }
    }
    geometry IndexedFaceSet {
        ccw TRUE
        solid FALSE
        coord DEF co Coordinate {
            point [
                -0.309 -0.2502 0.0079, -0.3748 -0.2502 0.0079, -0.3383 -0.168 0.0079, -0.3452 -0.168 0.0079, -0.3402 -0.1611 0.0079, -0.3434 -0.1611 0.0079, -0.3415 -0.1541 0.0079, -0.3421 -0.1541 0.0079, -0.1083 -0.1517 0.0079, -0.1083 -0.3054 0.0079, -0.1373 -0.1517 0.0079, -0.1362 -0.3054 0.0079, -0.157 -0.3035 0.0079, -0.2139 -0.2267 0.0079, -0.2122 -0.2071 0.0079, -0.2076 -0.1915 0.0079, -0.1606 -0.1542 0.0079, -0.1736 -0.2983 0.0079, -0.187 -0.2903 0.0079, -0.198 -0.2794 0.0079, -0.2063 -0.2658 0.0079, -0.2121 -0.2473 0.0079, -0.2008 -0.1794 0.0079, -0.1912 -0.1692 0.0079, -0.1769 -0.1599 0.0079
            ]
        }
        coordIndex [
            0,1,2,-1,2,1,3,-1,2,3,4,-1,4,3,5,-1,4,5,6,-1,6,5,7,-1,8,9,10,-1,10,9,11,-1,10,11,12,-1,13,14,10,-1,10,14,15,-1,10,15,16,-1,12,17,10,-1,10,17,18,-1,10,18,19,-1,19,20,10,-1,10,20,21,-1,10,21,13,-1,22,23,15,-1,15,23,24,-1,15,24,16,-1,
        ]
    }
}