#VRML V2.0 utf8
# 3D model generated by easyeda2kicad.py (https://github.com/uPesy/easyeda2kicad.py)

Shape{
    appearance Appearance {
        material  Material 	{
            diffuseColor 0.8431372549019608 0.8156862745098039 0.7529411764705882
            specularColor 0.25098039215686274 0.24313725490196078 0.22745098039215686
            ambientIntensity 0.8167
            transparency 0.0
            shininess 0.5
        }
    }
    geometry IndexedFaceSet {
        ccw TRUE
        solid FALSE
        coord DEF co Coordinate {
            point [
                -0.0504 0.1181 0.4211, -0.0504 0.1181 0.5393, -0.0735 0.1181 0.4402, -0.0449 0.1181 0.54, -0.0908 0.1181 0.54, -0.0871 0.1181 0.5397, -0.0735 0.1181 0.536, -0.0735 0.1181 0.5202, -0.0868 0.1181 0.5259, -0.0756 0.1181 0.4391, -0.1011 0.1181 0.5277, -0.1127 0.1181 0.5264, -0.132 0.1181 0.4252, -0.1415 0.1181 0.4312, -0.1664 0.1181 0.1417, -0.1216 0.1181 0.5232, -0.1298 0.1181 0.5178, -0.1369 0.1181 0.5099, -0.1455 0.1181 0.4789, -0.1443 0.1181 0.4662, -0.1411 0.1181 0.456, -0.1148 0.1181 0.4339, -0.1038 0.1181 0.4327, -0.1234 0.1181 0.4371, -0.1306 0.1181 0.442, -0.1362 0.1181 0.4478, -0.0881 0.1181 0.4344, -0.1418 0.1181 0.5008, -0.1449 0.1181 0.4881, -0.0735 0.1181 0.4273, -0.086 0.1181 0.4221, -0.1027 0.1181 0.4198, -0.1613 0.1181 0.478, -0.1596 0.1181 0.4948, -0.1664 0.1181 0.54, -0.1551 0.1181 0.5081, -0.1482 0.1181 0.5192, -0.1375 0.1181 0.5294, -0.1263 0.1181 0.5359, -0.1131 0.1181 0.5397, -0.106 0.1181 0.4197, -0.1205 0.1181 0.4212, -0.1503 0.1181 0.4406, -0.1566 0.1181 0.4518, -0.1602 0.1181 0.4643, -0.1013 0.1181 0.5407, -0.0449 0.1181 0.6046, -0.1101 0.1181 0.54, -0.1664 0.1181 0.6046, 0.0245 0.1181 0.54, 0.013 0.1181 0.4341, 0.013 0.1181 0.4211, -0.0449 0.1181 0.4211, -0.0449 0.1181 0.1417, 0.0245 0.1181 0.1417, -0.0449 0.1181 0.5393, 0.0101 0.1181 0.5393, 0.0101 0.1181 0.5263, -0.0346 0.1181 0.4744, -0.0346 0.1181 0.4341, 0.0072 0.1181 0.4744, 0.0072 0.1181 0.4874, -0.0346 0.1181 0.4874, -0.0346 0.1181 0.5263, -0.0394 0.1181 0.6685, 0.0245 0.1181 0.6685, 0.0245 0.1181 0.6046, 0.0394 0.1181 0.6685, 0.1354 0.1181 0.6046, 0.0394 0.1181 0.8134, -0.0449 0.1181 0.9106, -0.0394 0.1181 0.8134, 0.0245 0.1181 0.9106, 0.0245 0.1181 0.8134, 0.1354 0.1181 0.9106, -1.0236 0.1181 0.6046, -1.063 0.1181 0.54, -1.0236 0.1181 0.54, -1.063 0.1181 0.1417, -1.0236 0.1181 0.1417, -1.0236 0.1181 0.9106, -1.1417 0.1181 0.9106, -1.1417 0.1181 0.7913, -1.2205 0.1181 0.7913, -1.2205 0.1181 0.6339, -1.063 0.1181 0.6339, -1.063 0.1181 0.6046, 1.2205 0.1181 0.6339, 1.2205 0.1181 0.7913, 1.063 0.1181 0.6339, 1.1417 0.1181 0.7913, 1.063 0.1181 0.6046, 0.8268 0.1181 0.6685, 0.5906 0.1181 0.6046, 0.748 0.1181 0.6685, 0.5906 0.1181 0.9106, 0.748 0.1181 0.8134, 0.8268 0.1181 0.8134, 1.1417 0.1181 0.9106, 1.063 0.1181 0.1417, 1.063 0.1181 0.54, 0.5906 0.1181 0.1417, 0.5906 0.1181 0.54, 0.3003 0.1181 0.1417, 0.3003 0.1181 0.54, 0.3003 0.1181 0.6046, 0.4331 0.1181 0.6685, 0.4331 0.1181 0.8134, 0.3543 0.1181 0.8134, 0.3003 0.1181 0.9106, 0.3543 0.1181 0.6685, 0.229 0.1181 0.4211, 0.2171 0.1181 0.4543, 0.1683 0.1181 0.4543, 0.157 0.1181 0.4211, 0.1354 0.1181 0.1417, 0.1397 0.1181 0.4211, 0.1354 0.1181 0.54, 0.1844 0.1181 0.5393, 0.2002 0.1181 0.5393, 0.2463 0.1181 0.4211, 0.0693 0.1181 0.5393, 0.0864 0.1181 0.5374, 0.1002 0.1181 0.5326, 0.1131 0.1181 0.524, 0.1252 0.1181 0.4535, 0.1184 0.1181 0.443, 0.1087 0.1181 0.4336, 0.0963 0.1181 0.4265, 0.1132 0.1181 0.5239, 0.1216 0.1181 0.5146, 0.127 0.1181 0.5044, 0.0827 0.1181 0.4224, 0.0681 0.1181 0.4211, 0.036 0.1181 0.4211, 0.036 0.1181 0.5393, 0.1302 0.1181 0.4928, 0.1311 0.1181 0.4817, 0.1294 0.1181 0.4659, -0.2931 0.1181 0.1417, -0.1714 0.1181 0.4211, -0.1714 0.1181 0.4341, -0.2161 0.1181 0.4341, -0.2161 0.1181 0.5393, -0.2319 0.1181 0.5393, -0.2931 0.1181 0.54, -0.2319 0.1181 0.4211, -0.1664 0.1181 0.9106, -0.2931 0.1181 0.6046, -0.2931 0.1181 0.9106, -0.5906 0.1181 0.1417, -0.5906 0.1181 0.54, -0.5906 0.1181 0.6046, -0.3543 0.1181 0.8134, -0.4331 0.1181 0.8134, -0.5906 0.1181 0.9106, -0.4331 0.1181 0.6685, -0.3543 0.1181 0.6685, -0.748 0.1181 0.6685, -0.8268 0.1181 0.6685, -0.748 0.1181 0.8134, -0.8268 0.1181 0.8134, 1.1417 0.1181 1.0079, 0.5906 0.1181 1.0079, 0.3003 0.1181 1.0079, 0.1354 0.1181 1.0079, 0.0245 0.1181 1.0079, -0.0449 0.1181 1.0079, -0.1664 0.1181 1.0079, -0.2931 0.1181 1.0079, -0.5906 0.1181 1.0079, -1.0236 0.1181 1.0079, -1.1417 0.1181 1.0079, 0.748 0.4921 0.0039, 0.7087 0.4921 0.0039, 0.748 0.4921 0.8197, 0.7087 0.4921 0.9094, 0.8268 0.4921 0.8197, 0.8661 0.4921 0.9094, 0.8268 0.4921 0.0039, 0.8661 0.4921 0.0039, 0.3543 0.4921 0.0039, 0.315 0.4921 0.0039, 0.3543 0.4921 0.8197, 0.315 0.4921 0.9094, 0.4331 0.4921 0.8197, 0.4724 0.4921 0.9094, 0.4331 0.4921 0.0039, 0.4724 0.4921 0.0039, -0.0394 0.4921 0.0039, -0.0787 0.4921 0.0039, -0.0394 0.4921 0.8197, -0.0787 0.4921 0.9094, 0.0394 0.4921 0.8197, 0.0787 0.4921 0.9094, 0.0394 0.4921 0.0039, 0.0787 0.4921 0.0039, -0.4331 0.4921 0.0039, -0.4724 0.4921 0.0039, -0.4331 0.4921 0.8197, -0.4724 0.4921 0.9094, -0.3543 0.4921 0.8197, -0.315 0.4921 0.9094, -0.3543 0.4921 0.0039, -0.315 0.4921 0.0039, -0.8268 0.4921 0.0039, -0.8661 0.4921 0.0039, -0.8268 0.4921 0.8197, -0.8661 0.4921 0.9094, -0.748 0.4921 0.8197, -0.7087 0.4921 0.9094, -0.748 0.4921 0.0039, -0.7087 0.4921 0.0039, -1.063 0.1378 1.1457, -1.378 0.1378 1.1457, -1.378 -1.063 1.1457, 1.378 -1.063 1.1457, 1.378 0.1378 1.1457, 1.063 0.1378 1.1457, 1.063 0.374 1.1457, -1.063 0.374 1.1457, -1.063 0.374 0.9094, -1.063 0.1378 0.9094, 1.063 0.374 0.9094, 1.063 0.1378 0.9094, 1.1811 -0.8268 0.2402, 1.1811 -0.5905 0.2402, 1.2402 -0.8268 0.2402, 1.2402 -0.5905 0.2402, 1.1811 -0.5905 0.0039, 1.2402 -0.5905 0.0039, 1.378 -1.063 0.4764, 1.378 -0.5905 0.0039, 1.378 0.6102 0.0039, 1.378 0.6102 0.6732, 1.378 -0.8268 0.4764, 1.378 -0.8268 0.2402, 1.378 -0.5905 0.2402, 1.378 0.374 0.6732, 1.378 0.374 0.9094, 1.378 0.1378 0.9094, 1.2598 0.6102 0.0039, 1.2598 0.6102 0.6732, 0.8661 0.6102 0.9094, 1.063 0.6102 0.9094, 1.063 0.6102 0.6732, 1.1024 0.6102 0.6732, 1.1024 0.6102 0.0039, 0.8661 0.6102 0.0039, 1.2598 0.4921 0.0039, 1.2598 0.4921 0.6732, 1.1024 0.4921 0.0039, 1.1024 0.4921 0.6732, 1.2008 -1.063 1.0669, 1.2008 -1.063 0.8504, 1.2795 -1.063 0.8504, -1.2008 -1.063 0.8504, -1.2008 -1.063 1.0669, 1.2795 -1.063 0.5748, 1.1811 -1.063 0.4764, 1.122 -1.063 0.5748, 1.1811 -1.063 0.0039, 1.122 -1.063 0.0827, -1.1811 -1.063 0.0039, -1.122 -1.063 0.0827, -1.1811 -1.063 0.4764, -1.122 -1.063 0.5748, -1.378 -1.063 0.4764, -1.2795 -1.063 0.5748, -1.2795 -1.063 0.8504, -1.1811 -0.5905 0.0039, -1.378 0.6102 0.0039, -0.8661 0.6102 0.0039, -1.378 -0.5905 0.0039, -1.3189 -0.5905 0.0039, -0.315 0.6102 0.0039, -0.0787 0.6102 0.0039, 0.0787 0.6102 0.0039, 0.315 0.6102 0.0039, -1.2402 -0.5905 0.0039, -0.7087 0.6102 0.0039, -0.4724 0.6102 0.0039, 0.4724 0.6102 0.0039, 0.7087 0.6102 0.0039, 1.3189 -0.5905 0.0039, 0.7087 0.6102 0.9094, 0.4724 0.6102 0.9094, -0.4724 0.6102 0.9094, -0.7087 0.6102 0.9094, -0.0787 0.6102 0.9094, -0.315 0.6102 0.9094, 0.315 0.6102 0.9094, 0.0787 0.6102 0.9094, -1.1811 -0.5905 0.2402, -1.2402 -0.5905 0.2402, -1.378 -0.5905 0.2402, -1.3189 -0.5905 0.2402, -1.1811 -0.8268 0.2402, -1.2402 -0.8268 0.2402, -1.378 -0.8268 0.2402, -1.3189 -0.8268 0.2402, -1.2402 -0.8268 0.4724, -1.1811 -0.8268 0.4764, -1.3189 -0.8268 0.4724, -1.378 -0.8268 0.4764, -1.063 0.6102 0.9094, -0.8661 0.6102 0.9094, -1.063 0.6102 0.6732, -1.378 0.6102 0.6732, -1.378 0.374 0.6732, -1.378 0.1378 0.9094, -1.378 0.374 0.9094, 1.063 -0.9007 0.1417, 1.063 -0.9007 0.6339, -1.063 -0.9007 0.1417, -1.063 -0.9007 0.6339, -1.2205 -0.9007 0.6339, -1.2205 -0.9007 0.7913, -1.1417 -0.9007 0.7913, -1.1417 -0.9007 1.0079, 1.1417 -0.9007 1.0079, 1.1417 -0.9007 0.7913, 1.2205 -0.9007 0.7913, 1.2205 -0.9007 0.6339, -1.063 0.374 0.6732
            ]
        }
        coordIndex [
            0,1,2,-1,3,4,1,-1,1,4,5,-1,5,6,1,-1,1,6,7,-1,1,7,2,-1,2,7,8,-1,2,8,9,-1,9,8,10,-1,9,10,11,-1,12,13,14,-1,11,15,9,-1,9,15,16,-1,9,16,17,-1,18,19,9,-1,9,19,20,-1,21,22,23,-1,23,22,24,-1,20,25,9,-1,9,25,24,-1,9,24,26,-1,26,24,22,-1,17,27,9,-1,9,27,28,-1,9,28,18,-1,29,30,14,-1,14,30,31,-1,32,33,34,-1,34,33,35,-1,34,35,36,-1,36,37,34,-1,34,37,38,-1,34,38,39,-1,31,40,14,-1,14,40,41,-1,14,41,12,-1,13,42,14,-1,14,42,43,-1,14,43,44,-1,45,46,47,-1,47,46,48,-1,49,50,51,-1,2,29,0,-1,0,29,14,-1,0,14,52,-1,52,14,53,-1,52,53,51,-1,51,53,54,-1,51,54,49,-1,1,55,3,-1,3,55,56,-1,3,56,49,-1,49,56,57,-1,49,57,50,-1,58,59,60,-1,60,59,50,-1,60,50,61,-1,61,50,57,-1,61,57,62,-1,62,57,63,-1,64,46,65,-1,65,46,66,-1,65,66,67,-1,67,66,68,-1,67,68,69,-1,70,71,72,-1,72,71,73,-1,72,73,74,-1,75,76,77,-1,77,76,78,-1,77,78,79,-1,80,81,75,-1,75,81,82,-1,83,84,82,-1,82,84,85,-1,82,85,75,-1,75,85,86,-1,75,86,76,-1,87,88,89,-1,89,88,90,-1,91,92,93,-1,93,92,94,-1,93,94,95,-1,95,94,96,-1,95,96,97,-1,91,89,92,-1,92,89,90,-1,92,90,97,-1,97,90,98,-1,97,98,95,-1,99,100,101,-1,101,100,102,-1,101,102,103,-1,103,102,104,-1,105,93,106,-1,106,93,107,-1,107,93,95,-1,107,95,108,-1,108,95,109,-1,108,109,110,-1,111,112,113,-1,103,114,115,-1,115,114,116,-1,115,116,117,-1,116,118,117,-1,117,118,119,-1,117,119,104,-1,104,119,120,-1,104,120,103,-1,103,120,111,-1,103,111,114,-1,114,111,113,-1,106,110,105,-1,105,110,109,-1,105,109,68,-1,68,109,74,-1,68,74,69,-1,69,74,73,-1,121,117,49,-1,121,122,117,-1,117,122,123,-1,117,123,124,-1,125,126,115,-1,115,126,127,-1,115,127,128,-1,124,129,117,-1,117,129,130,-1,117,130,131,-1,128,132,115,-1,115,132,133,-1,115,133,54,-1,54,133,134,-1,54,134,49,-1,49,134,135,-1,49,135,121,-1,131,136,117,-1,117,136,137,-1,117,137,115,-1,115,137,138,-1,115,138,125,-1,100,91,102,-1,102,91,93,-1,102,93,104,-1,104,93,105,-1,104,105,117,-1,117,105,68,-1,117,68,49,-1,49,68,66,-1,49,66,3,-1,3,66,46,-1,3,46,4,-1,4,46,45,-1,139,14,140,-1,44,32,14,-1,14,32,34,-1,14,34,140,-1,140,34,141,-1,142,141,143,-1,143,141,34,-1,143,34,144,-1,144,34,145,-1,144,145,146,-1,64,71,46,-1,46,71,70,-1,46,70,48,-1,48,70,147,-1,48,147,148,-1,148,147,149,-1,140,146,139,-1,139,146,145,-1,139,145,150,-1,150,145,151,-1,39,47,34,-1,34,47,48,-1,34,48,145,-1,145,48,148,-1,145,148,151,-1,151,148,152,-1,153,149,154,-1,154,149,155,-1,154,155,156,-1,156,155,152,-1,156,152,157,-1,157,152,148,-1,157,148,153,-1,153,148,149,-1,152,158,159,-1,158,152,160,-1,160,152,155,-1,160,155,161,-1,161,155,80,-1,161,80,159,-1,159,80,75,-1,159,75,152,-1,152,75,77,-1,152,77,151,-1,151,77,79,-1,151,79,150,-1,98,162,95,-1,95,162,163,-1,95,163,109,-1,109,163,164,-1,109,164,74,-1,74,164,165,-1,74,165,72,-1,72,165,166,-1,72,166,70,-1,70,166,167,-1,70,167,147,-1,147,167,168,-1,147,168,149,-1,149,168,169,-1,149,169,155,-1,155,169,170,-1,155,170,80,-1,80,170,171,-1,80,171,81,-1,81,171,172,-1,173,174,175,-1,175,174,176,-1,175,176,177,-1,177,176,178,-1,177,178,179,-1,179,178,180,-1,181,182,183,-1,183,182,184,-1,183,184,185,-1,185,184,186,-1,185,186,187,-1,187,186,188,-1,189,190,191,-1,191,190,192,-1,191,192,193,-1,193,192,194,-1,193,194,195,-1,195,194,196,-1,197,198,199,-1,199,198,200,-1,199,200,201,-1,201,200,202,-1,201,202,203,-1,203,202,204,-1,205,206,207,-1,207,206,208,-1,207,208,209,-1,209,208,210,-1,209,210,211,-1,211,210,212,-1,213,214,215,-1,216,217,218,-1,219,220,218,-1,218,220,213,-1,218,213,216,-1,216,213,215,-1,221,222,220,-1,220,222,213,-1,219,218,223,-1,223,218,224,-1,225,226,227,-1,227,226,228,-1,226,229,228,-1,228,229,230,-1,217,216,231,-1,232,233,234,-1,235,236,237,-1,238,239,240,-1,234,238,232,-1,232,238,240,-1,232,240,237,-1,237,240,217,-1,237,217,235,-1,235,217,231,-1,233,241,234,-1,234,241,242,-1,243,244,245,-1,246,247,245,-1,245,247,248,-1,245,248,243,-1,241,249,242,-1,242,249,250,-1,251,247,252,-1,252,247,246,-1,250,249,252,-1,252,249,251,-1,253,254,255,-1,256,257,215,-1,215,257,216,-1,257,253,216,-1,216,253,255,-1,216,255,231,-1,231,255,258,-1,231,258,259,-1,259,258,260,-1,259,260,261,-1,261,260,262,-1,261,262,263,-1,263,262,264,-1,263,264,265,-1,265,264,266,-1,265,266,267,-1,267,266,268,-1,267,268,215,-1,215,268,269,-1,215,269,256,-1,203,204,261,-1,261,263,212,-1,212,263,270,-1,271,272,273,-1,273,272,206,-1,273,206,274,-1,275,276,204,-1,204,276,190,-1,204,190,261,-1,196,277,278,-1,179,180,232,-1,274,206,279,-1,279,206,205,-1,279,205,270,-1,270,205,211,-1,270,211,212,-1,280,281,212,-1,212,281,198,-1,212,198,261,-1,261,198,197,-1,261,197,203,-1,278,182,196,-1,196,182,229,-1,196,229,195,-1,195,229,261,-1,195,261,189,-1,189,261,190,-1,241,233,249,-1,249,233,232,-1,249,232,251,-1,251,232,180,-1,251,180,247,-1,247,180,248,-1,282,283,188,-1,188,283,174,-1,188,174,232,-1,232,174,173,-1,232,173,179,-1,182,181,229,-1,229,181,187,-1,229,187,230,-1,230,187,188,-1,230,188,284,-1,284,188,232,-1,285,283,286,-1,286,283,282,-1,287,281,288,-1,288,281,280,-1,289,276,290,-1,290,276,275,-1,291,278,292,-1,292,278,277,-1,270,293,279,-1,279,293,294,-1,295,273,296,-1,296,273,274,-1,293,297,294,-1,294,297,298,-1,299,295,300,-1,300,295,296,-1,298,297,301,-1,301,297,302,-1,301,302,303,-1,303,302,304,-1,303,304,300,-1,300,304,299,-1,305,306,307,-1,307,306,272,-1,307,272,308,-1,308,272,271,-1,304,267,215,-1,309,308,271,-1,310,311,309,-1,295,299,304,-1,271,273,309,-1,309,273,295,-1,309,295,310,-1,310,295,304,-1,310,304,214,-1,214,304,215,-1,99,312,100,-1,100,312,313,-1,100,313,91,-1,91,313,89,-1,99,101,312,-1,312,101,103,-1,103,115,312,-1,312,115,54,-1,312,54,314,-1,54,53,314,-1,314,53,14,-1,314,14,139,-1,139,150,314,-1,314,150,79,-1,314,79,78,-1,315,314,78,-1,78,76,315,-1,315,76,86,-1,315,86,85,-1,315,85,316,-1,316,85,84,-1,316,84,317,-1,317,84,83,-1,317,83,318,-1,318,83,82,-1,172,319,81,-1,81,319,318,-1,81,318,82,-1,172,171,319,-1,319,171,170,-1,319,170,169,-1,169,168,319,-1,319,168,167,-1,319,167,320,-1,320,167,166,-1,320,166,165,-1,165,164,320,-1,320,164,163,-1,320,163,162,-1,90,321,98,-1,98,321,320,-1,98,320,162,-1,321,90,322,-1,322,90,88,-1,322,88,323,-1,323,88,87,-1,323,87,313,-1,313,87,89,-1,260,313,262,-1,262,313,312,-1,258,323,260,-1,260,323,313,-1,314,264,312,-1,312,264,262,-1,255,322,258,-1,258,322,323,-1,315,266,314,-1,314,266,264,-1,254,321,255,-1,255,321,322,-1,316,268,315,-1,315,268,266,-1,253,320,254,-1,254,320,321,-1,317,269,316,-1,316,269,268,-1,257,319,253,-1,253,319,320,-1,318,256,317,-1,317,256,269,-1,256,318,257,-1,257,318,319,-1,302,265,304,-1,304,265,267,-1,293,270,297,-1,297,270,263,-1,297,263,302,-1,302,263,265,-1,213,222,214,-1,214,222,310,-1,222,221,310,-1,310,221,311,-1,221,324,311,-1,311,324,309,-1,324,307,309,-1,309,307,308,-1,307,324,305,-1,305,324,221,-1,
        ]
    }
}
Shape{
    appearance Appearance {
        material  Material 	{
            diffuseColor 0.8509803921568627 0.8509803921568627 0.8509803921568627
            specularColor 0.4235294117647059 0.4235294117647059 0.4235294117647059
            ambientIntensity 0.851
            transparency 0.0
            shininess 0.5
        }
    }
    geometry IndexedFaceSet {
        ccw TRUE
        solid FALSE
        coord DEF co Coordinate {
            point [
                -1.2402 -0.5905 0.0039, -1.2402 -0.5905 0.0, -1.3189 -0.5905 0.0039, -1.3189 -0.5905 0.0, -1.2402 -0.9842 0.0, -1.2402 -1.0046 0.0027, -1.2402 -0.8268 0.4724, -1.2402 -1.063 0.4724, -1.2402 -0.8268 0.2402, -1.2402 -1.063 0.0787, -1.2402 -1.0603 0.0584, -1.2402 -1.0524 0.0394, -1.2402 -1.0399 0.0231, -1.2402 -0.5905 0.2402, -1.2402 -1.0236 0.0105, -1.3189 -0.8268 0.4724, -1.3189 -1.063 0.4724, -1.3189 -1.063 0.0787, -1.3189 -0.8268 0.2402, -1.3189 -1.0399 0.0231, -1.3189 -1.0524 0.0394, -1.3189 -1.0603 0.0584, -1.3189 -0.5905 0.2402, -1.3189 -0.9842 0.0, -1.3189 -1.0046 0.0027, -1.3189 -1.0236 0.0105
            ]
        }
        coordIndex [
            0,1,2,-1,2,1,3,-1,1,0,4,-1,4,0,5,-1,6,7,8,-1,8,7,9,-1,9,10,8,-1,8,10,11,-1,8,11,12,-1,0,13,5,-1,5,13,8,-1,5,8,14,-1,14,8,12,-1,15,16,6,-1,6,16,7,-1,16,15,17,-1,17,15,18,-1,19,20,18,-1,18,20,21,-1,18,21,17,-1,18,22,2,-1,3,23,2,-1,2,23,24,-1,2,24,18,-1,18,24,25,-1,18,25,19,-1,23,3,4,-1,4,3,1,-1,9,7,17,-1,17,7,16,-1,
        ]
    }
}
Shape{
    appearance Appearance {
        material  Material 	{
            diffuseColor 0.8431372549019608 0.8156862745098039 0.7529411764705882
            specularColor 0.25098039215686274 0.24313725490196078 0.22745098039215686
            ambientIntensity 0.8167
            transparency 0.0
            shininess 0.5
        }
    }
    geometry IndexedFaceSet {
        ccw TRUE
        solid FALSE
        coord DEF co Coordinate {
            point [
                0.0787 0.6102 0.9094, 0.0787 0.6102 0.0039, 0.0787 0.4921 0.9094, 0.0787 0.4921 0.0039, -0.0787 0.4921 0.9094, -0.0787 0.4921 0.0039, -0.0787 0.6102 0.9094, -0.0787 0.6102 0.0039, -0.315 0.6102 0.9094, -0.315 0.6102 0.0039, -0.315 0.4921 0.9094, -0.315 0.4921 0.0039, -0.4724 0.4921 0.9094, -0.4724 0.4921 0.0039, -0.4724 0.6102 0.9094, -0.4724 0.6102 0.0039, -0.7087 0.6102 0.9094, -0.7087 0.6102 0.0039, -0.7087 0.4921 0.9094, -0.7087 0.4921 0.0039, -0.8661 0.4921 0.9094, -0.8661 0.4921 0.0039, -0.8661 0.6102 0.9094, -0.8661 0.6102 0.0039, 0.4724 0.6102 0.9094, 0.4724 0.6102 0.0039, 0.4724 0.4921 0.9094, 0.4724 0.4921 0.0039, 0.315 0.4921 0.9094, 0.315 0.4921 0.0039, 0.315 0.6102 0.9094, 0.315 0.6102 0.0039, 0.8661 0.6102 0.9094, 0.8661 0.6102 0.0039, 0.8661 0.4921 0.9094, 0.8661 0.4921 0.0039, 0.7087 0.4921 0.9094, 0.7087 0.4921 0.0039, 0.7087 0.6102 0.9094, 0.7087 0.6102 0.0039
            ]
        }
        coordIndex [
            0,1,2,-1,2,1,3,-1,4,5,6,-1,6,5,7,-1,8,9,10,-1,10,9,11,-1,12,13,14,-1,14,13,15,-1,16,17,18,-1,18,17,19,-1,20,21,22,-1,22,21,23,-1,24,25,26,-1,26,25,27,-1,28,29,30,-1,30,29,31,-1,32,33,34,-1,34,33,35,-1,36,37,38,-1,38,37,39,-1,
        ]
    }
}
Shape{
    appearance Appearance {
        material  Material 	{
            diffuseColor 0.8509803921568627 0.8509803921568627 0.8509803921568627
            specularColor 0.4235294117647059 0.4235294117647059 0.4235294117647059
            ambientIntensity 0.851
            transparency 0.0
            shininess 0.5
        }
    }
    geometry IndexedFaceSet {
        ccw TRUE
        solid FALSE
        coord DEF co Coordinate {
            point [
                -1.2402 -1.063 0.0787, -1.3189 -1.063 0.0787, -1.3189 -1.0603 0.0584, -1.2402 -1.0603 0.0584, -1.3189 -1.0524 0.0394, -1.2402 -1.0524 0.0394, -1.3189 -1.0399 0.0231, -1.2402 -1.0399 0.0231, -1.3189 -1.0236 0.0105, -1.2402 -1.0236 0.0105, -1.3189 -1.0046 0.0027, -1.2402 -1.0046 0.0027, -1.3189 -0.9842 0.0, -1.2402 -0.9842 0.0
            ]
        }
        coordIndex [
            0,1,2,-1,0,2,3,-1,3,2,4,-1,3,4,5,-1,5,4,6,-1,5,6,7,-1,7,6,8,-1,7,8,9,-1,9,8,10,-1,9,10,11,-1,11,10,12,-1,11,12,13,-1,
        ]
    }
}
Shape{
    appearance Appearance {
        material  Material 	{
            diffuseColor 0.8431372549019608 0.8156862745098039 0.7529411764705882
            specularColor 0.25098039215686274 0.24313725490196078 0.22745098039215686
            ambientIntensity 0.8167
            transparency 0.0
            shininess 0.5
        }
    }
    geometry IndexedFaceSet {
        ccw TRUE
        solid FALSE
        coord DEF co Coordinate {
            point [
                1.1811 -1.063 0.4764, 1.1811 -0.8268 0.4764, 1.378 -1.063 0.4764, 1.378 -0.8268 0.4764, 1.3189 -0.8268 0.2402, 1.378 -0.8268 0.2402, 1.3189 -0.8268 0.4724, 1.2402 -0.8268 0.4724, 1.2402 -0.8268 0.2402, 1.1811 -0.8268 0.2402, 1.378 -0.5905 0.2402, 1.3189 -0.5905 0.2402, 1.378 -0.5905 0.0039, 1.3189 -0.5905 0.0039, 1.1811 -1.063 0.0039, 1.1811 -0.5905 0.2402, 1.1811 -0.5905 0.0039, 1.1024 0.6102 0.6732, 1.063 0.6102 0.6732, 1.1024 0.4921 0.6732, 1.063 0.374 0.6732, 1.2598 0.4921 0.6732, 1.378 0.374 0.6732, 1.2598 0.6102 0.6732, 1.378 0.6102 0.6732, 1.063 0.374 0.9094, 1.378 0.374 0.9094, 1.063 0.1378 0.9094, 1.378 0.1378 0.9094, 1.063 0.1378 1.1457, 1.378 0.1378 1.1457, 1.063 0.6102 0.9094
            ]
        }
        coordIndex [
            0,1,2,-1,2,1,3,-1,4,5,6,-1,6,5,3,-1,6,3,7,-1,7,3,1,-1,7,1,8,-1,8,1,9,-1,10,5,11,-1,11,5,4,-1,12,10,13,-1,13,10,11,-1,1,0,9,-1,9,0,14,-1,9,14,15,-1,15,14,16,-1,17,18,19,-1,19,18,20,-1,19,20,21,-1,21,20,22,-1,21,22,23,-1,23,22,24,-1,20,25,22,-1,22,25,26,-1,25,27,26,-1,26,27,28,-1,27,29,28,-1,28,29,30,-1,20,18,25,-1,25,18,31,-1,
        ]
    }
}
Shape{
    appearance Appearance {
        material  Material 	{
            diffuseColor 0.8509803921568627 0.8509803921568627 0.8509803921568627
            specularColor 0.4235294117647059 0.4235294117647059 0.4235294117647059
            ambientIntensity 0.851
            transparency 0.0
            shininess 0.5
        }
    }
    geometry IndexedFaceSet {
        ccw TRUE
        solid FALSE
        coord DEF co Coordinate {
            point [
                1.3189 -0.5905 0.0039, 1.3189 -0.5905 0.0, 1.2402 -0.5905 0.0039, 1.2402 -0.5905 0.0, 1.2402 -1.063 0.4724, 1.2402 -0.8268 0.4724, 1.2402 -1.063 0.0787, 1.2402 -0.8268 0.2402, 1.2402 -1.0399 0.0231, 1.2402 -1.0524 0.0394, 1.2402 -1.0603 0.0584, 1.2402 -0.5905 0.2402, 1.2402 -0.9842 0.0, 1.2402 -1.0046 0.0027, 1.2402 -1.0236 0.0105, 1.3189 -0.9842 0.0, 1.3189 -1.0046 0.0027, 1.3189 -0.8268 0.4724, 1.3189 -1.063 0.4724, 1.3189 -0.8268 0.2402, 1.3189 -1.063 0.0787, 1.3189 -1.0603 0.0584, 1.3189 -1.0524 0.0394, 1.3189 -1.0399 0.0231, 1.3189 -0.5905 0.2402, 1.3189 -1.0236 0.0105
            ]
        }
        coordIndex [
            0,1,2,-1,2,1,3,-1,4,5,6,-1,6,5,7,-1,8,9,7,-1,7,9,10,-1,7,10,6,-1,7,11,2,-1,3,12,2,-1,2,12,13,-1,2,13,7,-1,7,13,14,-1,7,14,8,-1,12,3,15,-1,15,3,1,-1,1,0,15,-1,15,0,16,-1,17,18,19,-1,19,18,20,-1,20,21,19,-1,19,21,22,-1,19,22,23,-1,0,24,16,-1,16,24,19,-1,16,19,25,-1,25,19,23,-1,5,4,17,-1,17,4,18,-1,20,18,6,-1,6,18,4,-1,20,6,10,-1,20,10,21,-1,21,10,9,-1,21,9,22,-1,22,9,8,-1,22,8,23,-1,23,8,14,-1,23,14,25,-1,25,14,13,-1,25,13,16,-1,16,13,12,-1,16,12,15,-1,
        ]
    }
}
Shape{
    appearance Appearance {
        material  Material 	{
            diffuseColor 0.8431372549019608 0.8156862745098039 0.7529411764705882
            specularColor 0.25098039215686274 0.24313725490196078 0.22745098039215686
            ambientIntensity 0.8167
            transparency 0.0
            shininess 0.5
        }
    }
    geometry IndexedFaceSet {
        ccw TRUE
        solid FALSE
        coord DEF co Coordinate {
            point [
                -0.4724 0.4921 0.9094, -0.4724 0.6102 0.9094, -0.7087 0.6102 0.9094, -0.8661 0.6102 0.9094, -1.063 0.6102 0.9094, -0.8661 0.4921 0.9094, -1.063 0.374 0.9094, -0.7087 0.4921 0.9094, 1.063 0.374 0.9094, 1.063 0.6102 0.9094, 0.8661 0.6102 0.9094, 0.8661 0.4921 0.9094, 0.7087 0.4921 0.9094, 0.7087 0.6102 0.9094, 0.4724 0.6102 0.9094, 0.4724 0.4921 0.9094, 0.315 0.4921 0.9094, 0.315 0.6102 0.9094, 0.0787 0.6102 0.9094, 0.0787 0.4921 0.9094, -0.0787 0.4921 0.9094, -0.0787 0.6102 0.9094, -0.315 0.6102 0.9094, -0.315 0.4921 0.9094, 1.063 0.374 1.1457, -1.063 0.374 1.1457
            ]
        }
        coordIndex [
            0,1,2,-1,3,4,5,-1,5,4,6,-1,5,6,7,-1,7,6,8,-1,9,10,8,-1,8,10,11,-1,8,11,12,-1,13,14,12,-1,12,14,15,-1,12,15,8,-1,8,15,16,-1,17,18,16,-1,16,18,19,-1,16,19,8,-1,8,19,20,-1,21,22,20,-1,20,22,23,-1,20,23,8,-1,8,23,0,-1,8,0,7,-1,7,0,2,-1,24,8,25,-1,25,8,6,-1,
        ]
    }
}
Shape{
    appearance Appearance {
        material  Material 	{
            diffuseColor 0.8509803921568627 0.8509803921568627 0.8509803921568627
            specularColor 0.4235294117647059 0.4235294117647059 0.4235294117647059
            ambientIntensity 0.851
            transparency 0.0
            shininess 0.5
        }
    }
    geometry IndexedFaceSet {
        ccw TRUE
        solid FALSE
        coord DEF co Coordinate {
            point [
                -0.8268 0.5341 0.8204, -0.748 0.5341 0.8204, -0.748 0.5518 0.8187, -0.8268 0.5518 0.8187, -0.748 0.5687 0.813, -0.8268 0.5687 0.813, -0.748 0.5839 0.8037, -0.8268 0.5839 0.8037, -0.748 0.5966 0.7912, -0.8268 0.5966 0.7912, -0.748 0.6062 0.7762, -0.8268 0.6062 0.7762, -0.748 0.6122 0.7594, -0.8268 0.6122 0.7594, -0.748 0.6142 0.7417, -0.8268 0.6142 0.7417, -0.748 0.6142 0.13, -0.8268 0.6142 0.13, -0.748 0.6535 0.13, -0.8268 0.6535 0.13, -0.748 0.6941 0.0535, -0.8268 0.6941 0.0535, -0.748 0.8858 0.0197, -0.8268 0.8858 0.0197, -0.748 0.8858 0.0, -0.8268 0.8858 0.0, -0.748 0.4921 0.0, -0.8268 0.4921 0.0, -0.748 0.4921 0.0039, -0.748 0.4921 0.8197, -0.8268 0.4921 0.0039, -0.8268 0.4921 0.8197, -0.748 -0.6146 0.801, -0.748 0.1181 0.8134, -0.8268 -0.6146 0.801, -0.8268 0.1181 0.8134, -0.8268 0.1181 0.6685, -0.8268 -0.6146 0.6809, -0.8268 -0.6727 0.74, -0.8268 -0.6437 0.6892, -0.8268 -0.6557 0.6986, -0.8268 -0.6297 0.6832, -0.8268 -0.6649 0.7107, -0.8268 -0.6707 0.7249, -0.8268 -0.6727 0.742, -0.8268 -0.6707 0.7571, -0.8268 -0.6649 0.7712, -0.8268 -0.6557 0.7834, -0.8268 -0.6437 0.7928, -0.8268 -0.6297 0.7988, -0.748 -0.6146 0.6809, -0.748 0.1181 0.6685, -0.748 -0.6707 0.7571, -0.748 -0.6727 0.742, -0.748 -0.6727 0.74, -0.748 -0.6437 0.7928, -0.748 -0.6557 0.7834, -0.748 -0.6649 0.7712, -0.748 -0.6707 0.7249, -0.748 -0.6649 0.7107, -0.748 -0.6297 0.6832, -0.748 -0.6557 0.6986, -0.748 -0.6437 0.6892, -0.748 -0.6297 0.7988, -0.4331 0.5341 0.8204, -0.3543 0.5341 0.8204, -0.3543 0.5518 0.8187, -0.4331 0.5518 0.8187, -0.3543 0.5687 0.813, -0.4331 0.5687 0.813, -0.3543 0.5839 0.8037, -0.4331 0.5839 0.8037, -0.3543 0.5966 0.7912, -0.4331 0.5966 0.7912, -0.3543 0.6062 0.7762, -0.4331 0.6062 0.7762, -0.3543 0.6122 0.7594, -0.4331 0.6122 0.7594, -0.3543 0.6142 0.7417, -0.4331 0.6142 0.7417, -0.3543 0.6142 0.13, -0.4331 0.6142 0.13, -0.3543 0.6535 0.13, -0.4331 0.6535 0.13, -0.3543 0.6941 0.0535, -0.4331 0.6941 0.0535, -0.3543 0.8858 0.0197, -0.4331 0.8858 0.0197, -0.3543 0.8858 0.0, -0.4331 0.8858 0.0, -0.3543 0.4921 0.0, -0.4331 0.4921 0.0, -0.3543 0.4921 0.0039, -0.3543 0.4921 0.8197, -0.4331 0.4921 0.0039, -0.4331 0.4921 0.8197, -0.3543 -0.6146 0.801, -0.3543 0.1181 0.8134, -0.4331 -0.6146 0.801, -0.4331 0.1181 0.8134, -0.4331 0.1181 0.6685, -0.4331 -0.6146 0.6809, -0.4331 -0.6727 0.74, -0.4331 -0.6437 0.6892, -0.4331 -0.6557 0.6986, -0.4331 -0.6297 0.6832, -0.4331 -0.6649 0.7107, -0.4331 -0.6707 0.7249, -0.4331 -0.6727 0.742, -0.4331 -0.6707 0.7571, -0.4331 -0.6649 0.7712, -0.4331 -0.6557 0.7834, -0.4331 -0.6437 0.7928, -0.4331 -0.6297 0.7988, -0.3543 -0.6146 0.6809, -0.3543 0.1181 0.6685, -0.3543 -0.6707 0.7571, -0.3543 -0.6727 0.742, -0.3543 -0.6727 0.74, -0.3543 -0.6437 0.7928, -0.3543 -0.6557 0.7834, -0.3543 -0.6649 0.7712, -0.3543 -0.6707 0.7249, -0.3543 -0.6649 0.7107, -0.3543 -0.6297 0.6832, -0.3543 -0.6557 0.6986, -0.3543 -0.6437 0.6892, -0.3543 -0.6297 0.7988, -0.0394 0.5341 0.8204, 0.0394 0.5341 0.8204, 0.0394 0.5518 0.8187, -0.0394 0.5518 0.8187, 0.0394 0.5687 0.813, -0.0394 0.5687 0.813, 0.0394 0.5839 0.8037, -0.0394 0.5839 0.8037, 0.0394 0.5966 0.7912, -0.0394 0.5966 0.7912, 0.0394 0.6062 0.7762, -0.0394 0.6062 0.7762, 0.0394 0.6122 0.7594, -0.0394 0.6122 0.7594, 0.0394 0.6142 0.7417, -0.0394 0.6142 0.7417, 0.0394 0.6142 0.13, -0.0394 0.6142 0.13, 0.0394 0.6535 0.13, -0.0394 0.6535 0.13, 0.0394 0.6941 0.0535, -0.0394 0.6941 0.0535, 0.0394 0.8858 0.0197, -0.0394 0.8858 0.0197, 0.0394 0.8858 0.0, -0.0394 0.8858 0.0, 0.0394 0.4921 0.0, -0.0394 0.4921 0.0, 0.0394 0.4921 0.0039, 0.0394 0.4921 0.8197, -0.0394 0.4921 0.0039, -0.0394 0.4921 0.8197, -0.0394 0.1181 0.8134, -0.0394 -0.6146 0.801, 0.0245 0.1181 0.8134, 0.0394 -0.6146 0.801, 0.0394 0.1181 0.8134, -0.0394 0.1181 0.6685, -0.0394 -0.6146 0.6809, -0.0394 -0.6727 0.74, -0.0394 -0.6437 0.6892, -0.0394 -0.6557 0.6986, -0.0394 -0.6297 0.6832, -0.0394 -0.6649 0.7107, -0.0394 -0.6707 0.7249, -0.0394 -0.6727 0.742, -0.0394 -0.6707 0.7571, -0.0394 -0.6649 0.7712, -0.0394 -0.6557 0.7834, -0.0394 -0.6437 0.7928, -0.0394 -0.6297 0.7988, 0.0394 -0.6146 0.6809, 0.0394 0.1181 0.6685, 0.0394 -0.6707 0.7571, 0.0394 -0.6727 0.742, 0.0394 -0.6727 0.74, 0.0394 -0.6437 0.7928, 0.0394 -0.6557 0.7834, 0.0394 -0.6649 0.7712, 0.0394 -0.6707 0.7249, 0.0394 -0.6649 0.7107, 0.0394 -0.6297 0.6832, 0.0394 -0.6557 0.6986, 0.0394 -0.6437 0.6892, 0.0394 -0.6297 0.7988, 0.0245 0.1181 0.6685, 0.3543 0.5341 0.8204, 0.4331 0.5341 0.8204, 0.4331 0.5518 0.8187, 0.3543 0.5518 0.8187, 0.4331 0.5687 0.813, 0.3543 0.5687 0.813, 0.4331 0.5839 0.8037, 0.3543 0.5839 0.8037, 0.4331 0.5966 0.7912, 0.3543 0.5966 0.7912, 0.4331 0.6062 0.7762, 0.3543 0.6062 0.7762, 0.4331 0.6122 0.7594, 0.3543 0.6122 0.7594, 0.4331 0.6142 0.7417, 0.3543 0.6142 0.7417, 0.4331 0.6142 0.13, 0.3543 0.6142 0.13, 0.4331 0.6535 0.13, 0.3543 0.6535 0.13, 0.4331 0.6941 0.0535, 0.3543 0.6941 0.0535, 0.4331 0.8858 0.0197, 0.3543 0.8858 0.0197, 0.4331 0.8858 0.0, 0.3543 0.8858 0.0, 0.4331 0.4921 0.0, 0.3543 0.4921 0.0, 0.4331 0.4921 0.0039, 0.4331 0.4921 0.8197, 0.3543 0.4921 0.0039, 0.3543 0.4921 0.8197, 0.4331 -0.6146 0.801, 0.4331 0.1181 0.8134, 0.3543 -0.6146 0.801, 0.3543 0.1181 0.8134, 0.3543 0.1181 0.6685, 0.3543 -0.6146 0.6809, 0.3543 -0.6727 0.74, 0.3543 -0.6437 0.6892, 0.3543 -0.6557 0.6986, 0.3543 -0.6297 0.6832, 0.3543 -0.6649 0.7107, 0.3543 -0.6707 0.7249, 0.3543 -0.6727 0.742, 0.3543 -0.6707 0.7571, 0.3543 -0.6649 0.7712, 0.3543 -0.6557 0.7834, 0.3543 -0.6437 0.7928, 0.3543 -0.6297 0.7988, 0.4331 -0.6146 0.6809, 0.4331 0.1181 0.6685, 0.4331 -0.6707 0.7571, 0.4331 -0.6727 0.742, 0.4331 -0.6727 0.74, 0.4331 -0.6437 0.7928, 0.4331 -0.6557 0.7834, 0.4331 -0.6649 0.7712, 0.4331 -0.6707 0.7249, 0.4331 -0.6649 0.7107, 0.4331 -0.6297 0.6832, 0.4331 -0.6557 0.6986, 0.4331 -0.6437 0.6892, 0.4331 -0.6297 0.7988, 0.748 0.5341 0.8204, 0.8268 0.5341 0.8204, 0.8268 0.5518 0.8187, 0.748 0.5518 0.8187, 0.8268 0.5687 0.813, 0.748 0.5687 0.813, 0.8268 0.5839 0.8037, 0.748 0.5839 0.8037, 0.8268 0.5966 0.7912, 0.748 0.5966 0.7912, 0.8268 0.6062 0.7762, 0.748 0.6062 0.7762, 0.8268 0.6122 0.7594, 0.748 0.6122 0.7594, 0.8268 0.6142 0.7417, 0.748 0.6142 0.7417, 0.8268 0.6142 0.13, 0.748 0.6142 0.13, 0.8268 0.6535 0.13, 0.748 0.6535 0.13, 0.8268 0.6941 0.0535, 0.748 0.6941 0.0535, 0.8268 0.8858 0.0197, 0.748 0.8858 0.0197, 0.8268 0.8858 0.0, 0.748 0.8858 0.0, 0.8268 0.4921 0.0, 0.748 0.4921 0.0, 0.8268 0.4921 0.0039, 0.8268 0.4921 0.8197, 0.748 0.4921 0.0039, 0.748 0.4921 0.8197, 0.8268 -0.6146 0.801, 0.8268 0.1181 0.8134, 0.748 -0.6146 0.801, 0.748 0.1181 0.8134, 0.748 0.1181 0.6685, 0.748 -0.6146 0.6809, 0.748 -0.6727 0.74, 0.748 -0.6437 0.6892, 0.748 -0.6557 0.6986, 0.748 -0.6297 0.6832, 0.748 -0.6649 0.7107, 0.748 -0.6707 0.7249, 0.748 -0.6727 0.742, 0.748 -0.6707 0.7571, 0.748 -0.6649 0.7712, 0.748 -0.6557 0.7834, 0.748 -0.6437 0.7928, 0.748 -0.6297 0.7988, 0.8268 -0.6146 0.6809, 0.8268 0.1181 0.6685, 0.8268 -0.6707 0.7571, 0.8268 -0.6727 0.742, 0.8268 -0.6727 0.74, 0.8268 -0.6437 0.7928, 0.8268 -0.6557 0.7834, 0.8268 -0.6649 0.7712, 0.8268 -0.6707 0.7249, 0.8268 -0.6649 0.7107, 0.8268 -0.6297 0.6832, 0.8268 -0.6557 0.6986, 0.8268 -0.6437 0.6892, 0.8268 -0.6297 0.7988
            ]
        }
        coordIndex [
            0,1,2,-1,0,2,3,-1,3,2,4,-1,3,4,5,-1,5,4,6,-1,5,6,7,-1,7,6,8,-1,7,8,9,-1,9,8,10,-1,9,10,11,-1,11,10,12,-1,11,12,13,-1,13,12,14,-1,13,14,15,-1,16,17,14,-1,14,17,15,-1,18,19,16,-1,16,19,17,-1,20,21,18,-1,18,21,19,-1,22,23,20,-1,20,23,21,-1,24,25,22,-1,22,25,23,-1,26,27,24,-1,24,27,25,-1,20,18,16,-1,24,22,26,-1,26,22,20,-1,26,20,28,-1,28,20,16,-1,28,16,29,-1,29,16,14,-1,29,14,1,-1,1,14,2,-1,10,8,6,-1,14,12,2,-1,2,12,10,-1,2,10,4,-1,4,10,6,-1,21,23,25,-1,17,30,15,-1,15,30,31,-1,31,0,15,-1,15,0,3,-1,15,3,13,-1,17,19,30,-1,30,19,21,-1,30,21,27,-1,27,21,25,-1,7,9,11,-1,13,3,11,-1,11,3,5,-1,11,5,7,-1,29,1,31,-1,31,1,0,-1,27,26,30,-1,30,26,28,-1,32,33,34,-1,34,33,35,-1,36,37,38,-1,39,40,41,-1,41,40,42,-1,41,42,37,-1,37,42,43,-1,37,43,38,-1,36,38,35,-1,35,38,44,-1,35,44,34,-1,34,44,45,-1,34,45,46,-1,47,48,46,-1,46,48,49,-1,46,49,34,-1,50,51,33,-1,52,53,32,-1,32,53,33,-1,33,53,54,-1,33,54,50,-1,55,56,57,-1,54,58,50,-1,50,58,59,-1,50,59,60,-1,60,59,61,-1,60,61,62,-1,52,32,57,-1,57,32,63,-1,57,63,55,-1,37,36,50,-1,50,36,51,-1,54,53,38,-1,38,53,44,-1,37,50,60,-1,37,60,41,-1,41,60,62,-1,41,62,39,-1,39,62,61,-1,39,61,40,-1,40,61,59,-1,40,59,42,-1,42,59,58,-1,42,58,43,-1,43,58,54,-1,43,54,38,-1,44,53,52,-1,44,52,45,-1,45,52,57,-1,45,57,46,-1,46,57,56,-1,46,56,47,-1,47,56,55,-1,47,55,48,-1,48,55,63,-1,48,63,49,-1,49,63,32,-1,49,32,34,-1,64,65,66,-1,64,66,67,-1,67,66,68,-1,67,68,69,-1,69,68,70,-1,69,70,71,-1,71,70,72,-1,71,72,73,-1,73,72,74,-1,73,74,75,-1,75,74,76,-1,75,76,77,-1,77,76,78,-1,77,78,79,-1,80,81,78,-1,78,81,79,-1,82,83,80,-1,80,83,81,-1,84,85,82,-1,82,85,83,-1,86,87,84,-1,84,87,85,-1,88,89,86,-1,86,89,87,-1,90,91,88,-1,88,91,89,-1,84,82,80,-1,88,86,90,-1,90,86,84,-1,90,84,92,-1,92,84,80,-1,92,80,93,-1,93,80,78,-1,93,78,65,-1,65,78,66,-1,74,72,70,-1,78,76,66,-1,66,76,74,-1,66,74,68,-1,68,74,70,-1,85,87,89,-1,81,94,79,-1,79,94,95,-1,95,64,79,-1,79,64,67,-1,79,67,77,-1,81,83,94,-1,94,83,85,-1,94,85,91,-1,91,85,89,-1,71,73,75,-1,77,67,75,-1,75,67,69,-1,75,69,71,-1,93,65,95,-1,95,65,64,-1,91,90,94,-1,94,90,92,-1,96,97,98,-1,98,97,99,-1,100,101,102,-1,103,104,105,-1,105,104,106,-1,105,106,101,-1,101,106,107,-1,101,107,102,-1,100,102,99,-1,99,102,108,-1,99,108,98,-1,98,108,109,-1,98,109,110,-1,111,112,110,-1,110,112,113,-1,110,113,98,-1,114,115,97,-1,116,117,96,-1,96,117,97,-1,97,117,118,-1,97,118,114,-1,119,120,121,-1,118,122,114,-1,114,122,123,-1,114,123,124,-1,124,123,125,-1,124,125,126,-1,116,96,121,-1,121,96,127,-1,121,127,119,-1,101,100,114,-1,114,100,115,-1,118,117,102,-1,102,117,108,-1,128,129,130,-1,128,130,131,-1,131,130,132,-1,131,132,133,-1,133,132,134,-1,133,134,135,-1,135,134,136,-1,135,136,137,-1,137,136,138,-1,137,138,139,-1,139,138,140,-1,139,140,141,-1,141,140,142,-1,141,142,143,-1,144,145,142,-1,142,145,143,-1,146,147,144,-1,144,147,145,-1,148,149,146,-1,146,149,147,-1,150,151,148,-1,148,151,149,-1,152,153,150,-1,150,153,151,-1,154,155,152,-1,152,155,153,-1,148,146,144,-1,152,150,154,-1,154,150,148,-1,154,148,156,-1,156,148,144,-1,156,144,157,-1,157,144,142,-1,157,142,129,-1,129,142,130,-1,138,136,134,-1,142,140,130,-1,130,140,138,-1,130,138,132,-1,132,138,134,-1,149,151,153,-1,145,158,143,-1,143,158,159,-1,159,128,143,-1,143,128,131,-1,143,131,141,-1,145,147,158,-1,158,147,149,-1,158,149,155,-1,155,149,153,-1,135,137,139,-1,141,131,139,-1,139,131,133,-1,139,133,135,-1,157,129,159,-1,159,129,128,-1,155,154,158,-1,158,154,156,-1,160,161,162,-1,162,161,163,-1,162,163,164,-1,165,166,167,-1,168,169,170,-1,170,169,171,-1,170,171,166,-1,166,171,172,-1,166,172,167,-1,165,167,160,-1,160,167,173,-1,160,173,161,-1,161,173,174,-1,161,174,175,-1,176,177,175,-1,175,177,178,-1,175,178,161,-1,179,180,164,-1,181,182,163,-1,163,182,164,-1,164,182,183,-1,164,183,179,-1,184,185,186,-1,183,187,179,-1,179,187,188,-1,179,188,189,-1,189,188,190,-1,189,190,191,-1,181,163,186,-1,186,163,192,-1,186,192,184,-1,180,179,193,-1,193,179,166,-1,193,166,165,-1,183,182,167,-1,167,182,173,-1,194,195,196,-1,194,196,197,-1,197,196,198,-1,197,198,199,-1,199,198,200,-1,199,200,201,-1,201,200,202,-1,201,202,203,-1,203,202,204,-1,203,204,205,-1,205,204,206,-1,205,206,207,-1,207,206,208,-1,207,208,209,-1,210,211,208,-1,208,211,209,-1,212,213,210,-1,210,213,211,-1,214,215,212,-1,212,215,213,-1,216,217,214,-1,214,217,215,-1,218,219,216,-1,216,219,217,-1,220,221,218,-1,218,221,219,-1,214,212,210,-1,218,216,220,-1,220,216,214,-1,220,214,222,-1,222,214,210,-1,222,210,223,-1,223,210,208,-1,223,208,195,-1,195,208,196,-1,204,202,200,-1,208,206,196,-1,196,206,204,-1,196,204,198,-1,198,204,200,-1,215,217,219,-1,211,224,209,-1,209,224,225,-1,225,194,209,-1,209,194,197,-1,209,197,207,-1,211,213,224,-1,224,213,215,-1,224,215,221,-1,221,215,219,-1,201,203,205,-1,207,197,205,-1,205,197,199,-1,205,199,201,-1,223,195,225,-1,225,195,194,-1,221,220,224,-1,224,220,222,-1,226,227,228,-1,228,227,229,-1,230,231,232,-1,233,234,235,-1,235,234,236,-1,235,236,231,-1,231,236,237,-1,231,237,232,-1,230,232,229,-1,229,232,238,-1,229,238,228,-1,228,238,239,-1,228,239,240,-1,241,242,240,-1,240,242,243,-1,240,243,228,-1,244,245,227,-1,246,247,226,-1,226,247,227,-1,227,247,248,-1,227,248,244,-1,249,250,251,-1,248,252,244,-1,244,252,253,-1,244,253,254,-1,254,253,255,-1,254,255,256,-1,246,226,251,-1,251,226,257,-1,251,257,249,-1,231,230,244,-1,244,230,245,-1,248,247,232,-1,232,247,238,-1,258,259,260,-1,258,260,261,-1,261,260,262,-1,261,262,263,-1,263,262,264,-1,263,264,265,-1,265,264,266,-1,265,266,267,-1,267,266,268,-1,267,268,269,-1,269,268,270,-1,269,270,271,-1,271,270,272,-1,271,272,273,-1,274,275,272,-1,272,275,273,-1,276,277,274,-1,274,277,275,-1,278,279,276,-1,276,279,277,-1,280,281,278,-1,278,281,279,-1,282,283,280,-1,280,283,281,-1,284,285,282,-1,282,285,283,-1,278,276,274,-1,282,280,284,-1,284,280,278,-1,284,278,286,-1,286,278,274,-1,286,274,287,-1,287,274,272,-1,287,272,259,-1,259,272,260,-1,268,266,264,-1,272,270,260,-1,260,270,268,-1,260,268,262,-1,262,268,264,-1,279,281,283,-1,275,288,273,-1,273,288,289,-1,289,258,273,-1,273,258,261,-1,273,261,271,-1,275,277,288,-1,288,277,279,-1,288,279,285,-1,285,279,283,-1,265,267,269,-1,271,261,269,-1,269,261,263,-1,269,263,265,-1,287,259,289,-1,289,259,258,-1,285,284,288,-1,288,284,286,-1,290,291,292,-1,292,291,293,-1,294,295,296,-1,297,298,299,-1,299,298,300,-1,299,300,295,-1,295,300,301,-1,295,301,296,-1,294,296,293,-1,293,296,302,-1,293,302,292,-1,292,302,303,-1,292,303,304,-1,305,306,304,-1,304,306,307,-1,304,307,292,-1,308,309,291,-1,310,311,290,-1,290,311,291,-1,291,311,312,-1,291,312,308,-1,313,314,315,-1,312,316,308,-1,308,316,317,-1,308,317,318,-1,318,317,319,-1,318,319,320,-1,310,290,315,-1,315,290,321,-1,315,321,313,-1,295,294,308,-1,308,294,309,-1,312,311,296,-1,296,311,302,-1,101,114,124,-1,101,124,105,-1,105,124,126,-1,105,126,103,-1,103,126,125,-1,103,125,104,-1,104,125,123,-1,104,123,106,-1,106,123,122,-1,106,122,107,-1,107,122,118,-1,107,118,102,-1,108,117,116,-1,108,116,109,-1,109,116,121,-1,109,121,110,-1,110,121,120,-1,110,120,111,-1,111,120,119,-1,111,119,112,-1,112,119,127,-1,112,127,113,-1,113,127,96,-1,113,96,98,-1,166,179,189,-1,166,189,170,-1,170,189,191,-1,170,191,168,-1,168,191,190,-1,168,190,169,-1,169,190,188,-1,169,188,171,-1,171,188,187,-1,171,187,172,-1,172,187,183,-1,172,183,167,-1,173,182,181,-1,173,181,174,-1,174,181,186,-1,174,186,175,-1,175,186,185,-1,175,185,176,-1,176,185,184,-1,176,184,177,-1,177,184,192,-1,177,192,178,-1,178,192,163,-1,178,163,161,-1,231,244,254,-1,231,254,235,-1,235,254,256,-1,235,256,233,-1,233,256,255,-1,233,255,234,-1,234,255,253,-1,234,253,236,-1,236,253,252,-1,236,252,237,-1,237,252,248,-1,237,248,232,-1,238,247,246,-1,238,246,239,-1,239,246,251,-1,239,251,240,-1,240,251,250,-1,240,250,241,-1,241,250,249,-1,241,249,242,-1,242,249,257,-1,242,257,243,-1,243,257,226,-1,243,226,228,-1,295,308,318,-1,295,318,299,-1,299,318,320,-1,299,320,297,-1,297,320,319,-1,297,319,298,-1,298,319,317,-1,298,317,300,-1,300,317,316,-1,300,316,301,-1,301,316,312,-1,301,312,296,-1,302,311,310,-1,302,310,303,-1,303,310,315,-1,303,315,304,-1,304,315,314,-1,304,314,305,-1,305,314,313,-1,305,313,306,-1,306,313,321,-1,306,321,307,-1,307,321,290,-1,307,290,292,-1,
        ]
    }
}
Shape{
    appearance Appearance {
        material  Material 	{
            diffuseColor 0.4392156862745098 0.4392156862745098 0.4392156862745098
            specularColor 0.2196078431372549 0.2196078431372549 0.2196078431372549
            ambientIntensity 0.4392
            transparency 0.0
            shininess 0.5
        }
    }
    geometry IndexedFaceSet {
        ccw TRUE
        solid FALSE
        coord DEF co Coordinate {
            point [
                0.2002 0.122 0.5393, 0.2463 0.122 0.4211, 0.2002 0.1181 0.5393, 0.2463 0.1181 0.4211, 0.229 0.122 0.4211, 0.229 0.1181 0.4211, 0.2171 0.122 0.4543, 0.2171 0.1181 0.4543, 0.1683 0.122 0.4543, 0.1683 0.1181 0.4543, 0.157 0.122 0.4211, 0.157 0.1181 0.4211, 0.1397 0.122 0.4211, 0.1397 0.1181 0.4211, 0.1844 0.122 0.5393, 0.1844 0.1181 0.5393, 0.1723 0.122 0.4672, 0.1899 0.122 0.5166, 0.191 0.122 0.5207, 0.1918 0.122 0.5249, 0.1922 0.122 0.5249, 0.1929 0.122 0.5207, 0.2118 0.122 0.4672, 0.194 0.122 0.5166, 0.1723 0.1181 0.4672, 0.2118 0.1181 0.4672, 0.1899 0.1181 0.5166, 0.191 0.1181 0.5207, 0.1918 0.1181 0.5249, 0.1922 0.1181 0.5249, 0.1929 0.1181 0.5207, 0.194 0.1181 0.5166, 0.0681 0.122 0.4211, 0.036 0.122 0.4211, 0.0681 0.1181 0.4211, 0.036 0.1181 0.4211, 0.036 0.122 0.5393, 0.036 0.1181 0.5393, 0.0693 0.122 0.5393, 0.0693 0.1181 0.5393, 0.1311 0.122 0.4817, 0.1311 0.1181 0.4817, 0.1302 0.1181 0.4928, 0.1302 0.122 0.4928, 0.127 0.1181 0.5044, 0.127 0.122 0.5044, 0.1216 0.1181 0.5146, 0.1216 0.122 0.5146, 0.1132 0.1181 0.5239, 0.1132 0.122 0.5239, 0.1131 0.1181 0.524, 0.1131 0.122 0.524, 0.1002 0.1181 0.5326, 0.1002 0.122 0.5326, 0.0864 0.1181 0.5374, 0.0864 0.122 0.5374, 0.0827 0.1181 0.4224, 0.0827 0.122 0.4224, 0.0963 0.1181 0.4265, 0.0963 0.122 0.4265, 0.1087 0.1181 0.4336, 0.1087 0.122 0.4336, 0.1184 0.1181 0.443, 0.1184 0.122 0.443, 0.1252 0.1181 0.4535, 0.1252 0.122 0.4535, 0.1294 0.1181 0.4659, 0.1294 0.122 0.4659, 0.1074 0.122 0.5097, 0.1016 0.122 0.5158, 0.093 0.122 0.5214, 0.0833 0.122 0.5248, 0.0693 0.122 0.5263, 0.0519 0.122 0.5263, 0.0519 0.122 0.4341, 0.0686 0.122 0.4341, 0.0811 0.122 0.4353, 0.091 0.122 0.4384, 0.0991 0.122 0.4432, 0.1057 0.122 0.4497, 0.1107 0.122 0.4578, 0.1141 0.122 0.4689, 0.1152 0.122 0.4814, 0.1142 0.122 0.4931, 0.1115 0.122 0.5024, 0.0693 0.1181 0.5263, 0.0519 0.1181 0.5263, 0.0833 0.1181 0.5248, 0.093 0.1181 0.5214, 0.1016 0.1181 0.5158, 0.1074 0.1181 0.5097, 0.1115 0.1181 0.5024, 0.1142 0.1181 0.4931, 0.1152 0.1181 0.4814, 0.1141 0.1181 0.4689, 0.1107 0.1181 0.4578, 0.1057 0.1181 0.4497, 0.0991 0.1181 0.4432, 0.091 0.1181 0.4384, 0.0811 0.1181 0.4353, 0.0686 0.1181 0.4341, 0.0519 0.1181 0.4341, 0.013 0.122 0.4341, 0.013 0.122 0.4211, 0.013 0.1181 0.4341, 0.013 0.1181 0.4211, -0.0449 0.1181 0.4211, -0.0504 0.122 0.4211, -0.0504 0.1181 0.4211, -0.0504 0.122 0.5393, -0.0504 0.1181 0.5393, 0.0101 0.122 0.5393, 0.0101 0.1181 0.5393, -0.0449 0.1181 0.5393, 0.0101 0.122 0.5263, 0.0101 0.1181 0.5263, -0.0346 0.122 0.5263, -0.0346 0.1181 0.5263, -0.0346 0.122 0.4874, -0.0346 0.1181 0.4874, 0.0072 0.122 0.4874, 0.0072 0.1181 0.4874, 0.0072 0.122 0.4744, 0.0072 0.1181 0.4744, -0.0346 0.122 0.4744, -0.0346 0.1181 0.4744, -0.0346 0.122 0.4341, -0.0346 0.1181 0.4341, -0.0735 0.122 0.4402, -0.0735 0.122 0.4273, -0.0735 0.1181 0.4402, -0.0735 0.1181 0.4273, -0.106 0.122 0.4197, -0.106 0.1181 0.4197, -0.1027 0.1181 0.4198, -0.1027 0.122 0.4198, -0.086 0.1181 0.4221, -0.086 0.122 0.4221, -0.1613 0.122 0.478, -0.1613 0.1181 0.478, -0.1602 0.1181 0.4643, -0.1602 0.122 0.4643, -0.1566 0.1181 0.4518, -0.1566 0.122 0.4518, -0.1503 0.1181 0.4406, -0.1503 0.122 0.4406, -0.1415 0.1181 0.4312, -0.1415 0.122 0.4312, -0.132 0.1181 0.4252, -0.132 0.122 0.4252, -0.1205 0.1181 0.4212, -0.1205 0.122 0.4212, -0.1013 0.122 0.5407, -0.1013 0.1181 0.5407, -0.1131 0.122 0.5397, -0.1101 0.1181 0.54, -0.1131 0.1181 0.5397, -0.1263 0.1181 0.5359, -0.1263 0.122 0.5359, -0.1375 0.1181 0.5294, -0.1375 0.122 0.5294, -0.1482 0.1181 0.5192, -0.1482 0.122 0.5192, -0.1551 0.1181 0.5081, -0.1551 0.122 0.5081, -0.1596 0.1181 0.4948, -0.1596 0.122 0.4948, -0.0908 0.1181 0.54, -0.0871 0.122 0.5397, -0.0871 0.1181 0.5397, -0.0735 0.122 0.536, -0.0735 0.1181 0.536, -0.0735 0.122 0.5202, -0.0735 0.1181 0.5202, -0.1011 0.122 0.5277, -0.1011 0.1181 0.5277, -0.0868 0.1181 0.5259, -0.0868 0.122 0.5259, -0.1455 0.122 0.4789, -0.1455 0.1181 0.4789, -0.1449 0.1181 0.4881, -0.1449 0.122 0.4881, -0.1418 0.1181 0.5008, -0.1418 0.122 0.5008, -0.1369 0.1181 0.5099, -0.1369 0.122 0.5099, -0.1298 0.1181 0.5178, -0.1298 0.122 0.5178, -0.1216 0.1181 0.5232, -0.1216 0.122 0.5232, -0.1127 0.1181 0.5264, -0.1127 0.122 0.5264, -0.1038 0.122 0.4327, -0.1038 0.1181 0.4327, -0.1148 0.1181 0.4339, -0.1148 0.122 0.4339, -0.1234 0.1181 0.4371, -0.1234 0.122 0.4371, -0.1306 0.1181 0.442, -0.1306 0.122 0.442, -0.1362 0.1181 0.4478, -0.1362 0.122 0.4478, -0.1411 0.1181 0.456, -0.1411 0.122 0.456, -0.1443 0.1181 0.4662, -0.1443 0.122 0.4662, -0.0756 0.1181 0.4391, -0.0756 0.122 0.4391, -0.0881 0.1181 0.4344, -0.0881 0.122 0.4344, -0.1714 0.122 0.4341, -0.1714 0.122 0.4211, -0.1714 0.1181 0.4341, -0.1714 0.1181 0.4211, -0.2319 0.122 0.4211, -0.2319 0.1181 0.4211, -0.2319 0.122 0.5393, -0.2319 0.1181 0.5393, -0.2161 0.122 0.5393, -0.2161 0.1181 0.5393, -0.2161 0.122 0.4341, -0.2161 0.1181 0.4341
            ]
        }
        coordIndex [
            0,1,2,-1,2,1,3,-1,1,4,3,-1,3,4,5,-1,4,6,5,-1,5,6,7,-1,6,8,7,-1,7,8,9,-1,8,10,9,-1,9,10,11,-1,10,12,11,-1,11,12,13,-1,12,14,13,-1,13,14,15,-1,14,0,15,-1,15,0,2,-1,16,17,14,-1,12,10,8,-1,17,18,14,-1,14,18,19,-1,14,19,0,-1,0,19,20,-1,0,20,21,-1,14,12,16,-1,16,12,8,-1,16,8,22,-1,22,8,6,-1,21,23,0,-1,0,23,22,-1,0,22,1,-1,1,22,6,-1,1,6,4,-1,16,22,24,-1,24,22,25,-1,17,16,26,-1,26,16,24,-1,17,26,27,-1,17,27,18,-1,18,27,28,-1,18,28,19,-1,20,19,29,-1,29,19,28,-1,20,29,30,-1,20,30,21,-1,21,30,31,-1,21,31,23,-1,22,23,25,-1,25,23,31,-1,32,33,34,-1,34,33,35,-1,33,36,35,-1,35,36,37,-1,36,38,37,-1,37,38,39,-1,40,41,42,-1,40,42,43,-1,43,42,44,-1,43,44,45,-1,45,44,46,-1,45,46,47,-1,47,46,48,-1,47,48,49,-1,49,48,50,-1,49,50,51,-1,51,50,52,-1,51,52,53,-1,53,52,54,-1,53,54,55,-1,55,54,39,-1,55,39,38,-1,32,34,56,-1,32,56,57,-1,57,56,58,-1,57,58,59,-1,59,58,60,-1,59,60,61,-1,61,60,62,-1,61,62,63,-1,63,62,64,-1,63,64,65,-1,65,64,66,-1,65,66,67,-1,67,66,41,-1,67,41,40,-1,45,47,68,-1,68,47,49,-1,68,49,69,-1,69,49,51,-1,69,51,70,-1,70,51,53,-1,70,53,71,-1,71,53,55,-1,71,55,72,-1,72,55,38,-1,72,38,73,-1,73,38,36,-1,73,36,74,-1,74,36,33,-1,74,33,75,-1,75,33,32,-1,75,32,76,-1,76,32,57,-1,76,57,77,-1,77,57,59,-1,77,59,78,-1,78,59,61,-1,78,61,79,-1,79,61,63,-1,79,63,80,-1,80,63,65,-1,80,65,81,-1,81,65,67,-1,81,67,82,-1,82,67,40,-1,82,40,83,-1,83,40,43,-1,83,43,84,-1,84,43,45,-1,84,45,68,-1,72,73,85,-1,85,73,86,-1,72,85,87,-1,72,87,71,-1,71,87,88,-1,71,88,70,-1,70,88,89,-1,70,89,69,-1,69,89,90,-1,69,90,68,-1,68,90,91,-1,68,91,84,-1,84,91,92,-1,84,92,83,-1,83,92,93,-1,83,93,82,-1,82,93,94,-1,82,94,81,-1,81,94,95,-1,81,95,80,-1,80,95,96,-1,80,96,79,-1,79,96,97,-1,79,97,78,-1,78,97,98,-1,78,98,77,-1,77,98,99,-1,77,99,76,-1,76,99,100,-1,76,100,75,-1,74,75,101,-1,101,75,100,-1,73,74,86,-1,86,74,101,-1,102,103,104,-1,104,103,105,-1,105,103,106,-1,106,103,107,-1,106,107,108,-1,107,109,108,-1,108,109,110,-1,111,112,109,-1,109,112,113,-1,109,113,110,-1,111,114,112,-1,112,114,115,-1,114,116,115,-1,115,116,117,-1,116,118,117,-1,117,118,119,-1,118,120,119,-1,119,120,121,-1,120,122,121,-1,121,122,123,-1,122,124,123,-1,123,124,125,-1,124,126,125,-1,125,126,127,-1,126,102,127,-1,127,102,104,-1,107,103,102,-1,102,126,107,-1,107,126,124,-1,107,124,109,-1,114,111,116,-1,116,111,109,-1,116,109,118,-1,118,109,124,-1,118,124,120,-1,120,124,122,-1,128,129,130,-1,130,129,131,-1,132,133,134,-1,132,134,135,-1,135,134,136,-1,135,136,137,-1,137,136,131,-1,137,131,129,-1,138,139,140,-1,138,140,141,-1,141,140,142,-1,141,142,143,-1,143,142,144,-1,143,144,145,-1,145,144,146,-1,145,146,147,-1,147,146,148,-1,147,148,149,-1,149,148,150,-1,149,150,151,-1,151,150,133,-1,151,133,132,-1,152,153,154,-1,154,153,155,-1,155,156,154,-1,154,156,157,-1,154,157,158,-1,158,157,159,-1,158,159,160,-1,160,159,161,-1,160,161,162,-1,162,161,163,-1,162,163,164,-1,164,163,165,-1,164,165,166,-1,166,165,139,-1,166,139,138,-1,153,152,167,-1,167,152,168,-1,167,168,169,-1,169,168,170,-1,169,170,171,-1,170,172,171,-1,171,172,173,-1,174,175,176,-1,174,176,177,-1,177,176,173,-1,177,173,172,-1,178,179,180,-1,178,180,181,-1,181,180,182,-1,181,182,183,-1,183,182,184,-1,183,184,185,-1,185,184,186,-1,185,186,187,-1,187,186,188,-1,187,188,189,-1,189,188,190,-1,189,190,191,-1,191,190,175,-1,191,175,174,-1,192,193,194,-1,192,194,195,-1,195,194,196,-1,195,196,197,-1,197,196,198,-1,197,198,199,-1,199,198,200,-1,199,200,201,-1,201,200,202,-1,201,202,203,-1,203,202,204,-1,203,204,205,-1,205,204,179,-1,205,179,178,-1,128,130,206,-1,128,206,207,-1,207,206,208,-1,207,208,209,-1,209,208,193,-1,209,193,192,-1,195,132,192,-1,192,132,135,-1,192,135,209,-1,209,135,137,-1,209,137,207,-1,207,137,129,-1,207,129,128,-1,172,170,177,-1,177,170,168,-1,177,168,174,-1,174,168,152,-1,174,152,191,-1,191,152,154,-1,191,154,189,-1,189,154,158,-1,189,158,187,-1,187,158,160,-1,187,160,185,-1,185,160,162,-1,185,162,183,-1,183,162,164,-1,183,164,181,-1,181,164,166,-1,181,166,178,-1,178,166,138,-1,178,138,205,-1,205,138,141,-1,205,141,203,-1,203,141,143,-1,203,143,201,-1,201,143,145,-1,201,145,199,-1,199,145,147,-1,199,147,197,-1,197,147,149,-1,197,149,195,-1,195,149,151,-1,195,151,132,-1,210,211,212,-1,212,211,213,-1,211,214,213,-1,213,214,215,-1,214,216,215,-1,215,216,217,-1,216,218,217,-1,217,218,219,-1,218,220,219,-1,219,220,221,-1,220,210,221,-1,221,210,212,-1,218,216,220,-1,220,216,214,-1,220,214,210,-1,210,214,211,-1,
        ]
    }
}
Shape{
    appearance Appearance {
        material  Material 	{
            diffuseColor 0.8431372549019608 0.8156862745098039 0.7529411764705882
            specularColor 0.25098039215686274 0.24313725490196078 0.22745098039215686
            ambientIntensity 0.8167
            transparency 0.0
            shininess 0.5
        }
    }
    geometry IndexedFaceSet {
        ccw TRUE
        solid FALSE
        coord DEF co Coordinate {
            point [
                0.1723 0.1181 0.4672, 0.2118 0.1181 0.4672, 0.1899 0.1181 0.5166, 0.194 0.1181 0.5166, 0.191 0.1181 0.5207, 0.1929 0.1181 0.5207, 0.1918 0.1181 0.5249, 0.1922 0.1181 0.5249, 0.0519 0.1181 0.5263, 0.0519 0.1181 0.4341, 0.0693 0.1181 0.5263, 0.0686 0.1181 0.4341, 0.0811 0.1181 0.4353, 0.1152 0.1181 0.4814, 0.1142 0.1181 0.4931, 0.1115 0.1181 0.5024, 0.0833 0.1181 0.5248, 0.091 0.1181 0.4384, 0.0991 0.1181 0.4432, 0.1057 0.1181 0.4497, 0.1107 0.1181 0.4578, 0.1141 0.1181 0.4689, 0.1074 0.1181 0.5097, 0.1016 0.1181 0.5158, 0.093 0.1181 0.5214
            ]
        }
        coordIndex [
            0,1,2,-1,2,1,3,-1,2,3,4,-1,4,3,5,-1,4,5,6,-1,6,5,7,-1,8,9,10,-1,10,9,11,-1,10,11,12,-1,13,14,10,-1,10,14,15,-1,10,15,16,-1,12,17,10,-1,10,17,18,-1,10,18,19,-1,19,20,10,-1,10,20,21,-1,10,21,13,-1,22,23,15,-1,15,23,24,-1,15,24,16,-1,
        ]
    }
}