#VRML V2.0 utf8
# 3D model generated by easyeda2kicad.py (https://github.com/uPesy/easyeda2kicad.py)

Shape{
    appearance Appearance {
        material  Material 	{
            diffuseColor 0.8431372549019608 0.8156862745098039 0.7529411764705882
            specularColor 0.25098039215686274 0.24313725490196078 0.22745098039215686
            ambientIntensity 0.8167
            transparency 0.0
            shininess 0.5
        }
    }
    geometry IndexedFaceSet {
        ccw TRUE
        solid FALSE
        coord DEF co Coordinate {
            point [
                -1.6535 0.1401 0.1417, -1.6142 0.1401 0.1417, -1.6142 0.1401 0.6046, -0.1575 0.1401 0.8134, -0.1575 0.1401 0.6685, -0.0619 0.1401 0.6046, -0.1664 0.1401 0.6046, -0.1664 0.1401 0.6685, -0.2341 0.1401 0.6046, -0.2341 0.1401 0.6685, -0.3937 0.1401 0.6046, -0.2362 0.1401 0.6685, -0.3937 0.1401 0.9106, -0.2362 0.1401 0.8134, -0.2341 0.1401 0.9106, -0.2341 0.1401 0.8134, -0.1664 0.1401 0.9106, -0.1664 0.1401 0.8134, -0.0619 0.1401 0.9106, -1.6142 0.1401 0.9106, -1.7323 0.1401 0.9106, -1.7323 0.1401 0.7913, -1.811 0.1401 0.7913, -1.811 0.1401 0.6339, -1.6535 0.1401 0.6339, -1.6535 0.1401 0.6046, 1.811 0.1401 0.6339, 1.811 0.1401 0.7913, 1.6535 0.1401 0.6339, 1.7323 0.1401 0.7913, 1.6535 0.1401 0.6046, 1.4173 0.1401 0.6685, 1.1811 0.1401 0.6046, 1.3386 0.1401 0.6685, 1.1811 0.1401 0.9106, 1.3386 0.1401 0.8134, 1.4173 0.1401 0.8134, 1.7323 0.1401 0.9106, 0.1397 0.1401 0.4211, 0.1486 0.1401 0.4446, 0.1486 0.1401 0.6046, 0.1844 0.1401 0.5393, 0.3987 0.1401 0.6046, 0.2002 0.1401 0.5393, 0.2171 0.1401 0.4543, 0.1683 0.1401 0.4543, 0.229 0.1401 0.4211, 0.157 0.1401 0.4211, 0.2463 0.1401 0.4211, 0.3987 0.1401 0.1417, 0.1486 0.1401 0.1417, 0.1486 0.1401 0.4211, 0.1354 0.1401 0.1417, 0.1354 0.1401 0.6046, 1.0236 0.1401 0.8134, 0.9449 0.1401 0.8134, 0.7874 0.1401 0.9106, 0.9449 0.1401 0.6685, 0.7874 0.1401 0.6046, 1.0236 0.1401 0.6685, 1.6535 0.1401 0.1417, 1.1811 0.1401 0.1417, 0.7874 0.1401 0.1417, 0.6299 0.1401 0.8134, 0.5512 0.1401 0.8134, 0.3987 0.1401 0.9106, 0.5512 0.1401 0.6685, 0.6299 0.1401 0.6685, 0.1575 0.1401 0.6685, 0.2362 0.1401 0.6685, 0.2362 0.1401 0.8134, 0.1575 0.1401 0.8134, 0.1486 0.1401 0.9106, 0.0245 0.1401 0.6046, 0.0693 0.1401 0.5393, 0.0864 0.1401 0.5374, 0.1002 0.1401 0.5326, 0.1131 0.1401 0.524, 0.1252 0.1401 0.4535, 0.1184 0.1401 0.443, 0.1087 0.1401 0.4336, 0.0963 0.1401 0.4265, 0.1132 0.1401 0.5239, 0.1216 0.1401 0.5146, 0.127 0.1401 0.5044, 0.0827 0.1401 0.4224, 0.0681 0.1401 0.4211, 0.0245 0.1401 0.1417, 0.036 0.1401 0.4211, 0.036 0.1401 0.5393, 0.1302 0.1401 0.4928, 0.1311 0.1401 0.4817, 0.1294 0.1401 0.4659, -0.0504 0.1401 0.4211, -0.0504 0.1401 0.5393, -0.0619 0.1401 0.1417, 0.013 0.1401 0.4211, 0.013 0.1401 0.4341, 0.0101 0.1401 0.5263, 0.0101 0.1401 0.5393, -0.0346 0.1401 0.4744, -0.0346 0.1401 0.4341, 0.0072 0.1401 0.4744, 0.0072 0.1401 0.4874, -0.0346 0.1401 0.4874, -0.0346 0.1401 0.5263, 0.1354 0.1401 0.9106, 0.0245 0.1401 0.9106, -0.0735 0.1401 0.4273, -0.0735 0.1401 0.4402, -0.132 0.1401 0.4252, -0.1415 0.1401 0.4312, -0.1664 0.1401 0.1417, -0.0871 0.1401 0.5397, -0.0735 0.1401 0.536, -0.0735 0.1401 0.5202, -0.0868 0.1401 0.5259, -0.0756 0.1401 0.4391, -0.1011 0.1401 0.5277, -0.1127 0.1401 0.5264, -0.1205 0.1401 0.4212, -0.1482 0.1401 0.5192, -0.1375 0.1401 0.5294, -0.086 0.1401 0.4221, -0.1027 0.1401 0.4198, -0.106 0.1401 0.4197, -0.1613 0.1401 0.478, -0.1596 0.1401 0.4948, -0.1551 0.1401 0.5081, -0.1216 0.1401 0.5232, -0.1298 0.1401 0.5178, -0.1369 0.1401 0.5099, -0.1455 0.1401 0.4789, -0.1443 0.1401 0.4662, -0.1411 0.1401 0.456, -0.1148 0.1401 0.4339, -0.1038 0.1401 0.4327, -0.1234 0.1401 0.4371, -0.1306 0.1401 0.442, -0.1362 0.1401 0.4478, -0.0881 0.1401 0.4344, -0.1503 0.1401 0.4406, -0.1566 0.1401 0.4518, -0.1602 0.1401 0.4643, -0.1418 0.1401 0.5008, -0.1449 0.1401 0.4881, -0.1263 0.1401 0.5359, -0.1131 0.1401 0.5397, -0.1013 0.1401 0.5407, -0.2341 0.1401 0.1417, -0.1714 0.1401 0.4211, -0.1714 0.1401 0.4341, -0.2161 0.1401 0.4341, -0.2161 0.1401 0.5393, -0.2319 0.1401 0.5393, -0.2319 0.1401 0.4211, -0.5512 0.1401 0.8134, -0.6299 0.1401 0.8134, -0.7874 0.1401 0.9106, -0.6299 0.1401 0.6685, -0.7874 0.1401 0.6046, -0.5512 0.1401 0.6685, -0.3937 0.1401 0.1417, -0.7874 0.1401 0.1417, -1.1811 0.1401 0.1417, -1.1811 0.1401 0.6046, -0.9449 0.1401 0.8134, -1.0236 0.1401 0.8134, -1.1811 0.1401 0.9106, -1.0236 0.1401 0.6685, -0.9449 0.1401 0.6685, -1.3386 0.1401 0.6685, -1.4173 0.1401 0.6685, -1.3386 0.1401 0.8134, -1.4173 0.1401 0.8134, 1.7323 0.1401 1.0079, 1.1811 0.1401 1.0079, 0.7874 0.1401 1.0079, 0.3987 0.1401 1.0079, 0.1486 0.1401 1.0079, 0.1354 0.1401 1.0079, 0.0245 0.1401 1.0079, -0.0619 0.1401 1.0079, -0.1664 0.1401 1.0079, -0.2341 0.1401 1.0079, -0.3937 0.1401 1.0079, -0.7874 0.1401 1.0079, -1.1811 0.1401 1.0079, -1.6142 0.1401 1.0079, -1.7323 0.1401 1.0079, 1.3386 0.5141 0.0039, 1.2992 0.5141 0.0039, 1.3386 0.5141 0.8197, 1.2992 0.5141 0.9094, 1.4173 0.5141 0.8197, 1.4567 0.5141 0.9094, 1.4173 0.5141 0.0039, 1.4567 0.5141 0.0039, 0.9449 0.5141 0.0039, 0.9055 0.5141 0.0039, 0.9449 0.5141 0.8197, 0.9055 0.5141 0.9094, 1.0236 0.5141 0.8197, 1.063 0.5141 0.9094, 1.0236 0.5141 0.0039, 1.063 0.5141 0.0039, 0.5512 0.5141 0.0039, 0.5118 0.5141 0.0039, 0.5512 0.5141 0.8197, 0.5118 0.5141 0.9094, 0.6299 0.5141 0.8197, 0.6693 0.5141 0.9094, 0.6299 0.5141 0.0039, 0.6693 0.5141 0.0039, 0.1575 0.5141 0.0039, 0.1181 0.5141 0.0039, 0.1575 0.5141 0.8197, 0.1181 0.5141 0.9094, 0.2362 0.5141 0.8197, 0.2756 0.5141 0.9094, 0.2362 0.5141 0.0039, 0.2756 0.5141 0.0039, -0.2362 0.5141 0.0039, -0.2756 0.5141 0.0039, -0.2362 0.5141 0.8197, -0.2756 0.5141 0.9094, -0.1575 0.5141 0.8197, -0.1181 0.5141 0.9094, -0.1575 0.5141 0.0039, -0.1181 0.5141 0.0039, -0.6299 0.5141 0.0039, -0.6693 0.5141 0.0039, -0.6299 0.5141 0.8197, -0.6693 0.5141 0.9094, -0.5512 0.5141 0.8197, -0.5118 0.5141 0.9094, -0.5512 0.5141 0.0039, -0.5118 0.5141 0.0039, -1.0236 0.5141 0.0039, -1.063 0.5141 0.0039, -1.0236 0.5141 0.8197, -1.063 0.5141 0.9094, -0.9449 0.5141 0.8197, -0.9055 0.5141 0.9094, -0.9449 0.5141 0.0039, -0.9055 0.5141 0.0039, -0.9055 0.6322 0.9094, -0.6693 0.6322 0.9094, -0.9055 0.6322 0.0039, -0.6693 0.6322 0.0039, -0.5118 0.6322 0.9094, -0.2756 0.6322 0.9094, -0.5118 0.6322 0.0039, -0.2756 0.6322 0.0039, -0.1181 0.6322 0.9094, 0.1181 0.6322 0.9094, -0.1181 0.6322 0.0039, 0.1181 0.6322 0.0039, 0.2756 0.6322 0.9094, 0.5118 0.6322 0.9094, 0.2756 0.6322 0.0039, 0.5118 0.6322 0.0039, 0.6693 0.6322 0.9094, 0.9055 0.6322 0.9094, 0.6693 0.6322 0.0039, 0.9055 0.6322 0.0039, 1.063 0.6322 0.9094, 1.2992 0.6322 0.9094, 1.063 0.6322 0.0039, 1.2992 0.6322 0.0039, 1.4567 0.6322 0.9094, 1.6535 0.6322 0.9094, 1.6535 0.6322 0.6732, 1.9685 0.6322 0.6732, 1.9685 0.6322 0.0039, 1.4567 0.6322 0.0039, -1.4173 0.5141 0.0039, -1.4567 0.5141 0.0039, -1.4173 0.5141 0.8197, -1.4567 0.5141 0.9094, -1.3386 0.5141 0.8197, -1.2992 0.5141 0.9094, -1.3386 0.5141 0.0039, -1.2992 0.5141 0.0039, -1.6535 0.1597 1.1457, -1.9685 0.1597 1.1457, -1.9685 -1.041 1.1457, 1.9685 -1.041 1.1457, 1.9685 0.1597 1.1457, 1.6535 0.1597 1.1457, 1.6535 0.396 1.1457, -1.6535 0.396 1.1457, -1.6535 0.396 0.9094, -1.6535 0.1597 0.9094, 1.6535 0.396 0.9094, 1.6535 0.1597 0.9094, 1.7717 -0.8048 0.2402, 1.7717 -0.5686 0.2402, 1.8307 -0.8048 0.2402, 1.8307 -0.5686 0.2402, 1.7717 -0.5686 0.0039, 1.8307 -0.5686 0.0039, 1.9685 -1.041 0.4764, 1.9685 -0.5686 0.0039, 1.9685 -0.8048 0.4764, 1.9685 -0.8048 0.2402, 1.9685 -0.5686 0.2402, 1.9685 0.396 0.6732, 1.9685 0.396 0.9094, 1.9685 0.1597 0.9094, -1.063 0.6322 0.0039, -1.2992 0.6322 0.0039, -1.063 0.6322 0.9094, -1.2992 0.6322 0.9094, 1.7913 -1.041 1.0669, 1.7913 -1.041 0.8504, 1.8701 -1.041 0.8504, -1.7913 -1.041 0.8504, -1.7913 -1.041 1.0669, 1.8701 -1.041 0.5748, 1.7717 -1.041 0.4764, 1.7126 -1.041 0.5748, 1.7717 -1.041 0.0039, 1.7126 -1.041 0.0827, -1.7717 -1.041 0.0039, -1.7126 -1.041 0.0827, -1.7717 -1.041 0.4764, -1.7126 -1.041 0.5748, -1.9685 -1.041 0.4764, -1.8701 -1.041 0.5748, -1.8701 -1.041 0.8504, -1.7717 -0.5686 0.0039, -1.9685 0.6322 0.0039, -1.4567 0.6322 0.0039, -1.9685 -0.5686 0.0039, -1.9094 -0.5686 0.0039, -1.8307 -0.5686 0.0039, 1.9094 -0.5686 0.0039, -1.7717 -0.5686 0.2402, -1.8307 -0.5686 0.2402, -1.9685 -0.5686 0.2402, -1.9094 -0.5686 0.2402, -1.7717 -0.8048 0.2402, -1.8307 -0.8048 0.2402, -1.9685 -0.8048 0.2402, -1.9094 -0.8048 0.2402, -1.8307 -0.8048 0.4724, -1.7717 -0.8048 0.4764, -1.9094 -0.8048 0.4724, -1.9685 -0.8048 0.4764, -1.6535 0.6322 0.9094, -1.4567 0.6322 0.9094, -1.6535 0.6322 0.6732, -1.9685 0.6322 0.6732, -1.9685 0.396 0.6732, -1.9685 0.1597 0.9094, -1.9685 0.396 0.9094, 1.6535 -0.8788 0.6339, 1.6535 -0.8788 0.1417, -1.6535 -0.8788 0.1417, -1.6535 -0.8788 0.6339, -1.811 -0.8788 0.6339, -1.811 -0.8788 0.7913, -1.7323 -0.8788 0.7913, -1.7323 -0.8788 1.0079, 1.7323 -0.8788 1.0079, 1.7323 -0.8788 0.7913, 1.811 -0.8788 0.7913, 1.811 -0.8788 0.6339, -1.6535 0.396 0.6732
            ]
        }
        coordIndex [
            0,1,2,-1,3,4,5,-1,5,4,6,-1,6,4,7,-1,6,7,8,-1,8,7,9,-1,8,9,10,-1,10,9,11,-1,10,11,12,-1,12,11,13,-1,12,13,14,-1,14,13,15,-1,14,15,16,-1,16,15,17,-1,16,17,18,-1,19,20,2,-1,2,20,21,-1,22,23,21,-1,21,23,24,-1,21,24,2,-1,2,24,25,-1,2,25,0,-1,26,27,28,-1,28,27,29,-1,30,31,32,-1,32,31,33,-1,32,33,34,-1,34,33,35,-1,34,35,36,-1,30,28,31,-1,31,28,29,-1,31,29,36,-1,36,29,37,-1,36,37,34,-1,38,39,40,-1,40,39,41,-1,40,41,42,-1,42,41,43,-1,44,45,46,-1,46,45,47,-1,48,46,49,-1,49,46,47,-1,49,47,50,-1,50,47,51,-1,50,51,52,-1,52,51,38,-1,52,38,53,-1,53,38,40,-1,54,34,55,-1,55,34,56,-1,55,56,57,-1,57,56,58,-1,57,58,59,-1,59,58,32,-1,59,32,54,-1,54,32,34,-1,60,30,61,-1,61,30,32,-1,61,32,62,-1,62,32,58,-1,62,58,49,-1,49,58,42,-1,49,42,48,-1,48,42,43,-1,63,56,64,-1,64,56,65,-1,64,65,66,-1,66,65,42,-1,66,42,67,-1,67,42,58,-1,67,58,63,-1,63,58,56,-1,68,40,69,-1,69,40,42,-1,69,42,70,-1,70,42,65,-1,70,65,71,-1,71,65,72,-1,53,73,74,-1,74,75,53,-1,53,75,76,-1,53,76,77,-1,78,79,52,-1,52,79,80,-1,52,80,81,-1,77,82,53,-1,53,82,83,-1,53,83,84,-1,81,85,52,-1,52,85,86,-1,52,86,87,-1,87,86,88,-1,87,88,73,-1,73,88,89,-1,73,89,74,-1,84,90,53,-1,53,90,91,-1,53,91,52,-1,52,91,92,-1,52,92,78,-1,93,94,5,-1,95,87,96,-1,96,87,73,-1,96,73,97,-1,97,73,98,-1,5,94,73,-1,73,94,99,-1,73,99,98,-1,100,101,102,-1,102,101,97,-1,102,97,103,-1,103,97,98,-1,103,98,104,-1,104,98,105,-1,68,71,40,-1,40,71,72,-1,40,72,53,-1,53,72,106,-1,53,106,73,-1,73,106,107,-1,73,107,5,-1,5,107,18,-1,5,18,3,-1,3,18,17,-1,96,93,95,-1,95,93,5,-1,95,5,108,-1,108,5,109,-1,110,111,112,-1,113,114,5,-1,5,114,115,-1,5,115,109,-1,109,115,116,-1,109,116,117,-1,117,116,118,-1,117,118,119,-1,110,112,120,-1,6,121,122,-1,108,123,95,-1,95,123,124,-1,95,124,112,-1,112,124,125,-1,112,125,120,-1,126,127,6,-1,6,127,128,-1,6,128,121,-1,119,129,117,-1,117,129,130,-1,117,130,131,-1,132,133,117,-1,117,133,134,-1,135,136,137,-1,137,136,138,-1,134,139,117,-1,117,139,138,-1,117,138,140,-1,140,138,136,-1,111,141,112,-1,112,141,142,-1,112,142,143,-1,131,144,117,-1,117,144,145,-1,117,145,132,-1,122,146,6,-1,6,146,147,-1,6,147,5,-1,5,147,148,-1,5,148,113,-1,149,112,150,-1,143,126,112,-1,112,126,6,-1,112,6,150,-1,150,6,151,-1,152,151,153,-1,153,151,6,-1,153,6,154,-1,154,6,8,-1,154,8,155,-1,156,12,157,-1,157,12,158,-1,157,158,159,-1,159,158,160,-1,159,160,161,-1,161,160,10,-1,161,10,156,-1,156,10,12,-1,150,155,149,-1,149,155,8,-1,149,8,162,-1,162,8,10,-1,162,10,163,-1,163,10,160,-1,163,160,164,-1,164,160,165,-1,166,158,167,-1,167,158,168,-1,167,168,169,-1,169,168,165,-1,169,165,170,-1,170,165,160,-1,170,160,166,-1,166,160,158,-1,165,171,172,-1,171,165,173,-1,173,165,168,-1,173,168,174,-1,174,168,19,-1,174,19,172,-1,172,19,2,-1,172,2,165,-1,165,2,1,-1,165,1,164,-1,37,175,34,-1,34,175,176,-1,34,176,56,-1,56,176,177,-1,56,177,65,-1,65,177,178,-1,65,178,72,-1,72,178,179,-1,72,179,106,-1,106,179,180,-1,106,180,107,-1,107,180,181,-1,107,181,18,-1,18,181,182,-1,18,182,16,-1,16,182,183,-1,16,183,14,-1,14,183,184,-1,14,184,12,-1,12,184,185,-1,12,185,158,-1,158,185,186,-1,158,186,168,-1,168,186,187,-1,168,187,19,-1,19,187,188,-1,19,188,20,-1,20,188,189,-1,190,191,192,-1,192,191,193,-1,192,193,194,-1,194,193,195,-1,194,195,196,-1,196,195,197,-1,198,199,200,-1,200,199,201,-1,200,201,202,-1,202,201,203,-1,202,203,204,-1,204,203,205,-1,206,207,208,-1,208,207,209,-1,208,209,210,-1,210,209,211,-1,210,211,212,-1,212,211,213,-1,214,215,216,-1,216,215,217,-1,216,217,218,-1,218,217,219,-1,218,219,220,-1,220,219,221,-1,222,223,224,-1,224,223,225,-1,224,225,226,-1,226,225,227,-1,226,227,228,-1,228,227,229,-1,230,231,232,-1,232,231,233,-1,232,233,234,-1,234,233,235,-1,234,235,236,-1,236,235,237,-1,238,239,240,-1,240,239,241,-1,240,241,242,-1,242,241,243,-1,242,243,244,-1,244,243,245,-1,246,247,248,-1,248,247,249,-1,250,251,252,-1,252,251,253,-1,254,255,256,-1,256,255,257,-1,258,259,260,-1,260,259,261,-1,262,263,264,-1,264,263,265,-1,266,267,268,-1,268,267,269,-1,270,271,272,-1,273,274,272,-1,272,274,275,-1,272,275,270,-1,276,277,278,-1,278,277,279,-1,278,279,280,-1,280,279,281,-1,280,281,282,-1,282,281,283,-1,284,285,286,-1,287,288,289,-1,290,291,289,-1,289,291,284,-1,289,284,287,-1,287,284,286,-1,292,293,291,-1,291,293,284,-1,290,289,294,-1,294,289,295,-1,296,297,298,-1,298,297,299,-1,297,300,299,-1,299,300,301,-1,288,287,302,-1,303,274,273,-1,304,305,306,-1,307,308,309,-1,273,307,303,-1,303,307,309,-1,303,309,306,-1,306,309,288,-1,306,288,304,-1,304,288,302,-1,310,311,312,-1,312,311,313,-1,314,315,316,-1,317,318,286,-1,286,318,287,-1,318,314,287,-1,287,314,316,-1,287,316,302,-1,302,316,319,-1,302,319,320,-1,320,319,321,-1,320,321,322,-1,322,321,323,-1,322,323,324,-1,324,323,325,-1,324,325,326,-1,326,325,327,-1,326,327,328,-1,328,327,329,-1,328,329,286,-1,286,329,330,-1,286,330,317,-1,322,324,283,-1,283,324,331,-1,244,245,322,-1,332,333,334,-1,334,333,277,-1,334,277,335,-1,236,237,322,-1,335,277,336,-1,336,277,276,-1,336,276,331,-1,331,276,282,-1,331,282,283,-1,311,310,283,-1,283,310,239,-1,283,239,322,-1,322,239,238,-1,322,238,244,-1,228,229,322,-1,248,249,245,-1,245,249,231,-1,245,231,322,-1,322,231,230,-1,322,230,236,-1,252,253,237,-1,237,253,223,-1,237,223,322,-1,322,223,222,-1,322,222,228,-1,221,260,261,-1,256,257,229,-1,229,257,215,-1,229,215,322,-1,322,215,214,-1,261,207,221,-1,221,207,322,-1,221,322,220,-1,220,322,214,-1,213,264,265,-1,265,199,213,-1,213,199,300,-1,213,300,212,-1,212,300,322,-1,212,322,206,-1,206,322,207,-1,275,274,197,-1,197,274,303,-1,197,303,196,-1,268,269,205,-1,205,269,191,-1,205,191,303,-1,303,191,190,-1,303,190,196,-1,303,337,205,-1,205,337,301,-1,205,301,204,-1,204,301,300,-1,204,300,198,-1,198,300,199,-1,331,338,336,-1,336,338,339,-1,340,334,341,-1,341,334,335,-1,338,342,339,-1,339,342,343,-1,344,340,345,-1,345,340,341,-1,343,342,346,-1,346,342,347,-1,346,347,348,-1,348,347,349,-1,348,349,345,-1,345,349,344,-1,350,351,352,-1,352,351,333,-1,352,333,353,-1,353,333,332,-1,349,328,286,-1,354,353,332,-1,355,356,354,-1,340,344,349,-1,332,334,354,-1,354,334,340,-1,354,340,355,-1,355,340,349,-1,355,349,285,-1,285,349,286,-1,357,28,358,-1,358,28,60,-1,358,60,359,-1,359,60,0,-1,359,0,360,-1,360,0,24,-1,360,24,361,-1,361,24,23,-1,361,23,362,-1,362,23,22,-1,362,22,363,-1,363,22,21,-1,363,21,364,-1,364,21,189,-1,364,189,365,-1,365,189,175,-1,365,175,366,-1,366,175,29,-1,366,29,367,-1,367,29,27,-1,367,27,368,-1,368,27,26,-1,368,26,357,-1,357,26,28,-1,321,357,323,-1,323,357,358,-1,319,368,321,-1,321,368,357,-1,359,325,358,-1,358,325,323,-1,316,367,319,-1,319,367,368,-1,360,327,359,-1,359,327,325,-1,315,366,316,-1,316,366,367,-1,361,329,360,-1,360,329,327,-1,314,365,315,-1,315,365,366,-1,362,330,361,-1,361,330,329,-1,318,364,314,-1,314,364,365,-1,363,317,362,-1,362,317,330,-1,317,363,318,-1,318,363,364,-1,347,326,349,-1,349,326,328,-1,338,331,342,-1,342,331,324,-1,342,324,347,-1,347,324,326,-1,284,293,285,-1,285,293,355,-1,293,292,355,-1,355,292,356,-1,292,369,356,-1,356,369,354,-1,369,352,354,-1,354,352,353,-1,352,369,350,-1,350,369,292,-1,
        ]
    }
}
Shape{
    appearance Appearance {
        material  Material 	{
            diffuseColor 0.8509803921568627 0.8509803921568627 0.8509803921568627
            specularColor 0.4235294117647059 0.4235294117647059 0.4235294117647059
            ambientIntensity 0.851
            transparency 0.0
            shininess 0.5
        }
    }
    geometry IndexedFaceSet {
        ccw TRUE
        solid FALSE
        coord DEF co Coordinate {
            point [
                -1.8307 -0.5686 0.0039, -1.8307 -0.5686 0.0, -1.9094 -0.5686 0.0039, -1.9094 -0.5686 0.0, -1.8307 -0.9623 0.0, -1.8307 -0.9827 0.0027, -1.8307 -0.8048 0.4724, -1.8307 -1.041 0.4724, -1.8307 -0.8048 0.2402, -1.8307 -1.041 0.0787, -1.8307 -1.0384 0.0584, -1.8307 -1.0305 0.0394, -1.8307 -1.018 0.0231, -1.8307 -0.5686 0.2402, -1.8307 -1.0017 0.0105, -1.9094 -0.8048 0.4724, -1.9094 -1.041 0.4724, -1.9094 -1.041 0.0787, -1.9094 -0.8048 0.2402, -1.9094 -1.018 0.0231, -1.9094 -1.0305 0.0394, -1.9094 -1.0384 0.0584, -1.9094 -0.5686 0.2402, -1.9094 -0.9623 0.0, -1.9094 -0.9827 0.0027, -1.9094 -1.0017 0.0105
            ]
        }
        coordIndex [
            0,1,2,-1,2,1,3,-1,1,0,4,-1,4,0,5,-1,6,7,8,-1,8,7,9,-1,9,10,8,-1,8,10,11,-1,8,11,12,-1,0,13,5,-1,5,13,8,-1,5,8,14,-1,14,8,12,-1,15,16,6,-1,6,16,7,-1,16,15,17,-1,17,15,18,-1,19,20,18,-1,18,20,21,-1,18,21,17,-1,18,22,2,-1,3,23,2,-1,2,23,24,-1,2,24,18,-1,18,24,25,-1,18,25,19,-1,23,3,4,-1,4,3,1,-1,9,7,17,-1,17,7,16,-1,
        ]
    }
}
Shape{
    appearance Appearance {
        material  Material 	{
            diffuseColor 0.8431372549019608 0.8156862745098039 0.7529411764705882
            specularColor 0.25098039215686274 0.24313725490196078 0.22745098039215686
            ambientIntensity 0.8167
            transparency 0.0
            shininess 0.5
        }
    }
    geometry IndexedFaceSet {
        ccw TRUE
        solid FALSE
        coord DEF co Coordinate {
            point [
                -1.2992 0.6322 0.9094, -1.2992 0.6322 0.0039, -1.2992 0.5141 0.9094, -1.2992 0.5141 0.0039, -1.4567 0.5141 0.9094, -1.4567 0.5141 0.0039, -1.4567 0.6322 0.9094, -1.4567 0.6322 0.0039
            ]
        }
        coordIndex [
            0,1,2,-1,2,1,3,-1,4,5,6,-1,6,5,7,-1,
        ]
    }
}
Shape{
    appearance Appearance {
        material  Material 	{
            diffuseColor 0.8509803921568627 0.8509803921568627 0.8509803921568627
            specularColor 0.4235294117647059 0.4235294117647059 0.4235294117647059
            ambientIntensity 0.851
            transparency 0.0
            shininess 0.5
        }
    }
    geometry IndexedFaceSet {
        ccw TRUE
        solid FALSE
        coord DEF co Coordinate {
            point [
                -1.8307 -1.041 0.0787, -1.9094 -1.041 0.0787, -1.9094 -1.0384 0.0584, -1.8307 -1.0384 0.0584, -1.9094 -1.0305 0.0394, -1.8307 -1.0305 0.0394, -1.9094 -1.018 0.0231, -1.8307 -1.018 0.0231, -1.9094 -1.0017 0.0105, -1.8307 -1.0017 0.0105, -1.9094 -0.9827 0.0027, -1.8307 -0.9827 0.0027, -1.9094 -0.9623 0.0, -1.8307 -0.9623 0.0
            ]
        }
        coordIndex [
            0,1,2,-1,0,2,3,-1,3,2,4,-1,3,4,5,-1,5,4,6,-1,5,6,7,-1,7,6,8,-1,7,8,9,-1,9,8,10,-1,9,10,11,-1,11,10,12,-1,11,12,13,-1,
        ]
    }
}
Shape{
    appearance Appearance {
        material  Material 	{
            diffuseColor 0.8431372549019608 0.8156862745098039 0.7529411764705882
            specularColor 0.25098039215686274 0.24313725490196078 0.22745098039215686
            ambientIntensity 0.8167
            transparency 0.0
            shininess 0.5
        }
    }
    geometry IndexedFaceSet {
        ccw TRUE
        solid FALSE
        coord DEF co Coordinate {
            point [
                1.7717 -1.041 0.4764, 1.7717 -0.8048 0.4764, 1.9685 -1.041 0.4764, 1.9685 -0.8048 0.4764, 1.9094 -0.8048 0.2402, 1.9685 -0.8048 0.2402, 1.9094 -0.8048 0.4724, 1.8307 -0.8048 0.4724, 1.8307 -0.8048 0.2402, 1.7717 -0.8048 0.2402, 1.9685 -0.5686 0.2402, 1.9094 -0.5686 0.2402, 1.9685 -0.5686 0.0039, 1.9094 -0.5686 0.0039, 1.7717 -1.041 0.0039, 1.7717 -0.5686 0.2402, 1.7717 -0.5686 0.0039, 1.6535 0.6322 0.6732, 1.6535 0.396 0.6732, 1.9685 0.6322 0.6732, 1.9685 0.396 0.6732, 1.6535 0.396 0.9094, 1.9685 0.396 0.9094, 1.6535 0.1597 0.9094, 1.9685 0.1597 0.9094, 1.6535 0.1597 1.1457, 1.9685 0.1597 1.1457, 1.6535 0.6322 0.9094
            ]
        }
        coordIndex [
            0,1,2,-1,2,1,3,-1,4,5,6,-1,6,5,3,-1,6,3,7,-1,7,3,1,-1,7,1,8,-1,8,1,9,-1,10,5,11,-1,11,5,4,-1,12,10,13,-1,13,10,11,-1,1,0,9,-1,9,0,14,-1,9,14,15,-1,15,14,16,-1,17,18,19,-1,19,18,20,-1,18,21,20,-1,20,21,22,-1,21,23,22,-1,22,23,24,-1,23,25,24,-1,24,25,26,-1,18,17,21,-1,21,17,27,-1,
        ]
    }
}
Shape{
    appearance Appearance {
        material  Material 	{
            diffuseColor 0.8509803921568627 0.8509803921568627 0.8509803921568627
            specularColor 0.4235294117647059 0.4235294117647059 0.4235294117647059
            ambientIntensity 0.851
            transparency 0.0
            shininess 0.5
        }
    }
    geometry IndexedFaceSet {
        ccw TRUE
        solid FALSE
        coord DEF co Coordinate {
            point [
                1.9094 -0.5686 0.0039, 1.9094 -0.5686 0.0, 1.8307 -0.5686 0.0039, 1.8307 -0.5686 0.0, 1.8307 -1.041 0.4724, 1.8307 -0.8048 0.4724, 1.8307 -1.041 0.0787, 1.8307 -0.8048 0.2402, 1.8307 -1.018 0.0231, 1.8307 -1.0305 0.0394, 1.8307 -1.0384 0.0584, 1.8307 -0.5686 0.2402, 1.8307 -0.9623 0.0, 1.8307 -0.9827 0.0027, 1.8307 -1.0017 0.0105, 1.9094 -0.9623 0.0, 1.9094 -0.9827 0.0027, 1.9094 -0.8048 0.4724, 1.9094 -1.041 0.4724, 1.9094 -0.8048 0.2402, 1.9094 -1.041 0.0787, 1.9094 -1.0384 0.0584, 1.9094 -1.0305 0.0394, 1.9094 -1.018 0.0231, 1.9094 -0.5686 0.2402, 1.9094 -1.0017 0.0105
            ]
        }
        coordIndex [
            0,1,2,-1,2,1,3,-1,4,5,6,-1,6,5,7,-1,8,9,7,-1,7,9,10,-1,7,10,6,-1,7,11,2,-1,3,12,2,-1,2,12,13,-1,2,13,7,-1,7,13,14,-1,7,14,8,-1,12,3,15,-1,15,3,1,-1,1,0,15,-1,15,0,16,-1,17,18,19,-1,19,18,20,-1,20,21,19,-1,19,21,22,-1,19,22,23,-1,0,24,16,-1,16,24,19,-1,16,19,25,-1,25,19,23,-1,5,4,17,-1,17,4,18,-1,20,18,6,-1,6,18,4,-1,20,6,10,-1,20,10,21,-1,21,10,9,-1,21,9,22,-1,22,9,8,-1,22,8,23,-1,23,8,14,-1,23,14,25,-1,25,14,13,-1,25,13,16,-1,16,13,12,-1,16,12,15,-1,
        ]
    }
}
Shape{
    appearance Appearance {
        material  Material 	{
            diffuseColor 0.8431372549019608 0.8156862745098039 0.7529411764705882
            specularColor 0.25098039215686274 0.24313725490196078 0.22745098039215686
            ambientIntensity 0.8167
            transparency 0.0
            shininess 0.5
        }
    }
    geometry IndexedFaceSet {
        ccw TRUE
        solid FALSE
        coord DEF co Coordinate {
            point [
                1.6535 0.396 0.9094, 1.6535 0.6322 0.9094, 1.4567 0.6322 0.9094, -1.063 0.5141 0.9094, -1.063 0.6322 0.9094, -1.2992 0.6322 0.9094, -1.4567 0.6322 0.9094, -1.6535 0.6322 0.9094, -1.4567 0.5141 0.9094, -1.6535 0.396 0.9094, -1.2992 0.5141 0.9094, 1.2992 0.6322 0.9094, 1.063 0.6322 0.9094, 1.2992 0.5141 0.9094, 1.063 0.5141 0.9094, 1.4567 0.5141 0.9094, 0.9055 0.5141 0.9094, 0.5118 0.5141 0.9094, 0.5118 0.6322 0.9094, 0.2756 0.6322 0.9094, 0.2756 0.5141 0.9094, 0.1181 0.5141 0.9094, 0.6693 0.5141 0.9094, 0.6693 0.6322 0.9094, 0.9055 0.6322 0.9094, -0.2756 0.5141 0.9094, -0.2756 0.6322 0.9094, -0.5118 0.6322 0.9094, -0.5118 0.5141 0.9094, -0.6693 0.5141 0.9094, -0.1181 0.5141 0.9094, -0.1181 0.6322 0.9094, 0.1181 0.6322 0.9094, -0.9055 0.5141 0.9094, -0.9055 0.6322 0.9094, -0.6693 0.6322 0.9094, 1.6535 0.396 1.1457, -1.6535 0.396 1.1457
            ]
        }
        coordIndex [
            0,1,2,-1,3,4,5,-1,6,7,8,-1,8,7,9,-1,8,9,10,-1,11,12,13,-1,13,12,14,-1,2,15,0,-1,0,15,13,-1,0,13,9,-1,9,13,14,-1,9,14,16,-1,17,18,19,-1,20,21,9,-1,19,20,17,-1,17,20,9,-1,17,9,22,-1,22,9,16,-1,22,16,23,-1,23,16,24,-1,25,26,27,-1,28,29,9,-1,27,28,25,-1,25,28,9,-1,25,9,30,-1,30,9,21,-1,30,21,31,-1,31,21,32,-1,5,10,3,-1,3,10,9,-1,3,9,33,-1,33,9,29,-1,33,29,34,-1,34,29,35,-1,36,0,37,-1,37,0,9,-1,
        ]
    }
}
Shape{
    appearance Appearance {
        material  Material 	{
            diffuseColor 0.8509803921568627 0.8509803921568627 0.8509803921568627
            specularColor 0.4235294117647059 0.4235294117647059 0.4235294117647059
            ambientIntensity 0.851
            transparency 0.0
            shininess 0.5
        }
    }
    geometry IndexedFaceSet {
        ccw TRUE
        solid FALSE
        coord DEF co Coordinate {
            point [
                -1.4173 0.5561 0.8204, -1.3386 0.5561 0.8204, -1.3386 0.5738 0.8187, -1.4173 0.5738 0.8187, -1.3386 0.5907 0.813, -1.4173 0.5907 0.813, -1.3386 0.6059 0.8037, -1.4173 0.6059 0.8037, -1.3386 0.6186 0.7912, -1.4173 0.6186 0.7912, -1.3386 0.6282 0.7762, -1.4173 0.6282 0.7762, -1.3386 0.6341 0.7594, -1.4173 0.6341 0.7594, -1.3386 0.6361 0.7417, -1.4173 0.6361 0.7417, -1.3386 0.6361 0.13, -1.4173 0.6361 0.13, -1.3386 0.6755 0.13, -1.4173 0.6755 0.13, -1.3386 0.7161 0.0535, -1.4173 0.7161 0.0535, -1.3386 0.9078 0.0197, -1.4173 0.9078 0.0197, -1.3386 0.9078 0.0, -1.4173 0.9078 0.0, -1.3386 0.5141 0.0, -1.4173 0.5141 0.0, -1.3386 0.5141 0.0039, -1.3386 0.5141 0.8197, -1.4173 0.5141 0.0039, -1.4173 0.5141 0.8197, -1.3386 -0.5927 0.801, -1.3386 0.1401 0.8134, -1.4173 -0.5927 0.801, -1.4173 0.1401 0.8134, -1.4173 0.1401 0.6685, -1.4173 -0.5927 0.6809, -1.4173 -0.6507 0.74, -1.4173 -0.6218 0.6892, -1.4173 -0.6338 0.6986, -1.4173 -0.6077 0.6832, -1.4173 -0.643 0.7107, -1.4173 -0.6487 0.7249, -1.4173 -0.6507 0.742, -1.4173 -0.6487 0.7571, -1.4173 -0.643 0.7712, -1.4173 -0.6338 0.7834, -1.4173 -0.6218 0.7928, -1.4173 -0.6077 0.7988, -1.3386 -0.5927 0.6809, -1.3386 0.1401 0.6685, -1.3386 -0.6487 0.7571, -1.3386 -0.6507 0.742, -1.3386 -0.6507 0.74, -1.3386 -0.6218 0.7928, -1.3386 -0.6338 0.7834, -1.3386 -0.643 0.7712, -1.3386 -0.6487 0.7249, -1.3386 -0.643 0.7107, -1.3386 -0.6077 0.6832, -1.3386 -0.6338 0.6986, -1.3386 -0.6218 0.6892, -1.3386 -0.6077 0.7988
            ]
        }
        coordIndex [
            0,1,2,-1,0,2,3,-1,3,2,4,-1,3,4,5,-1,5,4,6,-1,5,6,7,-1,7,6,8,-1,7,8,9,-1,9,8,10,-1,9,10,11,-1,11,10,12,-1,11,12,13,-1,13,12,14,-1,13,14,15,-1,16,17,14,-1,14,17,15,-1,18,19,16,-1,16,19,17,-1,20,21,18,-1,18,21,19,-1,22,23,20,-1,20,23,21,-1,24,25,22,-1,22,25,23,-1,26,27,24,-1,24,27,25,-1,20,18,16,-1,24,22,26,-1,26,22,20,-1,26,20,28,-1,28,20,16,-1,28,16,29,-1,29,16,14,-1,29,14,1,-1,1,14,2,-1,10,8,6,-1,14,12,2,-1,2,12,10,-1,2,10,4,-1,4,10,6,-1,21,23,25,-1,17,30,15,-1,15,30,31,-1,31,0,15,-1,15,0,3,-1,15,3,13,-1,17,19,30,-1,30,19,21,-1,30,21,27,-1,27,21,25,-1,7,9,11,-1,13,3,11,-1,11,3,5,-1,11,5,7,-1,29,1,31,-1,31,1,0,-1,27,26,30,-1,30,26,28,-1,32,33,34,-1,34,33,35,-1,36,37,38,-1,39,40,41,-1,41,40,42,-1,41,42,37,-1,37,42,43,-1,37,43,38,-1,36,38,35,-1,35,38,44,-1,35,44,34,-1,34,44,45,-1,34,45,46,-1,47,48,46,-1,46,48,49,-1,46,49,34,-1,50,51,33,-1,52,53,32,-1,32,53,33,-1,33,53,54,-1,33,54,50,-1,55,56,57,-1,54,58,50,-1,50,58,59,-1,50,59,60,-1,60,59,61,-1,60,61,62,-1,52,32,57,-1,57,32,63,-1,57,63,55,-1,37,36,50,-1,50,36,51,-1,54,53,38,-1,38,53,44,-1,37,50,60,-1,37,60,41,-1,41,60,62,-1,41,62,39,-1,39,62,61,-1,39,61,40,-1,40,61,59,-1,40,59,42,-1,42,59,58,-1,42,58,43,-1,43,58,54,-1,43,54,38,-1,44,53,52,-1,44,52,45,-1,45,52,57,-1,45,57,46,-1,46,57,56,-1,46,56,47,-1,47,56,55,-1,47,55,48,-1,48,55,63,-1,48,63,49,-1,49,63,32,-1,49,32,34,-1,
        ]
    }
}
Shape{
    appearance Appearance {
        material  Material 	{
            diffuseColor 0.8431372549019608 0.8156862745098039 0.7529411764705882
            specularColor 0.25098039215686274 0.24313725490196078 0.22745098039215686
            ambientIntensity 0.8167
            transparency 0.0
            shininess 0.5
        }
    }
    geometry IndexedFaceSet {
        ccw TRUE
        solid FALSE
        coord DEF co Coordinate {
            point [
                1.4567 0.5141 0.0039, 1.4567 0.5141 0.9094, 1.4567 0.6322 0.0039, 1.4567 0.6322 0.9094, 1.2992 0.6322 0.0039, 1.2992 0.6322 0.9094, 1.2992 0.5141 0.0039, 1.2992 0.5141 0.9094, 1.063 0.5141 0.0039, 1.063 0.5141 0.9094, 1.063 0.6322 0.0039, 1.063 0.6322 0.9094, 0.9055 0.6322 0.0039, 0.9055 0.6322 0.9094, 0.9055 0.5141 0.0039, 0.9055 0.5141 0.9094, 0.6693 0.5141 0.0039, 0.6693 0.5141 0.9094, 0.6693 0.6322 0.0039, 0.6693 0.6322 0.9094, 0.5118 0.6322 0.0039, 0.5118 0.6322 0.9094, 0.5118 0.5141 0.0039, 0.5118 0.5141 0.9094, 0.2756 0.5141 0.0039, 0.2756 0.5141 0.9094, 0.2756 0.6322 0.0039, 0.2756 0.6322 0.9094, 0.1181 0.6322 0.0039, 0.1181 0.6322 0.9094, 0.1181 0.5141 0.0039, 0.1181 0.5141 0.9094, -0.1181 0.5141 0.0039, -0.1181 0.5141 0.9094, -0.1181 0.6322 0.0039, -0.1181 0.6322 0.9094, -0.2756 0.6322 0.0039, -0.2756 0.6322 0.9094, -0.2756 0.5141 0.0039, -0.2756 0.5141 0.9094, -0.5118 0.5141 0.0039, -0.5118 0.5141 0.9094, -0.5118 0.6322 0.0039, -0.5118 0.6322 0.9094, -0.6693 0.6322 0.0039, -0.6693 0.6322 0.9094, -0.6693 0.5141 0.0039, -0.6693 0.5141 0.9094, -0.9055 0.5141 0.0039, -0.9055 0.5141 0.9094, -0.9055 0.6322 0.0039, -0.9055 0.6322 0.9094, -1.063 0.6322 0.0039, -1.063 0.6322 0.9094, -1.063 0.5141 0.0039, -1.063 0.5141 0.9094
            ]
        }
        coordIndex [
            0,1,2,-1,2,1,3,-1,4,5,6,-1,6,5,7,-1,8,9,10,-1,10,9,11,-1,12,13,14,-1,14,13,15,-1,16,17,18,-1,18,17,19,-1,20,21,22,-1,22,21,23,-1,24,25,26,-1,26,25,27,-1,28,29,30,-1,30,29,31,-1,32,33,34,-1,34,33,35,-1,36,37,38,-1,38,37,39,-1,40,41,42,-1,42,41,43,-1,44,45,46,-1,46,45,47,-1,48,49,50,-1,50,49,51,-1,52,53,54,-1,54,53,55,-1,
        ]
    }
}
Shape{
    appearance Appearance {
        material  Material 	{
            diffuseColor 0.8509803921568627 0.8509803921568627 0.8509803921568627
            specularColor 0.4235294117647059 0.4235294117647059 0.4235294117647059
            ambientIntensity 0.851
            transparency 0.0
            shininess 0.5
        }
    }
    geometry IndexedFaceSet {
        ccw TRUE
        solid FALSE
        coord DEF co Coordinate {
            point [
                -1.0236 0.5561 0.8204, -0.9449 0.5561 0.8204, -0.9449 0.5738 0.8187, -1.0236 0.5738 0.8187, -0.9449 0.5907 0.813, -1.0236 0.5907 0.813, -0.9449 0.6059 0.8037, -1.0236 0.6059 0.8037, -0.9449 0.6186 0.7912, -1.0236 0.6186 0.7912, -0.9449 0.6282 0.7762, -1.0236 0.6282 0.7762, -0.9449 0.6341 0.7594, -1.0236 0.6341 0.7594, -0.9449 0.6361 0.7417, -1.0236 0.6361 0.7417, -0.9449 0.6361 0.13, -1.0236 0.6361 0.13, -0.9449 0.6755 0.13, -1.0236 0.6755 0.13, -0.9449 0.7161 0.0535, -1.0236 0.7161 0.0535, -0.9449 0.9078 0.0197, -1.0236 0.9078 0.0197, -0.9449 0.9078 0.0, -1.0236 0.9078 0.0, -0.9449 0.5141 0.0, -1.0236 0.5141 0.0, -0.9449 0.5141 0.0039, -0.9449 0.5141 0.8197, -1.0236 0.5141 0.0039, -1.0236 0.5141 0.8197, -0.9449 -0.5927 0.801, -0.9449 0.1401 0.8134, -1.0236 -0.5927 0.801, -1.0236 0.1401 0.8134, -1.0236 0.1401 0.6685, -1.0236 -0.5927 0.6809, -1.0236 -0.6507 0.74, -1.0236 -0.6218 0.6892, -1.0236 -0.6338 0.6986, -1.0236 -0.6077 0.6832, -1.0236 -0.643 0.7107, -1.0236 -0.6487 0.7249, -1.0236 -0.6507 0.742, -1.0236 -0.6487 0.7571, -1.0236 -0.643 0.7712, -1.0236 -0.6338 0.7834, -1.0236 -0.6218 0.7928, -1.0236 -0.6077 0.7988, -0.9449 -0.5927 0.6809, -0.9449 0.1401 0.6685, -0.9449 -0.6487 0.7571, -0.9449 -0.6507 0.742, -0.9449 -0.6507 0.74, -0.9449 -0.6218 0.7928, -0.9449 -0.6338 0.7834, -0.9449 -0.643 0.7712, -0.9449 -0.6487 0.7249, -0.9449 -0.643 0.7107, -0.9449 -0.6077 0.6832, -0.9449 -0.6338 0.6986, -0.9449 -0.6218 0.6892, -0.9449 -0.6077 0.7988, -0.6299 0.5561 0.8204, -0.5512 0.5561 0.8204, -0.5512 0.5738 0.8187, -0.6299 0.5738 0.8187, -0.5512 0.5907 0.813, -0.6299 0.5907 0.813, -0.5512 0.6059 0.8037, -0.6299 0.6059 0.8037, -0.5512 0.6186 0.7912, -0.6299 0.6186 0.7912, -0.5512 0.6282 0.7762, -0.6299 0.6282 0.7762, -0.5512 0.6341 0.7594, -0.6299 0.6341 0.7594, -0.5512 0.6361 0.7417, -0.6299 0.6361 0.7417, -0.5512 0.6361 0.13, -0.6299 0.6361 0.13, -0.5512 0.6755 0.13, -0.6299 0.6755 0.13, -0.5512 0.7161 0.0535, -0.6299 0.7161 0.0535, -0.5512 0.9078 0.0197, -0.6299 0.9078 0.0197, -0.5512 0.9078 0.0, -0.6299 0.9078 0.0, -0.5512 0.5141 0.0, -0.6299 0.5141 0.0, -0.5512 0.5141 0.0039, -0.5512 0.5141 0.8197, -0.6299 0.5141 0.0039, -0.6299 0.5141 0.8197, -0.5512 -0.5927 0.801, -0.5512 0.1401 0.8134, -0.6299 -0.5927 0.801, -0.6299 0.1401 0.8134, -0.6299 0.1401 0.6685, -0.6299 -0.5927 0.6809, -0.6299 -0.6507 0.74, -0.6299 -0.6218 0.6892, -0.6299 -0.6338 0.6986, -0.6299 -0.6077 0.6832, -0.6299 -0.643 0.7107, -0.6299 -0.6487 0.7249, -0.6299 -0.6507 0.742, -0.6299 -0.6487 0.7571, -0.6299 -0.643 0.7712, -0.6299 -0.6338 0.7834, -0.6299 -0.6218 0.7928, -0.6299 -0.6077 0.7988, -0.5512 -0.5927 0.6809, -0.5512 0.1401 0.6685, -0.5512 -0.6487 0.7571, -0.5512 -0.6507 0.742, -0.5512 -0.6507 0.74, -0.5512 -0.6218 0.7928, -0.5512 -0.6338 0.7834, -0.5512 -0.643 0.7712, -0.5512 -0.6487 0.7249, -0.5512 -0.643 0.7107, -0.5512 -0.6077 0.6832, -0.5512 -0.6338 0.6986, -0.5512 -0.6218 0.6892, -0.5512 -0.6077 0.7988, -0.2362 0.5561 0.8204, -0.1575 0.5561 0.8204, -0.1575 0.5738 0.8187, -0.2362 0.5738 0.8187, -0.1575 0.5907 0.813, -0.2362 0.5907 0.813, -0.1575 0.6059 0.8037, -0.2362 0.6059 0.8037, -0.1575 0.6186 0.7912, -0.2362 0.6186 0.7912, -0.1575 0.6282 0.7762, -0.2362 0.6282 0.7762, -0.1575 0.6341 0.7594, -0.2362 0.6341 0.7594, -0.1575 0.6361 0.7417, -0.2362 0.6361 0.7417, -0.1575 0.6361 0.13, -0.2362 0.6361 0.13, -0.1575 0.6755 0.13, -0.2362 0.6755 0.13, -0.1575 0.7161 0.0535, -0.2362 0.7161 0.0535, -0.1575 0.9078 0.0197, -0.2362 0.9078 0.0197, -0.1575 0.9078 0.0, -0.2362 0.9078 0.0, -0.1575 0.5141 0.0, -0.2362 0.5141 0.0, -0.1575 0.5141 0.0039, -0.1575 0.5141 0.8197, -0.2362 0.5141 0.0039, -0.2362 0.5141 0.8197, -0.2362 0.1401 0.8134, -0.2362 -0.5927 0.801, -0.2341 0.1401 0.8134, -0.1575 -0.5927 0.801, -0.1664 0.1401 0.8134, -0.1575 0.1401 0.8134, -0.2362 0.1401 0.6685, -0.2362 -0.5927 0.6809, -0.2362 -0.6507 0.74, -0.2362 -0.6218 0.6892, -0.2362 -0.6338 0.6986, -0.2362 -0.6077 0.6832, -0.2362 -0.643 0.7107, -0.2362 -0.6487 0.7249, -0.2362 -0.6507 0.742, -0.2362 -0.6487 0.7571, -0.2362 -0.643 0.7712, -0.2362 -0.6338 0.7834, -0.2362 -0.6218 0.7928, -0.2362 -0.6077 0.7988, -0.1575 -0.5927 0.6809, -0.1575 0.1401 0.6685, -0.1575 -0.6487 0.7571, -0.1575 -0.6507 0.742, -0.1575 -0.6507 0.74, -0.1575 -0.6218 0.7928, -0.1575 -0.6338 0.7834, -0.1575 -0.643 0.7712, -0.1575 -0.6487 0.7249, -0.1575 -0.643 0.7107, -0.1575 -0.6077 0.6832, -0.1575 -0.6338 0.6986, -0.1575 -0.6218 0.6892, -0.1575 -0.6077 0.7988, -0.2341 0.1401 0.6685, -0.1664 0.1401 0.6685, 0.1575 0.5561 0.8204, 0.2362 0.5561 0.8204, 0.2362 0.5738 0.8187, 0.1575 0.5738 0.8187, 0.2362 0.5907 0.813, 0.1575 0.5907 0.813, 0.2362 0.6059 0.8037, 0.1575 0.6059 0.8037, 0.2362 0.6186 0.7912, 0.1575 0.6186 0.7912, 0.2362 0.6282 0.7762, 0.1575 0.6282 0.7762, 0.2362 0.6341 0.7594, 0.1575 0.6341 0.7594, 0.2362 0.6361 0.7417, 0.1575 0.6361 0.7417, 0.2362 0.6361 0.13, 0.1575 0.6361 0.13, 0.2362 0.6755 0.13, 0.1575 0.6755 0.13, 0.2362 0.7161 0.0535, 0.1575 0.7161 0.0535, 0.2362 0.9078 0.0197, 0.1575 0.9078 0.0197, 0.2362 0.9078 0.0, 0.1575 0.9078 0.0, 0.2362 0.5141 0.0, 0.1575 0.5141 0.0, 0.2362 0.5141 0.0039, 0.2362 0.5141 0.8197, 0.1575 0.5141 0.0039, 0.1575 0.5141 0.8197, 0.2362 -0.5927 0.801, 0.2362 0.1401 0.8134, 0.1575 -0.5927 0.801, 0.1575 0.1401 0.8134, 0.1575 0.1401 0.6685, 0.1575 -0.5927 0.6809, 0.1575 -0.6507 0.74, 0.1575 -0.6218 0.6892, 0.1575 -0.6338 0.6986, 0.1575 -0.6077 0.6832, 0.1575 -0.643 0.7107, 0.1575 -0.6487 0.7249, 0.1575 -0.6507 0.742, 0.1575 -0.6487 0.7571, 0.1575 -0.643 0.7712, 0.1575 -0.6338 0.7834, 0.1575 -0.6218 0.7928, 0.1575 -0.6077 0.7988, 0.2362 -0.5927 0.6809, 0.2362 0.1401 0.6685, 0.2362 -0.6487 0.7571, 0.2362 -0.6507 0.742, 0.2362 -0.6507 0.74, 0.2362 -0.6218 0.7928, 0.2362 -0.6338 0.7834, 0.2362 -0.643 0.7712, 0.2362 -0.6487 0.7249, 0.2362 -0.643 0.7107, 0.2362 -0.6077 0.6832, 0.2362 -0.6338 0.6986, 0.2362 -0.6218 0.6892, 0.2362 -0.6077 0.7988, 0.5512 0.5561 0.8204, 0.6299 0.5561 0.8204, 0.6299 0.5738 0.8187, 0.5512 0.5738 0.8187, 0.6299 0.5907 0.813, 0.5512 0.5907 0.813, 0.6299 0.6059 0.8037, 0.5512 0.6059 0.8037, 0.6299 0.6186 0.7912, 0.5512 0.6186 0.7912, 0.6299 0.6282 0.7762, 0.5512 0.6282 0.7762, 0.6299 0.6341 0.7594, 0.5512 0.6341 0.7594, 0.6299 0.6361 0.7417, 0.5512 0.6361 0.7417, 0.6299 0.6361 0.13, 0.5512 0.6361 0.13, 0.6299 0.6755 0.13, 0.5512 0.6755 0.13, 0.6299 0.7161 0.0535, 0.5512 0.7161 0.0535, 0.6299 0.9078 0.0197, 0.5512 0.9078 0.0197, 0.6299 0.9078 0.0, 0.5512 0.9078 0.0, 0.6299 0.5141 0.0, 0.5512 0.5141 0.0, 0.6299 0.5141 0.0039, 0.6299 0.5141 0.8197, 0.5512 0.5141 0.0039, 0.5512 0.5141 0.8197, 0.6299 -0.5927 0.801, 0.6299 0.1401 0.8134, 0.5512 -0.5927 0.801, 0.5512 0.1401 0.8134, 0.5512 0.1401 0.6685, 0.5512 -0.5927 0.6809, 0.5512 -0.6507 0.74, 0.5512 -0.6218 0.6892, 0.5512 -0.6338 0.6986, 0.5512 -0.6077 0.6832, 0.5512 -0.643 0.7107, 0.5512 -0.6487 0.7249, 0.5512 -0.6507 0.742, 0.5512 -0.6487 0.7571, 0.5512 -0.643 0.7712, 0.5512 -0.6338 0.7834, 0.5512 -0.6218 0.7928, 0.5512 -0.6077 0.7988, 0.6299 -0.5927 0.6809, 0.6299 0.1401 0.6685, 0.6299 -0.6487 0.7571, 0.6299 -0.6507 0.742, 0.6299 -0.6507 0.74, 0.6299 -0.6218 0.7928, 0.6299 -0.6338 0.7834, 0.6299 -0.643 0.7712, 0.6299 -0.6487 0.7249, 0.6299 -0.643 0.7107, 0.6299 -0.6077 0.6832, 0.6299 -0.6338 0.6986, 0.6299 -0.6218 0.6892, 0.6299 -0.6077 0.7988, 0.9449 0.5561 0.8204, 1.0236 0.5561 0.8204, 1.0236 0.5738 0.8187, 0.9449 0.5738 0.8187, 1.0236 0.5907 0.813, 0.9449 0.5907 0.813, 1.0236 0.6059 0.8037, 0.9449 0.6059 0.8037, 1.0236 0.6186 0.7912, 0.9449 0.6186 0.7912, 1.0236 0.6282 0.7762, 0.9449 0.6282 0.7762, 1.0236 0.6341 0.7594, 0.9449 0.6341 0.7594, 1.0236 0.6361 0.7417, 0.9449 0.6361 0.7417, 1.0236 0.6361 0.13, 0.9449 0.6361 0.13, 1.0236 0.6755 0.13, 0.9449 0.6755 0.13, 1.0236 0.7161 0.0535, 0.9449 0.7161 0.0535, 1.0236 0.9078 0.0197, 0.9449 0.9078 0.0197, 1.0236 0.9078 0.0, 0.9449 0.9078 0.0, 1.0236 0.5141 0.0, 0.9449 0.5141 0.0, 1.0236 0.5141 0.0039, 1.0236 0.5141 0.8197, 0.9449 0.5141 0.0039, 0.9449 0.5141 0.8197, 1.0236 -0.5927 0.801, 1.0236 0.1401 0.8134, 0.9449 -0.5927 0.801, 0.9449 0.1401 0.8134, 0.9449 0.1401 0.6685, 0.9449 -0.5927 0.6809, 0.9449 -0.6507 0.74, 0.9449 -0.6218 0.6892, 0.9449 -0.6338 0.6986, 0.9449 -0.6077 0.6832, 0.9449 -0.643 0.7107, 0.9449 -0.6487 0.7249, 0.9449 -0.6507 0.742, 0.9449 -0.6487 0.7571, 0.9449 -0.643 0.7712, 0.9449 -0.6338 0.7834, 0.9449 -0.6218 0.7928, 0.9449 -0.6077 0.7988, 1.0236 -0.5927 0.6809, 1.0236 0.1401 0.6685, 1.0236 -0.6487 0.7571, 1.0236 -0.6507 0.742, 1.0236 -0.6507 0.74, 1.0236 -0.6218 0.7928, 1.0236 -0.6338 0.7834, 1.0236 -0.643 0.7712, 1.0236 -0.6487 0.7249, 1.0236 -0.643 0.7107, 1.0236 -0.6077 0.6832, 1.0236 -0.6338 0.6986, 1.0236 -0.6218 0.6892, 1.0236 -0.6077 0.7988, 1.3386 0.5561 0.8204, 1.4173 0.5561 0.8204, 1.4173 0.5738 0.8187, 1.3386 0.5738 0.8187, 1.4173 0.5907 0.813, 1.3386 0.5907 0.813, 1.4173 0.6059 0.8037, 1.3386 0.6059 0.8037, 1.4173 0.6186 0.7912, 1.3386 0.6186 0.7912, 1.4173 0.6282 0.7762, 1.3386 0.6282 0.7762, 1.4173 0.6341 0.7594, 1.3386 0.6341 0.7594, 1.4173 0.6361 0.7417, 1.3386 0.6361 0.7417, 1.4173 0.6361 0.13, 1.3386 0.6361 0.13, 1.4173 0.6755 0.13, 1.3386 0.6755 0.13, 1.4173 0.7161 0.0535, 1.3386 0.7161 0.0535, 1.4173 0.9078 0.0197, 1.3386 0.9078 0.0197, 1.4173 0.9078 0.0, 1.3386 0.9078 0.0, 1.4173 0.5141 0.0, 1.3386 0.5141 0.0, 1.4173 0.5141 0.0039, 1.4173 0.5141 0.8197, 1.3386 0.5141 0.0039, 1.3386 0.5141 0.8197, 1.4173 -0.5927 0.801, 1.4173 0.1401 0.8134, 1.3386 -0.5927 0.801, 1.3386 0.1401 0.8134, 1.3386 0.1401 0.6685, 1.3386 -0.5927 0.6809, 1.3386 -0.6507 0.74, 1.3386 -0.6218 0.6892, 1.3386 -0.6338 0.6986, 1.3386 -0.6077 0.6832, 1.3386 -0.643 0.7107, 1.3386 -0.6487 0.7249, 1.3386 -0.6507 0.742, 1.3386 -0.6487 0.7571, 1.3386 -0.643 0.7712, 1.3386 -0.6338 0.7834, 1.3386 -0.6218 0.7928, 1.3386 -0.6077 0.7988, 1.4173 -0.5927 0.6809, 1.4173 0.1401 0.6685, 1.4173 -0.6487 0.7571, 1.4173 -0.6507 0.742, 1.4173 -0.6507 0.74, 1.4173 -0.6218 0.7928, 1.4173 -0.6338 0.7834, 1.4173 -0.643 0.7712, 1.4173 -0.6487 0.7249, 1.4173 -0.643 0.7107, 1.4173 -0.6077 0.6832, 1.4173 -0.6338 0.6986, 1.4173 -0.6218 0.6892, 1.4173 -0.6077 0.7988
            ]
        }
        coordIndex [
            0,1,2,-1,0,2,3,-1,3,2,4,-1,3,4,5,-1,5,4,6,-1,5,6,7,-1,7,6,8,-1,7,8,9,-1,9,8,10,-1,9,10,11,-1,11,10,12,-1,11,12,13,-1,13,12,14,-1,13,14,15,-1,16,17,14,-1,14,17,15,-1,18,19,16,-1,16,19,17,-1,20,21,18,-1,18,21,19,-1,22,23,20,-1,20,23,21,-1,24,25,22,-1,22,25,23,-1,26,27,24,-1,24,27,25,-1,20,18,16,-1,24,22,26,-1,26,22,20,-1,26,20,28,-1,28,20,16,-1,28,16,29,-1,29,16,14,-1,29,14,1,-1,1,14,2,-1,10,8,6,-1,14,12,2,-1,2,12,10,-1,2,10,4,-1,4,10,6,-1,21,23,25,-1,17,30,15,-1,15,30,31,-1,31,0,15,-1,15,0,3,-1,15,3,13,-1,17,19,30,-1,30,19,21,-1,30,21,27,-1,27,21,25,-1,7,9,11,-1,13,3,11,-1,11,3,5,-1,11,5,7,-1,29,1,31,-1,31,1,0,-1,27,26,30,-1,30,26,28,-1,32,33,34,-1,34,33,35,-1,36,37,38,-1,39,40,41,-1,41,40,42,-1,41,42,37,-1,37,42,43,-1,37,43,38,-1,36,38,35,-1,35,38,44,-1,35,44,34,-1,34,44,45,-1,34,45,46,-1,47,48,46,-1,46,48,49,-1,46,49,34,-1,50,51,33,-1,52,53,32,-1,32,53,33,-1,33,53,54,-1,33,54,50,-1,55,56,57,-1,54,58,50,-1,50,58,59,-1,50,59,60,-1,60,59,61,-1,60,61,62,-1,52,32,57,-1,57,32,63,-1,57,63,55,-1,37,36,50,-1,50,36,51,-1,54,53,38,-1,38,53,44,-1,64,65,66,-1,64,66,67,-1,67,66,68,-1,67,68,69,-1,69,68,70,-1,69,70,71,-1,71,70,72,-1,71,72,73,-1,73,72,74,-1,73,74,75,-1,75,74,76,-1,75,76,77,-1,77,76,78,-1,77,78,79,-1,80,81,78,-1,78,81,79,-1,82,83,80,-1,80,83,81,-1,84,85,82,-1,82,85,83,-1,86,87,84,-1,84,87,85,-1,88,89,86,-1,86,89,87,-1,90,91,88,-1,88,91,89,-1,84,82,80,-1,88,86,90,-1,90,86,84,-1,90,84,92,-1,92,84,80,-1,92,80,93,-1,93,80,78,-1,93,78,65,-1,65,78,66,-1,74,72,70,-1,78,76,66,-1,66,76,74,-1,66,74,68,-1,68,74,70,-1,85,87,89,-1,81,94,79,-1,79,94,95,-1,95,64,79,-1,79,64,67,-1,79,67,77,-1,81,83,94,-1,94,83,85,-1,94,85,91,-1,91,85,89,-1,71,73,75,-1,77,67,75,-1,75,67,69,-1,75,69,71,-1,93,65,95,-1,95,65,64,-1,91,90,94,-1,94,90,92,-1,96,97,98,-1,98,97,99,-1,100,101,102,-1,103,104,105,-1,105,104,106,-1,105,106,101,-1,101,106,107,-1,101,107,102,-1,100,102,99,-1,99,102,108,-1,99,108,98,-1,98,108,109,-1,98,109,110,-1,111,112,110,-1,110,112,113,-1,110,113,98,-1,114,115,97,-1,116,117,96,-1,96,117,97,-1,97,117,118,-1,97,118,114,-1,119,120,121,-1,118,122,114,-1,114,122,123,-1,114,123,124,-1,124,123,125,-1,124,125,126,-1,116,96,121,-1,121,96,127,-1,121,127,119,-1,101,100,114,-1,114,100,115,-1,118,117,102,-1,102,117,108,-1,128,129,130,-1,128,130,131,-1,131,130,132,-1,131,132,133,-1,133,132,134,-1,133,134,135,-1,135,134,136,-1,135,136,137,-1,137,136,138,-1,137,138,139,-1,139,138,140,-1,139,140,141,-1,141,140,142,-1,141,142,143,-1,144,145,142,-1,142,145,143,-1,146,147,144,-1,144,147,145,-1,148,149,146,-1,146,149,147,-1,150,151,148,-1,148,151,149,-1,152,153,150,-1,150,153,151,-1,154,155,152,-1,152,155,153,-1,148,146,144,-1,152,150,154,-1,154,150,148,-1,154,148,156,-1,156,148,144,-1,156,144,157,-1,157,144,142,-1,157,142,129,-1,129,142,130,-1,138,136,134,-1,142,140,130,-1,130,140,138,-1,130,138,132,-1,132,138,134,-1,149,151,153,-1,145,158,143,-1,143,158,159,-1,159,128,143,-1,143,128,131,-1,143,131,141,-1,145,147,158,-1,158,147,149,-1,158,149,155,-1,155,149,153,-1,135,137,139,-1,141,131,139,-1,139,131,133,-1,139,133,135,-1,157,129,159,-1,159,129,128,-1,155,154,158,-1,158,154,156,-1,160,161,162,-1,162,161,163,-1,162,163,164,-1,164,163,165,-1,166,167,168,-1,169,170,171,-1,171,170,172,-1,171,172,167,-1,167,172,173,-1,167,173,168,-1,166,168,160,-1,160,168,174,-1,160,174,161,-1,161,174,175,-1,161,175,176,-1,177,178,176,-1,176,178,179,-1,176,179,161,-1,180,181,165,-1,182,183,163,-1,163,183,165,-1,165,183,184,-1,165,184,180,-1,185,186,187,-1,184,188,180,-1,180,188,189,-1,180,189,190,-1,190,189,191,-1,190,191,192,-1,182,163,187,-1,187,163,193,-1,187,193,185,-1,180,167,166,-1,166,194,180,-1,180,194,195,-1,180,195,181,-1,184,183,168,-1,168,183,174,-1,196,197,198,-1,196,198,199,-1,199,198,200,-1,199,200,201,-1,201,200,202,-1,201,202,203,-1,203,202,204,-1,203,204,205,-1,205,204,206,-1,205,206,207,-1,207,206,208,-1,207,208,209,-1,209,208,210,-1,209,210,211,-1,212,213,210,-1,210,213,211,-1,214,215,212,-1,212,215,213,-1,216,217,214,-1,214,217,215,-1,218,219,216,-1,216,219,217,-1,220,221,218,-1,218,221,219,-1,222,223,220,-1,220,223,221,-1,216,214,212,-1,220,218,222,-1,222,218,216,-1,222,216,224,-1,224,216,212,-1,224,212,225,-1,225,212,210,-1,225,210,197,-1,197,210,198,-1,206,204,202,-1,210,208,198,-1,198,208,206,-1,198,206,200,-1,200,206,202,-1,217,219,221,-1,213,226,211,-1,211,226,227,-1,227,196,211,-1,211,196,199,-1,211,199,209,-1,213,215,226,-1,226,215,217,-1,226,217,223,-1,223,217,221,-1,203,205,207,-1,209,199,207,-1,207,199,201,-1,207,201,203,-1,225,197,227,-1,227,197,196,-1,223,222,226,-1,226,222,224,-1,228,229,230,-1,230,229,231,-1,232,233,234,-1,235,236,237,-1,237,236,238,-1,237,238,233,-1,233,238,239,-1,233,239,234,-1,232,234,231,-1,231,234,240,-1,231,240,230,-1,230,240,241,-1,230,241,242,-1,243,244,242,-1,242,244,245,-1,242,245,230,-1,246,247,229,-1,248,249,228,-1,228,249,229,-1,229,249,250,-1,229,250,246,-1,251,252,253,-1,250,254,246,-1,246,254,255,-1,246,255,256,-1,256,255,257,-1,256,257,258,-1,248,228,253,-1,253,228,259,-1,253,259,251,-1,233,232,246,-1,246,232,247,-1,250,249,234,-1,234,249,240,-1,260,261,262,-1,260,262,263,-1,263,262,264,-1,263,264,265,-1,265,264,266,-1,265,266,267,-1,267,266,268,-1,267,268,269,-1,269,268,270,-1,269,270,271,-1,271,270,272,-1,271,272,273,-1,273,272,274,-1,273,274,275,-1,276,277,274,-1,274,277,275,-1,278,279,276,-1,276,279,277,-1,280,281,278,-1,278,281,279,-1,282,283,280,-1,280,283,281,-1,284,285,282,-1,282,285,283,-1,286,287,284,-1,284,287,285,-1,280,278,276,-1,284,282,286,-1,286,282,280,-1,286,280,288,-1,288,280,276,-1,288,276,289,-1,289,276,274,-1,289,274,261,-1,261,274,262,-1,270,268,266,-1,274,272,262,-1,262,272,270,-1,262,270,264,-1,264,270,266,-1,281,283,285,-1,277,290,275,-1,275,290,291,-1,291,260,275,-1,275,260,263,-1,275,263,273,-1,277,279,290,-1,290,279,281,-1,290,281,287,-1,287,281,285,-1,267,269,271,-1,273,263,271,-1,271,263,265,-1,271,265,267,-1,289,261,291,-1,291,261,260,-1,287,286,290,-1,290,286,288,-1,292,293,294,-1,294,293,295,-1,296,297,298,-1,299,300,301,-1,301,300,302,-1,301,302,297,-1,297,302,303,-1,297,303,298,-1,296,298,295,-1,295,298,304,-1,295,304,294,-1,294,304,305,-1,294,305,306,-1,307,308,306,-1,306,308,309,-1,306,309,294,-1,310,311,293,-1,312,313,292,-1,292,313,293,-1,293,313,314,-1,293,314,310,-1,315,316,317,-1,314,318,310,-1,310,318,319,-1,310,319,320,-1,320,319,321,-1,320,321,322,-1,312,292,317,-1,317,292,323,-1,317,323,315,-1,297,296,310,-1,310,296,311,-1,314,313,298,-1,298,313,304,-1,324,325,326,-1,324,326,327,-1,327,326,328,-1,327,328,329,-1,329,328,330,-1,329,330,331,-1,331,330,332,-1,331,332,333,-1,333,332,334,-1,333,334,335,-1,335,334,336,-1,335,336,337,-1,337,336,338,-1,337,338,339,-1,340,341,338,-1,338,341,339,-1,342,343,340,-1,340,343,341,-1,344,345,342,-1,342,345,343,-1,346,347,344,-1,344,347,345,-1,348,349,346,-1,346,349,347,-1,350,351,348,-1,348,351,349,-1,344,342,340,-1,348,346,350,-1,350,346,344,-1,350,344,352,-1,352,344,340,-1,352,340,353,-1,353,340,338,-1,353,338,325,-1,325,338,326,-1,334,332,330,-1,338,336,326,-1,326,336,334,-1,326,334,328,-1,328,334,330,-1,345,347,349,-1,341,354,339,-1,339,354,355,-1,355,324,339,-1,339,324,327,-1,339,327,337,-1,341,343,354,-1,354,343,345,-1,354,345,351,-1,351,345,349,-1,331,333,335,-1,337,327,335,-1,335,327,329,-1,335,329,331,-1,353,325,355,-1,355,325,324,-1,351,350,354,-1,354,350,352,-1,356,357,358,-1,358,357,359,-1,360,361,362,-1,363,364,365,-1,365,364,366,-1,365,366,361,-1,361,366,367,-1,361,367,362,-1,360,362,359,-1,359,362,368,-1,359,368,358,-1,358,368,369,-1,358,369,370,-1,371,372,370,-1,370,372,373,-1,370,373,358,-1,374,375,357,-1,376,377,356,-1,356,377,357,-1,357,377,378,-1,357,378,374,-1,379,380,381,-1,378,382,374,-1,374,382,383,-1,374,383,384,-1,384,383,385,-1,384,385,386,-1,376,356,381,-1,381,356,387,-1,381,387,379,-1,361,360,374,-1,374,360,375,-1,378,377,362,-1,362,377,368,-1,388,389,390,-1,388,390,391,-1,391,390,392,-1,391,392,393,-1,393,392,394,-1,393,394,395,-1,395,394,396,-1,395,396,397,-1,397,396,398,-1,397,398,399,-1,399,398,400,-1,399,400,401,-1,401,400,402,-1,401,402,403,-1,404,405,402,-1,402,405,403,-1,406,407,404,-1,404,407,405,-1,408,409,406,-1,406,409,407,-1,410,411,408,-1,408,411,409,-1,412,413,410,-1,410,413,411,-1,414,415,412,-1,412,415,413,-1,408,406,404,-1,412,410,414,-1,414,410,408,-1,414,408,416,-1,416,408,404,-1,416,404,417,-1,417,404,402,-1,417,402,389,-1,389,402,390,-1,398,396,394,-1,402,400,390,-1,390,400,398,-1,390,398,392,-1,392,398,394,-1,409,411,413,-1,405,418,403,-1,403,418,419,-1,419,388,403,-1,403,388,391,-1,403,391,401,-1,405,407,418,-1,418,407,409,-1,418,409,415,-1,415,409,413,-1,395,397,399,-1,401,391,399,-1,399,391,393,-1,399,393,395,-1,417,389,419,-1,419,389,388,-1,415,414,418,-1,418,414,416,-1,420,421,422,-1,422,421,423,-1,424,425,426,-1,427,428,429,-1,429,428,430,-1,429,430,425,-1,425,430,431,-1,425,431,426,-1,424,426,423,-1,423,426,432,-1,423,432,422,-1,422,432,433,-1,422,433,434,-1,435,436,434,-1,434,436,437,-1,434,437,422,-1,438,439,421,-1,440,441,420,-1,420,441,421,-1,421,441,442,-1,421,442,438,-1,443,444,445,-1,442,446,438,-1,438,446,447,-1,438,447,448,-1,448,447,449,-1,448,449,450,-1,440,420,445,-1,445,420,451,-1,445,451,443,-1,425,424,438,-1,438,424,439,-1,442,441,426,-1,426,441,432,-1,37,50,60,-1,37,60,41,-1,41,60,62,-1,41,62,39,-1,39,62,61,-1,39,61,40,-1,40,61,59,-1,40,59,42,-1,42,59,58,-1,42,58,43,-1,43,58,54,-1,43,54,38,-1,44,53,52,-1,44,52,45,-1,45,52,57,-1,45,57,46,-1,46,57,56,-1,46,56,47,-1,47,56,55,-1,47,55,48,-1,48,55,63,-1,48,63,49,-1,49,63,32,-1,49,32,34,-1,101,114,124,-1,101,124,105,-1,105,124,126,-1,105,126,103,-1,103,126,125,-1,103,125,104,-1,104,125,123,-1,104,123,106,-1,106,123,122,-1,106,122,107,-1,107,122,118,-1,107,118,102,-1,108,117,116,-1,108,116,109,-1,109,116,121,-1,109,121,110,-1,110,121,120,-1,110,120,111,-1,111,120,119,-1,111,119,112,-1,112,119,127,-1,112,127,113,-1,113,127,96,-1,113,96,98,-1,167,180,190,-1,167,190,171,-1,171,190,192,-1,171,192,169,-1,169,192,191,-1,169,191,170,-1,170,191,189,-1,170,189,172,-1,172,189,188,-1,172,188,173,-1,173,188,184,-1,173,184,168,-1,174,183,182,-1,174,182,175,-1,175,182,187,-1,175,187,176,-1,176,187,186,-1,176,186,177,-1,177,186,185,-1,177,185,178,-1,178,185,193,-1,178,193,179,-1,179,193,163,-1,179,163,161,-1,233,246,256,-1,233,256,237,-1,237,256,258,-1,237,258,235,-1,235,258,257,-1,235,257,236,-1,236,257,255,-1,236,255,238,-1,238,255,254,-1,238,254,239,-1,239,254,250,-1,239,250,234,-1,240,249,248,-1,240,248,241,-1,241,248,253,-1,241,253,242,-1,242,253,252,-1,242,252,243,-1,243,252,251,-1,243,251,244,-1,244,251,259,-1,244,259,245,-1,245,259,228,-1,245,228,230,-1,297,310,320,-1,297,320,301,-1,301,320,322,-1,301,322,299,-1,299,322,321,-1,299,321,300,-1,300,321,319,-1,300,319,302,-1,302,319,318,-1,302,318,303,-1,303,318,314,-1,303,314,298,-1,304,313,312,-1,304,312,305,-1,305,312,317,-1,305,317,306,-1,306,317,316,-1,306,316,307,-1,307,316,315,-1,307,315,308,-1,308,315,323,-1,308,323,309,-1,309,323,292,-1,309,292,294,-1,361,374,384,-1,361,384,365,-1,365,384,386,-1,365,386,363,-1,363,386,385,-1,363,385,364,-1,364,385,383,-1,364,383,366,-1,366,383,382,-1,366,382,367,-1,367,382,378,-1,367,378,362,-1,368,377,376,-1,368,376,369,-1,369,376,381,-1,369,381,370,-1,370,381,380,-1,370,380,371,-1,371,380,379,-1,371,379,372,-1,372,379,387,-1,372,387,373,-1,373,387,356,-1,373,356,358,-1,425,438,448,-1,425,448,429,-1,429,448,450,-1,429,450,427,-1,427,450,449,-1,427,449,428,-1,428,449,447,-1,428,447,430,-1,430,447,446,-1,430,446,431,-1,431,446,442,-1,431,442,426,-1,432,441,440,-1,432,440,433,-1,433,440,445,-1,433,445,434,-1,434,445,444,-1,434,444,435,-1,435,444,443,-1,435,443,436,-1,436,443,451,-1,436,451,437,-1,437,451,420,-1,437,420,422,-1,
        ]
    }
}
Shape{
    appearance Appearance {
        material  Material 	{
            diffuseColor 0.4392156862745098 0.4392156862745098 0.4392156862745098
            specularColor 0.2196078431372549 0.2196078431372549 0.2196078431372549
            ambientIntensity 0.4392
            transparency 0.0
            shininess 0.5
        }
    }
    geometry IndexedFaceSet {
        ccw TRUE
        solid FALSE
        coord DEF co Coordinate {
            point [
                0.2002 0.144 0.5393, 0.2463 0.144 0.4211, 0.2002 0.1401 0.5393, 0.2463 0.1401 0.4211, 0.229 0.144 0.4211, 0.229 0.1401 0.4211, 0.2171 0.144 0.4543, 0.2171 0.1401 0.4543, 0.1683 0.144 0.4543, 0.1683 0.1401 0.4543, 0.157 0.144 0.4211, 0.157 0.1401 0.4211, 0.1397 0.144 0.4211, 0.1397 0.1401 0.4211, 0.1486 0.1401 0.4211, 0.1486 0.1401 0.4446, 0.1844 0.144 0.5393, 0.1844 0.1401 0.5393, 0.1723 0.144 0.4672, 0.1899 0.144 0.5166, 0.191 0.144 0.5207, 0.1918 0.144 0.5249, 0.1922 0.144 0.5249, 0.1929 0.144 0.5207, 0.2118 0.144 0.4672, 0.194 0.144 0.5166, 0.1723 0.1401 0.4672, 0.2118 0.1401 0.4672, 0.1899 0.1401 0.5166, 0.191 0.1401 0.5207, 0.1918 0.1401 0.5249, 0.1922 0.1401 0.5249, 0.1929 0.1401 0.5207, 0.194 0.1401 0.5166, 0.0681 0.144 0.4211, 0.036 0.144 0.4211, 0.0681 0.1401 0.4211, 0.036 0.1401 0.4211, 0.036 0.144 0.5393, 0.036 0.1401 0.5393, 0.0693 0.144 0.5393, 0.0693 0.1401 0.5393, 0.1311 0.144 0.4817, 0.1311 0.1401 0.4817, 0.1302 0.1401 0.4928, 0.1302 0.144 0.4928, 0.127 0.1401 0.5044, 0.127 0.144 0.5044, 0.1216 0.1401 0.5146, 0.1216 0.144 0.5146, 0.1132 0.1401 0.5239, 0.1132 0.144 0.5239, 0.1131 0.1401 0.524, 0.1131 0.144 0.524, 0.1002 0.1401 0.5326, 0.1002 0.144 0.5326, 0.0864 0.1401 0.5374, 0.0864 0.144 0.5374, 0.0827 0.1401 0.4224, 0.0827 0.144 0.4224, 0.0963 0.1401 0.4265, 0.0963 0.144 0.4265, 0.1087 0.1401 0.4336, 0.1087 0.144 0.4336, 0.1184 0.1401 0.443, 0.1184 0.144 0.443, 0.1252 0.1401 0.4535, 0.1252 0.144 0.4535, 0.1294 0.1401 0.4659, 0.1294 0.144 0.4659, 0.1074 0.144 0.5097, 0.1016 0.144 0.5158, 0.093 0.144 0.5214, 0.0833 0.144 0.5248, 0.0693 0.144 0.5263, 0.0519 0.144 0.5263, 0.0519 0.144 0.4341, 0.0686 0.144 0.4341, 0.0811 0.144 0.4353, 0.091 0.144 0.4384, 0.0991 0.144 0.4432, 0.1057 0.144 0.4497, 0.1107 0.144 0.4578, 0.1141 0.144 0.4689, 0.1152 0.144 0.4814, 0.1142 0.144 0.4931, 0.1115 0.144 0.5024, 0.0693 0.1401 0.5263, 0.0519 0.1401 0.5263, 0.0833 0.1401 0.5248, 0.093 0.1401 0.5214, 0.1016 0.1401 0.5158, 0.1074 0.1401 0.5097, 0.1115 0.1401 0.5024, 0.1142 0.1401 0.4931, 0.1152 0.1401 0.4814, 0.1141 0.1401 0.4689, 0.1107 0.1401 0.4578, 0.1057 0.1401 0.4497, 0.0991 0.1401 0.4432, 0.091 0.1401 0.4384, 0.0811 0.1401 0.4353, 0.0686 0.1401 0.4341, 0.0519 0.1401 0.4341, 0.013 0.144 0.4341, 0.013 0.144 0.4211, 0.013 0.1401 0.4341, 0.013 0.1401 0.4211, -0.0504 0.144 0.4211, -0.0504 0.1401 0.4211, -0.0504 0.144 0.5393, -0.0504 0.1401 0.5393, 0.0101 0.144 0.5393, 0.0101 0.1401 0.5393, 0.0101 0.144 0.5263, 0.0101 0.1401 0.5263, -0.0346 0.144 0.5263, -0.0346 0.1401 0.5263, -0.0346 0.144 0.4874, -0.0346 0.1401 0.4874, 0.0072 0.144 0.4874, 0.0072 0.1401 0.4874, 0.0072 0.144 0.4744, 0.0072 0.1401 0.4744, -0.0346 0.144 0.4744, -0.0346 0.1401 0.4744, -0.0346 0.144 0.4341, -0.0346 0.1401 0.4341, -0.0735 0.144 0.4402, -0.0735 0.144 0.4273, -0.0735 0.1401 0.4402, -0.0735 0.1401 0.4273, -0.106 0.144 0.4197, -0.106 0.1401 0.4197, -0.1027 0.1401 0.4198, -0.1027 0.144 0.4198, -0.086 0.1401 0.4221, -0.086 0.144 0.4221, -0.1613 0.144 0.478, -0.1613 0.1401 0.478, -0.1602 0.1401 0.4643, -0.1602 0.144 0.4643, -0.1566 0.1401 0.4518, -0.1566 0.144 0.4518, -0.1503 0.1401 0.4406, -0.1503 0.144 0.4406, -0.1415 0.1401 0.4312, -0.1415 0.144 0.4312, -0.132 0.1401 0.4252, -0.132 0.144 0.4252, -0.1205 0.1401 0.4212, -0.1205 0.144 0.4212, -0.1013 0.144 0.5407, -0.1013 0.1401 0.5407, -0.1131 0.1401 0.5397, -0.1131 0.144 0.5397, -0.1263 0.1401 0.5359, -0.1263 0.144 0.5359, -0.1375 0.1401 0.5294, -0.1375 0.144 0.5294, -0.1482 0.1401 0.5192, -0.1482 0.144 0.5192, -0.1551 0.1401 0.5081, -0.1551 0.144 0.5081, -0.1596 0.1401 0.4948, -0.1596 0.144 0.4948, -0.0735 0.144 0.536, -0.0735 0.1401 0.536, -0.0871 0.1401 0.5397, -0.0871 0.144 0.5397, -0.0735 0.144 0.5202, -0.0735 0.1401 0.5202, -0.1011 0.144 0.5277, -0.1011 0.1401 0.5277, -0.0868 0.1401 0.5259, -0.0868 0.144 0.5259, -0.1455 0.144 0.4789, -0.1455 0.1401 0.4789, -0.1449 0.1401 0.4881, -0.1449 0.144 0.4881, -0.1418 0.1401 0.5008, -0.1418 0.144 0.5008, -0.1369 0.1401 0.5099, -0.1369 0.144 0.5099, -0.1298 0.1401 0.5178, -0.1298 0.144 0.5178, -0.1216 0.1401 0.5232, -0.1216 0.144 0.5232, -0.1127 0.1401 0.5264, -0.1127 0.144 0.5264, -0.1038 0.144 0.4327, -0.1038 0.1401 0.4327, -0.1148 0.1401 0.4339, -0.1148 0.144 0.4339, -0.1234 0.1401 0.4371, -0.1234 0.144 0.4371, -0.1306 0.1401 0.442, -0.1306 0.144 0.442, -0.1362 0.1401 0.4478, -0.1362 0.144 0.4478, -0.1411 0.1401 0.456, -0.1411 0.144 0.456, -0.1443 0.1401 0.4662, -0.1443 0.144 0.4662, -0.0756 0.1401 0.4391, -0.0756 0.144 0.4391, -0.0881 0.1401 0.4344, -0.0881 0.144 0.4344, -0.1714 0.144 0.4341, -0.1714 0.144 0.4211, -0.1714 0.1401 0.4341, -0.1714 0.1401 0.4211, -0.2319 0.144 0.4211, -0.2319 0.1401 0.4211, -0.2319 0.144 0.5393, -0.2319 0.1401 0.5393, -0.2161 0.144 0.5393, -0.2161 0.1401 0.5393, -0.2161 0.144 0.4341, -0.2161 0.1401 0.4341
            ]
        }
        coordIndex [
            0,1,2,-1,2,1,3,-1,1,4,3,-1,3,4,5,-1,4,6,5,-1,5,6,7,-1,6,8,7,-1,7,8,9,-1,8,10,9,-1,9,10,11,-1,12,13,10,-1,10,13,14,-1,10,14,11,-1,13,12,15,-1,15,12,16,-1,15,16,17,-1,16,0,17,-1,17,0,2,-1,18,19,16,-1,12,10,8,-1,19,20,16,-1,16,20,21,-1,16,21,0,-1,0,21,22,-1,0,22,23,-1,16,12,18,-1,18,12,8,-1,18,8,24,-1,24,8,6,-1,23,25,0,-1,0,25,24,-1,0,24,1,-1,1,24,6,-1,1,6,4,-1,18,24,26,-1,26,24,27,-1,19,18,28,-1,28,18,26,-1,19,28,29,-1,19,29,20,-1,20,29,30,-1,20,30,21,-1,22,21,31,-1,31,21,30,-1,22,31,32,-1,22,32,23,-1,23,32,33,-1,23,33,25,-1,24,25,27,-1,27,25,33,-1,34,35,36,-1,36,35,37,-1,35,38,37,-1,37,38,39,-1,38,40,39,-1,39,40,41,-1,42,43,44,-1,42,44,45,-1,45,44,46,-1,45,46,47,-1,47,46,48,-1,47,48,49,-1,49,48,50,-1,49,50,51,-1,51,50,52,-1,51,52,53,-1,53,52,54,-1,53,54,55,-1,55,54,56,-1,55,56,57,-1,57,56,41,-1,57,41,40,-1,34,36,58,-1,34,58,59,-1,59,58,60,-1,59,60,61,-1,61,60,62,-1,61,62,63,-1,63,62,64,-1,63,64,65,-1,65,64,66,-1,65,66,67,-1,67,66,68,-1,67,68,69,-1,69,68,43,-1,69,43,42,-1,47,49,70,-1,70,49,51,-1,70,51,71,-1,71,51,53,-1,71,53,72,-1,72,53,55,-1,72,55,73,-1,73,55,57,-1,73,57,74,-1,74,57,40,-1,74,40,75,-1,75,40,38,-1,75,38,76,-1,76,38,35,-1,76,35,77,-1,77,35,34,-1,77,34,78,-1,78,34,59,-1,78,59,79,-1,79,59,61,-1,79,61,80,-1,80,61,63,-1,80,63,81,-1,81,63,65,-1,81,65,82,-1,82,65,67,-1,82,67,83,-1,83,67,69,-1,83,69,84,-1,84,69,42,-1,84,42,85,-1,85,42,45,-1,85,45,86,-1,86,45,47,-1,86,47,70,-1,74,75,87,-1,87,75,88,-1,74,87,89,-1,74,89,73,-1,73,89,90,-1,73,90,72,-1,72,90,91,-1,72,91,71,-1,71,91,92,-1,71,92,70,-1,70,92,93,-1,70,93,86,-1,86,93,94,-1,86,94,85,-1,85,94,95,-1,85,95,84,-1,84,95,96,-1,84,96,83,-1,83,96,97,-1,83,97,82,-1,82,97,98,-1,82,98,81,-1,81,98,99,-1,81,99,80,-1,80,99,100,-1,80,100,79,-1,79,100,101,-1,79,101,78,-1,78,101,102,-1,78,102,77,-1,76,77,103,-1,103,77,102,-1,75,76,88,-1,88,76,103,-1,104,105,106,-1,106,105,107,-1,105,108,107,-1,107,108,109,-1,108,110,109,-1,109,110,111,-1,110,112,111,-1,111,112,113,-1,112,114,113,-1,113,114,115,-1,114,116,115,-1,115,116,117,-1,116,118,117,-1,117,118,119,-1,118,120,119,-1,119,120,121,-1,120,122,121,-1,121,122,123,-1,122,124,123,-1,123,124,125,-1,124,126,125,-1,125,126,127,-1,126,104,127,-1,127,104,106,-1,108,105,104,-1,104,126,108,-1,108,126,124,-1,108,124,110,-1,114,112,116,-1,116,112,110,-1,116,110,118,-1,118,110,124,-1,118,124,120,-1,120,124,122,-1,128,129,130,-1,130,129,131,-1,132,133,134,-1,132,134,135,-1,135,134,136,-1,135,136,137,-1,137,136,131,-1,137,131,129,-1,138,139,140,-1,138,140,141,-1,141,140,142,-1,141,142,143,-1,143,142,144,-1,143,144,145,-1,145,144,146,-1,145,146,147,-1,147,146,148,-1,147,148,149,-1,149,148,150,-1,149,150,151,-1,151,150,133,-1,151,133,132,-1,152,153,154,-1,152,154,155,-1,155,154,156,-1,155,156,157,-1,157,156,158,-1,157,158,159,-1,159,158,160,-1,159,160,161,-1,161,160,162,-1,161,162,163,-1,163,162,164,-1,163,164,165,-1,165,164,139,-1,165,139,138,-1,166,167,168,-1,166,168,169,-1,169,168,153,-1,169,153,152,-1,166,170,167,-1,167,170,171,-1,172,173,174,-1,172,174,175,-1,175,174,171,-1,175,171,170,-1,176,177,178,-1,176,178,179,-1,179,178,180,-1,179,180,181,-1,181,180,182,-1,181,182,183,-1,183,182,184,-1,183,184,185,-1,185,184,186,-1,185,186,187,-1,187,186,188,-1,187,188,189,-1,189,188,173,-1,189,173,172,-1,190,191,192,-1,190,192,193,-1,193,192,194,-1,193,194,195,-1,195,194,196,-1,195,196,197,-1,197,196,198,-1,197,198,199,-1,199,198,200,-1,199,200,201,-1,201,200,202,-1,201,202,203,-1,203,202,177,-1,203,177,176,-1,128,130,204,-1,128,204,205,-1,205,204,206,-1,205,206,207,-1,207,206,191,-1,207,191,190,-1,193,132,190,-1,190,132,135,-1,190,135,207,-1,207,135,137,-1,207,137,205,-1,205,137,129,-1,205,129,128,-1,170,166,175,-1,175,166,169,-1,175,169,172,-1,172,169,152,-1,172,152,189,-1,189,152,155,-1,189,155,187,-1,187,155,157,-1,187,157,185,-1,185,157,159,-1,185,159,183,-1,183,159,161,-1,183,161,181,-1,181,161,163,-1,181,163,179,-1,179,163,165,-1,179,165,176,-1,176,165,138,-1,176,138,203,-1,203,138,141,-1,203,141,201,-1,201,141,143,-1,201,143,199,-1,199,143,145,-1,199,145,197,-1,197,145,147,-1,197,147,195,-1,195,147,149,-1,195,149,193,-1,193,149,151,-1,193,151,132,-1,208,209,210,-1,210,209,211,-1,209,212,211,-1,211,212,213,-1,212,214,213,-1,213,214,215,-1,214,216,215,-1,215,216,217,-1,216,218,217,-1,217,218,219,-1,218,208,219,-1,219,208,210,-1,216,214,218,-1,218,214,212,-1,218,212,208,-1,208,212,209,-1,
        ]
    }
}
Shape{
    appearance Appearance {
        material  Material 	{
            diffuseColor 0.8431372549019608 0.8156862745098039 0.7529411764705882
            specularColor 0.25098039215686274 0.24313725490196078 0.22745098039215686
            ambientIntensity 0.8167
            transparency 0.0
            shininess 0.5
        }
    }
    geometry IndexedFaceSet {
        ccw TRUE
        solid FALSE
        coord DEF co Coordinate {
            point [
                0.1723 0.1401 0.4672, 0.2118 0.1401 0.4672, 0.1899 0.1401 0.5166, 0.194 0.1401 0.5166, 0.191 0.1401 0.5207, 0.1929 0.1401 0.5207, 0.1918 0.1401 0.5249, 0.1922 0.1401 0.5249, 0.0519 0.1401 0.5263, 0.0519 0.1401 0.4341, 0.0693 0.1401 0.5263, 0.0686 0.1401 0.4341, 0.0811 0.1401 0.4353, 0.1152 0.1401 0.4814, 0.1142 0.1401 0.4931, 0.1115 0.1401 0.5024, 0.0833 0.1401 0.5248, 0.091 0.1401 0.4384, 0.0991 0.1401 0.4432, 0.1057 0.1401 0.4497, 0.1107 0.1401 0.4578, 0.1141 0.1401 0.4689, 0.1074 0.1401 0.5097, 0.1016 0.1401 0.5158, 0.093 0.1401 0.5214
            ]
        }
        coordIndex [
            0,1,2,-1,2,1,3,-1,2,3,4,-1,4,3,5,-1,4,5,6,-1,6,5,7,-1,8,9,10,-1,10,9,11,-1,10,11,12,-1,13,14,10,-1,10,14,15,-1,10,15,16,-1,12,17,10,-1,10,17,18,-1,10,18,19,-1,19,20,10,-1,10,20,21,-1,10,21,13,-1,22,23,15,-1,15,23,24,-1,15,24,16,-1,
        ]
    }
}