#VRML V2.0 utf8
# 3D model generated by easyeda2kicad.py (https://github.com/uPesy/easyeda2kicad.py)

Shape{
    appearance Appearance {
        material  Material 	{
            diffuseColor 0.8431372549019608 0.8156862745098039 0.7529411764705882
            specularColor 0.25098039215686274 0.24313725490196078 0.22745098039215686
            ambientIntensity 0.8167
            transparency 0.0
            shininess 0.5
        }
    }
    geometry IndexedFaceSet {
        ccw TRUE
        solid FALSE
        coord DEF co Coordinate {
            point [
                0.748 0.2933 0.0039, 0.748 -0.4941 0.0039, 0.4331 -0.4941 0.0039, 1.378 0.1752 0.0039, 1.378 -0.4941 0.0039, 1.063 0.1752 0.0039, 0.8268 -0.4941 0.0039, 1.063 0.3941 0.0039, 0.8268 0.2933 0.0039, 0.0394 -0.4941 0.0039, 0.0394 0.2933 0.0039, 0.3543 -0.4941 0.0039, 0.3543 0.2933 0.0039, 0.098 0.3941 0.0039, 0.1027 0.3934 0.0039, 0.4331 0.2933 0.0039, 0.1129 0.3941 0.0039, 0.106 0.3933 0.0039, -0.0101 0.5129 0.0039, -0.0101 0.4999 0.0039, -0.0245 0.6476 0.0039, -0.013 0.4077 0.0039, -0.0245 0.3941 0.0039, -0.013 0.3948 0.0039, 0.0504 0.3948 0.0039, 0.0735 0.4009 0.0039, 0.0735 0.4139 0.0039, 0.0504 0.5129 0.0039, 0.086 0.3957 0.0039, 0.0346 0.4481 0.0039, 0.0346 0.4077 0.0039, -0.0072 0.4481 0.0039, -0.0072 0.461 0.0039, 0.0346 0.461 0.0039, 0.0346 0.4999 0.0039, 0.2319 0.3948 0.0039, 0.1714 0.3948 0.0039, 0.1205 0.3949 0.0039, 0.132 0.3988 0.0039, 0.2161 0.5129 0.0039, 0.2319 0.5129 0.0039, 1.063 0.6476 0.0039, 0.1551 0.4818 0.0039, 0.1482 0.4928 0.0039, 0.1127 0.5001 0.0039, 0.1216 0.4969 0.0039, 0.0756 0.4127 0.0039, 0.1298 0.4914 0.0039, 0.1369 0.4835 0.0039, 0.1455 0.4526 0.0039, 0.1443 0.4398 0.0039, 0.1411 0.4296 0.0039, 0.1148 0.4075 0.0039, 0.1038 0.4063 0.0039, 0.1234 0.4107 0.0039, 0.1306 0.4156 0.0039, 0.1362 0.4214 0.0039, 0.0881 0.408 0.0039, 0.0735 0.4938 0.0039, 0.0868 0.4995 0.0039, 0.1011 0.5014 0.0039, 0.1418 0.4744 0.0039, 0.1449 0.4618 0.0039, 0.1415 0.4049 0.0039, 0.1503 0.4142 0.0039, 0.1714 0.4077 0.0039, 0.1566 0.4254 0.0039, 0.2161 0.4077 0.0039, 0.1013 0.5143 0.0039, 0.0871 0.5134 0.0039, 0.0735 0.5097 0.0039, 0.1602 0.4379 0.0039, 0.1613 0.4516 0.0039, 0.1596 0.4684 0.0039, 0.1375 0.5031 0.0039, 0.1263 0.5095 0.0039, 0.1131 0.5134 0.0039, -0.1397 0.3948 0.0039, -0.1252 0.4272 0.0039, -0.1184 0.4166 0.0039, -0.1844 0.5129 0.0039, -0.2002 0.5129 0.0039, -0.229 0.3948 0.0039, -0.2463 0.3948 0.0039, -1.063 0.3941 0.0039, -1.063 0.6476 0.0039, -0.1087 0.4073 0.0039, -0.0963 0.4001 0.0039, -0.0827 0.3961 0.0039, -0.0681 0.3948 0.0039, -0.036 0.3948 0.0039, -0.036 0.5129 0.0039, -0.0693 0.5129 0.0039, -0.1132 0.4975 0.0039, -0.1216 0.4882 0.0039, -0.127 0.4781 0.0039, -0.0864 0.5111 0.0039, -0.1002 0.5062 0.0039, -0.1131 0.4976 0.0039, -0.157 0.3948 0.0039, -0.1683 0.4279 0.0039, -0.2171 0.4279 0.0039, -0.1302 0.4664 0.0039, -0.1311 0.4553 0.0039, -0.1294 0.4395 0.0039, -0.0394 -0.4941 0.0039, -0.3543 -0.4941 0.0039, -0.0394 0.2933 0.0039, -0.3543 0.2933 0.0039, -0.0245 0.2933 0.0039, -0.4331 0.2933 0.0039, -0.4331 -0.4941 0.0039, -0.748 -0.4941 0.0039, -0.748 0.2933 0.0039, -0.8268 0.2933 0.0039, -1.063 0.1752 0.0039, -0.8268 -0.4941 0.0039, -1.378 0.1752 0.0039, -1.378 -0.4941 0.0039, 0.4331 -0.4941 0.1378, 1.2205 -0.4941 1.6772, -1.2205 -0.4941 1.6772, 1.2205 -0.4941 1.2047, 0.748 -0.4941 0.1378, 1.378 -0.4941 1.2047, 0.8268 -0.4941 0.1378, 0.0394 -0.4941 0.1378, -0.0394 -0.4941 0.1378, -1.2205 -0.4941 1.2047, 0.3543 -0.4941 0.1378, -1.378 -0.4941 1.2047, -0.8268 -0.4941 0.1378, -0.748 -0.4941 0.1378, -0.3543 -0.4941 0.1378, -0.4331 -0.4941 0.1378, 0.1969 -0.376 0.4961, 1.1024 -0.376 0.4961, 1.1024 -0.1181 0.4961, 1.1024 0.3327 0.4961, 1.1024 0.5295 0.4961, 0.8268 0.2894 0.4961, -0.0394 0.2894 0.4961, 0.0394 0.2894 0.4961, 0.1969 0.5295 0.4961, -1.1024 0.0965 0.4961, -0.748 0.1397 0.4961, -0.8268 0.1397 0.4961, -1.1811 0.3327 0.4961, -1.1811 0.0965 0.4961, -1.1024 0.3327 0.4961, -1.1024 0.5295 0.4961, -0.8268 0.2894 0.4961, -0.748 0.2894 0.4961, 0.1969 -0.1181 0.4961, 0.0394 0.1397 0.4961, -0.0394 0.1397 0.4961, -0.3543 0.1397 0.4961, -0.4331 0.1397 0.4961, -1.1024 -0.1181 0.4961, -0.4331 0.2894 0.4961, -0.3543 0.2894 0.4961, 0.748 0.2894 0.4961, 1.1811 0.0965 0.4961, 1.1811 0.3327 0.4961, 1.1024 0.0965 0.4961, 0.8268 0.1397 0.4961, 0.748 0.1397 0.4961, 0.4331 0.1397 0.4961, 0.3543 0.1397 0.4961, 0.3543 0.2894 0.4961, 0.4331 0.2894 0.4961, -1.1024 -0.376 0.4961, 1.378 0.4114 0.4764, 1.378 0.4114 0.2402, 1.2598 0.4114 0.4764, 1.2598 0.4114 0.2402, 1.378 0.6476 0.4764, 1.2598 0.6476 0.4764, 1.378 0.6476 1.6772, 1.378 -0.0217 1.6772, 1.378 0.1752 0.2402, 1.378 -0.0217 1.4409, 1.378 -0.2579 1.4409, 1.378 -0.2579 1.2047, -1.2598 0.6476 0.4764, -1.378 0.6476 0.4764, -1.378 0.6476 1.6772, 1.063 0.6476 0.4764, 1.1811 0.6476 0.4764, -1.063 0.6476 0.4764, -1.1811 0.6476 0.4764, 1.2205 -0.1988 1.4409, 1.2205 -0.2579 1.4409, 1.3189 -0.1988 1.4409, 1.3189 -0.0217 1.4409, 1.2205 -0.435 1.2047, 1.3189 -0.435 1.2047, 1.3189 -0.2579 1.2047, 1.1614 0.5886 1.6772, 1.1614 0.3917 1.6772, 1.2402 0.3917 1.6772, -1.1614 0.3917 1.6772, -1.1614 0.5886 1.6772, 1.2402 0.0374 1.6772, 1.2205 -0.0217 1.6772, 1.1614 0.0374 1.6772, 1.1614 -0.435 1.6772, -1.1614 -0.435 1.6772, -1.2205 -0.0217 1.6772, -1.1614 0.0374 1.6772, -1.378 -0.0217 1.6772, -1.2402 0.0374 1.6772, -1.2402 0.3917 1.6772, -1.378 0.4114 0.4764, -1.2598 0.4114 0.4764, -1.063 0.4114 0.4764, -1.1811 0.4114 0.4764, -1.378 0.4114 0.2402, -1.2598 0.4114 0.2402, -1.063 0.4114 0.2402, -1.1811 0.4114 0.2402, -1.1811 0.1831 0.2402, -1.063 0.1752 0.2402, -1.2598 0.1831 0.2402, -1.378 0.1752 0.2402, -1.378 -0.0217 1.4409, -1.378 -0.2579 1.2047, -1.378 -0.2579 1.4409, -1.1811 0.3327 1.5149, -1.1024 0.3327 1.5149, -1.1024 0.5295 1.5149, 1.1024 0.5295 1.5149, 1.1024 0.3327 1.5149, 1.1811 0.3327 1.5149, 1.1811 0.0965 1.5149, 1.1024 0.0965 1.5149, 1.1024 -0.376 1.5149, -1.1024 -0.376 1.5149, -1.1024 0.0965 1.5149, -1.1811 0.0965 1.5149, -1.3189 -0.2579 1.2047, -1.3189 -0.435 1.2047, -1.2205 -0.435 1.2047, -1.3189 -0.2579 0.2598, -1.2205 -0.2579 0.2598, -1.2205 -0.2579 1.4409, -1.3189 -0.0217 1.4409, -1.3189 -0.1988 1.4409, -1.2205 -0.1988 1.4409, -1.3189 -0.0217 0.2598, -1.2205 -0.0217 0.2598, -1.2205 -0.435 0.2598, -1.2205 -0.1988 0.2598, -1.3189 -0.1988 0.2598, -1.3189 -0.435 0.2598
            ]
        }
        coordIndex [
            0,1,2,-1,3,4,5,-1,5,4,6,-1,5,6,7,-1,7,6,8,-1,7,8,0,-1,9,10,11,-1,11,10,12,-1,13,14,10,-1,15,12,16,-1,16,12,10,-1,16,10,17,-1,17,10,14,-1,18,19,20,-1,20,19,21,-1,20,21,22,-1,22,21,23,-1,22,23,24,-1,25,24,26,-1,26,24,27,-1,10,22,13,-1,13,22,24,-1,13,24,28,-1,28,24,25,-1,29,30,31,-1,31,30,21,-1,31,21,32,-1,32,21,19,-1,32,19,33,-1,33,19,34,-1,35,16,36,-1,36,16,37,-1,36,37,38,-1,39,20,40,-1,40,20,41,-1,40,41,35,-1,35,41,7,-1,35,7,16,-1,16,7,0,-1,16,0,15,-1,15,0,2,-1,42,43,39,-1,44,45,46,-1,46,45,47,-1,46,47,48,-1,49,50,46,-1,46,50,51,-1,52,53,54,-1,54,53,55,-1,51,56,46,-1,46,56,55,-1,46,55,57,-1,57,55,53,-1,18,20,27,-1,27,20,58,-1,27,58,26,-1,26,58,59,-1,26,59,46,-1,46,59,60,-1,46,60,44,-1,48,61,46,-1,46,61,62,-1,46,62,49,-1,38,63,36,-1,36,63,64,-1,36,64,65,-1,65,64,66,-1,65,66,67,-1,68,69,20,-1,20,69,70,-1,20,70,58,-1,66,71,67,-1,67,71,72,-1,67,72,39,-1,39,72,73,-1,39,73,42,-1,43,74,39,-1,39,74,75,-1,39,75,20,-1,20,75,76,-1,20,76,68,-1,77,78,79,-1,20,80,81,-1,82,22,83,-1,83,22,84,-1,83,84,81,-1,81,84,85,-1,81,85,20,-1,79,86,77,-1,77,86,87,-1,77,87,88,-1,89,90,22,-1,22,90,91,-1,22,91,20,-1,20,91,92,-1,93,94,80,-1,80,94,95,-1,92,96,20,-1,20,96,97,-1,20,97,80,-1,80,97,98,-1,80,98,93,-1,88,89,77,-1,77,89,22,-1,77,22,99,-1,99,22,82,-1,99,82,100,-1,100,82,101,-1,95,102,80,-1,80,102,103,-1,80,103,77,-1,77,103,104,-1,77,104,78,-1,105,106,107,-1,107,106,108,-1,10,109,22,-1,22,109,107,-1,22,107,84,-1,84,107,108,-1,84,108,110,-1,111,112,110,-1,110,112,113,-1,110,113,84,-1,84,113,114,-1,84,114,115,-1,115,114,116,-1,115,116,117,-1,117,116,118,-1,119,2,1,-1,120,121,122,-1,122,121,123,-1,122,123,124,-1,124,123,125,-1,124,125,4,-1,4,125,6,-1,126,121,127,-1,127,121,128,-1,127,128,105,-1,9,11,126,-1,126,11,129,-1,126,129,121,-1,121,129,119,-1,121,119,123,-1,123,119,1,-1,118,116,130,-1,130,116,131,-1,130,131,128,-1,128,131,132,-1,106,105,133,-1,133,105,128,-1,133,128,134,-1,134,128,132,-1,134,132,111,-1,111,132,112,-1,135,136,137,-1,138,139,140,-1,141,142,143,-1,144,145,146,-1,147,148,144,-1,147,144,149,-1,149,144,146,-1,149,146,150,-1,150,146,151,-1,150,151,152,-1,143,142,153,-1,153,142,154,-1,153,154,155,-1,156,157,158,-1,144,158,145,-1,145,158,157,-1,145,157,152,-1,152,157,159,-1,152,159,150,-1,150,159,160,-1,140,139,161,-1,162,163,138,-1,162,138,164,-1,164,138,140,-1,164,140,137,-1,137,140,165,-1,137,165,166,-1,167,168,153,-1,153,168,143,-1,143,168,169,-1,143,169,170,-1,171,135,153,-1,153,135,137,-1,153,137,167,-1,167,137,166,-1,167,166,170,-1,170,166,161,-1,170,161,143,-1,143,161,139,-1,143,150,141,-1,141,150,160,-1,141,160,155,-1,155,160,156,-1,155,156,153,-1,153,156,158,-1,153,158,171,-1,172,173,174,-1,174,173,175,-1,176,172,177,-1,177,172,174,-1,124,4,3,-1,176,178,179,-1,180,173,172,-1,181,182,183,-1,179,181,176,-1,176,181,183,-1,176,183,172,-1,172,183,124,-1,172,124,180,-1,180,124,3,-1,184,185,186,-1,187,186,188,-1,188,186,178,-1,188,178,177,-1,177,178,176,-1,187,41,189,-1,189,41,20,-1,189,20,85,-1,187,189,186,-1,186,189,190,-1,186,190,184,-1,191,192,193,-1,193,192,182,-1,193,182,194,-1,194,182,181,-1,195,122,196,-1,196,122,124,-1,196,124,197,-1,197,124,183,-1,198,199,200,-1,201,202,186,-1,186,202,178,-1,202,198,178,-1,178,198,200,-1,178,200,179,-1,179,200,203,-1,179,203,204,-1,204,203,205,-1,204,205,120,-1,120,205,206,-1,120,206,121,-1,121,206,207,-1,121,207,208,-1,208,207,209,-1,208,209,210,-1,210,209,211,-1,210,211,186,-1,186,211,212,-1,186,212,201,-1,213,185,214,-1,214,185,184,-1,189,215,190,-1,190,215,216,-1,217,213,218,-1,218,213,214,-1,215,219,216,-1,216,219,220,-1,220,219,221,-1,221,219,222,-1,221,222,223,-1,223,222,224,-1,223,224,218,-1,218,224,217,-1,224,117,118,-1,225,210,186,-1,226,227,225,-1,213,217,224,-1,186,185,225,-1,225,185,213,-1,225,213,226,-1,226,213,224,-1,226,224,130,-1,130,224,118,-1,228,147,229,-1,229,147,149,-1,229,149,230,-1,230,149,150,-1,230,150,231,-1,231,150,143,-1,231,143,139,-1,231,139,232,-1,232,139,138,-1,232,138,233,-1,233,138,163,-1,233,163,234,-1,234,163,162,-1,234,162,235,-1,235,162,164,-1,136,236,137,-1,137,236,235,-1,137,235,164,-1,171,237,135,-1,135,237,236,-1,135,236,136,-1,144,238,158,-1,158,238,237,-1,158,237,171,-1,238,144,239,-1,239,144,148,-1,239,148,228,-1,228,148,147,-1,199,232,200,-1,200,232,233,-1,198,231,199,-1,199,231,232,-1,234,203,233,-1,233,203,200,-1,202,230,198,-1,198,230,231,-1,235,205,234,-1,234,205,203,-1,201,229,202,-1,202,229,230,-1,236,206,235,-1,235,206,205,-1,212,228,201,-1,201,228,229,-1,237,207,236,-1,236,207,206,-1,211,239,212,-1,212,239,228,-1,238,209,237,-1,237,209,207,-1,209,238,211,-1,211,238,239,-1,240,226,241,-1,241,226,130,-1,241,130,242,-1,242,130,128,-1,243,244,240,-1,240,244,245,-1,240,245,226,-1,226,245,227,-1,246,225,247,-1,247,225,227,-1,247,227,248,-1,248,227,245,-1,249,250,246,-1,246,250,208,-1,246,208,225,-1,225,208,210,-1,244,251,245,-1,245,251,242,-1,242,128,245,-1,245,128,121,-1,245,121,248,-1,248,121,208,-1,248,208,252,-1,252,208,250,-1,252,253,248,-1,248,253,247,-1,253,249,247,-1,247,249,246,-1,249,253,250,-1,250,253,252,-1,243,240,254,-1,254,240,241,-1,254,241,251,-1,251,241,242,-1,243,254,244,-1,244,254,251,-1,222,115,224,-1,224,115,117,-1,219,215,189,-1,115,222,84,-1,84,222,219,-1,84,219,85,-1,85,219,189,-1,
        ]
    }
}
Shape{
    appearance Appearance {
        material  Material 	{
            diffuseColor 0.8509803921568627 0.8509803921568627 0.8509803921568627
            specularColor 0.4235294117647059 0.4235294117647059 0.4235294117647059
            ambientIntensity 0.851
            transparency 0.0
            shininess 0.5
        }
    }
    geometry IndexedFaceSet {
        ccw TRUE
        solid FALSE
        coord DEF co Coordinate {
            point [
                -1.1811 0.6516 0.4764, -1.2598 0.6516 0.4764, -1.1811 0.6476 0.4764, -1.2598 0.6476 0.4764, -1.2598 0.4114 0.2402, -1.2598 0.6343 0.0173, -1.2598 0.622 0.0079, -1.2598 0.1831 0.0, -1.2598 0.1831 0.2402, -1.2598 0.5925 0.0, -1.2598 0.6078 0.002, -1.2598 0.4114 0.4764, -1.2598 0.6516 0.0591, -1.2598 0.6496 0.0438, -1.2598 0.6437 0.0295, -1.1811 0.6516 0.0591, -1.1811 0.6496 0.0438, -1.1811 0.1831 0.2402, -1.1811 0.1831 0.0, -1.1811 0.4114 0.2402, -1.1811 0.5925 0.0, -1.1811 0.6078 0.002, -1.1811 0.622 0.0079, -1.1811 0.6343 0.0173, -1.1811 0.4114 0.4764, -1.1811 0.6437 0.0295
            ]
        }
        coordIndex [
            0,1,2,-1,2,1,3,-1,4,5,6,-1,7,8,9,-1,9,8,4,-1,9,4,10,-1,10,4,6,-1,4,11,3,-1,1,12,3,-1,3,12,13,-1,3,13,4,-1,4,13,14,-1,4,14,5,-1,0,2,15,-1,15,2,16,-1,17,18,19,-1,19,18,20,-1,20,21,19,-1,19,21,22,-1,19,22,23,-1,2,24,16,-1,16,24,19,-1,16,19,25,-1,25,19,23,-1,8,7,17,-1,17,7,18,-1,12,1,15,-1,15,1,0,-1,20,18,9,-1,9,18,7,-1,
        ]
    }
}
Shape{
    appearance Appearance {
        material  Material 	{
            diffuseColor 0.8431372549019608 0.8156862745098039 0.7529411764705882
            specularColor 0.25098039215686274 0.24313725490196078 0.22745098039215686
            ambientIntensity 0.8167
            transparency 0.0
            shininess 0.5
        }
    }
    geometry IndexedFaceSet {
        ccw TRUE
        solid FALSE
        coord DEF co Coordinate {
            point [
                1.378 -0.0217 1.4409, 1.378 -0.0217 1.6772, 1.3189 -0.0217 1.4409, 1.2205 -0.0217 1.6772, 1.3189 -0.0217 0.2598, 1.2205 -0.0217 0.2598, 1.378 -0.2579 1.2047, 1.378 -0.2579 1.4409, 1.3189 -0.2579 1.2047, 1.2205 -0.2579 1.4409, 1.3189 -0.2579 0.2598, 1.2205 -0.2579 0.2598, 1.2205 -0.435 0.2598, 1.2205 -0.435 1.2047, 1.2205 -0.1988 0.2598, 1.2205 -0.1988 1.4409, 1.2205 -0.4941 1.6772, 1.2205 -0.4941 1.2047, 1.3189 -0.1988 0.2598, 1.3189 -0.1988 1.4409, 1.3189 -0.435 0.2598, 1.3189 -0.435 1.2047, 1.063 0.1752 0.0039, 1.063 0.1752 0.2402, 1.378 0.1752 0.0039, 1.378 0.1752 0.2402, 1.2598 0.4114 0.2402, 1.378 0.4114 0.2402, 1.2598 0.1831 0.2402, 1.1811 0.1831 0.2402, 1.1811 0.4114 0.2402, 1.063 0.4114 0.2402, 1.063 0.4114 0.4764, 1.1811 0.4114 0.4764, 1.063 0.6476 0.4764, 1.1811 0.6476 0.4764, 1.063 0.6476 0.0039, 1.063 0.3941 0.0039
            ]
        }
        coordIndex [
            0,1,2,-1,2,1,3,-1,2,3,4,-1,4,3,5,-1,6,7,8,-1,8,7,9,-1,8,9,10,-1,10,9,11,-1,12,11,13,-1,13,11,9,-1,14,5,15,-1,15,5,3,-1,15,3,9,-1,9,3,16,-1,9,16,13,-1,13,16,17,-1,4,18,2,-1,2,18,19,-1,18,14,19,-1,19,14,15,-1,18,4,14,-1,14,4,5,-1,20,21,10,-1,10,21,8,-1,12,13,20,-1,20,13,21,-1,20,10,12,-1,12,10,11,-1,22,23,24,-1,24,23,25,-1,26,27,28,-1,28,27,25,-1,28,25,29,-1,29,25,23,-1,29,23,30,-1,30,23,31,-1,31,32,30,-1,30,32,33,-1,32,34,33,-1,33,34,35,-1,34,32,36,-1,36,32,31,-1,36,31,37,-1,37,31,23,-1,37,23,22,-1,
        ]
    }
}
Shape{
    appearance Appearance {
        material  Material 	{
            diffuseColor 0.8509803921568627 0.8509803921568627 0.8509803921568627
            specularColor 0.4235294117647059 0.4235294117647059 0.4235294117647059
            ambientIntensity 0.851
            transparency 0.0
            shininess 0.5
        }
    }
    geometry IndexedFaceSet {
        ccw TRUE
        solid FALSE
        coord DEF co Coordinate {
            point [
                1.2598 0.6516 0.4764, 1.1811 0.6516 0.4764, 1.2598 0.6476 0.4764, 1.1811 0.6476 0.4764, 1.2598 0.6516 0.0591, 1.2598 0.6496 0.0438, 1.2598 0.1831 0.2402, 1.2598 0.1831 0.0, 1.2598 0.4114 0.2402, 1.2598 0.5925 0.0, 1.2598 0.6078 0.002, 1.2598 0.622 0.0079, 1.2598 0.6343 0.0173, 1.2598 0.4114 0.4764, 1.2598 0.6437 0.0295, 1.1811 0.1831 0.2402, 1.1811 0.1831 0.0, 1.1811 0.4114 0.2402, 1.1811 0.6343 0.0173, 1.1811 0.622 0.0079, 1.1811 0.5925 0.0, 1.1811 0.6078 0.002, 1.1811 0.4114 0.4764, 1.1811 0.6516 0.0591, 1.1811 0.6496 0.0438, 1.1811 0.6437 0.0295, -0.8268 0.2157 1.2926, -0.8268 0.2134 1.2926, -0.748 0.2157 1.2926, -0.748 0.2134 1.2926, -0.748 0.1397 0.4961, -0.748 0.2894 0.4961, -0.748 0.1544 1.2347, -0.748 0.2748 1.2347, -0.748 0.2725 1.2498, -0.748 0.2665 1.2638, -0.748 0.2571 1.2757, -0.748 0.2449 1.2849, -0.748 0.2308 1.2906, -0.748 0.1721 1.2757, -0.748 0.1627 1.2638, -0.748 0.1842 1.2849, -0.748 0.1983 1.2906, -0.748 0.1566 1.2498, -0.8268 0.1983 1.2906, -0.8268 0.1544 1.2347, -0.8268 0.2308 1.2906, -0.8268 0.2449 1.2849, -0.8268 0.2571 1.2757, -0.8268 0.2665 1.2638, -0.8268 0.1566 1.2498, -0.8268 0.1627 1.2638, -0.8268 0.1842 1.2849, -0.8268 0.1721 1.2757, -0.8268 0.2894 0.4961, -0.8268 0.1397 0.4961, -0.8268 0.2748 1.2347, -0.8268 0.2725 1.2498, -0.748 0.2933 0.0, -0.8268 0.2933 0.0, -0.748 0.2933 0.0039, -0.8268 0.2933 0.0039, -0.8268 -0.5335 0.1378, -0.748 -0.5335 0.1378, -0.8268 -0.4941 0.1378, -0.748 -0.4941 0.1378, -0.8268 -0.4941 0.0039, -0.8268 -0.7697 0.0, -0.8268 -0.5841 0.0524, -0.8268 -0.7697 0.0197, -0.748 -0.7697 0.0, -0.748 -0.4941 0.0039, -0.748 -0.7697 0.0197, -0.748 -0.5841 0.0524, -0.4331 0.2157 1.2926, -0.4331 0.2134 1.2926, -0.3543 0.2157 1.2926, -0.3543 0.2134 1.2926, -0.3543 0.1397 0.4961, -0.3543 0.2894 0.4961, -0.3543 0.1544 1.2347, -0.3543 0.2748 1.2347, -0.3543 0.2725 1.2498, -0.3543 0.2665 1.2638, -0.3543 0.2571 1.2757, -0.3543 0.2449 1.2849, -0.3543 0.2308 1.2906, -0.3543 0.1721 1.2757, -0.3543 0.1627 1.2638, -0.3543 0.1842 1.2849, -0.3543 0.1983 1.2906, -0.3543 0.1566 1.2498, -0.4331 0.1983 1.2906, -0.4331 0.1544 1.2347, -0.4331 0.2308 1.2906, -0.4331 0.2449 1.2849, -0.4331 0.2571 1.2757, -0.4331 0.2665 1.2638, -0.4331 0.1566 1.2498, -0.4331 0.1627 1.2638, -0.4331 0.1842 1.2849, -0.4331 0.1721 1.2757, -0.4331 0.2894 0.4961, -0.4331 0.1397 0.4961, -0.4331 0.2748 1.2347, -0.4331 0.2725 1.2498, -0.3543 0.2933 0.0, -0.4331 0.2933 0.0, -0.3543 0.2933 0.0039, -0.4331 0.2933 0.0039, -0.4331 -0.5335 0.1378, -0.3543 -0.5335 0.1378, -0.4331 -0.4941 0.1378, -0.3543 -0.4941 0.1378, -0.4331 -0.4941 0.0039, -0.4331 -0.7697 0.0, -0.4331 -0.5841 0.0524, -0.4331 -0.7697 0.0197, -0.3543 -0.7697 0.0, -0.3543 -0.4941 0.0039, -0.3543 -0.7697 0.0197, -0.3543 -0.5841 0.0524, -0.0394 0.2157 1.2926, -0.0394 0.2134 1.2926, 0.0394 0.2157 1.2926, 0.0394 0.2134 1.2926, 0.0394 0.1397 0.4961, 0.0394 0.2894 0.4961, 0.0394 0.1544 1.2347, 0.0394 0.2748 1.2347, 0.0394 0.2725 1.2498, 0.0394 0.2665 1.2638, 0.0394 0.2571 1.2757, 0.0394 0.2449 1.2849, 0.0394 0.2308 1.2906, 0.0394 0.1721 1.2757, 0.0394 0.1627 1.2638, 0.0394 0.1842 1.2849, 0.0394 0.1983 1.2906, 0.0394 0.1566 1.2498, -0.0394 0.1983 1.2906, -0.0394 0.1544 1.2347, -0.0394 0.2308 1.2906, -0.0394 0.2449 1.2849, -0.0394 0.2571 1.2757, -0.0394 0.2665 1.2638, -0.0394 0.1566 1.2498, -0.0394 0.1627 1.2638, -0.0394 0.1842 1.2849, -0.0394 0.1721 1.2757, -0.0394 0.2894 0.4961, -0.0394 0.1397 0.4961, -0.0394 0.2748 1.2347, -0.0394 0.2725 1.2498, 0.0394 0.2933 0.0039, 0.0394 0.2933 0.0, -0.0245 0.2933 0.0039, -0.0394 0.2933 0.0, -0.0394 0.2933 0.0039, -0.0394 -0.5335 0.1378, 0.0394 -0.5335 0.1378, -0.0394 -0.4941 0.1378, 0.0394 -0.4941 0.1378, -0.0394 -0.4941 0.0039, -0.0394 -0.7697 0.0, -0.0394 -0.5841 0.0524, -0.0394 -0.7697 0.0197, 0.0394 -0.7697 0.0, 0.0394 -0.4941 0.0039, 0.0394 -0.7697 0.0197, 0.0394 -0.5841 0.0524, 0.3543 0.2157 1.2926, 0.3543 0.2134 1.2926, 0.4331 0.2157 1.2926, 0.4331 0.2134 1.2926, 0.4331 0.1397 0.4961, 0.4331 0.2894 0.4961, 0.4331 0.1544 1.2347, 0.4331 0.2748 1.2347, 0.4331 0.2725 1.2498, 0.4331 0.2665 1.2638, 0.4331 0.2571 1.2757, 0.4331 0.2449 1.2849, 0.4331 0.2308 1.2906, 0.4331 0.1721 1.2757, 0.4331 0.1627 1.2638, 0.4331 0.1842 1.2849, 0.4331 0.1983 1.2906, 0.4331 0.1566 1.2498, 0.3543 0.1983 1.2906, 0.3543 0.1544 1.2347, 0.3543 0.2308 1.2906, 0.3543 0.2449 1.2849, 0.3543 0.2571 1.2757, 0.3543 0.2665 1.2638, 0.3543 0.1566 1.2498, 0.3543 0.1627 1.2638, 0.3543 0.1842 1.2849, 0.3543 0.1721 1.2757, 0.3543 0.2894 0.4961, 0.3543 0.1397 0.4961, 0.3543 0.2748 1.2347, 0.3543 0.2725 1.2498, 0.4331 0.2933 0.0, 0.3543 0.2933 0.0, 0.4331 0.2933 0.0039, 0.3543 0.2933 0.0039, 0.3543 -0.5335 0.1378, 0.4331 -0.5335 0.1378, 0.3543 -0.4941 0.1378, 0.4331 -0.4941 0.1378, 0.3543 -0.4941 0.0039, 0.3543 -0.7697 0.0, 0.3543 -0.5841 0.0524, 0.3543 -0.7697 0.0197, 0.4331 -0.7697 0.0, 0.4331 -0.4941 0.0039, 0.4331 -0.7697 0.0197, 0.4331 -0.5841 0.0524, 0.748 0.2157 1.2926, 0.748 0.2134 1.2926, 0.8268 0.2157 1.2926, 0.8268 0.2134 1.2926, 0.8268 0.1397 0.4961, 0.8268 0.2894 0.4961, 0.8268 0.1544 1.2347, 0.8268 0.2748 1.2347, 0.8268 0.2725 1.2498, 0.8268 0.2665 1.2638, 0.8268 0.2571 1.2757, 0.8268 0.2449 1.2849, 0.8268 0.2308 1.2906, 0.8268 0.1721 1.2757, 0.8268 0.1627 1.2638, 0.8268 0.1842 1.2849, 0.8268 0.1983 1.2906, 0.8268 0.1566 1.2498, 0.748 0.1983 1.2906, 0.748 0.1544 1.2347, 0.748 0.2308 1.2906, 0.748 0.2449 1.2849, 0.748 0.2571 1.2757, 0.748 0.2665 1.2638, 0.748 0.1566 1.2498, 0.748 0.1627 1.2638, 0.748 0.1842 1.2849, 0.748 0.1721 1.2757, 0.748 0.2894 0.4961, 0.748 0.1397 0.4961, 0.748 0.2748 1.2347, 0.748 0.2725 1.2498, 0.8268 0.2933 0.0, 0.748 0.2933 0.0, 0.8268 0.2933 0.0039, 0.748 0.2933 0.0039, 0.748 -0.5335 0.1378, 0.8268 -0.5335 0.1378, 0.748 -0.4941 0.1378, 0.8268 -0.4941 0.1378, 0.748 -0.4941 0.0039, 0.748 -0.7697 0.0, 0.748 -0.5841 0.0524, 0.748 -0.7697 0.0197, 0.8268 -0.7697 0.0, 0.8268 -0.4941 0.0039, 0.8268 -0.7697 0.0197, 0.8268 -0.5841 0.0524
            ]
        }
        coordIndex [
            0,1,2,-1,2,1,3,-1,0,2,4,-1,4,2,5,-1,6,7,8,-1,8,7,9,-1,9,10,8,-1,8,10,11,-1,8,11,12,-1,2,13,5,-1,5,13,8,-1,5,8,14,-1,14,8,12,-1,15,16,6,-1,6,16,7,-1,17,18,19,-1,16,15,20,-1,20,15,17,-1,20,17,21,-1,21,17,19,-1,17,22,3,-1,1,23,3,-1,3,23,24,-1,3,24,17,-1,17,24,25,-1,17,25,18,-1,23,1,4,-1,4,1,0,-1,9,7,20,-1,20,7,16,-1,26,27,28,-1,28,27,29,-1,30,31,32,-1,32,31,33,-1,33,34,32,-1,32,34,35,-1,32,35,36,-1,36,37,32,-1,32,37,38,-1,32,38,28,-1,39,40,41,-1,41,40,42,-1,28,29,32,-1,32,29,42,-1,32,42,43,-1,43,42,40,-1,44,27,45,-1,45,27,26,-1,45,26,46,-1,46,47,45,-1,45,47,48,-1,45,48,49,-1,45,50,44,-1,44,50,51,-1,44,51,52,-1,52,51,53,-1,54,55,56,-1,56,55,45,-1,56,45,57,-1,57,45,49,-1,33,31,56,-1,56,31,54,-1,45,55,32,-1,32,55,30,-1,58,59,60,-1,60,59,61,-1,62,63,64,-1,64,63,65,-1,61,59,66,-1,66,59,67,-1,62,64,68,-1,68,64,66,-1,68,66,69,-1,69,66,67,-1,70,58,71,-1,71,58,60,-1,72,70,73,-1,73,70,71,-1,73,71,63,-1,63,71,65,-1,72,69,70,-1,70,69,67,-1,73,68,72,-1,72,68,69,-1,63,62,73,-1,73,62,68,-1,70,67,58,-1,58,67,59,-1,26,28,38,-1,26,38,46,-1,46,38,37,-1,46,37,47,-1,47,37,36,-1,47,36,48,-1,48,36,35,-1,48,35,49,-1,49,35,34,-1,49,34,57,-1,57,34,33,-1,57,33,56,-1,45,32,43,-1,45,43,50,-1,50,43,40,-1,50,40,51,-1,51,40,39,-1,51,39,53,-1,53,39,41,-1,53,41,52,-1,52,41,42,-1,52,42,44,-1,44,42,29,-1,44,29,27,-1,74,75,76,-1,76,75,77,-1,78,79,80,-1,80,79,81,-1,81,82,80,-1,80,82,83,-1,80,83,84,-1,84,85,80,-1,80,85,86,-1,80,86,76,-1,87,88,89,-1,89,88,90,-1,76,77,80,-1,80,77,90,-1,80,90,91,-1,91,90,88,-1,92,75,93,-1,93,75,74,-1,93,74,94,-1,94,95,93,-1,93,95,96,-1,93,96,97,-1,93,98,92,-1,92,98,99,-1,92,99,100,-1,100,99,101,-1,102,103,104,-1,104,103,93,-1,104,93,105,-1,105,93,97,-1,81,79,104,-1,104,79,102,-1,93,103,80,-1,80,103,78,-1,106,107,108,-1,108,107,109,-1,110,111,112,-1,112,111,113,-1,109,107,114,-1,114,107,115,-1,110,112,116,-1,116,112,114,-1,116,114,117,-1,117,114,115,-1,118,106,119,-1,119,106,108,-1,120,118,121,-1,121,118,119,-1,121,119,111,-1,111,119,113,-1,120,117,118,-1,118,117,115,-1,121,116,120,-1,120,116,117,-1,111,110,121,-1,121,110,116,-1,118,115,106,-1,106,115,107,-1,122,123,124,-1,124,123,125,-1,126,127,128,-1,128,127,129,-1,129,130,128,-1,128,130,131,-1,128,131,132,-1,132,133,128,-1,128,133,134,-1,128,134,124,-1,135,136,137,-1,137,136,138,-1,124,125,128,-1,128,125,138,-1,128,138,139,-1,139,138,136,-1,140,123,141,-1,141,123,122,-1,141,122,142,-1,142,143,141,-1,141,143,144,-1,141,144,145,-1,141,146,140,-1,140,146,147,-1,140,147,148,-1,148,147,149,-1,150,151,152,-1,152,151,141,-1,152,141,153,-1,153,141,145,-1,129,127,152,-1,152,127,150,-1,141,151,128,-1,128,151,126,-1,154,155,156,-1,156,155,157,-1,156,157,158,-1,159,160,161,-1,161,160,162,-1,158,157,163,-1,163,157,164,-1,159,161,165,-1,165,161,163,-1,165,163,166,-1,166,163,164,-1,167,155,168,-1,168,155,154,-1,169,167,170,-1,170,167,168,-1,170,168,160,-1,160,168,162,-1,169,166,167,-1,167,166,164,-1,170,165,169,-1,169,165,166,-1,160,159,170,-1,170,159,165,-1,167,164,155,-1,155,164,157,-1,171,172,173,-1,173,172,174,-1,175,176,177,-1,177,176,178,-1,178,179,177,-1,177,179,180,-1,177,180,181,-1,181,182,177,-1,177,182,183,-1,177,183,173,-1,184,185,186,-1,186,185,187,-1,173,174,177,-1,177,174,187,-1,177,187,188,-1,188,187,185,-1,189,172,190,-1,190,172,171,-1,190,171,191,-1,191,192,190,-1,190,192,193,-1,190,193,194,-1,190,195,189,-1,189,195,196,-1,189,196,197,-1,197,196,198,-1,199,200,201,-1,201,200,190,-1,201,190,202,-1,202,190,194,-1,178,176,201,-1,201,176,199,-1,190,200,177,-1,177,200,175,-1,203,204,205,-1,205,204,206,-1,207,208,209,-1,209,208,210,-1,206,204,211,-1,211,204,212,-1,207,209,213,-1,213,209,211,-1,213,211,214,-1,214,211,212,-1,215,203,216,-1,216,203,205,-1,217,215,218,-1,218,215,216,-1,218,216,208,-1,208,216,210,-1,217,214,215,-1,215,214,212,-1,218,213,217,-1,217,213,214,-1,208,207,218,-1,218,207,213,-1,215,212,203,-1,203,212,204,-1,219,220,221,-1,221,220,222,-1,223,224,225,-1,225,224,226,-1,226,227,225,-1,225,227,228,-1,225,228,229,-1,229,230,225,-1,225,230,231,-1,225,231,221,-1,232,233,234,-1,234,233,235,-1,221,222,225,-1,225,222,235,-1,225,235,236,-1,236,235,233,-1,237,220,238,-1,238,220,219,-1,238,219,239,-1,239,240,238,-1,238,240,241,-1,238,241,242,-1,238,243,237,-1,237,243,244,-1,237,244,245,-1,245,244,246,-1,247,248,249,-1,249,248,238,-1,249,238,250,-1,250,238,242,-1,226,224,249,-1,249,224,247,-1,238,248,225,-1,225,248,223,-1,251,252,253,-1,253,252,254,-1,255,256,257,-1,257,256,258,-1,254,252,259,-1,259,252,260,-1,255,257,261,-1,261,257,259,-1,261,259,262,-1,262,259,260,-1,263,251,264,-1,264,251,253,-1,265,263,266,-1,266,263,264,-1,266,264,256,-1,256,264,258,-1,265,262,263,-1,263,262,260,-1,266,261,265,-1,265,261,262,-1,256,255,266,-1,266,255,261,-1,263,260,251,-1,251,260,252,-1,74,76,86,-1,74,86,94,-1,94,86,85,-1,94,85,95,-1,95,85,84,-1,95,84,96,-1,96,84,83,-1,96,83,97,-1,97,83,82,-1,97,82,105,-1,105,82,81,-1,105,81,104,-1,93,80,91,-1,93,91,98,-1,98,91,88,-1,98,88,99,-1,99,88,87,-1,99,87,101,-1,101,87,89,-1,101,89,100,-1,100,89,90,-1,100,90,92,-1,92,90,77,-1,92,77,75,-1,122,124,134,-1,122,134,142,-1,142,134,133,-1,142,133,143,-1,143,133,132,-1,143,132,144,-1,144,132,131,-1,144,131,145,-1,145,131,130,-1,145,130,153,-1,153,130,129,-1,153,129,152,-1,141,128,139,-1,141,139,146,-1,146,139,136,-1,146,136,147,-1,147,136,135,-1,147,135,149,-1,149,135,137,-1,149,137,148,-1,148,137,138,-1,148,138,140,-1,140,138,125,-1,140,125,123,-1,171,173,183,-1,171,183,191,-1,191,183,182,-1,191,182,192,-1,192,182,181,-1,192,181,193,-1,193,181,180,-1,193,180,194,-1,194,180,179,-1,194,179,202,-1,202,179,178,-1,202,178,201,-1,190,177,188,-1,190,188,195,-1,195,188,185,-1,195,185,196,-1,196,185,184,-1,196,184,198,-1,198,184,186,-1,198,186,197,-1,197,186,187,-1,197,187,189,-1,189,187,174,-1,189,174,172,-1,219,221,231,-1,219,231,239,-1,239,231,230,-1,239,230,240,-1,240,230,229,-1,240,229,241,-1,241,229,228,-1,241,228,242,-1,242,228,227,-1,242,227,250,-1,250,227,226,-1,250,226,249,-1,238,225,236,-1,238,236,243,-1,243,236,233,-1,243,233,244,-1,244,233,232,-1,244,232,246,-1,246,232,234,-1,246,234,245,-1,245,234,235,-1,245,235,237,-1,237,235,222,-1,237,222,220,-1,
        ]
    }
}
Shape{
    appearance Appearance {
        material  Material 	{
            diffuseColor 0.2235294117647059 0.2235294117647059 0.2235294117647059
            specularColor 0.11372549019607843 0.11372549019607843 0.11372549019607843
            ambientIntensity 0.2235
            transparency 0.0
            shininess 0.5
        }
    }
    geometry IndexedFaceSet {
        ccw TRUE
        solid FALSE
        coord DEF co Coordinate {
            point [
                -0.2002 0.5129 0.0079, -0.2463 0.3948 0.0079, -0.2002 0.5129 0.0039, -0.2463 0.3948 0.0039, -0.229 0.3948 0.0079, -0.229 0.3948 0.0039, -0.2171 0.4279 0.0079, -0.2171 0.4279 0.0039, -0.1683 0.4279 0.0079, -0.1683 0.4279 0.0039, -0.157 0.3948 0.0079, -0.157 0.3948 0.0039, -0.1397 0.3948 0.0079, -0.1397 0.3948 0.0039, -0.1844 0.5129 0.0079, -0.1844 0.5129 0.0039, -0.1723 0.4409 0.0079, -0.2118 0.4409 0.0079, -0.1899 0.4902 0.0079, -0.191 0.4943 0.0079, -0.1918 0.4985 0.0079, -0.1922 0.4985 0.0079, -0.1929 0.4943 0.0079, -0.194 0.4902 0.0079, -0.1723 0.4409 0.0039, -0.2118 0.4409 0.0039, -0.1899 0.4902 0.0039, -0.191 0.4943 0.0039, -0.1918 0.4985 0.0039, -0.1922 0.4985 0.0039, -0.1929 0.4943 0.0039, -0.194 0.4902 0.0039, -0.0681 0.3948 0.0079, -0.036 0.3948 0.0079, -0.0681 0.3948 0.0039, -0.036 0.3948 0.0039, -0.036 0.5129 0.0079, -0.036 0.5129 0.0039, -0.0693 0.5129 0.0079, -0.0693 0.5129 0.0039, -0.1311 0.4553 0.0079, -0.1311 0.4553 0.0039, -0.1302 0.4664 0.0039, -0.1302 0.4664 0.0079, -0.127 0.4781 0.0039, -0.127 0.4781 0.0079, -0.1216 0.4882 0.0039, -0.1216 0.4882 0.0079, -0.1132 0.4975 0.0039, -0.1132 0.4975 0.0079, -0.1131 0.4976 0.0039, -0.1131 0.4976 0.0079, -0.1002 0.5062 0.0039, -0.1002 0.5062 0.0079, -0.0864 0.5111 0.0039, -0.0864 0.5111 0.0079, -0.0827 0.3961 0.0039, -0.0827 0.3961 0.0079, -0.0963 0.4001 0.0039, -0.0963 0.4001 0.0079, -0.1087 0.4073 0.0039, -0.1087 0.4073 0.0079, -0.1184 0.4166 0.0039, -0.1184 0.4166 0.0079, -0.1252 0.4272 0.0039, -0.1252 0.4272 0.0079, -0.1294 0.4395 0.0039, -0.1294 0.4395 0.0079, -0.1074 0.4834 0.0079, -0.1016 0.4895 0.0079, -0.093 0.495 0.0079, -0.0833 0.4984 0.0079, -0.0693 0.4999 0.0079, -0.0519 0.4999 0.0079, -0.0519 0.4077 0.0079, -0.0686 0.4077 0.0079, -0.0811 0.4089 0.0079, -0.091 0.412 0.0079, -0.0991 0.4168 0.0079, -0.1057 0.4233 0.0079, -0.1107 0.4315 0.0079, -0.1141 0.4426 0.0079, -0.1152 0.455 0.0079, -0.1142 0.4667 0.0079, -0.1115 0.4761 0.0079, -0.0693 0.4999 0.0039, -0.0519 0.4999 0.0039, -0.0833 0.4984 0.0039, -0.093 0.495 0.0039, -0.1016 0.4895 0.0039, -0.1074 0.4834 0.0039, -0.1115 0.4761 0.0039, -0.1142 0.4667 0.0039, -0.1152 0.455 0.0039, -0.1141 0.4426 0.0039, -0.1107 0.4315 0.0039, -0.1057 0.4233 0.0039, -0.0991 0.4168 0.0039, -0.091 0.412 0.0039, -0.0811 0.4089 0.0039, -0.0686 0.4077 0.0039, -0.0519 0.4077 0.0039, -0.013 0.4077 0.0079, -0.013 0.3948 0.0079, -0.013 0.4077 0.0039, -0.013 0.3948 0.0039, 0.0504 0.3948 0.0079, 0.0504 0.3948 0.0039, 0.0504 0.5129 0.0079, 0.0504 0.5129 0.0039, -0.0101 0.5129 0.0079, -0.0101 0.5129 0.0039, -0.0101 0.4999 0.0079, -0.0101 0.4999 0.0039, 0.0346 0.4999 0.0079, 0.0346 0.4999 0.0039, 0.0346 0.461 0.0079, 0.0346 0.461 0.0039, -0.0072 0.461 0.0079, -0.0072 0.461 0.0039, -0.0072 0.4481 0.0079, -0.0072 0.4481 0.0039, 0.0346 0.4481 0.0079, 0.0346 0.4481 0.0039, 0.0346 0.4077 0.0079, 0.0346 0.4077 0.0039, 0.0735 0.4139 0.0079, 0.0735 0.4009 0.0079, 0.0735 0.4139 0.0039, 0.0735 0.4009 0.0039, 0.086 0.3957 0.0079, 0.106 0.3933 0.0079, 0.106 0.3933 0.0039, 0.1027 0.3934 0.0039, 0.1027 0.3934 0.0079, 0.098 0.3941 0.0039, 0.086 0.3957 0.0039, 0.1613 0.4516 0.0079, 0.1613 0.4516 0.0039, 0.1602 0.4379 0.0039, 0.1602 0.4379 0.0079, 0.1566 0.4254 0.0039, 0.1566 0.4254 0.0079, 0.1503 0.4142 0.0039, 0.1503 0.4142 0.0079, 0.1415 0.4049 0.0039, 0.1415 0.4049 0.0079, 0.132 0.3988 0.0039, 0.132 0.3988 0.0079, 0.1205 0.3949 0.0039, 0.1205 0.3949 0.0079, 0.1129 0.3941 0.0039, 0.1013 0.5143 0.0079, 0.1013 0.5143 0.0039, 0.1131 0.5134 0.0039, 0.1131 0.5134 0.0079, 0.1263 0.5095 0.0039, 0.1263 0.5095 0.0079, 0.1375 0.5031 0.0039, 0.1375 0.5031 0.0079, 0.1482 0.4928 0.0039, 0.1482 0.4928 0.0079, 0.1551 0.4818 0.0039, 0.1551 0.4818 0.0079, 0.1596 0.4684 0.0039, 0.1596 0.4684 0.0079, 0.0735 0.5097 0.0079, 0.0735 0.5097 0.0039, 0.0871 0.5134 0.0039, 0.0871 0.5134 0.0079, 0.0735 0.4938 0.0079, 0.0735 0.4938 0.0039, 0.1011 0.5014 0.0079, 0.1011 0.5014 0.0039, 0.0868 0.4995 0.0039, 0.0868 0.4995 0.0079, 0.1455 0.4526 0.0079, 0.1455 0.4526 0.0039, 0.1449 0.4618 0.0039, 0.1449 0.4618 0.0079, 0.1418 0.4744 0.0039, 0.1418 0.4744 0.0079, 0.1369 0.4835 0.0039, 0.1369 0.4835 0.0079, 0.1298 0.4914 0.0039, 0.1298 0.4914 0.0079, 0.1216 0.4969 0.0039, 0.1216 0.4969 0.0079, 0.1127 0.5001 0.0039, 0.1127 0.5001 0.0079, 0.1038 0.4063 0.0079, 0.1038 0.4063 0.0039, 0.1148 0.4075 0.0039, 0.1148 0.4075 0.0079, 0.1234 0.4107 0.0039, 0.1234 0.4107 0.0079, 0.1306 0.4156 0.0039, 0.1306 0.4156 0.0079, 0.1362 0.4214 0.0039, 0.1362 0.4214 0.0079, 0.1411 0.4296 0.0039, 0.1411 0.4296 0.0079, 0.1443 0.4398 0.0039, 0.1443 0.4398 0.0079, 0.0756 0.4127 0.0039, 0.0756 0.4127 0.0079, 0.0881 0.408 0.0039, 0.0881 0.408 0.0079, 0.1714 0.4077 0.0079, 0.1714 0.3948 0.0079, 0.1714 0.4077 0.0039, 0.1714 0.3948 0.0039, 0.2319 0.3948 0.0079, 0.2319 0.3948 0.0039, 0.2319 0.5129 0.0079, 0.2319 0.5129 0.0039, 0.2161 0.5129 0.0079, 0.2161 0.5129 0.0039, 0.2161 0.4077 0.0079, 0.2161 0.4077 0.0039
            ]
        }
        coordIndex [
            0,1,2,-1,2,1,3,-1,1,4,3,-1,3,4,5,-1,4,6,5,-1,5,6,7,-1,6,8,7,-1,7,8,9,-1,8,10,9,-1,9,10,11,-1,10,12,11,-1,11,12,13,-1,12,14,13,-1,13,14,15,-1,14,0,15,-1,15,0,2,-1,16,8,17,-1,17,8,6,-1,18,14,16,-1,16,14,12,-1,16,12,8,-1,8,12,10,-1,18,19,14,-1,14,19,20,-1,14,20,0,-1,0,20,21,-1,0,21,22,-1,22,23,0,-1,0,23,17,-1,0,17,1,-1,1,17,6,-1,1,6,4,-1,16,17,24,-1,24,17,25,-1,18,16,26,-1,26,16,24,-1,18,26,27,-1,18,27,19,-1,19,27,28,-1,19,28,20,-1,21,20,29,-1,29,20,28,-1,21,29,30,-1,21,30,22,-1,22,30,31,-1,22,31,23,-1,17,23,25,-1,25,23,31,-1,32,33,34,-1,34,33,35,-1,33,36,35,-1,35,36,37,-1,36,38,37,-1,37,38,39,-1,40,41,42,-1,40,42,43,-1,43,42,44,-1,43,44,45,-1,45,44,46,-1,45,46,47,-1,47,46,48,-1,47,48,49,-1,49,48,50,-1,49,50,51,-1,51,50,52,-1,51,52,53,-1,53,52,54,-1,53,54,55,-1,55,54,39,-1,55,39,38,-1,32,34,56,-1,32,56,57,-1,57,56,58,-1,57,58,59,-1,59,58,60,-1,59,60,61,-1,61,60,62,-1,61,62,63,-1,63,62,64,-1,63,64,65,-1,65,64,66,-1,65,66,67,-1,67,66,41,-1,67,41,40,-1,45,47,68,-1,68,47,49,-1,68,49,69,-1,69,49,51,-1,69,51,70,-1,70,51,53,-1,70,53,71,-1,71,53,55,-1,71,55,72,-1,72,55,38,-1,72,38,73,-1,73,38,36,-1,73,36,74,-1,74,36,33,-1,74,33,75,-1,75,33,32,-1,75,32,76,-1,76,32,57,-1,76,57,77,-1,77,57,59,-1,77,59,78,-1,78,59,61,-1,78,61,79,-1,79,61,63,-1,79,63,80,-1,80,63,65,-1,80,65,81,-1,81,65,67,-1,81,67,82,-1,82,67,40,-1,82,40,83,-1,83,40,43,-1,83,43,84,-1,84,43,45,-1,84,45,68,-1,72,73,85,-1,85,73,86,-1,72,85,87,-1,72,87,71,-1,71,87,88,-1,71,88,70,-1,70,88,89,-1,70,89,69,-1,69,89,90,-1,69,90,68,-1,68,90,91,-1,68,91,84,-1,84,91,92,-1,84,92,83,-1,83,92,93,-1,83,93,82,-1,82,93,94,-1,82,94,81,-1,81,94,95,-1,81,95,80,-1,80,95,96,-1,80,96,79,-1,79,96,97,-1,79,97,78,-1,78,97,98,-1,78,98,77,-1,77,98,99,-1,77,99,76,-1,76,99,100,-1,76,100,75,-1,74,75,101,-1,101,75,100,-1,73,74,86,-1,86,74,101,-1,102,103,104,-1,104,103,105,-1,103,106,105,-1,105,106,107,-1,106,108,107,-1,107,108,109,-1,108,110,109,-1,109,110,111,-1,110,112,111,-1,111,112,113,-1,112,114,113,-1,113,114,115,-1,114,116,115,-1,115,116,117,-1,116,118,117,-1,117,118,119,-1,118,120,119,-1,119,120,121,-1,120,122,121,-1,121,122,123,-1,122,124,123,-1,123,124,125,-1,124,102,125,-1,125,102,104,-1,106,103,102,-1,102,124,106,-1,106,124,122,-1,106,122,108,-1,112,110,114,-1,114,110,108,-1,114,108,116,-1,116,108,122,-1,116,122,118,-1,118,122,120,-1,126,127,128,-1,128,127,129,-1,129,127,130,-1,131,132,133,-1,131,133,134,-1,134,133,135,-1,134,135,130,-1,130,135,136,-1,130,136,129,-1,137,138,139,-1,137,139,140,-1,140,139,141,-1,140,141,142,-1,142,141,143,-1,142,143,144,-1,144,143,145,-1,144,145,146,-1,146,145,147,-1,146,147,148,-1,148,147,149,-1,148,149,150,-1,150,149,131,-1,131,149,151,-1,131,151,132,-1,152,153,154,-1,152,154,155,-1,155,154,156,-1,155,156,157,-1,157,156,158,-1,157,158,159,-1,159,158,160,-1,159,160,161,-1,161,160,162,-1,161,162,163,-1,163,162,164,-1,163,164,165,-1,165,164,138,-1,165,138,137,-1,166,167,168,-1,166,168,169,-1,169,168,153,-1,169,153,152,-1,166,170,167,-1,167,170,171,-1,172,173,174,-1,172,174,175,-1,175,174,171,-1,175,171,170,-1,176,177,178,-1,176,178,179,-1,179,178,180,-1,179,180,181,-1,181,180,182,-1,181,182,183,-1,183,182,184,-1,183,184,185,-1,185,184,186,-1,185,186,187,-1,187,186,188,-1,187,188,189,-1,189,188,173,-1,189,173,172,-1,190,191,192,-1,190,192,193,-1,193,192,194,-1,193,194,195,-1,195,194,196,-1,195,196,197,-1,197,196,198,-1,197,198,199,-1,199,198,200,-1,199,200,201,-1,201,200,202,-1,201,202,203,-1,203,202,177,-1,203,177,176,-1,126,128,204,-1,126,204,205,-1,205,204,206,-1,205,206,207,-1,207,206,191,-1,207,191,190,-1,193,131,190,-1,190,131,134,-1,190,134,207,-1,207,134,130,-1,207,130,205,-1,205,130,127,-1,205,127,126,-1,170,166,175,-1,175,166,169,-1,175,169,172,-1,172,169,152,-1,172,152,189,-1,189,152,155,-1,189,155,187,-1,187,155,157,-1,187,157,185,-1,185,157,159,-1,185,159,183,-1,183,159,161,-1,183,161,181,-1,181,161,163,-1,181,163,179,-1,179,163,165,-1,179,165,176,-1,176,165,137,-1,176,137,203,-1,203,137,140,-1,203,140,201,-1,201,140,142,-1,201,142,199,-1,199,142,144,-1,199,144,197,-1,197,144,146,-1,197,146,195,-1,195,146,148,-1,195,148,193,-1,193,148,150,-1,193,150,131,-1,208,209,210,-1,210,209,211,-1,209,212,211,-1,211,212,213,-1,212,214,213,-1,213,214,215,-1,214,216,215,-1,215,216,217,-1,216,218,217,-1,217,218,219,-1,218,208,219,-1,219,208,210,-1,216,214,218,-1,218,214,212,-1,218,212,208,-1,208,212,209,-1,
        ]
    }
}
Shape{
    appearance Appearance {
        material  Material 	{
            diffuseColor 0.8431372549019608 0.8156862745098039 0.7529411764705882
            specularColor 0.25098039215686274 0.24313725490196078 0.22745098039215686
            ambientIntensity 0.8167
            transparency 0.0
            shininess 0.5
        }
    }
    geometry IndexedFaceSet {
        ccw TRUE
        solid FALSE
        coord DEF co Coordinate {
            point [
                -0.1723 0.4409 0.0039, -0.2118 0.4409 0.0039, -0.1899 0.4902 0.0039, -0.194 0.4902 0.0039, -0.191 0.4943 0.0039, -0.1929 0.4943 0.0039, -0.1918 0.4985 0.0039, -0.1922 0.4985 0.0039, -0.0519 0.4999 0.0039, -0.0519 0.4077 0.0039, -0.0693 0.4999 0.0039, -0.0686 0.4077 0.0039, -0.0811 0.4089 0.0039, -0.1152 0.455 0.0039, -0.1142 0.4667 0.0039, -0.1115 0.4761 0.0039, -0.0833 0.4984 0.0039, -0.091 0.412 0.0039, -0.0991 0.4168 0.0039, -0.1057 0.4233 0.0039, -0.1107 0.4315 0.0039, -0.1141 0.4426 0.0039, -0.1074 0.4834 0.0039, -0.1016 0.4895 0.0039, -0.093 0.495 0.0039
            ]
        }
        coordIndex [
            0,1,2,-1,2,1,3,-1,2,3,4,-1,4,3,5,-1,4,5,6,-1,6,5,7,-1,8,9,10,-1,10,9,11,-1,10,11,12,-1,13,14,10,-1,10,14,15,-1,10,15,16,-1,12,17,10,-1,10,17,18,-1,10,18,19,-1,19,20,10,-1,10,20,21,-1,10,21,13,-1,22,23,15,-1,15,23,24,-1,15,24,16,-1,
        ]
    }
}
Shape{
    appearance Appearance {
        material  Material 	{
            diffuseColor 0.8509803921568627 0.8509803921568627 0.8509803921568627
            specularColor 0.4235294117647059 0.4235294117647059 0.4235294117647059
            ambientIntensity 0.851
            transparency 0.0
            shininess 0.5
        }
    }
    geometry IndexedFaceSet {
        ccw TRUE
        solid FALSE
        coord DEF co Coordinate {
            point [
                -1.1811 0.5925 0.0, -1.2598 0.5925 0.0, -1.2598 0.6078 0.002, -1.1811 0.6078 0.002, -1.2598 0.622 0.0079, -1.1811 0.622 0.0079, -1.2598 0.6343 0.0173, -1.1811 0.6343 0.0173, -1.2598 0.6437 0.0295, -1.1811 0.6437 0.0295, -1.2598 0.6496 0.0438, -1.1811 0.6496 0.0438, -1.2598 0.6516 0.0591, -1.1811 0.6516 0.0591, 1.2598 0.5925 0.0, 1.1811 0.5925 0.0, 1.1811 0.6078 0.002, 1.2598 0.6078 0.002, 1.1811 0.622 0.0079, 1.2598 0.622 0.0079, 1.1811 0.6343 0.0173, 1.2598 0.6343 0.0173, 1.1811 0.6437 0.0295, 1.2598 0.6437 0.0295, 1.1811 0.6496 0.0438, 1.2598 0.6496 0.0438, 1.1811 0.6516 0.0591, 1.2598 0.6516 0.0591
            ]
        }
        coordIndex [
            0,1,2,-1,0,2,3,-1,3,2,4,-1,3,4,5,-1,5,4,6,-1,5,6,7,-1,7,6,8,-1,7,8,9,-1,9,8,10,-1,9,10,11,-1,11,10,12,-1,11,12,13,-1,14,15,16,-1,14,16,17,-1,17,16,18,-1,17,18,19,-1,19,18,20,-1,19,20,21,-1,21,20,22,-1,21,22,23,-1,23,22,24,-1,23,24,25,-1,25,24,26,-1,25,26,27,-1,
        ]
    }
}