#VRML V2.0 utf8
# 3D model generated by easyeda2kicad.py (https://github.com/uPesy/easyeda2kicad.py)

Shape{
    appearance Appearance {
        material  Material 	{
            diffuseColor 0.996078431372549 0.8705882352941177 0.7607843137254902
            specularColor 0.4980392156862745 0.43529411764705883 0.3803921568627451
            ambientIntensity 0.8956
            transparency 0.0
            shininess 0.5
        }
    }
    geometry IndexedFaceSet {
        ccw TRUE
        solid FALSE
        coord DEF co Coordinate {
            point [
                -1.9685 -0.4602 0.0079, -2.1654 -0.4602 0.0079, -2.1654 -0.3338 0.0079, 1.624 0.5043 0.0079, 1.624 0.5831 0.0079, 1.6634 0.6224 0.0079, 0.0076 -0.333 0.0079, 0.0076 -0.2149 0.0079, 0.0307 -0.314 0.0079, 0.0307 -0.3269 0.0079, 0.0432 -0.3321 0.0079, 0.0552 -0.3338 0.0079, 0.0307 -0.234 0.0079, 0.044 -0.2283 0.0079, 0.0328 -0.3151 0.0079, 0.0583 -0.2265 0.0079, 0.0699 -0.2278 0.0079, -0.0558 -0.3201 0.0079, -0.0558 -0.333 0.0079, -0.0673 -0.3338 0.0079, 0.7382 0.5831 0.0079, 0.7382 0.5043 0.0079, 0.6988 0.6224 0.0079, 0.4429 0.5831 0.0079, 0.4823 0.6224 0.0079, 1.1319 0.5043 0.0079, 1.2303 0.5043 0.0079, 2.1654 -0.3338 0.0079, 0.1733 -0.2149 0.0079, -0.0492 0.5043 0.0079, 0.1891 -0.2149 0.0079, 0.0492 0.5043 0.0079, 0.8366 0.5831 0.0079, 0.876 0.6224 0.0079, 1.0925 0.6224 0.0079, 1.4862 0.6224 0.0079, 1.5256 0.5831 0.0079, 1.5256 0.5043 0.0079, -0.0529 -0.2149 0.0079, -0.0529 -0.2279 0.0079, 1.1319 0.5831 0.0079, 0.8366 0.5043 0.0079, 0.4429 0.5043 0.0079, 1.2303 0.5831 0.0079, 1.2697 0.6224 0.0079, 0.0788 -0.2309 0.0079, 0.087 -0.2364 0.0079, 0.0941 -0.2443 0.0079, 0.1027 -0.2752 0.0079, 0.1015 -0.288 0.0079, 0.0983 -0.2982 0.0079, 0.072 -0.3203 0.0079, 0.061 -0.3215 0.0079, 0.0806 -0.3171 0.0079, 0.0878 -0.3122 0.0079, 0.0934 -0.3064 0.0079, 0.0453 -0.3198 0.0079, 0.099 -0.2534 0.0079, 0.1021 -0.2661 0.0079, -0.0673 0.6011 0.0079, -0.0492 0.5831 0.0079, 0.1891 -0.333 0.0079, 0.0701 -0.3338 0.0079, 0.1286 -0.333 0.0079, 0.0777 -0.333 0.0079, 0.0892 -0.329 0.0079, 2.1654 0.6224 0.0079, -0.05 -0.2797 0.0079, -0.0082 -0.2797 0.0079, -0.0082 -0.3201 0.0079, -0.05 -0.2668 0.0079, -0.0082 -0.2668 0.0079, -0.0082 -0.2279 0.0079, 0.0987 -0.323 0.0079, 0.1075 -0.3136 0.0079, 0.1286 -0.3201 0.0079, 0.1138 -0.3024 0.0079, 0.1733 -0.3201 0.0079, 0.1123 -0.246 0.0079, 0.1054 -0.235 0.0079, 0.0947 -0.2247 0.0079, 0.0835 -0.2183 0.0079, 0.0703 -0.2145 0.0079, 0.1174 -0.2899 0.0079, 0.1185 -0.2762 0.0079, 0.1168 -0.2594 0.0079, 0.0585 -0.2135 0.0079, 0.0443 -0.2145 0.0079, 0.0307 -0.2182 0.0079, -0.8366 0.5043 0.0079, -0.7382 0.5043 0.0079, -0.0788 -0.2149 0.0079, -0.2272 -0.2149 0.0079, -0.143 -0.2216 0.0079, -0.1559 -0.2302 0.0079, -1.5256 0.5043 0.0079, -1.624 0.5043 0.0079, -0.1121 -0.2149 0.0079, -0.1292 -0.2168 0.0079, -0.1109 -0.333 0.0079, -0.0788 -0.333 0.0079, -0.156 -0.2303 0.0079, -0.1644 -0.2396 0.0079, -0.1698 -0.2497 0.0079, -1.6634 0.6224 0.0079, -1.624 0.5831 0.0079, -2.1654 0.6224 0.0079, -0.173 -0.2614 0.0079, -0.1739 -0.2725 0.0079, -0.1825 -0.333 0.0079, -1.2697 0.6224 0.0079, -1.2303 0.5831 0.0079, -1.4862 0.6224 0.0079, -1.2303 0.5043 0.0079, -1.5256 0.5831 0.0079, -1.1319 0.5043 0.0079, -0.876 0.6224 0.0079, -0.8366 0.5831 0.0079, -1.0925 0.6224 0.0079, -1.1319 0.5831 0.0079, -0.2891 -0.333 0.0079, -0.2718 -0.333 0.0079, -0.1722 -0.2883 0.0079, -0.168 -0.3007 0.0079, -0.1612 -0.3112 0.0079, -0.3051 0.6224 0.0079, -0.0886 0.6224 0.0079, -0.3445 0.5831 0.0079, -0.3445 0.5043 0.0079, -0.4429 0.5043 0.0079, -0.4429 0.5831 0.0079, -0.7382 0.5831 0.0079, -0.4823 0.6224 0.0079, -0.6988 0.6224 0.0079, -0.1515 -0.3205 0.0079, -0.1391 -0.3277 0.0079, -0.1255 -0.3318 0.0079, -0.1998 -0.333 0.0079, -0.2111 -0.2999 0.0079, -0.2599 -0.2999 0.0079, -0.0673 -1.0508 0.0079, -1.9685 -1.0508 0.0079, -0.243 -0.2149 0.0079, 2.1654 -0.4602 0.0079, 1.9685 -0.4602 0.0079, 0.0599 -0.3344 0.0079, 0.0632 -0.3345 0.0079, 0.0886 0.6224 0.0079, 0.3051 0.6224 0.0079, 0.0492 0.5831 0.0079, 0.3445 0.5831 0.0079, 0.3445 0.5043 0.0079, 1.9685 -1.0508 0.0079, 1.7717 -0.9917 0.5591, 1.7717 0.1303 0.5591, 1.7717 -0.9917 0.1654, 1.7717 0.1303 0.1654, -1.7717 -0.9917 0.1654, -1.7717 0.1303 0.1654, -1.7717 -0.9917 0.5591, -1.7717 0.1303 0.5591, 2.1654 0.6224 0.6772, 2.1654 0.465 0.6772, 2.1654 -0.4602 0.2047, 2.1654 -0.7752 0.4016, 2.1654 -0.7752 0.2047, 2.1654 -1.0508 1.1496, 2.1654 -1.0508 0.4016, 2.1654 0.2287 1.1496, 2.1654 0.2287 0.9921, 2.1654 0.465 0.9528, 2.1654 0.4256 0.9921, 2.1654 0.4636 0.9629, 2.1654 0.4597 0.9724, 2.1654 0.4534 0.9806, 2.1654 0.4453 0.9869, 2.1654 0.4358 0.9908, 1.9685 0.6224 0.6772, 1.9685 0.6224 0.9921, 1.6634 0.6224 0.9921, -1.9685 0.2287 1.1496, -2.1654 0.2287 1.1496, -2.1654 -1.0508 1.1496, 1.9685 0.2287 1.1496, 1.9685 0.465 1.1496, -1.9685 0.465 1.1496, 1.8504 -1.0508 0.5591, 1.8307 -1.0508 0.5591, 1.8307 -1.0508 0.1063, 2.0669 -1.0508 0.4016, 2.0669 -1.0508 0.4803, 1.9685 -1.0508 0.4803, -1.9685 -1.0508 0.4803, -2.0669 -1.0508 0.4803, -2.1654 -1.0508 0.4016, -2.0669 -1.0508 0.4016, -1.8307 -1.0508 0.1063, -1.8307 -1.0508 0.5591, -1.8504 -1.0508 0.5591, -1.8504 -1.0508 0.8346, -1.8307 -1.0508 0.8346, -1.8307 -1.0508 1.0512, 1.8307 -1.0508 1.0512, 1.8307 -1.0508 0.8346, 1.8504 -1.0508 0.8346, 2.0669 -0.7752 0.4016, 2.0669 -0.7752 0.2047, 2.0669 -0.4602 0.2047, 1.0925 0.6224 0.9921, 0.876 0.6224 0.9921, 1.4862 0.6224 0.9921, 1.2697 0.6224 0.9921, 0.6988 0.6224 0.9921, 0.4823 0.6224 0.9921, -1.2697 0.6224 0.9921, -1.4862 0.6224 0.9921, -0.876 0.6224 0.9921, -1.0925 0.6224 0.9921, -0.4823 0.6224 0.9921, -0.6988 0.6224 0.9921, -0.0886 0.6224 0.9921, -0.3051 0.6224 0.9921, 0.3051 0.6224 0.9921, 0.0886 0.6224 0.9921, -1.9685 0.6224 0.9921, -1.6634 0.6224 0.9921, -1.9685 0.6224 0.6772, -2.1654 0.6224 0.6772, -2.1654 0.465 0.6772, -2.1654 -0.7752 0.4016, -2.1654 -0.4602 0.2047, -2.1654 -0.7752 0.2047, -2.1654 0.2287 0.9921, -2.1654 0.465 0.9528, -2.1654 0.4256 0.9921, -2.1654 0.4453 0.9869, -2.1654 0.4534 0.9806, -2.1654 0.4597 0.9724, -2.1654 0.4358 0.9908, -2.1654 0.4636 0.9629, 1.7717 0.1303 0.8346, 1.7717 -0.9917 0.8346, 1.7717 0.1303 0.9134, 1.7717 -0.9917 0.9921, 1.7717 0.1303 0.9921, 1.378 0.1303 0.1654, 0.9843 0.1303 0.1654, 0.5906 0.1303 0.1654, 0.1969 0.1303 0.1654, -0.1969 0.1303 0.1654, -0.5906 0.1303 0.1654, -0.9843 0.1303 0.1654, -1.378 0.1303 0.1654, -1.7323 0.1303 0.1654, -1.7717 0.1303 0.9921, -1.7717 -0.9917 0.9921, -1.7717 0.1303 0.9134, -1.7717 -0.9917 0.8346, -1.7717 0.1303 0.8346, -1.7323 0.1303 0.9921, -1.378 0.1303 0.9921, -0.9843 0.1303 0.9921, -0.5906 0.1303 0.9921, -0.1969 0.1303 0.9921, 0.1969 0.1303 0.9921, 0.5906 0.1303 0.9921, 0.9843 0.1303 0.9921, 1.378 0.1303 0.9921, -1.7323 0.1303 0.9134, -1.8504 0.1303 0.5591, -1.8504 0.1303 0.8346, 1.6142 0.1303 0.8346, 1.6142 0.1303 0.2559, 1.5354 0.1303 0.2559, 1.378 0.1303 0.9134, 1.5354 0.1303 0.8346, 1.8504 0.1303 0.8346, 1.8504 0.1303 0.5591, 1.1417 0.1303 0.8346, 0.9843 0.1303 0.9134, 1.1417 0.1303 0.2559, 1.2205 0.1303 0.2559, 1.2205 0.1303 0.8346, 0.748 0.1303 0.8346, 0.5906 0.1303 0.9134, 0.748 0.1303 0.2559, 0.8268 0.1303 0.2559, 0.8268 0.1303 0.8346, 0.3543 0.1303 0.8346, 0.1969 0.1303 0.9134, 0.3543 0.1303 0.2559, 0.4331 0.1303 0.2559, 0.4331 0.1303 0.8346, -0.0394 0.1303 0.8346, -0.1969 0.1303 0.9134, -0.0394 0.1303 0.2559, 0.0394 0.1303 0.2559, 0.0394 0.1303 0.8346, -0.4331 0.1303 0.8346, -0.5906 0.1303 0.9134, -0.4331 0.1303 0.2559, -0.3543 0.1303 0.2559, -0.3543 0.1303 0.8346, -0.8268 0.1303 0.8346, -0.9843 0.1303 0.9134, -0.8268 0.1303 0.2559, -0.748 0.1303 0.2559, -0.748 0.1303 0.8346, -1.2205 0.1303 0.8346, -1.378 0.1303 0.9134, -1.2205 0.1303 0.2559, -1.1417 0.1303 0.2559, -1.1417 0.1303 0.8346, -1.6142 0.1303 0.8346, -1.6142 0.1303 0.2559, -1.5354 0.1303 0.2559, -1.5354 0.1303 0.8346, 0.0492 0.5831 0.9921, 0.0492 0.5043 0.9921, -0.0492 0.5043 0.9921, -0.0492 0.5831 0.9921, 0.0394 0.5043 0.1181, 0.0394 0.5043 0.8346, -0.0394 0.5043 0.1181, -0.0394 0.5043 0.8346, 0.4429 0.5831 0.9921, 0.4429 0.5043 0.9921, 0.3445 0.5043 0.9921, 0.3445 0.5831 0.9921, 0.4331 0.5043 0.1181, 0.4331 0.5043 0.8346, 0.3543 0.5043 0.1181, 0.3543 0.5043 0.8346, -0.3445 0.5831 0.9921, -0.3445 0.5043 0.9921, -0.4429 0.5043 0.9921, -0.4429 0.5831 0.9921, -0.3543 0.5043 0.1181, -0.3543 0.5043 0.8346, -0.4331 0.5043 0.1181, -0.4331 0.5043 0.8346, 1.624 0.5831 0.9921, 1.624 0.5043 0.9921, 1.5256 0.5043 0.9921, 1.5256 0.5831 0.9921, 1.6142 0.5043 0.1181, 1.6142 0.5043 0.8346, 1.5354 0.5043 0.1181, 1.5354 0.5043 0.8346, 1.2303 0.5831 0.9921, 1.2303 0.5043 0.9921, 1.1319 0.5043 0.9921, 1.1319 0.5831 0.9921, 1.2205 0.5043 0.1181, 1.2205 0.5043 0.8346, 1.1417 0.5043 0.1181, 1.1417 0.5043 0.8346, 0.8366 0.5831 0.9921, 0.8366 0.5043 0.9921, 0.7382 0.5043 0.9921, 0.7382 0.5831 0.9921, 0.8268 0.5043 0.1181, 0.8268 0.5043 0.8346, 0.748 0.5043 0.1181, 0.748 0.5043 0.8346, -0.7382 0.5831 0.9921, -0.7382 0.5043 0.9921, -0.8366 0.5043 0.9921, -0.8366 0.5831 0.9921, -0.748 0.5043 0.1181, -0.748 0.5043 0.8346, -0.8268 0.5043 0.1181, -0.8268 0.5043 0.8346, -1.1319 0.5831 0.9921, -1.1319 0.5043 0.9921, -1.2303 0.5043 0.9921, -1.2303 0.5831 0.9921, -1.1417 0.5043 0.1181, -1.1417 0.5043 0.8346, -1.2205 0.5043 0.1181, -1.2205 0.5043 0.8346, -1.5256 0.5831 0.9921, -1.5256 0.5043 0.9921, -1.624 0.5043 0.9921, -1.624 0.5831 0.9921, -1.5354 0.5043 0.1181, -1.5354 0.5043 0.8346, -1.6142 0.5043 0.1181, -1.6142 0.5043 0.8346
            ]
        }
        coordIndex [
            0,1,2,-1,3,4,5,-1,6,7,8,-1,8,9,6,-1,6,9,10,-1,6,10,11,-1,7,12,8,-1,8,12,13,-1,8,13,14,-1,14,13,15,-1,14,15,16,-1,17,18,19,-1,20,21,22,-1,22,21,23,-1,22,23,24,-1,25,26,27,-1,28,29,30,-1,30,29,31,-1,32,33,34,-1,35,36,37,-1,38,39,19,-1,34,40,32,-1,32,40,25,-1,32,25,41,-1,41,25,27,-1,41,27,21,-1,21,27,42,-1,21,42,23,-1,26,43,44,-1,16,45,14,-1,14,45,46,-1,14,46,47,-1,48,49,14,-1,14,49,50,-1,51,52,53,-1,53,52,54,-1,50,55,14,-1,14,55,54,-1,14,54,56,-1,56,54,52,-1,47,57,14,-1,14,57,58,-1,14,58,48,-1,59,60,29,-1,61,62,63,-1,63,62,64,-1,63,64,65,-1,44,35,26,-1,26,35,37,-1,26,37,27,-1,27,37,3,-1,27,3,66,-1,66,3,5,-1,67,68,69,-1,69,17,67,-1,67,17,19,-1,67,19,70,-1,70,19,39,-1,70,39,71,-1,71,39,72,-1,65,73,63,-1,63,73,74,-1,63,74,75,-1,75,74,76,-1,75,76,77,-1,78,79,28,-1,28,79,80,-1,28,80,29,-1,29,80,81,-1,29,81,82,-1,76,83,77,-1,77,83,84,-1,77,84,28,-1,28,84,85,-1,28,85,78,-1,82,86,29,-1,29,86,87,-1,29,87,88,-1,89,90,91,-1,92,93,94,-1,95,91,96,-1,96,91,97,-1,96,97,92,-1,92,97,98,-1,92,98,93,-1,99,100,19,-1,94,101,92,-1,92,101,102,-1,92,102,103,-1,104,105,106,-1,106,105,96,-1,106,96,2,-1,103,107,92,-1,92,107,108,-1,92,108,109,-1,110,111,112,-1,112,111,113,-1,112,113,114,-1,114,113,95,-1,95,113,91,-1,91,113,115,-1,91,115,89,-1,100,91,19,-1,19,91,59,-1,19,59,38,-1,38,59,29,-1,38,29,7,-1,7,29,88,-1,7,88,12,-1,116,117,118,-1,118,117,89,-1,118,89,119,-1,119,89,115,-1,120,121,19,-1,108,122,109,-1,109,122,123,-1,109,123,124,-1,125,126,127,-1,127,126,59,-1,127,59,128,-1,128,59,91,-1,128,91,129,-1,129,91,90,-1,129,90,130,-1,130,90,131,-1,130,131,132,-1,132,131,133,-1,124,134,109,-1,109,134,135,-1,109,135,136,-1,136,99,109,-1,109,99,19,-1,109,19,137,-1,137,19,121,-1,137,121,138,-1,138,121,139,-1,19,140,141,-1,141,0,19,-1,19,0,2,-1,19,2,120,-1,120,2,96,-1,120,96,142,-1,142,96,92,-1,27,143,144,-1,18,6,19,-1,19,6,11,-1,19,11,140,-1,140,11,145,-1,140,145,146,-1,147,148,149,-1,149,148,150,-1,149,150,31,-1,31,150,151,-1,31,151,30,-1,30,151,42,-1,30,42,61,-1,61,42,27,-1,61,27,62,-1,62,27,144,-1,62,144,146,-1,146,144,152,-1,146,152,140,-1,153,154,155,-1,155,154,156,-1,157,158,159,-1,159,158,160,-1,66,161,143,-1,143,161,162,-1,143,162,163,-1,164,165,163,-1,166,167,168,-1,168,167,164,-1,168,164,169,-1,169,164,163,-1,163,162,169,-1,169,162,170,-1,169,170,171,-1,171,170,172,-1,171,172,173,-1,174,175,173,-1,173,175,176,-1,173,176,171,-1,161,66,177,-1,177,66,5,-1,177,5,178,-1,178,5,179,-1,180,181,182,-1,166,168,183,-1,184,185,183,-1,183,185,180,-1,183,180,166,-1,166,180,182,-1,186,187,188,-1,189,167,190,-1,190,167,166,-1,190,166,191,-1,192,182,193,-1,193,182,194,-1,193,194,195,-1,196,197,198,-1,188,196,141,-1,141,196,198,-1,141,198,192,-1,192,198,199,-1,192,199,182,-1,199,200,182,-1,182,200,201,-1,182,201,166,-1,166,201,202,-1,166,202,203,-1,141,152,188,-1,188,152,191,-1,188,191,186,-1,186,191,166,-1,186,166,204,-1,204,166,203,-1,205,164,189,-1,189,164,167,-1,206,165,205,-1,205,165,164,-1,207,163,206,-1,206,163,165,-1,208,34,209,-1,209,34,33,-1,210,35,211,-1,211,35,44,-1,212,22,213,-1,213,22,24,-1,214,110,215,-1,215,110,112,-1,216,116,217,-1,217,116,118,-1,218,132,219,-1,219,132,133,-1,220,126,221,-1,221,126,125,-1,222,148,223,-1,223,148,147,-1,224,225,226,-1,226,225,104,-1,226,104,227,-1,227,104,106,-1,228,227,106,-1,229,194,182,-1,230,231,232,-1,232,231,229,-1,232,229,181,-1,181,229,182,-1,106,1,228,-1,228,1,230,-1,228,230,233,-1,233,230,232,-1,233,232,234,-1,235,236,237,-1,234,238,233,-1,233,238,235,-1,233,235,239,-1,239,235,237,-1,240,241,242,-1,242,241,243,-1,242,243,244,-1,156,245,155,-1,155,245,246,-1,246,247,155,-1,155,247,248,-1,155,248,157,-1,248,249,157,-1,157,249,250,-1,157,250,251,-1,251,252,157,-1,157,252,253,-1,157,253,158,-1,254,255,256,-1,256,255,257,-1,256,257,258,-1,254,259,255,-1,255,259,260,-1,255,260,261,-1,261,262,255,-1,255,262,263,-1,255,263,243,-1,243,263,264,-1,243,264,265,-1,265,266,243,-1,243,266,267,-1,243,267,244,-1,253,268,258,-1,258,268,256,-1,158,253,160,-1,160,253,258,-1,160,258,269,-1,269,258,270,-1,154,271,156,-1,156,271,272,-1,156,272,245,-1,245,272,273,-1,245,273,274,-1,274,273,275,-1,274,275,242,-1,242,275,271,-1,242,271,240,-1,240,271,154,-1,240,154,276,-1,276,154,277,-1,278,279,280,-1,280,279,246,-1,280,246,281,-1,281,246,245,-1,281,245,282,-1,282,245,274,-1,282,274,278,-1,278,274,279,-1,283,284,285,-1,285,284,247,-1,285,247,286,-1,286,247,246,-1,286,246,287,-1,287,246,279,-1,287,279,283,-1,283,279,284,-1,288,289,290,-1,290,289,248,-1,290,248,291,-1,291,248,247,-1,291,247,292,-1,292,247,284,-1,292,284,288,-1,288,284,289,-1,293,294,295,-1,295,294,249,-1,295,249,296,-1,296,249,248,-1,296,248,297,-1,297,248,289,-1,297,289,293,-1,293,289,294,-1,298,299,300,-1,300,299,250,-1,300,250,301,-1,301,250,249,-1,301,249,302,-1,302,249,294,-1,302,294,298,-1,298,294,299,-1,303,304,305,-1,305,304,251,-1,305,251,306,-1,306,251,250,-1,306,250,307,-1,307,250,299,-1,307,299,303,-1,303,299,304,-1,308,309,310,-1,310,309,252,-1,310,252,311,-1,311,252,251,-1,311,251,312,-1,312,251,304,-1,312,304,308,-1,308,304,309,-1,313,268,314,-1,314,268,253,-1,314,253,315,-1,315,253,252,-1,315,252,316,-1,316,252,309,-1,316,309,313,-1,313,309,268,-1,242,244,274,-1,274,244,267,-1,274,267,279,-1,279,267,266,-1,279,266,284,-1,284,266,265,-1,284,265,289,-1,289,265,264,-1,289,264,294,-1,294,264,263,-1,294,263,299,-1,299,263,262,-1,299,262,304,-1,304,262,261,-1,304,261,309,-1,309,261,260,-1,309,260,268,-1,268,260,259,-1,268,259,256,-1,256,259,254,-1,317,149,318,-1,318,149,31,-1,319,29,320,-1,320,29,60,-1,31,321,322,-1,321,31,323,-1,323,31,29,-1,323,29,324,-1,324,29,319,-1,324,319,322,-1,322,319,318,-1,322,318,31,-1,147,149,223,-1,223,149,317,-1,60,126,320,-1,320,126,220,-1,325,23,326,-1,326,23,42,-1,327,151,328,-1,328,151,150,-1,42,329,330,-1,329,42,331,-1,331,42,151,-1,331,151,332,-1,332,151,327,-1,332,327,330,-1,330,327,326,-1,330,326,42,-1,333,127,334,-1,334,127,128,-1,335,129,336,-1,336,129,130,-1,128,337,338,-1,337,128,339,-1,339,128,129,-1,339,129,340,-1,340,129,335,-1,340,335,338,-1,338,335,334,-1,338,334,128,-1,341,4,342,-1,342,4,3,-1,343,37,344,-1,344,37,36,-1,3,345,346,-1,345,3,347,-1,347,3,37,-1,347,37,348,-1,348,37,343,-1,348,343,346,-1,346,343,342,-1,346,342,3,-1,349,43,350,-1,350,43,26,-1,351,25,352,-1,352,25,40,-1,26,353,354,-1,353,26,355,-1,355,26,25,-1,355,25,356,-1,356,25,351,-1,356,351,354,-1,354,351,350,-1,354,350,26,-1,357,32,358,-1,358,32,41,-1,359,21,360,-1,360,21,20,-1,41,361,362,-1,361,41,363,-1,363,41,21,-1,363,21,364,-1,364,21,359,-1,364,359,362,-1,362,359,358,-1,362,358,41,-1,365,131,366,-1,366,131,90,-1,367,89,368,-1,368,89,117,-1,90,369,370,-1,369,90,371,-1,371,90,89,-1,371,89,372,-1,372,89,367,-1,372,367,370,-1,370,367,366,-1,370,366,90,-1,373,119,374,-1,374,119,115,-1,375,113,376,-1,376,113,111,-1,115,377,378,-1,377,115,379,-1,379,115,113,-1,379,113,380,-1,380,113,375,-1,380,375,378,-1,378,375,374,-1,378,374,115,-1,381,114,382,-1,382,114,95,-1,383,96,384,-1,384,96,105,-1,95,385,386,-1,385,95,387,-1,387,95,96,-1,387,96,388,-1,388,96,383,-1,388,383,386,-1,386,383,382,-1,386,382,95,-1,24,23,213,-1,213,23,325,-1,150,148,328,-1,328,148,222,-1,33,32,209,-1,209,32,357,-1,20,22,360,-1,360,22,212,-1,44,43,211,-1,211,43,349,-1,40,34,352,-1,352,34,208,-1,5,4,179,-1,179,4,341,-1,36,35,344,-1,344,35,210,-1,125,127,221,-1,221,127,333,-1,130,132,336,-1,336,132,218,-1,133,131,219,-1,219,131,365,-1,117,116,368,-1,368,116,216,-1,118,119,217,-1,217,119,373,-1,111,110,376,-1,376,110,214,-1,112,114,215,-1,215,114,381,-1,105,104,384,-1,384,104,225,-1,
        ]
    }
}
Shape{
    appearance Appearance {
        material  Material 	{
            diffuseColor 0.7529411764705882 0.7529411764705882 0.7529411764705882
            specularColor 0.3764705882352941 0.3764705882352941 0.3764705882352941
            ambientIntensity 0.7529
            transparency 0.0
            shininess 0.5
        }
    }
    geometry IndexedFaceSet {
        ccw TRUE
        solid FALSE
        coord DEF co Coordinate {
            point [
                0.0394 0.5994 0.0231, -0.0394 0.5994 0.0231, -0.0394 0.6113 0.0133, 0.0394 0.6113 0.0133, -0.0394 0.6249 0.006, 0.0394 0.6249 0.006, -0.0394 0.6397 0.0015, 0.0394 0.6397 0.0015, -0.0394 0.6551 0.0, 0.0394 0.6551 0.0, 0.0394 0.8902 0.0, -0.0394 0.8902 0.0, -0.0394 0.898 0.0079, -0.0394 0.898 0.0394, 0.0394 0.898 0.0079, 0.0394 0.898 0.0394, -0.0394 0.8967 0.0496, 0.0394 0.8967 0.0496, -0.0394 0.8928 0.0591, 0.0394 0.8928 0.0591, -0.0394 0.8865 0.0672, 0.0394 0.8865 0.0672, -0.0394 0.8783 0.0735, 0.0394 0.8783 0.0735, -0.0394 0.8688 0.0774, 0.0394 0.8688 0.0774, -0.0394 0.8587 0.0787, 0.0394 0.8587 0.0787, 0.0394 0.6618 0.0787, -0.0394 0.6618 0.0787, 0.0394 0.653 0.0797, -0.0394 0.653 0.0797, 0.0394 0.6447 0.0826, -0.0394 0.6447 0.0826, 0.0394 0.6373 0.0873, -0.0394 0.6373 0.0873, 0.0394 0.631 0.0936, -0.0394 0.631 0.0936, 0.0394 0.6263 0.101, -0.0394 0.6263 0.101, 0.0394 0.6234 0.1093, -0.0394 0.6234 0.1093, 0.0394 0.6224 0.1181, -0.0394 0.6224 0.1181, 0.0394 0.6224 0.8346, -0.0394 0.6224 0.8346, 0.0394 0.5043 0.1181, 0.0394 0.5043 0.8346, 0.0394 0.8922 0.0003, 0.0394 0.8978 0.0058, 0.0394 0.8941 0.0011, 0.0394 0.8957 0.0023, 0.0394 0.897 0.0039, -0.0394 0.5043 0.8346, -0.0394 0.5043 0.1181, -0.0394 0.8922 0.0003, -0.0394 0.8978 0.0058, -0.0394 0.897 0.0039, -0.0394 0.8957 0.0023, -0.0394 0.8941 0.0011, -0.0107 -0.6374 0.806, -0.0107 -0.6374 0.7058, 0.0107 -0.6374 0.806, 0.0107 -0.6374 0.7058, -0.0394 -0.5587 0.6772, -0.0394 0.1106 0.6772, 0.0394 -0.5587 0.6772, 0.0394 0.1106 0.6772, 0.0394 0.1106 0.3937, -0.0394 0.1106 0.3937, 0.0394 -0.0075 0.3937, -0.0394 -0.0075 0.3937, 0.0394 -0.0075 0.2559, -0.0394 -0.0075 0.2559, 0.0394 0.1303 0.2559, -0.0394 0.1303 0.2559, 0.0394 -0.5587 0.8346, 0.0394 0.1303 0.8346, -0.0394 -0.5587 0.8346, -0.0394 0.1303 0.8346, -0.3543 0.5994 0.0231, -0.4331 0.5994 0.0231, -0.4331 0.6113 0.0133, -0.3543 0.6113 0.0133, -0.4331 0.6249 0.006, -0.3543 0.6249 0.006, -0.4331 0.6397 0.0015, -0.3543 0.6397 0.0015, -0.4331 0.6551 0.0, -0.3543 0.6551 0.0, -0.3543 0.8902 0.0, -0.4331 0.8902 0.0, -0.4331 0.898 0.0079, -0.4331 0.898 0.0394, -0.3543 0.898 0.0079, -0.3543 0.898 0.0394, -0.4331 0.8967 0.0496, -0.3543 0.8967 0.0496, -0.4331 0.8928 0.0591, -0.3543 0.8928 0.0591, -0.4331 0.8865 0.0672, -0.3543 0.8865 0.0672, -0.4331 0.8783 0.0735, -0.3543 0.8783 0.0735, -0.4331 0.8688 0.0774, -0.3543 0.8688 0.0774, -0.4331 0.8587 0.0787, -0.3543 0.8587 0.0787, -0.3543 0.6618 0.0787, -0.4331 0.6618 0.0787, -0.3543 0.653 0.0797, -0.4331 0.653 0.0797, -0.3543 0.6447 0.0826, -0.4331 0.6447 0.0826, -0.3543 0.6373 0.0873, -0.4331 0.6373 0.0873, -0.3543 0.631 0.0936, -0.4331 0.631 0.0936, -0.3543 0.6263 0.101, -0.4331 0.6263 0.101, -0.3543 0.6234 0.1093, -0.4331 0.6234 0.1093, -0.3543 0.6224 0.1181, -0.4331 0.6224 0.1181, -0.3543 0.6224 0.8346, -0.4331 0.6224 0.8346, -0.3543 0.5043 0.1181, -0.3543 0.5043 0.8346, -0.3543 0.8922 0.0003, -0.3543 0.8978 0.0058, -0.3543 0.8941 0.0011, -0.3543 0.8957 0.0023, -0.3543 0.897 0.0039, -0.4331 0.5043 0.8346, -0.4331 0.5043 0.1181, -0.4331 0.8922 0.0003, -0.4331 0.8978 0.0058, -0.4331 0.897 0.0039, -0.4331 0.8957 0.0023, -0.4331 0.8941 0.0011, -0.4044 -0.6374 0.806, -0.4044 -0.6374 0.7058, -0.383 -0.6374 0.806, -0.383 -0.6374 0.7058, -0.4331 -0.5587 0.6772, -0.4331 0.1106 0.6772, -0.3543 -0.5587 0.6772, -0.3543 0.1106 0.6772, -0.3543 0.1106 0.3937, -0.4331 0.1106 0.3937, -0.3543 -0.0075 0.3937, -0.4331 -0.0075 0.3937, -0.3543 -0.0075 0.2559, -0.4331 -0.0075 0.2559, -0.3543 0.1303 0.2559, -0.4331 0.1303 0.2559, -0.3543 -0.5587 0.8346, -0.3543 0.1303 0.8346, -0.4331 -0.5587 0.8346, -0.4331 0.1303 0.8346, -0.748 0.5994 0.0231, -0.8268 0.5994 0.0231, -0.8268 0.6113 0.0133, -0.748 0.6113 0.0133, -0.8268 0.6249 0.006, -0.748 0.6249 0.006, -0.8268 0.6397 0.0015, -0.748 0.6397 0.0015, -0.8268 0.6551 0.0, -0.748 0.6551 0.0, -0.748 0.8902 0.0, -0.8268 0.8902 0.0, -0.8268 0.898 0.0079, -0.8268 0.898 0.0394, -0.748 0.898 0.0079, -0.748 0.898 0.0394, -0.8268 0.8967 0.0496, -0.748 0.8967 0.0496, -0.8268 0.8928 0.0591, -0.748 0.8928 0.0591, -0.8268 0.8865 0.0672, -0.748 0.8865 0.0672, -0.8268 0.8783 0.0735, -0.748 0.8783 0.0735, -0.8268 0.8688 0.0774, -0.748 0.8688 0.0774, -0.8268 0.8587 0.0787, -0.748 0.8587 0.0787, -0.748 0.6618 0.0787, -0.8268 0.6618 0.0787, -0.748 0.653 0.0797, -0.8268 0.653 0.0797, -0.748 0.6447 0.0826, -0.8268 0.6447 0.0826, -0.748 0.6373 0.0873, -0.8268 0.6373 0.0873, -0.748 0.631 0.0936, -0.8268 0.631 0.0936, -0.748 0.6263 0.101, -0.8268 0.6263 0.101, -0.748 0.6234 0.1093, -0.8268 0.6234 0.1093, -0.748 0.6224 0.1181, -0.8268 0.6224 0.1181, -0.748 0.6224 0.8346, -0.8268 0.6224 0.8346, -0.748 0.5043 0.1181, -0.748 0.5043 0.8346, -0.748 0.8922 0.0003, -0.748 0.8978 0.0058, -0.748 0.8941 0.0011, -0.748 0.8957 0.0023, -0.748 0.897 0.0039, -0.8268 0.5043 0.8346, -0.8268 0.5043 0.1181, -0.8268 0.8922 0.0003, -0.8268 0.8978 0.0058, -0.8268 0.897 0.0039, -0.8268 0.8957 0.0023, -0.8268 0.8941 0.0011, -0.7981 -0.6374 0.806, -0.7981 -0.6374 0.7058, -0.7767 -0.6374 0.806, -0.7767 -0.6374 0.7058, -0.8268 -0.5587 0.6772, -0.8268 0.1106 0.6772, -0.748 -0.5587 0.6772, -0.748 0.1106 0.6772, -0.748 0.1106 0.3937, -0.8268 0.1106 0.3937, -0.748 -0.0075 0.3937, -0.8268 -0.0075 0.3937, -0.748 -0.0075 0.2559, -0.8268 -0.0075 0.2559, -0.748 0.1303 0.2559, -0.8268 0.1303 0.2559, -0.748 -0.5587 0.8346, -0.748 0.1303 0.8346, -0.8268 -0.5587 0.8346, -0.8268 0.1303 0.8346, -1.1417 0.5994 0.0231, -1.2205 0.5994 0.0231, -1.2205 0.6113 0.0133, -1.1417 0.6113 0.0133, -1.2205 0.6249 0.006, -1.1417 0.6249 0.006, -1.2205 0.6397 0.0015, -1.1417 0.6397 0.0015, -1.2205 0.6551 0.0, -1.1417 0.6551 0.0, -1.1417 0.8902 0.0, -1.2205 0.8902 0.0, -1.2205 0.898 0.0079, -1.2205 0.898 0.0394, -1.1417 0.898 0.0079, -1.1417 0.898 0.0394, -1.2205 0.8967 0.0496, -1.1417 0.8967 0.0496, -1.2205 0.8928 0.0591, -1.1417 0.8928 0.0591, -1.2205 0.8865 0.0672, -1.1417 0.8865 0.0672, -1.2205 0.8783 0.0735, -1.1417 0.8783 0.0735, -1.2205 0.8688 0.0774, -1.1417 0.8688 0.0774, -1.2205 0.8587 0.0787, -1.1417 0.8587 0.0787, -1.1417 0.6618 0.0787, -1.2205 0.6618 0.0787, -1.1417 0.653 0.0797, -1.2205 0.653 0.0797, -1.1417 0.6447 0.0826, -1.2205 0.6447 0.0826, -1.1417 0.6373 0.0873, -1.2205 0.6373 0.0873, -1.1417 0.631 0.0936, -1.2205 0.631 0.0936, -1.1417 0.6263 0.101, -1.2205 0.6263 0.101, -1.1417 0.6234 0.1093, -1.2205 0.6234 0.1093, -1.1417 0.6224 0.1181, -1.2205 0.6224 0.1181, -1.1417 0.6224 0.8346, -1.2205 0.6224 0.8346, -1.1417 0.5043 0.1181, -1.1417 0.5043 0.8346, -1.1417 0.8922 0.0003, -1.1417 0.8978 0.0058, -1.1417 0.8941 0.0011, -1.1417 0.8957 0.0023, -1.1417 0.897 0.0039, -1.2205 0.5043 0.8346, -1.2205 0.5043 0.1181, -1.2205 0.8922 0.0003, -1.2205 0.8978 0.0058, -1.2205 0.897 0.0039, -1.2205 0.8957 0.0023, -1.2205 0.8941 0.0011, -1.1918 -0.6374 0.806, -1.1918 -0.6374 0.7058, -1.1704 -0.6374 0.806, -1.1704 -0.6374 0.7058, -1.2205 -0.5587 0.6772, -1.2205 0.1106 0.6772, -1.1417 -0.5587 0.6772, -1.1417 0.1106 0.6772, -1.1417 0.1106 0.3937, -1.2205 0.1106 0.3937, -1.1417 -0.0075 0.3937, -1.2205 -0.0075 0.3937, -1.1417 -0.0075 0.2559, -1.2205 -0.0075 0.2559, -1.1417 0.1303 0.2559, -1.2205 0.1303 0.2559, -1.1417 -0.5587 0.8346, -1.1417 0.1303 0.8346, -1.2205 -0.5587 0.8346, -1.2205 0.1303 0.8346, -1.5354 0.5994 0.0231, -1.6142 0.5994 0.0231, -1.6142 0.6113 0.0133, -1.5354 0.6113 0.0133, -1.6142 0.6249 0.006, -1.5354 0.6249 0.006, -1.6142 0.6397 0.0015, -1.5354 0.6397 0.0015, -1.6142 0.6551 0.0, -1.5354 0.6551 0.0, -1.5354 0.8902 0.0, -1.6142 0.8902 0.0, -1.6142 0.898 0.0079, -1.6142 0.898 0.0394, -1.5354 0.898 0.0079, -1.5354 0.898 0.0394, -1.6142 0.8967 0.0496, -1.5354 0.8967 0.0496, -1.6142 0.8928 0.0591, -1.5354 0.8928 0.0591, -1.6142 0.8865 0.0672, -1.5354 0.8865 0.0672, -1.6142 0.8783 0.0735, -1.5354 0.8783 0.0735, -1.6142 0.8688 0.0774, -1.5354 0.8688 0.0774, -1.6142 0.8587 0.0787, -1.5354 0.8587 0.0787, -1.5354 0.6618 0.0787, -1.6142 0.6618 0.0787, -1.5354 0.653 0.0797, -1.6142 0.653 0.0797, -1.5354 0.6447 0.0826, -1.6142 0.6447 0.0826, -1.5354 0.6373 0.0873, -1.6142 0.6373 0.0873, -1.5354 0.631 0.0936, -1.6142 0.631 0.0936, -1.5354 0.6263 0.101, -1.6142 0.6263 0.101, -1.5354 0.6234 0.1093, -1.6142 0.6234 0.1093, -1.5354 0.6224 0.1181, -1.6142 0.6224 0.1181, -1.5354 0.6224 0.8346, -1.6142 0.6224 0.8346, -1.5354 0.5043 0.1181, -1.5354 0.5043 0.8346, -1.5354 0.8922 0.0003, -1.5354 0.8978 0.0058, -1.5354 0.8941 0.0011, -1.5354 0.8957 0.0023, -1.5354 0.897 0.0039, -1.6142 0.5043 0.8346, -1.6142 0.5043 0.1181, -1.6142 0.8922 0.0003, -1.6142 0.8978 0.0058, -1.6142 0.897 0.0039, -1.6142 0.8957 0.0023, -1.6142 0.8941 0.0011, -1.5855 -0.6374 0.806, -1.5855 -0.6374 0.7058, -1.5641 -0.6374 0.806, -1.5641 -0.6374 0.7058, -1.6142 -0.5587 0.6772, -1.6142 0.1106 0.6772, -1.5354 -0.5587 0.6772, -1.5354 0.1106 0.6772, -1.5354 0.1106 0.3937, -1.6142 0.1106 0.3937, -1.5354 -0.0075 0.3937, -1.6142 -0.0075 0.3937, -1.5354 -0.0075 0.2559, -1.6142 -0.0075 0.2559, -1.5354 0.1303 0.2559, -1.6142 0.1303 0.2559, -1.5354 -0.5587 0.8346, -1.5354 0.1303 0.8346, -1.6142 -0.5587 0.8346, -1.6142 0.1303 0.8346, 0.4331 0.5994 0.0231, 0.3543 0.5994 0.0231, 0.3543 0.6113 0.0133, 0.4331 0.6113 0.0133, 0.3543 0.6249 0.006, 0.4331 0.6249 0.006, 0.3543 0.6397 0.0015, 0.4331 0.6397 0.0015, 0.3543 0.6551 0.0, 0.4331 0.6551 0.0, 0.4331 0.8902 0.0, 0.3543 0.8902 0.0, 0.3543 0.898 0.0079, 0.3543 0.898 0.0394, 0.4331 0.898 0.0079, 0.4331 0.898 0.0394, 0.3543 0.8967 0.0496, 0.4331 0.8967 0.0496, 0.3543 0.8928 0.0591, 0.4331 0.8928 0.0591, 0.3543 0.8865 0.0672, 0.4331 0.8865 0.0672, 0.3543 0.8783 0.0735, 0.4331 0.8783 0.0735, 0.3543 0.8688 0.0774, 0.4331 0.8688 0.0774, 0.3543 0.8587 0.0787, 0.4331 0.8587 0.0787, 0.4331 0.6618 0.0787, 0.3543 0.6618 0.0787, 0.4331 0.653 0.0797, 0.3543 0.653 0.0797, 0.4331 0.6447 0.0826, 0.3543 0.6447 0.0826, 0.4331 0.6373 0.0873, 0.3543 0.6373 0.0873, 0.4331 0.631 0.0936, 0.3543 0.631 0.0936, 0.4331 0.6263 0.101, 0.3543 0.6263 0.101, 0.4331 0.6234 0.1093, 0.3543 0.6234 0.1093, 0.4331 0.6224 0.1181, 0.3543 0.6224 0.1181, 0.4331 0.6224 0.8346, 0.3543 0.6224 0.8346, 0.4331 0.5043 0.1181, 0.4331 0.5043 0.8346, 0.4331 0.8922 0.0003, 0.4331 0.8978 0.0058, 0.4331 0.8941 0.0011, 0.4331 0.8957 0.0023, 0.4331 0.897 0.0039, 0.3543 0.5043 0.8346, 0.3543 0.5043 0.1181, 0.3543 0.8922 0.0003, 0.3543 0.8978 0.0058, 0.3543 0.897 0.0039, 0.3543 0.8957 0.0023, 0.3543 0.8941 0.0011, 0.383 -0.6374 0.806, 0.383 -0.6374 0.7058, 0.4044 -0.6374 0.806, 0.4044 -0.6374 0.7058, 0.3543 -0.5587 0.6772, 0.3543 0.1106 0.6772, 0.4331 -0.5587 0.6772, 0.4331 0.1106 0.6772, 0.4331 0.1106 0.3937, 0.3543 0.1106 0.3937, 0.4331 -0.0075 0.3937, 0.3543 -0.0075 0.3937, 0.4331 -0.0075 0.2559, 0.3543 -0.0075 0.2559, 0.4331 0.1303 0.2559, 0.3543 0.1303 0.2559, 0.4331 -0.5587 0.8346, 0.4331 0.1303 0.8346, 0.3543 -0.5587 0.8346, 0.3543 0.1303 0.8346, 0.8268 0.5994 0.0231, 0.748 0.5994 0.0231, 0.748 0.6113 0.0133, 0.8268 0.6113 0.0133, 0.748 0.6249 0.006, 0.8268 0.6249 0.006, 0.748 0.6397 0.0015, 0.8268 0.6397 0.0015, 0.748 0.6551 0.0, 0.8268 0.6551 0.0, 0.8268 0.8902 0.0, 0.748 0.8902 0.0, 0.748 0.898 0.0079, 0.748 0.898 0.0394, 0.8268 0.898 0.0079, 0.8268 0.898 0.0394, 0.748 0.8967 0.0496, 0.8268 0.8967 0.0496, 0.748 0.8928 0.0591, 0.8268 0.8928 0.0591, 0.748 0.8865 0.0672, 0.8268 0.8865 0.0672, 0.748 0.8783 0.0735, 0.8268 0.8783 0.0735, 0.748 0.8688 0.0774, 0.8268 0.8688 0.0774, 0.748 0.8587 0.0787, 0.8268 0.8587 0.0787, 0.8268 0.6618 0.0787, 0.748 0.6618 0.0787, 0.8268 0.653 0.0797, 0.748 0.653 0.0797, 0.8268 0.6447 0.0826, 0.748 0.6447 0.0826, 0.8268 0.6373 0.0873, 0.748 0.6373 0.0873, 0.8268 0.631 0.0936, 0.748 0.631 0.0936, 0.8268 0.6263 0.101, 0.748 0.6263 0.101, 0.8268 0.6234 0.1093, 0.748 0.6234 0.1093, 0.8268 0.6224 0.1181, 0.748 0.6224 0.1181, 0.8268 0.6224 0.8346, 0.748 0.6224 0.8346, 0.8268 0.5043 0.1181, 0.8268 0.5043 0.8346, 0.8268 0.8922 0.0003, 0.8268 0.8978 0.0058, 0.8268 0.8941 0.0011, 0.8268 0.8957 0.0023, 0.8268 0.897 0.0039, 0.748 0.5043 0.8346, 0.748 0.5043 0.1181, 0.748 0.8922 0.0003, 0.748 0.8978 0.0058, 0.748 0.897 0.0039, 0.748 0.8957 0.0023, 0.748 0.8941 0.0011, 0.7767 -0.6374 0.806, 0.7767 -0.6374 0.7058, 0.7981 -0.6374 0.806, 0.7981 -0.6374 0.7058, 0.748 -0.5587 0.6772, 0.748 0.1106 0.6772, 0.8268 -0.5587 0.6772, 0.8268 0.1106 0.6772, 0.8268 0.1106 0.3937, 0.748 0.1106 0.3937, 0.8268 -0.0075 0.3937, 0.748 -0.0075 0.3937, 0.8268 -0.0075 0.2559, 0.748 -0.0075 0.2559, 0.8268 0.1303 0.2559, 0.748 0.1303 0.2559, 0.8268 -0.5587 0.8346, 0.8268 0.1303 0.8346, 0.748 -0.5587 0.8346, 0.748 0.1303 0.8346, 1.2205 0.5994 0.0231, 1.1417 0.5994 0.0231, 1.1417 0.6113 0.0133, 1.2205 0.6113 0.0133, 1.1417 0.6249 0.006, 1.2205 0.6249 0.006, 1.1417 0.6397 0.0015, 1.2205 0.6397 0.0015, 1.1417 0.6551 0.0, 1.2205 0.6551 0.0, 1.2205 0.8902 0.0, 1.1417 0.8902 0.0, 1.1417 0.898 0.0079, 1.1417 0.898 0.0394, 1.2205 0.898 0.0079, 1.2205 0.898 0.0394, 1.1417 0.8967 0.0496, 1.2205 0.8967 0.0496, 1.1417 0.8928 0.0591, 1.2205 0.8928 0.0591, 1.1417 0.8865 0.0672, 1.2205 0.8865 0.0672, 1.1417 0.8783 0.0735, 1.2205 0.8783 0.0735, 1.1417 0.8688 0.0774, 1.2205 0.8688 0.0774, 1.1417 0.8587 0.0787, 1.2205 0.8587 0.0787, 1.2205 0.6618 0.0787, 1.1417 0.6618 0.0787, 1.2205 0.653 0.0797, 1.1417 0.653 0.0797, 1.2205 0.6447 0.0826, 1.1417 0.6447 0.0826, 1.2205 0.6373 0.0873, 1.1417 0.6373 0.0873, 1.2205 0.631 0.0936, 1.1417 0.631 0.0936, 1.2205 0.6263 0.101, 1.1417 0.6263 0.101, 1.2205 0.6234 0.1093, 1.1417 0.6234 0.1093, 1.2205 0.6224 0.1181, 1.1417 0.6224 0.1181, 1.2205 0.6224 0.8346, 1.1417 0.6224 0.8346, 1.2205 0.5043 0.1181, 1.2205 0.5043 0.8346, 1.2205 0.8922 0.0003, 1.2205 0.8978 0.0058, 1.2205 0.8941 0.0011, 1.2205 0.8957 0.0023, 1.2205 0.897 0.0039, 1.1417 0.5043 0.8346, 1.1417 0.5043 0.1181, 1.1417 0.8922 0.0003, 1.1417 0.8978 0.0058, 1.1417 0.897 0.0039, 1.1417 0.8957 0.0023, 1.1417 0.8941 0.0011, 1.1704 -0.6374 0.806, 1.1704 -0.6374 0.7058, 1.1918 -0.6374 0.806, 1.1918 -0.6374 0.7058, 1.1417 -0.5587 0.6772, 1.1417 0.1106 0.6772, 1.2205 -0.5587 0.6772, 1.2205 0.1106 0.6772, 1.2205 0.1106 0.3937, 1.1417 0.1106 0.3937, 1.2205 -0.0075 0.3937, 1.1417 -0.0075 0.3937, 1.2205 -0.0075 0.2559, 1.1417 -0.0075 0.2559, 1.2205 0.1303 0.2559, 1.1417 0.1303 0.2559, 1.2205 -0.5587 0.8346, 1.2205 0.1303 0.8346, 1.1417 -0.5587 0.8346, 1.1417 0.1303 0.8346, 1.6142 0.5994 0.0231, 1.5354 0.5994 0.0231, 1.5354 0.6113 0.0133, 1.6142 0.6113 0.0133, 1.5354 0.6249 0.006, 1.6142 0.6249 0.006, 1.5354 0.6397 0.0015, 1.6142 0.6397 0.0015, 1.5354 0.6551 0.0, 1.6142 0.6551 0.0, 1.6142 0.8902 0.0, 1.5354 0.8902 0.0, 1.5354 0.898 0.0079, 1.5354 0.898 0.0394, 1.6142 0.898 0.0079, 1.6142 0.898 0.0394, 1.5354 0.8967 0.0496, 1.6142 0.8967 0.0496, 1.5354 0.8928 0.0591, 1.6142 0.8928 0.0591, 1.5354 0.8865 0.0672, 1.6142 0.8865 0.0672, 1.5354 0.8783 0.0735, 1.6142 0.8783 0.0735, 1.5354 0.8688 0.0774, 1.6142 0.8688 0.0774, 1.5354 0.8587 0.0787, 1.6142 0.8587 0.0787, 1.6142 0.6618 0.0787, 1.5354 0.6618 0.0787, 1.6142 0.653 0.0797, 1.5354 0.653 0.0797, 1.6142 0.6447 0.0826, 1.5354 0.6447 0.0826, 1.6142 0.6373 0.0873, 1.5354 0.6373 0.0873, 1.6142 0.631 0.0936, 1.5354 0.631 0.0936, 1.6142 0.6263 0.101, 1.5354 0.6263 0.101, 1.6142 0.6234 0.1093, 1.5354 0.6234 0.1093, 1.6142 0.6224 0.1181, 1.5354 0.6224 0.1181, 1.6142 0.6224 0.8346, 1.5354 0.6224 0.8346, 1.6142 0.5043 0.1181, 1.6142 0.5043 0.8346, 1.6142 0.8922 0.0003, 1.6142 0.8978 0.0058, 1.6142 0.8941 0.0011, 1.6142 0.8957 0.0023, 1.6142 0.897 0.0039, 1.5354 0.5043 0.8346, 1.5354 0.5043 0.1181, 1.5354 0.8922 0.0003, 1.5354 0.8978 0.0058, 1.5354 0.897 0.0039, 1.5354 0.8957 0.0023, 1.5354 0.8941 0.0011, 1.5641 -0.6374 0.806, 1.5641 -0.6374 0.7058, 1.5855 -0.6374 0.806, 1.5855 -0.6374 0.7058, 1.5354 -0.5587 0.6772, 1.5354 0.1106 0.6772, 1.6142 -0.5587 0.6772, 1.6142 0.1106 0.6772, 1.6142 0.1106 0.3937, 1.5354 0.1106 0.3937, 1.6142 -0.0075 0.3937, 1.5354 -0.0075 0.3937, 1.6142 -0.0075 0.2559, 1.5354 -0.0075 0.2559, 1.6142 0.1303 0.2559, 1.5354 0.1303 0.2559, 1.6142 -0.5587 0.8346, 1.6142 0.1303 0.8346, 1.5354 -0.5587 0.8346, 1.5354 0.1303 0.8346
            ]
        }
        coordIndex [
            0,1,2,-1,0,2,3,-1,3,2,4,-1,3,4,5,-1,5,4,6,-1,5,6,7,-1,7,6,8,-1,7,8,9,-1,10,9,11,-1,11,9,8,-1,12,13,14,-1,14,13,15,-1,15,13,16,-1,15,16,17,-1,17,16,18,-1,17,18,19,-1,19,18,20,-1,19,20,21,-1,21,20,22,-1,21,22,23,-1,23,22,24,-1,23,24,25,-1,25,24,26,-1,25,26,27,-1,28,27,29,-1,29,27,26,-1,28,29,30,-1,30,29,31,-1,30,31,32,-1,32,31,33,-1,32,33,34,-1,34,33,35,-1,34,35,36,-1,36,35,37,-1,36,37,38,-1,38,37,39,-1,38,39,40,-1,40,39,41,-1,40,41,42,-1,42,41,43,-1,44,42,45,-1,45,42,43,-1,32,34,0,-1,0,34,36,-1,0,36,46,-1,46,36,38,-1,44,47,42,-1,42,47,46,-1,42,46,40,-1,40,46,38,-1,0,3,32,-1,32,3,5,-1,32,5,30,-1,30,5,7,-1,30,7,28,-1,28,7,9,-1,28,9,27,-1,27,9,15,-1,15,9,10,-1,15,10,14,-1,14,10,48,-1,14,48,49,-1,19,21,23,-1,15,17,27,-1,27,17,19,-1,27,19,25,-1,25,19,23,-1,50,51,48,-1,48,51,52,-1,48,52,49,-1,53,45,54,-1,54,45,43,-1,43,41,54,-1,54,41,39,-1,54,39,1,-1,16,13,26,-1,39,37,1,-1,1,37,35,-1,1,35,2,-1,2,35,33,-1,2,33,4,-1,4,33,31,-1,4,31,6,-1,6,31,8,-1,26,13,29,-1,22,20,18,-1,16,26,18,-1,18,26,24,-1,18,24,22,-1,31,29,8,-1,8,29,13,-1,8,13,11,-1,11,13,12,-1,11,12,55,-1,55,12,56,-1,56,57,55,-1,55,57,58,-1,55,58,59,-1,47,44,53,-1,53,44,45,-1,54,1,46,-1,46,1,0,-1,60,61,62,-1,62,61,63,-1,64,65,66,-1,66,65,67,-1,68,67,69,-1,69,67,65,-1,70,68,71,-1,71,68,69,-1,72,70,73,-1,73,70,71,-1,72,73,74,-1,74,73,75,-1,76,77,78,-1,78,77,79,-1,70,72,68,-1,68,72,74,-1,68,74,67,-1,67,74,77,-1,67,77,66,-1,66,77,76,-1,65,64,78,-1,75,73,71,-1,71,69,75,-1,75,69,65,-1,75,65,79,-1,79,65,78,-1,66,63,64,-1,64,63,61,-1,76,62,66,-1,66,62,63,-1,60,78,61,-1,61,78,64,-1,78,60,76,-1,76,60,62,-1,10,11,55,-1,10,55,48,-1,48,55,59,-1,48,59,50,-1,50,59,58,-1,50,58,51,-1,51,58,57,-1,51,57,52,-1,52,57,56,-1,52,56,49,-1,49,56,12,-1,49,12,14,-1,80,81,82,-1,80,82,83,-1,83,82,84,-1,83,84,85,-1,85,84,86,-1,85,86,87,-1,87,86,88,-1,87,88,89,-1,90,89,91,-1,91,89,88,-1,92,93,94,-1,94,93,95,-1,95,93,96,-1,95,96,97,-1,97,96,98,-1,97,98,99,-1,99,98,100,-1,99,100,101,-1,101,100,102,-1,101,102,103,-1,103,102,104,-1,103,104,105,-1,105,104,106,-1,105,106,107,-1,108,107,109,-1,109,107,106,-1,108,109,110,-1,110,109,111,-1,110,111,112,-1,112,111,113,-1,112,113,114,-1,114,113,115,-1,114,115,116,-1,116,115,117,-1,116,117,118,-1,118,117,119,-1,118,119,120,-1,120,119,121,-1,120,121,122,-1,122,121,123,-1,124,122,125,-1,125,122,123,-1,112,114,80,-1,80,114,116,-1,80,116,126,-1,126,116,118,-1,124,127,122,-1,122,127,126,-1,122,126,120,-1,120,126,118,-1,80,83,112,-1,112,83,85,-1,112,85,110,-1,110,85,87,-1,110,87,108,-1,108,87,89,-1,108,89,107,-1,107,89,95,-1,95,89,90,-1,95,90,94,-1,94,90,128,-1,94,128,129,-1,99,101,103,-1,95,97,107,-1,107,97,99,-1,107,99,105,-1,105,99,103,-1,130,131,128,-1,128,131,132,-1,128,132,129,-1,133,125,134,-1,134,125,123,-1,123,121,134,-1,134,121,119,-1,134,119,81,-1,96,93,106,-1,119,117,81,-1,81,117,115,-1,81,115,82,-1,82,115,113,-1,82,113,84,-1,84,113,111,-1,84,111,86,-1,86,111,88,-1,106,93,109,-1,102,100,98,-1,96,106,98,-1,98,106,104,-1,98,104,102,-1,111,109,88,-1,88,109,93,-1,88,93,91,-1,91,93,92,-1,91,92,135,-1,135,92,136,-1,136,137,135,-1,135,137,138,-1,135,138,139,-1,127,124,133,-1,133,124,125,-1,134,81,126,-1,126,81,80,-1,140,141,142,-1,142,141,143,-1,144,145,146,-1,146,145,147,-1,148,147,149,-1,149,147,145,-1,150,148,151,-1,151,148,149,-1,152,150,153,-1,153,150,151,-1,152,153,154,-1,154,153,155,-1,156,157,158,-1,158,157,159,-1,150,152,148,-1,148,152,154,-1,148,154,147,-1,147,154,157,-1,147,157,146,-1,146,157,156,-1,145,144,158,-1,155,153,151,-1,151,149,155,-1,155,149,145,-1,155,145,159,-1,159,145,158,-1,160,161,162,-1,160,162,163,-1,163,162,164,-1,163,164,165,-1,165,164,166,-1,165,166,167,-1,167,166,168,-1,167,168,169,-1,170,169,171,-1,171,169,168,-1,172,173,174,-1,174,173,175,-1,175,173,176,-1,175,176,177,-1,177,176,178,-1,177,178,179,-1,179,178,180,-1,179,180,181,-1,181,180,182,-1,181,182,183,-1,183,182,184,-1,183,184,185,-1,185,184,186,-1,185,186,187,-1,188,187,189,-1,189,187,186,-1,188,189,190,-1,190,189,191,-1,190,191,192,-1,192,191,193,-1,192,193,194,-1,194,193,195,-1,194,195,196,-1,196,195,197,-1,196,197,198,-1,198,197,199,-1,198,199,200,-1,200,199,201,-1,200,201,202,-1,202,201,203,-1,204,202,205,-1,205,202,203,-1,192,194,160,-1,160,194,196,-1,160,196,206,-1,206,196,198,-1,204,207,202,-1,202,207,206,-1,202,206,200,-1,200,206,198,-1,160,163,192,-1,192,163,165,-1,192,165,190,-1,190,165,167,-1,190,167,188,-1,188,167,169,-1,188,169,187,-1,187,169,175,-1,175,169,170,-1,175,170,174,-1,174,170,208,-1,174,208,209,-1,179,181,183,-1,175,177,187,-1,187,177,179,-1,187,179,185,-1,185,179,183,-1,210,211,208,-1,208,211,212,-1,208,212,209,-1,213,205,214,-1,214,205,203,-1,203,201,214,-1,214,201,199,-1,214,199,161,-1,176,173,186,-1,199,197,161,-1,161,197,195,-1,161,195,162,-1,162,195,193,-1,162,193,164,-1,164,193,191,-1,164,191,166,-1,166,191,168,-1,186,173,189,-1,182,180,178,-1,176,186,178,-1,178,186,184,-1,178,184,182,-1,191,189,168,-1,168,189,173,-1,168,173,171,-1,171,173,172,-1,171,172,215,-1,215,172,216,-1,216,217,215,-1,215,217,218,-1,215,218,219,-1,207,204,213,-1,213,204,205,-1,214,161,206,-1,206,161,160,-1,220,221,222,-1,222,221,223,-1,224,225,226,-1,226,225,227,-1,228,227,229,-1,229,227,225,-1,230,228,231,-1,231,228,229,-1,232,230,233,-1,233,230,231,-1,232,233,234,-1,234,233,235,-1,236,237,238,-1,238,237,239,-1,230,232,228,-1,228,232,234,-1,228,234,227,-1,227,234,237,-1,227,237,226,-1,226,237,236,-1,225,224,238,-1,235,233,231,-1,231,229,235,-1,235,229,225,-1,235,225,239,-1,239,225,238,-1,240,241,242,-1,240,242,243,-1,243,242,244,-1,243,244,245,-1,245,244,246,-1,245,246,247,-1,247,246,248,-1,247,248,249,-1,250,249,251,-1,251,249,248,-1,252,253,254,-1,254,253,255,-1,255,253,256,-1,255,256,257,-1,257,256,258,-1,257,258,259,-1,259,258,260,-1,259,260,261,-1,261,260,262,-1,261,262,263,-1,263,262,264,-1,263,264,265,-1,265,264,266,-1,265,266,267,-1,268,267,269,-1,269,267,266,-1,268,269,270,-1,270,269,271,-1,270,271,272,-1,272,271,273,-1,272,273,274,-1,274,273,275,-1,274,275,276,-1,276,275,277,-1,276,277,278,-1,278,277,279,-1,278,279,280,-1,280,279,281,-1,280,281,282,-1,282,281,283,-1,284,282,285,-1,285,282,283,-1,272,274,240,-1,240,274,276,-1,240,276,286,-1,286,276,278,-1,284,287,282,-1,282,287,286,-1,282,286,280,-1,280,286,278,-1,240,243,272,-1,272,243,245,-1,272,245,270,-1,270,245,247,-1,270,247,268,-1,268,247,249,-1,268,249,267,-1,267,249,255,-1,255,249,250,-1,255,250,254,-1,254,250,288,-1,254,288,289,-1,259,261,263,-1,255,257,267,-1,267,257,259,-1,267,259,265,-1,265,259,263,-1,290,291,288,-1,288,291,292,-1,288,292,289,-1,293,285,294,-1,294,285,283,-1,283,281,294,-1,294,281,279,-1,294,279,241,-1,256,253,266,-1,279,277,241,-1,241,277,275,-1,241,275,242,-1,242,275,273,-1,242,273,244,-1,244,273,271,-1,244,271,246,-1,246,271,248,-1,266,253,269,-1,262,260,258,-1,256,266,258,-1,258,266,264,-1,258,264,262,-1,271,269,248,-1,248,269,253,-1,248,253,251,-1,251,253,252,-1,251,252,295,-1,295,252,296,-1,296,297,295,-1,295,297,298,-1,295,298,299,-1,287,284,293,-1,293,284,285,-1,294,241,286,-1,286,241,240,-1,300,301,302,-1,302,301,303,-1,304,305,306,-1,306,305,307,-1,308,307,309,-1,309,307,305,-1,310,308,311,-1,311,308,309,-1,312,310,313,-1,313,310,311,-1,312,313,314,-1,314,313,315,-1,316,317,318,-1,318,317,319,-1,310,312,308,-1,308,312,314,-1,308,314,307,-1,307,314,317,-1,307,317,306,-1,306,317,316,-1,305,304,318,-1,315,313,311,-1,311,309,315,-1,315,309,305,-1,315,305,319,-1,319,305,318,-1,320,321,322,-1,320,322,323,-1,323,322,324,-1,323,324,325,-1,325,324,326,-1,325,326,327,-1,327,326,328,-1,327,328,329,-1,330,329,331,-1,331,329,328,-1,332,333,334,-1,334,333,335,-1,335,333,336,-1,335,336,337,-1,337,336,338,-1,337,338,339,-1,339,338,340,-1,339,340,341,-1,341,340,342,-1,341,342,343,-1,343,342,344,-1,343,344,345,-1,345,344,346,-1,345,346,347,-1,348,347,349,-1,349,347,346,-1,348,349,350,-1,350,349,351,-1,350,351,352,-1,352,351,353,-1,352,353,354,-1,354,353,355,-1,354,355,356,-1,356,355,357,-1,356,357,358,-1,358,357,359,-1,358,359,360,-1,360,359,361,-1,360,361,362,-1,362,361,363,-1,364,362,365,-1,365,362,363,-1,352,354,320,-1,320,354,356,-1,320,356,366,-1,366,356,358,-1,364,367,362,-1,362,367,366,-1,362,366,360,-1,360,366,358,-1,320,323,352,-1,352,323,325,-1,352,325,350,-1,350,325,327,-1,350,327,348,-1,348,327,329,-1,348,329,347,-1,347,329,335,-1,335,329,330,-1,335,330,334,-1,334,330,368,-1,334,368,369,-1,339,341,343,-1,335,337,347,-1,347,337,339,-1,347,339,345,-1,345,339,343,-1,370,371,368,-1,368,371,372,-1,368,372,369,-1,373,365,374,-1,374,365,363,-1,363,361,374,-1,374,361,359,-1,374,359,321,-1,336,333,346,-1,359,357,321,-1,321,357,355,-1,321,355,322,-1,322,355,353,-1,322,353,324,-1,324,353,351,-1,324,351,326,-1,326,351,328,-1,346,333,349,-1,342,340,338,-1,336,346,338,-1,338,346,344,-1,338,344,342,-1,351,349,328,-1,328,349,333,-1,328,333,331,-1,331,333,332,-1,331,332,375,-1,375,332,376,-1,376,377,375,-1,375,377,378,-1,375,378,379,-1,367,364,373,-1,373,364,365,-1,374,321,366,-1,366,321,320,-1,380,381,382,-1,382,381,383,-1,384,385,386,-1,386,385,387,-1,388,387,389,-1,389,387,385,-1,390,388,391,-1,391,388,389,-1,392,390,393,-1,393,390,391,-1,392,393,394,-1,394,393,395,-1,396,397,398,-1,398,397,399,-1,390,392,388,-1,388,392,394,-1,388,394,387,-1,387,394,397,-1,387,397,386,-1,386,397,396,-1,385,384,398,-1,395,393,391,-1,391,389,395,-1,395,389,385,-1,395,385,399,-1,399,385,398,-1,400,401,402,-1,400,402,403,-1,403,402,404,-1,403,404,405,-1,405,404,406,-1,405,406,407,-1,407,406,408,-1,407,408,409,-1,410,409,411,-1,411,409,408,-1,412,413,414,-1,414,413,415,-1,415,413,416,-1,415,416,417,-1,417,416,418,-1,417,418,419,-1,419,418,420,-1,419,420,421,-1,421,420,422,-1,421,422,423,-1,423,422,424,-1,423,424,425,-1,425,424,426,-1,425,426,427,-1,428,427,429,-1,429,427,426,-1,428,429,430,-1,430,429,431,-1,430,431,432,-1,432,431,433,-1,432,433,434,-1,434,433,435,-1,434,435,436,-1,436,435,437,-1,436,437,438,-1,438,437,439,-1,438,439,440,-1,440,439,441,-1,440,441,442,-1,442,441,443,-1,444,442,445,-1,445,442,443,-1,432,434,400,-1,400,434,436,-1,400,436,446,-1,446,436,438,-1,444,447,442,-1,442,447,446,-1,442,446,440,-1,440,446,438,-1,400,403,432,-1,432,403,405,-1,432,405,430,-1,430,405,407,-1,430,407,428,-1,428,407,409,-1,428,409,427,-1,427,409,415,-1,415,409,410,-1,415,410,414,-1,414,410,448,-1,414,448,449,-1,419,421,423,-1,415,417,427,-1,427,417,419,-1,427,419,425,-1,425,419,423,-1,450,451,448,-1,448,451,452,-1,448,452,449,-1,453,445,454,-1,454,445,443,-1,443,441,454,-1,454,441,439,-1,454,439,401,-1,416,413,426,-1,439,437,401,-1,401,437,435,-1,401,435,402,-1,402,435,433,-1,402,433,404,-1,404,433,431,-1,404,431,406,-1,406,431,408,-1,426,413,429,-1,422,420,418,-1,416,426,418,-1,418,426,424,-1,418,424,422,-1,431,429,408,-1,408,429,413,-1,408,413,411,-1,411,413,412,-1,411,412,455,-1,455,412,456,-1,456,457,455,-1,455,457,458,-1,455,458,459,-1,447,444,453,-1,453,444,445,-1,454,401,446,-1,446,401,400,-1,460,461,462,-1,462,461,463,-1,464,465,466,-1,466,465,467,-1,468,467,469,-1,469,467,465,-1,470,468,471,-1,471,468,469,-1,472,470,473,-1,473,470,471,-1,472,473,474,-1,474,473,475,-1,476,477,478,-1,478,477,479,-1,470,472,468,-1,468,472,474,-1,468,474,467,-1,467,474,477,-1,467,477,466,-1,466,477,476,-1,465,464,478,-1,475,473,471,-1,471,469,475,-1,475,469,465,-1,475,465,479,-1,479,465,478,-1,480,481,482,-1,480,482,483,-1,483,482,484,-1,483,484,485,-1,485,484,486,-1,485,486,487,-1,487,486,488,-1,487,488,489,-1,490,489,491,-1,491,489,488,-1,492,493,494,-1,494,493,495,-1,495,493,496,-1,495,496,497,-1,497,496,498,-1,497,498,499,-1,499,498,500,-1,499,500,501,-1,501,500,502,-1,501,502,503,-1,503,502,504,-1,503,504,505,-1,505,504,506,-1,505,506,507,-1,508,507,509,-1,509,507,506,-1,508,509,510,-1,510,509,511,-1,510,511,512,-1,512,511,513,-1,512,513,514,-1,514,513,515,-1,514,515,516,-1,516,515,517,-1,516,517,518,-1,518,517,519,-1,518,519,520,-1,520,519,521,-1,520,521,522,-1,522,521,523,-1,524,522,525,-1,525,522,523,-1,512,514,480,-1,480,514,516,-1,480,516,526,-1,526,516,518,-1,524,527,522,-1,522,527,526,-1,522,526,520,-1,520,526,518,-1,480,483,512,-1,512,483,485,-1,512,485,510,-1,510,485,487,-1,510,487,508,-1,508,487,489,-1,508,489,507,-1,507,489,495,-1,495,489,490,-1,495,490,494,-1,494,490,528,-1,494,528,529,-1,499,501,503,-1,495,497,507,-1,507,497,499,-1,507,499,505,-1,505,499,503,-1,530,531,528,-1,528,531,532,-1,528,532,529,-1,533,525,534,-1,534,525,523,-1,523,521,534,-1,534,521,519,-1,534,519,481,-1,496,493,506,-1,519,517,481,-1,481,517,515,-1,481,515,482,-1,482,515,513,-1,482,513,484,-1,484,513,511,-1,484,511,486,-1,486,511,488,-1,506,493,509,-1,502,500,498,-1,496,506,498,-1,498,506,504,-1,498,504,502,-1,511,509,488,-1,488,509,493,-1,488,493,491,-1,491,493,492,-1,491,492,535,-1,535,492,536,-1,536,537,535,-1,535,537,538,-1,535,538,539,-1,527,524,533,-1,533,524,525,-1,534,481,526,-1,526,481,480,-1,540,541,542,-1,542,541,543,-1,544,545,546,-1,546,545,547,-1,548,547,549,-1,549,547,545,-1,550,548,551,-1,551,548,549,-1,552,550,553,-1,553,550,551,-1,552,553,554,-1,554,553,555,-1,556,557,558,-1,558,557,559,-1,550,552,548,-1,548,552,554,-1,548,554,547,-1,547,554,557,-1,547,557,546,-1,546,557,556,-1,545,544,558,-1,555,553,551,-1,551,549,555,-1,555,549,545,-1,555,545,559,-1,559,545,558,-1,560,561,562,-1,560,562,563,-1,563,562,564,-1,563,564,565,-1,565,564,566,-1,565,566,567,-1,567,566,568,-1,567,568,569,-1,570,569,571,-1,571,569,568,-1,572,573,574,-1,574,573,575,-1,575,573,576,-1,575,576,577,-1,577,576,578,-1,577,578,579,-1,579,578,580,-1,579,580,581,-1,581,580,582,-1,581,582,583,-1,583,582,584,-1,583,584,585,-1,585,584,586,-1,585,586,587,-1,588,587,589,-1,589,587,586,-1,588,589,590,-1,590,589,591,-1,590,591,592,-1,592,591,593,-1,592,593,594,-1,594,593,595,-1,594,595,596,-1,596,595,597,-1,596,597,598,-1,598,597,599,-1,598,599,600,-1,600,599,601,-1,600,601,602,-1,602,601,603,-1,604,602,605,-1,605,602,603,-1,592,594,560,-1,560,594,596,-1,560,596,606,-1,606,596,598,-1,604,607,602,-1,602,607,606,-1,602,606,600,-1,600,606,598,-1,560,563,592,-1,592,563,565,-1,592,565,590,-1,590,565,567,-1,590,567,588,-1,588,567,569,-1,588,569,587,-1,587,569,575,-1,575,569,570,-1,575,570,574,-1,574,570,608,-1,574,608,609,-1,579,581,583,-1,575,577,587,-1,587,577,579,-1,587,579,585,-1,585,579,583,-1,610,611,608,-1,608,611,612,-1,608,612,609,-1,613,605,614,-1,614,605,603,-1,603,601,614,-1,614,601,599,-1,614,599,561,-1,576,573,586,-1,599,597,561,-1,561,597,595,-1,561,595,562,-1,562,595,593,-1,562,593,564,-1,564,593,591,-1,564,591,566,-1,566,591,568,-1,586,573,589,-1,582,580,578,-1,576,586,578,-1,578,586,584,-1,578,584,582,-1,591,589,568,-1,568,589,573,-1,568,573,571,-1,571,573,572,-1,571,572,615,-1,615,572,616,-1,616,617,615,-1,615,617,618,-1,615,618,619,-1,607,604,613,-1,613,604,605,-1,614,561,606,-1,606,561,560,-1,620,621,622,-1,622,621,623,-1,624,625,626,-1,626,625,627,-1,628,627,629,-1,629,627,625,-1,630,628,631,-1,631,628,629,-1,632,630,633,-1,633,630,631,-1,632,633,634,-1,634,633,635,-1,636,637,638,-1,638,637,639,-1,630,632,628,-1,628,632,634,-1,628,634,627,-1,627,634,637,-1,627,637,626,-1,626,637,636,-1,625,624,638,-1,635,633,631,-1,631,629,635,-1,635,629,625,-1,635,625,639,-1,639,625,638,-1,640,641,642,-1,640,642,643,-1,643,642,644,-1,643,644,645,-1,645,644,646,-1,645,646,647,-1,647,646,648,-1,647,648,649,-1,650,649,651,-1,651,649,648,-1,652,653,654,-1,654,653,655,-1,655,653,656,-1,655,656,657,-1,657,656,658,-1,657,658,659,-1,659,658,660,-1,659,660,661,-1,661,660,662,-1,661,662,663,-1,663,662,664,-1,663,664,665,-1,665,664,666,-1,665,666,667,-1,668,667,669,-1,669,667,666,-1,668,669,670,-1,670,669,671,-1,670,671,672,-1,672,671,673,-1,672,673,674,-1,674,673,675,-1,674,675,676,-1,676,675,677,-1,676,677,678,-1,678,677,679,-1,678,679,680,-1,680,679,681,-1,680,681,682,-1,682,681,683,-1,684,682,685,-1,685,682,683,-1,672,674,640,-1,640,674,676,-1,640,676,686,-1,686,676,678,-1,684,687,682,-1,682,687,686,-1,682,686,680,-1,680,686,678,-1,640,643,672,-1,672,643,645,-1,672,645,670,-1,670,645,647,-1,670,647,668,-1,668,647,649,-1,668,649,667,-1,667,649,655,-1,655,649,650,-1,655,650,654,-1,654,650,688,-1,654,688,689,-1,659,661,663,-1,655,657,667,-1,667,657,659,-1,667,659,665,-1,665,659,663,-1,690,691,688,-1,688,691,692,-1,688,692,689,-1,693,685,694,-1,694,685,683,-1,683,681,694,-1,694,681,679,-1,694,679,641,-1,656,653,666,-1,679,677,641,-1,641,677,675,-1,641,675,642,-1,642,675,673,-1,642,673,644,-1,644,673,671,-1,644,671,646,-1,646,671,648,-1,666,653,669,-1,662,660,658,-1,656,666,658,-1,658,666,664,-1,658,664,662,-1,671,669,648,-1,648,669,653,-1,648,653,651,-1,651,653,652,-1,651,652,695,-1,695,652,696,-1,696,697,695,-1,695,697,698,-1,695,698,699,-1,687,684,693,-1,693,684,685,-1,694,641,686,-1,686,641,640,-1,700,701,702,-1,702,701,703,-1,704,705,706,-1,706,705,707,-1,708,707,709,-1,709,707,705,-1,710,708,711,-1,711,708,709,-1,712,710,713,-1,713,710,711,-1,712,713,714,-1,714,713,715,-1,716,717,718,-1,718,717,719,-1,710,712,708,-1,708,712,714,-1,708,714,707,-1,707,714,717,-1,707,717,706,-1,706,717,716,-1,705,704,718,-1,715,713,711,-1,711,709,715,-1,715,709,705,-1,715,705,719,-1,719,705,718,-1,146,143,144,-1,144,143,141,-1,156,142,146,-1,146,142,143,-1,140,158,141,-1,141,158,144,-1,158,140,156,-1,156,140,142,-1,226,223,224,-1,224,223,221,-1,236,222,226,-1,226,222,223,-1,220,238,221,-1,221,238,224,-1,238,220,236,-1,236,220,222,-1,306,303,304,-1,304,303,301,-1,316,302,306,-1,306,302,303,-1,300,318,301,-1,301,318,304,-1,318,300,316,-1,316,300,302,-1,386,383,384,-1,384,383,381,-1,396,382,386,-1,386,382,383,-1,380,398,381,-1,381,398,384,-1,398,380,396,-1,396,380,382,-1,466,463,464,-1,464,463,461,-1,476,462,466,-1,466,462,463,-1,460,478,461,-1,461,478,464,-1,478,460,476,-1,476,460,462,-1,546,543,544,-1,544,543,541,-1,556,542,546,-1,546,542,543,-1,540,558,541,-1,541,558,544,-1,558,540,556,-1,556,540,542,-1,626,623,624,-1,624,623,621,-1,636,622,626,-1,626,622,623,-1,620,638,621,-1,621,638,624,-1,638,620,636,-1,636,620,622,-1,706,703,704,-1,704,703,701,-1,716,702,706,-1,706,702,703,-1,700,718,701,-1,701,718,704,-1,718,700,716,-1,716,700,702,-1,90,91,135,-1,90,135,128,-1,128,135,139,-1,128,139,130,-1,130,139,138,-1,130,138,131,-1,131,138,137,-1,131,137,132,-1,132,137,136,-1,132,136,129,-1,129,136,92,-1,129,92,94,-1,170,171,215,-1,170,215,208,-1,208,215,219,-1,208,219,210,-1,210,219,218,-1,210,218,211,-1,211,218,217,-1,211,217,212,-1,212,217,216,-1,212,216,209,-1,209,216,172,-1,209,172,174,-1,250,251,295,-1,250,295,288,-1,288,295,299,-1,288,299,290,-1,290,299,298,-1,290,298,291,-1,291,298,297,-1,291,297,292,-1,292,297,296,-1,292,296,289,-1,289,296,252,-1,289,252,254,-1,330,331,375,-1,330,375,368,-1,368,375,379,-1,368,379,370,-1,370,379,378,-1,370,378,371,-1,371,378,377,-1,371,377,372,-1,372,377,376,-1,372,376,369,-1,369,376,332,-1,369,332,334,-1,410,411,455,-1,410,455,448,-1,448,455,459,-1,448,459,450,-1,450,459,458,-1,450,458,451,-1,451,458,457,-1,451,457,452,-1,452,457,456,-1,452,456,449,-1,449,456,412,-1,449,412,414,-1,490,491,535,-1,490,535,528,-1,528,535,539,-1,528,539,530,-1,530,539,538,-1,530,538,531,-1,531,538,537,-1,531,537,532,-1,532,537,536,-1,532,536,529,-1,529,536,492,-1,529,492,494,-1,570,571,615,-1,570,615,608,-1,608,615,619,-1,608,619,610,-1,610,619,618,-1,610,618,611,-1,611,618,617,-1,611,617,612,-1,612,617,616,-1,612,616,609,-1,609,616,572,-1,609,572,574,-1,650,651,695,-1,650,695,688,-1,688,695,699,-1,688,699,690,-1,690,699,698,-1,690,698,691,-1,691,698,697,-1,691,697,692,-1,692,697,696,-1,692,696,689,-1,689,696,652,-1,689,652,654,-1,
        ]
    }
}
Shape{
    appearance Appearance {
        material  Material 	{
            diffuseColor 0.996078431372549 0.8705882352941177 0.7607843137254902
            specularColor 0.4980392156862745 0.43529411764705883 0.3803921568627451
            ambientIntensity 0.8956
            transparency 0.0
            shininess 0.5
        }
    }
    geometry IndexedFaceSet {
        ccw TRUE
        solid FALSE
        coord DEF co Coordinate {
            point [
                -2.1654 -0.4602 0.2047, -2.1654 -0.4602 0.0079, -2.0669 -0.4602 0.2047, -1.9685 -0.4602 0.0079, -2.0669 -0.4602 0.4803, -1.9685 -0.4602 0.4803, -2.0669 -0.7752 0.2047, -2.1654 -0.7752 0.2047, -2.0669 -0.7752 0.4016, -2.1654 -0.7752 0.4016, -2.0669 -1.0508 0.4016, -2.1654 -1.0508 0.4016, -1.9685 -1.0508 0.0079, -1.9685 -1.0508 0.4803, -2.0669 -1.0508 0.4803, -1.9685 0.2287 1.1496, -1.9685 0.2287 0.9921, -2.1654 0.2287 1.1496, -2.1654 0.2287 0.9921, -1.9685 0.4256 0.9921, -2.1654 0.4256 0.9921, -1.9685 0.465 0.9528, -2.1654 0.465 0.9528, -2.1654 0.4636 0.9629, -1.9685 0.4636 0.9629, -2.1654 0.4597 0.9724, -1.9685 0.4597 0.9724, -2.1654 0.4534 0.9806, -1.9685 0.4534 0.9806, -2.1654 0.4453 0.9869, -1.9685 0.4453 0.9869, -2.1654 0.4358 0.9908, -1.9685 0.4358 0.9908, -1.9685 0.465 0.6772, -2.1654 0.465 0.6772, -1.9685 0.6224 0.6772, -2.1654 0.6224 0.6772, -1.9685 0.465 1.1496, -1.9685 0.6224 0.9921, -1.9685 0.465 0.9921, 2.0669 -0.4602 0.4803, 1.9685 -0.4602 0.4803, 2.0669 -0.4602 0.2047, 1.9685 -0.4602 0.0079, 2.1654 -0.4602 0.2047, 2.1654 -0.4602 0.0079, 1.9685 -1.0508 0.4803, 1.9685 -1.0508 0.0079, 2.0669 -1.0508 0.4803, 2.0669 -1.0508 0.4016, 2.0669 -0.7752 0.4016, 2.0669 -0.7752 0.2047, 1.9685 0.6224 0.6772, 1.9685 0.465 0.6772, 2.1654 0.6224 0.6772, 2.1654 0.465 0.6772, 1.9685 0.465 0.9528, 2.1654 0.465 0.9528, 1.9685 0.4256 0.9921, 2.1654 0.4256 0.9921, 2.1654 0.4358 0.9908, 1.9685 0.4358 0.9908, 2.1654 0.4453 0.9869, 1.9685 0.4453 0.9869, 2.1654 0.4534 0.9806, 1.9685 0.4534 0.9806, 2.1654 0.4597 0.9724, 1.9685 0.4597 0.9724, 2.1654 0.4636 0.9629, 1.9685 0.4636 0.9629, 1.9685 0.2287 0.9921, 2.1654 0.2287 0.9921, 1.9685 0.2287 1.1496, 2.1654 0.2287 1.1496, 1.9685 0.6224 0.9921, 1.9685 0.465 0.9921, 1.9685 0.465 1.1496, 0.4823 0.6224 0.9921, 0.4429 0.5831 0.9921, 0.4429 0.5043 0.9921, 1.2697 0.6224 0.9921, 1.2303 0.5831 0.9921, 1.2303 0.5043 0.9921, -0.7382 0.5043 0.9921, -0.8366 0.5043 0.9921, 1.6634 0.6224 0.9921, 0.7382 0.5831 0.9921, 0.6988 0.6224 0.9921, 0.7382 0.5043 0.9921, -0.3445 0.5043 0.9921, -0.0492 0.5043 0.9921, -0.0492 0.5831 0.9921, -0.4429 0.5831 0.9921, -0.4823 0.6224 0.9921, -0.4429 0.5043 0.9921, -0.6988 0.6224 0.9921, 1.5256 0.5043 0.9921, 1.5256 0.5831 0.9921, 1.4862 0.6224 0.9921, 0.0492 0.5043 0.9921, 0.3445 0.5043 0.9921, -0.7382 0.5831 0.9921, 0.0886 0.6224 0.9921, 0.0492 0.5831 0.9921, 0.3051 0.6224 0.9921, 0.3445 0.5831 0.9921, -0.0886 0.6224 0.9921, -0.3051 0.6224 0.9921, -0.3445 0.5831 0.9921, 1.624 0.5043 0.9921, 1.624 0.5831 0.9921, 0.8366 0.5043 0.9921, 1.1319 0.5831 0.9921, 1.0925 0.6224 0.9921, 0.876 0.6224 0.9921, -1.0925 0.6224 0.9921, -1.1319 0.5831 0.9921, -0.876 0.6224 0.9921, -1.1319 0.5043 0.9921, -0.8366 0.5831 0.9921, -1.5256 0.5043 0.9921, -1.624 0.5043 0.9921, -1.2303 0.5043 0.9921, 1.1319 0.5043 0.9921, 0.8366 0.5831 0.9921, -1.4862 0.6224 0.9921, -1.5256 0.5831 0.9921, -1.2697 0.6224 0.9921, -1.2303 0.5831 0.9921, -1.624 0.5831 0.9921, -1.6634 0.6224 0.9921, -1.7717 -0.9917 0.5591, -1.7717 0.1303 0.5591, -1.8307 -1.0508 0.5591, -1.8504 0.1303 0.5591, -1.8504 -1.0508 0.5591, -1.8504 0.1303 0.8346, -1.7717 0.1303 0.8346, -1.8504 -1.0508 0.8346, -1.7717 -0.9917 0.8346, -1.8307 -1.0508 0.8346, 1.7717 0.1303 0.5591, 1.7717 -0.9917 0.5591, 1.8504 0.1303 0.5591, 1.8307 -1.0508 0.5591, 1.8504 -1.0508 0.5591, 1.7717 -0.9917 0.8346, 1.7717 0.1303 0.8346, 1.8307 -1.0508 0.8346, 1.8504 0.1303 0.8346, 1.8504 -1.0508 0.8346, -1.7717 -0.9917 0.9921, -1.8307 -1.0508 1.0512, 1.7717 -0.9917 0.9921, 1.8307 -1.0508 1.0512, -1.8307 -1.0508 0.1063, -1.7717 -0.9917 0.1654, 1.8307 -1.0508 0.1063, 1.7717 -0.9917 0.1654
            ]
        }
        coordIndex [
            0,1,2,-1,2,1,3,-1,2,3,4,-1,4,3,5,-1,6,7,2,-1,2,7,0,-1,8,9,6,-1,6,9,7,-1,10,11,8,-1,8,11,9,-1,3,12,5,-1,5,12,13,-1,14,10,8,-1,6,2,8,-1,8,2,4,-1,8,4,14,-1,4,5,14,-1,14,5,13,-1,15,16,17,-1,17,16,18,-1,16,19,18,-1,18,19,20,-1,21,22,23,-1,21,23,24,-1,24,23,25,-1,24,25,26,-1,26,25,27,-1,26,27,28,-1,28,27,29,-1,28,29,30,-1,30,29,31,-1,30,31,32,-1,32,31,20,-1,32,20,19,-1,21,33,22,-1,22,33,34,-1,33,35,34,-1,34,35,36,-1,16,15,19,-1,19,15,37,-1,19,37,32,-1,35,33,38,-1,38,33,21,-1,21,24,38,-1,38,24,26,-1,38,26,39,-1,39,26,28,-1,39,28,37,-1,37,28,30,-1,37,30,32,-1,40,41,42,-1,42,41,43,-1,42,43,44,-1,44,43,45,-1,41,46,43,-1,43,46,47,-1,41,40,46,-1,46,40,48,-1,49,48,50,-1,50,48,40,-1,50,40,51,-1,51,40,42,-1,52,53,54,-1,54,53,55,-1,53,56,55,-1,55,56,57,-1,58,59,60,-1,58,60,61,-1,61,60,62,-1,61,62,63,-1,63,62,64,-1,63,64,65,-1,65,64,66,-1,65,66,67,-1,67,66,68,-1,67,68,69,-1,69,68,57,-1,69,57,56,-1,58,70,59,-1,59,70,71,-1,70,72,71,-1,71,72,73,-1,67,74,65,-1,65,74,75,-1,65,75,63,-1,63,75,76,-1,63,76,61,-1,53,52,56,-1,56,52,74,-1,56,74,69,-1,69,74,67,-1,72,70,76,-1,76,70,58,-1,76,58,61,-1,37,76,39,-1,39,76,75,-1,77,78,79,-1,80,81,82,-1,83,84,39,-1,75,74,85,-1,86,87,88,-1,88,87,77,-1,89,90,91,-1,92,93,94,-1,94,93,95,-1,96,97,98,-1,99,75,100,-1,100,75,79,-1,99,90,75,-1,75,90,89,-1,75,89,39,-1,39,89,94,-1,39,94,83,-1,83,94,95,-1,83,95,101,-1,102,103,104,-1,104,103,99,-1,104,99,105,-1,105,99,100,-1,91,106,89,-1,89,106,107,-1,89,107,108,-1,96,75,109,-1,109,75,85,-1,109,85,110,-1,77,79,88,-1,88,79,75,-1,88,75,111,-1,112,113,114,-1,115,116,117,-1,117,116,118,-1,117,118,119,-1,119,118,84,-1,120,121,39,-1,84,118,39,-1,39,118,122,-1,39,122,120,-1,98,80,96,-1,96,80,82,-1,96,82,75,-1,75,82,123,-1,75,123,111,-1,111,123,112,-1,111,112,124,-1,124,112,114,-1,125,126,127,-1,127,126,120,-1,127,120,128,-1,128,120,122,-1,121,129,39,-1,39,129,130,-1,39,130,38,-1,131,132,133,-1,133,132,134,-1,133,134,135,-1,136,137,138,-1,138,137,139,-1,138,139,140,-1,138,135,136,-1,136,135,134,-1,141,142,143,-1,143,142,144,-1,143,144,145,-1,146,147,148,-1,148,147,149,-1,148,149,150,-1,145,150,143,-1,143,150,149,-1,151,152,139,-1,139,152,140,-1,153,154,151,-1,151,154,152,-1,154,153,148,-1,148,153,146,-1,155,156,133,-1,133,156,131,-1,157,158,155,-1,155,158,156,-1,144,142,157,-1,157,142,158,-1,
        ]
    }
}
Shape{
    appearance Appearance {
        material  Material 	{
            diffuseColor 0.25098039215686274 0.25098039215686274 0.25098039215686274
            specularColor 0.12549019607843137 0.12549019607843137 0.12549019607843137
            ambientIntensity 0.251
            transparency 0.0
            shininess 0.5
        }
    }
    geometry IndexedFaceSet {
        ccw TRUE
        solid FALSE
        coord DEF co Coordinate {
            point [
                -0.2151 -0.2869 0.0118, -0.2111 -0.2999 0.0118, -0.2546 -0.2869 0.0118, -0.2599 -0.2999 0.0118, -0.2327 -0.2376 0.0118, -0.2272 -0.2149 0.0118, -0.1825 -0.333 0.0118, -0.1998 -0.333 0.0118, -0.2338 -0.2335 0.0118, -0.2346 -0.2293 0.0118, -0.243 -0.2149 0.0118, -0.235 -0.2293 0.0118, -0.2357 -0.2335 0.0118, -0.2368 -0.2376 0.0118, -0.2891 -0.333 0.0118, -0.2718 -0.333 0.0118, -0.2599 -0.2999 0.0079, -0.2718 -0.333 0.0079, -0.2111 -0.2999 0.0079, -0.1998 -0.333 0.0079, -0.1825 -0.333 0.0079, -0.2272 -0.2149 0.0079, -0.243 -0.2149 0.0079, -0.2891 -0.333 0.0079, -0.2368 -0.2376 0.0079, -0.2357 -0.2335 0.0079, -0.235 -0.2293 0.0079, -0.2346 -0.2293 0.0079, -0.2338 -0.2335 0.0079, -0.2327 -0.2376 0.0079, -0.2151 -0.2869 0.0079, -0.2546 -0.2869 0.0079, -0.1121 -0.2149 0.0118, -0.1121 -0.2149 0.0079, -0.0788 -0.2149 0.0118, -0.0788 -0.2149 0.0079, -0.1292 -0.2168 0.0118, -0.1292 -0.2168 0.0079, -0.143 -0.2216 0.0118, -0.143 -0.2216 0.0079, -0.1559 -0.2302 0.0118, -0.1559 -0.2302 0.0079, -0.156 -0.2303 0.0118, -0.156 -0.2303 0.0079, -0.1644 -0.2396 0.0118, -0.1644 -0.2396 0.0079, -0.1698 -0.2497 0.0118, -0.1698 -0.2497 0.0079, -0.173 -0.2614 0.0118, -0.173 -0.2614 0.0079, -0.1739 -0.2725 0.0118, -0.1739 -0.2725 0.0079, -0.1722 -0.2883 0.0118, -0.1722 -0.2883 0.0079, -0.168 -0.3007 0.0118, -0.168 -0.3007 0.0079, -0.1612 -0.3112 0.0118, -0.1612 -0.3112 0.0079, -0.1515 -0.3205 0.0118, -0.1515 -0.3205 0.0079, -0.1391 -0.3277 0.0118, -0.1391 -0.3277 0.0079, -0.1255 -0.3318 0.0118, -0.1255 -0.3318 0.0079, -0.1109 -0.333 0.0118, -0.1109 -0.333 0.0079, -0.0788 -0.333 0.0118, -0.0788 -0.333 0.0079, -0.1502 -0.2445 0.0118, -0.1444 -0.2384 0.0118, -0.1358 -0.2328 0.0118, -0.1261 -0.2294 0.0118, -0.1121 -0.2279 0.0118, -0.0947 -0.2279 0.0118, -0.0947 -0.3201 0.0118, -0.1114 -0.3201 0.0118, -0.1239 -0.3189 0.0118, -0.1338 -0.3158 0.0118, -0.1419 -0.311 0.0118, -0.1485 -0.3045 0.0118, -0.1535 -0.2963 0.0118, -0.1569 -0.2852 0.0118, -0.158 -0.2728 0.0118, -0.157 -0.2611 0.0118, -0.1543 -0.2517 0.0118, -0.1114 -0.3201 0.0079, -0.0947 -0.3201 0.0079, -0.1239 -0.3189 0.0079, -0.1338 -0.3158 0.0079, -0.1419 -0.311 0.0079, -0.1485 -0.3045 0.0079, -0.1535 -0.2963 0.0079, -0.1569 -0.2852 0.0079, -0.158 -0.2728 0.0079, -0.157 -0.2611 0.0079, -0.1543 -0.2517 0.0079, -0.1502 -0.2445 0.0079, -0.1444 -0.2384 0.0079, -0.1358 -0.2328 0.0079, -0.1261 -0.2294 0.0079, -0.1121 -0.2279 0.0079, -0.0947 -0.2279 0.0079, 0.0076 -0.2149 0.0118, 0.0076 -0.2149 0.0079, 0.0076 -0.333 0.0118, 0.0076 -0.333 0.0079, -0.0529 -0.2149 0.0118, -0.0529 -0.2149 0.0079, -0.0529 -0.2279 0.0118, -0.0529 -0.2279 0.0079, -0.0082 -0.2279 0.0118, -0.0082 -0.2279 0.0079, -0.0082 -0.2668 0.0118, -0.0082 -0.2668 0.0079, -0.05 -0.2668 0.0118, -0.05 -0.2668 0.0079, -0.05 -0.2797 0.0118, -0.05 -0.2797 0.0079, -0.0082 -0.2797 0.0118, -0.0082 -0.2797 0.0079, -0.0082 -0.3201 0.0118, -0.0082 -0.3201 0.0079, -0.0558 -0.3201 0.0118, -0.0558 -0.3201 0.0079, -0.0558 -0.333 0.0118, -0.0558 -0.333 0.0079, 0.0701 -0.3338 0.0079, 0.0632 -0.3345 0.0079, 0.0632 -0.3345 0.0118, 0.0777 -0.333 0.0079, 0.0777 -0.333 0.0118, 0.0892 -0.329 0.0118, 0.0892 -0.329 0.0079, 0.0987 -0.323 0.0118, 0.0987 -0.323 0.0079, 0.1075 -0.3136 0.0118, 0.1075 -0.3136 0.0079, 0.1138 -0.3024 0.0118, 0.1138 -0.3024 0.0079, 0.1174 -0.2899 0.0118, 0.1174 -0.2899 0.0079, 0.1185 -0.2762 0.0118, 0.1185 -0.2762 0.0079, 0.1168 -0.2594 0.0118, 0.1168 -0.2594 0.0079, 0.1123 -0.246 0.0118, 0.1123 -0.246 0.0079, 0.1054 -0.235 0.0118, 0.1054 -0.235 0.0079, 0.0947 -0.2247 0.0118, 0.0947 -0.2247 0.0079, 0.0835 -0.2183 0.0118, 0.0835 -0.2183 0.0079, 0.0703 -0.2145 0.0118, 0.0703 -0.2145 0.0079, 0.0585 -0.2135 0.0118, 0.0585 -0.2135 0.0079, 0.0443 -0.2145 0.0118, 0.0443 -0.2145 0.0079, 0.0307 -0.2182 0.0118, 0.0307 -0.2182 0.0079, 0.0307 -0.234 0.0118, 0.0307 -0.234 0.0079, 0.044 -0.2283 0.0118, 0.044 -0.2283 0.0079, 0.0583 -0.2265 0.0118, 0.0583 -0.2265 0.0079, 0.0699 -0.2278 0.0118, 0.0699 -0.2278 0.0079, 0.0788 -0.2309 0.0118, 0.0788 -0.2309 0.0079, 0.087 -0.2364 0.0118, 0.087 -0.2364 0.0079, 0.0941 -0.2443 0.0118, 0.0941 -0.2443 0.0079, 0.099 -0.2534 0.0118, 0.099 -0.2534 0.0079, 0.1021 -0.2661 0.0118, 0.1021 -0.2661 0.0079, 0.1027 -0.2752 0.0118, 0.1027 -0.2752 0.0079, 0.1015 -0.288 0.0118, 0.1015 -0.288 0.0079, 0.0983 -0.2982 0.0118, 0.0983 -0.2982 0.0079, 0.0934 -0.3064 0.0118, 0.0934 -0.3064 0.0079, 0.0878 -0.3122 0.0118, 0.0878 -0.3122 0.0079, 0.0806 -0.3171 0.0118, 0.0806 -0.3171 0.0079, 0.072 -0.3203 0.0118, 0.072 -0.3203 0.0079, 0.061 -0.3215 0.0118, 0.061 -0.3215 0.0079, 0.0453 -0.3198 0.0118, 0.0453 -0.3198 0.0079, 0.0328 -0.3151 0.0118, 0.0328 -0.3151 0.0079, 0.0307 -0.314 0.0118, 0.0307 -0.314 0.0079, 0.0307 -0.3269 0.0118, 0.0307 -0.3269 0.0079, 0.0432 -0.3321 0.0079, 0.0432 -0.3321 0.0118, 0.0552 -0.3338 0.0079, 0.0599 -0.3344 0.0118, 0.0599 -0.3344 0.0079, 0.1891 -0.2149 0.0118, 0.1891 -0.2149 0.0079, 0.1891 -0.333 0.0118, 0.1891 -0.333 0.0079, 0.1733 -0.2149 0.0118, 0.1733 -0.2149 0.0079, 0.1733 -0.3201 0.0118, 0.1733 -0.3201 0.0079, 0.1286 -0.3201 0.0118, 0.1286 -0.3201 0.0079, 0.1286 -0.333 0.0118, 0.1286 -0.333 0.0079
            ]
        }
        coordIndex [
            0,1,2,-1,2,1,3,-1,4,5,0,-1,0,5,6,-1,0,6,1,-1,1,6,7,-1,4,8,5,-1,5,8,9,-1,5,9,10,-1,10,9,11,-1,10,11,12,-1,12,13,10,-1,10,13,2,-1,10,2,14,-1,14,2,3,-1,14,3,15,-1,3,16,15,-1,15,16,17,-1,1,18,3,-1,3,18,16,-1,7,19,1,-1,1,19,18,-1,6,20,7,-1,7,20,19,-1,5,21,6,-1,6,21,20,-1,10,22,5,-1,5,22,21,-1,14,23,10,-1,10,23,22,-1,14,15,23,-1,23,15,17,-1,24,13,12,-1,24,12,25,-1,25,12,11,-1,25,11,26,-1,9,27,11,-1,11,27,26,-1,27,9,8,-1,27,8,28,-1,28,8,4,-1,28,4,29,-1,0,30,4,-1,4,30,29,-1,2,31,0,-1,0,31,30,-1,24,31,13,-1,13,31,2,-1,32,33,34,-1,34,33,35,-1,33,32,36,-1,33,36,37,-1,37,36,38,-1,37,38,39,-1,39,38,40,-1,39,40,41,-1,41,40,42,-1,41,42,43,-1,43,42,44,-1,43,44,45,-1,45,44,46,-1,45,46,47,-1,47,46,48,-1,47,48,49,-1,49,48,50,-1,49,50,51,-1,51,50,52,-1,51,52,53,-1,53,52,54,-1,53,54,55,-1,55,54,56,-1,55,56,57,-1,57,56,58,-1,57,58,59,-1,59,58,60,-1,59,60,61,-1,61,60,62,-1,61,62,63,-1,63,62,64,-1,63,64,65,-1,66,67,64,-1,64,67,65,-1,66,34,67,-1,67,34,35,-1,46,44,68,-1,68,44,42,-1,68,42,69,-1,69,42,40,-1,69,40,70,-1,70,40,38,-1,70,38,71,-1,71,38,36,-1,71,36,72,-1,72,36,32,-1,72,32,73,-1,73,32,34,-1,73,34,74,-1,74,34,66,-1,74,66,75,-1,75,66,64,-1,75,64,76,-1,76,64,62,-1,76,62,77,-1,77,62,60,-1,77,60,78,-1,78,60,58,-1,78,58,79,-1,79,58,56,-1,79,56,80,-1,80,56,54,-1,80,54,81,-1,81,54,52,-1,81,52,82,-1,82,52,50,-1,82,50,83,-1,83,50,48,-1,83,48,84,-1,84,48,46,-1,84,46,68,-1,75,85,74,-1,74,85,86,-1,85,75,76,-1,85,76,87,-1,87,76,77,-1,87,77,88,-1,88,77,78,-1,88,78,89,-1,89,78,79,-1,89,79,90,-1,90,79,80,-1,90,80,91,-1,91,80,81,-1,91,81,92,-1,92,81,82,-1,92,82,93,-1,93,82,83,-1,93,83,94,-1,94,83,84,-1,94,84,95,-1,95,84,68,-1,95,68,96,-1,96,68,69,-1,96,69,97,-1,97,69,70,-1,97,70,98,-1,98,70,71,-1,98,71,99,-1,99,71,72,-1,99,72,100,-1,73,101,72,-1,72,101,100,-1,86,101,74,-1,74,101,73,-1,102,103,104,-1,104,103,105,-1,106,107,102,-1,102,107,103,-1,108,109,106,-1,106,109,107,-1,110,111,108,-1,108,111,109,-1,112,113,110,-1,110,113,111,-1,114,115,112,-1,112,115,113,-1,116,117,114,-1,114,117,115,-1,118,119,116,-1,116,119,117,-1,120,121,118,-1,118,121,119,-1,122,123,120,-1,120,123,121,-1,124,125,122,-1,122,125,123,-1,124,104,125,-1,125,104,105,-1,104,124,122,-1,122,120,104,-1,104,120,118,-1,104,118,102,-1,108,106,110,-1,110,106,102,-1,110,102,112,-1,112,102,118,-1,112,118,114,-1,114,118,116,-1,126,127,128,-1,126,128,129,-1,128,130,129,-1,129,130,131,-1,129,131,132,-1,132,131,133,-1,132,133,134,-1,134,133,135,-1,134,135,136,-1,136,135,137,-1,136,137,138,-1,138,137,139,-1,138,139,140,-1,140,139,141,-1,140,141,142,-1,142,141,143,-1,142,143,144,-1,144,143,145,-1,144,145,146,-1,146,145,147,-1,146,147,148,-1,148,147,149,-1,148,149,150,-1,150,149,151,-1,150,151,152,-1,152,151,153,-1,152,153,154,-1,154,153,155,-1,154,155,156,-1,156,155,157,-1,156,157,158,-1,158,157,159,-1,158,159,160,-1,161,162,159,-1,159,162,160,-1,162,161,163,-1,162,163,164,-1,164,163,165,-1,164,165,166,-1,166,165,167,-1,166,167,168,-1,168,167,169,-1,168,169,170,-1,170,169,171,-1,170,171,172,-1,172,171,173,-1,172,173,174,-1,174,173,175,-1,174,175,176,-1,176,175,177,-1,176,177,178,-1,178,177,179,-1,178,179,180,-1,180,179,181,-1,180,181,182,-1,182,181,183,-1,182,183,184,-1,184,183,185,-1,184,185,186,-1,186,185,187,-1,186,187,188,-1,188,187,189,-1,188,189,190,-1,190,189,191,-1,190,191,192,-1,192,191,193,-1,192,193,194,-1,194,193,195,-1,194,195,196,-1,196,195,197,-1,196,197,198,-1,198,197,199,-1,198,199,200,-1,201,202,199,-1,199,202,200,-1,203,202,204,-1,204,202,201,-1,203,204,205,-1,205,204,206,-1,205,206,207,-1,207,206,128,-1,207,128,127,-1,191,128,193,-1,193,128,206,-1,193,206,195,-1,195,206,204,-1,195,204,197,-1,197,204,201,-1,197,201,199,-1,161,159,163,-1,163,159,157,-1,163,157,165,-1,165,157,155,-1,165,155,167,-1,167,155,153,-1,167,153,169,-1,169,153,151,-1,169,151,171,-1,171,151,149,-1,171,149,173,-1,173,149,147,-1,173,147,175,-1,175,147,145,-1,175,145,177,-1,177,145,143,-1,177,143,179,-1,179,143,141,-1,179,141,181,-1,181,141,139,-1,181,139,183,-1,183,139,137,-1,183,137,185,-1,185,137,135,-1,185,135,187,-1,187,135,133,-1,187,133,189,-1,189,133,131,-1,189,131,191,-1,191,131,130,-1,191,130,128,-1,208,209,210,-1,210,209,211,-1,212,213,208,-1,208,213,209,-1,214,215,212,-1,212,215,213,-1,216,217,214,-1,214,217,215,-1,218,219,216,-1,216,219,217,-1,218,210,219,-1,219,210,211,-1,212,208,214,-1,214,208,210,-1,214,210,216,-1,216,210,218,-1,
        ]
    }
}
Shape{
    appearance Appearance {
        material  Material 	{
            diffuseColor 0.996078431372549 0.8705882352941177 0.7607843137254902
            specularColor 0.4980392156862745 0.43529411764705883 0.3803921568627451
            ambientIntensity 0.8956
            transparency 0.0
            shininess 0.5
        }
    }
    geometry IndexedFaceSet {
        ccw TRUE
        solid FALSE
        coord DEF co Coordinate {
            point [
                -0.2151 -0.2869 0.0079, -0.2546 -0.2869 0.0079, -0.2327 -0.2376 0.0079, -0.2368 -0.2376 0.0079, -0.2338 -0.2335 0.0079, -0.2357 -0.2335 0.0079, -0.2346 -0.2293 0.0079, -0.235 -0.2293 0.0079, -0.0947 -0.2279 0.0079, -0.0947 -0.3201 0.0079, -0.1121 -0.2279 0.0079, -0.1114 -0.3201 0.0079, -0.1239 -0.3189 0.0079, -0.158 -0.2728 0.0079, -0.157 -0.2611 0.0079, -0.1543 -0.2517 0.0079, -0.1261 -0.2294 0.0079, -0.1338 -0.3158 0.0079, -0.1419 -0.311 0.0079, -0.1485 -0.3045 0.0079, -0.1535 -0.2963 0.0079, -0.1569 -0.2852 0.0079, -0.1502 -0.2445 0.0079, -0.1444 -0.2384 0.0079, -0.1358 -0.2328 0.0079
            ]
        }
        coordIndex [
            0,1,2,-1,2,1,3,-1,2,3,4,-1,4,3,5,-1,4,5,6,-1,6,5,7,-1,8,9,10,-1,10,9,11,-1,10,11,12,-1,13,14,10,-1,10,14,15,-1,10,15,16,-1,12,17,10,-1,10,17,18,-1,10,18,19,-1,19,20,10,-1,10,20,21,-1,10,21,13,-1,22,23,15,-1,15,23,24,-1,15,24,16,-1,
        ]
    }
}
Shape{
    appearance Appearance {
        material  Material 	{
            diffuseColor 0.7529411764705882 0.7529411764705882 0.7529411764705882
            specularColor 0.3764705882352941 0.3764705882352941 0.3764705882352941
            ambientIntensity 0.7529
            transparency 0.0
            shininess 0.5
        }
    }
    geometry IndexedFaceSet {
        ccw TRUE
        solid FALSE
        coord DEF co Coordinate {
            point [
                2.0669 -1.0508 0.2496, 2.0669 -1.0508 0.4213, 1.9685 -1.0508 0.2496, 1.9685 -1.0508 0.4213, 2.0669 -1.0508 0.1708, 2.0669 -1.0508 0.1814, 1.9685 -1.0508 0.1708, 1.9685 -1.0508 0.1814, 2.0669 -1.0114 0.4606, 1.9685 -1.0114 0.4606, 1.9685 -1.0216 0.4593, 2.0669 -1.0216 0.4593, 1.9685 -1.0311 0.4554, 2.0669 -1.0311 0.4554, 1.9685 -1.0393 0.4491, 2.0669 -1.0393 0.4491, 1.9685 -1.0455 0.4409, 2.0669 -1.0455 0.4409, 1.9685 -1.0494 0.4314, 2.0669 -1.0494 0.4314, 1.9685 -1.0508 0.1026, 1.9685 -1.0508 0.0394, 2.0669 -1.0508 0.1026, 2.0669 -1.0508 0.0394, 1.9685 -1.0494 0.0292, 2.0669 -1.0494 0.0292, 1.9685 -1.0455 0.0197, 2.0669 -1.0455 0.0197, 1.9685 -1.0393 0.0115, 2.0669 -1.0393 0.0115, 1.9685 -1.0311 0.0053, 2.0669 -1.0311 0.0053, 1.9685 -1.0216 0.0013, 2.0669 -1.0216 0.0013, 1.9685 -1.0114 0.0, 2.0669 -1.0114 0.0, 2.0669 -0.4996 0.0, 1.9685 -0.4996 0.0, 1.9685 -0.4894 0.0013, 2.0669 -0.4894 0.0013, 1.9685 -0.4799 0.0053, 2.0669 -0.4799 0.0053, 1.9685 -0.4718 0.0115, 2.0669 -0.4718 0.0115, 1.9685 -0.4655 0.0197, 2.0669 -0.4655 0.0197, 1.9685 -0.4616 0.0292, 2.0669 -0.4616 0.0292, 1.9685 -0.4602 0.0394, 2.0669 -0.4602 0.0394, 2.0669 -0.4602 0.4213, 1.9685 -0.4602 0.4213, 1.9685 -0.4616 0.4314, 2.0669 -0.4616 0.4314, 1.9685 -0.4655 0.4409, 2.0669 -0.4655 0.4409, 1.9685 -0.4718 0.4491, 2.0669 -0.4718 0.4491, 1.9685 -0.4799 0.4554, 2.0669 -0.4799 0.4554, 1.9685 -0.4894 0.4593, 2.0669 -0.4894 0.4593, 1.9685 -0.4996 0.4606, 2.0669 -0.4996 0.4606, 2.0669 -1.0312 0.1344, 2.0669 -1.0409 0.1538, 2.0669 -1.0373 0.1511, 2.0669 -1.0409 0.1984, 2.0669 -1.0343 0.1476, 2.0669 -1.0323 0.1435, 2.0669 -1.0312 0.139, 2.0669 -1.0373 0.1224, 2.0669 -1.0409 0.1197, 2.0669 -1.0312 0.2178, 2.0669 -1.0312 0.2132, 2.0669 -1.0343 0.1259, 2.0669 -1.0323 0.13, 2.0669 -1.0409 0.2325, 2.0669 -1.0323 0.2222, 2.0669 -1.0323 0.2087, 2.0669 -1.0343 0.2047, 2.0669 -1.0373 0.2012, 2.0669 -1.0504 0.2455, 2.0669 -1.0491 0.2416, 2.0669 -1.047 0.238, 2.0669 -1.0491 0.1106, 2.0669 -1.0504 0.1067, 2.0669 -1.047 0.1142, 2.0669 -1.0443 0.1173, 2.0669 -1.0443 0.2349, 2.0669 -1.0343 0.2263, 2.0669 -1.0373 0.2298, 2.0669 -1.0491 0.1894, 2.0669 -1.0504 0.1855, 2.0669 -1.047 0.1929, 2.0669 -1.0443 0.196, 2.0669 -1.0491 0.1628, 2.0669 -1.047 0.1593, 2.0669 -1.0504 0.1667, 2.0669 -1.0443 0.1562, 1.9685 -1.0409 0.1197, 1.9685 -1.0373 0.1224, 1.9685 -1.0343 0.2047, 1.9685 -1.0323 0.2087, 1.9685 -1.0323 0.1435, 1.9685 -1.0312 0.139, 1.9685 -1.0312 0.1344, 1.9685 -1.0373 0.2012, 1.9685 -1.0491 0.1106, 1.9685 -1.047 0.1142, 1.9685 -1.0504 0.1067, 1.9685 -1.0443 0.1173, 1.9685 -1.0343 0.1259, 1.9685 -1.0323 0.13, 1.9685 -1.0343 0.1476, 1.9685 -1.0373 0.1511, 1.9685 -1.0409 0.1538, 1.9685 -1.0409 0.1984, 1.9685 -1.0323 0.2222, 1.9685 -1.0409 0.2325, 1.9685 -1.0373 0.2298, 1.9685 -1.0343 0.2263, 1.9685 -1.0312 0.2132, 1.9685 -1.0312 0.2178, 1.9685 -1.0443 0.2349, 1.9685 -1.047 0.238, 1.9685 -1.0491 0.2416, 1.9685 -1.0504 0.2455, 1.9685 -1.0491 0.1628, 1.9685 -1.0504 0.1667, 1.9685 -1.047 0.1593, 1.9685 -1.0443 0.1562, 1.9685 -1.0491 0.1894, 1.9685 -1.047 0.1929, 1.9685 -1.0504 0.1855, 1.9685 -1.0443 0.196
            ]
        }
        coordIndex [
            0,1,2,-1,2,1,3,-1,4,5,6,-1,6,5,7,-1,8,9,10,-1,8,10,11,-1,11,10,12,-1,11,12,13,-1,13,12,14,-1,13,14,15,-1,15,14,16,-1,15,16,17,-1,17,16,18,-1,17,18,19,-1,19,18,3,-1,19,3,1,-1,20,21,22,-1,22,21,23,-1,23,21,24,-1,23,24,25,-1,25,24,26,-1,25,26,27,-1,27,26,28,-1,27,28,29,-1,29,28,30,-1,29,30,31,-1,31,30,32,-1,31,32,33,-1,33,32,34,-1,33,34,35,-1,36,35,37,-1,37,35,34,-1,36,37,38,-1,36,38,39,-1,39,38,40,-1,39,40,41,-1,41,40,42,-1,41,42,43,-1,43,42,44,-1,43,44,45,-1,45,44,46,-1,45,46,47,-1,47,46,48,-1,47,48,49,-1,50,49,51,-1,51,49,48,-1,50,51,52,-1,50,52,53,-1,53,52,54,-1,53,54,55,-1,55,54,56,-1,55,56,57,-1,57,56,58,-1,57,58,59,-1,59,58,60,-1,59,60,61,-1,61,60,62,-1,61,62,63,-1,8,63,9,-1,9,63,62,-1,47,49,64,-1,65,66,67,-1,66,68,50,-1,50,68,69,-1,50,69,49,-1,49,69,70,-1,49,70,64,-1,35,71,72,-1,50,73,74,-1,71,35,75,-1,75,35,36,-1,75,36,76,-1,1,0,77,-1,55,57,78,-1,74,79,50,-1,50,79,80,-1,50,80,66,-1,66,80,81,-1,66,81,67,-1,82,83,84,-1,73,50,78,-1,78,50,53,-1,78,53,55,-1,76,36,64,-1,64,36,39,-1,64,39,41,-1,85,86,87,-1,87,86,22,-1,87,22,88,-1,23,35,22,-1,22,35,72,-1,22,72,88,-1,82,84,0,-1,0,84,89,-1,0,89,77,-1,57,59,78,-1,78,59,61,-1,78,61,90,-1,90,61,63,-1,90,63,91,-1,41,43,64,-1,64,43,45,-1,64,45,47,-1,17,19,15,-1,15,19,1,-1,15,1,13,-1,23,25,35,-1,35,25,27,-1,35,27,33,-1,33,27,29,-1,33,29,31,-1,91,63,77,-1,77,63,8,-1,77,8,1,-1,1,8,11,-1,1,11,13,-1,92,93,94,-1,94,93,5,-1,94,5,95,-1,96,97,98,-1,98,97,4,-1,97,99,4,-1,4,99,65,-1,4,65,5,-1,5,65,67,-1,5,67,95,-1,100,101,34,-1,34,101,37,-1,102,103,51,-1,104,51,105,-1,105,51,48,-1,105,48,106,-1,106,48,46,-1,106,46,44,-1,102,51,107,-1,108,109,110,-1,110,109,20,-1,34,21,100,-1,100,21,20,-1,100,20,111,-1,111,20,109,-1,101,112,37,-1,37,112,113,-1,37,113,38,-1,38,113,106,-1,44,42,106,-1,106,42,40,-1,106,40,38,-1,104,114,51,-1,51,114,115,-1,51,115,107,-1,107,115,116,-1,107,116,117,-1,58,56,118,-1,119,9,120,-1,120,9,62,-1,120,62,121,-1,30,28,32,-1,32,28,26,-1,32,26,34,-1,34,26,24,-1,34,24,21,-1,103,122,51,-1,51,122,123,-1,51,123,52,-1,52,123,118,-1,52,118,54,-1,54,118,56,-1,121,62,118,-1,118,62,60,-1,118,60,58,-1,2,119,124,-1,124,125,2,-1,2,125,126,-1,2,126,127,-1,119,2,9,-1,9,2,3,-1,9,3,18,-1,128,129,130,-1,130,129,6,-1,130,6,131,-1,18,16,14,-1,132,133,134,-1,134,133,7,-1,133,135,7,-1,7,135,117,-1,7,117,6,-1,6,117,116,-1,6,116,131,-1,14,12,18,-1,18,12,10,-1,18,10,9,-1,100,72,101,-1,101,72,71,-1,101,71,112,-1,112,71,75,-1,112,75,113,-1,113,75,76,-1,113,76,106,-1,106,76,64,-1,106,64,105,-1,105,64,70,-1,105,70,104,-1,104,70,69,-1,104,69,114,-1,114,69,68,-1,114,68,115,-1,115,68,66,-1,115,66,116,-1,116,66,65,-1,117,67,107,-1,107,67,81,-1,107,81,102,-1,102,81,80,-1,102,80,103,-1,103,80,79,-1,103,79,122,-1,122,79,74,-1,122,74,123,-1,123,74,73,-1,123,73,118,-1,118,73,78,-1,118,78,121,-1,121,78,90,-1,121,90,120,-1,120,90,91,-1,120,91,119,-1,119,91,77,-1,20,22,86,-1,20,86,110,-1,110,86,85,-1,110,85,108,-1,108,85,87,-1,108,87,109,-1,109,87,88,-1,109,88,111,-1,111,88,72,-1,111,72,100,-1,116,65,99,-1,116,99,131,-1,131,99,97,-1,131,97,130,-1,130,97,96,-1,130,96,128,-1,128,96,98,-1,128,98,129,-1,129,98,4,-1,129,4,6,-1,7,5,93,-1,7,93,134,-1,134,93,92,-1,134,92,132,-1,132,92,94,-1,132,94,133,-1,133,94,95,-1,133,95,135,-1,135,95,67,-1,135,67,117,-1,119,77,89,-1,119,89,124,-1,124,89,84,-1,124,84,125,-1,125,84,83,-1,125,83,126,-1,126,83,82,-1,126,82,127,-1,127,82,0,-1,127,0,2,-1,
        ]
    }
}
Shape{
    appearance Appearance {
        material  Material 	{
            diffuseColor 0.996078431372549 0.8705882352941177 0.7607843137254902
            specularColor 0.4980392156862745 0.43529411764705883 0.3803921568627451
            ambientIntensity 0.8956
            transparency 0.0
            shininess 0.5
        }
    }
    geometry IndexedFaceSet {
        ccw TRUE
        solid FALSE
        coord DEF co Coordinate {
            point [
                -2.0669 -1.0508 0.4213, -2.0669 -1.0508 0.2496, -1.9685 -1.0508 0.4213, -1.9685 -1.0508 0.2496
            ]
        }
        coordIndex [
            0,1,2,-1,2,1,3,-1,
        ]
    }
}
Shape{
    appearance Appearance {
        material  Material 	{
            diffuseColor 0.7529411764705882 0.7529411764705882 0.7529411764705882
            specularColor 0.3764705882352941 0.3764705882352941 0.3764705882352941
            ambientIntensity 0.7529
            transparency 0.0
            shininess 0.5
        }
    }
    geometry IndexedFaceSet {
        ccw TRUE
        solid FALSE
        coord DEF co Coordinate {
            point [
                -2.0669 -1.0508 0.1814, -2.0669 -1.0508 0.1708, -1.9685 -1.0508 0.1814, -1.9685 -1.0508 0.1708, -2.0669 -1.0508 0.4213, -1.9685 -1.0508 0.4213, -1.9685 -1.0494 0.4314, -2.0669 -1.0494 0.4314, -1.9685 -1.0455 0.4409, -2.0669 -1.0455 0.4409, -1.9685 -1.0393 0.4491, -2.0669 -1.0393 0.4491, -1.9685 -1.0311 0.4554, -2.0669 -1.0311 0.4554, -1.9685 -1.0216 0.4593, -2.0669 -1.0216 0.4593, -1.9685 -1.0114 0.4606, -2.0669 -1.0114 0.4606, -1.9685 -1.0508 0.0394, -1.9685 -1.0508 0.1026, -2.0669 -1.0508 0.0394, -2.0669 -1.0508 0.1026, -2.0669 -1.0114 0.0, -1.9685 -1.0114 0.0, -1.9685 -1.0216 0.0013, -2.0669 -1.0216 0.0013, -1.9685 -1.0311 0.0053, -2.0669 -1.0311 0.0053, -1.9685 -1.0393 0.0115, -2.0669 -1.0393 0.0115, -1.9685 -1.0455 0.0197, -2.0669 -1.0455 0.0197, -1.9685 -1.0494 0.0292, -2.0669 -1.0494 0.0292, -2.0669 -0.4996 0.0, -1.9685 -0.4996 0.0, -2.0669 -0.4602 0.0394, -1.9685 -0.4602 0.0394, -1.9685 -0.4616 0.0292, -2.0669 -0.4616 0.0292, -1.9685 -0.4655 0.0197, -2.0669 -0.4655 0.0197, -1.9685 -0.4718 0.0115, -2.0669 -0.4718 0.0115, -1.9685 -0.4799 0.0053, -2.0669 -0.4799 0.0053, -1.9685 -0.4894 0.0013, -2.0669 -0.4894 0.0013, -2.0669 -0.4602 0.4213, -1.9685 -0.4602 0.4213, -2.0669 -0.4996 0.4606, -1.9685 -0.4996 0.4606, -1.9685 -0.4894 0.4593, -2.0669 -0.4894 0.4593, -1.9685 -0.4799 0.4554, -2.0669 -0.4799 0.4554, -1.9685 -0.4718 0.4491, -2.0669 -0.4718 0.4491, -1.9685 -0.4655 0.4409, -2.0669 -0.4655 0.4409, -1.9685 -0.4616 0.4314, -2.0669 -0.4616 0.4314, -2.0669 -1.0409 0.1197, -2.0669 -1.0373 0.1224, -2.0669 -1.0343 0.2047, -2.0669 -1.0323 0.2087, -2.0669 -1.0373 0.2012, -2.0669 -1.0491 0.1106, -2.0669 -1.047 0.1142, -2.0669 -1.0504 0.1067, -2.0669 -1.0443 0.1173, -2.0669 -1.0343 0.1259, -2.0669 -1.0323 0.13, -2.0669 -1.0312 0.1344, -2.0669 -1.0343 0.1476, -2.0669 -1.0323 0.1435, -2.0669 -1.0312 0.139, -2.0669 -1.0373 0.1511, -2.0669 -1.0409 0.1538, -2.0669 -1.0409 0.1984, -2.0669 -1.0323 0.2222, -2.0669 -1.0312 0.2178, -2.0669 -1.0312 0.2132, -2.0669 -1.0409 0.2325, -2.0669 -1.0373 0.2298, -2.0669 -1.0343 0.2263, -2.0669 -1.0508 0.2496, -2.0669 -1.0443 0.2349, -2.0669 -1.047 0.238, -2.0669 -1.0491 0.2416, -2.0669 -1.0504 0.2455, -2.0669 -1.0491 0.1628, -2.0669 -1.0504 0.1667, -2.0669 -1.047 0.1593, -2.0669 -1.0443 0.1562, -2.0669 -1.0491 0.1894, -2.0669 -1.047 0.1929, -2.0669 -1.0504 0.1855, -2.0669 -1.0443 0.196, -1.9685 -1.0323 0.1435, -1.9685 -1.0312 0.139, -1.9685 -1.0312 0.1344, -1.9685 -1.0373 0.1224, -1.9685 -1.0409 0.1197, -1.9685 -1.0323 0.2222, -1.9685 -1.0312 0.2178, -1.9685 -1.0312 0.2132, -1.9685 -1.0323 0.2087, -1.9685 -1.0343 0.2047, -1.9685 -1.0373 0.2012, -1.9685 -1.0343 0.1476, -1.9685 -1.0343 0.1259, -1.9685 -1.0323 0.13, -1.9685 -1.0508 0.2496, -1.9685 -1.0409 0.2325, -1.9685 -1.0504 0.2455, -1.9685 -1.0491 0.2416, -1.9685 -1.047 0.238, -1.9685 -1.0409 0.1984, -1.9685 -1.0409 0.1538, -1.9685 -1.0373 0.1511, -1.9685 -1.0491 0.1106, -1.9685 -1.0504 0.1067, -1.9685 -1.047 0.1142, -1.9685 -1.0443 0.1173, -1.9685 -1.0443 0.2349, -1.9685 -1.0343 0.2263, -1.9685 -1.0373 0.2298, -1.9685 -1.0491 0.1894, -1.9685 -1.0504 0.1855, -1.9685 -1.047 0.1929, -1.9685 -1.0443 0.196, -1.9685 -1.0491 0.1628, -1.9685 -1.047 0.1593, -1.9685 -1.0504 0.1667, -1.9685 -1.0443 0.1562
            ]
        }
        coordIndex [
            0,1,2,-1,2,1,3,-1,4,5,6,-1,4,6,7,-1,7,6,8,-1,7,8,9,-1,9,8,10,-1,9,10,11,-1,11,10,12,-1,11,12,13,-1,13,12,14,-1,13,14,15,-1,15,14,16,-1,15,16,17,-1,18,19,20,-1,20,19,21,-1,22,23,24,-1,22,24,25,-1,25,24,26,-1,25,26,27,-1,27,26,28,-1,27,28,29,-1,29,28,30,-1,29,30,31,-1,31,30,32,-1,31,32,33,-1,33,32,18,-1,33,18,20,-1,22,34,23,-1,23,34,35,-1,36,37,38,-1,36,38,39,-1,39,38,40,-1,39,40,41,-1,41,40,42,-1,41,42,43,-1,43,42,44,-1,43,44,45,-1,45,44,46,-1,45,46,47,-1,47,46,35,-1,47,35,34,-1,36,48,37,-1,37,48,49,-1,50,51,52,-1,50,52,53,-1,53,52,54,-1,53,54,55,-1,55,54,56,-1,55,56,57,-1,57,56,58,-1,57,58,59,-1,59,58,60,-1,59,60,61,-1,61,60,49,-1,61,49,48,-1,50,17,51,-1,51,17,16,-1,62,63,22,-1,22,63,34,-1,64,65,48,-1,64,48,66,-1,27,29,31,-1,67,68,69,-1,69,68,21,-1,68,70,21,-1,21,70,62,-1,21,62,20,-1,20,62,22,-1,20,22,33,-1,63,71,34,-1,34,71,72,-1,34,72,47,-1,47,72,73,-1,41,43,73,-1,73,43,45,-1,73,45,47,-1,74,66,75,-1,75,66,48,-1,75,48,76,-1,76,48,36,-1,76,36,73,-1,73,36,39,-1,73,39,41,-1,74,77,66,-1,66,77,78,-1,66,78,79,-1,80,61,81,-1,81,61,48,-1,81,48,82,-1,82,48,65,-1,83,17,84,-1,84,17,50,-1,84,50,85,-1,33,22,31,-1,31,22,25,-1,31,25,27,-1,85,50,80,-1,80,50,53,-1,80,53,55,-1,55,57,80,-1,80,57,59,-1,80,59,61,-1,86,83,87,-1,87,88,86,-1,86,88,89,-1,86,89,90,-1,83,86,17,-1,17,86,4,-1,17,4,7,-1,91,92,93,-1,93,92,1,-1,93,1,94,-1,7,9,11,-1,95,96,97,-1,97,96,0,-1,96,98,0,-1,0,98,79,-1,0,79,1,-1,1,79,78,-1,1,78,94,-1,11,13,7,-1,7,13,15,-1,7,15,17,-1,37,49,99,-1,99,100,37,-1,37,100,101,-1,37,101,38,-1,23,102,103,-1,104,105,49,-1,49,105,106,-1,106,107,49,-1,49,107,108,-1,49,108,99,-1,99,108,109,-1,99,109,110,-1,102,23,111,-1,111,23,35,-1,111,35,112,-1,5,113,114,-1,115,116,117,-1,118,119,109,-1,109,119,120,-1,109,120,110,-1,112,35,101,-1,101,35,46,-1,101,46,44,-1,121,122,123,-1,123,122,19,-1,123,19,124,-1,18,23,19,-1,19,23,103,-1,19,103,124,-1,115,117,113,-1,113,117,125,-1,113,125,114,-1,49,60,104,-1,104,60,58,-1,104,58,56,-1,44,42,101,-1,101,42,40,-1,101,40,38,-1,30,28,26,-1,8,6,10,-1,10,6,5,-1,10,5,12,-1,56,54,104,-1,104,54,52,-1,104,52,126,-1,126,52,51,-1,126,51,127,-1,18,32,23,-1,23,32,30,-1,23,30,24,-1,24,30,26,-1,127,51,114,-1,114,51,16,-1,114,16,5,-1,5,16,14,-1,5,14,12,-1,128,129,130,-1,130,129,2,-1,130,2,131,-1,132,133,134,-1,134,133,3,-1,133,135,3,-1,3,135,119,-1,3,119,2,-1,2,119,118,-1,2,118,131,-1,119,78,120,-1,120,78,77,-1,120,77,110,-1,110,77,74,-1,110,74,99,-1,99,74,75,-1,99,75,100,-1,100,75,76,-1,100,76,101,-1,101,76,73,-1,101,73,112,-1,112,73,72,-1,112,72,111,-1,111,72,71,-1,111,71,102,-1,102,71,63,-1,102,63,103,-1,103,63,62,-1,114,83,127,-1,127,83,84,-1,127,84,126,-1,126,84,85,-1,126,85,104,-1,104,85,80,-1,104,80,105,-1,105,80,81,-1,105,81,106,-1,106,81,82,-1,106,82,107,-1,107,82,65,-1,107,65,108,-1,108,65,64,-1,108,64,109,-1,109,64,66,-1,109,66,118,-1,118,66,79,-1,103,62,70,-1,103,70,124,-1,124,70,68,-1,124,68,123,-1,123,68,67,-1,123,67,121,-1,121,67,69,-1,121,69,122,-1,122,69,21,-1,122,21,19,-1,3,1,92,-1,3,92,134,-1,134,92,91,-1,134,91,132,-1,132,91,93,-1,132,93,133,-1,133,93,94,-1,133,94,135,-1,135,94,78,-1,135,78,119,-1,118,79,98,-1,118,98,131,-1,131,98,96,-1,131,96,130,-1,130,96,95,-1,130,95,128,-1,128,95,97,-1,128,97,129,-1,129,97,0,-1,129,0,2,-1,113,86,90,-1,113,90,115,-1,115,90,89,-1,115,89,116,-1,116,89,88,-1,116,88,117,-1,117,88,87,-1,117,87,125,-1,125,87,83,-1,125,83,114,-1,
        ]
    }
}